<?xml version='1.0' encoding='utf-8'?>
<svg xmlns="http://www.w3.org/2000/svg" width="163.5mm" height="32.8mm" viewBox="0 0 1000000 200612"><defs><style>.C1 {stroke: #bf7fff; stroke-width: 1529; stroke-opacity: 1.000; fill: none; fill-opacity: 1.000;}</style><style>.C2 {stroke: #ff00ff; stroke-width: 1529; stroke-opacity: 1.000; fill: none; fill-opacity: 1.000;}</style><style>.C3 {stroke: #ffffff; stroke-width: 1529; stroke-opacity: 1.000; fill: none; fill-opacity: 1.000;}</style><style>.C4 {stroke: #ff0000; stroke-width: 1529; stroke-opacity: 1.000; fill: none; fill-opacity: 1.000;}</style><style>.C5 {stroke: #ffff00; stroke-width: 1529; stroke-opacity: 1.000; fill: none; fill-opacity: 1.000;}</style><style>.C6 {stroke: #00ff00; stroke-width: 1529; stroke-opacity: 1.000; fill: none; fill-opacity: 1.000;}</style></defs><g stroke-linecap="round" stroke-linejoin="round" fill-rule="evenodd"><path d="M 19327 42166 l 0 27573" class="C1" /><path d="M 85889 47394 l 0 184" class="C1" /><path d="M 5792 65159 l 4755 0" class="C1" /><path d="M 19327 1206 l 0 14575" class="C1" /><path d="M 15905 65140 c -21 -8 -43 -12 -65 -12" class="C1" /><path d="M 951412 152490 l 0 -82494" class="C2" /><path d="M 111248 34398 c 105 0 190 -85 190 -190" class="C1" /><path d="M 85889 76858 l 0 545" class="C1" /><path d="M 999534 200612 l -80967 -80967" class="C2" /><path d="M 19327 79849 l -23 0" class="C1" /><path d="M 112579 42577 l 0 -256" class="C1" /><path d="M 5792 65064 l 4755 0" class="C1" /><path d="M 18412 81223 l -1254 0" class="C1" /><path d="M 15905 65140 l 2126 780" class="C1" /><path d="M 85143 81120 l 0 498" class="C1" /><path d="M 90819 40865 l 0 -3234" class="C1" /><path d="M 476693 160128 c 0 2320 -1881 4201 -4201 4201 c -2320 0 -4201 -1881 -4201 -4201 c 0 -2320 1881 -4201 4201 -4201 c 2320 0 4201 1881 4201 4201" class="C3" /><path d="M 23688 56891 l 0 -421" class="C1" /><path d="M 231883 160128 c 0 3797 9234 6875 20624 6875 c 11390 0 20624 -3078 20624 -6875 c 0 -3797 -9234 -6875 -20624 -6875 c -11390 0 -20624 3078 -20624 6875" class="C3" /><path d="M 19327 111977 l 0 -14575" class="C1" /><path d="M 80721 56891 c 18 145 48 290 91 434" class="C1" /><path d="M 19266 20625 l 0 -38" class="C1" /><path d="M 86269 50244 l 0 24225" class="C1" /><path d="M 7884 104730 l 0 -23358" class="C1" /><path d="M 966689 167767 l -93188 0" class="C2" /><path d="M 824004 62357 l -10999 0" class="C2" /><path d="M 19327 112233 c -0 252 100 493 278 671 c 178 178 420 278 671 278" class="C1" /><path d="M 85889 75624 l -806 0" class="C1" /><path d="M 20277 16401 l 0 25765" class="C1" /><path d="M 873501 50197 l 0 24321" class="C2" /><path d="M 873501 152490 l -733284 0" class="C3" /><path d="M 19327 32612 l -61 0" class="C1" /><path d="M 80812 57325 l 0 12413" class="C1" /><path d="M 13590 65128 l 0 -5539" class="C1" /><path d="M 112349 39278 l 27961 0" class="C1" /><path d="M 23597 73379 c 0 541 505 921 1224 921" class="C1" /><path d="M 8188 81068 c -168 0 -304 136 -304 304" class="C1" /><path d="M 23688 56292 c -18 -145 -48 -290 -91 -434" class="C1" /><path d="M 20277 98073 l 63856 0" class="C1" /><path d="M 19297 105981 l -2139 -2615" class="C1" /><path d="M 85889 63022 l -806 0" class="C1" /><path d="M 891833 102840 l 0 -80967" class="C4" /><path d="M 897944 53191 l -24443 0" class="C2" /><path d="M 951412 152490 l -77911 0" class="C2" /><path d="M 85493 47566 l 0 1157" class="C1" /><path d="M 5792 65159 l 0 -95" class="C1" /><path d="M 17775 18926 l 0 2183" class="C1" /><path d="M 85082 96782 c 0 -8588 0 -17177 0 -27043" class="C1" /><path d="M 85889 75624 l 0 1234" class="C1" /><path d="M 85683 40865 l 0 -3234" class="C1" /><path d="M 106112 34778 l -15293 0" class="C1" /><path d="M 24821 38883 c -719 0 -1224 380 -1224 921" class="C1" /><path d="M 19297 78333 l 0 286" class="C1" /><path d="M 19106 67494 l 221 0" class="C1" /><path d="M 466 64166 l 761 761" class="C1" /><path d="M 24821 74300 l 54768 0" class="C1" /><path d="M 85493 34112 c 0 -254 -167 -477 -411 -548" class="C1" /><path d="M 19327 112233 c 0 -0 0 -0 0 -1 c 0 -1 0 -2 0 -3 c 0 -1 0 -3 0 -5 c 0 -2 0 -5 0 -7 c 0 -3 0 -6 0 -9 c 0 -3 0 -7 0 -11 c 0 -4 0 -9 0 -14 c 0 -5 0 -10 0 -16 c 0 -11 0 -23 0 -37 c 0 -13 0 -28 0 -44 c 0 -16 0 -33 0 -51 c 0 -18 0 -38 0 -58" class="C1" /><path d="M 873501 150962 l 0 18332" class="C2" /><path d="M 17014 81068 l -8826 0" class="C1" /><path d="M 85143 81923 l 0 497" class="C1" /><path d="M 140310 42321 l 0 -3043" class="C1" /><path d="M 131249 160128 l 761146 0" class="C5" /><path d="M 158549 169279 c 0 -202 -164 -367 -367 -367" class="C3" /><path d="M 966689 167767 l 0 -113048" class="C2" /><path d="M 158549 21874 l 733284 0" class="C4" /><path d="M 20277 0 c -524 0 -950 425 -950 950" class="C1" /><path d="M 13590 22985 l 0 -1712" class="C1" /><path d="M 159066 50762 l 0 23190" class="C6" /><path d="M 85683 37631 l 0 -3234" class="C1" /><path d="M 15112 18926 l 0 2183" class="C1" /><path d="M 17159 104888 c 86 -504 86 -1019 -1 -1523" class="C1" /><path d="M 85143 81120 l -61 0" class="C1" /><path d="M 18155 67106 l 571 0" class="C1" /><path d="M 897944 169294 l -24443 0" class="C2" /><path d="M 17159 104888 l 2138 2610" class="C1" /><path d="M 112349 42321 l 0 -3043" class="C1" /><path d="M 112579 62359 l 0 -19782" class="C1" /><path d="M 15112 18761 l 0 165" class="C1" /><path d="M 19266 21298 l 0 -506" class="C1" /><path d="M 85889 77428 l -806 0" class="C1" /><path d="M 85889 74936 l -806 0" class="C1" /><path d="M 19297 107499 l 0 285" class="C1" /><path d="M 140217 168912 l 0 -17568" class="C3" /><path d="M 19297 80144 l 0 286" class="C1" /><path d="M 80812 39804 l 0 2362" class="C1" /><path d="M 23688 56470 l 0 -178" class="C1" /><path d="M 866300 62357 l 31644 0" class="C5" /><path d="M 140217 119645 l 0 80967" class="C3" /><path d="M 341953 169294 l -183404 0" class="C3" /><path d="M 85889 47578 l -396 0" class="C1" /><path d="M 187575 50594 l 0 23526" class="C4" /><path d="M 19304 79849 l 0 295" class="C1" /><path d="M 30931 71047 l 42577 0" class="C1" /><path d="M 197505 53191 l 0 18332" class="C4" /><path d="M 999534 21874 l 0 178738" class="C2" /><path d="M 158549 69995 l 733284 0" class="C4" /><path d="M 1227 59791 l -761 761" class="C1" /><path d="M 158549 102840 l 733284 0" class="C4" /><path d="M 85683 40865 l 5136 0" class="C1" /><path d="M 20277 0 l 63856 0" class="C1" /><path d="M 10547 59653 l 0 -95" class="C1" /><path d="M 897944 71523 l -24443 0" class="C2" /><path d="M 20277 69739 l 0 -27573" class="C1" /><path d="M 158182 151344 c 202 0 367 -164 367 -367" class="C3" /><path d="M 20277 15110 l 0 1291" class="C1" /><path d="M 999534 21874 l -126033 0" class="C2" /><path d="M 84133 98073 c 444 63 861 -232 950 -671" class="C1" /><path d="M 111248 37631 l 0 -3234" class="C1" /><path d="M 18403 104888 l -1245 0" class="C1" /><path d="M 15839 59589 c 22 0 45 -4 65 -12" class="C1" /><path d="M 84133 42166 l 0 -25765" class="C1" /><path d="M 85143 81923 l 0 -2" class="C1" /><path d="M 74269 42927 c 0 -437 -354 -791 -791 -791" class="C1" /><path d="M 30140 42927 l 0 27329" class="C1" /><path d="M 383045 150962 c -2646 2941 -11022 4965 -20546 4965 c -9524 0 -17900 -2024 -20546 -4965" class="C3" /><path d="M 85889 47394 l -396 0" class="C1" /><path d="M 873501 119645 l 0 80967" class="C2" /><path d="M 873501 53191 l 0 18332" class="C2" /><path d="M 158549 169294 l 0 -18332" class="C3" /><path d="M 18696 80726 l 124 0" class="C1" /><path d="M 85082 81618 l 61 0" class="C1" /><path d="M 18817 80219 l 0 -155" class="C1" /><path d="M 85082 15781 c -89 -440 -505 -734 -950 -671" class="C1" /><path d="M 112579 50244 l -26310 0" class="C6" /><path d="M 19266 21960 l 0 -662" class="C1" /><path d="M 5792 62454 l 0 -190" class="C1" /><path d="M 17014 105803 l 660 0" class="C1" /><path d="M 900801 62357 l -776538 0" class="C5" /><path d="M 17014 104996 l 2283 2787" class="C1" /><path d="M 158549 102840 l 0 -80967" class="C4" /><path d="M 18726 67106 l 0 -9495" class="C1" /><path d="M 872982 151420 l -17813 0" class="C2" /><path d="M 19327 97402 l 0 14575" class="C1" /><path d="M 15112 18801 l -761 0" class="C1" /><path d="M 85493 47364 l -411 0" class="C1" /><path d="M 19297 78619 l -2139 2604" class="C1" /><path d="M 86269 74470 c -413 0 -809 168 -1096 466" class="C1" /><path d="M 85493 34207 c 0 105 85 190 190 190" class="C1" /><path d="M 828587 62357 l 21021 -0" class="C2" /><path d="M 85493 47566 l -411 0" class="C1" /><path d="M 85493 41150 l 0 -3519" class="C1" /><path d="M 85082 111977 l 0 -14575" class="C1" /><path d="M 19266 31277 l 0 -38" class="C1" /><path d="M 85889 63022 l 0 545" class="C1" /><path d="M 5792 62454 l 4755 0" class="C1" /><path d="M 19327 18926 l -411 0" class="C1" /><path d="M 139969 42577 l 0 -256" class="C1" /><path d="M 85493 37631 l 0 -3519" class="C1" /><path d="M 20277 98073 l 0 -1291" class="C1" /><path d="M 139969 62359 l 0 -19782" class="C1" /><path d="M 79589 74300 c 719 -0 1224 -380 1224 -921" class="C1" /><path d="M 897944 169294 c 32061 0 58052 -25991 58052 -58052 c 0 -32061 -25991 -58052 -58052 -58052" class="C2" /><path d="M 891833 53573 l 0 17568" class="C4" /><path d="M 19266 20625 l 61 0" class="C1" /><path d="M 951412 69995 l -77911 0" class="C2" /><path d="M 111438 41150 l 0 -3519" class="C1" /><path d="M 85143 81119 l 0 1" class="C1" /><path d="M 19327 78333 l -30 0" class="C1" /><path d="M 19327 102908 l -2313 0" class="C1" /><path d="M 19327 18420 l -30 0" class="C1" /><path d="M 112349 42321 l 27961 0" class="C1" /><path d="M 873501 169294 l -519 -458" class="C2" /><path d="M 873501 53206 c 0 202 164 367 367 367" class="C4" /><path d="M 13590 65128 l 2249 0" class="C1" /><path d="M 112579 42577 l 27390 0" class="C1" /><path d="M 24821 38883 l 54768 0" class="C1" /><path d="M 18696 106108 l 0 -662" class="C1" /><path d="M 341953 169294 c 2646 -2941 11022 -4965 20546 -4965 c 9524 0 17900 2024 20546 4965" class="C3" /><path d="M 85082 49675 c 289 360 725 569 1187 569" class="C1" /><path d="M 158549 169294 l 714952 0" class="C3" /><path d="M 158549 150962 l 0 15" class="C3" /><path d="M 17014 105803 l 0 -806" class="C1" /><path d="M 18916 21438 l 0 2183" class="C1" /><path d="M 19327 80144 l -30 0" class="C1" /><path d="M 10547 65064 l 0 -2610" class="C1" /><path d="M 20277 69739 l 0 27043" class="C1" /><path d="M 18916 19181 l -1141 0" class="C1" /><path d="M 873868 53573 l 17965 0" class="C4" /><path d="M 17684 80299 l -670 0" class="C1" /><path d="M 19327 23621 l -411 0" class="C1" /><path d="M 15112 21438 l 0 2183" class="C1" /><path d="M 18916 18761 l 0 165" class="C1" /><path d="M 84133 113183 c 524 0 950 -425 950 -950" class="C1" /><path d="M 19266 20625 l 0 166" class="C1" /><path d="M 158549 150962 l 714952 0" class="C3" /><path d="M 18696 105445 l 0 -200" class="C1" /><path d="M 18916 23621 l 0 165" class="C1" /><path d="M 106112 40865 l 0 -3234" class="C1" /><path d="M 85082 81119 l 61 0" class="C1" /><path d="M 85082 950 c 0 -252 -100 -493 -278 -671 c -178 -178 -420 -278 -671 -278" class="C1" /><path d="M 17775 21438 l 0 2183" class="C1" /><path d="M 873868 71141 c -202 0 -367 164 -367 367" class="C4" /><path d="M 90819 34398 l -5136 0" class="C1" /><path d="M 106112 40865 l 5136 0" class="C1" /><path d="M 85493 48723 l -411 0" class="C1" /><path d="M 873501 172289 l 0 -24321" class="C2" /><path d="M 20277 15110 c -444 -63 -861 232 -950 671" class="C1" /><path d="M 112349 39278 l 0 -9130" class="C1" /><path d="M 80812 39804 c 0 -541 -505 -921 -1224 -921" class="C1" /><path d="M 140055 50244 l 0 -7923" class="C1" /><path d="M 19304 80065 l -487 0" class="C1" /><path d="M 19266 21109 l -350 0" class="C1" /><path d="M 19327 31949 l -61 0" class="C1" /><path d="M 19327 57223 l -221 0" class="C1" /><path d="M 84133 96782 l 0 -27043" class="C1" /><path d="M 256708 160128 c 0 2320 -1881 4201 -4201 4201 c -2320 0 -4201 -1881 -4201 -4201 c 0 -2320 1881 -4201 4201 -4201 c 2320 0 4201 1881 4201 4201" class="C3" /><path d="M 14351 21273 l 0 -2473" class="C1" /><path d="M 19327 31443 l -61 0" class="C1" /><path d="M 111438 41150 c 0 216 122 413 315 510 c 193 97 424 77 597 -52" class="C1" /><path d="M 19327 96782 l 0 -27043" class="C1" /><path d="M 19106 67494 l 0 -10271" class="C1" /><path d="M 17775 23621 l -2663 0" class="C1" /><path d="M 197505 71523 l 675996 0" class="C4" /><path d="M 5792 62264 l 4755 0" class="C1" /><path d="M 918567 102840 l 0 16804" class="C2" /><path d="M 18817 80065 l 0 -12" class="C1" /><path d="M 19327 97402 c 89 440 505 734 950 671" class="C1" /><path d="M 19327 16401 c 0 1074 0 2147 0 3221 c 0 1074 0 2147 0 3221 c 0 1074 0 2147 0 3221 c 0 1074 -0 2147 0 3221 c 0 1074 0 2147 0 3221 c 0 1074 0 2147 0 3221 c 0 1074 0 2147 0 3221 c 0 1074 0 2147 0 3221" class="C1" /><path d="M 17775 18761 l -2663 0" class="C1" /><path d="M 451868 160128 c 0 3797 9234 6875 20624 6875 c 11390 0 20624 -3078 20624 -6875 c 0 -3797 -9234 -6875 -20624 -6875 c -11390 0 -20624 3078 -20624 6875" class="C3" /><path d="M 15905 65140 l 0 -5562" class="C1" /><path d="M 19106 58174 l -380 0" class="C1" /><path d="M 85889 76858 l -806 0" class="C1" /><path d="M 158549 74470 l 517 -517" class="C6" /><path d="M 85082 81920 l 61 0" class="C1" /><path d="M 19327 15781 c 0 90 0 181 0 284 c 0 103 -0 220 -0 336" class="C1" /><path d="M 17014 81117 l 0 -817" class="C1" /><path d="M 466 64166 l 0 -3614" class="C1" /><path d="M 84133 113183 l -63856 0" class="C1" /><path d="M 5792 65064 l 0 -2610" class="C1" /><path d="M 18696 80726 l 0 -506" class="C1" /><path d="M 85082 97402 c -0 -9 -0 -19 0 -28 c 0 -10 0 -20 -0 -30 c -0 -10 -0 -20 -0 -31 c -0 -10 -0 -21 -0 -32 c -0 -11 -0 -22 -0 -33 c -0 -7 0 -15 0 -22 c 0 -21 0 -42 0 -64 c 0 -15 0 -30 0 -45 c -0 -15 -0 -31 -0 -47 c -0 -23 -0 -47 -0 -70 c -0 -24 -0 -48 -0 -72 c 0 -24 0 -49 0 -73 c 0 -24 0 -49 0 -74" class="C1" /><path d="M 140310 50244 l 0 -7923" class="C1" /><path d="M 106112 37631 l 0 -3234" class="C1" /><path d="M 111248 40865 l 0 -3234" class="C1" /><path d="M 90819 40484 l 15293 0" class="C1" /><path d="M 19327 78619 l -30 0" class="C1" /><path d="M 873501 150962 l -519 458" class="C2" /><path d="M 80721 56470 l 0 421" class="C1" /><path d="M 85082 41698 c 243 -71 411 -294 411 -548" class="C1" /><path d="M 17014 102908 l 0 -19695" class="C1" /><path d="M 85889 49696 l -790 0" class="C1" /><path d="M 14351 23746 l 761 0" class="C1" /><path d="M 112349 30148 l 27961 0" class="C1" /><path d="M 139714 42577 l 0 -256" class="C1" /><path d="M 23597 57325 c 43 -145 74 -290 91 -434" class="C1" /><path d="M 18031 65919 l 0 -7121" class="C1" /><path d="M 17775 21109 l 0 329" class="C1" /><path d="M 873501 102840 l 0 -80967" class="C2" /><path d="M 14351 23746 l 0 -2473" class="C1" /><path d="M 112579 62359 l 27390 0" class="C1" /><path d="M 873501 53191 l -675996 0" class="C4" /><path d="M 158549 54719 l 733284 0" class="C4" /><path d="M 18817 80219 l -122 0" class="C1" /><path d="M 341953 150962 l -183404 0" class="C3" /><path d="M 84133 15110 l -63856 0" class="C1" /><path d="M 23597 55857 l 0 -13692" class="C1" /><path d="M 5792 62264 l 0 -2610" class="C1" /><path d="M 15839 65128 l 0 -5539" class="C1" /><path d="M 19304 106108 l -609 0" class="C1" /><path d="M 10547 62264 l 0 -2610" class="C1" /><path d="M 19327 21298 l -61 0" class="C1" /><path d="M 873501 169294 l 0 -18332" class="C3" /><path d="M 73508 71047 c 420 0 761 -341 761 -761" class="C1" /><path d="M 19266 31949 l 0 -506" class="C1" /><path d="M 872982 168836 l 0 -17415" class="C2" /><path d="M 23597 42166 l 0 -2362" class="C1" /><path d="M 85082 111977 l 0 -14575" class="C1" /><path d="M 159066 50762 l -517 -517" class="C6" /><path d="M 873501 167767 l -733284 0" class="C3" /><path d="M 897944 150962 l -24443 0" class="C2" /><path d="M 873501 200612 l -733284 0" class="C3" /><path d="M 30931 42135 c -437 0 -791 354 -791 791" class="C1" /><path d="M 85493 49679 l -411 0" class="C1" /><path d="M 85082 112233 c -0 -0 -0 -0 -0 -1 c 0 -1 0 -1 -0 -3 c -0 -1 -0 -3 -0 -4 c -0 -2 -0 -4 -0 -6 c -0 -2 -0 -5 -0 -8 c -0 -2 0 -4 0 -6 c 0 -6 0 -13 0 -21 c 0 -5 0 -11 0 -17 c -0 -6 -0 -13 -0 -20 c -0 -11 -0 -22 -0 -35 c -0 -12 -0 -26 -0 -40 c 0 -14 0 -29 0 -45 c 0 -16 0 -33 0 -50" class="C1" /><path d="M 897944 160128 c 26999 0 48886 -21887 48886 -48886 c 0 -26999 -21887 -48886 -48886 -48886" class="C5" /><path d="M 873501 119645 l 0 80967" class="C3" /><path d="M 13590 59772 l -3043 0" class="C1" /><path d="M 18155 67106 l 0 -9495" class="C1" /><path d="M 85082 15781 l 0 -14575" class="C1" /><path d="M 30140 70256 c 0 437 354 791 791 791" class="C1" /><path d="M 19327 18761 l -411 0" class="C1" /><path d="M 85082 15781 c 0 91 0 181 0 284 c 0 103 0 219 0 335" class="C1" /><path d="M 158182 168912 l -17965 0" class="C3" /><path d="M 182896 50762 l -23830 0" class="C6" /><path d="M 19297 24127 l 30 0" class="C1" /><path d="M 85082 1206 l 0 14575" class="C1" /><path d="M 111438 37631 l 0 -3519" class="C1" /><path d="M 19327 20791 l -61 0" class="C1" /><path d="M 19266 32612 l 0 -662" class="C1" /><path d="M 19327 21960 l -61 0" class="C1" /><path d="M 873501 53191 l 0 18332" class="C4" /><path d="M 10547 62454 l 0 -190" class="C1" /><path d="M 872982 168836 l -17813 0" class="C2" /><path d="M 808422 62357 l -21021 0" class="C2" /><path d="M 23597 73379 l 0 -3640" class="C1" /><path d="M 17775 23621 l 0 165" class="C1" /><path d="M 86269 74470 l 72280 0" class="C6" /><path d="M 918567 102840 l -45066 0" class="C2" /><path d="M 18031 58798 l -2126 780" class="C1" /><path d="M 18726 57611 l -571 0" class="C1" /><path d="M 158549 74120 l 29026 0" class="C4" /><path d="M 18696 105445 l 163 0" class="C1" /><path d="M 84133 98073 l 0 -1291" class="C1" /><path d="M 15112 21109 l 0 329" class="C1" /><path d="M 80812 69739 l 0 3640" class="C1" /><path d="M 18916 21109 l 0 329" class="C1" /><path d="M 85889 47578 l 0 1151" class="C1" /><path d="M 84133 15110 l 0 1291" class="C1" /><path d="M 19304 80015 l -609 0" class="C1" /><path d="M 80812 55857 c -43 145 -74 290 -91 434" class="C1" /><path d="M 84133 42166 l 0 27573" class="C1" /><path d="M 17775 23366 l 1141 0" class="C1" /><path d="M 85082 69739 l 0 -27573" class="C1" /><path d="M 8608 62357 l 177199 0" class="C5" /><path d="M 18155 66098 c 0 -80 -50 -151 -125 -179" class="C1" /><path d="M 112835 42321 l 0 256" class="C1" /><path d="M 15839 59589 l -2249 0" class="C1" /><path d="M 18696 80877 l 0 -152" class="C1" /><path d="M 85889 77403 l 0 26" class="C1" /><path d="M 17014 83213 l 2283 -2783" class="C1" /><path d="M 18696 80053 l 0 166" class="C1" /><path d="M 187575 74120 l 9930 -2597" class="C4" /><path d="M 17775 23786 l -2663 0" class="C1" /><path d="M 182896 50762 l 0 23190" class="C6" /><path d="M 111438 41055 c 0 -105 -85 -190 -190 -190" class="C1" /><path d="M 85889 63567 l -806 0" class="C1" /><path d="M 158549 169294 l 0 -15" class="C3" /><path d="M 19266 31277 l 61 0" class="C1" /><path d="M 5792 59653 l 4755 0" class="C1" /><path d="M 5792 59558 l 4755 0" class="C1" /><path d="M 80812 42166 l 0 13692" class="C1" /><path d="M 19266 31277 l 0 166" class="C1" /><path d="M 19266 21438 l -350 0" class="C1" /><path d="M 158549 50244 l 0 24225" class="C6" /><path d="M 19327 23786 l -411 0" class="C1" /><path d="M 14351 18801 c -420 0 -761 341 -761 761" class="C1" /><path d="M 112349 50244 l 0 -7923" class="C1" /><path d="M 19327 950 c 0 12 0 24 0 66 c 0 43 0 117 0 190" class="C1" /><path d="M 1227 64926 l 4565 0" class="C1" /><path d="M 8188 105034 l 8826 0" class="C1" /><path d="M 85889 61789 l 0 1234" class="C1" /><path d="M 10547 65159 l 0 -95" class="C1" /><path d="M 158549 50244 l -18580 0" class="C6" /><path d="M 18696 80053 l 122 0" class="C1" /><path d="M 85082 16401 l 0 25765" class="C1" /><path d="M 999534 21874 l -80967 80967" class="C2" /><path d="M 19327 20587 l -61 0" class="C1" /><path d="M 13590 22985 c 0 420 341 761 761 761" class="C1" /><path d="M 85082 950 c 0 12 0 24 0 67 c 0 43 0 116 0 190" class="C1" /><path d="M 158549 50594 l 0 23526" class="C4" /><path d="M 159066 73952 l 23830 0" class="C6" /><path d="M 19327 1206 l 0 14575" class="C1" /><path d="M 17159 82751 l 2138 -2606" class="C1" /><path d="M 85143 81923 l -61 0" class="C1" /><path d="M 19327 83213 l -2313 0" class="C1" /><path d="M 19327 97402 c 0 -10 0 -21 0 -31 c 0 -11 0 -21 0 -33 c 0 -11 0 -22 0 -34 c 0 -11 0 -23 0 -35 c 0 -12 0 -24 0 -36 c 0 -12 0 -25 0 -37 c 0 -13 0 -26 0 -38 c 0 -13 0 -26 0 -40 c 0 -27 0 -54 0 -81 c 0 -27 0 -55 0 -83 c 0 -28 0 -56 0 -85 c -0 -29 -0 -58 -0 -86" class="C1" /><path d="M 19327 80430 l -30 0" class="C1" /><path d="M 1227 59791 l 0 5136" class="C1" /><path d="M 842307 160128 l 55637 0" class="C5" /><path d="M 158182 151344 l -17965 0" class="C3" /><path d="M 85889 48729 l -396 0" class="C1" /><path d="M 73478 42135 l -42546 0" class="C1" /><path d="M 999534 200612 l -126033 0" class="C2" /><path d="M 112349 33655 c -173 -129 -404 -149 -597 -52 c -193 97 -315 294 -315 510" class="C1" /><path d="M 5792 59653 l 0 -95" class="C1" /><path d="M 187575 50594 l -29026 0" class="C4" /><path d="M 23597 69739 l 0 -12413" class="C1" /><path d="M 18916 18926 l 0 2183" class="C1" /><path d="M 90819 37631 l 0 -3234" class="C1" /><path d="M 85889 61100 l -806 0" class="C1" /><path d="M 10547 64945 l 3043 0" class="C1" /><path d="M 74269 70287 l 0 -27360" class="C1" /><path d="M 85889 61789 l -806 0" class="C1" /><path d="M 17014 81116 l 2283 -2783" class="C1" /><path d="M 85082 82420 l 61 0" class="C1" /><path d="M 5792 59791 l -4565 0" class="C1" /><path d="M 17014 81116 l 0 2097" class="C1" /><path d="M 85889 77403 l -806 0" class="C1" /><path d="M 17775 21438 l -2663 0" class="C1" /><path d="M 873501 119645 l -733284 0" class="C3" /><path d="M 855169 151420 l 0 17415" class="C2" /><path d="M 80721 56292 l 0 178" class="C1" /><path d="M 85889 48729 l 0 967" class="C1" /><path d="M 18726 66543 l 380 0" class="C1" /><path d="M 85889 74936 l 0 688" class="C1" /><path d="M 19327 31239 l -61 0" class="C1" /><path d="M 17159 82751 c 86 -506 86 -1022 -1 -1528" class="C1" /><path d="M 17775 18761 l 0 165" class="C1" /><path d="M 17775 21109 l -2663 0" class="C1" /><path d="M 85493 48723 l 0 956" class="C1" /><path d="M 85683 40865 c -105 0 -190 85 -190 190" class="C1" /><path d="M 7884 104730 c 0 168 136 304 304 304" class="C1" /><path d="M 158549 62357 l 742553 0" class="C5" /><path d="M 18696 80053 l 0 -38" class="C1" /><path d="M 966689 54719 l -93188 0" class="C2" /><path d="M 19304 105981 l 0 292" class="C1" /><path d="M 111248 34398 l -5136 0" class="C1" /><path d="M 140310 39278 l 0 -9130" class="C1" /><path d="M 17775 18926 l -2663 0" class="C1" /><path d="M 13590 21273 l 0 -1712" class="C1" /><path d="M 918567 119645 l -45066 0" class="C2" /><path d="M 18031 58798 c 75 -27 125 -99 125 -179" class="C1" /><path d="M 85493 47364 l 0 202" class="C1" /><path d="M 15112 23621 l 0 165" class="C1" /><path d="M 897944 150962 c 21937 0 39720 -17783 39720 -39720 c 0 -21937 -17783 -39720 -39720 -39720" class="C2" /><path d="M 85889 61100 l 0 688" class="C1" /><path d="M 873868 71141 l 17965 0" class="C4" /><path d="M 187575 50594 l 9930 2597" class="C4" /></g></svg>