<?xml version='1.0' encoding='utf-8'?>
<svg xmlns="http://www.w3.org/2000/svg" width="51.8mm" height="10.1mm" viewBox="0 0 1000000 194998">
<g stroke="#ffffff" stroke-width="2895" stroke-linecap="round" stroke-linejoin="round" fill="none">
<path d="M 59004.5 169175.2 L 59004.5 169674.5"/>
<path d="M 23577.9 90000.5 L 23579.4 89993.6 L 23580.9 89987.1 L 23582.4 89981.4 L 23583.9 89976.7 L 23596.3 89991.2 L 23608.6 90086.4 L 23620.9 90241.5 L 23633.2 90435.9 L 23645.6 90652.9 L 23658.1 90892.5 L 23670.6 91158.9 L 23683.0 91456.0 L 23696.8 91827.2 L 23710.4 92237.4 L 23724.0 92682.2 L 23737.8 93157.1 L 23751.6 93657.9 L 23765.6 94181.7 L 23779.5 94725.7 L 23793.3 95287.2 L 23808.0 95911.2 L 23822.5 96547.7 L 23837.1 97191.7 L 23851.8 97838.5 L 23866.8 98483.4 L 23881.9 99122.1 L 23897.0 99750.2 L 23911.9 100363.6 L 23926.6 100961.1 L 23941.1 101534.6 L 23955.5 102079.5 L 23970.1 102591.0 L 23984.9 103066.8 L 23999.9 103504.3 L 24015.0 103903.5 L 24030.0 104264.7 L 24044.8 104586.2 L 24059.5 104856.4 L 24074.1 105062.1 L 24088.7 105190.1 L 24096.8 105224.1 L 24104.9 105237.3 L 24113.0 105236.7 L 24121.2 105229.0"/>
<path d="M 14158.4 90662.8 L 14093.0 90549.7 L 14027.6 90436.6 L 13962.2 90323.5 L 13896.8 90210.4 L 13831.4 90097.3 L 13766.0 89984.2 L 13700.6 89871.1 L 13635.2 89758.0"/>
<path d="M 67732.5 169175.2 L 67847.5 169956.3 L 67710.8 170806.7 L 67310.1 171599.2 L 66672.7 172279.7 L 65841.9 172801.9 L 64874.5 173130.2 L 63836.3 173242.1 L 62798.1 173130.2 L 61830.7 172801.9 L 60999.9 172279.7 L 60362.4 171599.2 L 59961.7 170806.7 L 59825.0 169956.3 L 59940.0 169175.2"/>
<path d="M 980697.6 169798.9 L 980482.8 170149.8 L 980267.7 170497.9 L 980051.9 170840.1 L 979835.1 171173.4 L 979610.6 171505.0 L 979385.4 171823.4 L 979160.6 172127.8 L 978936.8 172417.7 L 978788.7 172602.5 L 978641.3 172782.3 L 978494.3 172958.6 L 978347.5 173133.3"/>
<path d="M 980697.6 25822.8 L 980697.6 25323.4"/>
<path d="M 63947.3 155481.3 A 2822.6 2822.6 0 0 0 66951.1 153232.2"/>
<path d="M 22626.0 90482.0 L 22625.9 90496.9 L 22625.8 90512.0 L 22625.7 90527.6 L 22625.6 90544.1 L 22625.7 90621.6 L 22626.3 90716.5 L 22627.2 90828.0 L 22628.2 90955.2 L 22630.0 91208.7 L 22631.8 91506.0 L 22633.4 91847.2 L 22634.7 92232.4 L 22635.5 92556.0 L 22636.1 92898.9 L 22636.5 93254.7 L 22637.0 93616.9"/>
<path d="M 72903.5 95179.5 L 72780.7 95179.5"/>
<path d="M 24674.8 89476.8 L 24672.7 89456.6 L 24670.6 89438.7 L 24668.4 89425.3 L 24666.4 89418.8 L 24664.4 89420.3 L 24662.5 89428.0 L 24660.5 89439.7 L 24658.6 89453.5"/>
<path d="M 982390.0 184358.9 L 982390.0 165056.7"/>
<path d="M 12946.3 105255.8 L 13011.7 105142.6 L 13077.1 105029.5 L 13142.5 104916.3 L 13207.9 104803.2 L 13273.4 104690.1 L 13338.8 104577.0 L 13404.2 104463.8 L 13469.6 104350.7"/>
<path d="M 979762.2 169175.2 L 979877.2 169956.3 L 979740.5 170806.7 L 979339.8 171599.2 L 978702.3 172279.7 L 977871.6 172801.9 L 976904.1 173130.2 L 975865.9 173242.1 L 974827.7 173130.2 L 973860.3 172801.9 L 973029.6 172279.7 L 972392.1 171599.2 L 971991.3 170806.7 L 971854.7 169956.3 L 971969.7 169175.2"/>
<path d="M 73287.7 94497.8 L 73236.7 94585.7 L 73185.7 94673.5 L 73134.6 94761.4 L 73083.6 94849.3 L 73035.6 94931.9 L 72987.5 95014.4 L 72939.5 95097.0 L 72891.5 95179.5"/>
<path d="M 982008.8 25822.8 L 57312.1 25822.8"/>
<path d="M 72576.3 100198.4 L 72749.6 100496.8"/>
<path d="M 967125.9 160231.2 L 967125.9 34766.8"/>
<path d="M 49353.3 92673.4 L 49357.6 92673.4 L 49363.0 92673.4 L 49370.8 92673.4 L 49382.2 92673.4 L 49443.9 92673.4 L 49538.9 92673.4 L 49656.1 92673.4 L 49784.4 92673.4"/>
<path d="M 68668.0 169798.9 A 3250.4 3250.4 0 0 0 68668.0 169674.5"/>
<path d="M 252890.0 9651.1 L 252889.5 9651.1 L 252889.0 9651.1 L 252888.5 9651.1 L 252888.0 9651.1 L 252880.1 9651.1 L 252904.2 9651.1 L 252952.0 9651.1 L 253015.4 9651.1 L 253087.6 9651.1 L 253168.4 9651.1 L 253258.9 9651.1 L 253360.5 9651.1 L 253473.9 9651.1 L 253597.9 9651.1 L 253730.7 9651.1 L 253870.9 9651.1 L 254016.5 9651.1 L 254166.0 9651.1 L 254317.3 9651.1 L 254468.7 9651.1 L 254618.8 9651.1 L 254767.6 9651.1 L 254915.6 9651.1 L 255063.1 9651.1"/>
<path d="M 46232.7 89411.4 L 24735.8 89411.4"/>
<path d="M 53274.1 29941.2 L 57705.9 29941.2"/>
<path d="M 11562.0 90739.4 L 11395.6 90739.4"/>
<path d="M 966952.6 94558.6 L 966959.5 94561.2 L 966966.5 94565.9 L 966973.3 94574.6 L 966980.0 94589.4 L 966996.1 94658.8 L 967011.6 94771.3 L 967027.0 94920.2 L 967042.7 95099.0 L 967055.4 95255.4 L 967068.4 95422.5 L 967081.7 95596.8 L 967095.0 95774.6"/>
<path d="M 14167.2 105296.2 L 14319.2 105300.9"/>
<path d="M 62606.8 152650.3 A 1311.9 1311.9 0 0 0 65065.8 152650.3"/>
<path d="M 981830.3 10960.1 L 981830.3 25822.8"/>
<path d="M 65394.1 185346.9 L 65498.9 185333.2 L 65602.5 185316.3 L 65703.7 185292.7 L 65801.3 185259.0 L 65901.5 185208.6 L 65995.1 185144.7 L 66081.1 185069.4 L 66158.5 184984.8 L 66212.1 184913.8 L 66259.0 184838.8 L 66298.2 184760.3 L 66328.9 184678.6 L 66349.3 184600.7 L 66363.6 184521.1 L 66373.8 184440.3 L 66382.0 184358.9"/>
<path d="M 61486.1 21802.5 L 61915.7 21756.3 L 62345.9 21713.4 L 62777.5 21677.4 L 63211.1 21651.7 L 63660.2 21638.7 L 64110.5 21639.8 L 64560.3 21654.4 L 65007.8 21682.0 L 65304.0 21707.2 L 65598.9 21736.7 L 65892.9 21768.9 L 66186.4 21802.5"/>
<path d="M 71074.6 18865.8 L 61423.5 10960.1"/>
<path d="M 23594.6 89990.8 L 23583.1 89970.9 L 23571.6 89951.0 L 23560.1 89931.1 L 23548.5 89911.2 L 23483.1 89798.1 L 23417.8 89685.0 L 23352.4 89571.9 L 23287.0 89458.8"/>
<path d="M 66186.4 173195.5 L 65756.9 173241.7 L 65326.6 173284.5 L 64895.0 173320.5 L 64461.4 173346.3 L 64012.3 173359.3 L 63562.1 173358.2 L 63112.3 173343.6 L 62664.8 173316.0 L 62368.6 173290.7 L 62073.7 173261.3 L 61779.7 173229.1 L 61486.1 173195.5"/>
<path d="M 966414.5 100500.2 L 966465.5 100412.3 L 966516.5 100324.4 L 966567.6 100236.5 L 966618.7 100148.7 L 966666.7 100066.1 L 966714.7 99983.6 L 966762.7 99901.0 L 966810.7 99818.4"/>
<path d="M 983104.3 184358.9 L 983104.3 165056.7"/>
<path d="M 966785.7 94491.4 L 966734.8 94578.9 L 966684.0 94666.5 L 966633.1 94754.1 L 966582.2 94841.7 L 966533.1 94926.1 L 966483.9 95010.6 L 966434.8 95095.1 L 966385.7 95179.5"/>
<path d="M 24406.1 89565.1 L 23537.6 89970.1"/>
<path d="M 24673.8 89483.4 L 24675.4 89472.1 L 24676.9 89461.2 L 24678.5 89451.2 L 24680.0 89442.5 L 24693.7 89436.5 L 24707.6 89532.1 L 24721.7 89695.4 L 24735.8 89892.4"/>
<path d="M 967125.9 53725.0 L 72576.3 53725.0"/>
<circle cx="64131.6" cy="121626.7" r="3619.2"/>
<path d="M 977405.9 185346.9 L 977400.2 185346.9 L 977391.1 185346.9 L 977375.0 185346.9 L 977348.7 185346.9 L 977298.9 185346.9 L 977231.2 185346.9 L 977148.3 185346.9 L 977052.9 185346.9 L 976947.2 185346.9 L 976832.2 185346.9 L 976708.5 185346.9 L 976576.5 185346.9 L 976437.1 185346.9 L 976291.9 185346.9 L 976142.8 185346.9 L 975991.9 185346.9"/>
<path d="M 16231.6 89678.5 L 16163.3 89796.5 L 16095.1 89914.4 L 16026.9 90032.4 L 15958.7 90150.4 L 15892.0 90265.7 L 15825.3 90381.0 L 15758.7 90496.3 L 15692.0 90611.6"/>
<path d="M 21730.1 104540.5 L 21718.3 104538.6 L 21706.6 104529.1 L 21694.9 104504.1 L 21683.1 104456.0 L 21665.7 104330.9 L 21648.3 104146.8 L 21630.9 103912.5 L 21613.4 103636.9 L 21596.0 103327.5 L 21578.6 102986.0 L 21561.2 102612.4 L 21543.7 102207.0 L 21526.3 101770.7 L 21508.9 101306.4 L 21491.5 100817.6 L 21474.0 100308.2 L 21456.6 99781.7 L 21439.2 99241.4 L 21421.8 98690.5 L 21404.4 98132.2 L 21386.9 97570.2 L 21369.5 97007.7 L 21352.1 96448.5 L 21334.7 95896.2 L 21317.2 95354.4 L 21299.8 94826.3 L 21282.4 94314.7 L 21265.0 93822.6 L 21247.5 93353.5 L 21230.1 92910.9 L 21212.7 92499.1 L 21195.3 92122.1 L 21177.8 91782.7 L 21160.4 91478.3 L 21143.0 91205.2 L 21125.6 90959.4 L 21108.1 90741.7 L 21090.7 90570.2 L 21073.3 90467.5 L 21055.9 90456.4 L 21055.0 90458.8 L 21054.0 90461.4 L 21053.1 90464.2 L 21052.2 90467.0"/>
<path d="M 16238.0 89781.2 L 16245.3 89761.4 L 16252.5 89745.6 L 16259.8 89737.4 L 16267.0 89741.0 L 16285.4 89818.7 L 16303.7 89984.7 L 16321.9 90222.0 L 16340.1 90513.4 L 16358.6 90845.1 L 16377.1 91215.2 L 16395.8 91625.3 L 16414.5 92076.6 L 16433.2 92569.5 L 16451.9 93100.0 L 16470.4 93663.1 L 16488.8 94253.9 L 16507.1 94867.7 L 16525.2 95499.8 L 16543.5 96145.8 L 16562.0 96801.5 L 16580.8 97462.4 L 16599.7 98124.0 L 16618.6 98781.6 L 16637.2 99430.5 L 16655.5 100066.6 L 16673.6 100684.4 L 16691.6 101279.3 L 16709.9 101846.2 L 16728.5 102381.0 L 16747.4 102881.6 L 16766.3 103346.7 L 16785.1 103774.8 L 16803.7 104163.2 L 16822.0 104503.4 L 16840.2 104785.2 L 16858.5 104998.8 L 16872.8 105113.6 L 16887.1 105193.3 L 16901.5 105249.4 L 16915.9 105293.8"/>
<path d="M 73305.6 99818.4 L 73427.8 99818.4"/>
<path d="M 22637.0 93616.9 L 22625.0 93305.7 L 22613.1 92999.3 L 22601.1 92702.6 L 22589.2 92420.7 L 22571.8 92043.8 L 22554.3 91704.3 L 22536.9 91398.3 L 22519.5 91122.0 L 22502.1 90874.9 L 22484.6 90671.1 L 22467.2 90528.0 L 22449.8 90463.4 L 22445.5 90461.2 L 22441.1 90463.5 L 22436.8 90468.7 L 22432.5 90475.4"/>
<path d="M 88567.2 23160.1 L 87874.7 23272.9 L 87287.7 23594.2 L 86895.4 24075.1 L 86757.7 24642.4 L 86895.4 25209.6 L 87287.7 25690.5 L 87472.7 25822.8"/>
<path d="M 59004.5 25199.1 L 59071.5 25087.6 L 59138.6 24976.3 L 59205.7 24865.3 L 59272.9 24754.9 L 59473.6 24431.5 L 59675.5 24115.4 L 59878.4 23807.5 L 60081.8 23508.7 L 60291.5 23211.5 L 60500.9 22925.5 L 60709.6 22651.3 L 60917.1 22389.3 L 61026.9 22255.0 L 61136.3 22123.4 L 61245.6 21993.6 L 61354.7 21864.7"/>
<path d="M 978278.7 184037.9 L 981830.3 184037.9"/>
<path d="M 10372.7 104765.0 L 10363.4 104742.5 L 10354.2 104709.3 L 10345.0 104654.6 L 10335.9 104567.8 L 10323.9 104391.5 L 10312.1 104149.9 L 10300.2 103852.5 L 10288.3 103508.6 L 10276.3 103130.3 L 10264.3 102716.6 L 10252.2 102268.8 L 10240.0 101787.9 L 10227.9 101276.0 L 10215.8 100736.6 L 10203.7 100174.2 L 10191.6 99593.4 L 10179.8 99006.7 L 10168.1 98410.6 L 10156.2 97809.4 L 10144.2 97207.4 L 10132.0 96609.0 L 10119.7 96018.1 L 10107.4 95438.6 L 10095.3 94874.8 L 10083.4 94336.7 L 10071.7 93822.4 L 10059.9 93336.4 L 10048.0 92883.3 L 10035.9 92469.1 L 10023.7 92091.4 L 10011.5 91749.7 L 9999.3 91443.5 L 9987.3 91175.6 L 9975.3 90955.4 L 9963.4 90796.2 L 9951.4 90711.0 L 9945.5 90699.2 L 9939.5 90703.1 L 9933.6 90717.4 L 9927.6 90736.9"/>
<path d="M 973515.8 21802.5 L 973945.4 21756.3 L 974375.6 21713.4 L 974807.2 21677.4 L 975240.8 21651.7 L 975689.9 21638.7 L 976140.2 21639.8 L 976589.9 21654.4 L 977037.4 21682.0 L 977333.6 21707.2 L 977628.5 21736.7 L 977922.5 21768.9 L 978216.1 21802.5"/>
<path d="M 57312.1 169175.2 L 982008.8 169175.2"/>
<path d="M 65370.1 185346.9 L 65375.0 185346.9 L 65379.3 185346.9 L 65382.4 185346.9 L 65383.7 185346.9 L 65369.7 185346.9 L 65330.3 185346.9 L 65270.8 185346.9 L 65196.8 185346.9 L 65112.9 185346.9 L 65019.5 185346.9 L 64916.3 185346.9 L 64802.9 185346.9 L 64679.1 185346.9 L 64546.4 185346.9 L 64406.7 185346.9 L 64261.7 185346.9 L 64113.2 185346.9 L 63962.2 185346.9 L 63809.5 185346.9 L 63655.9 185346.9"/>
<path d="M 73418.9 99759.5 L 73412.2 99757.6 L 73405.5 99754.2 L 73398.9 99747.8 L 73392.4 99736.6 L 73376.3 99681.7 L 73360.7 99593.3 L 73345.4 99478.6 L 73329.7 99344.7 L 73313.1 99192.6 L 73295.9 99027.6 L 73278.4 98849.7 L 73260.7 98658.7 L 73243.0 98455.1 L 73225.5 98241.2 L 73208.4 98019.4 L 73191.7 97792.7 L 73176.0 97570.6 L 73160.5 97348.0 L 73145.0 97126.9 L 73129.0 96908.9 L 73111.7 96687.3 L 73093.9 96473.8 L 73075.9 96271.1 L 73058.1 96081.7 L 73041.3 95912.1 L 73024.9 95757.3 L 73008.7 95616.8 L 72992.6 95490.3 L 72976.5 95378.6 L 72960.3 95287.9 L 72943.9 95226.0 L 72927.1 95200.2 L 72921.2 95200.8 L 72915.3 95205.3 L 72909.4 95212.3 L 72903.5 95220.6"/>
<path d="M 18296.1 90535.9 L 18230.7 90422.8 L 18165.3 90309.7 L 18099.9 90196.6 L 18034.5 90083.4 L 17969.1 89970.3 L 17903.7 89857.2 L 17838.3 89744.1 L 17772.9 89630.9"/>
<path d="M 971033.6 169175.2 L 971033.6 169736.7"/>
<path d="M 56598.0 165056.7 L 56598.0 184358.9"/>
<path d="M 53274.1 165056.7 L 53274.1 29941.2"/>
<path d="M 17076.8 90567.0 L 16910.3 90567.0"/>
<path d="M 971034.1 25199.1 L 971101.1 25087.6 L 971168.2 24976.3 L 971235.3 24865.3 L 971302.6 24754.9 L 971503.2 24431.5 L 971705.1 24115.4 L 971908.0 23807.5 L 972111.4 23508.7 L 972321.1 23211.5 L 972530.5 22925.5 L 972739.2 22651.3 L 972946.7 22389.3 L 973056.5 22255.0 L 973166.0 22123.4 L 973275.2 21993.6 L 973384.3 21864.7"/>
<circle cx="297081.8" cy="111975.6" r="1254.6"/>
<path d="M 20368.1 89550.0 L 20299.9 89668.0 L 20231.7 89786.0 L 20163.4 89904.0 L 20095.2 90021.9 L 20028.5 90137.2 L 19961.9 90252.5 L 19895.2 90367.8 L 19828.5 90483.1"/>
<path d="M 46232.7 80609.5 L 53274.1 80609.5"/>
<path d="M 981996.3 165056.7 L 981996.3 29941.2"/>
<path d="M 72576.3 34766.8 L 72576.3 160231.2"/>
<path d="M 16215.7 104357.7 L 16201.7 104350.6 L 16187.7 104333.2 L 16173.7 104295.0 L 16159.7 104225.8 L 16140.1 104063.3 L 16120.5 103830.3 L 16100.9 103537.4 L 16081.3 103195.5 L 16061.7 102813.7 L 16042.1 102394.7 L 16022.5 101939.6 L 16002.9 101449.6 L 15983.3 100926.6 L 15963.7 100374.9 L 15944.1 99800.0 L 15924.5 99207.0 L 15904.9 98601.3 L 15885.3 97987.4 L 15865.7 97370.0 L 15846.1 96753.7 L 15826.5 96143.2 L 15806.9 95543.7 L 15787.3 94960.3 L 15767.7 94398.3 L 15748.1 93862.8 L 15728.5 93356.2 L 15708.9 92880.9 L 15689.3 92439.4 L 15669.7 92035.0 L 15650.1 91674.9 L 15630.5 91367.5 L 15610.9 91121.0 L 15592.4 90948.4 L 15574.0 90821.6 L 15555.5 90725.5 L 15537.1 90644.6"/>
<path d="M 23976.3 105600.0 L 24126.1 105340.9"/>
<path d="M 22592.4 90395.1 L 22425.3 90395.1"/>
<path d="M 20351.9 104545.0 L 20336.3 104511.2 L 20320.6 104465.7 L 20304.9 104396.8 L 20289.2 104292.8 L 20271.8 104125.6 L 20254.4 103906.8 L 20236.9 103642.4 L 20219.5 103338.6 L 20202.1 103000.8 L 20184.7 102630.9 L 20167.3 102230.4 L 20149.8 101800.5 L 20132.4 101343.1 L 20115.0 100861.1 L 20097.6 100357.9 L 20080.1 99836.7 L 20062.7 99301.0 L 20045.3 98754.2 L 20027.9 98199.8 L 20010.4 97641.3 L 19993.0 97082.4 L 19975.6 96526.3 L 19958.2 95976.2 L 19940.7 95435.7 L 19923.3 94908.0 L 19905.9 94396.8 L 19888.5 93905.8 L 19871.0 93438.6 L 19853.6 92998.7 L 19836.2 92587.1 L 19818.8 92204.7 L 19801.3 91852.6 L 19783.9 91532.6 L 19766.5 91250.9 L 19749.1 91014.8 L 19731.7 90831.4 L 19717.0 90720.6 L 19702.3 90641.9 L 19687.6 90584.4 L 19672.9 90537.6"/>
<circle cx="937070.4" cy="111975.6" r="1809.6"/>
<path d="M 965101.1 99625.4 L 965499.3 100194.1"/>
<path d="M 968627.6 169175.2 L 968627.6 176132.2"/>
<path d="M 73439.6 94483.0 L 73305.6 94483.0"/>
<path d="M 215126.2 25822.8 L 215311.2 25690.5 L 215703.5 25209.6 L 215841.2 24642.4 L 215703.5 24075.1 L 215311.2 23594.2 L 214724.1 23272.9 L 214031.6 23160.1"/>
<path d="M 67750.8 165056.7 L 57705.9 165056.7"/>
<path d="M 971034.1 169674.5 L 971435.6 169175.2"/>
<path d="M 14319.3 105296.0 L 14300.5 105231.0 L 14281.8 105149.3 L 14263.2 105034.3 L 14244.8 104869.2 L 14226.4 104638.4 L 14208.2 104346.5 L 14190.0 104000.7 L 14171.7 103608.1 L 14153.2 103175.2 L 14134.5 102704.9 L 14115.8 102199.3 L 14097.0 101660.7 L 14078.4 101091.7 L 14059.8 100496.5 L 14041.3 99879.9 L 14023.0 99246.3 L 14004.7 98601.1 L 13986.4 97948.3 L 13968.0 97292.8 L 13949.5 96639.1 L 13930.7 95992.0 L 13911.8 95355.6 L 13893.0 94734.2 L 13874.4 94132.0 L 13856.1 93553.5 L 13838.0 93003.5 L 13819.9 92487.0 L 13801.6 92009.0 L 13782.9 91573.5 L 13764.0 91179.7 L 13745.0 90825.5 L 13726.3 90508.9 L 13707.8 90231.6 L 13689.6 90008.6 L 13671.4 89858.7 L 13653.0 89800.8 L 13647.2 89804.0 L 13641.3 89815.6 L 13635.4 89832.6 L 13629.5 89852.4"/>
<path d="M 22590.8 105455.7 L 22579.0 105455.5 L 22567.1 105445.8 L 22555.1 105417.1 L 22543.0 105359.8 L 22524.3 105204.3 L 22505.4 104972.8 L 22486.5 104677.2 L 22467.7 104329.2 L 22449.2 103938.8 L 22430.8 103508.5 L 22412.6 103038.8 L 22394.3 102530.3 L 22375.9 101984.5 L 22357.4 101405.5 L 22338.8 100798.1 L 22320.1 100167.3 L 22301.4 99518.0 L 22282.6 98854.9 L 22264.0 98182.6 L 22245.5 97505.9 L 22227.3 96829.8 L 22209.2 96158.4 L 22191.0 95496.4 L 22172.5 94848.3 L 22153.8 94218.8 L 22134.8 93612.9 L 22115.9 93035.9 L 22097.2 92492.9 L 22078.8 91988.5 L 22060.7 91522.8 L 22042.6 91095.5 L 22024.3 90706.3 L 22005.7 90357.5 L 21986.9 90061.6 L 21968.0 89833.9 L 21949.3 89689.6 L 21940.2 89652.7 L 21931.2 89633.5 L 21922.2 89626.2 L 21913.3 89624.7"/>
<path d="M 74601.1 95372.5 L 74202.9 94803.8"/>
<path d="M 24735.8 89892.4 L 24735.8 93308.4"/>
<path d="M 46232.7 29941.2 L 53274.1 29941.2"/>
<path d="M 980698.3 169736.7 L 980698.3 169175.2"/>
<path d="M 21746.8 89505.5 L 21678.6 89623.5 L 21610.4 89741.5 L 21542.2 89859.5 L 21473.9 89977.5 L 21405.7 90095.5 L 21337.5 90213.5 L 21269.3 90331.5 L 21201.0 90449.5"/>
<path d="M 982008.8 168599.0 L 57312.1 168599.0"/>
<path d="M 990348.9 99911.8 L 990348.9 102324.5"/>
<path d="M 980697.6 25323.4 L 980281.2 25822.8"/>
<path d="M 49784.4 97499.0 L 52843.1 97499.0"/>
<path d="M 15537.5 90621.4 L 15472.1 90508.2 L 15406.6 90395.1 L 15341.2 90282.0 L 15275.8 90168.9 L 15210.4 90055.8 L 15145.0 89942.7 L 15079.6 89829.5 L 15014.1 89716.4"/>
<path d="M 965504.9 100190.2 L 965504.3 100192.2 L 965503.6 100194.1 L 965502.9 100195.8 L 965502.2 100197.2 L 965494.1 100190.0 L 965485.8 100144.0 L 965477.7 100068.6 L 965469.7 99973.7 L 965462.0 99867.0 L 965454.4 99748.5 L 965446.8 99616.5 L 965439.0 99469.3 L 965431.1 99310.5 L 965422.9 99137.6 L 965414.6 98952.6 L 965406.1 98757.7 L 965397.8 98559.8 L 965389.6 98355.6 L 965381.4 98146.4 L 965373.5 97933.5 L 965365.8 97718.1 L 965358.2 97501.9 L 965350.6 97286.6 L 965342.8 97074.0 L 965334.9 96871.1 L 965326.7 96673.8 L 965318.3 96483.8 L 965309.8 96302.4 L 965301.5 96136.1 L 965293.2 95980.2 L 965285.1 95835.7 L 965277.1 95703.3 L 965269.4 95584.0 L 965261.8 95479.4 L 965254.2 95391.3 L 965246.4 95321.6 L 965243.9 95303.7 L 965241.4 95287.3 L 965238.8 95271.9 L 965236.3 95257.0"/>
<path d="M 11402.0 90750.5 L 11336.5 90637.4 L 11271.1 90524.2 L 11205.7 90411.1 L 11140.3 90297.9 L 11074.8 90184.8 L 11009.4 90071.6 L 10944.0 89958.5 L 10878.5 89845.3"/>
<path d="M 965860.4 94483.0 L 965723.9 94483.0"/>
<path d="M 72749.7 100439.4 L 72742.7 100436.8 L 72735.7 100432.1 L 72728.9 100423.4 L 72722.2 100408.6 L 72706.1 100339.2 L 72690.6 100226.7 L 72675.2 100077.8 L 72659.5 99898.9 L 72646.8 99742.5 L 72633.8 99575.4 L 72620.6 99401.2 L 72607.2 99223.3"/>
<path d="M 12940.1 105154.7 L 12933.2 105173.9 L 12926.4 105189.4 L 12919.5 105197.4 L 12912.5 105194.3 L 12893.8 105118.4 L 12874.9 104954.8 L 12855.9 104720.7 L 12837.2 104433.0 L 12818.9 104105.9 L 12800.7 103741.0 L 12782.6 103336.7 L 12764.4 102891.8 L 12745.8 102405.9 L 12727.0 101882.8 L 12708.1 101327.6 L 12689.3 100745.1 L 12670.7 100140.4 L 12652.3 99517.6 L 12634.0 98881.1 L 12615.6 98235.1 L 12597.3 97584.3 L 12578.9 96932.8 L 12560.3 96285.3 L 12541.7 95646.3 L 12522.9 95020.5 L 12504.2 94412.5 L 12485.5 93827.3 L 12467.0 93269.7 L 12448.7 92744.1 L 12430.6 92252.2 L 12412.4 91795.2 L 12394.0 91374.5 L 12375.3 90992.9 L 12356.4 90658.8 L 12337.4 90382.4 L 12318.7 90173.7 L 12304.6 90064.0 L 12290.7 89988.0 L 12277.0 89934.3 L 12263.3 89891.8"/>
<path d="M 982390.0 10639.0 L 982379.4 10701.7 L 982347.5 10761.9 L 982295.7 10817.4 L 982226.1 10866.0 L 982141.3 10906.0 L 982044.5 10935.6 L 981939.5 10953.9 L 981830.3 10960.1"/>
<path d="M 57705.9 29941.2 L 57705.9 165056.7"/>
<path d="M 20512.3 104496.8 L 20499.6 104467.0 L 20486.9 104428.8 L 20474.2 104373.5 L 20461.6 104292.8 L 20444.1 104130.0 L 20426.7 103911.3 L 20409.3 103644.8 L 20391.9 103338.6 L 20374.4 102999.6 L 20357.0 102629.7 L 20339.6 102229.7 L 20322.2 101800.5 L 20304.7 101343.5 L 20287.3 100861.5 L 20269.9 100358.0 L 20252.5 99836.7 L 20235.0 99300.9 L 20217.6 98754.1 L 20200.2 98199.8 L 20182.8 97641.3 L 20165.4 97082.4 L 20147.9 96526.2 L 20130.5 95976.2 L 20113.1 95435.7 L 20095.7 94908.1 L 20078.2 94397.1 L 20060.8 93906.1 L 20043.4 93438.6 L 20026.0 92998.2 L 20008.5 92586.1 L 19991.1 92203.8 L 19973.7 91852.6 L 19956.3 91534.5 L 19938.8 91254.6 L 19921.4 91018.3 L 19904.0 90831.4 L 19886.6 90696.4 L 19869.2 90602.5 L 19851.8 90536.1 L 19834.3 90483.3"/>
<path d="M 971034.1 169175.2 L 971034.1 169674.5"/>
<path d="M 12940.7 90695.7 L 12774.6 90695.7"/>
<path d="M 982008.8 165056.7 L 982008.8 168599.0"/>
<path d="M 971951.4 29941.2 A 4825.6 4825.6 0 0 0 967125.9 34766.8"/>
<path d="M 971951.5 29941.2 L 981996.3 29941.2"/>
<path d="M 19834.3 90483.1 L 19668.1 90483.1"/>
<path d="M 12239.6 104307.5 L 12307.8 104425.5 L 12376.0 104543.4 L 12444.3 104661.4 L 12512.5 104779.4 L 12580.7 104897.4 L 12648.9 105015.3 L 12717.2 105133.3 L 12785.4 105251.3"/>
<path d="M 965236.3 95257.0 L 965236.6 95258.0 L 965236.9 95259.1 L 965237.2 95260.2 L 965237.5 95261.3 L 965253.7 95329.9 L 965269.2 95418.8 L 965284.6 95526.9 L 965300.1 95653.3 L 965316.8 95801.6 L 965333.9 95966.4 L 965351.5 96146.2 L 965369.1 96339.2 L 965386.8 96543.8 L 965404.3 96757.9 L 965421.5 96979.1 L 965438.2 97205.3 L 965453.9 97427.1 L 965469.3 97649.7 L 965484.9 97871.0 L 965500.9 98089.1 L 965518.2 98310.7 L 965536.0 98524.2 L 965554.0 98726.9 L 965571.7 98916.3 L 965588.6 99085.9 L 965605.0 99240.7 L 965621.2 99381.1 L 965637.3 99507.7 L 965653.4 99619.4 L 965669.5 99710.0 L 965686.0 99772.0 L 965702.8 99797.7 L 965708.7 99797.1 L 965714.6 99792.7 L 965720.5 99785.7 L 965726.4 99777.4"/>
<path d="M 52843.1 97499.0 L 53274.1 95086.2"/>
<path d="M 16926.3 105382.1 L 17073.5 105386.6"/>
<path d="M 974507.5 9651.1 L 974529.8 9651.1 L 974553.0 9651.1 L 974578.2 9651.1 L 974606.3 9651.1 L 974695.3 9651.1 L 974803.7 9651.1 L 974925.1 9651.1 L 975053.0 9651.1"/>
<path d="M 24735.8 93306.9 L 24712.2 92805.4 L 24688.8 92316.1 L 24665.5 91851.4 L 24642.5 91423.3 L 24619.7 91041.3 L 24597.2 90702.7 L 24574.6 90402.3 L 24551.8 90134.5 L 24526.9 89881.6 L 24501.7 89685.0 L 24476.3 89569.4 L 24451.1 89559.8 L 24446.4 89571.4 L 24441.8 89586.3 L 24437.2 89603.5 L 24432.5 89621.7"/>
<path d="M 982008.8 26399.0 L 982008.8 29941.2"/>
<path d="M 965833.0 99790.4 L 965883.9 99877.9 L 965934.9 99965.5 L 965985.8 100053.0 L 966036.7 100140.5 L 966087.7 100228.3 L 966138.6 100316.0 L 966189.6 100403.8 L 966240.5 100491.5"/>
<path d="M 977977.4 183791.0 L 61724.9 183791.0"/>
<path d="M 68668.0 169798.9 L 68558.9 169979.6 L 68449.7 170159.7 L 68340.2 170338.7 L 68230.4 170516.0 L 68028.9 170833.6 L 67826.3 171142.7 L 67623.0 171442.7 L 67419.4 171732.9 L 67209.9 172020.8 L 67000.9 172297.3 L 66792.9 172562.4 L 66586.3 172815.9 L 66519.0 172896.3 L 66451.9 172975.8 L 66384.9 173054.7 L 66317.9 173133.3"/>
<path d="M 978216.1 173195.5 A 5207.0 5207.0 0 0 0 978347.5 173133.3"/>
<path d="M 23445.7 104956.2 L 23470.0 104998.2 L 23494.2 105040.1 L 23518.5 105082.0 L 23542.7 105124.0 L 23610.9 105242.0 L 23679.2 105360.0 L 23747.4 105478.0 L 23815.6 105596.0"/>
<path d="M 982390.0 184358.9 L 983104.3 184358.9"/>
<path d="M 15704.1 105342.2 L 15769.5 105229.0 L 15834.9 105115.9 L 15900.3 105002.8 L 15965.7 104889.7 L 16031.1 104776.6 L 16096.5 104663.5 L 16161.9 104550.4 L 16227.3 104437.4"/>
<circle cx="937070.9" cy="83022.3" r="1254.6"/>
<path d="M 22596.7 105556.8 L 22662.1 105443.7 L 22727.5 105330.5 L 22792.9 105217.4 L 22858.3 105104.3 L 22898.7 105034.5 L 22939.1 104964.7 L 22979.5 104894.9 L 23019.8 104825.0"/>
<path d="M 57312.1 10639.0 L 57312.1 25822.8"/>
<path d="M 68668.0 25323.4 L 68251.5 25822.8"/>
<path d="M 19841.3 105469.6 L 19906.8 105356.4 L 19972.2 105243.3 L 20037.6 105130.1 L 20103.0 105017.0 L 20168.4 104903.9 L 20233.8 104790.8 L 20299.2 104677.6 L 20364.6 104564.5"/>
<path d="M 986428.1 29941.2 L 986428.1 165056.7"/>
<path d="M 214031.6 24467.1 A 1200.7 1200.7 0 0 0 212802.2 25290.1"/>
<path d="M 213024.8 24881.6 L 215038.5 24881.6"/>
<path d="M 21060.8 105510.8 L 21211.1 105515.5"/>
<circle cx="617076.4" cy="111975.6" r="1809.6"/>
<path d="M 56598.0 19575.9 A 10365.3 10365.3 0 0 0 46232.7 29941.2"/>
<path d="M 966396.6 95179.5 L 966274.4 95179.5"/>
<path d="M 59004.5 25323.4 L 59004.5 25822.8"/>
<path d="M 965606.6 94687.5 L 965723.9 94483.4"/>
<path d="M 973384.3 173133.3 L 973317.3 173054.7 L 973250.3 172975.8 L 973183.2 172896.3 L 973115.9 172815.9 L 972915.3 172569.9 L 972713.3 172313.0 L 972510.5 172045.3 L 972307.0 171766.8 L 972097.4 171469.1 L 971888.0 171160.8 L 971679.3 170842.9 L 971471.8 170516.0 L 971362.0 170338.7 L 971252.5 170159.7 L 971143.3 169979.6 L 971034.1 169798.9"/>
<path d="M 14836.4 104405.4 L 15003.0 104405.4"/>
<path d="M 66935.1 41881.2 L 66954.8 41728.9 L 66887.6 40994.6 L 66559.2 40309.0 L 65998.7 39733.3 L 65255.9 39318.4 L 64396.8 39101.4 L 63497.8 39101.4 L 62638.7 39318.4 L 61895.9 39733.3 L 61335.4 40309.0 L 61006.9 40994.6 L 60945.1 41308.3"/>
<path d="M 12079.3 104300.9 L 12060.5 104246.5 L 12041.7 104176.4 L 12022.9 104074.8 L 12004.1 103926.2 L 11984.5 103708.5 L 11964.9 103430.2 L 11945.3 103099.3 L 11925.7 102723.2 L 11906.1 102309.3 L 11886.5 101860.3 L 11866.9 101378.6 L 11847.3 100866.3 L 11827.7 100326.2 L 11808.1 99762.9 L 11788.5 99181.5 L 11768.9 98586.9 L 11749.3 97984.6 L 11729.7 97378.7 L 11710.1 96773.9 L 11690.5 96174.7 L 11670.9 95585.8 L 11651.3 95012.4 L 11631.7 94459.6 L 11612.1 93932.8 L 11592.5 93436.8 L 11572.9 92973.0 L 11553.3 92542.8 L 11533.7 92147.0 L 11514.1 91788.7 L 11494.5 91477.2 L 11474.9 91223.8 L 11455.3 91039.7 L 11441.9 90957.6 L 11428.5 90903.6 L 11415.2 90868.4 L 11401.8 90842.5"/>
<path d="M 971445.4 25822.8 L 971034.1 25323.4"/>
<circle cx="975570.6" cy="73371.2" r="3619.2"/>
<path d="M 986428.1 99911.8 L 986428.5 99954.7 L 986428.9 99997.6 L 986429.5 100040.4 L 986430.5 100083.3 L 986477.0 100648.2 L 986575.5 101209.2 L 986708.6 101767.5 L 986859.1 102324.5"/>
<path d="M 20519.9 89542.6 L 20370.5 89547.3"/>
<path d="M 982390.0 10639.0 L 983104.3 10639.0"/>
<path d="M 254265.2 185346.9 L 254115.5 185346.9 L 253967.9 185346.9 L 253824.3 185346.9 L 253686.8 185346.9 L 253557.3 185346.9 L 253436.5 185346.9 L 253325.2 185346.9 L 253223.9 185346.9 L 253133.6 185346.9 L 253056.0 185346.9 L 252993.2 185346.9 L 252947.0 185346.9 L 252918.5 185346.9 L 252903.9 185346.9 L 252898.8 185346.9 L 252898.3 185346.9"/>
<path d="M 966905.7 99791.2 L 966956.7 99878.7 L 967007.8 99966.3 L 967058.8 100053.9 L 967109.7 100141.6 L 967113.7 100148.6 L 967117.8 100155.6 L 967121.8 100162.6 L 967125.9 100169.6"/>
<path d="M 63836.3 41115.1 L 63356.2 41193.3 L 62949.1 41416.1 L 62677.1 41749.5 L 62581.6 42142.9 L 62677.1 42536.2 L 62949.1 42869.6 L 63356.2 43092.4 L 63836.3 43170.6 L 64316.4 43092.4 L 64723.5 42869.6 L 64995.4 42536.2 L 65090.9 42142.9 L 64995.4 41749.5 L 64723.5 41416.1 L 64316.4 41193.3 L 63836.3 41115.1"/>
<path d="M 19132.7 104500.6 L 19116.4 104430.4 L 19100.2 104348.2 L 19083.9 104242.0 L 19067.6 104099.7 L 19050.2 103897.0 L 19032.8 103644.8 L 19015.4 103349.0 L 18997.9 103015.3 L 18978.4 102601.5 L 18958.8 102149.9 L 18939.1 101663.0 L 18919.5 101143.5 L 18899.9 100594.6 L 18880.3 100020.6 L 18860.7 99426.5 L 18841.1 98817.2 L 18821.5 98197.8 L 18801.9 97573.2 L 18782.3 96948.1 L 18762.7 96327.5 L 18743.1 95716.7 L 18723.5 95120.3 L 18703.9 94543.4 L 18684.3 93990.9 L 18664.7 93467.7 L 18645.1 92976.4 L 18625.5 92519.5 L 18605.9 92099.4 L 18586.3 91719.6 L 18566.7 91387.0 L 18547.1 91109.9 L 18527.5 90896.3 L 18509.6 90760.4 L 18491.8 90669.1 L 18473.9 90607.5 L 18456.0 90560.8"/>
<path d="M 73978.3 100514.6 L 73965.6 100499.4 L 73953.0 100479.7 L 73940.6 100450.9 L 73928.5 100408.6 L 73912.6 100323.5 L 73897.1 100208.0 L 73881.6 100065.5 L 73865.9 99898.9 L 73849.2 99705.0 L 73832.0 99490.6 L 73814.5 99257.4 L 73796.9 99007.0 L 73779.2 98741.2 L 73761.7 98463.0 L 73744.5 98175.2 L 73727.8 97880.9 L 73712.1 97592.3 L 73696.7 97303.0 L 73681.2 97015.3 L 73665.2 96731.7 L 73647.9 96443.5 L 73630.0 96165.9 L 73612.1 95902.3 L 73594.3 95656.1 L 73577.5 95435.6 L 73561.0 95234.3 L 73544.8 95051.6 L 73528.8 94887.1 L 73512.7 94741.8 L 73496.5 94624.0 L 73480.1 94543.4 L 73463.3 94510.0 L 73457.4 94510.7 L 73451.5 94516.5 L 73445.6 94525.6 L 73439.6 94536.4"/>
<path d="M 24510.2 89531.3 L 24518.0 89512.1 L 24525.8 89497.8 L 24533.7 89493.4 L 24541.7 89503.8 L 24560.4 89598.5 L 24579.4 89781.4 L 24598.4 90035.6 L 24617.1 90344.1 L 24635.4 90693.4 L 24653.5 91082.9 L 24671.5 91515.6 L 24689.9 91994.2 L 24701.2 92306.7 L 24712.6 92632.7 L 24724.2 92967.5 L 24735.8 93306.9"/>
<path d="M 57312.1 169175.2 L 57312.1 168599.0"/>
<path d="M 975865.9 153882.9 L 976346.0 153804.6 L 976753.1 153581.8 L 977025.1 153248.4 L 977120.6 152855.1 L 977025.1 152461.8 L 976753.1 152128.4 L 976346.0 151905.6 L 975865.9 151827.4 L 975385.8 151905.6 L 974978.7 152128.4 L 974706.8 152461.8 L 974611.3 152855.1 L 974706.8 153248.4 L 974978.7 153581.8 L 975385.8 153804.6 L 975865.9 153882.9"/>
<path d="M 68668.0 25323.4 A 3250.0 3250.0 0 0 0 68668.0 25199.1"/>
<path d="M 977977.4 11206.9 L 61724.9 11206.9"/>
<path d="M 971033.6 25261.3 L 971033.6 25822.8"/>
<path d="M 214031.6 23160.1 L 213339.1 23272.9 L 212752.1 23594.2 L 212359.8 24075.1 L 212222.1 24642.4 L 212359.8 25209.6 L 212752.1 25690.5 L 212937.1 25822.8"/>
<path d="M 973384.3 173133.3 A 5207.0 5207.0 0 0 0 973515.8 173195.5"/>
<path d="M 253613.3 132216.6 A 1254.6 1254.6 0 1 0 253613.3 130339.1"/>
<path d="M 46232.7 165056.7 L 46232.7 131277.9"/>
<path d="M 21891.0 104607.9 L 21959.2 104725.9 L 22027.4 104843.9 L 22095.6 104961.9 L 22163.8 105079.9 L 22232.1 105197.8 L 22300.3 105315.8 L 22368.5 105433.8 L 22436.7 105551.8"/>
<path d="M 10183.5 90783.5 L 10011.2 90783.5"/>
<path d="M 981996.3 29941.2 L 986428.1 29941.2"/>
<path d="M 20512.1 104566.2 L 20580.3 104684.2 L 20648.6 104802.2 L 20716.8 104920.2 L 20785.0 105038.2 L 20853.3 105156.3 L 20921.5 105274.3 L 20989.7 105392.3 L 21057.9 105510.3"/>
<path d="M 66317.9 21864.7 A 5187.3 5187.3 0 0 0 66186.4 21802.5"/>
<path d="M 965101.1 99625.4 L 965101.1 95372.5"/>
<path d="M 17616.2 89713.8 L 17630.7 89728.8 L 17645.2 89755.5 L 17659.5 89805.5 L 17673.7 89890.4 L 17692.0 90068.2 L 17710.2 90316.1 L 17728.3 90624.2 L 17746.6 90982.4 L 17765.1 91382.5 L 17783.9 91821.5 L 17802.7 92298.5 L 17821.4 92812.3 L 17840.1 93361.2 L 17858.6 93940.9 L 17876.9 94546.7 L 17895.2 95173.7 L 17913.5 95817.6 L 17931.9 96473.3 L 17950.3 97136.2 L 17968.9 97801.6 L 17987.7 98464.9 L 18006.5 99121.7 L 18025.3 99767.6 L 18043.8 100398.2 L 18062.0 101009.3 L 18080.1 101595.5 L 18098.2 102151.5 L 18116.5 102672.3 L 18135.3 103153.7 L 18154.2 103595.7 L 18173.2 103999.4 L 18191.9 104365.9 L 18210.3 104693.4 L 18228.5 104967.6 L 18246.6 105171.6 L 18264.9 105288.3 L 18272.3 105307.6 L 18279.8 105314.3 L 18287.3 105312.7 L 18294.8 105306.9"/>
<path d="M 215261.1 25290.1 A 1200.7 1200.7 0 0 0 214031.6 24467.1"/>
<path d="M 24657.4 89413.8 L 24506.6 89418.5"/>
<path d="M 46232.7 131277.9 L 53274.1 131277.9"/>
<path d="M 61010.5 153573.4 A 2938.3 2938.3 0 0 0 63947.3 155481.3"/>
<path d="M 981996.3 165056.7 L 971951.5 165056.7"/>
<path d="M 57705.9 165056.7 L 53274.1 165056.7"/>
<path d="M 966283.8 95195.6 L 966233.0 95108.3 L 966182.2 95021.0 L 966131.4 94933.7 L 966080.6 94846.3 L 966029.9 94758.9 L 965979.1 94671.5 L 965928.3 94584.0 L 965877.5 94496.6"/>
<path d="M 90356.5 24863.8 A 1877.3 1877.3 0 0 0 86778.0 24863.8"/>
<path d="M 50587.5 122833.1 A 10365.3 10365.3 0 0 0 46232.7 131277.9"/>
<path d="M 990348.9 92673.4 L 990348.9 95086.2"/>
<path d="M 989917.9 97499.0 L 986859.1 97499.0"/>
<path d="M 18989.2 89592.3 L 18921.0 89710.3 L 18852.7 89828.3 L 18784.5 89946.3 L 18716.3 90064.3 L 18648.1 90182.4 L 18579.8 90300.4 L 18511.6 90418.4 L 18443.4 90536.4"/>
<path d="M 980289.3 169175.2 L 980324.4 169221.4 L 980359.4 169267.4 L 980394.4 169312.7 L 980429.3 169357.1 L 980496.9 169440.5 L 980564.0 169520.4 L 980630.9 169598.0 L 980697.6 169674.5"/>
<path d="M 61486.1 21802.5 A 5186.9 5186.9 0 0 0 61354.7 21864.7"/>
<path d="M 968627.6 18865.8 L 968627.6 25822.8"/>
<path d="M 59415.8 25822.8 L 59004.5 25323.4"/>
<path d="M 13457.8 104253.1 L 13447.2 104265.3 L 13436.6 104270.9 L 13426.0 104263.0 L 13415.5 104235.1 L 13395.9 104117.2 L 13376.3 103921.2 L 13356.7 103660.9 L 13337.1 103350.1 L 13317.5 103000.5 L 13297.9 102614.2 L 13278.2 102191.2 L 13258.6 101731.6 L 13239.0 101236.1 L 13219.4 100709.2 L 13199.8 100155.9 L 13180.2 99581.5 L 13160.6 98991.3 L 13141.0 98389.9 L 13121.4 97782.0 L 13101.8 97172.3 L 13082.2 96565.8 L 13062.6 95966.7 L 13043.0 95379.4 L 13023.4 94808.2 L 13003.8 94257.9 L 12984.2 93734.0 L 12964.6 93242.4 L 12945.0 92788.9 L 12925.4 92378.0 L 12905.8 92007.0 L 12886.2 91671.7 L 12866.6 91368.0 L 12847.0 91097.0 L 12827.4 90880.9 L 12807.8 90747.2 L 12788.2 90723.3 L 12786.7 90726.8 L 12785.2 90730.8 L 12783.7 90735.3 L 12782.2 90740.0"/>
<path d="M 57871.9 184037.9 L 57871.9 169175.2"/>
<path d="M 17753.8 104478.0 L 17822.1 104596.0 L 17890.3 104714.0 L 17958.5 104832.0 L 18026.7 104949.9 L 18095.0 105067.9 L 18163.2 105185.9 L 18231.4 105303.9 L 18299.6 105421.9"/>
<path d="M 13626.5 89757.2 L 13477.4 89761.9"/>
<path d="M 11409.2 105210.3 L 11559.0 105215.0"/>
<path d="M 971969.7 25822.8 L 971854.7 25041.6 L 971991.3 24191.2 L 972392.1 23398.7 L 973029.6 22718.2 L 973860.3 22196.0 L 974827.7 21867.8 L 975865.9 21755.8 L 976904.1 21867.8 L 977871.6 22196.0"/>
<path d="M 46232.7 114388.4 A 10365.3 10365.3 0 0 0 53274.1 124206.3"/>
<path d="M 982008.8 168599.0 L 982008.8 169175.2"/>
<path d="M 52843.1 92673.4 L 52974.8 92673.4 L 53094.7 92673.4 L 53190.7 92673.4 L 53250.9 92673.4 L 53260.1 92673.4 L 53266.4 92673.4 L 53270.7 92673.4 L 53274.1 92673.4"/>
<path d="M 9651.1 104121.5 L 9651.1 91306.9"/>
<path d="M 986428.1 92673.4 L 986431.5 92673.4 L 986435.8 92673.4 L 986442.1 92673.4 L 986451.2 92673.4 L 986511.5 92673.4 L 986607.5 92673.4 L 986727.3 92673.4 L 986859.1 92673.4"/>
<path d="M 23969.5 105486.5 L 23960.2 105501.3 L 23950.9 105509.8 L 23941.5 105505.7 L 23932.2 105482.7 L 23913.9 105367.3 L 23895.5 105167.9 L 23877.0 104899.4 L 23858.4 104576.5 L 23839.7 104211.4 L 23820.8 103806.3 L 23802.1 103360.6 L 23783.5 102873.9 L 23765.3 102346.9 L 23747.2 101783.6 L 23729.1 101189.1 L 23710.7 100568.3 L 23692.0 99926.4 L 23673.0 99268.0 L 23654.1 98597.5 L 23635.3 97919.5 L 23616.9 97238.8 L 23598.7 96559.9 L 23580.6 95887.7 L 23562.3 95226.9 L 23543.8 94582.6 L 23525.1 93959.3 L 23506.3 93361.8 L 23487.5 92794.8 L 23468.9 92262.7 L 23450.4 91767.8 L 23432.0 91311.8 L 23413.6 90896.7 L 23399.4 90608.3 L 23385.3 90349.9 L 23371.1 90126.4 L 23356.9 89942.6 L 23340.4 89781.9 L 23324.0 89666.4 L 23307.5 89581.1 L 23291.0 89510.8"/>
<path d="M 966262.6 100515.0 L 966396.6 100515.0"/>
<path d="M 74466.0 99741.0 L 74466.0 99818.4"/>
<path d="M 967125.9 54488.9 L 72576.3 54488.9"/>
<path d="M 19673.1 90491.7 L 19607.7 90378.6 L 19542.3 90265.5 L 19476.9 90152.5 L 19411.5 90039.4 L 19346.1 89926.3 L 19280.7 89813.2 L 19215.3 89700.1 L 19149.9 89587.0"/>
<path d="M 990348.9 95086.2 L 990348.9 99911.8"/>
<path d="M 89661.8 25822.8 L 89846.8 25690.5 L 90239.1 25209.6 L 90376.8 24642.4 L 90239.1 24075.1 L 89846.8 23594.2 L 89259.7 23272.9 L 88567.2 23160.1"/>
<path d="M 72796.5 95206.8 L 72745.5 95119.2 L 72694.5 95031.6 L 72643.5 94944.0 L 72592.6 94856.3 L 72588.5 94849.3 L 72584.5 94842.3 L 72580.4 94835.3 L 72576.3 94828.3"/>
<path d="M 978347.5 21864.7 L 978562.3 22123.2 L 978777.4 22385.6 L 978993.2 22655.7 L 979210.0 22937.6 L 979434.6 23243.2 L 979659.7 23563.7 L 979884.6 23897.3 L 980108.3 24242.5 L 980256.4 24477.8 L 980403.9 24716.4 L 980550.9 24957.2 L 980697.6 25199.1"/>
<path d="M 14319.8 90654.3 L 14153.5 90654.3"/>
<path d="M 57312.1 169175.2 L 57312.1 184358.9"/>
<path d="M 57871.9 25822.8 L 57871.9 10960.1"/>
<path d="M 89441.0 25822.8 L 89454.4 25812.0 L 89726.4 25478.5 L 89821.9 25085.2 L 89726.4 24691.9 L 89454.4 24358.5 L 89047.4 24135.7 L 88567.2 24057.5"/>
<path d="M 17761.9 89628.5 L 17613.7 89633.1"/>
<path d="M 49784.4 102324.5 L 49656.1 102324.5 L 49538.9 102324.5 L 49443.9 102324.5 L 49382.2 102324.5 L 49370.8 102324.5 L 49363.0 102324.5 L 49357.6 102324.5 L 49353.3 102324.5"/>
<path d="M 72916.5 100506.6 L 72967.4 100419.0 L 73018.3 100331.5 L 73069.2 100243.9 L 73120.1 100156.3 L 73169.2 100071.8 L 73218.3 99987.4 L 73267.4 99902.9 L 73316.6 99818.4"/>
<path d="M 255063.1 9651.1 L 255195.3 9651.1 L 255324.7 9651.1 L 255448.4 9651.1 L 255563.4 9651.1 L 255667.2 9651.1 L 255757.9 9651.1 L 255833.9 9651.1 L 255893.6 9651.1 L 255935.7 9651.1 L 255964.7 9651.1 L 255985.2 9651.1 L 256001.3 9651.1"/>
<path d="M 61354.7 173133.3 L 61139.9 172874.8 L 60924.8 172612.4 L 60709.0 172342.2 L 60492.2 172060.4 L 60267.6 171754.8 L 60042.5 171434.3 L 59817.6 171100.6 L 59593.9 170755.5 L 59445.8 170520.1 L 59298.3 170281.5 L 59151.3 170040.7 L 59004.5 169798.9"/>
<path d="M 74466.0 99818.4 L 74601.1 99625.4"/>
<path d="M 968627.6 176132.2 L 978278.7 184037.9"/>
<path d="M 23491.5 104929.8 L 23480.7 104929.9 L 23469.9 104925.6 L 23459.3 104912.5 L 23448.6 104886.3 L 23423.9 104759.1 L 23399.4 104549.9 L 23375.0 104274.3 L 23350.3 103948.3 L 23325.2 103587.2 L 23299.9 103191.1 L 23274.4 102759.3 L 23248.9 102290.9 L 23223.8 101787.8 L 23198.8 101252.6 L 23174.0 100690.2 L 23149.1 100105.5 L 23124.4 99510.8 L 23099.6 98903.3 L 23074.7 98287.3 L 23049.5 97666.8 L 23024.1 97045.8 L 22998.6 96429.0 L 22973.1 95820.9 L 22947.9 95226.1 L 22923.3 94656.1 L 22898.9 94107.4 L 22874.4 93584.2 L 22849.5 93090.6 L 22824.2 92631.0 L 22798.5 92207.3 L 22772.8 91822.0 L 22747.5 91477.6 L 22722.8 91178.8 L 22698.3 90926.3 L 22673.7 90723.5 L 22648.6 90574.1 L 22643.0 90548.7 L 22637.4 90525.3 L 22631.7 90503.3 L 22626.0 90482.0"/>
<path d="M 46232.7 114388.4 L 53274.1 114388.4"/>
<path d="M 971034.1 25199.1 A 3317.7 3317.7 0 0 0 971034.1 25323.4"/>
<path d="M 49784.4 92673.4 L 52843.1 92673.4"/>
<path d="M 982008.8 25822.8 L 982008.8 26399.0"/>
<path d="M 74601.1 95372.5 L 74601.1 99625.4"/>
<path d="M 68668.6 25822.8 L 68668.6 25261.3"/>
<path d="M 66317.9 21864.7 L 66532.7 22123.2 L 66747.8 22385.6 L 66963.6 22655.7 L 67180.4 22937.6 L 67404.9 23243.2 L 67630.1 23563.7 L 67854.9 23897.3 L 68078.7 24242.5 L 68226.8 24477.8 L 68374.2 24716.4 L 68521.2 24957.2 L 68668.0 25199.1"/>
<path d="M 73975.8 95179.5 L 73852.9 95179.5"/>
<path d="M 74101.3 100313.7 L 74126.1 100271.0 L 74150.9 100228.3 L 74175.7 100185.6 L 74200.5 100142.9 L 74251.4 100055.4 L 74302.3 99967.9 L 74353.2 99880.4 L 74404.1 99793.0"/>
<path d="M 21730.0 104618.1 L 21896.8 104618.1"/>
<path d="M 63655.9 185346.9 L 63506.0 185346.9 L 63358.3 185346.9 L 63214.7 185346.9 L 63077.4 185346.9 L 62948.2 185346.9 L 62827.8 185346.9 L 62716.4 185346.9 L 62614.5 185346.9 L 62523.0 185346.9 L 62444.3 185346.9 L 62381.5 185346.9 L 62337.7 185346.9 L 62318.9 185346.9 L 62308.6 185346.9 L 62304.1 185346.9 L 62302.5 185346.9"/>
<path d="M 986859.1 102324.5 L 986727.3 102324.5 L 986607.5 102324.5 L 986511.5 102324.5 L 986451.2 102324.5 L 986442.1 102324.5 L 986435.8 102324.5 L 986431.5 102324.5 L 986428.1 102324.5"/>
<path d="M 971034.1 169674.5 A 3318.1 3318.1 0 0 0 971034.1 169798.9"/>
<path d="M 73841.8 100515.0 L 73978.3 100515.0"/>
<path d="M 12079.3 104317.6 L 12245.4 104317.6"/>
<path d="M 253613.3 64658.9 A 1254.6 1254.6 0 1 0 253613.3 62781.3"/>
<path d="M 21891.0 104519.9 L 21882.1 104516.3 L 21873.2 104507.8 L 21864.4 104489.3 L 21855.5 104456.0 L 21838.1 104336.7 L 21820.6 104152.7 L 21803.2 103915.6 L 21785.8 103636.9 L 21768.4 103326.0 L 21750.9 102984.4 L 21733.5 102611.6 L 21716.1 102207.0 L 21698.7 101771.1 L 21681.2 101306.8 L 21663.8 100817.9 L 21646.4 100308.2 L 21629.0 99781.6 L 21611.5 99241.2 L 21594.1 98690.4 L 21576.7 98132.2 L 21559.3 97570.2 L 21541.8 97007.8 L 21524.4 96448.6 L 21507.0 95896.2 L 21489.6 95354.3 L 21472.1 94826.0 L 21454.7 94314.4 L 21437.3 93822.6 L 21419.9 93354.0 L 21402.5 92911.9 L 21385.0 92500.0 L 21367.6 92122.1 L 21350.2 91780.9 L 21332.8 91474.9 L 21315.3 91201.9 L 21297.9 90959.4 L 21280.5 90748.5 L 21263.1 90582.9 L 21245.6 90479.8 L 21228.2 90456.4 L 21224.4 90463.4 L 21220.6 90473.7 L 21216.8 90486.4 L 21213.0 90500.2"/>
<path d="M 23131.5 89551.3 L 23136.4 89531.6 L 23141.3 89514.1 L 23146.2 89500.9 L 23151.1 89494.3 L 23169.6 89540.6 L 23188.4 89685.5 L 23207.2 89908.2 L 23225.9 90187.9 L 23244.5 90507.7 L 23263.0 90866.0 L 23281.5 91265.5 L 23299.9 91708.5 L 23314.3 92088.5 L 23328.8 92494.4 L 23343.4 92923.6 L 23357.9 93373.3 L 23376.5 93971.4 L 23395.2 94594.3 L 23413.7 95237.8 L 23432.2 95897.5 L 23450.4 96569.1 L 23468.6 97247.6 L 23486.9 97928.0 L 23505.4 98605.4 L 23524.2 99274.6 L 23543.1 99931.5 L 23562.0 100571.8 L 23580.6 101191.3 L 23598.9 101785.8 L 23616.9 102349.8 L 23635.0 102878.0 L 23653.2 103365.1 L 23671.9 103807.0 L 23690.8 104205.1 L 23709.8 104562.0 L 23728.6 104880.4 L 23747.0 105159.0 L 23765.3 105380.4 L 23783.5 105523.3 L 23801.8 105566.2 L 23806.5 105559.0 L 23811.2 105545.9 L 23816.0 105528.8 L 23820.7 105509.8"/>
<circle cx="937070.4" cy="83022.3" r="1809.6"/>
<path d="M 13618.3 104248.1 L 13610.7 104254.6 L 13603.0 104257.2 L 13595.4 104252.0 L 13587.8 104235.1 L 13568.2 104125.0 L 13548.6 103929.2 L 13529.0 103665.2 L 13509.4 103350.1 L 13489.8 102998.4 L 13470.2 102612.1 L 13450.6 102190.1 L 13431.0 101731.6 L 13411.4 101236.7 L 13391.8 100709.7 L 13372.2 100156.2 L 13352.6 99581.5 L 13333.0 98991.2 L 13313.4 98389.8 L 13293.8 97782.0 L 13274.2 97172.3 L 13254.6 96565.7 L 13235.0 95966.4 L 13215.4 95379.1 L 13195.8 94808.2 L 13176.2 94258.5 L 13156.6 93735.1 L 13137.0 93243.5 L 13117.4 92788.9 L 13097.8 92375.8 L 13078.2 92002.8 L 13058.6 91667.6 L 13038.9 91368.0 L 13019.3 91105.4 L 12999.7 90896.7 L 12980.1 90762.4 L 12960.5 90723.3 L 12955.6 90730.5 L 12950.6 90743.3 L 12945.7 90759.8 L 12940.7 90778.1"/>
<path d="M 982008.8 26399.0 L 57312.1 26399.0"/>
<path d="M 977095.4 42347.7 A 1311.9 1311.9 0 0 0 974636.5 42347.7"/>
<path d="M 967125.9 141273.0 L 72576.3 141273.0"/>
<path d="M 68668.6 169736.7 L 68668.6 169175.2"/>
<path d="M 22978.1 104805.6 L 23465.2 105032.7"/>
<path d="M 53274.1 99911.8 L 53273.8 99868.9 L 53273.3 99826.0 L 53272.7 99783.1 L 53271.8 99740.2 L 53225.3 99175.3 L 53126.8 98614.3 L 52993.6 98056.0 L 52843.1 97499.0"/>
<path d="M 986428.1 95086.2 L 986428.5 95129.1 L 986428.9 95172.0 L 986429.5 95214.9 L 986430.5 95257.7 L 986477.0 95822.7 L 986575.5 96383.6 L 986708.6 96942.0 L 986859.1 97499.0"/>
<path d="M 17082.1 105384.7 L 17147.5 105271.6 L 17212.9 105158.5 L 17278.3 105045.4 L 17343.7 104932.3 L 17409.1 104819.2 L 17474.5 104706.1 L 17539.9 104593.0 L 17605.4 104479.9"/>
<path d="M 61423.5 184037.9 L 71074.6 176132.2"/>
<path d="M 986859.1 92673.4 L 986428.1 95086.2"/>
<path d="M 978347.5 21864.7 A 5149.4 5149.4 0 0 0 978216.1 21802.5"/>
<path d="M 24735.8 89411.4 L 24735.8 89892.4"/>
<path d="M 17753.7 104427.9 L 17751.1 104435.3 L 17748.5 104442.1 L 17746.0 104447.8 L 17743.4 104451.8 L 17723.8 104412.6 L 17704.2 104267.1 L 17684.6 104040.7 L 17665.0 103759.1 L 17645.4 103443.0 L 17625.8 103093.5 L 17606.2 102707.1 L 17586.6 102280.2 L 17567.0 101810.9 L 17547.4 101303.5 L 17527.8 100764.1 L 17508.2 100198.8 L 17488.6 99613.5 L 17469.0 99012.6 L 17449.4 98400.6 L 17429.8 97781.9 L 17410.2 97160.9 L 17390.6 96542.5 L 17371.0 95931.4 L 17351.4 95332.6 L 17331.8 94751.4 L 17312.2 94192.5 L 17292.6 93661.0 L 17273.0 93162.1 L 17253.4 92700.1 L 17233.8 92275.8 L 17214.2 91889.5 L 17194.6 91541.0 L 17175.0 91232.9 L 17155.4 90977.1 L 17135.8 90787.7 L 17116.2 90679.0 L 17106.3 90658.0 L 17096.5 90655.0 L 17086.6 90663.9 L 17076.8 90678.8"/>
<path d="M 967125.9 140509.0 L 72576.3 140509.0"/>
<path d="M 966798.8 99818.4 L 966921.5 99818.4"/>
<path d="M 980698.3 25822.8 L 980698.3 25261.3"/>
<path d="M 21898.2 89499.7 L 21751.3 89504.3"/>
<path d="M 10861.1 104266.1 L 10929.3 104384.1 L 10997.6 104502.1 L 11065.8 104620.1 L 11134.0 104738.1 L 11202.3 104856.1 L 11270.5 104974.1 L 11338.7 105092.2 L 11407.0 105210.2"/>
<path d="M 23818.0 105596.6 L 23965.9 105601.2"/>
<path d="M 965723.9 94483.4 L 965736.6 94498.6 L 965749.1 94518.3 L 965761.5 94547.0 L 965773.6 94589.4 L 965789.6 94674.5 L 965805.1 94789.9 L 965820.6 94932.5 L 965836.3 95099.0 L 965853.1 95293.0 L 965870.2 95507.4 L 965887.7 95740.6 L 965905.4 95991.0 L 965923.0 96256.7 L 965940.5 96535.0 L 965957.7 96822.8 L 965974.4 97117.1 L 965990.1 97405.6 L 966005.5 97695.0 L 966021.0 97982.7 L 966037.0 98266.3 L 966054.3 98554.4 L 966072.2 98832.0 L 966090.1 99095.6 L 966107.9 99341.9 L 966124.8 99562.4 L 966141.2 99763.7 L 966157.4 99946.4 L 966173.4 100110.9 L 966189.5 100256.1 L 966205.6 100374.0 L 966222.1 100454.5 L 966238.9 100488.0 L 966244.8 100487.2 L 966250.7 100481.4 L 966256.6 100472.3 L 966262.6 100461.5"/>
<path d="M 10706.3 89885.1 L 10718.4 89850.0"/>
<path d="M 9651.1 91306.9 L 9651.1 90915.1"/>
<path d="M 990348.9 102324.5 L 990344.6 102324.5 L 990339.2 102324.5 L 990331.4 102324.5 L 990320.0 102324.5 L 990258.3 102324.5 L 990163.3 102324.5 L 990046.1 102324.5 L 989917.9 102324.5"/>
<path d="M 46232.7 63720.1 L 46232.7 29941.2"/>
<path d="M 976593.2 9651.1 L 976641.8 9651.1 L 976689.9 9651.1 L 976737.0 9651.1 L 976782.7 9651.1 L 976905.0 9651.1 L 977013.0 9651.1 L 977108.9 9651.1 L 977194.9 9651.1 L 977272.0 9651.1 L 977336.2 9651.1 L 977382.3 9651.1 L 977404.8 9651.1 L 977406.2 9651.1 L 977404.4 9651.1 L 977400.4 9651.1 L 977395.3 9651.1"/>
<path d="M 16917.0 90578.6 L 16851.6 90465.5 L 16786.2 90352.3 L 16720.8 90239.2 L 16655.4 90126.0 L 16592.3 90017.0 L 16529.3 89908.0 L 16466.3 89799.0 L 16403.3 89690.0"/>
<path d="M 49353.3 99911.8 L 49353.7 99954.7 L 49354.1 99997.6 L 49354.8 100040.4 L 49355.7 100083.3 L 49402.2 100648.2 L 49500.7 101209.2 L 49633.9 101767.5 L 49784.4 102324.5"/>
<path d="M 10700.3 104276.1 L 10866.9 104276.1"/>
<path d="M 982390.0 184358.9 L 57312.1 184358.9"/>
<path d="M 965236.3 95257.0 L 965236.3 95179.5"/>
<path d="M 256003.5 185346.9 L 256108.3 185333.2 L 256211.9 185316.3 L 256313.1 185292.7 L 256410.7 185259.0 L 256510.9 185208.6 L 256604.5 185144.7 L 256690.5 185069.4 L 256767.9 184984.8 L 256821.5 184913.8 L 256868.4 184838.8 L 256907.6 184760.3 L 256938.3 184678.6 L 256958.7 184600.7 L 256973.0 184521.1 L 256983.2 184440.3 L 256991.4 184358.9"/>
<path d="M 10717.4 89849.3 L 10649.2 89967.3 L 10580.9 90085.3 L 10512.7 90203.3 L 10444.5 90321.3 L 10376.2 90439.2 L 10308.0 90557.2 L 10239.7 90675.2 L 10171.5 90793.2"/>
<path d="M 67750.8 165056.7 A 4825.6 4825.6 0 0 0 72576.3 160231.2"/>
<path d="M 67732.5 25822.8 A 3082.3 3082.3 0 0 0 65841.9 22196.0"/>
<path d="M 19833.3 105361.5 L 19825.2 105379.8 L 19817.0 105393.2 L 19809.0 105397.0 L 19800.9 105386.3 L 19782.6 105292.4 L 19764.5 105111.9 L 19746.3 104860.9 L 19727.9 104555.6 L 19709.2 104209.2 L 19690.2 103823.7 L 19671.3 103397.9 L 19652.6 102930.9 L 19634.2 102422.9 L 19616.1 101877.8 L 19598.0 101300.7 L 19579.7 100696.5 L 19561.2 100070.4 L 19542.4 99426.9 L 19523.5 98770.2 L 19504.7 98104.8 L 19486.1 97435.2 L 19467.6 96766.1 L 19449.3 96102.1 L 19431.0 95447.9 L 19412.6 94808.5 L 19394.3 94188.6 L 19375.8 93593.1 L 19357.1 93026.9 L 19338.4 92494.2 L 19319.6 91997.0 L 19300.8 91536.4 L 19282.3 91113.5 L 19264.0 90731.4 L 19245.9 90398.7 L 19227.8 90126.2 L 19209.4 89924.6 L 19195.8 89825.1 L 19181.9 89758.7 L 19168.0 89714.3 L 19154.0 89680.9"/>
<path d="M 10700.3 104174.7 L 10693.0 104193.6 L 10685.8 104209.0 L 10678.5 104217.3 L 10671.2 104215.1 L 10651.6 104143.1 L 10632.0 103985.5 L 10612.4 103759.0 L 10592.8 103480.3 L 10573.2 103163.2 L 10553.6 102809.8 L 10534.0 102419.0 L 10514.4 101990.0 L 10494.8 101523.1 L 10475.2 101022.1 L 10455.6 100492.2 L 10436.0 99938.5 L 10416.4 99365.9 L 10396.8 98779.2 L 10377.2 98182.9 L 10357.6 97581.7 L 10338.0 96980.4 L 10318.4 96383.3 L 10298.8 95794.8 L 10279.1 95219.4 L 10259.5 94661.7 L 10239.9 94127.0 L 10220.3 93620.5 L 10200.7 93147.6 L 10181.1 92712.6 L 10161.5 92315.5 L 10141.9 91955.4 L 10122.3 91631.4 L 10102.7 91345.5 L 10083.1 91110.7 L 10063.5 90942.9 L 10043.9 90858.1 L 10035.7 90850.2 L 10027.6 90855.1 L 10019.4 90868.7 L 10011.2 90886.6"/>
<path d="M 49353.3 95086.2 L 49353.3 92673.4"/>
<path d="M 57871.9 184037.9 L 61423.5 184037.9"/>
<path d="M 68256.8 169175.2 L 68668.0 169674.5"/>
<path d="M 965236.3 95179.5 L 965101.1 95372.5"/>
<path d="M 72576.3 34766.8 A 4825.6 4825.6 0 0 0 67750.8 29941.2"/>
<path d="M 49784.4 97499.0 L 49353.3 99911.8"/>
<path d="M 12790.9 105253.3 L 12936.9 105257.9"/>
<circle cx="64131.6" cy="73371.2" r="3619.2"/>
<path d="M 49353.3 99911.8 L 49353.3 95086.2"/>
<path d="M 53274.1 102324.5 L 53270.7 102324.5 L 53266.4 102324.5 L 53260.1 102324.5 L 53250.9 102324.5 L 53190.7 102324.5 L 53094.7 102324.5 L 52974.8 102324.5 L 52843.1 102324.5"/>
<path d="M 971034.1 25323.4 L 971034.1 25822.8"/>
<path d="M 21752.6 89547.1 L 21769.2 89589.0 L 21785.7 89645.8 L 21802.3 89732.4 L 21819.0 89863.8 L 21837.7 90077.3 L 21856.4 90356.9 L 21875.0 90694.4 L 21893.4 91081.2 L 21911.7 91510.5 L 21929.8 91978.9 L 21948.0 92484.7 L 21966.5 93026.0 L 21985.2 93600.5 L 22004.2 94203.8 L 22023.1 94831.2 L 22041.8 95477.8 L 22060.1 96139.2 L 22078.2 96810.1 L 22096.2 97485.9 L 22114.5 98161.8 L 22133.1 98833.0 L 22151.9 99495.1 L 22170.8 100143.8 L 22189.6 100774.5 L 22208.2 101383.0 L 22226.6 101963.9 L 22244.9 102511.8 L 22263.1 103021.3 L 22281.5 103488.5 L 22299.9 103914.0 L 22318.4 104300.1 L 22337.1 104649.0 L 22355.9 104959.1 L 22374.6 105213.6 L 22393.3 105391.8 L 22411.8 105473.1 L 22416.9 105476.2 L 22422.1 105472.2 L 22427.2 105463.6 L 22432.3 105452.6"/>
<path d="M 214031.6 24057.5 L 213551.5 24135.7 L 213144.5 24358.5 L 212872.5 24691.9 L 212777.0 25085.2 L 212872.5 25478.5 L 213144.5 25812.0 L 213157.9 25822.8"/>
<path d="M 57312.1 184358.9 L 57322.9 184296.3 L 57354.7 184236.1 L 57406.5 184180.6 L 57476.1 184131.9 L 57560.9 184092.0 L 57657.7 184062.3 L 57762.7 184044.1 L 57871.9 184037.9"/>
<path d="M 73418.4 99802.4 L 73469.2 99889.7 L 73520.0 99977.0 L 73570.8 100064.3 L 73621.5 100151.6 L 73672.3 100239.1 L 73723.1 100326.5 L 73773.9 100413.9 L 73824.6 100501.4"/>
<circle cx="255160.3" cy="63720.1" r="1809.6"/>
<path d="M 59004.5 169674.5 L 59071.3 169598.0 L 59138.2 169520.3 L 59205.4 169440.4 L 59272.9 169357.1 L 59307.9 169312.7 L 59343.0 169267.3 L 59378.1 169221.4 L 59413.2 169175.2"/>
<path d="M 978358.1 41900.5 A 2682.9 2682.9 0 0 0 975373.7 39073.8"/>
<path d="M 74197.3 94807.8 L 74197.9 94805.8 L 74198.6 94803.9 L 74199.3 94802.2 L 74200.0 94800.7 L 74208.1 94807.9 L 74216.4 94854.0 L 74224.5 94929.3 L 74232.5 95024.2 L 74240.2 95131.0 L 74247.8 95249.5 L 74255.4 95381.4 L 74263.2 95528.7 L 74271.1 95687.5 L 74279.3 95860.4 L 74287.7 96045.3 L 74296.1 96240.3 L 74304.4 96438.2 L 74312.7 96642.4 L 74320.8 96851.6 L 74328.7 97064.5 L 74336.4 97279.9 L 74344.0 97496.1 L 74351.6 97711.3 L 74359.5 97924.0 L 74367.4 98126.9 L 74375.5 98324.1 L 74383.9 98514.2 L 74392.4 98695.6 L 74400.7 98861.9 L 74409.0 99017.7 L 74417.1 99162.2 L 74425.1 99294.6 L 74432.8 99414.0 L 74440.4 99518.6 L 74448.0 99606.6 L 74455.8 99676.4 L 74458.3 99694.3 L 74460.8 99710.7 L 74463.4 99726.1 L 74466.0 99741.0"/>
<path d="M 72769.4 100515.0 L 72903.5 100515.0"/>
<path d="M 989917.9 102324.5 L 986859.1 102324.5"/>
<circle cx="297081.8" cy="83022.3" r="1254.6"/>
<path d="M 14996.5 104380.0 L 14977.5 104287.9 L 14958.6 104180.2 L 14939.7 104041.2 L 14920.7 103855.3 L 14901.1 103601.0 L 14881.5 103287.6 L 14861.9 102922.7 L 14842.3 102514.2 L 14822.7 102068.8 L 14803.1 101590.2 L 14783.5 101080.7 L 14763.9 100543.0 L 14744.3 99980.4 L 14724.7 99397.3 L 14705.1 98799.0 L 14685.5 98190.6 L 14665.9 97577.5 L 14646.3 96964.1 L 14626.7 96355.2 L 14607.1 95755.2 L 14587.5 95169.2 L 14567.9 94601.9 L 14548.3 94058.6 L 14528.7 93544.5 L 14509.1 93064.2 L 14489.5 92619.1 L 14469.9 92209.8 L 14450.3 91837.4 L 14430.7 91504.4 L 14411.1 91220.6 L 14391.5 90997.6 L 14371.9 90847.0 L 14358.8 90790.6 L 14345.8 90762.1 L 14332.8 90752.1 L 14319.7 90751.3"/>
<path d="M 966396.6 95220.6 L 966408.7 95220.9 L 966420.6 95225.2 L 966432.4 95237.3 L 966443.9 95261.3 L 966459.9 95321.8 L 966475.4 95410.4 L 966490.8 95522.5 L 966506.5 95653.3 L 966523.2 95803.8 L 966540.4 95968.8 L 966557.9 96147.5 L 966575.5 96339.2 L 966593.2 96543.1 L 966610.7 96757.1 L 966627.9 96978.6 L 966644.6 97205.3 L 966660.3 97427.6 L 966675.7 97650.4 L 966691.3 97871.6 L 966707.3 98089.1 L 966724.6 98309.4 L 966742.4 98521.7 L 966760.4 98724.5 L 966778.1 98916.3 L 966794.9 99090.6 L 966811.3 99249.6 L 966827.4 99389.7 L 966843.6 99507.7 L 966859.4 99599.3 L 966875.3 99672.8 L 966891.3 99734.2 L 966907.3 99789.5"/>
<path d="M 24735.8 105625.2 L 46232.7 105625.2"/>
<path d="M 12250.0 89800.1 L 12099.5 89804.8"/>
<path d="M 18302.5 105424.9 L 18452.7 105429.6"/>
<path d="M 14326.5 105297.6 L 14391.9 105184.4 L 14457.4 105071.3 L 14522.8 104958.1 L 14588.2 104845.0 L 14653.6 104731.8 L 14719.0 104618.7 L 14784.4 104505.5 L 14849.9 104392.4"/>
<path d="M 981830.3 169175.2 L 981830.3 184037.9"/>
<path d="M 14996.1 104393.4 L 15064.3 104511.4 L 15132.5 104629.4 L 15200.7 104747.3 L 15268.9 104865.3 L 15337.2 104983.4 L 15405.4 105101.4 L 15473.6 105219.4 L 15541.8 105337.4"/>
<path d="M 68668.0 25822.8 L 68668.0 25323.4"/>
<path d="M 52843.1 102324.5 L 53274.1 99911.8"/>
<path d="M 18461.1 105428.2 L 18526.5 105315.0 L 18591.9 105201.9 L 18657.3 105088.7 L 18722.7 104975.6 L 18786.6 104865.1 L 18850.5 104754.5 L 18914.4 104644.0 L 18978.4 104533.5"/>
<path d="M 88567.2 24467.1 A 1200.7 1200.7 0 0 0 87337.8 25290.1"/>
<path d="M 62278.4 9651.1 L 62173.6 9664.7 L 62070.0 9681.7 L 61968.8 9705.3 L 61871.2 9738.9 L 61771.1 9789.3 L 61677.5 9853.2 L 61591.5 9928.6 L 61514.0 10013.2 L 61460.4 10084.2 L 61413.6 10159.2 L 61374.3 10237.7 L 61343.7 10319.3 L 61323.3 10397.2 L 61309.0 10476.8 L 61298.7 10557.6 L 61290.5 10639.0"/>
<path d="M 71074.6 176132.2 L 71074.6 169175.2"/>
<path d="M 66382.0 10639.0 L 66368.4 10534.2 L 66351.5 10430.6 L 66327.9 10329.4 L 66294.2 10231.8 L 66243.8 10131.6 L 66179.9 10038.1 L 66104.6 9952.1 L 66020.0 9874.6 L 65949.0 9821.0 L 65874.0 9774.2 L 65795.5 9734.9 L 65713.8 9704.3 L 65635.9 9683.9 L 65556.3 9669.6 L 65475.5 9659.3 L 65394.1 9651.1"/>
<path d="M 16375.0 104434.9 L 16443.2 104552.9 L 16511.4 104670.9 L 16579.6 104788.9 L 16647.9 104906.8 L 16716.1 105024.8 L 16784.3 105142.9 L 16852.5 105260.9 L 16920.7 105378.9"/>
<path d="M 59003.9 169175.2 L 59003.9 169736.7"/>
<path d="M 21218.1 105514.2 L 21283.5 105401.1 L 21348.9 105288.0 L 21414.3 105174.9 L 21479.7 105061.8 L 21545.1 104948.8 L 21610.5 104835.7 L 21675.8 104722.6 L 21741.2 104609.5"/>
<path d="M 15697.6 105237.1 L 15686.2 105243.5 L 15674.9 105241.9 L 15663.6 105224.3 L 15652.4 105182.5 L 15633.9 105046.0 L 15615.6 104832.8 L 15597.3 104555.5 L 15579.0 104226.6 L 15560.6 103856.7 L 15542.1 103447.9 L 15523.5 103000.4 L 15504.8 102514.4 L 15486.1 101990.9 L 15467.3 101433.9 L 15448.7 100848.2 L 15430.3 100238.8 L 15412.0 99610.7 L 15393.9 98968.3 L 15375.6 98315.9 L 15357.2 97658.1 L 15338.4 96999.4 L 15319.5 96344.3 L 15300.6 95697.2 L 15281.9 95062.6 L 15263.5 94445.5 L 15245.4 93850.4 L 15227.3 93282.3 L 15209.1 92746.1 L 15190.5 92246.3 L 15171.6 91783.5 L 15152.7 91357.9 L 15133.9 90969.7 L 15115.4 90621.0 L 15097.0 90323.2 L 15078.7 90089.4 L 15060.3 89933.1 L 15050.0 89882.5 L 15039.5 89853.5 L 15029.1 89839.0 L 15018.6 89831.7"/>
<path d="M 251899.9 184358.9 L 251913.5 184463.7 L 251930.5 184567.3 L 251954.1 184668.5 L 251987.7 184766.1 L 252038.1 184866.3 L 252102.0 184959.9 L 252177.3 185045.9 L 252262.0 185123.3 L 252333.0 185176.9 L 252408.0 185223.8 L 252486.5 185263.0 L 252568.1 185293.7 L 252646.0 185314.1 L 252725.6 185328.4 L 252806.4 185338.6 L 252887.8 185346.9"/>
<path d="M 256991.4 10639.0 L 256977.8 10534.2 L 256960.8 10430.6 L 256937.2 10329.4 L 256903.6 10231.8 L 256853.2 10131.6 L 256789.3 10038.1 L 256714.0 9952.1 L 256629.4 9874.6 L 256558.3 9821.0 L 256483.4 9774.2 L 256404.8 9734.9 L 256323.2 9704.3 L 256245.3 9683.9 L 256165.7 9669.6 L 256084.9 9659.3 L 256003.5 9651.1"/>
<path d="M 974308.1 9651.1 L 974203.3 9664.7 L 974099.7 9681.7 L 973998.5 9705.3 L 973900.9 9738.9 L 973800.7 9789.3 L 973707.1 9853.3 L 973621.1 9928.6 L 973543.7 10013.2 L 973490.1 10084.2 L 973443.2 10159.2 L 973404.0 10237.7 L 973373.3 10319.3 L 973352.9 10397.2 L 973338.6 10476.8 L 973328.4 10557.6 L 973320.2 10639.0"/>
<path d="M 13474.6 89762.4 L 13406.3 89880.4 L 13338.1 89998.4 L 13269.9 90116.4 L 13201.7 90234.4 L 13133.5 90352.4 L 13065.2 90470.4 L 12997.0 90588.4 L 12928.8 90706.4"/>
<circle cx="937070.9" cy="111975.6" r="1254.6"/>
<path d="M 19142.1 89585.5 L 18993.4 89590.1"/>
<path d="M 965726.4 99818.4 L 965849.3 99818.4"/>
<path d="M 62308.3 9651.1 L 62304.4 9651.1 L 62301.8 9651.1 L 62301.6 9651.1 L 62305.2 9651.1 L 62328.8 9651.1 L 62374.6 9651.1 L 62442.4 9651.1 L 62531.9 9651.1 L 62553.2 9651.1 L 62575.3 9651.1 L 62597.8 9651.1 L 62620.6 9651.1"/>
<path d="M 12239.8 104241.9 L 12224.0 104193.4 L 12208.2 104132.7 L 12192.3 104047.7 L 12176.5 103926.2 L 12156.9 103712.8 L 12137.3 103434.7 L 12117.7 103101.7 L 12098.1 102723.2 L 12078.5 102308.1 L 12058.9 101859.1 L 12039.2 101377.9 L 12019.6 100866.3 L 12000.0 100326.6 L 11980.4 99763.3 L 11960.8 99181.7 L 11941.2 98586.9 L 11921.6 97984.4 L 11902.0 97378.5 L 11882.4 96773.7 L 11862.8 96174.7 L 11843.2 95586.0 L 11823.6 95012.8 L 11804.0 94460.0 L 11784.4 93932.8 L 11764.8 93436.0 L 11745.2 92971.6 L 11725.6 92541.3 L 11706.0 92147.0 L 11686.4 91791.5 L 11666.8 91482.6 L 11647.2 91229.0 L 11627.6 91039.7 L 11611.2 90934.2 L 11594.8 90867.2 L 11578.3 90825.9 L 11561.9 90797.5"/>
<path d="M 13457.8 104361.0 L 13623.8 104361.0"/>
<path d="M 12782.0 90708.5 L 12716.6 90595.4 L 12651.1 90482.3 L 12585.7 90369.1 L 12520.3 90256.0 L 12454.9 90142.8 L 12389.5 90029.7 L 12324.1 89916.5 L 12258.7 89803.4"/>
<path d="M 22438.7 105553.7 L 22587.6 105558.3"/>
<path d="M 46232.7 63720.1 A 10365.3 10365.3 0 0 0 50587.5 72164.8"/>
<path d="M 979762.2 25822.8 A 3082.5 3082.5 0 0 0 977871.6 22196.0"/>
<path d="M 59004.5 25199.1 A 3242.3 3242.3 0 0 0 59004.5 25323.4"/>
<path d="M 13618.3 104351.6 L 13686.5 104469.5 L 13754.8 104587.5 L 13823.0 104705.5 L 13891.2 104823.5 L 13959.4 104941.4 L 14027.6 105059.4 L 14095.9 105177.4 L 14164.1 105295.4"/>
<path d="M 49784.4 102324.5 L 52843.1 102324.5"/>
<path d="M 974636.5 152650.3 A 1311.9 1311.9 0 0 0 977095.4 152650.3"/>
<path d="M 12102.1 89887.0 L 12106.8 89868.7 L 12111.5 89852.2 L 12116.2 89839.4 L 12120.8 89832.1 L 12139.2 89871.1 L 12157.3 90005.9 L 12175.4 90215.9 L 12193.8 90480.6 L 12212.5 90783.4 L 12231.5 91123.1 L 12250.4 91502.1 L 12269.1 91923.1 L 12287.5 92387.7 L 12305.6 92891.7 L 12323.7 93430.2 L 12341.9 93997.9 L 12360.5 94590.0 L 12379.3 95202.3 L 12398.1 95830.6 L 12416.9 96470.9 L 12435.5 97119.2 L 12454.0 97770.6 L 12472.3 98420.3 L 12490.6 99063.2 L 12508.9 99695.1 L 12527.3 100311.7 L 12545.8 100909.1 L 12564.4 101483.4 L 12583.2 102030.7 L 12602.0 102545.8 L 12620.7 103023.1 L 12639.2 103457.1 L 12657.4 103844.4 L 12675.4 104187.9 L 12693.6 104492.3 L 12712.0 104762.7 L 12730.8 104998.4 L 12749.8 105177.0 L 12768.8 105270.7 L 12787.4 105251.7 L 12788.4 105246.5 L 12789.5 105241.0 L 12790.6 105235.2 L 12791.6 105229.3"/>
<path d="M 20351.9 104576.8 L 20518.3 104576.8"/>
<path d="M 16375.0 104327.0 L 16364.3 104318.7 L 16353.5 104303.7 L 16342.8 104275.0 L 16332.1 104225.8 L 16312.5 104070.1 L 16292.9 103837.3 L 16273.3 103541.2 L 16253.7 103195.5 L 16234.1 102811.9 L 16214.5 102392.8 L 16194.9 101938.6 L 16175.3 101449.6 L 16155.7 100927.1 L 16136.1 100375.6 L 16116.5 99800.4 L 16096.9 99207.0 L 16077.3 98600.9 L 16057.7 97986.7 L 16038.0 97369.4 L 16018.4 96753.7 L 15998.8 96144.4 L 15979.2 95545.8 L 15959.6 94962.3 L 15940.0 94398.3 L 15920.4 93858.7 L 15900.8 93348.6 L 15881.2 92873.5 L 15861.6 92439.4 L 15842.0 92050.1 L 15822.4 91703.3 L 15802.8 91394.9 L 15783.2 91121.0 L 15763.6 90882.7 L 15744.0 90701.2 L 15724.4 90603.1 L 15704.8 90614.8 L 15703.2 90621.6 L 15701.5 90629.1 L 15699.9 90637.1 L 15698.2 90645.3"/>
<path d="M 46232.7 165056.7 A 10365.3 10365.3 0 0 0 56598.0 175422.0"/>
<path d="M 980697.6 169674.5 L 980697.6 169175.2"/>
<path d="M 24505.3 89419.4 L 24376.6 89642.0"/>
<path d="M 975373.7 39073.8 A 2829.4 2829.4 0 0 0 972373.9 41289.2"/>
<path d="M 982390.0 10639.0 L 57312.1 10639.0"/>
<path d="M 973515.8 21802.5 A 5149.4 5149.4 0 0 0 973384.3 21864.7"/>
<path d="M 74095.6 100310.5 L 73978.3 100514.6"/>
<path d="M 74466.0 99741.0 L 74465.7 99739.9 L 74465.3 99738.8 L 74465.0 99737.7 L 74464.7 99736.6 L 74448.7 99668.1 L 74433.1 99579.2 L 74417.7 99471.0 L 74402.1 99344.7 L 74385.4 99196.4 L 74368.2 99031.5 L 74350.7 98851.8 L 74333.0 98658.7 L 74315.4 98454.1 L 74297.9 98240.1 L 74280.7 98018.9 L 74264.0 97792.7 L 74248.3 97570.8 L 74232.9 97348.3 L 74217.3 97127.0 L 74201.4 96908.9 L 74184.0 96687.3 L 74166.2 96473.8 L 74148.2 96271.0 L 74130.5 96081.7 L 74113.6 95912.1 L 74097.2 95757.3 L 74081.0 95616.8 L 74065.0 95490.3 L 74048.9 95378.6 L 74032.7 95287.9 L 74016.2 95226.0 L 73999.4 95200.2 L 73993.6 95200.8 L 73987.7 95205.3 L 73981.7 95212.3 L 73975.8 95220.6"/>
<path d="M 66186.4 173195.5 A 5245.4 5245.4 0 0 0 66317.9 173133.3"/>
<path d="M 989917.9 92673.4 L 986859.1 92673.4"/>
<path d="M 59003.9 25261.3 L 59003.9 25822.8"/>
<path d="M 57312.1 26399.0 L 57312.1 29941.2"/>
<path d="M 57312.1 165056.7 L 57312.1 168599.0"/>
<path d="M 978216.1 173195.5 L 977786.5 173241.7 L 977356.3 173284.5 L 976924.7 173320.5 L 976491.1 173346.3 L 976042.0 173359.3 L 975591.7 173358.2 L 975141.9 173343.6 L 974694.4 173316.0 L 974398.2 173290.7 L 974103.3 173261.3 L 973809.3 173229.1 L 973515.8 173195.5"/>
<path d="M 73869.2 95207.5 L 73818.3 95120.0 L 73767.3 95032.5 L 73716.4 94945.0 L 73665.5 94857.4 L 73614.5 94769.7 L 73563.5 94682.0 L 73512.6 94594.2 L 73461.7 94506.4"/>
<path d="M 18972.5 104499.7 L 18970.6 104508.0 L 18968.8 104515.9 L 18966.9 104523.1 L 18965.0 104529.4 L 18947.6 104531.9 L 18930.2 104447.1 L 18912.7 104296.1 L 18895.3 104099.7 L 18877.9 103874.9 L 18860.5 103621.8 L 18843.0 103336.5 L 18825.6 103015.3 L 18806.0 102608.5 L 18786.4 102157.2 L 18766.8 101666.9 L 18747.2 101143.5 L 18727.6 100592.7 L 18708.0 100018.6 L 18688.4 99425.4 L 18668.8 98817.2 L 18649.2 98198.4 L 18629.6 97573.8 L 18610.0 96948.5 L 18590.4 96327.5 L 18570.8 95716.4 L 18551.2 95119.8 L 18531.6 94542.9 L 18512.0 93990.9 L 18492.4 93468.5 L 18472.8 92977.8 L 18453.2 92520.8 L 18433.6 92099.4 L 18414.0 91716.9 L 18394.4 91382.0 L 18374.8 91105.0 L 18355.2 90896.3 L 18340.4 90787.7 L 18325.6 90712.6 L 18310.7 90659.8 L 18295.9 90618.3"/>
<path d="M 989917.9 97499.0 L 990348.9 95086.2"/>
<path d="M 9878.4 90687.7 L 9651.1 90915.1"/>
<circle cx="617076.4" cy="111975.6" r="1254.6"/>
<path d="M 19132.3 104522.1 L 19200.5 104640.1 L 19268.8 104758.1 L 19337.0 104876.1 L 19405.2 104994.1 L 19473.4 105112.1 L 19541.7 105230.1 L 19609.9 105348.2 L 19678.1 105466.2"/>
<path d="M 57871.9 10960.1 L 57762.7 10953.9 L 57657.7 10935.6 L 57560.9 10906.0 L 57476.1 10866.0 L 57406.5 10817.4 L 57354.7 10761.9 L 57322.9 10701.7 L 57312.1 10639.0"/>
<path d="M 15545.5 105339.1 L 15694.3 105343.7"/>
<path d="M 975865.9 43170.6 L 976346.0 43092.4 L 976753.1 42869.6 L 977025.1 42536.2 L 977120.6 42142.9 L 977025.1 41749.5 L 976753.1 41416.1 L 976346.0 41193.3 L 975865.9 41115.1 L 975385.8 41193.3 L 974978.7 41416.1 L 974706.8 41749.5 L 974611.3 42142.9 L 974706.8 42536.2 L 974978.7 42869.6 L 975385.8 43092.4 L 975865.9 43170.6"/>
<path d="M 967125.9 94799.5 L 966952.6 94501.1"/>
<path d="M 61354.7 173133.3 A 5244.9 5244.9 0 0 0 61486.1 173195.5"/>
<circle cx="975570.6" cy="121626.7" r="3619.2"/>
<path d="M 24735.8 93307.6 L 24735.8 105625.2"/>
<circle cx="297082.3" cy="111975.6" r="1809.6"/>
<path d="M 973320.2 184358.9 L 973333.8 184463.7 L 973350.7 184567.3 L 973374.4 184668.5 L 973408.0 184766.1 L 973458.4 184866.3 L 973522.3 184959.9 L 973597.6 185045.9 L 973682.2 185123.3 L 973753.2 185176.9 L 973828.2 185223.8 L 973906.7 185263.0 L 973988.4 185293.7 L 974066.3 185314.1 L 974145.9 185328.4 L 974226.7 185338.6 L 974308.1 185346.9"/>
<path d="M 46232.7 63720.1 L 53274.1 63720.1"/>
<path d="M 14852.8 89722.0 L 14784.6 89839.9 L 14716.4 89957.9 L 14648.2 90075.9 L 14580.0 90193.9 L 14511.8 90311.9 L 14443.5 90429.8 L 14375.3 90547.8 L 14307.1 90665.7"/>
<path d="M 23126.7 89460.2 L 23058.5 89578.2 L 22990.3 89696.3 L 22922.0 89814.3 L 22853.8 89932.3 L 22785.6 90050.3 L 22717.4 90168.4 L 22649.1 90286.4 L 22580.9 90404.4"/>
<path d="M 53274.1 95086.2 L 53273.8 95043.3 L 53273.3 95000.4 L 53272.7 94957.5 L 53271.8 94914.7 L 53225.3 94349.7 L 53126.8 93788.7 L 52993.6 93230.4 L 52843.1 92673.4"/>
<path d="M 18995.0 89643.6 L 18997.5 89630.8 L 19000.1 89618.5 L 19002.6 89607.6 L 19005.2 89598.5 L 19023.8 89603.9 L 19042.7 89717.0 L 19061.7 89912.7 L 19080.4 90166.0 L 19098.7 90456.8 L 19116.8 90783.9 L 19134.8 91151.5 L 19153.1 91563.4 L 19171.7 92022.0 L 19190.6 92523.5 L 19209.5 93062.3 L 19228.3 93633.0 L 19246.8 94230.6 L 19265.2 94850.6 L 19283.4 95489.1 L 19301.6 96142.0 L 19320.0 96805.5 L 19338.5 97474.3 L 19357.1 98143.6 L 19375.8 98808.1 L 19394.6 99463.1 L 19413.3 100104.4 L 19431.9 100727.9 L 19450.3 101329.5 L 19468.5 101905.4 L 19486.7 102449.9 L 19504.9 102957.7 L 19523.3 103423.3 L 19542.1 103842.9 L 19561.1 104218.5 L 19580.0 104553.6 L 19598.6 104851.8 L 19616.9 105112.2 L 19634.9 105315.3 L 19653.0 105437.3 L 19671.4 105454.1 L 19674.6 105444.9 L 19677.8 105432.9 L 19681.0 105418.9 L 19684.2 105404.1"/>
<path d="M 46232.7 114388.4 L 46232.7 80609.5"/>
<path d="M 978377.5 41765.7 L 978314.1 41437.4 L 977985.6 40751.9 L 977425.1 40176.1 L 976682.3 39761.3 L 975823.2 39544.2 L 974924.2 39544.2 L 974065.1 39761.3 L 973322.4 40176.1 L 972761.8 40751.9 L 972441.1 41410.2"/>
<path d="M 966283.3 95238.5 L 966290.0 95240.3 L 966296.7 95243.7 L 966303.3 95250.2 L 966309.8 95261.3 L 966325.9 95316.2 L 966341.5 95404.6 L 966356.8 95519.4 L 966372.4 95653.3 L 966389.1 95805.4 L 966406.3 95970.4 L 966423.8 96148.3 L 966441.5 96339.2 L 966459.1 96542.8 L 966476.7 96756.8 L 966493.9 96978.5 L 966510.6 97205.3 L 966526.3 97427.4 L 966541.7 97649.9 L 966557.2 97871.1 L 966573.2 98089.1 L 966590.5 98310.6 L 966608.3 98524.1 L 966626.3 98726.9 L 966644.0 98916.3 L 966660.9 99085.9 L 966677.3 99240.7 L 966693.5 99381.2 L 966709.6 99507.7 L 966725.7 99619.4 L 966741.9 99710.0 L 966758.3 99772.0 L 966775.1 99797.7 L 966781.0 99797.1 L 966786.9 99792.7 L 966792.8 99785.7 L 966798.8 99777.4"/>
<path d="M 975373.7 155481.3 A 2822.5 2822.5 0 0 0 978377.5 153232.2"/>
<path d="M 972373.9 153708.8 A 2871.2 2871.2 0 0 0 975373.7 155924.2"/>
<path d="M 61290.5 184358.9 L 61304.1 184463.7 L 61321.1 184567.3 L 61344.7 184668.5 L 61378.3 184766.1 L 61428.8 184866.3 L 61492.7 184959.9 L 61568.0 185045.9 L 61652.6 185123.3 L 61723.6 185176.9 L 61798.6 185223.8 L 61877.1 185263.0 L 61958.7 185293.7 L 62036.6 185314.1 L 62116.3 185328.4 L 62197.1 185338.6 L 62278.4 185346.9"/>
<path d="M 966798.8 94536.4 L 966810.8 94536.9 L 966822.8 94542.4 L 966834.6 94558.2 L 966846.0 94589.4 L 966862.0 94668.0 L 966877.5 94783.1 L 966893.0 94928.8 L 966908.6 95099.0 L 966925.3 95295.2 L 966942.5 95510.0 L 966960.0 95742.3 L 966977.7 95991.0 L 966995.3 96254.7 L 967012.9 96531.7 L 967030.0 96819.8 L 967046.7 97117.1 L 967062.3 97411.2 L 967077.6 97705.2 L 967093.2 97992.5 L 967109.4 98266.3 L 967113.5 98330.0 L 967117.6 98392.8 L 967121.7 98455.0 L 967125.9 98516.9"/>
<circle cx="975570.6" cy="39592.3" r="3619.2"/>
<path d="M 981830.3 184037.9 L 981939.5 184044.1 L 982044.5 184062.3 L 982141.3 184092.0 L 982226.1 184131.9 L 982295.7 184180.6 L 982347.5 184236.1 L 982379.4 184296.3 L 982390.0 184358.9"/>
<circle cx="64131.6" cy="155405.6" r="3619.2"/>
<path d="M 978411.7 10639.0 L 978398.1 10534.2 L 978381.1 10430.6 L 978357.5 10329.4 L 978323.9 10231.8 L 978273.5 10131.6 L 978209.5 10038.1 L 978134.2 9952.1 L 978049.6 9874.6 L 977978.6 9821.0 L 977903.6 9774.2 L 977825.1 9734.9 L 977743.5 9704.3 L 977665.6 9683.9 L 977585.9 9669.6 L 977505.2 9659.3 L 977423.8 9651.1"/>
<path d="M 64796.8 9651.1 L 64883.8 9651.1 L 64968.5 9651.1 L 65048.8 9651.1 L 65122.4 9651.1 L 65207.0 9651.1 L 65275.3 9651.1 L 65326.8 9651.1 L 65360.9 9651.1 L 65378.1 9651.1 L 65381.9 9651.1 L 65376.8 9651.1 L 65367.3 9651.1"/>
<path d="M 49353.3 102324.5 L 49353.3 99911.8"/>
<path d="M 965601.0 94684.2 L 965576.2 94726.9 L 965551.4 94769.7 L 965526.6 94812.4 L 965501.8 94855.1 L 965450.9 94942.6 L 965399.9 95030.1 L 965349.0 95117.6 L 965298.0 95205.0"/>
<path d="M 989917.9 102324.5 L 990348.9 99911.8"/>
<path d="M 89796.7 25290.1 A 1200.7 1200.7 0 0 0 88567.2 24467.1"/>
<path d="M 21222.0 105439.8 L 21218.6 105461.1 L 21215.1 105481.4 L 21211.7 105499.5 L 21208.3 105514.4 L 21189.9 105524.9 L 21171.8 105430.5 L 21153.8 105254.5 L 21135.5 105020.1 L 21116.8 104746.4 L 21097.9 104434.1 L 21078.9 104079.6 L 21060.1 103679.4 L 21041.7 103231.4 L 21023.4 102739.3 L 21005.3 102208.4 L 20987.0 101644.0 L 20968.6 101051.4 L 20949.9 100434.6 L 20931.2 99797.6 L 20912.4 99144.6 L 20893.7 98479.5 L 20875.1 97807.5 L 20856.6 97133.4 L 20838.2 96462.3 L 20820.0 95799.5 L 20801.7 95149.0 L 20783.4 94515.0 L 20764.9 93901.6 L 20746.1 93313.2 L 20727.2 92754.9 L 20708.3 92232.0 L 20689.7 91749.9 L 20671.4 91312.6 L 20653.4 90918.8 L 20635.3 90565.7 L 20617.0 90250.8 L 20598.2 89975.5 L 20579.3 89756.7 L 20560.3 89615.4 L 20541.6 89572.7 L 20536.8 89579.9 L 20532.1 89593.1 L 20527.3 89610.3 L 20522.6 89629.5"/>
<path d="M 965534.3 100169.1 L 965537.8 100163.2 L 965541.2 100157.2 L 965544.7 100151.3 L 965548.2 100145.3 L 965595.7 100063.6 L 965643.3 99981.9 L 965690.8 99900.2 L 965738.3 99818.4"/>
<path d="M 88567.2 24057.5 L 88087.1 24135.7 L 87680.1 24358.5 L 87408.1 24691.9 L 87312.6 25085.2 L 87408.1 25478.5 L 87680.1 25812.0 L 87693.5 25822.8"/>
<path d="M 11567.1 105213.7 L 11632.5 105100.6 L 11697.9 104987.5 L 11763.4 104874.3 L 11828.8 104761.2 L 11892.9 104650.3 L 11957.1 104539.4 L 12021.2 104428.5 L 12085.4 104317.6"/>
<path d="M 975373.7 155924.2 A 2682.9 2682.9 0 0 0 978358.1 153097.4"/>
<path d="M 17086.4 105276.8 L 17079.8 105307.5 L 17073.2 105334.9 L 17066.7 105355.6 L 17060.1 105366.3 L 17041.5 105327.6 L 17023.0 105197.7 L 17004.7 104994.4 L 16986.3 104735.5 L 16968.0 104435.6 L 16949.6 104096.2 L 16931.2 103715.2 L 16912.5 103290.8 L 16893.8 102822.3 L 16874.9 102313.5 L 16856.2 101769.3 L 16837.7 101194.9 L 16819.4 100595.3 L 16801.3 99974.5 L 16783.2 99336.6 L 16764.8 98685.9 L 16746.1 98026.7 L 16727.1 97363.6 L 16708.2 96701.8 L 16689.4 96046.2 L 16671.0 95401.7 L 16652.8 94772.3 L 16634.7 94161.8 L 16616.4 93574.2 L 16597.9 93014.0 L 16579.2 92486.1 L 16560.4 91996.0 L 16541.7 91549.1 L 16523.0 91149.5 L 16504.4 90794.1 L 16486.0 90478.6 L 16467.6 90198.5 L 16449.4 89954.6 L 16431.1 89768.3 L 16412.7 89666.2 L 16394.1 89675.1 L 16392.3 89682.5 L 16390.6 89690.9 L 16388.8 89699.8 L 16387.1 89709.1"/>
<path d="M 15005.2 89714.3 L 14859.5 89718.9"/>
<path d="M 61423.5 10960.1 L 57871.9 10960.1"/>
<path d="M 977423.8 185346.9 L 977528.6 185333.2 L 977632.2 185316.3 L 977733.4 185292.7 L 977831.0 185259.0 L 977931.2 185208.6 L 978024.8 185144.7 L 978110.8 185069.4 L 978188.2 184984.8 L 978241.8 184913.8 L 978288.6 184838.8 L 978327.8 184760.3 L 978358.5 184678.6 L 978378.9 184600.7 L 978393.2 184521.1 L 978403.4 184440.3 L 978411.7 184358.9"/>
<path d="M 990348.9 95086.2 L 990348.6 95043.3 L 990348.1 95000.4 L 990347.5 94957.5 L 990346.5 94914.7 L 990300.0 94349.7 L 990201.5 93788.7 L 990068.3 93230.4 L 989917.9 92673.4"/>
<path d="M 14859.6 89722.0 L 14859.7 89721.2 L 14859.8 89720.4 L 14860.0 89719.6 L 14860.1 89718.9 L 14878.7 89681.4 L 14897.1 89763.2 L 14915.5 89933.9 L 14933.7 90162.7 L 14952.1 90425.4 L 14970.5 90721.6 L 14989.0 91056.8 L 15007.6 91436.8 L 15026.3 91865.3 L 15045.1 92338.6 L 15063.8 92851.0 L 15082.3 93396.9 L 15100.6 93971.3 L 15118.7 94569.8 L 15136.8 95188.5 L 15155.2 95823.8 L 15173.9 96471.8 L 15192.9 97127.5 L 15211.8 97786.1 L 15230.5 98442.7 L 15248.9 99092.6 L 15267.1 99731.5 L 15285.2 100355.0 L 15303.4 100959.1 L 15321.9 101539.8 L 15340.7 102091.7 L 15359.5 102609.8 L 15378.3 103089.0 L 15396.9 103525.5 L 15415.4 103919.9 L 15433.8 104274.6 L 15452.1 104591.5 L 15470.4 104869.5 L 15488.7 105092.6 L 15507.1 105241.6 L 15525.7 105297.4 L 15531.4 105293.4 L 15537.1 105281.8 L 15542.7 105264.9 L 15548.4 105245.5"/>
<path d="M 49353.3 95086.2 L 49353.7 95129.1 L 49354.1 95172.0 L 49354.8 95214.9 L 49355.7 95257.7 L 49402.2 95822.7 L 49500.7 96383.6 L 49633.9 96942.0 L 49784.4 97499.0"/>
<path d="M 16385.9 89671.3 L 16234.7 89676.0"/>
<path d="M 59004.5 169674.5 A 3242.7 3242.7 0 0 0 59004.5 169798.9"/>
<path d="M 14836.3 104358.4 L 14834.0 104369.6 L 14831.6 104380.4 L 14829.2 104390.1 L 14826.8 104398.5 L 14807.2 104397.4 L 14787.6 104289.5 L 14768.0 104100.3 L 14748.4 103855.3 L 14728.8 103575.1 L 14709.2 103260.8 L 14689.6 102908.4 L 14670.0 102514.2 L 14650.4 102075.8 L 14630.8 101597.4 L 14611.2 101084.5 L 14591.6 100543.0 L 14572.0 99978.5 L 14552.4 99395.3 L 14532.8 98797.9 L 14513.2 98190.6 L 14493.6 97578.0 L 14474.0 96964.7 L 14454.4 96355.5 L 14434.8 95755.2 L 14415.2 95168.8 L 14395.6 94601.3 L 14376.0 94058.1 L 14356.4 93544.5 L 14336.8 93065.1 L 14317.2 92620.8 L 14297.6 92211.5 L 14277.9 91837.4 L 14258.3 91501.1 L 14238.7 91214.4 L 14219.1 90991.6 L 14199.5 90847.0 L 14189.2 90805.9 L 14179.0 90783.8 L 14168.7 90774.5 L 14158.4 90771.5"/>
<path d="M 17609.7 89635.1 L 17541.5 89753.1 L 17473.3 89871.1 L 17405.0 89989.1 L 17336.8 90107.2 L 17268.6 90225.2 L 17200.4 90343.2 L 17132.1 90461.2 L 17063.9 90579.2"/>
<path d="M 17593.9 104398.6 L 17588.2 104417.9 L 17582.5 104434.8 L 17576.8 104446.9 L 17571.1 104451.8 L 17551.5 104399.6 L 17531.9 104253.7 L 17512.3 104033.6 L 17492.7 103759.1 L 17473.1 103446.5 L 17453.5 103097.1 L 17433.9 102709.0 L 17414.3 102280.2 L 17394.7 101810.0 L 17375.1 101302.6 L 17355.5 100763.6 L 17335.9 100198.8 L 17316.3 99613.7 L 17296.7 99012.8 L 17277.0 98400.7 L 17257.4 97781.9 L 17237.8 97161.0 L 17218.2 96542.6 L 17198.6 95931.5 L 17179.0 95332.6 L 17159.4 94751.1 L 17139.8 94191.9 L 17120.2 93660.4 L 17100.6 93162.1 L 17081.0 92701.4 L 17061.4 92278.3 L 17041.8 91891.9 L 17022.2 91541.0 L 17002.6 91228.0 L 16983.0 90967.8 L 16963.4 90778.8 L 16943.8 90679.0 L 16937.1 90668.0 L 16930.4 90666.5 L 16923.8 90671.1 L 16917.1 90678.9"/>
<path d="M 18456.1 90524.6 L 18289.6 90524.6"/>
<path d="M 46232.7 165056.7 L 53274.1 165056.7"/>
<path d="M 981830.3 10960.1 L 978278.7 10960.1"/>
<path d="M 73305.6 99777.4 L 73293.5 99777.0 L 73281.6 99772.8 L 73269.8 99760.6 L 73258.3 99736.6 L 73242.4 99676.1 L 73226.8 99587.5 L 73211.4 99475.5 L 73195.7 99344.7 L 73179.0 99194.1 L 73161.8 99029.2 L 73144.3 98850.5 L 73126.7 98658.7 L 73109.0 98454.8 L 73091.5 98240.9 L 73074.3 98019.4 L 73057.6 97792.7 L 73041.9 97570.3 L 73026.5 97347.5 L 73011.0 97126.3 L 72995.0 96908.9 L 72977.6 96688.6 L 72959.8 96476.3 L 72941.8 96273.5 L 72924.1 96081.7 L 72907.3 95907.3 L 72890.9 95748.4 L 72874.7 95608.2 L 72858.6 95490.3 L 72842.8 95398.7 L 72826.9 95325.2 L 72810.9 95263.8 L 72794.9 95208.5"/>
<path d="M 57312.1 10639.0 L 56598.0 10639.0"/>
<path d="M 967125.9 160231.2 A 4825.6 4825.6 0 0 0 971951.4 165056.7"/>
<path d="M 989917.9 92673.4 L 990046.1 92673.4 L 990163.3 92673.4 L 990258.3 92673.4 L 990320.0 92673.4 L 990331.4 92673.4 L 990339.2 92673.4 L 990344.6 92673.4 L 990348.9 92673.4"/>
<path d="M 978278.7 10960.1 L 968627.6 18865.8"/>
<path d="M 975991.9 185346.9 L 975838.4 185346.9 L 975686.0 185346.9 L 975535.5 185346.9 L 975388.0 185346.9 L 975244.7 185346.9 L 975107.2 185346.9 L 974977.4 185346.9 L 974857.0 185346.9 L 974747.5 185346.9 L 974648.5 185346.9 L 974559.5 185346.9 L 974479.6 185346.9 L 974409.4 185346.9 L 974354.0 185346.9 L 974319.8 185346.9 L 974313.2 185346.9 L 974315.4 185346.9 L 974318.4 185346.9 L 974322.0 185346.9 L 974325.8 185346.9"/>
<circle cx="617076.4" cy="83022.3" r="1809.6"/>
<circle cx="297082.3" cy="83022.3" r="1809.6"/>
<path d="M 57312.1 184358.9 L 56598.0 184358.9"/>
<path d="M 22432.4 90407.4 L 22367.0 90294.3 L 22301.6 90181.1 L 22236.2 90068.0 L 22170.8 89954.9 L 22105.4 89841.7 L 22040.0 89728.6 L 21974.6 89615.4 L 21909.2 89502.3"/>
<path d="M 74167.9 94828.9 L 74164.4 94834.8 L 74161.0 94840.8 L 74157.5 94846.7 L 74154.1 94852.7 L 74106.6 94934.4 L 74059.0 95016.1 L 74011.5 95097.8 L 73963.9 95179.5"/>
<path d="M 11561.1 105146.3 L 11546.5 105123.5 L 11531.8 105088.4 L 11517.1 105028.6 L 11502.2 104932.0 L 11483.4 104747.3 L 11464.5 104495.6 L 11445.6 104186.4 L 11427.0 103828.6 L 11408.7 103430.5 L 11390.6 102994.4 L 11372.5 102521.8 L 11354.2 102014.0 L 11335.5 101472.9 L 11316.7 100902.6 L 11297.7 100307.7 L 11278.9 99693.0 L 11260.4 99063.0 L 11242.1 98422.5 L 11223.8 97775.8 L 11205.5 97127.5 L 11187.1 96482.6 L 11168.6 95844.9 L 11150.0 95218.8 L 11131.3 94608.4 L 11112.6 94018.1 L 11093.9 93453.0 L 11075.2 92918.1 L 11056.8 92418.5 L 11038.5 91958.4 L 11020.4 91537.3 L 11002.2 91153.6 L 10983.7 90806.0 L 10964.9 90496.2 L 10945.9 90238.8 L 10927.0 90051.4 L 10908.4 89951.9 L 10901.9 89940.4 L 10895.4 89938.8 L 10889.0 89943.7 L 10882.6 89952.0"/>
<path d="M 252887.8 9651.1 L 252783.0 9664.7 L 252679.4 9681.7 L 252578.2 9705.3 L 252480.6 9738.9 L 252380.4 9789.3 L 252286.8 9853.3 L 252200.8 9928.6 L 252123.4 10013.2 L 252069.8 10084.2 L 252022.9 10159.2 L 251983.7 10237.7 L 251953.0 10319.3 L 251932.6 10397.2 L 251918.3 10476.8 L 251908.1 10557.6 L 251899.9 10639.0"/>
<path d="M 16215.6 104447.0 L 16382.0 104447.0"/>
<path d="M 23279.7 89456.7 L 23128.7 89461.4"/>
<path d="M 57705.9 29941.2 L 67750.8 29941.2"/>
<path d="M 986428.1 165056.7 L 981996.3 165056.7"/>
<path d="M 56598.0 10639.0 L 56598.0 29941.2"/>
<path d="M 71074.6 25822.8 L 71074.6 18865.8"/>
<path d="M 975053.0 9651.1 L 975192.2 9651.1 L 975332.8 9651.1 L 975476.1 9651.1 L 975623.5 9651.1 L 975775.5 9651.1 L 975929.6 9651.1 L 976082.5 9651.1 L 976230.8 9651.1 L 976324.4 9651.1 L 976415.4 9651.1 L 976504.8 9651.1 L 976593.2 9651.1"/>
<path d="M 63836.3 151827.4 L 63356.2 151905.6 L 62949.1 152128.4 L 62677.1 152461.8 L 62581.6 152855.1 L 62677.1 153248.4 L 62949.1 153581.8 L 63356.2 153804.6 L 63836.3 153882.9 L 64316.4 153804.6 L 64723.5 153581.8 L 64995.4 153248.4 L 65090.9 152855.1 L 64995.4 152461.8 L 64723.5 152128.4 L 64316.4 151905.6 L 63836.3 151827.4"/>
<path d="M 60945.1 153689.7 L 61006.9 154003.4 L 61335.4 154688.9 L 61895.9 155264.7 L 62638.7 155679.5 L 63497.8 155896.6 L 64396.8 155896.6 L 65255.9 155679.5 L 65998.7 155264.7 L 66559.2 154688.9 L 66887.6 154003.4 L 66954.8 153269.0 L 66935.1 153116.7"/>
<path d="M 255979.4 185346.9 L 255984.3 185346.9 L 255988.6 185346.9 L 255991.7 185346.9 L 255993.0 185346.9 L 255979.1 185346.9 L 255939.6 185346.9 L 255880.1 185346.9 L 255806.2 185346.9 L 255722.2 185346.9 L 255628.9 185346.9 L 255525.7 185346.9 L 255412.2 185346.9 L 255288.4 185346.9 L 255155.8 185346.9 L 255016.0 185346.9 L 254871.1 185346.9 L 254722.6 185346.9 L 254571.6 185346.9 L 254418.8 185346.9 L 254265.2 185346.9"/>
<path d="M 18972.5 104533.5 L 19138.9 104533.5"/>
<path d="M 965299.7 95206.5 L 965300.1 95204.6 L 965300.5 95202.7 L 965300.9 95200.9 L 965301.3 95199.1 L 965318.1 95155.7 L 965335.8 95159.3 L 965353.9 95198.3 L 965371.5 95261.3 L 965387.7 95336.7 L 965403.3 95425.8 L 965418.6 95530.7 L 965434.2 95653.3 L 965450.9 95799.7 L 965468.0 95964.5 L 965485.5 96145.2 L 965503.2 96339.2 L 965520.9 96544.3 L 965538.4 96758.2 L 965555.5 96979.2 L 965572.3 97205.3 L 965587.9 97427.3 L 965603.3 97650.2 L 965618.9 97871.5 L 965634.8 98089.1 L 965652.2 98309.4 L 965670.1 98521.8 L 965688.0 98724.5 L 965705.8 98916.3 L 965722.6 99090.6 L 965739.0 99249.6 L 965755.1 99389.8 L 965771.3 99507.7 L 965787.0 99598.7 L 965802.8 99671.7 L 965818.7 99732.7 L 965834.6 99787.7"/>
<circle cx="975570.6" cy="155405.6" r="3619.2"/>
<path d="M 15698.2 90611.6 L 15531.8 90611.6"/>
<path d="M 72903.5 100461.5 L 72891.4 100461.1 L 72879.5 100455.5 L 72867.7 100439.7 L 72856.2 100408.6 L 72840.2 100330.0 L 72824.7 100214.9 L 72809.3 100069.2 L 72793.6 99898.9 L 72776.9 99702.8 L 72759.7 99488.0 L 72742.2 99255.7 L 72724.5 99007.0 L 72706.8 98743.2 L 72689.3 98466.3 L 72672.1 98178.1 L 72655.5 97880.9 L 72639.9 97586.8 L 72624.6 97292.8 L 72609.0 97005.5 L 72592.8 96731.7 L 72588.8 96668.0 L 72584.6 96605.2 L 72580.5 96543.0 L 72576.3 96481.0"/>
<circle cx="617076.4" cy="83022.3" r="1254.6"/>
<path d="M 53274.1 70791.6 A 10365.3 10365.3 0 0 0 46232.7 80609.5"/>
<path d="M 10394.3 104816.5 L 10408.7 104791.6 L 10423.1 104766.8 L 10437.4 104742.0 L 10451.8 104717.1 L 10517.2 104604.0 L 10582.6 104490.9 L 10648.0 104377.8 L 10713.4 104264.7"/>
<path d="M 21213.0 90439.2 L 21046.4 90439.2"/>
<path d="M 59940.0 25822.8 L 59825.0 25041.6 L 59961.7 24191.2 L 60362.4 23398.7 L 60999.9 22718.2 L 61830.7 22196.0 L 62798.1 21867.8 L 63836.3 21755.8 L 64874.5 21867.8 L 65841.9 22196.0"/>
<path d="M 21052.1 90449.0 L 20986.6 90335.8 L 20921.2 90222.7 L 20855.8 90109.6 L 20790.4 89996.5 L 20725.0 89883.4 L 20659.6 89770.2 L 20594.2 89657.1 L 20528.8 89544.0"/>
<path d="M 12096.7 89803.8 L 12028.4 89921.8 L 11960.2 90039.8 L 11892.0 90157.9 L 11823.8 90275.9 L 11755.5 90393.9 L 11687.3 90511.8 L 11619.1 90629.8 L 11550.8 90747.8"/>
<path d="M 73824.6 100442.3 L 73817.0 100440.1 L 73809.4 100435.4 L 73801.9 100425.7 L 73794.5 100408.6 L 73778.4 100335.7 L 73762.9 100220.7 L 73747.5 100072.2 L 73731.9 99898.9 L 73715.2 99701.6 L 73698.0 99487.1 L 73680.5 99255.5 L 73662.8 99007.0 L 73645.2 98742.1 L 73627.7 98463.9 L 73610.5 98175.7 L 73593.8 97880.9 L 73578.1 97592.1 L 73562.7 97302.7 L 73547.1 97015.1 L 73531.1 96731.7 L 73513.8 96443.6 L 73496.0 96166.0 L 73478.0 95902.4 L 73460.3 95656.1 L 73443.4 95435.6 L 73427.0 95234.2 L 73410.8 95051.6 L 73394.7 94887.1 L 73378.7 94741.8 L 73362.5 94624.0 L 73346.0 94543.4 L 73329.2 94510.0 L 73323.4 94510.7 L 73317.5 94516.5 L 73311.5 94525.6 L 73305.6 94536.4"/>
<path d="M 9651.1 104121.5 L 10333.7 104804.1"/>
<path d="M 63516.2 9651.1 L 63667.6 9651.1 L 63819.3 9651.1 L 63971.3 9651.1 L 64124.0 9651.1 L 64276.6 9651.1 L 64425.0 9651.1 L 64563.8 9651.1 L 64688.0 9651.1 L 64716.3 9651.1 L 64743.6 9651.1 L 64770.4 9651.1 L 64796.8 9651.1"/>
<path d="M 65065.8 42347.7 A 1311.9 1311.9 0 0 0 62606.8 42347.7"/>
<path d="M 74402.6 99791.5 L 74402.2 99793.4 L 74401.7 99795.2 L 74401.3 99797.1 L 74400.9 99798.9 L 74383.7 99842.2 L 74365.9 99838.7 L 74348.1 99799.7 L 74330.7 99736.6 L 74314.6 99661.3 L 74299.1 99572.2 L 74283.7 99467.3 L 74268.0 99344.7 L 74251.4 99198.3 L 74234.2 99033.5 L 74216.7 98852.8 L 74199.0 98658.7 L 74181.3 98453.7 L 74163.8 98239.8 L 74146.7 98018.8 L 74130.0 97792.7 L 74114.3 97570.6 L 74098.8 97347.8 L 74083.3 97126.5 L 74067.3 96908.9 L 74050.0 96688.5 L 74032.1 96476.2 L 74014.2 96273.4 L 73996.4 96081.7 L 73979.6 95907.3 L 73963.3 95748.3 L 73947.1 95608.2 L 73930.9 95490.3 L 73915.2 95399.3 L 73899.4 95326.3 L 73883.5 95265.2 L 73867.6 95210.2"/>
<path d="M 66951.1 41765.7 L 66887.6 41437.4 L 66559.2 40751.9 L 65998.7 40176.1 L 65255.9 39761.3 L 64396.8 39544.2 L 63497.8 39544.2 L 62638.7 39761.3 L 61895.9 40176.1 L 61335.4 40751.9 L 61010.5 41424.6"/>
<path d="M 49784.4 92673.4 L 49353.3 95086.2"/>
<path d="M 13480.6 89864.3 L 13492.3 89860.5 L 13504.0 89865.2 L 13515.7 89887.1 L 13527.3 89934.8 L 13545.6 90076.7 L 13563.9 90293.1 L 13582.2 90572.3 L 13600.7 90902.3 L 13619.4 91273.1 L 13638.3 91682.6 L 13657.2 92130.4 L 13675.8 92616.0 L 13694.0 93138.7 L 13712.1 93694.2 L 13730.2 94277.7 L 13748.5 94884.4 L 13767.1 95509.5 L 13786.0 96148.7 L 13805.0 96797.2 L 13823.8 97450.8 L 13842.3 98105.0 L 13860.5 98755.3 L 13878.7 99397.2 L 13897.0 100026.3 L 13915.4 100638.3 L 13934.0 101228.0 L 13952.6 101790.5 L 13971.3 102320.8 L 13990.0 102814.8 L 14008.7 103271.8 L 14027.3 103691.6 L 14045.7 104074.5 L 14063.9 104418.2 L 14082.1 104711.2 L 14100.4 104939.8 L 14118.8 105090.1 L 14128.9 105135.4 L 14139.0 105160.6 L 14149.2 105172.4 L 14159.4 105177.6"/>
<path d="M 57312.1 26399.0 L 57312.1 25822.8"/>
<path d="M 215820.9 24863.8 A 1877.3 1877.3 0 0 0 212242.4 24863.8"/>
<path d="M 972441.1 153587.7 A 2941.6 2941.6 0 0 0 975373.7 155481.3"/>
<path d="M 22637.0 93616.9 L 22651.9 94150.3 L 22666.8 94688.7 L 22681.6 95237.4 L 22696.5 95801.4 L 22711.4 96383.9 L 22726.3 96980.1 L 22741.0 97583.3 L 22755.7 98186.9 L 22770.4 98789.1 L 22785.0 99381.7 L 22799.7 99961.2 L 22814.5 100524.5 L 22829.5 101068.0 L 22844.5 101587.3 L 22859.6 102077.6 L 22874.4 102534.2 L 22889.0 102956.0 L 22903.5 103340.1 L 22918.0 103687.8 L 22932.6 104000.4 L 22947.6 104277.1 L 22962.7 104504.3 L 22977.7 104666.5 L 22992.6 104748.1 L 22998.4 104755.5 L 23004.2 104751.6 L 23010.0 104740.1 L 23015.7 104724.9"/>
<circle cx="255160.3" cy="131277.9" r="1809.6"/>
<path d="M 19682.2 105467.9 L 19829.8 105472.5"/>
<path d="M 68668.0 169674.5 L 68668.0 169175.2"/>
<path d="M 966932.8 94483.0 L 966798.8 94483.0"/>
<path d="M 20374.0 89660.2 L 20383.5 89645.7 L 20393.0 89637.7 L 20402.5 89642.6 L 20412.1 89666.7 L 20430.8 89782.3 L 20449.6 89980.0 L 20468.4 90245.6 L 20487.0 90564.7 L 20505.2 90925.7 L 20523.3 91326.3 L 20541.3 91766.9 L 20559.7 92247.9 L 20578.4 92768.8 L 20597.4 93325.5 L 20616.3 93912.9 L 20635.1 94526.1 L 20653.5 95160.5 L 20671.7 95811.1 L 20689.8 96473.6 L 20708.0 97143.4 L 20726.5 97816.1 L 20745.2 98487.0 L 20764.0 99151.4 L 20782.8 99804.6 L 20801.4 100441.9 L 20820.0 101058.4 L 20838.4 101649.1 L 20856.7 102208.9 L 20875.0 102733.8 L 20893.3 103222.2 L 20911.6 103673.2 L 20930.2 104086.2 L 20948.9 104458.5 L 20967.8 104780.1 L 20986.6 105039.0 L 21005.3 105223.3 L 21017.3 105300.0 L 21029.2 105348.8 L 21041.1 105378.9 L 21052.9 105399.6"/>
<path d="M 17594.0 104489.1 L 17760.2 104489.1"/>
<path d="M 982390.0 29941.2 L 982390.0 10639.0"/>
<path d="M 214905.4 25822.8 L 214918.8 25812.0 L 215190.8 25478.5 L 215286.3 25085.2 L 215190.8 24691.9 L 214918.8 24358.5 L 214511.8 24135.7 L 214031.6 24057.5"/>
<path d="M 10723.5 89875.1 L 10739.7 89920.3 L 10756.0 89979.7 L 10772.4 90067.7 L 10789.1 90198.4 L 10807.3 90399.3 L 10825.7 90659.4 L 10844.1 90971.5 L 10862.4 91328.4 L 10880.8 91735.7 L 10899.0 92181.0 L 10917.2 92662.4 L 10935.5 93178.2 L 10953.9 93726.1 L 10972.6 94302.0 L 10991.3 94901.1 L 11010.0 95518.9 L 11028.7 96150.9 L 11047.3 96792.5 L 11065.8 97439.0 L 11084.1 98085.9 L 11102.4 98729.0 L 11120.6 99363.8 L 11139.0 99985.9 L 11157.5 100591.2 L 11176.2 101175.4 L 11195.1 101733.4 L 11214.0 102260.3 L 11232.6 102750.7 L 11250.9 103201.0 L 11268.9 103611.6 L 11287.0 103984.6 L 11305.3 104321.8 L 11324.0 104621.6 L 11342.9 104868.4 L 11361.9 105043.0 L 11380.6 105126.2 L 11386.1 105131.0 L 11391.6 105128.2 L 11397.1 105120.5 L 11402.6 105110.2"/>
<path d="M 983104.3 29941.2 L 983104.3 10639.0"/>
<path d="M 62620.6 9651.1 L 62699.2 9651.1 L 62780.1 9651.1 L 62865.3 9651.1 L 62957.1 9651.1 L 63084.6 9651.1 L 63222.6 9651.1 L 63367.7 9651.1 L 63516.2 9651.1"/>
<path d="M 990348.9 99911.8 L 990348.6 99868.9 L 990348.1 99826.0 L 990347.5 99783.1 L 990346.5 99740.2 L 990300.0 99175.3 L 990201.5 98614.3 L 990068.3 98056.0 L 989917.9 97499.0"/>
<path d="M 965877.6 94555.6 L 965885.3 94557.9 L 965892.8 94562.6 L 965900.3 94572.3 L 965907.7 94589.4 L 965923.8 94662.3 L 965939.3 94777.3 L 965954.7 94925.7 L 965970.3 95099.0 L 965987.0 95296.4 L 966004.2 95510.9 L 966021.7 95742.5 L 966039.3 95991.0 L 966057.0 96255.8 L 966074.5 96534.1 L 966091.7 96822.3 L 966108.5 97117.1 L 966124.1 97405.9 L 966139.6 97695.2 L 966155.1 97982.8 L 966171.1 98266.3 L 966188.4 98554.4 L 966206.2 98832.0 L 966224.1 99095.6 L 966241.9 99341.9 L 966258.8 99562.4 L 966275.2 99763.7 L 966291.4 99946.4 L 966307.5 100110.9 L 966323.5 100256.1 L 966339.7 100374.0 L 966356.2 100454.5 L 966373.0 100488.0 L 966378.8 100487.2 L 966384.7 100481.4 L 966390.7 100472.3 L 966396.6 100461.5"/>
<circle cx="64131.6" cy="39592.3" r="3619.2"/>
<path d="M 24079.2 105319.0 L 24735.8 105625.2"/>
<path d="M 986859.1 97499.0 L 986428.1 99911.8"/>
<path d="M 10861.0 104190.9 L 10856.6 104200.5 L 10852.3 104208.7 L 10847.9 104214.1 L 10843.5 104215.1 L 10823.9 104153.0 L 10804.3 103995.8 L 10784.7 103764.5 L 10765.1 103480.3 L 10745.5 103160.6 L 10725.9 102807.0 L 10706.3 102417.6 L 10686.7 101990.0 L 10667.1 101523.8 L 10647.5 101022.9 L 10627.9 100492.6 L 10608.3 99938.5 L 10588.7 99365.7 L 10569.1 98779.0 L 10549.5 98182.8 L 10529.9 97581.7 L 10510.3 96980.5 L 10490.7 96383.4 L 10471.1 95794.8 L 10451.5 95219.4 L 10431.9 94661.7 L 10412.3 94127.0 L 10392.7 93620.5 L 10373.1 93147.6 L 10353.5 92712.6 L 10333.9 92315.5 L 10314.3 91955.4 L 10294.7 91631.4 L 10275.1 91345.5 L 10255.5 91110.7 L 10235.9 90943.0 L 10216.3 90858.1 L 10208.1 90850.1 L 10199.9 90855.1 L 10191.7 90868.7 L 10183.5 90886.6"/>
<path d="M 18454.7 105364.4 L 18439.4 105337.2 L 18424.0 105296.9 L 18408.8 105230.4 L 18393.6 105124.7 L 18375.3 104930.1 L 18357.1 104667.6 L 18338.8 104346.3 L 18320.3 103975.4 L 18301.5 103562.9 L 18282.6 103111.5 L 18263.7 102622.6 L 18245.1 102097.7 L 18226.8 101539.1 L 18208.7 100950.9 L 18190.6 100337.8 L 18172.3 99704.6 L 18153.7 99056.2 L 18134.8 98397.2 L 18115.8 97732.2 L 18097.0 97066.1 L 18078.5 96403.4 L 18060.2 95748.6 L 18042.0 95105.9 L 18023.7 94479.8 L 18005.3 93875.0 L 17986.7 93296.3 L 17968.1 92749.1 L 17949.4 92238.5 L 17930.7 91768.7 L 17912.0 91339.2 L 17893.4 90948.1 L 17874.9 90593.8 L 17856.7 90278.3 L 17838.6 90016.7 L 17820.3 89828.3 L 17801.8 89732.0 L 17795.7 89723.1 L 17789.6 89723.1 L 17783.5 89728.9 L 17777.3 89737.7"/>
<path d="M 980697.6 25323.4 A 3148.5 3148.5 0 0 0 980697.6 25199.1"/>
<path d="M 980697.6 169798.9 A 3148.8 3148.8 0 0 0 980697.6 169674.5"/>
<path d="M 10868.4 89843.1 L 10722.6 89847.7"/>
</g>
</svg>