<?xml version='1.0' encoding='utf-8'?>
<svg xmlns="http://www.w3.org/2000/svg" width="394.5mm" height="32.8mm" viewBox="0 0 1000000 83143"><defs><style>.C1 {stroke: #ffff00; stroke-width: 634; stroke-opacity: 1.000; fill: none; fill-opacity: 1.000;}</style><style>.C2 {stroke: #ff00ff; stroke-width: 634; stroke-opacity: 1.000; fill: none; fill-opacity: 1.000;}</style><style>.C3 {stroke: #ffffff; stroke-width: 634; stroke-opacity: 1.000; fill: none; fill-opacity: 1.000;}</style><style>.C4 {stroke: #ff0000; stroke-width: 634; stroke-opacity: 1.000; fill: none; fill-opacity: 1.000;}</style><style>.C5 {stroke: #bf7fff; stroke-width: 634; stroke-opacity: 1.000; fill: none; fill-opacity: 1.000;}</style><style>.C6 {stroke: #00ff00; stroke-width: 634; stroke-opacity: 1.000; fill: none; fill-opacity: 1.000;}</style></defs><g stroke-linecap="round" stroke-linejoin="round" fill-rule="evenodd"><path d="M 927247 66365 l 35258 -0" class="C1" /><path d="M 985931 69531 l -38622 0" class="C2" /><path d="M 979599 63199 l -32290 0" class="C2" /><path d="M 962504 61325 l -15195 0" class="C2" /><path d="M 947094 61540 l -9915 0" class="C2" /><path d="M 947094 71189 l -9915 0" class="C2" /><path d="M 962504 71405 l -15195 0" class="C2" /><path d="M 947309 71405 l 0 -10080" class="C2" /><path d="M 947094 71189 l 0 -9649" class="C2" /><path d="M 947094 71189 l 215 215" class="C2" /><path d="M 947094 61540 l 215 -215" class="C2" /><path d="M 937179 61540 l 0 9649" class="C2" /><path d="M 965987 49587 l -18678 0" class="C2" /><path d="M 999543 83143 l -52234 0" class="C2" /><path d="M 947309 49587 l 0 33557" class="C2" /><path d="M 942657 25844 l 19848 0" class="C1" /><path d="M 962504 66365 c 11190 0 20261 -9071 20261 -20261 c 0 -11190 -9071 -20261 -20261 -20261" class="C1" /><path d="M 962504 71405 c 13973 0 25300 -11327 25300 -25300 c 0 -13973 -11327 -25300 -25300 -25300" class="C2" /><path d="M 962504 61325 c 8406 0 15221 -6815 15221 -15221 c 0 -8406 -6815 -15221 -15221 -15221" class="C2" /><path d="M 962504 30884 l -15195 0" class="C2" /><path d="M 962504 20804 l -15195 0" class="C2" /><path d="M 947309 20804 l 0 10080" class="C2" /><path d="M 999543 9066 l 0 74078" class="C2" /><path d="M 965987 42622 l 0 6965" class="C2" /><path d="M 965987 42622 l -18678 0" class="C2" /><path d="M 947309 42622 l 0 -33557" class="C2" /><path d="M 999543 9066 l -52234 0" class="C2" /><path d="M 999543 9066 l -33557 33557" class="C2" /><path d="M 999543 83143 l -33557 -33557" class="C2" /><path d="M 979599 63199 l 0 -34190" class="C2" /><path d="M 985931 69531 l 0 -46853" class="C2" /><path d="M 985931 22678 l -38622 0" class="C2" /><path d="M 979599 29010 l -32290 0" class="C2" /><path d="M 359752 66365 l -307750 -0" class="C1" /><path d="M 359752 71405 l -293778 0" class="C3" /><path d="M 359752 83143 l -303909 -0" class="C3" /><path d="M 359752 69531 l -303909 -0" class="C3" /><path d="M 359752 49587 l -303909 0" class="C3" /><path d="M 55844 83143 l 0 -33557" class="C3" /><path d="M 359752 63199 l -303909 -0" class="C3" /><path d="M 65759 71189 l -9915 0" class="C3" /><path d="M 65759 61540 l -9915 0" class="C3" /><path d="M 359752 61325 l -293778 0" class="C3" /><path d="M 65974 61325 l 0 10080" class="C3" /><path d="M 65759 61540 l 215 -215" class="C3" /><path d="M 65759 61540 l 0 9649" class="C3" /><path d="M 65759 71189 l 215 215" class="C3" /><path d="M 55844 71189 l 0 -9649" class="C3" /><path d="M 653531 66365 l -307750 0" class="C1" /><path d="M 653531 63199 l -303909 0" class="C3" /><path d="M 653531 69531 l -303909 -0" class="C3" /><path d="M 653531 49587 l -303909 0" class="C3" /><path d="M 653531 83143 l -303909 -0" class="C3" /><path d="M 653531 71405 l -293778 0" class="C3" /><path d="M 653531 83143 l 0 -33557" class="C3" /><path d="M 359537 71189 l -9915 0" class="C3" /><path d="M 359537 61540 l -9915 0" class="C3" /><path d="M 653531 61325 l -293778 -0" class="C3" /><path d="M 359752 61325 l 0 10080" class="C3" /><path d="M 359537 61540 l 0 9649" class="C3" /><path d="M 359537 61540 l 215 -215" class="C3" /><path d="M 359537 71189 l 215 215" class="C3" /><path d="M 349622 71189 l 0 -9649" class="C3" /><path d="M 359752 61325 l 0 10080" class="C3" /><path d="M 653531 71405 l 0 -10080" class="C3" /><path d="M 349622 83143 l 0 -33557" class="C3" /><path d="M 359752 83143 l 0 -33557" class="C3" /><path d="M 947309 66365 l -307750 0" class="C1" /><path d="M 947309 63199 l -303909 0" class="C3" /><path d="M 947309 69531 l -303909 0" class="C3" /><path d="M 947309 49587 l -303909 0" class="C3" /><path d="M 947309 83143 l -303909 -0" class="C3" /><path d="M 947309 71405 l -293778 0" class="C3" /><path d="M 643400 83143 l 0 -33557" class="C3" /><path d="M 947309 83143 l 0 -33557" class="C3" /><path d="M 653315 71189 l -9915 0" class="C3" /><path d="M 653315 61540 l -9915 0" class="C3" /><path d="M 947309 61325 l -293778 -0" class="C3" /><path d="M 653531 61325 l 0 10080" class="C3" /><path d="M 653315 61540 l 0 9649" class="C3" /><path d="M 653315 61540 l 215 -215" class="C3" /><path d="M 653315 71189 l 215 215" class="C3" /><path d="M 643400 71189 l 0 -9649" class="C3" /><path d="M 947309 71405 l 0 -10080" class="C3" /><path d="M 65974 25844 l 307750 -0" class="C1" /><path d="M 65974 30884 l 293778 0" class="C4" /><path d="M 65974 42622 l 303909 -0" class="C4" /><path d="M 65974 29010 l 303909 -0" class="C4" /><path d="M 65974 9066 l 303909 0" class="C4" /><path d="M 369883 42622 l 0 -33557" class="C4" /><path d="M 65974 22678 l 303909 -0" class="C4" /><path d="M 359968 30668 l 9915 0" class="C4" /><path d="M 359968 21019 l 9915 0" class="C4" /><path d="M 65974 20804 l 293778 0" class="C4" /><path d="M 359752 20804 l 0 10080" class="C4" /><path d="M 359968 21019 l -215 -215" class="C4" /><path d="M 359968 21019 l 0 9649" class="C4" /><path d="M 359968 30668 l -215 215" class="C4" /><path d="M 369883 30668 l 0 -9649" class="C4" /><path d="M 65974 42622 l 0 -33557" class="C4" /><path d="M 65974 30884 l 0 -10080" class="C4" /><path d="M 653531 25844 l 307750 -0" class="C1" /><path d="M 653531 30884 l 293778 0" class="C3" /><path d="M 653531 42622 l 303909 -0" class="C3" /><path d="M 653531 29010 l 303909 -0" class="C3" /><path d="M 653531 9066 l 303909 0" class="C3" /><path d="M 957439 42622 l 0 -33557" class="C3" /><path d="M 653531 22678 l 303909 -0" class="C3" /><path d="M 947524 30668 l 9915 0" class="C3" /><path d="M 947524 21019 l 9915 0" class="C3" /><path d="M 653531 20804 l 293778 0" class="C3" /><path d="M 947309 20804 l 0 10080" class="C3" /><path d="M 947524 21019 l -215 -215" class="C3" /><path d="M 947524 21019 l -0 9649" class="C3" /><path d="M 947524 30668 l -215 215" class="C3" /><path d="M 957439 30668 l 0 -9649" class="C3" /><path d="M 359752 25844 l 307750 0" class="C1" /><path d="M 359752 22678 l 303909 0" class="C3" /><path d="M 359752 29010 l 303909 -0" class="C3" /><path d="M 359752 9066 l 303909 0" class="C3" /><path d="M 359752 42622 l 303909 -0" class="C3" /><path d="M 359752 30884 l 293778 0" class="C3" /><path d="M 359752 42622 l 0 -33557" class="C3" /><path d="M 653746 30668 l 9915 0" class="C3" /><path d="M 653746 21019 l 9915 0" class="C3" /><path d="M 359752 20804 l 293778 -0" class="C3" /><path d="M 653531 20804 l 0 10080" class="C3" /><path d="M 653746 21019 l 0 9649" class="C3" /><path d="M 653746 21019 l -215 -215" class="C3" /><path d="M 653746 30668 l -215 215" class="C3" /><path d="M 663661 30668 l 0 -9649" class="C3" /><path d="M 653531 20804 l 0 10080" class="C3" /><path d="M 359752 30884 l 0 -10080" class="C3" /><path d="M 663661 42622 l 0 -33557" class="C3" /><path d="M 653531 42622 l 0 -33557" class="C3" /><path d="M 3831 25844 l 73440 0" class="C1" /><path d="M 35526 17282 c 101 -29 170 -122 170 -227" class="C5" /><path d="M 35696 14138 c 0 -105 -69 -198 -170 -227" class="C5" /><path d="M 46449 17055 c 0 89 50 171 130 211 c 80 40 176 32 247 -22" class="C5" /><path d="M 46827 13948 c -72 -53 -167 -62 -247 -22 c -80 40 -130 122 -130 211" class="C5" /><path d="M 35775 16936 c -44 0 -79 35 -79 79" class="C5" /><path d="M 35696 14177 c 0 44 35 79 79 79" class="C5" /><path d="M 46449 17015 c 0 -44 -35 -79 -79 -79" class="C5" /><path d="M 46370 14256 c 44 0 79 -35 79 -79" class="C5" /><path d="M 44242 16936 l 2128 0" class="C5" /><path d="M 46370 14256 l -2128 0" class="C5" /><path d="M 35775 16936 l 2128 0" class="C5" /><path d="M 37903 14256 l -2128 0" class="C5" /><path d="M 37903 16779 l 6338 0" class="C5" /><path d="M 44242 14414 l -6338 0" class="C5" /><path d="M 8182 27973 l 91 0" class="C5" /><path d="M 8274 23716 l -91 0" class="C5" /><path d="M 7788 27812 l 236 0" class="C5" /><path d="M 8025 23877 l -236 0" class="C5" /><path d="M 8025 27579 l 158 0" class="C5" /><path d="M 8182 24110 l -158 0" class="C5" /><path d="M 7788 27394 c 0 -33 -21 -63 -52 -74" class="C5" /><path d="M 7736 24369 c 31 -11 52 -41 52 -74" class="C5" /><path d="M 7736 24369 l -881 323" class="C5" /><path d="M 6855 26997 l 881 323" class="C5" /><path d="M 6855 26997 c -9 -3 -18 -5 -27 -5" class="C5" /><path d="M 6828 24697 c 9 0 18 -2 27 -5" class="C5" /><path d="M 5896 26992 l 932 0" class="C5" /><path d="M 6828 24697 l -932 0" class="C5" /><path d="M 5896 24772 l -1261 0" class="C5" /><path d="M 4635 26917 l 1261 0" class="C5" /><path d="M 2664 24780 l -1892 0" class="C5" /><path d="M 772 26909 l 1892 0" class="C5" /><path d="M 772 24780 l -315 315" class="C5" /><path d="M 457 26593 l 315 315" class="C5" /><path d="M 6212 9842 l 315 0" class="C5" /><path d="M 6527 7792 l -315 0" class="C5" /><path d="M 5896 9526 c 0 174 141 315 315 315" class="C5" /><path d="M 6212 7792 c -174 0 -315 141 -315 315" class="C5" /><path d="M 7630 9684 l 473 0" class="C5" /><path d="M 8103 7950 l -473 0" class="C5" /><path d="M 8274 7634 l -13 0" class="C5" /><path d="M 8261 9999 l 13 0" class="C5" /><path d="M 3657 33598 c -70 0 -126 56 -126 126" class="C5" /><path d="M 3531 43405 c 0 70 56 126 126 126" class="C5" /><path d="M 3657 43531 l 3658 0" class="C5" /><path d="M 7315 33598 l -3658 0" class="C5" /><path d="M 7593 33280 l -278 0" class="C5" /><path d="M 7315 43850 l 274 0" class="C5" /><path d="M 35526 20588 c 120 149 301 236 492 236" class="C5" /><path d="M 36018 30864 c -171 0 -335 70 -454 193" class="C5" /><path d="M 46922 20824 l -10904 0" class="C6" /><path d="M 65974 20824 l -7700 0" class="C6" /><path d="M 36018 30864 l 29956 0" class="C6" /><path d="M 65974 30864 l 214 -214" class="C6" /><path d="M 66189 21038 l -214 -214" class="C6" /><path d="M 76065 21038 l -9876 0" class="C6" /><path d="M 66189 30649 l 9876 0" class="C6" /><path d="M 35526 46409 l 0 -6041" class="C5" /><path d="M 8274 40368 l 0 6041" class="C5" /><path d="M 8274 500 l 0 6041" class="C5" /><path d="M 35526 6541 l 0 -6041" class="C5" /><path d="M 8274 33093 l -9 0" class="C5" /><path d="M 35860 20196 l -164 0" class="C5" /><path d="M 35860 20196 l 0 401" class="C5" /><path d="M 35860 20596 l -327 0" class="C5" /><path d="M 35860 19719 l -164 0" class="C5" /><path d="M 35860 19719 l 0 477" class="C5" /><path d="M 35860 19642 l -164 0" class="C5" /><path d="M 35860 19642 l 0 76" class="C5" /><path d="M 35860 32090 l -334 0" class="C5" /><path d="M 35860 32080 l 0 11" class="C5" /><path d="M 35696 19714 l -170 0" class="C5" /><path d="M 35696 19714 l 0 480" class="C5" /><path d="M 35696 20193 l -170 0" class="C5" /><path d="M 35696 20589 l -170 0" class="C5" /><path d="M 35696 20193 l 0 396" class="C5" /><path d="M 35696 19630 l -170 0" class="C5" /><path d="M 35696 19630 l 0 84" class="C5" /><path d="M 35860 31342 l -334 0" class="C5" /><path d="M 35860 31342 l 0 511" class="C5" /><path d="M 35860 31854 l -334 0" class="C5" /><path d="M 35860 31057 l -334 0" class="C5" /><path d="M 35860 31057 l 0 285" class="C5" /><path d="M 35860 32080 l -334 0" class="C5" /><path d="M 35860 31854 l 0 226" class="C5" /><path d="M 35860 25608 l -334 0" class="C5" /><path d="M 35860 25608 l 0 511" class="C5" /><path d="M 35860 26119 l -334 0" class="C5" /><path d="M 35860 25323 l -334 0" class="C5" /><path d="M 35860 25323 l 0 285" class="C5" /><path d="M 35860 26345 l -334 0" class="C5" /><path d="M 35860 26119 l 0 226" class="C5" /><path d="M 46827 16279 l 11588 0" class="C5" /><path d="M 46827 16279 l 0 -3784" class="C5" /><path d="M 46827 12495 l 11588 0" class="C5" /><path d="M 58415 16279 l 0 -3784" class="C5" /><path d="M 46827 17540 l 0 -1261" class="C5" /><path d="M 58415 17540 l 0 -1261" class="C5" /><path d="M 46827 17540 l 11588 0" class="C5" /><path d="M 58309 20824 l 0 -3284" class="C5" /><path d="M 58415 20824 l 0 -3284" class="C5" /><path d="M 46827 20824 l 0 -3284" class="C5" /><path d="M 46922 25844 l 11352 0" class="C5" /><path d="M 46922 25844 l 0 -8199" class="C5" /><path d="M 46922 17646 l 11352 0" class="C5" /><path d="M 58274 25844 l 0 -8199" class="C5" /><path d="M 58168 17646 l 0 -106" class="C5" /><path d="M 47028 17540 l 0 106" class="C5" /><path d="M 58274 17646 l 0 -106" class="C5" /><path d="M 46922 17646 l 0 -106" class="C5" /><path d="M 35696 15596 l 0 -1458" class="C5" /><path d="M 35696 17055 l 0 -1458" class="C5" /><path d="M 46449 15596 l 0 -1458" class="C5" /><path d="M 46449 17055 l 0 -1458" class="C5" /><path d="M 44242 15596 l 0 -1340" class="C5" /><path d="M 44242 16936 l 0 -1340" class="C5" /><path d="M 37903 15596 l 0 -1340" class="C5" /><path d="M 37903 16936 l 0 -1340" class="C5" /><path d="M 8182 27973 l 0 -4257" class="C5" /><path d="M 7788 27812 l 0 -3935" class="C5" /><path d="M 8025 27812 l 0 -3935" class="C5" /><path d="M 2664 25884 l 1971 0" class="C5" /><path d="M 2664 25884 l 0 -79" class="C5" /><path d="M 2664 25805 l 1971 0" class="C5" /><path d="M 4635 25884 l 0 -79" class="C5" /><path d="M 2664 24723 l 1971 0" class="C5" /><path d="M 2664 25805 l 0 -1082" class="C5" /><path d="M 4635 25805 l 0 -1082" class="C5" /><path d="M 2664 26966 l 1971 0" class="C5" /><path d="M 2664 26966 l 0 -1082" class="C5" /><path d="M 4635 26966 l 0 -1082" class="C5" /><path d="M 5896 26992 l 0 -2296" class="C5" /><path d="M 772 24780 l 0 2128" class="C5" /><path d="M 457 26593 l 0 -1498" class="C5" /><path d="M 2664 27005 l 1971 0" class="C5" /><path d="M 2664 27005 l 0 -39" class="C5" /><path d="M 4635 27005 l 0 -39" class="C5" /><path d="M 2664 24684 l 1971 0" class="C5" /><path d="M 2664 24723 l 0 -39" class="C5" /><path d="M 4635 24723 l 0 -39" class="C5" /><path d="M 8249 8885 l -145 0" class="C5" /><path d="M 8274 9790 l -170 0" class="C5" /><path d="M 8103 8885 l 0 905" class="C5" /><path d="M 7630 8885 l -1104 0" class="C5" /><path d="M 7630 8885 l 0 905" class="C5" /><path d="M 7630 9790 l -1104 0" class="C5" /><path d="M 6527 8885 l 0 905" class="C5" /><path d="M 7630 8748 l -1104 0" class="C5" /><path d="M 6527 8748 l 0 137" class="C5" /><path d="M 7630 8748 l 0 137" class="C5" /><path d="M 8249 8748 l -145 0" class="C5" /><path d="M 8103 8748 l 0 137" class="C5" /><path d="M 7630 7844 l -1104 0" class="C5" /><path d="M 6527 7844 l 0 905" class="C5" /><path d="M 7630 7844 l 0 905" class="C5" /><path d="M 8274 7844 l -170 0" class="C5" /><path d="M 8103 7844 l 0 905" class="C5" /><path d="M 5896 8817 l 0 -709" class="C5" /><path d="M 5896 9526 l 0 -709" class="C5" /><path d="M 8274 9858 l -170 0" class="C5" /><path d="M 8103 9790 l 0 68" class="C5" /><path d="M 7630 9858 l -1104 0" class="C5" /><path d="M 6527 9790 l 0 68" class="C5" /><path d="M 7630 9790 l 0 68" class="C5" /><path d="M 8274 7776 l -170 0" class="C5" /><path d="M 8103 7776 l 0 68" class="C5" /><path d="M 7630 7776 l -1104 0" class="C5" /><path d="M 6527 7776 l 0 68" class="C5" /><path d="M 7630 7776 l 0 68" class="C5" /><path d="M 8274 34488 l -959 0" class="C5" /><path d="M 8274 42650 l -959 0" class="C5" /><path d="M 7315 42650 l 0 -8163" class="C5" /><path d="M 3531 43405 l 0 -9681" class="C5" /><path d="M 7315 34488 l 946 -1153" class="C5" /><path d="M 8274 33334 l -13 0" class="C5" /><path d="M 7315 33619 l 946 -1153" class="C5" /><path d="M 8261 32465 l 0 119" class="C5" /><path d="M 8261 32584 l -886 1079" class="C5" /><path d="M 7375 34296 c 36 -210 36 -424 -0 -633" class="C5" /><path d="M 7375 34296 l 886 -1080" class="C5" /><path d="M 8261 33216 l 0 119" class="C5" /><path d="M 7315 33619 l 0 869" class="C5" /><path d="M 8274 32584 l -13 0" class="C5" /><path d="M 8274 32465 l -13 0" class="C5" /><path d="M 8274 33216 l -13 0" class="C5" /><path d="M 8261 44553 l 0 118" class="C5" /><path d="M 8261 43924 l -886 -1084" class="C5" /><path d="M 7375 43471 c 36 -209 36 -422 -0 -631" class="C5" /><path d="M 7375 43471 l 886 1082" class="C5" /><path d="M 7315 43516 l 946 1155" class="C5" /><path d="M 7891 43471 l -516 0" class="C5" /><path d="M 7895 33663 l -520 0" class="C5" /><path d="M 7315 33619 l 0 -339" class="C5" /><path d="M 7315 43850 l 0 -334" class="C5" /><path d="M 65974 20824 l 0 10040" class="C6" /><path d="M 66189 21038 l 0 9611" class="C6" /><path d="M 76065 21038 l 0 9611" class="C6" /><path d="M 8274 40111 l 0 -11208" class="C5" /><path d="M 8667 40646 l 0 -535" class="C5" /><path d="M 8274 40368 c 37 182 209 304 394 278" class="C5" /><path d="M 8274 40368 c 0 -4 0 -9 0 -13 c 0 -4 0 -9 0 -14 c 0 -5 0 -9 0 -14 c 0 -5 0 -10 0 -14 c 0 -5 0 -10 0 -15 c 0 -5 0 -10 0 -15 c 0 -5 0 -11 0 -16 c 0 -5 0 -11 0 -16 c -0 -11 0 -22 0 -34 c 0 -11 0 -23 0 -34 c 0 -12 0 -23 0 -35 c 0 -12 0 -24 0 -36" class="C5" /><path d="M 35132 40646 l 0 -535" class="C5" /><path d="M 8667 40646 l 26465 0" class="C5" /><path d="M 35526 40111 c 0 -3559 0 -7119 0 -11208" class="C5" /><path d="M 35526 40368 c -0 -4 -0 -8 -0 -12 c 0 -4 0 -8 -0 -12 c -0 -4 -0 -8 -0 -13 c -0 -4 -0 -9 -0 -13 c -0 -4 -0 -9 -0 -14 c -0 -3 0 -6 0 -9 c 0 -9 0 -17 0 -26 c 0 -6 0 -12 0 -18 c -0 -6 -0 -13 -0 -19 c -0 -10 -0 -19 -0 -29 c -0 -10 -0 -20 -0 -30 c 0 -10 0 -20 0 -30 c 0 -10 0 -20 0 -30" class="C5" /><path d="M 35132 40646 c 184 26 357 -96 394 -278" class="C5" /><path d="M 35526 46409 l 0 -6041" class="C5" /><path d="M 8274 46409 l 0 -6041" class="C5" /><path d="M 35526 46515 c -0 -0 -0 -0 -0 -0 c 0 -0 0 -1 -0 -1 c -0 -0 -0 -1 -0 -2 c -0 -1 -0 -2 -0 -3 c -0 -1 -0 -2 -0 -3 c -0 -1 0 -2 0 -3 c 0 -3 0 -5 0 -9 c 0 -2 0 -5 0 -7 c -0 -3 -0 -5 -0 -8 c -0 -4 -0 -9 -0 -14 c -0 -5 -0 -11 -0 -17 c 0 -6 0 -12 0 -19 c 0 -7 0 -14 0 -21" class="C5" /><path d="M 8274 46515 c 0 -0 0 -0 0 -0 c 0 -0 0 -1 0 -1 c 0 -1 0 -1 0 -2 c 0 -1 0 -2 0 -3 c 0 -1 0 -2 0 -4 c 0 -1 0 -3 0 -5 c 0 -2 0 -4 0 -6 c 0 -2 0 -4 0 -6 c 0 -5 0 -10 0 -15 c 0 -6 0 -12 0 -18 c 0 -7 0 -14 0 -21 c 0 -8 0 -16 0 -24" class="C5" /><path d="M 8274 46515 c -0 104 41 204 115 278 c 74 74 174 115 278 115" class="C5" /><path d="M 35132 46908 l -26465 0" class="C5" /><path d="M 35132 46908 c 217 0 394 -176 394 -394" class="C5" /><path d="M 35526 6797 l 0 10678" class="C5" /><path d="M 35132 6262 l 0 535" class="C5" /><path d="M 35526 6541 c -37 -182 -209 -304 -394 -278" class="C5" /><path d="M 35526 6541 c 0 38 0 75 0 118 c 0 43 0 91 0 139" class="C5" /><path d="M 8667 6262 l 0 535" class="C5" /><path d="M 35132 6262 l -26465 0" class="C5" /><path d="M 8274 6797 c 0 445 0 890 0 1335 c 0 445 0 890 0 1335 c 0 445 0 890 0 1335 c 0 445 0 890 0 1335 c 0 445 0 890 0 1335 c 0 445 0 890 0 1335 c 0 445 0 890 0 1335 c 0 445 0 890 0 1335" class="C5" /><path d="M 8274 6541 c 0 37 0 75 0 118 c 0 43 0 91 0 139" class="C5" /><path d="M 8667 6262 c -184 -26 -357 96 -394 278" class="C5" /><path d="M 8274 500 l 0 6041" class="C5" /><path d="M 35526 500 l 0 6041" class="C5" /><path d="M 8274 394 c 0 5 0 10 0 28 c 0 18 0 48 0 79" class="C5" /><path d="M 35526 394 c 0 5 0 10 0 28 c 0 18 0 48 0 79" class="C5" /><path d="M 8667 0 l 26465 0" class="C5" /><path d="M 35526 394 c 0 -104 -41 -204 -115 -278 c -74 -74 -174 -115 -278 -115" class="C5" /><path d="M 8667 0 c -217 0 -394 176 -394 394" class="C5" /><path d="M 10043 30412 l 0 -1509" class="C5" /><path d="M 10043 17476 l 0 -979" class="C5" /><path d="M 10081 23578 l 0 -175" class="C5" /><path d="M 10081 23404 l 0 -74" class="C5" /><path d="M 10081 23330 c -7 -60 -20 -120 -38 -180" class="C5" /><path d="M 10043 23150 l 0 -5674" class="C5" /><path d="M 10043 28903 l 0 -5145" class="C5" /><path d="M 10043 23758 c 18 -60 31 -120 38 -180" class="C5" /><path d="M 33718 23330 l 0 74" class="C5" /><path d="M 33718 23404 l 0 175" class="C5" /><path d="M 33718 23578 c 7 60 20 120 38 180" class="C5" /><path d="M 33756 23758 l 0 5145" class="C5" /><path d="M 33756 17476 l 0 5674" class="C5" /><path d="M 33756 23150 c -18 60 -31 120 -38 180" class="C5" /><path d="M 33756 16497 l 0 979" class="C5" /><path d="M 33756 28903 l 0 1509" class="C5" /><path d="M 10551 16115 l 22699 0" class="C5" /><path d="M 10551 30794 l 22699 0" class="C5" /><path d="M 33249 30794 c 298 -0 507 -157 507 -382" class="C5" /><path d="M 33756 16497 c -0 -224 -209 -382 -507 -382" class="C5" /><path d="M 10043 30412 c 0 224 209 382 507 382" class="C5" /><path d="M 10551 16115 c -298 0 -507 157 -507 382" class="C5" /><path d="M 35132 17476 l 0 11428" class="C5" /><path d="M 8667 28903 l 0 -11428" class="C5" /><path d="M 35526 28903 l 0 -11428" class="C5" /><path d="M 8274 17476 l 0 11428" class="C5" /><path d="M 35526 33827 l 25 0" class="C5" /><path d="M 35551 33620 l -25 0" class="C5" /><path d="M 35551 33620 l 0 206" class="C5" /><path d="M 35551 33953 l -25 0" class="C5" /><path d="M 35551 33953 l 0 206" class="C5" /><path d="M 35526 34159 l 25 0" class="C5" /><path d="M 35526 33952 l 25 0" class="C5" /><path d="M 35551 33953 l 0 -1" class="C5" /><path d="M 35526 33619 l 25 0" class="C5" /><path d="M 35551 33619 l 0 1" class="C5" /><path d="M 8264 43924 l 0 121" class="C5" /><path d="M 8012 43702 l 68 0" class="C5" /><path d="M 8012 43702 l 0 -83" class="C5" /><path d="M 8264 43976 l -252 0" class="C5" /><path d="M 8012 43976 l 0 -275" class="C5" /><path d="M 8264 33093 l 0 122" class="C5" /><path d="M 8062 33247 l -50 0" class="C5" /><path d="M 8062 33247 l 0 -64" class="C5" /><path d="M 8264 33183 l -202 0" class="C5" /><path d="M 8012 33457 l 52 0" class="C5" /><path d="M 8012 33457 l 0 -210" class="C5" /><path d="M 8012 33519 l 0 -63" class="C5" /><path d="M 8012 33178 l 50 0" class="C5" /><path d="M 8012 33178 l 0 -16" class="C5" /><path d="M 8264 33162 l -252 0" class="C5" /><path d="M 8062 33183 l 0 -5" class="C5" /><path d="M 8012 33178 l 0 69" class="C5" /><path d="M 8274 8617 l -25 0" class="C5" /><path d="M 8274 8827 l -25 0" class="C5" /><path d="M 8249 8827 l 0 -210" class="C5" /><path d="M 8274 9101 l -25 0" class="C5" /><path d="M 8249 9101 l 0 -275" class="C5" /><path d="M 8249 8548 l 25 0" class="C5" /><path d="M 8249 8548 l 0 -16" class="C5" /><path d="M 8274 8532 l -25 0" class="C5" /><path d="M 8249 8548 l 0 69" class="C5" /><path d="M 8274 13032 l -25 0" class="C5" /><path d="M 8274 13241 l -25 0" class="C5" /><path d="M 8249 13241 l 0 -210" class="C5" /><path d="M 8274 13516 l -25 0" class="C5" /><path d="M 8249 13516 l 0 -275" class="C5" /><path d="M 8249 12963 l 25 0" class="C5" /><path d="M 8249 12963 l 0 -16" class="C5" /><path d="M 8274 12947 l -25 0" class="C5" /><path d="M 8249 12963 l 0 69" class="C5" /><path d="M 12755 29118 c 0 181 147 328 328 328" class="C5" /><path d="M 12755 17791 l 0 11327" class="C5" /><path d="M 13083 17463 c -181 0 -328 147 -328 328" class="C5" /><path d="M 30716 17463 l -17633 0" class="C5" /><path d="M 31044 17791 c 0 -181 -147 -328 -328 -328" class="C5" /><path d="M 31044 29130 l 0 -11339" class="C5" /><path d="M 30729 29446 c 174 0 315 -141 315 -315" class="C5" /><path d="M 13083 29446 l 17646 0" class="C5" /><path d="M 35775 15596 l 0 -1340" class="C5" /><path d="M 35775 16936 l 0 -1340" class="C5" /><path d="M 46370 15596 l 0 -1340" class="C5" /><path d="M 46370 16936 l 0 -1340" class="C5" /><path d="M 7736 27320 l 0 -2951" class="C5" /><path d="M 6855 26997 l 0 -2305" class="C5" /><path d="M 6828 26992 l 0 -2296" class="C5" /><path d="M 6212 8817 l 0 -1025" class="C5" /><path d="M 6212 9842 l 0 -1025" class="C5" /><path d="M 36018 20824 l 0 10040" class="C5" /><path d="M 8667 28903 l 0 11208" class="C5" /><path d="M 35132 40111 l 0 -11208" class="C5" /><path d="M 35132 17476 l 0 -10678" class="C5" /><path d="M 8667 6797 l 0 10678" class="C5" /></g></svg>