<?xml version='1.0' encoding='utf-8'?>
<svg xmlns="http://www.w3.org/2000/svg" width="278.5mm" height="32.8mm" viewBox="0 0 1000000 117774"><defs><style>.C1 {stroke: #ffff00; stroke-width: 898; stroke-opacity: 1.000; fill: none; fill-opacity: 1.000;}</style><style>.C2 {stroke: #ff00ff; stroke-width: 898; stroke-opacity: 1.000; fill: none; fill-opacity: 1.000;}</style><style>.C3 {stroke: #ffffff; stroke-width: 898; stroke-opacity: 1.000; fill: none; fill-opacity: 1.000;}</style><style>.C4 {stroke: #ff0000; stroke-width: 898; stroke-opacity: 1.000; fill: none; fill-opacity: 1.000;}</style><style>.C5 {stroke: #bf7fff; stroke-width: 898; stroke-opacity: 1.000; fill: none; fill-opacity: 1.000;}</style><style>.C6 {stroke: #00ff00; stroke-width: 898; stroke-opacity: 1.000; fill: none; fill-opacity: 1.000;}</style></defs><g stroke-linecap="round" stroke-linejoin="round" fill-rule="evenodd"><path d="M 897131 94007 l 49943 -0" class="C1" /><path d="M 980258 98491 l -54708 0" class="C2" /><path d="M 971290 89523 l -45740 0" class="C2" /><path d="M 947074 86868 l -21525 0" class="C2" /><path d="M 925245 87173 l -14045 0" class="C2" /><path d="M 925245 100841 l -14045 0" class="C2" /><path d="M 947074 101146 l -21525 0" class="C2" /><path d="M 925550 101146 l 0 -14278" class="C2" /><path d="M 925245 100841 l 0 -13668" class="C2" /><path d="M 925245 100841 l 305 305" class="C2" /><path d="M 925245 87173 l 305 -305" class="C2" /><path d="M 911200 87173 l 0 13668" class="C2" /><path d="M 952007 70240 l -26457 0" class="C2" /><path d="M 999541 117774 l -73991 0" class="C2" /><path d="M 925550 70240 l 0 47533" class="C2" /><path d="M 918960 36608 l 28115 0" class="C1" /><path d="M 947074 94007 c 15850 0 28699 -12849 28699 -28699 c 0 -15850 -12849 -28699 -28699 -28699" class="C1" /><path d="M 947074 101146 c 19793 0 35838 -16045 35838 -35838 c 0 -19793 -16045 -35838 -35838 -35838" class="C2" /><path d="M 947074 86868 c 11908 0 21560 -9653 21560 -21560 c 0 -11908 -9653 -21560 -21560 -21560" class="C2" /><path d="M 947074 43747 l -21525 0" class="C2" /><path d="M 947074 29469 l -21525 0" class="C2" /><path d="M 925550 29469 l 0 14278" class="C2" /><path d="M 999541 12841 l 0 104932" class="C2" /><path d="M 952007 60375 l 0 9865" class="C2" /><path d="M 952007 60375 l -26457 0" class="C2" /><path d="M 925550 60375 l 0 -47533" class="C2" /><path d="M 999541 12841 l -73991 0" class="C2" /><path d="M 999541 12841 l -47533 47533" class="C2" /><path d="M 999541 117774 l -47533 -47533" class="C2" /><path d="M 971290 89523 l 0 -48430" class="C2" /><path d="M 980258 98491 l 0 -66367" class="C2" /><path d="M 980258 32124 l -54708 0" class="C2" /><path d="M 971290 41092 l -45740 0" class="C2" /><path d="M 509408 94007 l -435933 -0" class="C1" /><path d="M 509408 101146 l -416142 0" class="C3" /><path d="M 509408 117774 l -430492 -0" class="C3" /><path d="M 509408 98491 l -430492 -0" class="C3" /><path d="M 509408 70240 l -430492 0" class="C3" /><path d="M 78916 117774 l 0 -47533" class="C3" /><path d="M 509408 89523 l -430492 -0" class="C3" /><path d="M 92961 100841 l -14045 0" class="C3" /><path d="M 92961 87173 l -14045 0" class="C3" /><path d="M 509408 86868 l -416142 0" class="C3" /><path d="M 93266 86868 l 0 14278" class="C3" /><path d="M 92961 87173 l 305 -305" class="C3" /><path d="M 92961 87173 l 0 13668" class="C3" /><path d="M 92961 100841 l 305 305" class="C3" /><path d="M 78916 100841 l 0 -13668" class="C3" /><path d="M 925550 94007 l -435933 0" class="C1" /><path d="M 925550 89523 l -430492 0" class="C3" /><path d="M 925550 98491 l -430492 -0" class="C3" /><path d="M 925550 70240 l -430492 0" class="C3" /><path d="M 925550 117774 l -430492 -0" class="C3" /><path d="M 925550 101146 l -416142 0" class="C3" /><path d="M 925550 117774 l 0 -47533" class="C3" /><path d="M 509103 100841 l -14045 0" class="C3" /><path d="M 509103 87173 l -14045 0" class="C3" /><path d="M 925550 86868 l -416142 -0" class="C3" /><path d="M 509408 86868 l 0 14278" class="C3" /><path d="M 509103 87173 l 0 13668" class="C3" /><path d="M 509103 87173 l 305 -305" class="C3" /><path d="M 509103 100841 l 305 305" class="C3" /><path d="M 495058 100841 l 0 -13668" class="C3" /><path d="M 509408 86868 l 0 14278" class="C3" /><path d="M 925550 101146 l 0 -14278" class="C3" /><path d="M 495058 117774 l 0 -47533" class="C3" /><path d="M 509408 117774 l 0 -47533" class="C3" /><path d="M 93266 36608 l 435933 -0" class="C1" /><path d="M 93266 43747 l 416142 0" class="C4" /><path d="M 93266 60375 l 430492 -0" class="C4" /><path d="M 93266 41092 l 430492 -0" class="C4" /><path d="M 93266 12841 l 430492 0" class="C4" /><path d="M 523758 60375 l 0 -47533" class="C4" /><path d="M 93266 32124 l 430492 -0" class="C4" /><path d="M 509713 43442 l 14045 0" class="C4" /><path d="M 509713 29774 l 14045 0" class="C4" /><path d="M 93266 29469 l 416142 -0" class="C4" /><path d="M 509408 29469 l 0 14278" class="C4" /><path d="M 509713 29774 l -305 -305" class="C4" /><path d="M 509713 29774 l 0 13668" class="C4" /><path d="M 509713 43442 l -305 305" class="C4" /><path d="M 523758 43442 l 0 -13668" class="C4" /><path d="M 93266 60375 l 0 -47533" class="C4" /><path d="M 93266 43747 l 0 -14278" class="C4" /><path d="M 509408 36608 l 435933 -0" class="C1" /><path d="M 509408 43747 l 416142 0" class="C3" /><path d="M 509408 60375 l 430492 -0" class="C3" /><path d="M 509408 41092 l 430492 -0" class="C3" /><path d="M 509408 12841 l 430492 0" class="C3" /><path d="M 939900 60375 l 0 -47533" class="C3" /><path d="M 509408 32124 l 430492 -0" class="C3" /><path d="M 925855 43442 l 14045 0" class="C3" /><path d="M 925855 29774 l 14045 0" class="C3" /><path d="M 509408 29469 l 416142 0" class="C3" /><path d="M 925550 29469 l 0 14278" class="C3" /><path d="M 925855 29774 l -305 -305" class="C3" /><path d="M 925855 29774 l 0 13668" class="C3" /><path d="M 925855 43442 l -305 305" class="C3" /><path d="M 939900 43442 l 0 -13668" class="C3" /><path d="M 509408 60375 l 0 -47533" class="C3" /><path d="M 509408 43747 l 0 -14278" class="C3" /><path d="M 5239 36608 l 104029 0" class="C1" /><path d="M 50135 24480 c 143 -42 241 -173 241 -322" class="C5" /><path d="M 50377 20026 c 0 -149 -98 -280 -241 -322" class="C5" /><path d="M 65608 24158 c 0 127 71 243 185 299 c 113 57 249 45 350 -31" class="C5" /><path d="M 66143 19758 c -102 -76 -237 -88 -350 -31 c -113 57 -185 173 -185 299" class="C5" /><path d="M 50488 23991 c -62 0 -112 50 -112 112" class="C5" /><path d="M 50377 20082 c 0 62 50 112 112 112" class="C5" /><path d="M 65608 24102 c 0 -62 -50 -112 -112 -112" class="C5" /><path d="M 65496 20194 c 62 0 112 -50 112 -112" class="C5" /><path d="M 62481 23991 l 3015 0" class="C5" /><path d="M 65496 20194 l -3015 0" class="C5" /><path d="M 50488 23991 l 3015 0" class="C5" /><path d="M 53503 20194 l -3015 0" class="C5" /><path d="M 53503 23767 l 8978 0" class="C5" /><path d="M 62481 20417 l -8978 0" class="C5" /><path d="M 11403 39624 l 130 0" class="C5" /><path d="M 11532 33594 l -130 0" class="C5" /><path d="M 10845 39396 l 335 0" class="C5" /><path d="M 11180 33822 l -335 0" class="C5" /><path d="M 11180 39066 l 223 0" class="C5" /><path d="M 11403 34152 l -223 0" class="C5" /><path d="M 10845 38804 c 0 -47 -29 -89 -73 -105" class="C5" /><path d="M 10771 34519 c 44 -16 73 -58 73 -105" class="C5" /><path d="M 10771 34519 l -1248 458" class="C5" /><path d="M 9523 38242 l 1248 458" class="C5" /><path d="M 9523 38242 c -12 -5 -25 -7 -38 -7" class="C5" /><path d="M 9485 34983 c 13 0 26 -2 38 -7" class="C5" /><path d="M 8164 38235 l 1320 0" class="C5" /><path d="M 9485 34983 l -1320 0" class="C5" /><path d="M 8164 35090 l -1787 0" class="C5" /><path d="M 6378 38128 l 1787 0" class="C5" /><path d="M 3586 35102 l -2680 0" class="C5" /><path d="M 906 38117 l 2680 0" class="C5" /><path d="M 906 35102 l -447 447" class="C5" /><path d="M 459 37670 l 447 447" class="C5" /><path d="M 8611 13941 l 447 0" class="C5" /><path d="M 9058 11037 l -447 0" class="C5" /><path d="M 8164 13494 c 0 247 200 447 447 447" class="C5" /><path d="M 8611 11037 c -247 0 -447 200 -447 447" class="C5" /><path d="M 10621 13717 l 670 0" class="C5" /><path d="M 11291 11261 l -670 0" class="C5" /><path d="M 11532 10814 l -18 0" class="C5" /><path d="M 11515 14164 l 18 0" class="C5" /><path d="M 4993 47593 c -99 0 -179 80 -179 179" class="C5" /><path d="M 4814 61484 c 0 99 80 179 179 179" class="C5" /><path d="M 4993 61663 l 5181 0" class="C5" /><path d="M 10175 47593 l -5181 0" class="C5" /><path d="M 10568 47142 l -393 0" class="C5" /><path d="M 10175 62114 l 388 0" class="C5" /><path d="M 50135 29163 c 170 211 426 334 697 334" class="C5" /><path d="M 50832 43719 c -243 0 -475 99 -643 274" class="C5" /><path d="M 66278 29497 l -15446 0" class="C6" /><path d="M 93266 29497 l -10908 0" class="C6" /><path d="M 50832 43719 l 42434 0" class="C6" /><path d="M 93266 43719 l 304 -304" class="C6" /><path d="M 93570 29801 l -304 -304" class="C6" /><path d="M 107559 29801 l -13990 0" class="C6" /><path d="M 93570 43415 l 13990 0" class="C6" /><path d="M 50135 65739 l 0 -8557" class="C5" /><path d="M 11532 57182 l 0 8557" class="C5" /><path d="M 11532 708 l 0 8557" class="C5" /><path d="M 50135 9265 l 0 -8557" class="C5" /><path d="M 11532 46877 l -13 0" class="C5" /><path d="M 50609 28607 l -232 0" class="C5" /><path d="M 50609 28607 l 0 568" class="C5" /><path d="M 50609 29175 l -464 0" class="C5" /><path d="M 50609 27932 l -232 0" class="C5" /><path d="M 50609 27932 l 0 676" class="C5" /><path d="M 50609 27824 l -232 0" class="C5" /><path d="M 50609 27824 l 0 108" class="C5" /><path d="M 50609 45456 l -473 0" class="C5" /><path d="M 50609 45441 l 0 15" class="C5" /><path d="M 50377 27925 l -241 0" class="C5" /><path d="M 50377 27925 l 0 679" class="C5" /><path d="M 50377 28604 l -241 0" class="C5" /><path d="M 50377 29165 l -241 0" class="C5" /><path d="M 50377 28604 l 0 561" class="C5" /><path d="M 50377 27806 l -241 0" class="C5" /><path d="M 50377 27806 l 0 118" class="C5" /><path d="M 50609 44397 l -473 0" class="C5" /><path d="M 50609 44397 l 0 724" class="C5" /><path d="M 50609 45121 l -473 0" class="C5" /><path d="M 50609 43993 l -473 0" class="C5" /><path d="M 50609 43993 l 0 404" class="C5" /><path d="M 50609 45441 l -473 0" class="C5" /><path d="M 50609 45121 l 0 320" class="C5" /><path d="M 50609 36274 l -473 0" class="C5" /><path d="M 50609 36274 l 0 724" class="C5" /><path d="M 50609 36999 l -473 0" class="C5" /><path d="M 50609 35870 l -473 0" class="C5" /><path d="M 50609 35870 l 0 404" class="C5" /><path d="M 50609 37319 l -473 0" class="C5" /><path d="M 50609 36999 l 0 320" class="C5" /><path d="M 66143 23059 l 16415 0" class="C5" /><path d="M 66143 23059 l 0 -5360" class="C5" /><path d="M 66143 17699 l 16415 0" class="C5" /><path d="M 82558 23059 l 0 -5360" class="C5" /><path d="M 66143 24846 l 0 -1787" class="C5" /><path d="M 82558 24846 l 0 -1787" class="C5" /><path d="M 66143 24846 l 16415 0" class="C5" /><path d="M 82408 29497 l 0 -4652" class="C5" /><path d="M 82558 29497 l 0 -4652" class="C5" /><path d="M 66143 29497 l 0 -4652" class="C5" /><path d="M 66278 36609 l 16080 0" class="C5" /><path d="M 66278 36609 l 0 -11613" class="C5" /><path d="M 66278 24996 l 16080 0" class="C5" /><path d="M 82358 36609 l 0 -11613" class="C5" /><path d="M 82208 24996 l 0 -150" class="C5" /><path d="M 66428 24846 l 0 150" class="C5" /><path d="M 82358 24996 l 0 -150" class="C5" /><path d="M 66278 24996 l 0 -150" class="C5" /><path d="M 50377 22092 l 0 -2066" class="C5" /><path d="M 50377 24158 l 0 -2066" class="C5" /><path d="M 65608 22092 l 0 -2066" class="C5" /><path d="M 65608 24158 l 0 -2066" class="C5" /><path d="M 62481 22092 l 0 -1898" class="C5" /><path d="M 62481 23991 l 0 -1898" class="C5" /><path d="M 53503 22092 l 0 -1898" class="C5" /><path d="M 53503 23991 l 0 -1898" class="C5" /><path d="M 11403 39624 l 0 -6030" class="C5" /><path d="M 10845 39396 l 0 -5574" class="C5" /><path d="M 11180 39396 l 0 -5574" class="C5" /><path d="M 3586 36665 l 2792 0" class="C5" /><path d="M 3586 36665 l 0 -112" class="C5" /><path d="M 3586 36553 l 2792 0" class="C5" /><path d="M 6378 36665 l 0 -112" class="C5" /><path d="M 3586 35021 l 2792 0" class="C5" /><path d="M 3586 36553 l 0 -1532" class="C5" /><path d="M 6378 36553 l 0 -1532" class="C5" /><path d="M 3586 38197 l 2792 0" class="C5" /><path d="M 3586 38197 l 0 -1532" class="C5" /><path d="M 6378 38197 l 0 -1532" class="C5" /><path d="M 8164 38235 l 0 -3252" class="C5" /><path d="M 906 35102 l 0 3015" class="C5" /><path d="M 459 37670 l 0 -2122" class="C5" /><path d="M 3586 38253 l 2792 0" class="C5" /><path d="M 3586 38253 l 0 -56" class="C5" /><path d="M 6378 38253 l 0 -56" class="C5" /><path d="M 3586 34965 l 2792 0" class="C5" /><path d="M 3586 35021 l 0 -56" class="C5" /><path d="M 6378 35021 l 0 -56" class="C5" /><path d="M 11497 12586 l -205 0" class="C5" /><path d="M 11532 13867 l -241 0" class="C5" /><path d="M 11291 12586 l 0 1281" class="C5" /><path d="M 10621 12586 l -1563 0" class="C5" /><path d="M 10621 12586 l 0 1281" class="C5" /><path d="M 10621 13867 l -1563 0" class="C5" /><path d="M 9058 12586 l 0 1281" class="C5" /><path d="M 10621 12392 l -1563 0" class="C5" /><path d="M 9058 12392 l 0 193" class="C5" /><path d="M 10621 12392 l 0 193" class="C5" /><path d="M 11497 12392 l -205 0" class="C5" /><path d="M 11291 12392 l 0 193" class="C5" /><path d="M 10621 11111 l -1563 0" class="C5" /><path d="M 9058 11111 l 0 1281" class="C5" /><path d="M 10621 11111 l 0 1281" class="C5" /><path d="M 11532 11111 l -241 0" class="C5" /><path d="M 11291 11111 l 0 1281" class="C5" /><path d="M 8164 12489 l 0 -1005" class="C5" /><path d="M 8164 13494 l 0 -1005" class="C5" /><path d="M 11532 13964 l -241 0" class="C5" /><path d="M 11291 13867 l 0 97" class="C5" /><path d="M 10621 13964 l -1563 0" class="C5" /><path d="M 9058 13867 l 0 97" class="C5" /><path d="M 10621 13867 l 0 97" class="C5" /><path d="M 11532 11014 l -241 0" class="C5" /><path d="M 11291 11014 l 0 97" class="C5" /><path d="M 10621 11014 l -1563 0" class="C5" /><path d="M 9058 11014 l 0 97" class="C5" /><path d="M 10621 11014 l 0 97" class="C5" /><path d="M 11532 48852 l -1358 0" class="C5" /><path d="M 11532 60415 l -1358 0" class="C5" /><path d="M 10175 60415 l 0 -11562" class="C5" /><path d="M 4814 61484 l 0 -13713" class="C5" /><path d="M 10175 48852 l 1340 -1634" class="C5" /><path d="M 11532 47219 l -18 0" class="C5" /><path d="M 10175 47621 l 1340 -1634" class="C5" /><path d="M 11515 45987 l 0 168" class="C5" /><path d="M 11515 46155 l -1256 1529" class="C5" /><path d="M 10259 48581 c 51 -297 51 -600 -1 -897" class="C5" /><path d="M 10259 48581 l 1255 -1530" class="C5" /><path d="M 11515 47051 l 0 168" class="C5" /><path d="M 10175 47621 l 0 1231" class="C5" /><path d="M 11532 46155 l -18 0" class="C5" /><path d="M 11532 45987 l -18 0" class="C5" /><path d="M 11532 47051 l -18 0" class="C5" /><path d="M 11515 63110 l 0 167" class="C5" /><path d="M 11515 62218 l -1256 -1535" class="C5" /><path d="M 10259 61577 c 51 -296 50 -598 -1 -894" class="C5" /><path d="M 10259 61577 l 1255 1533" class="C5" /><path d="M 10175 61641 l 1340 1636" class="C5" /><path d="M 10990 61577 l -731 0" class="C5" /><path d="M 10995 47684 l -736 0" class="C5" /><path d="M 10175 47621 l 0 -480" class="C5" /><path d="M 10175 62114 l 0 -473" class="C5" /><path d="M 93266 29497 l 0 14222" class="C6" /><path d="M 93570 29801 l 0 13615" class="C6" /><path d="M 107559 29801 l 0 13615" class="C6" /><path d="M 11532 56818 l 0 -15876" class="C5" /><path d="M 12090 57576 l 0 -758" class="C5" /><path d="M 11532 57182 c 52 258 297 431 557 394" class="C5" /><path d="M 11532 57182 c 0 -6 0 -12 0 -18 c 0 -6 0 -13 0 -19 c 0 -6 0 -13 0 -20 c 0 -7 0 -14 0 -21 c 0 -7 0 -14 0 -21 c 0 -7 0 -15 0 -22 c 0 -7 0 -15 0 -23 c 0 -8 0 -15 0 -23 c 0 -16 0 -32 0 -48 c 0 -16 0 -32 0 -49 c 0 -16 0 -33 0 -50 c 0 -17 0 -34 0 -51" class="C5" /><path d="M 49578 57576 l 0 -758" class="C5" /><path d="M 12090 57576 l 37488 0" class="C5" /><path d="M 50135 56818 c 0 -5042 0 -10084 0 -15876" class="C5" /><path d="M 50135 57182 c -0 -6 -0 -11 -0 -17 c 0 -6 0 -11 -0 -17 c -0 -6 -0 -12 -0 -18 c -0 -6 -0 -12 -0 -19 c -0 -6 -0 -13 -0 -19 c -0 -4 0 -9 0 -13 c 0 -12 0 -25 0 -37 c 0 -9 0 -17 0 -26 c -0 -9 -0 -18 -0 -28 c -0 -14 -0 -27 -0 -41 c -0 -14 -0 -28 -0 -42 c 0 -14 0 -29 0 -43 c 0 -14 0 -29 0 -43" class="C5" /><path d="M 49578 57576 c 261 37 505 -136 557 -394" class="C5" /><path d="M 50135 65739 l 0 -8557" class="C5" /><path d="M 11532 65739 l 0 -8557" class="C5" /><path d="M 50135 65889 c -0 -0 -0 -0 -0 -1 c 0 -0 0 -1 -0 -2 c -0 -1 -0 -2 -0 -3 c -0 -1 -0 -2 -0 -4 c -0 -1 -0 -3 -0 -5 c -0 -1 0 -2 0 -4 c 0 -4 0 -8 0 -12 c 0 -3 0 -7 0 -10 c -0 -4 -0 -8 -0 -12 c -0 -6 -0 -13 -0 -20 c -0 -7 -0 -15 -0 -24 c 0 -8 0 -17 0 -27 c 0 -9 0 -19 0 -29" class="C5" /><path d="M 11532 65889 c 0 -0 0 -0 0 -1 c 0 -0 0 -1 0 -2 c 0 -1 0 -2 0 -3 c 0 -1 0 -3 0 -4 c 0 -2 0 -3 0 -6 c 0 -2 0 -4 0 -7 c 0 -2 0 -5 0 -8 c 0 -3 0 -6 0 -9 c 0 -6 0 -14 0 -22 c 0 -8 0 -17 0 -26 c 0 -9 0 -19 0 -30 c 0 -11 0 -22 0 -34" class="C5" /><path d="M 11532 65889 c -0 148 59 290 163 394 c 105 105 246 163 394 163" class="C5" /><path d="M 49578 66447 l -37488 0" class="C5" /><path d="M 49578 66447 c 308 0 557 -250 557 -557" class="C5" /><path d="M 50135 9629 l 0 15126" class="C5" /><path d="M 49578 8871 l 0 758" class="C5" /><path d="M 50135 9265 c -52 -258 -297 -431 -557 -394" class="C5" /><path d="M 50135 9265 c 0 53 0 106 0 167 c 0 61 0 129 0 197" class="C5" /><path d="M 12090 8871 l 0 758" class="C5" /><path d="M 49578 8871 l -37488 0" class="C5" /><path d="M 11532 9629 c -0 630 0 1260 0 1891 c 0 630 0 1260 0 1891 c 0 630 0 1260 0 1891 c 0 630 0 1260 0 1891 c -0 630 0 1260 0 1891 c 0 630 0 1260 0 1891 c -0 630 -0 1260 0 1891 c 0 630 0 1260 0 1891" class="C5" /><path d="M 11532 9265 c 0 53 0 106 0 167 c 0 61 0 129 0 197" class="C5" /><path d="M 12090 8871 c -261 -37 -505 136 -557 394" class="C5" /><path d="M 11532 708 l 0 8557" class="C5" /><path d="M 50135 708 l 0 8557" class="C5" /><path d="M 11532 557 c 0 7 0 14 0 39 c 0 25 0 68 0 112" class="C5" /><path d="M 50135 557 c 0 7 0 14 0 39 c 0 25 0 68 0 112" class="C5" /><path d="M 12090 0 l 37488 0" class="C5" /><path d="M 50135 557 c 0 -148 -59 -290 -163 -394 c -105 -105 -246 -163 -394 -163" class="C5" /><path d="M 12090 0 c -308 0 -557 250 -557 557" class="C5" /><path d="M 14039 43079 l 0 -2137" class="C5" /><path d="M 14039 24754 l 0 -1387" class="C5" /><path d="M 14093 33399 l 0 -247" class="C5" /><path d="M 14093 33152 l 0 -105" class="C5" /><path d="M 14093 33047 c -10 -85 -28 -170 -54 -255" class="C5" /><path d="M 14039 32792 l 0 -8038" class="C5" /><path d="M 14039 40942 l 0 -7288" class="C5" /><path d="M 14039 33654 c 25 -85 43 -170 54 -255" class="C5" /><path d="M 47575 33047 l 0 105" class="C5" /><path d="M 47575 33152 l 0 247" class="C5" /><path d="M 47575 33399 c 10 85 28 170 54 255" class="C5" /><path d="M 47629 33654 l 0 7288" class="C5" /><path d="M 47629 24754 l 0 8038" class="C5" /><path d="M 47629 32792 c -25 85 -43 170 -54 255" class="C5" /><path d="M 47629 23368 l 0 1387" class="C5" /><path d="M 47629 40942 l 0 2137" class="C5" /><path d="M 14757 22827 l 32153 0" class="C5" /><path d="M 14757 43620 l 32153 0" class="C5" /><path d="M 46910 43620 c 422 -0 718 -223 718 -541" class="C5" /><path d="M 47629 23368 c -0 -318 -296 -541 -718 -541" class="C5" /><path d="M 14039 43079 c 0 318 296 541 718 541" class="C5" /><path d="M 14757 22827 c -422 0 -718 223 -718 541" class="C5" /><path d="M 49578 24754 l 0 16187" class="C5" /><path d="M 12090 40942 l 0 -16187" class="C5" /><path d="M 50135 40942 l 0 -16187" class="C5" /><path d="M 11532 24754 l 0 16187" class="C5" /><path d="M 50135 47916 l 36 0" class="C5" /><path d="M 50171 47623 l -36 0" class="C5" /><path d="M 50171 47623 l 0 292" class="C5" /><path d="M 50171 48095 l -36 0" class="C5" /><path d="M 50171 48095 l 0 292" class="C5" /><path d="M 50135 48387 l 36 0" class="C5" /><path d="M 50135 48093 l 36 0" class="C5" /><path d="M 50171 48095 l 0 -1" class="C5" /><path d="M 50135 47623 l 36 0" class="C5" /><path d="M 50171 47623 l 0 1" class="C5" /><path d="M 11519 62218 l 0 172" class="C5" /><path d="M 11162 61904 l 96 0" class="C5" /><path d="M 11162 61904 l 0 -117" class="C5" /><path d="M 11519 62293 l -357 0" class="C5" /><path d="M 11162 62293 l 0 -389" class="C5" /><path d="M 11519 46877 l 0 173" class="C5" /><path d="M 11233 47095 l -71 0" class="C5" /><path d="M 11233 47095 l 0 -91" class="C5" /><path d="M 11519 47004 l -286 0" class="C5" /><path d="M 11162 47392 l 73 0" class="C5" /><path d="M 11162 47392 l 0 -297" class="C5" /><path d="M 11162 47481 l 0 -89" class="C5" /><path d="M 11162 46997 l 71 0" class="C5" /><path d="M 11162 46997 l 0 -22" class="C5" /><path d="M 11519 46975 l -357 0" class="C5" /><path d="M 11233 47004 l 0 -7" class="C5" /><path d="M 11162 46997 l 0 98" class="C5" /><path d="M 11532 12206 l -36 0" class="C5" /><path d="M 11532 12503 l -36 0" class="C5" /><path d="M 11497 12503 l 0 -297" class="C5" /><path d="M 11532 12892 l -36 0" class="C5" /><path d="M 11497 12892 l 0 -389" class="C5" /><path d="M 11497 12108 l 36 0" class="C5" /><path d="M 11497 12108 l 0 -22" class="C5" /><path d="M 11532 12086 l -36 0" class="C5" /><path d="M 11497 12108 l 0 98" class="C5" /><path d="M 11532 18459 l -36 0" class="C5" /><path d="M 11532 18757 l -36 0" class="C5" /><path d="M 11497 18757 l 0 -297" class="C5" /><path d="M 11532 19146 l -36 0" class="C5" /><path d="M 11497 19146 l 0 -389" class="C5" /><path d="M 11497 18362 l 36 0" class="C5" /><path d="M 11497 18362 l 0 -22" class="C5" /><path d="M 11532 18339 l -36 0" class="C5" /><path d="M 11497 18362 l 0 98" class="C5" /><path d="M 17880 41246 c 0 257 208 465 465 465" class="C5" /><path d="M 17880 25201 l 0 16044" class="C5" /><path d="M 18345 24737 c -257 0 -465 208 -465 465" class="C5" /><path d="M 43323 24737 l -24978 0" class="C5" /><path d="M 43787 25201 c 0 -257 -208 -465 -465 -465" class="C5" /><path d="M 43787 41263 l 0 -16062" class="C5" /><path d="M 43341 41710 c 247 0 447 -200 447 -447" class="C5" /><path d="M 18345 41710 l 24996 0" class="C5" /><path d="M 50488 22092 l 0 -1898" class="C5" /><path d="M 50488 23991 l 0 -1898" class="C5" /><path d="M 65496 22092 l 0 -1898" class="C5" /><path d="M 65496 23991 l 0 -1898" class="C5" /><path d="M 10771 38699 l 0 -4181" class="C5" /><path d="M 9523 38242 l 0 -3265" class="C5" /><path d="M 9485 38235 l 0 -3252" class="C5" /><path d="M 8611 12489 l 0 -1452" class="C5" /><path d="M 8611 13941 l 0 -1452" class="C5" /><path d="M 50832 29497 l 0 14222" class="C5" /><path d="M 12090 40942 l 0 15876" class="C5" /><path d="M 49578 56818 l 0 -15876" class="C5" /><path d="M 49578 24754 l 0 -15126" class="C5" /><path d="M 12090 9629 l 0 15126" class="C5" /></g></svg>