<?xml version='1.0' encoding='utf-8'?>
<svg xmlns="http://www.w3.org/2000/svg" width="263.4mm" height="18.5mm" viewBox="0 0 1000000 70235"><defs><style>.C1 {stroke: #ffff00; stroke-width: 949; stroke-opacity: 1.000; fill: none; fill-opacity: 1.000;}</style><style>.C2 {stroke: #ff0000; stroke-width: 949; stroke-opacity: 1.000; fill: none; fill-opacity: 1.000;}</style><style>.C3 {stroke: #ffffff; stroke-width: 949; stroke-opacity: 1.000; fill: none; fill-opacity: 1.000;}</style><style>.C4 {stroke: #bf7fff; stroke-width: 949; stroke-opacity: 1.000; fill: none; fill-opacity: 1.000;}</style><style>.C5 {stroke: #00ff00; stroke-width: 949; stroke-opacity: 1.000; fill: none; fill-opacity: 1.000;}</style></defs><g stroke-linecap="round" stroke-linejoin="round" fill-rule="evenodd"><path d="M 98719 38696 l 460790 -0" class="C1" /><path d="M 98719 46242 l 439870 0" class="C2" /><path d="M 98719 63817 l 455038 -0" class="C2" /><path d="M 98719 43436 l 455038 -0" class="C2" /><path d="M 98719 13574 l 455038 0" class="C2" /><path d="M 553757 63817 l 0 -50244" class="C2" /><path d="M 98719 33956 l 455038 -0" class="C2" /><path d="M 538911 45919 l 14846 0" class="C2" /><path d="M 538911 31472 l 14846 0" class="C2" /><path d="M 98719 31149 l 439870 -0" class="C2" /><path d="M 538589 31149 l 0 15092" class="C2" /><path d="M 538911 31472 l -322 -322" class="C2" /><path d="M 538911 31472 l 0 14447" class="C2" /><path d="M 538911 45919 l -322 322" class="C2" /><path d="M 553757 45919 l 0 -14447" class="C2" /><path d="M 98719 63817 l 0 -50244" class="C2" /><path d="M 98719 46242 l 0 -15092" class="C2" /><path d="M 538589 38696 l 460790 -0" class="C1" /><path d="M 538589 46242 l 439870 0" class="C3" /><path d="M 538589 63817 l 455038 -0" class="C3" /><path d="M 538589 43436 l 455038 -0" class="C3" /><path d="M 538589 13574 l 455038 0" class="C3" /><path d="M 993627 63817 l 0 -50244" class="C3" /><path d="M 538589 33956 l 455038 -0" class="C3" /><path d="M 978781 45919 l 14846 0" class="C3" /><path d="M 978781 31472 l 14846 0" class="C3" /><path d="M 538589 31149 l 439870 -0" class="C3" /><path d="M 978459 31149 l 0 15092" class="C3" /><path d="M 978781 31472 l -322 -322" class="C3" /><path d="M 978781 31472 l 0 14447" class="C3" /><path d="M 978781 45919 l -322 322" class="C3" /><path d="M 993627 45919 l 0 -14447" class="C3" /><path d="M 538589 63817 l 0 -50244" class="C3" /><path d="M 538589 46242 l 0 -15092" class="C3" /><path d="M 5674 38696 l 109960 0" class="C1" /><path d="M 53130 25876 c 151 -44 255 -183 255 -340" class="C4" /><path d="M 53384 21168 c 0 -157 -104 -296 -255 -340" class="C4" /><path d="M 69484 25536 c 0 134 76 256 195 316 c 120 60 263 48 370 -32" class="C4" /><path d="M 70050 20884 c -107 -80 -251 -93 -370 -32 c -120 60 -195 183 -195 316" class="C4" /><path d="M 53503 25359 c -65 0 -118 53 -118 118" class="C4" /><path d="M 53384 21227 c 0 65 53 118 118 118" class="C4" /><path d="M 69484 25477 c 0 -65 -53 -118 -118 -118" class="C4" /><path d="M 69366 21345 c 65 0 118 -53 118 -118" class="C4" /><path d="M 66179 25359 l 3187 0" class="C4" /><path d="M 69366 21345 l -3187 0" class="C4" /><path d="M 53503 25359 l 3187 0" class="C4" /><path d="M 56689 21345 l -3187 0" class="C4" /><path d="M 56689 25123 l 9490 0" class="C4" /><path d="M 66179 21581 l -9490 0" class="C4" /><path d="M 12188 41883 l 137 0" class="C4" /><path d="M 12325 35510 l -137 0" class="C4" /><path d="M 11598 41643 l 354 0" class="C4" /><path d="M 11952 35750 l -354 0" class="C4" /><path d="M 11952 41293 l 236 0" class="C4" /><path d="M 12188 36100 l -236 0" class="C4" /><path d="M 11598 41017 c 0 -50 -31 -94 -77 -111" class="C4" /><path d="M 11521 36487 c 46 -17 77 -61 77 -111" class="C4" /><path d="M 11521 36487 l -1319 484" class="C4" /><path d="M 10202 40422 l 1319 484" class="C4" /><path d="M 10202 40422 c -13 -5 -27 -7 -41 -7" class="C4" /><path d="M 10161 36978 c 14 0 28 -2 41 -7" class="C4" /><path d="M 8765 40415 l 1395 0" class="C4" /><path d="M 10161 36978 l -1395 0" class="C4" /><path d="M 8765 37091 l -1889 0" class="C4" /><path d="M 6877 40302 l 1889 0" class="C4" /><path d="M 3926 37103 l -2833 0" class="C4" /><path d="M 1093 40290 l 2833 0" class="C4" /><path d="M 1093 37103 l -472 472" class="C4" /><path d="M 621 39818 l 472 472" class="C4" /><path d="M 9238 14736 l 472 0" class="C4" /><path d="M 9710 11667 l -472 0" class="C4" /><path d="M 8765 14264 c 0 261 211 472 472 472" class="C4" /><path d="M 9238 11667 c -261 0 -472 211 -472 472" class="C4" /><path d="M 11362 14500 l 708 0" class="C4" /><path d="M 12070 11903 l -708 0" class="C4" /><path d="M 12325 11431 l -19 0" class="C4" /><path d="M 12307 14972 l 19 0" class="C4" /><path d="M 5413 50306 c -104 0 -189 85 -189 189" class="C4" /><path d="M 5224 64990 c 0 104 85 189 189 189" class="C4" /><path d="M 5413 65179 l 5477 0" class="C4" /><path d="M 10890 50306 l -5477 0" class="C4" /><path d="M 11306 49830 l -416 0" class="C4" /><path d="M 10890 65656 l 410 0" class="C4" /><path d="M 53130 30826 c 179 223 450 353 737 353" class="C4" /><path d="M 53866 46212 c -257 0 -502 104 -680 289" class="C4" /><path d="M 70193 31179 l -16327 0" class="C5" /><path d="M 98719 31179 l -11530 0" class="C5" /><path d="M 53866 46212 l 44853 0" class="C5" /><path d="M 98719 46212 l 321 -321" class="C5" /><path d="M 99040 31500 l -321 -321" class="C5" /><path d="M 113828 31500 l -14787 0" class="C5" /><path d="M 99040 45891 l 14787 0" class="C5" /><path d="M 53130 69487 l 0 -9045" class="C4" /><path d="M 12325 60442 l 0 9045" class="C4" /><path d="M 12325 749 l 0 9045" class="C4" /><path d="M 53130 9793 l 0 -9045" class="C4" /><path d="M 12325 49550 l -14 0" class="C4" /><path d="M 53630 30239 l -246 0" class="C4" /><path d="M 53630 30239 l 0 600" class="C4" /><path d="M 53630 30839 l -490 0" class="C4" /><path d="M 53630 29524 l -246 0" class="C4" /><path d="M 53630 29524 l 0 714" class="C4" /><path d="M 53630 29410 l -246 0" class="C4" /><path d="M 53630 29410 l 0 114" class="C4" /><path d="M 53630 48048 l -500 0" class="C4" /><path d="M 53630 48032 l 0 16" class="C4" /><path d="M 53384 29517 l -255 0" class="C4" /><path d="M 53384 29517 l 0 718" class="C4" /><path d="M 53384 30235 l -255 0" class="C4" /><path d="M 53384 30828 l -255 0" class="C4" /><path d="M 53384 30235 l 0 593" class="C4" /><path d="M 53384 29392 l -255 0" class="C4" /><path d="M 53384 29392 l 0 125" class="C4" /><path d="M 53630 46928 l -500 0" class="C4" /><path d="M 53630 46928 l 0 766" class="C4" /><path d="M 53630 47694 l -500 0" class="C4" /><path d="M 53630 46501 l -500 0" class="C4" /><path d="M 53630 46501 l 0 427" class="C4" /><path d="M 53630 48032 l -500 0" class="C4" /><path d="M 53630 47694 l 0 338" class="C4" /><path d="M 53630 38343 l -500 0" class="C4" /><path d="M 53630 38343 l 0 766" class="C4" /><path d="M 53630 39108 l -500 0" class="C4" /><path d="M 53630 37916 l -500 0" class="C4" /><path d="M 53630 37916 l 0 427" class="C4" /><path d="M 53630 39447 l -500 0" class="C4" /><path d="M 53630 39108 l 0 338" class="C4" /><path d="M 70050 24374 l 17351 0" class="C4" /><path d="M 70050 24374 l 0 -5666" class="C4" /><path d="M 70050 18708 l 17351 0" class="C4" /><path d="M 87401 24374 l 0 -5666" class="C4" /><path d="M 70050 26262 l 0 -1889" class="C4" /><path d="M 87401 26262 l 0 -1889" class="C4" /><path d="M 70050 26262 l 17351 0" class="C4" /><path d="M 87243 31179 l 0 -4917" class="C4" /><path d="M 87401 31179 l 0 -4917" class="C4" /><path d="M 70050 31179 l 0 -4917" class="C4" /><path d="M 70193 38697 l 16997 0" class="C4" /><path d="M 70193 38697 l 0 -12276" class="C4" /><path d="M 70193 26421 l 16997 0" class="C4" /><path d="M 87190 38697 l 0 -12276" class="C4" /><path d="M 87031 26421 l 0 -159" class="C4" /><path d="M 70351 26262 l 0 159" class="C4" /><path d="M 87190 26421 l 0 -159" class="C4" /><path d="M 70193 26421 l 0 -159" class="C4" /><path d="M 53384 23352 l 0 -2184" class="C4" /><path d="M 53384 25536 l 0 -2184" class="C4" /><path d="M 69484 23352 l 0 -2184" class="C4" /><path d="M 69484 25536 l 0 -2184" class="C4" /><path d="M 66179 23352 l 0 -2007" class="C4" /><path d="M 66179 25359 l 0 -2007" class="C4" /><path d="M 56689 23352 l 0 -2007" class="C4" /><path d="M 56689 25359 l 0 -2007" class="C4" /><path d="M 12188 41883 l 0 -6374" class="C4" /><path d="M 11598 41643 l 0 -5892" class="C4" /><path d="M 11952 41643 l 0 -5892" class="C4" /><path d="M 3926 38756 l 2951 0" class="C4" /><path d="M 3926 38756 l 0 -118" class="C4" /><path d="M 3926 38637 l 2951 0" class="C4" /><path d="M 6877 38756 l 0 -118" class="C4" /><path d="M 3926 37018 l 2951 0" class="C4" /><path d="M 3926 38637 l 0 -1620" class="C4" /><path d="M 6877 38637 l 0 -1620" class="C4" /><path d="M 3926 40375 l 2951 0" class="C4" /><path d="M 3926 40375 l 0 -1620" class="C4" /><path d="M 6877 40375 l 0 -1620" class="C4" /><path d="M 8765 40415 l 0 -3437" class="C4" /><path d="M 1093 37103 l 0 3187" class="C4" /><path d="M 621 39818 l 0 -2243" class="C4" /><path d="M 3926 40434 l 2951 0" class="C4" /><path d="M 3926 40434 l 0 -59" class="C4" /><path d="M 6877 40434 l 0 -59" class="C4" /><path d="M 3926 36959 l 2951 0" class="C4" /><path d="M 3926 37018 l 0 -59" class="C4" /><path d="M 6877 37018 l 0 -59" class="C4" /><path d="M 12288 13303 l -217 0" class="C4" /><path d="M 12325 14658 l -255 0" class="C4" /><path d="M 12070 13303 l 0 1354" class="C4" /><path d="M 11362 13303 l -1652 0" class="C4" /><path d="M 11362 13303 l 0 1354" class="C4" /><path d="M 11362 14658 l -1652 0" class="C4" /><path d="M 9710 13303 l 0 1354" class="C4" /><path d="M 11362 13099 l -1652 0" class="C4" /><path d="M 9710 13099 l 0 204" class="C4" /><path d="M 11362 13099 l 0 204" class="C4" /><path d="M 12288 13099 l -217 0" class="C4" /><path d="M 12070 13099 l 0 204" class="C4" /><path d="M 11362 11745 l -1652 0" class="C4" /><path d="M 9710 11745 l 0 1354" class="C4" /><path d="M 11362 11745 l 0 1354" class="C4" /><path d="M 12325 11745 l -255 0" class="C4" /><path d="M 12070 11745 l 0 1354" class="C4" /><path d="M 8765 13201 l 0 -1062" class="C4" /><path d="M 8765 14264 l 0 -1062" class="C4" /><path d="M 12325 14760 l -255 0" class="C4" /><path d="M 12070 14658 l 0 102" class="C4" /><path d="M 11362 14760 l -1652 0" class="C4" /><path d="M 9710 14658 l 0 102" class="C4" /><path d="M 11362 14658 l 0 102" class="C4" /><path d="M 12325 11642 l -255 0" class="C4" /><path d="M 12070 11642 l 0 102" class="C4" /><path d="M 11362 11642 l -1652 0" class="C4" /><path d="M 9710 11642 l 0 102" class="C4" /><path d="M 11362 11642 l 0 102" class="C4" /><path d="M 12325 51638 l -1435 0" class="C4" /><path d="M 12325 63860 l -1435 0" class="C4" /><path d="M 10890 63860 l 0 -12222" class="C4" /><path d="M 5224 64990 l 0 -14495" class="C4" /><path d="M 10890 51638 l 1416 -1727" class="C4" /><path d="M 12325 49911 l -19 0" class="C4" /><path d="M 10890 50336 l 1416 -1727" class="C4" /><path d="M 12307 48610 l 0 177" class="C4" /><path d="M 12307 48787 l -1327 1616" class="C4" /><path d="M 10980 51351 c 54 -314 53 -634 -1 -948" class="C4" /><path d="M 10980 51351 l 1327 -1617" class="C4" /><path d="M 12307 49733 l 0 177" class="C4" /><path d="M 10890 50336 l 0 1301" class="C4" /><path d="M 12325 48787 l -19 0" class="C4" /><path d="M 12325 48610 l -19 0" class="C4" /><path d="M 12325 49733 l -19 0" class="C4" /><path d="M 12307 66708 l 0 177" class="C4" /><path d="M 12307 65766 l -1327 -1623" class="C4" /><path d="M 10980 65088 c 54 -313 53 -632 -1 -945" class="C4" /><path d="M 10980 65088 l 1327 1620" class="C4" /><path d="M 10890 65155 l 1416 1730" class="C4" /><path d="M 11752 65088 l -772 0" class="C4" /><path d="M 11758 50403 l -778 0" class="C4" /><path d="M 10890 50337 l 0 -507" class="C4" /><path d="M 10890 65656 l 0 -500" class="C4" /><path d="M 98719 31179 l 0 15033" class="C5" /><path d="M 99040 31500 l 0 14391" class="C5" /><path d="M 113828 31500 l 0 14391" class="C5" /><path d="M 12325 60058 l 0 -16781" class="C4" /><path d="M 12915 60859 l 0 -801" class="C4" /><path d="M 12325 60442 c 55 273 313 456 589 417" class="C4" /><path d="M 12325 60442 c 0 -6 0 -13 0 -20 c 0 -7 0 -13 0 -20 c 0 -7 0 -14 0 -21 c 0 -7 0 -14 0 -22 c 0 -7 0 -15 0 -22 c 0 -8 0 -15 0 -23 c 0 -8 0 -16 0 -24 c 0 -8 0 -16 0 -25 c 0 -17 0 -33 0 -50 c 0 -17 0 -34 0 -52 c 0 -17 0 -35 0 -53 c 0 -18 0 -36 0 -54" class="C4" /><path d="M 52540 60859 l 0 -801" class="C4" /><path d="M 12915 60859 l 39626 0" class="C4" /><path d="M 53130 60058 c 0 -5329 0 -10659 0 -16781" class="C4" /><path d="M 53130 60442 c -0 -6 -0 -12 -0 -18 c 0 -6 0 -12 -0 -18 c -0 -6 -0 -13 -0 -19 c -0 -6 -0 -13 -0 -20 c -0 -7 -0 -13 -0 -20 c -0 -5 0 -9 0 -14 c 0 -13 0 -26 0 -39 c 0 -9 0 -18 0 -28 c -0 -10 -0 -19 -0 -29 c -0 -14 -0 -29 -0 -44 c -0 -15 -0 -30 -0 -45 c 0 -15 0 -30 0 -45 c 0 -15 0 -30 0 -46" class="C4" /><path d="M 52540 60859 c 276 39 534 -144 589 -417" class="C4" /><path d="M 53130 69487 l 0 -9045" class="C4" /><path d="M 12325 69487 l 0 -9045" class="C4" /><path d="M 53130 69646 c -0 -0 -0 -0 -0 -1 c 0 -0 0 -1 -0 -2 c -0 -1 -0 -2 -0 -3 c -0 -1 -0 -2 -0 -4 c -0 -1 -0 -3 -0 -5 c -0 -1 0 -2 0 -4 c 0 -4 0 -8 0 -13 c 0 -3 0 -7 0 -11 c -0 -4 -0 -8 -0 -13 c -0 -7 -0 -14 -0 -22 c -0 -8 -0 -16 -0 -25 c 0 -9 0 -18 0 -28 c 0 -10 0 -20 0 -31" class="C4" /><path d="M 12325 69646 c 0 -0 0 -0 0 -1 c 0 -0 0 -1 0 -2 c 0 -1 0 -2 0 -3 c 0 -1 0 -3 0 -5 c 0 -2 0 -4 0 -6 c 0 -2 0 -5 0 -7 c 0 -3 0 -5 0 -8 c 0 -3 0 -6 0 -10 c 0 -7 0 -14 0 -23 c 0 -8 0 -17 0 -27 c 0 -10 0 -20 0 -32 c 0 -11 0 -24 0 -36" class="C4" /><path d="M 12325 69646 c -0 156 62 306 173 417 c 111 111 260 173 417 173" class="C4" /><path d="M 52540 70235 l -39626 0" class="C4" /><path d="M 52540 70235 c 325 0 589 -264 589 -589" class="C4" /><path d="M 53130 10178 l 0 15988" class="C4" /><path d="M 52540 9376 l 0 801" class="C4" /><path d="M 53130 9793 c -55 -273 -313 -456 -589 -417" class="C4" /><path d="M 53130 9793 c 0 56 0 112 0 176 c 0 64 0 136 0 208" class="C4" /><path d="M 12915 9376 l 0 801" class="C4" /><path d="M 52540 9376 l -39626 0" class="C4" /><path d="M 12325 10178 c 0 666 0 1332 0 1999 c 0 666 0 1332 0 1999 c 0 666 0 1332 0 1999 c 0 666 0 1332 0 1999 c 0 666 0 1332 0 1999 c 0 666 0 1332 0 1999 c -0 666 0 1332 0 1999 c 0 666 0 1332 0 1999" class="C4" /><path d="M 12325 9793 c 0 56 0 112 0 176 c 0 64 0 136 0 209" class="C4" /><path d="M 12915 9376 c -276 -39 -534 144 -589 417" class="C4" /><path d="M 12325 749 l 0 9045" class="C4" /><path d="M 53130 749 l 0 9045" class="C4" /><path d="M 12325 589 c 0 7 0 15 0 41 c 0 27 0 72 0 118" class="C4" /><path d="M 53130 589 c 0 7 0 15 0 41 c 0 27 0 72 0 118" class="C4" /><path d="M 12915 0 l 39626 0" class="C4" /><path d="M 53130 589 c 0 -156 -62 -306 -173 -417 c -111 -111 -260 -173 -417 -173" class="C4" /><path d="M 12915 0 c -325 0 -589 264 -589 589" class="C4" /><path d="M 14975 45535 l 0 -2259" class="C4" /><path d="M 14975 26166 l 0 -1466" class="C4" /><path d="M 15032 35304 l 0 -261" class="C4" /><path d="M 15032 35042 l 0 -111" class="C4" /><path d="M 15032 34932 c -11 -90 -30 -180 -57 -270" class="C4" /><path d="M 14975 34662 l 0 -8496" class="C4" /><path d="M 14975 43276 l 0 -7703" class="C4" /><path d="M 14975 35573 c 27 -90 46 -180 57 -270" class="C4" /><path d="M 50423 34932 l 0 111" class="C4" /><path d="M 50423 35042 l 0 261" class="C4" /><path d="M 50423 35304 c 11 90 30 180 57 270" class="C4" /><path d="M 50480 35573 l 0 7703" class="C4" /><path d="M 50480 26166 l 0 8496" class="C4" /><path d="M 50480 34662 c -27 90 -46 180 -57 270" class="C4" /><path d="M 50480 24700 l 0 1466" class="C4" /><path d="M 50480 43276 l 0 2259" class="C4" /><path d="M 15734 24129 l 33986 0" class="C4" /><path d="M 15734 46107 l 33986 0" class="C4" /><path d="M 49721 46107 c 446 -0 759 -236 759 -571" class="C4" /><path d="M 50480 24700 c -0 -336 -313 -571 -759 -571" class="C4" /><path d="M 14975 45535 c 0 336 313 571 759 571" class="C4" /><path d="M 15734 24129 c -446 0 -759 236 -759 571" class="C4" /><path d="M 52540 26166 l 0 17110" class="C4" /><path d="M 12915 43276 l 0 -17110" class="C4" /><path d="M 53130 43276 l 0 -17110" class="C4" /><path d="M 12325 26166 l 0 17110" class="C4" /><path d="M 53130 50648 l 38 0" class="C4" /><path d="M 53167 50339 l -38 0" class="C4" /><path d="M 53167 50339 l 0 309" class="C4" /><path d="M 53167 50837 l -38 0" class="C4" /><path d="M 53167 50837 l 0 309" class="C4" /><path d="M 53130 51145 l 38 0" class="C4" /><path d="M 53130 50835 l 38 0" class="C4" /><path d="M 53167 50837 l 0 -2" class="C4" /><path d="M 53130 50338 l 38 0" class="C4" /><path d="M 53167 50338 l 0 1" class="C4" /><path d="M 12311 65766 l 0 181" class="C4" /><path d="M 11934 65434 l 101 0" class="C4" /><path d="M 11934 65434 l 0 -124" class="C4" /><path d="M 12311 65845 l -378 0" class="C4" /><path d="M 11934 65845 l 0 -411" class="C4" /><path d="M 12311 49550 l 0 183" class="C4" /><path d="M 12009 49780 l -76 0" class="C4" /><path d="M 12009 49780 l 0 -96" class="C4" /><path d="M 12311 49684 l -302 0" class="C4" /><path d="M 11934 50094 l 77 0" class="C4" /><path d="M 11934 50094 l 0 -314" class="C4" /><path d="M 11934 50188 l 0 -94" class="C4" /><path d="M 11934 49677 l 76 0" class="C4" /><path d="M 11934 49677 l 0 -24" class="C4" /><path d="M 12311 49653 l -378 0" class="C4" /><path d="M 12009 49684 l 0 -7" class="C4" /><path d="M 11934 49677 l 0 103" class="C4" /><path d="M 12325 12902 l -38 0" class="C4" /><path d="M 12325 13216 l -38 0" class="C4" /><path d="M 12288 13216 l 0 -314" class="C4" /><path d="M 12325 13627 l -38 0" class="C4" /><path d="M 12288 13627 l 0 -411" class="C4" /><path d="M 12288 12799 l 38 0" class="C4" /><path d="M 12288 12799 l 0 -24" class="C4" /><path d="M 12325 12775 l -38 0" class="C4" /><path d="M 12288 12799 l 0 103" class="C4" /><path d="M 12325 19512 l -38 0" class="C4" /><path d="M 12325 19826 l -38 0" class="C4" /><path d="M 12288 19826 l 0 -314" class="C4" /><path d="M 12325 20237 l -38 0" class="C4" /><path d="M 12288 20237 l 0 -411" class="C4" /><path d="M 12288 19409 l 38 0" class="C4" /><path d="M 12288 19409 l 0 -24" class="C4" /><path d="M 12325 19385 l -38 0" class="C4" /><path d="M 12288 19409 l 0 103" class="C4" /><path d="M 19035 43597 c 0 271 220 491 491 491" class="C4" /><path d="M 19035 26638 l 0 16959" class="C4" /><path d="M 19526 26147 c -271 0 -491 220 -491 491" class="C4" /><path d="M 45928 26147 l -26402 0" class="C4" /><path d="M 46419 26638 c 0 -271 -220 -491 -491 -491" class="C4" /><path d="M 46419 43616 l 0 -16978" class="C4" /><path d="M 45947 44088 c 261 0 472 -211 472 -472" class="C4" /><path d="M 19526 44088 l 26421 0" class="C4" /><path d="M 53503 23352 l 0 -2007" class="C4" /><path d="M 53503 25359 l 0 -2007" class="C4" /><path d="M 69366 23352 l 0 -2007" class="C4" /><path d="M 69366 25359 l 0 -2007" class="C4" /><path d="M 11521 40906 l 0 -4419" class="C4" /><path d="M 10202 40422 l 0 -3452" class="C4" /><path d="M 10161 40415 l 0 -3437" class="C4" /><path d="M 9238 13201 l 0 -1534" class="C4" /><path d="M 9238 14736 l 0 -1534" class="C4" /><path d="M 53866 31179 l 0 15033" class="C4" /><path d="M 12915 43276 l 0 16781" class="C4" /><path d="M 52540 60058 l 0 -16781" class="C4" /><path d="M 52540 26166 l 0 -15988" class="C4" /><path d="M 12915 10178 l 0 15988" class="C4" /></g></svg>