<?xml version='1.0' encoding='utf-8'?>
<svg xmlns="http://www.w3.org/2000/svg" width="30.3mm" height="18.5mm" viewBox="0 0 1000000 610561"><defs><style>.C1 {stroke: #ffff00; stroke-width: 8251; stroke-opacity: 1.000; fill: none; fill-opacity: 1.000;}</style><style>.C2 {stroke: #bf7fff; stroke-width: 8251; stroke-opacity: 1.000; fill: none; fill-opacity: 1.000;}</style><style>.C3 {stroke: #00ff00; stroke-width: 8251; stroke-opacity: 1.000; fill: none; fill-opacity: 1.000;}</style></defs><g stroke-linecap="round" stroke-linejoin="round" fill-rule="evenodd"><path d="M 44014 336383 l 955893 0" class="C1" /><path d="M 456552 224938 c 1313 -383 2216 -1587 2216 -2955" class="C2" /><path d="M 458769 184018 c 0 -1368 -903 -2572 -2216 -2955" class="C2" /><path d="M 598726 221983 c 0 1164 657 2229 1697 2751 c 1040 522 2286 413 3220 -282" class="C2" /><path d="M 603643 181549 c -934 -695 -2180 -805 -3220 -282 c -1040 522 -1697 1587 -1697 2751" class="C2" /><path d="M 459795 220444 c -567 0 -1026 459 -1026 1026" class="C2" /><path d="M 458769 184531 c 0 567 459 1026 1026 1026" class="C2" /><path d="M 598726 221470 c 0 -567 -459 -1026 -1026 -1026" class="C2" /><path d="M 597700 185557 c 567 0 1026 -459 1026 -1026" class="C2" /><path d="M 569996 220444 l 27704 0" class="C2" /><path d="M 597700 185557 l -27704 0" class="C2" /><path d="M 459795 220444 l 27704 0" class="C2" /><path d="M 487499 185557 l -27704 0" class="C2" /><path d="M 487499 218392 l 82497 0" class="C2" /><path d="M 569996 187609 l -82497 0" class="C2" /><path d="M 100649 364096 l 1190 0" class="C2" /><path d="M 101839 308687 l -1190 0" class="C2" /><path d="M 95518 362002 l 3078 0" class="C2" /><path d="M 98597 310780 l -3078 0" class="C2" /><path d="M 98597 358965 l 2052 0" class="C2" /><path d="M 100649 313818 l -2052 0" class="C2" /><path d="M 95518 356563 c 0 -430 -269 -815 -673 -963" class="C2" /><path d="M 94846 317184 c 404 -148 673 -533 673 -963" class="C2" /><path d="M 94846 317184 l -11469 4205" class="C2" /><path d="M 83376 351394 l 11469 4205" class="C2" /><path d="M 83376 351394 c -113 -41 -233 -63 -353 -63" class="C2" /><path d="M 83023 321452 c 121 0 240 -21 353 -63" class="C2" /><path d="M 70892 351331 l 12131 0" class="C2" /><path d="M 83023 321452 l -12131 0" class="C2" /><path d="M 70892 322437 l -16417 0" class="C2" /><path d="M 54475 350346 l 16417 0" class="C2" /><path d="M 28823 322539 l -24626 0" class="C2" /><path d="M 4197 350244 l 24626 0" class="C2" /><path d="M 4197 322539 l -4104 4104" class="C2" /><path d="M 93 346139 l 4104 4104" class="C2" /><path d="M 74997 128098 l 4104 0" class="C2" /><path d="M 79101 101420 l -4104 0" class="C2" /><path d="M 70892 123994 c 0 2267 1838 4104 4104 4104" class="C2" /><path d="M 74997 101420 c -2267 0 -4104 1838 -4104 4104" class="C2" /><path d="M 93466 126046 l 6157 0" class="C2" /><path d="M 99623 103472 l -6157 0" class="C2" /><path d="M 101839 99368 l -164 0" class="C2" /><path d="M 101675 130150 l 164 0" class="C2" /><path d="M 41752 437317 c -907 0 -1642 735 -1642 1642" class="C2" /><path d="M 40110 564962 c 0 907 735 1642 1642 1642" class="C2" /><path d="M 41752 566604 l 47610 0" class="C2" /><path d="M 89362 437317 l -47610 0" class="C2" /><path d="M 92976 433172 l -3614 0" class="C2" /><path d="M 89362 570749 l 3563 0" class="C2" /><path d="M 456552 267970 c 1558 1942 3913 3072 6403 3072" class="C2" /><path d="M 462955 401724 c -2231 0 -4365 908 -5912 2514" class="C2" /><path d="M 604883 271042 l -141928 0" class="C3" /><path d="M 852867 271042 l -100228 0" class="C3" /><path d="M 462955 401724 l 389912 0" class="C3" /><path d="M 852867 401724 l 2791 -2791" class="C3" /><path d="M 855658 273833 l -2791 -2791" class="C3" /><path d="M 984206 273833 l -128548 0" class="C3" /><path d="M 855658 398933 l 128548 0" class="C3" /><path d="M 456552 604054 l 0 -78625" class="C2" /><path d="M 101839 525429 l 0 78625" class="C2" /><path d="M 101839 6507 l 0 78625" class="C2" /><path d="M 456552 85132 l 0 -78625" class="C2" /><path d="M 101839 430745 l -123 0" class="C2" /><path d="M 460903 262866 l -2134 0" class="C2" /><path d="M 460903 262866 l 0 5215" class="C2" /><path d="M 460903 268081 l -4260 0" class="C2" /><path d="M 460903 256658 l -2134 0" class="C2" /><path d="M 460903 256658 l 0 6208" class="C2" /><path d="M 460903 255665 l -2134 0" class="C2" /><path d="M 460903 255665 l 0 993" class="C2" /><path d="M 460903 417685 l -4351 0" class="C2" /><path d="M 460903 417547 l 0 138" class="C2" /><path d="M 458769 256593 l -2216 0" class="C2" /><path d="M 458769 256593 l 0 6243" class="C2" /><path d="M 458769 262835 l -2216 0" class="C2" /><path d="M 458769 267990 l -2216 0" class="C2" /><path d="M 458769 262835 l 0 5155" class="C2" /><path d="M 458769 255505 l -2216 0" class="C2" /><path d="M 458769 255505 l 0 1088" class="C2" /><path d="M 460903 407951 l -4351 0" class="C2" /><path d="M 460903 407951 l 0 6655" class="C2" /><path d="M 460903 414606 l -4351 0" class="C2" /><path d="M 460903 404238 l -4351 0" class="C2" /><path d="M 460903 404238 l 0 3713" class="C2" /><path d="M 460903 417547 l -4351 0" class="C2" /><path d="M 460903 414606 l 0 2941" class="C2" /><path d="M 460903 333316 l -4351 0" class="C2" /><path d="M 460903 333316 l 0 6655" class="C2" /><path d="M 460903 339971 l -4351 0" class="C2" /><path d="M 460903 329603 l -4351 0" class="C2" /><path d="M 460903 329603 l 0 3713" class="C2" /><path d="M 460903 342912 l -4351 0" class="C2" /><path d="M 460903 339971 l 0 2941" class="C2" /><path d="M 603644 211882 l 150834 0" class="C2" /><path d="M 603644 211882 l 0 -49252" class="C2" /><path d="M 603644 162630 l 150834 0" class="C2" /><path d="M 754478 211882 l 0 -49252" class="C2" /><path d="M 603644 228299 l 0 -16417" class="C2" /><path d="M 754478 228299 l 0 -16417" class="C2" /><path d="M 603644 228299 l 150834 0" class="C2" /><path d="M 753099 271042 l 0 -42743" class="C2" /><path d="M 754478 271042 l 0 -42743" class="C2" /><path d="M 603644 271042 l 0 -42743" class="C2" /><path d="M 604883 336391 l 147756 0" class="C2" /><path d="M 604883 336391 l 0 -106713" class="C2" /><path d="M 604883 229679 l 147756 0" class="C2" /><path d="M 752639 336391 l 0 -106713" class="C2" /><path d="M 751260 229679 l 0 -1380" class="C2" /><path d="M 606262 228299 l 0 1380" class="C2" /><path d="M 752639 229679 l 0 -1380" class="C2" /><path d="M 604883 229679 l 0 -1380" class="C2" /><path d="M 458769 203000 l 0 -18983" class="C2" /><path d="M 458769 221983 l 0 -18983" class="C2" /><path d="M 598726 203000 l 0 -18983" class="C2" /><path d="M 598726 221983 l 0 -18983" class="C2" /><path d="M 569996 203000 l 0 -17443" class="C2" /><path d="M 569996 220444 l 0 -17443" class="C2" /><path d="M 487499 203000 l 0 -17443" class="C2" /><path d="M 487499 220444 l 0 -17443" class="C2" /><path d="M 100649 364096 l 0 -55409" class="C2" /><path d="M 95518 362002 l 0 -51222" class="C2" /><path d="M 98597 362002 l 0 -51222" class="C2" /><path d="M 28823 336904 l 25652 0" class="C2" /><path d="M 28823 336904 l 0 -1026" class="C2" /><path d="M 28823 335878 l 25652 0" class="C2" /><path d="M 54475 336904 l 0 -1026" class="C2" /><path d="M 28823 321798 l 25652 0" class="C2" /><path d="M 28823 335878 l 0 -14080" class="C2" /><path d="M 54475 335878 l 0 -14080" class="C2" /><path d="M 28823 350985 l 25652 0" class="C2" /><path d="M 28823 350985 l 0 -14080" class="C2" /><path d="M 54475 350985 l 0 -14080" class="C2" /><path d="M 70892 351331 l 0 -29880" class="C2" /><path d="M 4197 322539 l 0 27704" class="C2" /><path d="M 93 346139 l 0 -19496" class="C2" /><path d="M 28823 351498 l 25652 0" class="C2" /><path d="M 28823 351498 l 0 -513" class="C2" /><path d="M 54475 351498 l 0 -513" class="C2" /><path d="M 28823 321285 l 25652 0" class="C2" /><path d="M 28823 321798 l 0 -513" class="C2" /><path d="M 54475 321798 l 0 -513" class="C2" /><path d="M 101511 115648 l -1888 0" class="C2" /><path d="M 101839 127422 l -2216 0" class="C2" /><path d="M 99623 115648 l 0 11774" class="C2" /><path d="M 93466 115648 l -14365 0" class="C2" /><path d="M 93466 115648 l 0 11774" class="C2" /><path d="M 93466 127422 l -14365 0" class="C2" /><path d="M 79101 115648 l 0 11774" class="C2" /><path d="M 93466 113870 l -14365 0" class="C2" /><path d="M 79101 113870 l 0 1777" class="C2" /><path d="M 93466 113870 l 0 1777" class="C2" /><path d="M 101511 113870 l -1888 0" class="C2" /><path d="M 99623 113870 l 0 1777" class="C2" /><path d="M 93466 102096 l -14365 0" class="C2" /><path d="M 79101 102096 l 0 11774" class="C2" /><path d="M 93466 102096 l 0 11774" class="C2" /><path d="M 101839 102096 l -2216 0" class="C2" /><path d="M 99623 102096 l 0 11774" class="C2" /><path d="M 70892 114759 l 0 -9235" class="C2" /><path d="M 70892 123994 l 0 -9235" class="C2" /><path d="M 101839 128310 l -2216 0" class="C2" /><path d="M 99623 127422 l 0 889" class="C2" /><path d="M 93466 128310 l -14365 0" class="C2" /><path d="M 79101 127422 l 0 889" class="C2" /><path d="M 93466 127422 l 0 889" class="C2" /><path d="M 101839 101208 l -2216 0" class="C2" /><path d="M 99623 101208 l 0 889" class="C2" /><path d="M 93466 101208 l -14365 0" class="C2" /><path d="M 79101 101208 l 0 889" class="C2" /><path d="M 93466 101208 l 0 889" class="C2" /><path d="M 101839 448892 l -12477 0" class="C2" /><path d="M 101839 555135 l -12477 0" class="C2" /><path d="M 89362 555135 l 0 -106244" class="C2" /><path d="M 40110 564962 l 0 -126003" class="C2" /><path d="M 89362 448892 l 12313 -15012" class="C2" /><path d="M 101839 433879 l -164 0" class="C2" /><path d="M 89362 437579 l 12313 -15012" class="C2" /><path d="M 101675 422566 l 0 1543" class="C2" /><path d="M 101675 424109 l -11537 14046" class="C2" /><path d="M 90143 446397 c 466 -2728 464 -5515 -5 -8242" class="C2" /><path d="M 90143 446397 l 11532 -14060" class="C2" /><path d="M 101675 432336 l 0 1543" class="C2" /><path d="M 89362 437579 l 0 11313" class="C2" /><path d="M 101839 424109 l -164 0" class="C2" /><path d="M 101839 422566 l -164 0" class="C2" /><path d="M 101839 432336 l -164 0" class="C2" /><path d="M 101675 579898 l 0 1536" class="C2" /><path d="M 101675 571709 l -11537 -14108" class="C2" /><path d="M 90143 565817 c 465 -2719 464 -5497 -5 -8216" class="C2" /><path d="M 90143 565817 l 11532 14082" class="C2" /><path d="M 89362 566398 l 12313 15036" class="C2" /><path d="M 96857 565817 l -6714 0" class="C2" /><path d="M 96903 438154 l -6765 0" class="C2" /><path d="M 89362 437581 l 0 -4409" class="C2" /><path d="M 89362 570749 l 0 -4351" class="C2" /><path d="M 852867 271042 l 0 130682" class="C3" /><path d="M 855658 273833 l 0 125100" class="C3" /><path d="M 984206 273833 l 0 125100" class="C3" /><path d="M 101839 522086 l 0 -145883" class="C2" /><path d="M 106961 529051 l 0 -6965" class="C2" /><path d="M 101839 525429 c 479 2373 2725 3961 5122 3622" class="C2" /><path d="M 101839 525429 c 0 -56 0 -112 0 -170 c 0 -57 0 -116 0 -176 c 0 -60 0 -120 0 -182 c 0 -62 0 -125 0 -189 c 0 -64 0 -129 0 -195 c 0 -66 0 -133 0 -201 c 0 -68 0 -138 0 -208 c 0 -71 0 -142 0 -214 c 0 -144 0 -290 0 -439 c 0 -147 0 -297 0 -448 c 0 -151 0 -304 0 -457 c 0 -155 0 -311 0 -466" class="C2" /><path d="M 451430 529051 l 0 -6965" class="C2" /><path d="M 106961 529051 l 344469 0" class="C2" /><path d="M 456552 522086 c 0 -46329 0 -92658 0 -145883" class="C2" /><path d="M 456552 525429 c -0 -51 -0 -101 -0 -153 c 0 -52 0 -105 -0 -160 c -0 -54 -0 -109 -0 -166 c -0 -56 -0 -113 -0 -171 c -0 -58 -0 -117 -0 -177 c -0 -40 0 -80 0 -121 c 0 -112 0 -226 0 -343 c 0 -79 0 -159 0 -241 c -0 -83 -0 -168 -0 -253 c -0 -125 -0 -252 -0 -380 c -0 -128 -0 -258 -0 -389 c 0 -131 0 -262 0 -394 c 0 -132 0 -264 0 -397" class="C2" /><path d="M 451430 529051 c 2397 339 4643 -1249 5122 -3622" class="C2" /><path d="M 456552 604054 l 0 -78625" class="C2" /><path d="M 101839 604054 l 0 -78625" class="C2" /><path d="M 456552 605439 c -0 -1 -0 -2 -0 -5 c 0 -3 0 -8 -0 -14 c -0 -6 -0 -14 -0 -24 c -0 -9 -0 -20 -0 -33 c -0 -13 -0 -26 -0 -42 c -0 -10 0 -22 0 -34 c 0 -33 0 -71 0 -113 c 0 -29 0 -60 0 -94 c -0 -34 -0 -71 -0 -110 c -0 -57 -0 -120 -0 -187 c -0 -67 -0 -140 -0 -216 c 0 -77 0 -157 0 -244 c 0 -86 0 -178 0 -269" class="C2" /><path d="M 101839 605439 c 0 -1 0 -2 0 -6 c 0 -3 0 -9 0 -17 c 0 -8 0 -17 0 -28 c 0 -11 0 -24 0 -39 c 0 -15 0 -32 0 -51 c 0 -19 0 -39 0 -62 c 0 -23 0 -47 0 -73 c 0 -26 0 -54 0 -84 c 0 -59 0 -126 0 -199 c 0 -72 0 -152 0 -237 c 0 -85 0 -177 0 -275 c 0 -100 0 -207 0 -314" class="C2" /><path d="M 101839 605439 c -0 1358 540 2661 1500 3622 c 961 961 2263 1500 3622 1500" class="C2" /><path d="M 451430 610561 l -344469 0" class="C2" /><path d="M 451430 610561 c 2829 0 5122 -2293 5122 -5122" class="C2" /><path d="M 456552 88475 l 0 138987" class="C2" /><path d="M 451430 81510 l 0 6965" class="C2" /><path d="M 456552 85132 c -479 -2373 -2725 -3961 -5122 -3622" class="C2" /><path d="M 456552 85132 c 0 488 0 977 0 1534 c 0 557 0 1183 0 1809" class="C2" /><path d="M 106961 81510 l 0 6965" class="C2" /><path d="M 451430 81510 l -344469 0" class="C2" /><path d="M 101839 88475 c 0 5791 -0 11582 0 17373 c 0 5791 0 11582 0 17373 c -0 5791 0 11582 0 17373 c 0 5791 0 11582 0 17373 c 0 5791 0 11582 0 17373 c 0 5791 0 11582 0 17373 c 0 5791 0 11582 0 17373 c 0 5791 0 11582 0 17373" class="C2" /><path d="M 101839 85132 c 0 487 0 975 0 1531 c 0 558 0 1185 0 1813" class="C2" /><path d="M 106961 81510 c -2397 -339 -4643 1249 -5122 3622" class="C2" /><path d="M 101839 6507 l 0 78625" class="C2" /><path d="M 456552 6507 l 0 78625" class="C2" /><path d="M 101839 5122 c 0 64 0 129 0 358 c 0 231 0 629 0 1026" class="C2" /><path d="M 456552 5122 c 0 65 0 129 0 360 c 0 231 0 628 0 1025" class="C2" /><path d="M 106961 0 l 344469 0" class="C2" /><path d="M 456552 5122 c 0 -1358 -540 -2661 -1500 -3622 c -961 -961 -2263 -1500 -3622 -1500" class="C2" /><path d="M 106961 0 c -2829 0 -5122 2293 -5122 5122" class="C2" /><path d="M 124873 395842 l 0 -19638" class="C2" /><path d="M 124873 227462 l 0 -12743" class="C2" /><path d="M 125365 306897 l 0 -2272" class="C2" /><path d="M 125365 304625 l 0 -961" class="C2" /><path d="M 125365 303664 c -95 -781 -259 -1562 -493 -2343" class="C2" /><path d="M 124873 301321 l 0 -73858" class="C2" /><path d="M 124873 376203 l 0 -66963" class="C2" /><path d="M 124872 309240 c 233 -781 397 -1562 493 -2343" class="C2" /><path d="M 433026 303664 l 0 961" class="C2" /><path d="M 433026 304625 l 0 2272" class="C2" /><path d="M 433026 306897 c 95 781 259 1562 493 2343" class="C2" /><path d="M 433519 309240 l 0 66963" class="C2" /><path d="M 433519 227462 l 0 73858" class="C2" /><path d="M 433519 301321 c -233 781 -397 1562 -493 2343" class="C2" /><path d="M 433519 214719 l 0 12743" class="C2" /><path d="M 433519 376203 l 0 19638" class="C2" /><path d="M 131474 209752 l 295444 0" class="C2" /><path d="M 131474 400809 l 295444 0" class="C2" /><path d="M 426918 400809 c 3879 -0 6601 -2048 6601 -4967" class="C2" /><path d="M 433519 214719 c -0 -2919 -2722 -4967 -6601 -4967" class="C2" /><path d="M 124873 395842 c 0 2919 2722 4967 6601 4967" class="C2" /><path d="M 131474 209752 c -3879 0 -6601 2048 -6601 4967" class="C2" /><path d="M 451430 227462 l 0 148741" class="C2" /><path d="M 106961 376203 l 0 -148741" class="C2" /><path d="M 456552 376203 l 0 -148741" class="C2" /><path d="M 101839 227462 l 0 148741" class="C2" /><path d="M 456552 440287 l 328 0" class="C2" /><path d="M 456881 437599 l -328 0" class="C2" /><path d="M 456881 437599 l 0 2688" class="C2" /><path d="M 456881 441929 l -328 0" class="C2" /><path d="M 456881 441929 l 0 2682" class="C2" /><path d="M 456552 444611 l 328 0" class="C2" /><path d="M 456552 441915 l 328 0" class="C2" /><path d="M 456881 441929 l 0 -13" class="C2" /><path d="M 456552 437592 l 328 0" class="C2" /><path d="M 456881 437592 l 0 8" class="C2" /><path d="M 101716 571709 l 0 1577" class="C2" /><path d="M 98432 568820 l 880 0" class="C2" /><path d="M 98432 568820 l 0 -1076" class="C2" /><path d="M 101716 572393 l -3283 0" class="C2" /><path d="M 98432 572393 l 0 -3573" class="C2" /><path d="M 101716 430745 l 0 1592" class="C2" /><path d="M 99089 432741 l -657 0" class="C2" /><path d="M 99089 432741 l 0 -835" class="C2" /><path d="M 101716 431906 l -2627 0" class="C2" /><path d="M 98432 435472 l 670 0" class="C2" /><path d="M 98432 435472 l 0 -2732" class="C2" /><path d="M 98432 436290 l 0 -817" class="C2" /><path d="M 98432 431843 l 657 0" class="C2" /><path d="M 98432 431843 l 0 -205" class="C2" /><path d="M 101716 431637 l -3283 0" class="C2" /><path d="M 99089 431906 l 0 -63" class="C2" /><path d="M 98432 431843 l 0 898" class="C2" /><path d="M 101839 112158 l -328 0" class="C2" /><path d="M 101839 114890 l -328 0" class="C2" /><path d="M 101511 114890 l 0 -2732" class="C2" /><path d="M 101839 118463 l -328 0" class="C2" /><path d="M 101511 118463 l 0 -3573" class="C2" /><path d="M 101511 111260 l 328 0" class="C2" /><path d="M 101511 111260 l 0 -205" class="C2" /><path d="M 101839 111055 l -328 0" class="C2" /><path d="M 101511 111260 l 0 898" class="C2" /><path d="M 101839 169619 l -328 0" class="C2" /><path d="M 101839 172350 l -328 0" class="C2" /><path d="M 101511 172350 l 0 -2732" class="C2" /><path d="M 101839 175924 l -328 0" class="C2" /><path d="M 101511 175924 l 0 -3573" class="C2" /><path d="M 101511 168721 l 328 0" class="C2" /><path d="M 101511 168721 l 0 -205" class="C2" /><path d="M 101839 168515 l -328 0" class="C2" /><path d="M 101511 168721 l 0 898" class="C2" /><path d="M 160170 378994 c 0 2357 1911 4269 4269 4269" class="C2" /><path d="M 160170 231567 l 0 147428" class="C2" /><path d="M 164438 227298 c -2357 0 -4269 1911 -4269 4269" class="C2" /><path d="M 393953 227298 l -229514 0" class="C2" /><path d="M 398221 231567 c 0 -2357 -1911 -4269 -4269 -4269" class="C2" /><path d="M 398221 379159 l 0 -147592" class="C2" /><path d="M 394117 383263 c 2267 0 4104 -1838 4104 -4104" class="C2" /><path d="M 164438 383263 l 229679 0" class="C2" /><path d="M 459795 203000 l 0 -17443" class="C2" /><path d="M 459795 220444 l 0 -17443" class="C2" /><path d="M 597700 203000 l 0 -17443" class="C2" /><path d="M 597700 220444 l 0 -17443" class="C2" /><path d="M 94846 355599 l 0 -38416" class="C2" /><path d="M 83376 351394 l 0 -30005" class="C2" /><path d="M 83023 351331 l 0 -29880" class="C2" /><path d="M 74997 114759 l 0 -13339" class="C2" /><path d="M 74997 128098 l 0 -13339" class="C2" /><path d="M 462955 271042 l 0 130682" class="C2" /><path d="M 106961 376203 l 0 145883" class="C2" /><path d="M 451430 522086 l 0 -145883" class="C2" /><path d="M 451430 227462 l 0 -138987" class="C2" /><path d="M 106961 88475 l 0 138987" class="C2" /></g></svg>