<?xml version='1.0' encoding='utf-8'?>
<svg xmlns="http://www.w3.org/2000/svg" width="469.5mm" height="13.3mm" viewBox="0 0 1000000 28328"><defs><style>.C1 {stroke: #ffff00; stroke-width: 532; stroke-opacity: 1.000; fill: none; fill-opacity: 1.000;}</style><style>.C2 {stroke: #ffffff; stroke-width: 532; stroke-opacity: 1.000; fill: none; fill-opacity: 1.000;}</style></defs><g stroke-linecap="round" stroke-linejoin="round" fill-rule="evenodd"><path d="M 258813 14164 l -258813 -0" class="C1" /><path d="M 258813 18402 l -247062 0" class="C2" /><path d="M 258813 28274 l -255582 -0" class="C2" /><path d="M 258813 16826 l -255582 -0" class="C2" /><path d="M 258813 54 l -255582 0" class="C2" /><path d="M 3231 28274 l 0 -28220" class="C2" /><path d="M 258813 11502 l -255582 -0" class="C2" /><path d="M 11569 18221 l -8338 0" class="C2" /><path d="M 11569 10107 l -8338 0" class="C2" /><path d="M 258813 9926 l -247062 0" class="C2" /><path d="M 11750 9926 l 0 8477" class="C2" /><path d="M 11569 10107 l 181 -181" class="C2" /><path d="M 11569 10107 l 0 8115" class="C2" /><path d="M 11569 18221 l 181 181" class="C2" /><path d="M 3231 18221 l 0 -8115" class="C2" /><path d="M 505875 14164 l -258813 0" class="C1" /><path d="M 505875 11502 l -255582 0" class="C2" /><path d="M 505875 16826 l -255582 -0" class="C2" /><path d="M 505875 54 l -255582 0" class="C2" /><path d="M 505875 28274 l -255582 -0" class="C2" /><path d="M 505875 18402 l -247062 0" class="C2" /><path d="M 505875 28274 l 0 -28220" class="C2" /><path d="M 258632 18221 l -8338 0" class="C2" /><path d="M 258632 10107 l -8338 0" class="C2" /><path d="M 505875 9926 l -247062 -0" class="C2" /><path d="M 258813 9926 l 0 8477" class="C2" /><path d="M 258632 10107 l 0 8115" class="C2" /><path d="M 258632 10107 l 181 -181" class="C2" /><path d="M 258632 18221 l 181 181" class="C2" /><path d="M 250293 18221 l 0 -8115" class="C2" /><path d="M 258813 9926 l 0 8477" class="C2" /><path d="M 505875 18402 l 0 -8477" class="C2" /><path d="M 250293 28274 l 0 -28220" class="C2" /><path d="M 258813 28274 l 0 -28220" class="C2" /><path d="M 752938 14164 l -258813 0" class="C1" /><path d="M 752938 11502 l -255582 0" class="C2" /><path d="M 752938 16826 l -255582 -0" class="C2" /><path d="M 752938 54 l -255582 0" class="C2" /><path d="M 752938 28274 l -255582 -0" class="C2" /><path d="M 752938 18402 l -247062 0" class="C2" /><path d="M 497356 28274 l 0 -28220" class="C2" /><path d="M 505694 18221 l -8338 0" class="C2" /><path d="M 505694 10107 l -8338 0" class="C2" /><path d="M 752938 9926 l -247062 -0" class="C2" /><path d="M 505875 9926 l 0 8477" class="C2" /><path d="M 505694 10107 l 0 8115" class="C2" /><path d="M 505694 10107 l 181 -181" class="C2" /><path d="M 505694 18221 l 181 181" class="C2" /><path d="M 497356 18221 l 0 -8115" class="C2" /><path d="M 1000000 14164 l -258813 -0" class="C1" /><path d="M 1000000 11502 l -255582 -0" class="C2" /><path d="M 1000000 16826 l -255582 -0" class="C2" /><path d="M 1000000 54 l -255582 0" class="C2" /><path d="M 1000000 28274 l -255582 -0" class="C2" /><path d="M 1000000 18402 l -247062 0" class="C2" /><path d="M 1000000 28274 l 0 -28220" class="C2" /><path d="M 752756 18221 l -8338 0" class="C2" /><path d="M 752756 10107 l -8338 0" class="C2" /><path d="M 1000000 9926 l -247062 0" class="C2" /><path d="M 752938 9926 l 0 8477" class="C2" /><path d="M 752756 10107 l 0 8115" class="C2" /><path d="M 752756 10107 l 181 -181" class="C2" /><path d="M 752756 18221 l 181 181" class="C2" /><path d="M 744418 18221 l 0 -8115" class="C2" /><path d="M 752938 9926 l 0 8477" class="C2" /><path d="M 1000000 18402 l 0 -8477" class="C2" /><path d="M 744418 28274 l 0 -28220" class="C2" /><path d="M 752938 28274 l 0 -28220" class="C2" /></g></svg>