<?xml version='1.0' encoding='utf-8'?>
<svg xmlns="http://www.w3.org/2000/svg" width="66.3mm" height="13.3mm" viewBox="0 0 1000000 200603"><defs><style>.C1 {stroke: #ffff00; stroke-width: 3771; stroke-opacity: 1.000; fill: none; fill-opacity: 1.000;}</style><style>.C2 {stroke: #ffffff; stroke-width: 3771; stroke-opacity: 1.000; fill: none; fill-opacity: 1.000;}</style></defs><g stroke-linecap="round" stroke-linejoin="round" fill-rule="evenodd"><path d="M 0 100302 l 1000000 0" class="C1" /><path d="M 71656 70271 l 845089 0" class="C2" /><path d="M 71656 325 l 905452 0" class="C2" /><path d="M 71656 81438 l 905452 0" class="C2" /><path d="M 71656 200279 l 905452 0" class="C2" /><path d="M 977109 325 l -0 199954" class="C2" /><path d="M 71656 119165 l 905452 0" class="C2" /><path d="M 918028 71554 l 59081 0" class="C2" /><path d="M 918028 129050 l 59081 0" class="C2" /><path d="M 71656 130333 l 845089 0" class="C2" /><path d="M 916745 130333 l 0 -60062" class="C2" /><path d="M 918028 129050 l -1283 1283" class="C2" /><path d="M 918028 129050 l 0 -57496" class="C2" /><path d="M 918028 71554 l -1283 -1283" class="C2" /><path d="M 977109 71554 l 0 57496" class="C2" /><path d="M 71656 70271 l 0 60062" class="C2" /><path d="M 71656 325 l 0 199954" class="C2" /></g></svg>