<?xml version='1.0' encoding='utf-8'?>
<svg xmlns="http://www.w3.org/2000/svg" width="701.5mm" height="13.3mm" viewBox="0 0 1000000 18959"><defs><style>.C1 {stroke: #ffff00; stroke-width: 356; stroke-opacity: 1.000; fill: none; fill-opacity: 1.000;}</style><style>.C2 {stroke: #ffffff; stroke-width: 356; stroke-opacity: 1.000; fill: none; fill-opacity: 1.000;}</style></defs><g stroke-linecap="round" stroke-linejoin="round" fill-rule="evenodd"><path d="M 173220 9480 l -173220 -0" class="C1" /><path d="M 173220 12316 l -165356 0" class="C2" /><path d="M 173220 18924 l -171058 -0" class="C2" /><path d="M 173220 11262 l -171058 -0" class="C2" /><path d="M 173220 36 l -171058 0" class="C2" /><path d="M 2162 18924 l 0 -18888" class="C2" /><path d="M 173220 7698 l -171058 -0" class="C2" /><path d="M 7743 12195 l -5581 0" class="C2" /><path d="M 7743 6764 l -5581 0" class="C2" /><path d="M 173220 6643 l -165356 0" class="C2" /><path d="M 7864 6643 l 0 5673" class="C2" /><path d="M 7743 6764 l 121 -121" class="C2" /><path d="M 7743 6764 l 0 5431" class="C2" /><path d="M 7743 12195 l 121 121" class="C2" /><path d="M 2162 12195 l 0 -5431" class="C2" /><path d="M 338576 9480 l -173220 0" class="C1" /><path d="M 338576 7698 l -171058 0" class="C2" /><path d="M 338576 11262 l -171058 -0" class="C2" /><path d="M 338576 36 l -171058 0" class="C2" /><path d="M 338576 18924 l -171058 -0" class="C2" /><path d="M 338576 12316 l -165356 0" class="C2" /><path d="M 338576 18924 l 0 -18888" class="C2" /><path d="M 173099 12195 l -5581 0" class="C2" /><path d="M 173099 6764 l -5581 0" class="C2" /><path d="M 338576 6643 l -165356 -0" class="C2" /><path d="M 173220 6643 l 0 5673" class="C2" /><path d="M 173099 6764 l 0 5431" class="C2" /><path d="M 173099 6764 l 121 -121" class="C2" /><path d="M 173099 12195 l 121 121" class="C2" /><path d="M 167518 12195 l 0 -5431" class="C2" /><path d="M 173220 6643 l 0 5673" class="C2" /><path d="M 338576 12316 l 0 -5673" class="C2" /><path d="M 167518 18924 l 0 -18888" class="C2" /><path d="M 173220 18924 l 0 -18888" class="C2" /><path d="M 503932 9480 l -173220 0" class="C1" /><path d="M 503932 7698 l -171058 0" class="C2" /><path d="M 503932 11262 l -171058 -0" class="C2" /><path d="M 503932 36 l -171058 0" class="C2" /><path d="M 503932 18924 l -171058 -0" class="C2" /><path d="M 503932 12316 l -165356 0" class="C2" /><path d="M 332874 18924 l 0 -18888" class="C2" /><path d="M 338455 12195 l -5581 0" class="C2" /><path d="M 338455 6764 l -5581 0" class="C2" /><path d="M 503932 6643 l -165356 -0" class="C2" /><path d="M 338576 6643 l 0 5673" class="C2" /><path d="M 338455 6764 l 0 5431" class="C2" /><path d="M 338455 6764 l 121 -121" class="C2" /><path d="M 338455 12195 l 121 121" class="C2" /><path d="M 332874 12195 l 0 -5431" class="C2" /><path d="M 669288 9480 l -173220 -0" class="C1" /><path d="M 669288 7698 l -171058 -0" class="C2" /><path d="M 669288 11262 l -171058 -0" class="C2" /><path d="M 669288 36 l -171058 0" class="C2" /><path d="M 669288 18924 l -171058 -0" class="C2" /><path d="M 669288 12316 l -165356 0" class="C2" /><path d="M 669288 18924 l 0 -18888" class="C2" /><path d="M 503811 12195 l -5581 0" class="C2" /><path d="M 503811 6764 l -5581 0" class="C2" /><path d="M 669288 6643 l -165356 0" class="C2" /><path d="M 503932 6643 l 0 5673" class="C2" /><path d="M 503811 6764 l 0 5431" class="C2" /><path d="M 503811 6764 l 121 -121" class="C2" /><path d="M 503811 12195 l 121 121" class="C2" /><path d="M 498230 12195 l 0 -5431" class="C2" /><path d="M 503932 6643 l 0 5673" class="C2" /><path d="M 669288 12316 l 0 -5673" class="C2" /><path d="M 498230 18924 l 0 -18888" class="C2" /><path d="M 503932 18924 l 0 -18888" class="C2" /><path d="M 834644 9480 l -173220 -0" class="C1" /><path d="M 834644 7698 l -171058 -0" class="C2" /><path d="M 834644 11262 l -171058 -0" class="C2" /><path d="M 834644 36 l -171058 0" class="C2" /><path d="M 834644 18924 l -171058 -0" class="C2" /><path d="M 834644 12316 l -165356 0" class="C2" /><path d="M 663586 18924 l 0 -18888" class="C2" /><path d="M 669167 12195 l -5581 0" class="C2" /><path d="M 669167 6764 l -5581 0" class="C2" /><path d="M 834644 6643 l -165356 0" class="C2" /><path d="M 669288 6643 l 0 5673" class="C2" /><path d="M 669167 6764 l 0 5431" class="C2" /><path d="M 669167 6764 l 121 -121" class="C2" /><path d="M 669167 12195 l 121 121" class="C2" /><path d="M 663586 12195 l 0 -5431" class="C2" /><path d="M 1000000 9480 l -173220 -0" class="C1" /><path d="M 1000000 7698 l -171058 -0" class="C2" /><path d="M 1000000 11262 l -171058 -0" class="C2" /><path d="M 1000000 36 l -171058 0" class="C2" /><path d="M 1000000 18924 l -171058 -0" class="C2" /><path d="M 1000000 12316 l -165356 0" class="C2" /><path d="M 1000000 18924 l 0 -18888" class="C2" /><path d="M 834523 12195 l -5581 0" class="C2" /><path d="M 834523 6764 l -5581 0" class="C2" /><path d="M 1000000 6643 l -165356 -0" class="C2" /><path d="M 834644 6643 l 0 5673" class="C2" /><path d="M 834523 6764 l 0 5431" class="C2" /><path d="M 834523 6764 l 121 -121" class="C2" /><path d="M 834523 12195 l 121 121" class="C2" /><path d="M 828942 12195 l 0 -5431" class="C2" /><path d="M 834644 6643 l 0 5673" class="C2" /><path d="M 1000000 12316 l 0 -5673" class="C2" /><path d="M 828942 18924 l 0 -18888" class="C2" /><path d="M 834644 18924 l 0 -18888" class="C2" /></g></svg>