<?xml version='1.0' encoding='utf-8'?>
<svg xmlns="http://www.w3.org/2000/svg" width="353.5mm" height="13.3mm" viewBox="0 0 1000000 37624"><defs><style>.C1 {stroke: #ffff00; stroke-width: 707; stroke-opacity: 1.000; fill: none; fill-opacity: 1.000;}</style><style>.C2 {stroke: #ffffff; stroke-width: 707; stroke-opacity: 1.000; fill: none; fill-opacity: 1.000;}</style></defs><g stroke-linecap="round" stroke-linejoin="round" fill-rule="evenodd"><path d="M 656263 18812 l 343737 -0" class="C1" /><path d="M 656263 24441 l 328131 0" class="C2" /><path d="M 656263 37552 l 339446 -0" class="C2" /><path d="M 656263 22348 l 339446 -0" class="C2" /><path d="M 656263 72 l 339446 0" class="C2" /><path d="M 995709 37552 l 0 -37481" class="C2" /><path d="M 656263 15276 l 339446 -0" class="C2" /><path d="M 984635 24201 l 11074 0" class="C2" /><path d="M 984635 13423 l 11074 0" class="C2" /><path d="M 656263 13183 l 328131 0" class="C2" /><path d="M 984394 13183 l 0 11258" class="C2" /><path d="M 984635 13423 l -240 -240" class="C2" /><path d="M 984635 13423 l 0 10777" class="C2" /><path d="M 984635 24201 l -240 240" class="C2" /><path d="M 995709 24201 l 0 -10777" class="C2" /><path d="M 328131 18812 l 343737 0" class="C1" /><path d="M 328131 15276 l 339446 0" class="C2" /><path d="M 328131 22348 l 339446 -0" class="C2" /><path d="M 328131 72 l 339446 0" class="C2" /><path d="M 328131 37552 l 339446 -0" class="C2" /><path d="M 328131 24441 l 328131 0" class="C2" /><path d="M 328131 37552 l 0 -37481" class="C2" /><path d="M 656503 24201 l 11074 0" class="C2" /><path d="M 656503 13423 l 11074 0" class="C2" /><path d="M 328131 13183 l 328131 -0" class="C2" /><path d="M 656263 13183 l 0 11258" class="C2" /><path d="M 656503 13423 l 0 10777" class="C2" /><path d="M 656503 13423 l -240 -240" class="C2" /><path d="M 656503 24201 l -240 240" class="C2" /><path d="M 667578 24201 l 0 -10777" class="C2" /><path d="M 656263 13183 l 0 11258" class="C2" /><path d="M 328131 24441 l 0 -11258" class="C2" /><path d="M 667578 37552 l 0 -37481" class="C2" /><path d="M 656263 37552 l 0 -37481" class="C2" /><path d="M -0 18812 l 343737 0" class="C1" /><path d="M -0 15276 l 339446 0" class="C2" /><path d="M -0 22348 l 339446 0" class="C2" /><path d="M -0 72 l 339446 0" class="C2" /><path d="M -0 37552 l 339446 -0" class="C2" /><path d="M -0 24441 l 328131 0" class="C2" /><path d="M 339446 37552 l 0 -37481" class="C2" /><path d="M -0 37552 l 0 -37481" class="C2" /><path d="M 328372 24201 l 11074 0" class="C2" /><path d="M 328372 13423 l 11074 0" class="C2" /><path d="M -0 13183 l 328131 -0" class="C2" /><path d="M 328131 13183 l 0 11258" class="C2" /><path d="M 328372 13423 l -0 10777" class="C2" /><path d="M 328372 13423 l -240 -240" class="C2" /><path d="M 328372 24201 l -240 240" class="C2" /><path d="M 339446 24201 l 0 -10777" class="C2" /><path d="M -0 24441 l 0 -11258" class="C2" /></g></svg>