<?xml version='1.0' encoding='utf-8'?>
<svg xmlns="http://www.w3.org/2000/svg" width="237.5mm" height="13.3mm" viewBox="0 0 1000000 56000"><defs><style>.C1 {stroke: #ffff00; stroke-width: 1053; stroke-opacity: 1.000; fill: none; fill-opacity: 1.000;}</style><style>.C2 {stroke: #ffffff; stroke-width: 1053; stroke-opacity: 1.000; fill: none; fill-opacity: 1.000;}</style></defs><g stroke-linecap="round" stroke-linejoin="round" fill-rule="evenodd"><path d="M 488386 28000 l 511614 -0" class="C1" /><path d="M 488386 36378 l 488386 0" class="C2" /><path d="M 488386 55893 l 505227 -0" class="C2" /><path d="M 488386 33263 l 505227 -0" class="C2" /><path d="M 488386 107 l 505227 0" class="C2" /><path d="M 993614 55893 l 0 -55786" class="C2" /><path d="M 488386 22737 l 505227 -0" class="C2" /><path d="M 977131 36020 l 16483 0" class="C2" /><path d="M 977131 19980 l 16483 0" class="C2" /><path d="M 488386 19622 l 488386 0" class="C2" /><path d="M 976773 19622 l 0 16757" class="C2" /><path d="M 977131 19980 l -358 -358" class="C2" /><path d="M 977131 19980 l 0 16041" class="C2" /><path d="M 977131 36020 l -358 358" class="C2" /><path d="M 993614 36020 l 0 -16041" class="C2" /><path d="M 0 28000 l 511614 0" class="C1" /><path d="M 0 22737 l 505227 0" class="C2" /><path d="M 0 33263 l 505227 -0" class="C2" /><path d="M 0 107 l 505227 0" class="C2" /><path d="M 0 55893 l 505227 -0" class="C2" /><path d="M 0 36378 l 488386 0" class="C2" /><path d="M 0 55893 l 0 -55786" class="C2" /><path d="M 488744 36020 l 16483 0" class="C2" /><path d="M 488744 19980 l 16483 0" class="C2" /><path d="M 0 19622 l 488386 -0" class="C2" /><path d="M 488386 19622 l 0 16757" class="C2" /><path d="M 488744 19980 l -0 16041" class="C2" /><path d="M 488744 19980 l -358 -358" class="C2" /><path d="M 488744 36020 l -358 358" class="C2" /><path d="M 505227 36020 l 0 -16041" class="C2" /><path d="M 488386 19622 l 0 16757" class="C2" /><path d="M 0 36378 l 0 -16757" class="C2" /><path d="M 505227 55893 l 0 -55786" class="C2" /><path d="M 488386 55893 l 0 -55786" class="C2" /></g></svg>