<?xml version='1.0' encoding='utf-8'?>
<svg xmlns="http://www.w3.org/2000/svg" width="147.4mm" height="18.5mm" viewBox="0 0 1000000 125509"><defs><style>.C1 {stroke: #ffff00; stroke-width: 1696; stroke-opacity: 1.000; fill: none; fill-opacity: 1.000;}</style><style>.C2 {stroke: #ff0000; stroke-width: 1696; stroke-opacity: 1.000; fill: none; fill-opacity: 1.000;}</style><style>.C3 {stroke: #bf7fff; stroke-width: 1696; stroke-opacity: 1.000; fill: none; fill-opacity: 1.000;}</style><style>.C4 {stroke: #00ff00; stroke-width: 1696; stroke-opacity: 1.000; fill: none; fill-opacity: 1.000;}</style></defs><g stroke-linecap="round" stroke-linejoin="round" fill-rule="evenodd"><path d="M 175940 69148 l 823419 -0" class="C1" /><path d="M 175940 82632 l 786036 0" class="C2" /><path d="M 175940 114040 l 813141 -0" class="C2" /><path d="M 175940 77618 l 813141 -0" class="C2" /><path d="M 175940 24256 l 813141 0" class="C2" /><path d="M 989081 114040 l 0 -89784" class="C2" /><path d="M 175940 60678 l 813141 -0" class="C2" /><path d="M 962552 82057 l 26529 0" class="C2" /><path d="M 962552 56239 l 26529 0" class="C2" /><path d="M 175940 55663 l 786036 0" class="C2" /><path d="M 961976 55663 l 0 26969" class="C2" /><path d="M 962552 56239 l -576 -576" class="C2" /><path d="M 962552 56239 l 0 25817" class="C2" /><path d="M 962552 82057 l -576 576" class="C2" /><path d="M 989081 82057 l 0 -25817" class="C2" /><path d="M 175940 114040 l 0 -89784" class="C2" /><path d="M 175940 82632 l 0 -26969" class="C2" /><path d="M 9669 69148 l 196496 0" class="C1" /><path d="M 94472 46239 c 270 -79 456 -326 456 -607" class="C3" /><path d="M 94928 37827 c 0 -281 -186 -529 -456 -607" class="C3" /><path d="M 123698 45632 c 0 239 135 458 349 566 c 214 107 470 85 662 -58" class="C3" /><path d="M 124709 37320 c -192 -143 -448 -165 -662 -58 c -214 107 -349 326 -349 566" class="C3" /><path d="M 95139 45315 c -116 0 -211 94 -211 211" class="C3" /><path d="M 94928 37933 c 0 116 94 211 211 211" class="C3" /><path d="M 123698 45526 c 0 -116 -94 -211 -211 -211" class="C3" /><path d="M 123487 38144 c 116 0 211 -94 211 -211" class="C3" /><path d="M 117792 45315 l 5695 0" class="C3" /><path d="M 123487 38144 l -5695 0" class="C3" /><path d="M 95139 45315 l 5695 0" class="C3" /><path d="M 100834 38144 l -5695 0" class="C3" /><path d="M 100834 44893 l 16958 0" class="C3" /><path d="M 117792 38566 l -16958 0" class="C3" /><path d="M 21311 74845 l 245 0" class="C3" /><path d="M 21556 63455 l -245 0" class="C3" /><path d="M 20257 74414 l 633 0" class="C3" /><path d="M 20890 63885 l -633 0" class="C3" /><path d="M 20890 73790 l 422 0" class="C3" /><path d="M 21311 64509 l -422 0" class="C3" /><path d="M 20257 73296 c 0 -88 -55 -168 -138 -198" class="C3" /><path d="M 20119 65201 c 83 -30 138 -110 138 -198" class="C3" /><path d="M 20119 65201 l -2358 864" class="C3" /><path d="M 17761 72234 l 2358 864" class="C3" /><path d="M 17761 72234 c -23 -9 -48 -13 -73 -13" class="C3" /><path d="M 17688 66079 c 25 0 49 -4 73 -13" class="C3" /><path d="M 15195 72221 l 2494 0" class="C3" /><path d="M 17688 66079 l -2494 0" class="C3" /><path d="M 15195 66281 l -3375 0" class="C3" /><path d="M 11820 72018 l 3375 0" class="C3" /><path d="M 6547 66302 l -5062 0" class="C3" /><path d="M 1485 71997 l 5062 0" class="C3" /><path d="M 1485 66302 l -844 844" class="C3" /><path d="M 641 71153 l 844 844" class="C3" /><path d="M 16038 26332 l 844 0" class="C3" /><path d="M 16882 20848 l -844 0" class="C3" /><path d="M 15195 25489 c 0 466 378 844 844 844" class="C3" /><path d="M 16038 20848 c -466 0 -844 378 -844 844" class="C3" /><path d="M 19835 25910 l 1266 0" class="C3" /><path d="M 21101 21270 l -1266 0" class="C3" /><path d="M 21556 20426 l -34 0" class="C3" /><path d="M 21522 26754 l 34 0" class="C3" /><path d="M 9204 89896 c -186 0 -337 151 -337 337" class="C3" /><path d="M 8867 116135 c 0 186 151 337 337 337" class="C3" /><path d="M 9204 116473 l 9787 0" class="C3" /><path d="M 18991 89896 l -9787 0" class="C3" /><path d="M 19734 89044 l -743 0" class="C3" /><path d="M 18991 117325 l 732 0" class="C3" /><path d="M 94472 55085 c 320 399 804 631 1316 631" class="C3" /><path d="M 95788 82580 c -459 0 -897 187 -1215 517" class="C3" /><path d="M 124963 55716 l -29175 0" class="C4" /><path d="M 175940 55716 l -20603 0" class="C4" /><path d="M 95788 82580 l 80152 0" class="C4" /><path d="M 175940 82580 l 574 -574" class="C4" /><path d="M 176513 56290 l -574 -574" class="C4" /><path d="M 202938 56290 l -26425 0" class="C4" /><path d="M 176513 82006 l 26425 0" class="C4" /><path d="M 94472 124171 l 0 -16162" class="C3" /><path d="M 21556 108009 l 0 16162" class="C3" /><path d="M 21556 1338 l 0 16162" class="C3" /><path d="M 94472 17500 l 0 -16162" class="C3" /><path d="M 21556 88545 l -25 0" class="C3" /><path d="M 95366 54036 l -439 0" class="C3" /><path d="M 95366 54036 l 0 1072" class="C3" /><path d="M 95366 55108 l -876 0" class="C3" /><path d="M 95366 52759 l -439 0" class="C3" /><path d="M 95366 52759 l 0 1276" class="C3" /><path d="M 95366 52555 l -439 0" class="C3" /><path d="M 95366 52555 l 0 204" class="C3" /><path d="M 95366 85861 l -894 0" class="C3" /><path d="M 95366 85832 l 0 28" class="C3" /><path d="M 94928 52746 l -456 0" class="C3" /><path d="M 94928 52746 l 0 1283" class="C3" /><path d="M 94928 54029 l -456 0" class="C3" /><path d="M 94928 55089 l -456 0" class="C3" /><path d="M 94928 54029 l 0 1060" class="C3" /><path d="M 94928 52522 l -456 0" class="C3" /><path d="M 94928 52522 l 0 224" class="C3" /><path d="M 95366 83860 l -894 0" class="C3" /><path d="M 95366 83860 l 0 1368" class="C3" /><path d="M 95366 85228 l -894 0" class="C3" /><path d="M 95366 83096 l -894 0" class="C3" /><path d="M 95366 83096 l 0 763" class="C3" /><path d="M 95366 85832 l -894 0" class="C3" /><path d="M 95366 85228 l 0 605" class="C3" /><path d="M 95366 68518 l -894 0" class="C3" /><path d="M 95366 68518 l 0 1368" class="C3" /><path d="M 95366 69885 l -894 0" class="C3" /><path d="M 95366 67754 l -894 0" class="C3" /><path d="M 95366 67754 l 0 763" class="C3" /><path d="M 95366 70490 l -894 0" class="C3" /><path d="M 95366 69885 l 0 605" class="C3" /><path d="M 124709 43555 l 31006 0" class="C3" /><path d="M 124709 43555 l 0 -10124" class="C3" /><path d="M 124709 33431 l 31006 0" class="C3" /><path d="M 155715 43555 l 0 -10124" class="C3" /><path d="M 124709 46930 l 0 -3375" class="C3" /><path d="M 155715 46930 l 0 -3375" class="C3" /><path d="M 124709 46930 l 31006 0" class="C3" /><path d="M 155431 55716 l 0 -8786" class="C3" /><path d="M 155715 55716 l 0 -8786" class="C3" /><path d="M 124709 55716 l 0 -8786" class="C3" /><path d="M 124963 69150 l 30373 0" class="C3" /><path d="M 124963 69150 l 0 -21936" class="C3" /><path d="M 124963 47213 l 30373 0" class="C3" /><path d="M 155337 69150 l 0 -21936" class="C3" /><path d="M 155053 47213 l 0 -284" class="C3" /><path d="M 125247 46930 l 0 284" class="C3" /><path d="M 155337 47213 l 0 -284" class="C3" /><path d="M 124963 47213 l 0 -284" class="C3" /><path d="M 94928 41729 l 0 -3902" class="C3" /><path d="M 94928 45632 l 0 -3902" class="C3" /><path d="M 123698 41729 l 0 -3902" class="C3" /><path d="M 123698 45632 l 0 -3902" class="C3" /><path d="M 117792 41729 l 0 -3586" class="C3" /><path d="M 117792 45315 l 0 -3586" class="C3" /><path d="M 100834 41729 l 0 -3586" class="C3" /><path d="M 100834 45315 l 0 -3586" class="C3" /><path d="M 21311 74845 l 0 -11390" class="C3" /><path d="M 20257 74414 l 0 -10529" class="C3" /><path d="M 20890 74414 l 0 -10529" class="C3" /><path d="M 6547 69255 l 5273 0" class="C3" /><path d="M 6547 69255 l 0 -211" class="C3" /><path d="M 6547 69044 l 5273 0" class="C3" /><path d="M 11820 69255 l 0 -211" class="C3" /><path d="M 6547 66150 l 5273 0" class="C3" /><path d="M 6547 69044 l 0 -2894" class="C3" /><path d="M 11820 69044 l 0 -2894" class="C3" /><path d="M 6547 72150 l 5273 0" class="C3" /><path d="M 6547 72150 l 0 -2894" class="C3" /><path d="M 11820 72150 l 0 -2894" class="C3" /><path d="M 15195 72221 l 0 -6142" class="C3" /><path d="M 1485 66302 l 0 5695" class="C3" /><path d="M 641 71153 l 0 -4008" class="C3" /><path d="M 6547 72255 l 5273 0" class="C3" /><path d="M 6547 72255 l 0 -105" class="C3" /><path d="M 11820 72255 l 0 -105" class="C3" /><path d="M 6547 66044 l 5273 0" class="C3" /><path d="M 6547 66150 l 0 -105" class="C3" /><path d="M 11820 66150 l 0 -105" class="C3" /><path d="M 21489 23773 l -388 0" class="C3" /><path d="M 21556 26193 l -456 0" class="C3" /><path d="M 21101 23773 l 0 2420" class="C3" /><path d="M 19835 23773 l -2953 0" class="C3" /><path d="M 19835 23773 l 0 2420" class="C3" /><path d="M 19835 26193 l -2953 0" class="C3" /><path d="M 16882 23773 l 0 2420" class="C3" /><path d="M 19835 23408 l -2953 0" class="C3" /><path d="M 16882 23408 l 0 365" class="C3" /><path d="M 19835 23408 l 0 365" class="C3" /><path d="M 21489 23408 l -388 0" class="C3" /><path d="M 21101 23408 l 0 365" class="C3" /><path d="M 19835 20987 l -2953 0" class="C3" /><path d="M 16882 20987 l 0 2420" class="C3" /><path d="M 19835 20987 l 0 2420" class="C3" /><path d="M 21556 20987 l -456 0" class="C3" /><path d="M 21101 20987 l 0 2420" class="C3" /><path d="M 15195 23590 l 0 -1898" class="C3" /><path d="M 15195 25489 l 0 -1898" class="C3" /><path d="M 21556 26376 l -456 0" class="C3" /><path d="M 21101 26193 l 0 183" class="C3" /><path d="M 19835 26376 l -2953 0" class="C3" /><path d="M 16882 26193 l 0 183" class="C3" /><path d="M 19835 26193 l 0 183" class="C3" /><path d="M 21556 20805 l -456 0" class="C3" /><path d="M 21101 20805 l 0 183" class="C3" /><path d="M 19835 20805 l -2953 0" class="C3" /><path d="M 16882 20805 l 0 183" class="C3" /><path d="M 19835 20805 l 0 183" class="C3" /><path d="M 21556 92276 l -2565 0" class="C3" /><path d="M 21556 114115 l -2565 0" class="C3" /><path d="M 18991 114115 l 0 -21840" class="C3" /><path d="M 8867 116135 l 0 -25902" class="C3" /><path d="M 18991 92276 l 2531 -3086" class="C3" /><path d="M 21556 89190 l -34 0" class="C3" /><path d="M 18991 89950 l 2531 -3086" class="C3" /><path d="M 21522 86864 l 0 317" class="C3" /><path d="M 21522 87181 l -2372 2887" class="C3" /><path d="M 19152 91763 c 96 -561 95 -1134 -1 -1694" class="C3" /><path d="M 19152 91763 l 2371 -2890" class="C3" /><path d="M 21522 88872 l 0 317" class="C3" /><path d="M 18991 89950 l 0 2326" class="C3" /><path d="M 21556 87181 l -34 0" class="C3" /><path d="M 21556 86864 l -34 0" class="C3" /><path d="M 21556 88872 l -34 0" class="C3" /><path d="M 21522 119206 l 0 316" class="C3" /><path d="M 21522 117522 l -2372 -2900" class="C3" /><path d="M 19152 116311 c 96 -559 95 -1130 -1 -1689" class="C3" /><path d="M 19152 116311 l 2371 2895" class="C3" /><path d="M 18991 116431 l 2531 3091" class="C3" /><path d="M 20532 116311 l -1380 0" class="C3" /><path d="M 20541 90068 l -1391 0" class="C3" /><path d="M 18991 89950 l 0 -906" class="C3" /><path d="M 18991 117325 l 0 -894" class="C3" /><path d="M 175940 55716 l 0 26863" class="C4" /><path d="M 176513 56290 l 0 25716" class="C4" /><path d="M 202938 56290 l 0 25716" class="C4" /><path d="M 21556 107322 l 0 -29988" class="C3" /><path d="M 22609 108753 l 0 -1432" class="C3" /><path d="M 21556 108009 c 99 488 560 814 1053 745" class="C3" /><path d="M 21556 108009 c 0 -12 0 -23 0 -35 c 0 -12 0 -24 0 -36 c 0 -12 0 -25 0 -37 c 0 -13 0 -26 0 -39 c 0 -13 0 -27 0 -40 c 0 -14 0 -27 0 -41 c 0 -14 0 -28 0 -43 c 0 -14 0 -29 0 -44 c 0 -30 0 -60 0 -90 c 0 -30 0 -61 0 -92 c 0 -31 0 -62 0 -94 c 0 -32 0 -64 0 -96" class="C3" /><path d="M 93419 108753 l 0 -1432" class="C3" /><path d="M 22609 108753 l 70810 0" class="C3" /><path d="M 94472 107322 c 0 -9524 0 -19047 0 -29988" class="C3" /><path d="M 94472 108009 c -0 -10 -0 -21 -0 -32 c 0 -11 0 -22 -0 -33 c -0 -11 -0 -23 -0 -34 c -0 -12 -0 -23 -0 -35 c -0 -12 -0 -24 -0 -36 c -0 -8 0 -16 0 -25 c 0 -23 0 -46 0 -70 c 0 -16 0 -33 0 -49 c -0 -17 -0 -34 -0 -52 c -0 -26 -0 -52 -0 -78 c -0 -26 -0 -53 -0 -80 c 0 -27 0 -54 0 -81 c 0 -27 0 -54 0 -82" class="C3" /><path d="M 93419 108753 c 493 70 954 -257 1053 -745" class="C3" /><path d="M 94472 124171 l 0 -16162" class="C3" /><path d="M 21556 124171 l 0 -16162" class="C3" /><path d="M 94472 124456 c -0 -0 -0 -0 -0 -1 c 0 -1 0 -2 -0 -3 c -0 -1 -0 -3 -0 -5 c -0 -2 -0 -4 -0 -7 c -0 -3 -0 -5 -0 -9 c -0 -2 0 -4 0 -7 c 0 -7 0 -14 0 -23 c 0 -6 0 -12 0 -19 c -0 -7 -0 -15 -0 -23 c -0 -12 -0 -25 -0 -38 c -0 -14 -0 -29 -0 -44 c 0 -16 0 -32 0 -50 c 0 -18 0 -37 0 -55" class="C3" /><path d="M 21556 124456 c 0 -0 0 -0 0 -1 c 0 -1 0 -2 0 -3 c 0 -2 0 -3 0 -6 c 0 -2 0 -5 0 -8 c 0 -3 0 -7 0 -10 c 0 -4 0 -8 0 -13 c 0 -5 0 -10 0 -15 c 0 -5 0 -11 0 -17 c 0 -12 0 -26 0 -41 c 0 -15 0 -31 0 -49 c 0 -18 0 -36 0 -57 c 0 -20 0 -42 0 -64" class="C3" /><path d="M 21556 124456 c -0 279 111 547 308 745 c 197 197 465 308 745 308" class="C3" /><path d="M 93419 125509 l -70810 0" class="C3" /><path d="M 93419 125509 c 582 0 1053 -471 1053 -1053" class="C3" /><path d="M 94472 18187 l 0 28571" class="C3" /><path d="M 93419 16755 l 0 1432" class="C3" /><path d="M 94472 17500 c -99 -488 -560 -814 -1053 -745" class="C3" /><path d="M 94472 17500 c 0 100 0 201 0 315 c 0 115 0 243 0 372" class="C3" /><path d="M 22609 16755 l 0 1432" class="C3" /><path d="M 93419 16755 l -70810 0" class="C3" /><path d="M 21556 18187 c -0 1190 0 2381 0 3571 c 0 1190 0 2381 0 3571 c 0 1190 0 2381 0 3571 c 0 1190 0 2381 0 3571 c -0 1190 0 2381 0 3571 c 0 1190 0 2381 0 3571 c -0 1190 -0 2381 0 3571 c 0 1190 0 2381 0 3571" class="C3" /><path d="M 21556 17500 c 0 100 0 200 0 315 c 0 115 0 244 0 373" class="C3" /><path d="M 22609 16755 c -493 -70 -954 257 -1053 745" class="C3" /><path d="M 21556 1338 l 0 16162" class="C3" /><path d="M 94472 1338 l 0 16162" class="C3" /><path d="M 21556 1053 c 0 13 0 26 0 74 c 0 47 0 129 0 211" class="C3" /><path d="M 94472 1053 c 0 13 0 27 0 74 c 0 47 0 129 0 211" class="C3" /><path d="M 22609 0 l 70810 0" class="C3" /><path d="M 94472 1053 c 0 -279 -111 -547 -308 -745 c -197 -197 -465 -308 -745 -308" class="C3" /><path d="M 22609 0 c -582 0 -1053 471 -1053 1053" class="C3" /><path d="M 26291 81370 l 0 -4037" class="C3" /><path d="M 26291 46758 l 0 -2620" class="C3" /><path d="M 26392 63087 l 0 -467" class="C3" /><path d="M 26392 62620 l 0 -197" class="C3" /><path d="M 26392 62422 c -20 -161 -53 -321 -101 -482" class="C3" /><path d="M 26291 61940 l 0 -15183" class="C3" /><path d="M 26291 77334 l 0 -13765" class="C3" /><path d="M 26291 63568 c 48 -161 82 -321 101 -482" class="C3" /><path d="M 89636 62422 l 0 197" class="C3" /><path d="M 89636 62620 l 0 467" class="C3" /><path d="M 89636 63087 c 20 161 53 321 101 482" class="C3" /><path d="M 89737 63568 l 0 13765" class="C3" /><path d="M 89737 46758 l 0 15183" class="C3" /><path d="M 89737 61940 c -48 161 -82 321 -101 482" class="C3" /><path d="M 89737 44138 l 0 2620" class="C3" /><path d="M 89737 77334 l 0 4037" class="C3" /><path d="M 27648 43117 l 60732 0" class="C3" /><path d="M 27648 82392 l 60732 0" class="C3" /><path d="M 88380 82392 c 797 -0 1357 -421 1357 -1021" class="C3" /><path d="M 89737 44138 c -0 -600 -560 -1021 -1357 -1021" class="C3" /><path d="M 26291 81370 c 0 600 560 1021 1357 1021" class="C3" /><path d="M 27648 43117 c -797 0 -1357 421 -1357 1021" class="C3" /><path d="M 93419 46758 l 0 30576" class="C3" /><path d="M 22609 77334 l 0 -30576" class="C3" /><path d="M 94472 77334 l 0 -30576" class="C3" /><path d="M 21556 46758 l 0 30576" class="C3" /><path d="M 94472 90507 l 67 0" class="C3" /><path d="M 94540 89954 l -67 0" class="C3" /><path d="M 94540 89954 l 0 552" class="C3" /><path d="M 94540 90844 l -67 0" class="C3" /><path d="M 94540 90844 l 0 551" class="C3" /><path d="M 94472 91396 l 67 0" class="C3" /><path d="M 94472 90841 l 67 0" class="C3" /><path d="M 94540 90844 l 0 -3" class="C3" /><path d="M 94472 89953 l 67 0" class="C3" /><path d="M 94540 89953 l 0 2" class="C3" /><path d="M 21531 117522 l 0 324" class="C3" /><path d="M 20856 116928 l 181 0" class="C3" /><path d="M 20856 116928 l 0 -221" class="C3" /><path d="M 21531 117663 l -675 0" class="C3" /><path d="M 20856 117663 l 0 -735" class="C3" /><path d="M 21531 88545 l 0 327" class="C3" /><path d="M 20991 88956 l -135 0" class="C3" /><path d="M 20991 88956 l 0 -172" class="C3" /><path d="M 21531 88784 l -540 0" class="C3" /><path d="M 20856 89517 l 138 0" class="C3" /><path d="M 20856 89517 l 0 -562" class="C3" /><path d="M 20856 89685 l 0 -168" class="C3" /><path d="M 20856 88771 l 135 0" class="C3" /><path d="M 20856 88771 l 0 -42" class="C3" /><path d="M 21531 88729 l -675 0" class="C3" /><path d="M 20991 88784 l 0 -13" class="C3" /><path d="M 20856 88771 l 0 185" class="C3" /><path d="M 21556 23056 l -67 0" class="C3" /><path d="M 21556 23617 l -67 0" class="C3" /><path d="M 21489 23617 l 0 -562" class="C3" /><path d="M 21556 24352 l -67 0" class="C3" /><path d="M 21489 24352 l 0 -735" class="C3" /><path d="M 21489 22871 l 67 0" class="C3" /><path d="M 21489 22871 l 0 -42" class="C3" /><path d="M 21556 22829 l -67 0" class="C3" /><path d="M 21489 22871 l 0 185" class="C3" /><path d="M 21556 34867 l -67 0" class="C3" /><path d="M 21556 35429 l -67 0" class="C3" /><path d="M 21489 35429 l 0 -562" class="C3" /><path d="M 21556 36163 l -67 0" class="C3" /><path d="M 21489 36163 l 0 -735" class="C3" /><path d="M 21489 34683 l 67 0" class="C3" /><path d="M 21489 34683 l 0 -42" class="C3" /><path d="M 21556 34641 l -67 0" class="C3" /><path d="M 21489 34683 l 0 185" class="C3" /><path d="M 33547 77907 c 0 485 393 877 877 877" class="C3" /><path d="M 33547 47602 l 0 30306" class="C3" /><path d="M 34424 46724 c -485 0 -877 393 -877 877" class="C3" /><path d="M 81604 46724 l -47180 0" class="C3" /><path d="M 82481 47602 c 0 -485 -393 -877 -877 -877" class="C3" /><path d="M 82481 77941 l 0 -30339" class="C3" /><path d="M 81638 78785 c 466 0 844 -378 844 -844" class="C3" /><path d="M 34424 78785 l 47213 0" class="C3" /><path d="M 95139 41729 l 0 -3586" class="C3" /><path d="M 95139 45315 l 0 -3586" class="C3" /><path d="M 123487 41729 l 0 -3586" class="C3" /><path d="M 123487 45315 l 0 -3586" class="C3" /><path d="M 20119 73098 l 0 -7897" class="C3" /><path d="M 17761 72234 l 0 -6168" class="C3" /><path d="M 17688 72221 l 0 -6142" class="C3" /><path d="M 16038 23590 l 0 -2742" class="C3" /><path d="M 16038 26332 l 0 -2742" class="C3" /><path d="M 95788 55716 l 0 26863" class="C3" /><path d="M 22609 77334 l 0 29988" class="C3" /><path d="M 93419 107322 l 0 -29988" class="C3" /><path d="M 93419 46758 l 0 -28571" class="C3" /><path d="M 22609 18187 l 0 28571" class="C3" /></g></svg>