<?xml version='1.0' encoding='utf-8'?>
<svg xmlns="http://www.w3.org/2000/svg" width="353.5mm" height="13.3mm" viewBox="0 0 1000000 37624"><defs><style>.C1 {stroke: #ffff00; stroke-width: 707; stroke-opacity: 1.000; fill: none; fill-opacity: 1.000;}</style><style>.C2 {stroke: #ffffff; stroke-width: 707; stroke-opacity: 1.000; fill: none; fill-opacity: 1.000;}</style></defs><g stroke-linecap="round" stroke-linejoin="round" fill-rule="evenodd"><path d="M 343737 18812 l -343737 -0" class="C1" /><path d="M 343737 24441 l -328131 0" class="C2" /><path d="M 343737 37552 l -339446 -0" class="C2" /><path d="M 343737 22348 l -339446 -0" class="C2" /><path d="M 343737 72 l -339446 0" class="C2" /><path d="M 4291 37552 l 0 -37481" class="C2" /><path d="M 343737 15276 l -339446 -0" class="C2" /><path d="M 15365 24201 l -11074 0" class="C2" /><path d="M 15365 13423 l -11074 0" class="C2" /><path d="M 343737 13183 l -328131 0" class="C2" /><path d="M 15606 13183 l 0 11258" class="C2" /><path d="M 15365 13423 l 240 -240" class="C2" /><path d="M 15365 13423 l 0 10777" class="C2" /><path d="M 15365 24201 l 240 240" class="C2" /><path d="M 4291 24201 l 0 -10777" class="C2" /><path d="M 671869 18812 l -343737 0" class="C1" /><path d="M 671869 15276 l -339446 0" class="C2" /><path d="M 671869 22348 l -339446 -0" class="C2" /><path d="M 671869 72 l -339446 0" class="C2" /><path d="M 671869 37552 l -339446 -0" class="C2" /><path d="M 671869 24441 l -328131 0" class="C2" /><path d="M 671869 37552 l 0 -37481" class="C2" /><path d="M 343497 24201 l -11074 0" class="C2" /><path d="M 343497 13423 l -11074 0" class="C2" /><path d="M 671869 13183 l -328131 -0" class="C2" /><path d="M 343737 13183 l 0 11258" class="C2" /><path d="M 343497 13423 l 0 10777" class="C2" /><path d="M 343497 13423 l 240 -240" class="C2" /><path d="M 343497 24201 l 240 240" class="C2" /><path d="M 332422 24201 l 0 -10777" class="C2" /><path d="M 343737 13183 l 0 11258" class="C2" /><path d="M 671869 24441 l 0 -11258" class="C2" /><path d="M 332422 37552 l 0 -37481" class="C2" /><path d="M 343737 37552 l 0 -37481" class="C2" /><path d="M 1000000 18812 l -343737 0" class="C1" /><path d="M 1000000 15276 l -339446 0" class="C2" /><path d="M 1000000 22348 l -339446 0" class="C2" /><path d="M 1000000 72 l -339446 0" class="C2" /><path d="M 1000000 37552 l -339446 -0" class="C2" /><path d="M 1000000 24441 l -328131 0" class="C2" /><path d="M 660554 37552 l 0 -37481" class="C2" /><path d="M 1000000 37552 l 0 -37481" class="C2" /><path d="M 671628 24201 l -11074 0" class="C2" /><path d="M 671628 13423 l -11074 0" class="C2" /><path d="M 1000000 13183 l -328131 -0" class="C2" /><path d="M 671869 13183 l 0 11258" class="C2" /><path d="M 671628 13423 l 0 10777" class="C2" /><path d="M 671628 13423 l 240 -240" class="C2" /><path d="M 671628 24201 l 240 240" class="C2" /><path d="M 660554 24201 l 0 -10777" class="C2" /><path d="M 1000000 24441 l 0 -11258" class="C2" /></g></svg>