<?xml version='1.0' encoding='utf-8'?>
<svg xmlns="http://www.w3.org/2000/svg" width="237.5mm" height="13.3mm" viewBox="0 0 1000000 56000"><defs><style>.C1 {stroke: #ffff00; stroke-width: 1053; stroke-opacity: 1.000; fill: none; fill-opacity: 1.000;}</style><style>.C2 {stroke: #ffffff; stroke-width: 1053; stroke-opacity: 1.000; fill: none; fill-opacity: 1.000;}</style></defs><g stroke-linecap="round" stroke-linejoin="round" fill-rule="evenodd"><path d="M 511614 28000 l -511614 -0" class="C1" /><path d="M 511614 36378 l -488386 0" class="C2" /><path d="M 511614 55893 l -505227 -0" class="C2" /><path d="M 511614 33263 l -505227 -0" class="C2" /><path d="M 511614 107 l -505227 0" class="C2" /><path d="M 6386 55893 l 0 -55786" class="C2" /><path d="M 511614 22737 l -505227 -0" class="C2" /><path d="M 22869 36020 l -16483 0" class="C2" /><path d="M 22869 19980 l -16483 0" class="C2" /><path d="M 511614 19622 l -488386 0" class="C2" /><path d="M 23227 19622 l 0 16757" class="C2" /><path d="M 22869 19980 l 358 -358" class="C2" /><path d="M 22869 19980 l 0 16041" class="C2" /><path d="M 22869 36020 l 358 358" class="C2" /><path d="M 6386 36020 l 0 -16041" class="C2" /><path d="M 1000000 28000 l -511614 0" class="C1" /><path d="M 1000000 22737 l -505227 0" class="C2" /><path d="M 1000000 33263 l -505227 -0" class="C2" /><path d="M 1000000 107 l -505227 0" class="C2" /><path d="M 1000000 55893 l -505227 -0" class="C2" /><path d="M 1000000 36378 l -488386 0" class="C2" /><path d="M 1000000 55893 l 0 -55786" class="C2" /><path d="M 511256 36020 l -16483 0" class="C2" /><path d="M 511256 19980 l -16483 0" class="C2" /><path d="M 1000000 19622 l -488386 -0" class="C2" /><path d="M 511614 19622 l 0 16757" class="C2" /><path d="M 511256 19980 l 0 16041" class="C2" /><path d="M 511256 19980 l 358 -358" class="C2" /><path d="M 511256 36020 l 358 358" class="C2" /><path d="M 494773 36020 l 0 -16041" class="C2" /><path d="M 511614 19622 l 0 16757" class="C2" /><path d="M 1000000 36378 l 0 -16757" class="C2" /><path d="M 494773 55893 l 0 -55786" class="C2" /><path d="M 511614 55893 l 0 -55786" class="C2" /></g></svg>