<?xml version='1.0' encoding='utf-8'?>
<svg xmlns="http://www.w3.org/2000/svg" width="495.4mm" height="18.5mm" viewBox="0 0 1000000 37344"><defs><style>.C1 {stroke: #ffff00; stroke-width: 505; stroke-opacity: 1.000; fill: none; fill-opacity: 1.000;}</style><style>.C2 {stroke: #ff0000; stroke-width: 505; stroke-opacity: 1.000; fill: none; fill-opacity: 1.000;}</style><style>.C3 {stroke: #ffffff; stroke-width: 505; stroke-opacity: 1.000; fill: none; fill-opacity: 1.000;}</style><style>.C4 {stroke: #bf7fff; stroke-width: 505; stroke-opacity: 1.000; fill: none; fill-opacity: 1.000;}</style><style>.C5 {stroke: #00ff00; stroke-width: 505; stroke-opacity: 1.000; fill: none; fill-opacity: 1.000;}</style></defs><g stroke-linecap="round" stroke-linejoin="round" fill-rule="evenodd"><path d="M 52767 20574 l 244998 -0" class="C1" /><path d="M 52767 24586 l 233875 0" class="C2" /><path d="M 52767 33931 l 241940 -0" class="C2" /><path d="M 52767 23094 l 241940 -0" class="C2" /><path d="M 52767 7217 l 241940 0" class="C2" /><path d="M 294707 33931 l 0 -26714" class="C2" /><path d="M 52767 18054 l 241940 -0" class="C2" /><path d="M 286814 24415 l 7893 0" class="C2" /><path d="M 286814 16733 l 7893 0" class="C2" /><path d="M 52767 16562 l 233875 0" class="C2" /><path d="M 286642 16562 l 0 8024" class="C2" /><path d="M 286814 16733 l -171 -171" class="C2" /><path d="M 286814 16733 l 0 7682" class="C2" /><path d="M 286814 24415 l -171 171" class="C2" /><path d="M 294707 24415 l 0 -7682" class="C2" /><path d="M 52767 33931 l 0 -26714" class="C2" /><path d="M 52767 24586 l 0 -8024" class="C2" /><path d="M 754393 20574 l 244998 -0" class="C1" /><path d="M 754393 24586 l 233875 0" class="C3" /><path d="M 754393 33931 l 241940 -0" class="C3" /><path d="M 754393 23094 l 241940 -0" class="C3" /><path d="M 754393 7217 l 241940 0" class="C3" /><path d="M 996332 33931 l 0 -26714" class="C3" /><path d="M 754393 18054 l 241940 -0" class="C3" /><path d="M 988439 24415 l 7893 0" class="C3" /><path d="M 988439 16733 l 7893 0" class="C3" /><path d="M 754393 16562 l 233875 0" class="C3" /><path d="M 988268 16562 l 0 8024" class="C3" /><path d="M 988439 16733 l -171 -171" class="C3" /><path d="M 988439 16733 l 0 7682" class="C3" /><path d="M 988439 24415 l -171 171" class="C3" /><path d="M 996332 24415 l 0 -7682" class="C3" /><path d="M 520518 20574 l 244998 0" class="C1" /><path d="M 520518 18054 l 241940 0" class="C3" /><path d="M 520518 23094 l 241940 -0" class="C3" /><path d="M 520518 7217 l 241940 0" class="C3" /><path d="M 520518 33931 l 241940 -0" class="C3" /><path d="M 520518 24586 l 233875 0" class="C3" /><path d="M 520518 33931 l 0 -26714" class="C3" /><path d="M 754564 24415 l 7893 0" class="C3" /><path d="M 754564 16733 l 7893 0" class="C3" /><path d="M 520518 16562 l 233875 -0" class="C3" /><path d="M 754393 16562 l 0 8024" class="C3" /><path d="M 754564 16733 l 0 7682" class="C3" /><path d="M 754564 16733 l -171 -171" class="C3" /><path d="M 754564 24415 l -171 171" class="C3" /><path d="M 762457 24415 l 0 -7682" class="C3" /><path d="M 754393 16562 l 0 8024" class="C3" /><path d="M 520518 24586 l 0 -8024" class="C3" /><path d="M 762457 33931 l 0 -26714" class="C3" /><path d="M 754393 33931 l 0 -26714" class="C3" /><path d="M 286642 20574 l 244998 0" class="C1" /><path d="M 286642 18054 l 241940 0" class="C3" /><path d="M 286642 23094 l 241940 0" class="C3" /><path d="M 286642 7217 l 241940 0" class="C3" /><path d="M 286642 33931 l 241940 -0" class="C3" /><path d="M 286642 24586 l 233875 0" class="C3" /><path d="M 528582 33931 l 0 -26714" class="C3" /><path d="M 286642 33931 l 0 -26714" class="C3" /><path d="M 520689 24415 l 7893 0" class="C3" /><path d="M 520689 16733 l 7893 0" class="C3" /><path d="M 286642 16562 l 233875 -0" class="C3" /><path d="M 520518 16562 l 0 8024" class="C3" /><path d="M 520689 16733 l 0 7682" class="C3" /><path d="M 520689 16733 l -171 -171" class="C3" /><path d="M 520689 24415 l -171 171" class="C3" /><path d="M 528582 24415 l 0 -7682" class="C3" /><path d="M 286642 24586 l 0 -8024" class="C3" /><path d="M 3296 20574 l 58465 0" class="C1" /><path d="M 28528 13758 c 80 -23 136 -97 136 -181" class="C4" /><path d="M 28663 11255 c 0 -84 -55 -157 -136 -181" class="C4" /><path d="M 37223 13577 c 0 71 40 136 104 168 c 64 32 140 25 197 -17" class="C4" /><path d="M 37524 11104 c -57 -43 -133 -49 -197 -17 c -64 32 -104 97 -104 168" class="C4" /><path d="M 28726 13483 c -35 0 -63 28 -63 63" class="C4" /><path d="M 28663 11286 c 0 35 28 63 63 63" class="C4" /><path d="M 37223 13546 c 0 -35 -28 -63 -63 -63" class="C4" /><path d="M 37161 11349 c 35 0 63 -28 63 -63" class="C4" /><path d="M 35466 13483 l 1694 0" class="C4" /><path d="M 37161 11349 l -1694 0" class="C4" /><path d="M 28726 13483 l 1694 0" class="C4" /><path d="M 30420 11349 l -1694 0" class="C4" /><path d="M 30420 13357 l 5046 0" class="C4" /><path d="M 35466 11475 l -5046 0" class="C4" /><path d="M 6760 22269 l 73 0" class="C4" /><path d="M 6832 18880 l -73 0" class="C4" /><path d="M 6446 22141 l 188 0" class="C4" /><path d="M 6634 19008 l -188 0" class="C4" /><path d="M 6634 21955 l 126 0" class="C4" /><path d="M 6760 19194 l -126 0" class="C4" /><path d="M 6446 21808 c 0 -26 -16 -50 -41 -59" class="C4" /><path d="M 6405 19400 c 25 -9 41 -33 41 -59" class="C4" /><path d="M 6405 19400 l -701 257" class="C4" /><path d="M 5703 21492 l 701 257" class="C4" /><path d="M 5703 21492 c -7 -3 -14 -4 -22 -4" class="C4" /><path d="M 5682 19661 c 7 0 15 -1 22 -4" class="C4" /><path d="M 4940 21488 l 742 0" class="C4" /><path d="M 5682 19661 l -742 0" class="C4" /><path d="M 4940 19721 l -1004 0" class="C4" /><path d="M 3936 21428 l 1004 0" class="C4" /><path d="M 2367 19727 l -1506 0" class="C4" /><path d="M 860 21422 l 1506 0" class="C4" /><path d="M 860 19727 l -251 251" class="C4" /><path d="M 609 21171 l 251 251" class="C4" /><path d="M 5191 7835 l 251 0" class="C4" /><path d="M 5442 6203 l -251 0" class="C4" /><path d="M 4940 7584 c 0 139 112 251 251 251" class="C4" /><path d="M 5191 6203 c -139 0 -251 112 -251 251" class="C4" /><path d="M 6320 7709 l 377 0" class="C4" /><path d="M 6697 6329 l -377 0" class="C4" /><path d="M 6832 6078 l -10 0" class="C4" /><path d="M 6822 7960 l 10 0" class="C4" /><path d="M 3157 26747 c -55 0 -100 45 -100 100" class="C4" /><path d="M 3057 34555 c 0 55 45 100 100 100" class="C4" /><path d="M 3157 34655 l 2912 0" class="C4" /><path d="M 6069 26747 l -2912 0" class="C4" /><path d="M 6290 26494 l -221 0" class="C4" /><path d="M 6069 34909 l 218 0" class="C4" /><path d="M 28528 16390 c 95 119 239 188 392 188" class="C4" /><path d="M 28919 24571 c -136 0 -267 56 -362 154" class="C4" /><path d="M 37600 16578 l -8681 0" class="C5" /><path d="M 52767 16578 l -6130 0" class="C5" /><path d="M 28919 24571 l 23848 0" class="C5" /><path d="M 52767 24571 l 171 -171" class="C5" /><path d="M 52938 16748 l -171 -171" class="C5" /><path d="M 60800 16748 l -7862 0" class="C5" /><path d="M 52938 24400 l 7862 0" class="C5" /><path d="M 28528 36946 l 0 -4809" class="C4" /><path d="M 6832 32137 l 0 4809" class="C4" /><path d="M 6832 398 l 0 4809" class="C4" /><path d="M 28528 5207 l 0 -4809" class="C4" /><path d="M 6832 26346 l -8 0" class="C4" /><path d="M 28794 16078 l -131 0" class="C4" /><path d="M 28794 16078 l 0 319" class="C4" /><path d="M 28794 16397 l -261 0" class="C4" /><path d="M 28794 15698 l -131 0" class="C4" /><path d="M 28794 15698 l 0 380" class="C4" /><path d="M 28794 15637 l -131 0" class="C4" /><path d="M 28794 15637 l 0 61" class="C4" /><path d="M 28794 25547 l -266 0" class="C4" /><path d="M 28794 25538 l 0 8" class="C4" /><path d="M 28663 15694 l -136 0" class="C4" /><path d="M 28663 15694 l 0 382" class="C4" /><path d="M 28663 16076 l -136 0" class="C4" /><path d="M 28663 16391 l -136 0" class="C4" /><path d="M 28663 16076 l 0 315" class="C4" /><path d="M 28663 15627 l -136 0" class="C4" /><path d="M 28663 15627 l 0 67" class="C4" /><path d="M 28794 24951 l -266 0" class="C4" /><path d="M 28794 24951 l 0 407" class="C4" /><path d="M 28794 25358 l -266 0" class="C4" /><path d="M 28794 24724 l -266 0" class="C4" /><path d="M 28794 24724 l 0 227" class="C4" /><path d="M 28794 25538 l -266 0" class="C4" /><path d="M 28794 25358 l 0 180" class="C4" /><path d="M 28794 20387 l -266 0" class="C4" /><path d="M 28794 20387 l 0 407" class="C4" /><path d="M 28794 20794 l -266 0" class="C4" /><path d="M 28794 20159 l -266 0" class="C4" /><path d="M 28794 20159 l 0 227" class="C4" /><path d="M 28794 20973 l -266 0" class="C4" /><path d="M 28794 20794 l 0 180" class="C4" /><path d="M 37524 12959 l 9225 0" class="C4" /><path d="M 37524 12959 l 0 -3012" class="C4" /><path d="M 37524 9947 l 9225 0" class="C4" /><path d="M 46750 12959 l 0 -3012" class="C4" /><path d="M 37524 13963 l 0 -1004" class="C4" /><path d="M 46750 13963 l 0 -1004" class="C4" /><path d="M 37524 13963 l 9225 0" class="C4" /><path d="M 46665 16578 l 0 -2614" class="C4" /><path d="M 46750 16578 l 0 -2614" class="C4" /><path d="M 37524 16578 l 0 -2614" class="C4" /><path d="M 37600 20575 l 9037 0" class="C4" /><path d="M 37600 20575 l 0 -6527" class="C4" /><path d="M 37600 14048 l 9037 0" class="C4" /><path d="M 46637 20575 l 0 -6527" class="C4" /><path d="M 46553 14048 l 0 -84" class="C4" /><path d="M 37684 13963 l 0 84" class="C4" /><path d="M 46637 14048 l 0 -84" class="C4" /><path d="M 37600 14048 l 0 -84" class="C4" /><path d="M 28663 12416 l 0 -1161" class="C4" /><path d="M 28663 13577 l 0 -1161" class="C4" /><path d="M 37223 12416 l 0 -1161" class="C4" /><path d="M 37223 13577 l 0 -1161" class="C4" /><path d="M 35466 12416 l 0 -1067" class="C4" /><path d="M 35466 13483 l 0 -1067" class="C4" /><path d="M 30420 12416 l 0 -1067" class="C4" /><path d="M 30420 13483 l 0 -1067" class="C4" /><path d="M 6760 22269 l 0 -3389" class="C4" /><path d="M 6446 22141 l 0 -3133" class="C4" /><path d="M 6634 22141 l 0 -3133" class="C4" /><path d="M 2367 20606 l 1569 0" class="C4" /><path d="M 2367 20606 l 0 -63" class="C4" /><path d="M 2367 20543 l 1569 0" class="C4" /><path d="M 3936 20606 l 0 -63" class="C4" /><path d="M 2367 19682 l 1569 0" class="C4" /><path d="M 2367 20543 l 0 -861" class="C4" /><path d="M 3936 20543 l 0 -861" class="C4" /><path d="M 2367 21467 l 1569 0" class="C4" /><path d="M 2367 21467 l 0 -861" class="C4" /><path d="M 3936 21467 l 0 -861" class="C4" /><path d="M 4940 21488 l 0 -1828" class="C4" /><path d="M 860 19727 l 0 1694" class="C4" /><path d="M 609 21171 l 0 -1192" class="C4" /><path d="M 2367 21499 l 1569 0" class="C4" /><path d="M 2367 21499 l 0 -31" class="C4" /><path d="M 3936 21499 l 0 -31" class="C4" /><path d="M 2367 19651 l 1569 0" class="C4" /><path d="M 2367 19682 l 0 -31" class="C4" /><path d="M 3936 19682 l 0 -31" class="C4" /><path d="M 6812 7073 l -115 0" class="C4" /><path d="M 6832 7793 l -136 0" class="C4" /><path d="M 6697 7073 l 0 720" class="C4" /><path d="M 6320 7073 l -879 0" class="C4" /><path d="M 6320 7073 l 0 720" class="C4" /><path d="M 6320 7793 l -879 0" class="C4" /><path d="M 5442 7073 l 0 720" class="C4" /><path d="M 6320 6965 l -879 0" class="C4" /><path d="M 5442 6965 l 0 109" class="C4" /><path d="M 6320 6965 l 0 109" class="C4" /><path d="M 6812 6965 l -115 0" class="C4" /><path d="M 6697 6965 l 0 109" class="C4" /><path d="M 6320 6244 l -879 0" class="C4" /><path d="M 5442 6244 l 0 720" class="C4" /><path d="M 6320 6244 l 0 720" class="C4" /><path d="M 6832 6244 l -136 0" class="C4" /><path d="M 6697 6244 l 0 720" class="C4" /><path d="M 4940 7019 l 0 -565" class="C4" /><path d="M 4940 7584 l 0 -565" class="C4" /><path d="M 6832 7848 l -136 0" class="C4" /><path d="M 6697 7793 l 0 54" class="C4" /><path d="M 6320 7848 l -879 0" class="C4" /><path d="M 5442 7793 l 0 54" class="C4" /><path d="M 6320 7793 l 0 54" class="C4" /><path d="M 6832 6190 l -136 0" class="C4" /><path d="M 6697 6190 l 0 54" class="C4" /><path d="M 6320 6190 l -879 0" class="C4" /><path d="M 5442 6190 l 0 54" class="C4" /><path d="M 6320 6190 l 0 54" class="C4" /><path d="M 6832 27455 l -763 0" class="C4" /><path d="M 6832 33954 l -763 0" class="C4" /><path d="M 6069 33954 l 0 -6498" class="C4" /><path d="M 3057 34555 l 0 -7707" class="C4" /><path d="M 6069 27455 l 753 -918" class="C4" /><path d="M 6832 26537 l -10 0" class="C4" /><path d="M 6069 26763 l 753 -918" class="C4" /><path d="M 6822 25845 l 0 94" class="C4" /><path d="M 6822 25940 l -706 859" class="C4" /><path d="M 6117 27303 c 28 -167 28 -337 -0 -504" class="C4" /><path d="M 6117 27303 l 705 -860" class="C4" /><path d="M 6822 26443 l 0 94" class="C4" /><path d="M 6069 26763 l 0 692" class="C4" /><path d="M 6832 25940 l -10 0" class="C4" /><path d="M 6832 25845 l -10 0" class="C4" /><path d="M 6832 26443 l -10 0" class="C4" /><path d="M 6822 35468 l 0 94" class="C4" /><path d="M 6822 34967 l -706 -863" class="C4" /><path d="M 6117 34607 c 28 -166 28 -336 -0 -503" class="C4" /><path d="M 6117 34607 l 705 861" class="C4" /><path d="M 6069 34642 l 753 920" class="C4" /><path d="M 6528 34607 l -411 0" class="C4" /><path d="M 6531 26799 l -414 0" class="C4" /><path d="M 6069 26764 l 0 -270" class="C4" /><path d="M 6069 34909 l 0 -266" class="C4" /><path d="M 52767 16578 l 0 7993" class="C5" /><path d="M 52938 16748 l 0 7651" class="C5" /><path d="M 60800 16748 l 0 7651" class="C5" /><path d="M 6832 31932 l 0 -8923" class="C4" /><path d="M 7146 32358 l 0 -426" class="C4" /><path d="M 6832 32137 c 29 145 167 242 313 222" class="C4" /><path d="M 6832 32137 c 0 -3 0 -7 0 -10 c 0 -3 0 -7 0 -11 c 0 -4 0 -7 0 -11 c 0 -4 0 -8 0 -12 c 0 -4 0 -8 0 -12 c 0 -4 0 -8 0 -12 c 0 -4 0 -8 0 -13 c 0 -4 0 -9 0 -13 c 0 -9 0 -18 0 -27 c 0 -9 0 -18 0 -27 c 0 -9 0 -19 0 -28 c 0 -9 0 -19 0 -29" class="C4" /><path d="M 28214 32358 l 0 -426" class="C4" /><path d="M 7146 32358 l 21069 0" class="C4" /><path d="M 28528 31932 c 0 -2834 0 -5667 0 -8923" class="C4" /><path d="M 28528 32137 c -0 -3 -0 -6 -0 -9 c 0 -3 0 -6 -0 -10 c -0 -3 -0 -7 -0 -10 c -0 -3 -0 -7 -0 -10 c -0 -4 -0 -7 -0 -11 c -0 -2 0 -5 0 -7 c 0 -7 0 -14 0 -21 c 0 -5 0 -10 0 -15 c -0 -5 -0 -10 -0 -15 c -0 -8 -0 -15 -0 -23 c -0 -8 -0 -16 -0 -24 c 0 -8 0 -16 0 -24 c 0 -8 0 -16 0 -24" class="C4" /><path d="M 28214 32358 c 147 21 284 -76 313 -222" class="C4" /><path d="M 28528 36946 l 0 -4809" class="C4" /><path d="M 6832 36946 l 0 -4809" class="C4" /><path d="M 28528 37030 c -0 -0 -0 -0 -0 -0 c 0 -0 0 -0 -0 -1 c -0 -0 -0 -1 -0 -1 c -0 -1 -0 -1 -0 -2 c -0 -1 -0 -2 -0 -3 c -0 -1 0 -1 0 -2 c 0 -2 0 -4 0 -7 c 0 -2 0 -4 0 -6 c -0 -2 -0 -4 -0 -7 c -0 -4 -0 -7 -0 -11 c -0 -4 -0 -9 -0 -13 c 0 -5 0 -10 0 -15 c 0 -5 0 -11 0 -16" class="C4" /><path d="M 6832 37030 c 0 -0 0 -0 0 -0 c 0 -0 0 -1 0 -1 c 0 -0 0 -1 0 -2 c 0 -1 0 -1 0 -2 c 0 -1 0 -2 0 -3 c 0 -1 0 -2 0 -4 c 0 -1 0 -3 0 -4 c 0 -2 0 -3 0 -5 c 0 -4 0 -8 0 -12 c 0 -4 0 -9 0 -15 c 0 -5 0 -11 0 -17 c 0 -6 0 -13 0 -19" class="C4" /><path d="M 6832 37030 c -0 83 33 163 92 222 c 59 59 138 92 222 92" class="C4" /><path d="M 28214 37344 l -21069 0" class="C4" /><path d="M 28214 37344 c 173 0 313 -140 313 -313" class="C4" /><path d="M 28528 5411 l 0 8501" class="C4" /><path d="M 28214 4985 l 0 426" class="C4" /><path d="M 28528 5207 c -29 -145 -167 -242 -313 -222" class="C4" /><path d="M 28528 5207 c 0 30 0 60 0 94 c 0 34 0 72 0 111" class="C4" /><path d="M 7146 4985 l 0 426" class="C4" /><path d="M 28214 4985 l -21069 0" class="C4" /><path d="M 6832 5411 c -0 354 0 708 0 1063 c 0 354 0 708 0 1063 c 0 354 0 708 0 1063 c 0 354 0 708 0 1063 c -0 354 0 708 0 1063 c 0 354 0 708 0 1063 c -0 354 -0 708 0 1063 c 0 354 0 708 0 1063" class="C4" /><path d="M 6832 5207 c 0 30 0 60 0 94 c 0 34 0 73 0 111" class="C4" /><path d="M 7146 4985 c -147 -21 -284 76 -313 222" class="C4" /><path d="M 6832 398 l 0 4809" class="C4" /><path d="M 28528 398 l 0 4809" class="C4" /><path d="M 6832 313 c 0 4 0 8 0 22 c 0 14 0 38 0 63" class="C4" /><path d="M 28528 313 c 0 4 0 8 0 22 c 0 14 0 38 0 63" class="C4" /><path d="M 7146 0 l 21069 0" class="C4" /><path d="M 28528 313 c 0 -83 -33 -163 -92 -222 c -59 -59 -138 -92 -222 -92" class="C4" /><path d="M 7146 0 c -173 0 -313 140 -313 313" class="C4" /><path d="M 8241 24211 l 0 -1201" class="C4" /><path d="M 8241 13912 l 0 -779" class="C4" /><path d="M 8271 18771 l 0 -139" class="C4" /><path d="M 8271 18632 l 0 -59" class="C4" /><path d="M 8271 18573 c -6 -48 -16 -96 -30 -143" class="C4" /><path d="M 8241 18430 l 0 -4517" class="C4" /><path d="M 8241 23010 l 0 -4096" class="C4" /><path d="M 8241 18914 c 14 -48 24 -96 30 -143" class="C4" /><path d="M 27089 18573 l 0 59" class="C4" /><path d="M 27089 18632 l 0 139" class="C4" /><path d="M 27089 18771 c 6 48 16 96 30 143" class="C4" /><path d="M 27119 18914 l 0 4096" class="C4" /><path d="M 27119 13912 l 0 4517" class="C4" /><path d="M 27119 18430 c -14 48 -24 96 -30 143" class="C4" /><path d="M 27119 13133 l 0 779" class="C4" /><path d="M 27119 23010 l 0 1201" class="C4" /><path d="M 8645 12829 l 18070 0" class="C4" /><path d="M 8645 24515 l 18070 0" class="C4" /><path d="M 26715 24515 c 237 -0 404 -125 404 -304" class="C4" /><path d="M 27119 13133 c -0 -179 -166 -304 -404 -304" class="C4" /><path d="M 8241 24211 c 0 179 166 304 404 304" class="C4" /><path d="M 8645 12829 c -237 0 -404 125 -404 304" class="C4" /><path d="M 28214 13912 l 0 9097" class="C4" /><path d="M 7146 23010 l 0 -9097" class="C4" /><path d="M 28528 23010 l 0 -9097" class="C4" /><path d="M 6832 13912 l 0 9097" class="C4" /><path d="M 28528 26929 l 20 0" class="C4" /><path d="M 28548 26765 l -20 0" class="C4" /><path d="M 28548 26765 l 0 164" class="C4" /><path d="M 28548 27030 l -20 0" class="C4" /><path d="M 28548 27030 l 0 164" class="C4" /><path d="M 28528 27194 l 20 0" class="C4" /><path d="M 28528 27029 l 20 0" class="C4" /><path d="M 28548 27030 l 0 -1" class="C4" /><path d="M 28528 26764 l 20 0" class="C4" /><path d="M 28548 26764 l 0 0" class="C4" /><path d="M 6825 34967 l 0 96" class="C4" /><path d="M 6624 34791 l 54 0" class="C4" /><path d="M 6624 34791 l 0 -66" class="C4" /><path d="M 6825 35009 l -201 0" class="C4" /><path d="M 6624 35009 l 0 -219" class="C4" /><path d="M 6825 26346 l 0 97" class="C4" /><path d="M 6664 26468 l -40 0" class="C4" /><path d="M 6664 26468 l 0 -51" class="C4" /><path d="M 6825 26417 l -161 0" class="C4" /><path d="M 6624 26635 l 41 0" class="C4" /><path d="M 6624 26635 l 0 -167" class="C4" /><path d="M 6624 26685 l 0 -50" class="C4" /><path d="M 6624 26413 l 40 0" class="C4" /><path d="M 6624 26413 l 0 -13" class="C4" /><path d="M 6825 26400 l -201 0" class="C4" /><path d="M 6664 26417 l 0 -4" class="C4" /><path d="M 6624 26413 l 0 55" class="C4" /><path d="M 6832 6860 l -20 0" class="C4" /><path d="M 6832 7027 l -20 0" class="C4" /><path d="M 6812 7027 l 0 -167" class="C4" /><path d="M 6832 7246 l -20 0" class="C4" /><path d="M 6812 7246 l 0 -219" class="C4" /><path d="M 6812 6805 l 20 0" class="C4" /><path d="M 6812 6805 l 0 -13" class="C4" /><path d="M 6832 6792 l -20 0" class="C4" /><path d="M 6812 6805 l 0 55" class="C4" /><path d="M 6832 10374 l -20 0" class="C4" /><path d="M 6832 10541 l -20 0" class="C4" /><path d="M 6812 10541 l 0 -167" class="C4" /><path d="M 6832 10760 l -20 0" class="C4" /><path d="M 6812 10760 l 0 -219" class="C4" /><path d="M 6812 10319 l 20 0" class="C4" /><path d="M 6812 10319 l 0 -13" class="C4" /><path d="M 6832 10307 l -20 0" class="C4" /><path d="M 6812 10319 l 0 55" class="C4" /><path d="M 10400 23180 c 0 144 117 261 261 261" class="C4" /><path d="M 10400 14163 l 0 9017" class="C4" /><path d="M 10661 13902 c -144 0 -261 117 -261 261" class="C4" /><path d="M 24699 13902 l -14038 0" class="C4" /><path d="M 24960 14163 c 0 -144 -117 -261 -261 -261" class="C4" /><path d="M 24960 23190 l 0 -9027" class="C4" /><path d="M 24709 23441 c 139 0 251 -112 251 -251" class="C4" /><path d="M 10661 23441 l 14048 0" class="C4" /><path d="M 28726 12416 l 0 -1067" class="C4" /><path d="M 28726 13483 l 0 -1067" class="C4" /><path d="M 37161 12416 l 0 -1067" class="C4" /><path d="M 37161 13483 l 0 -1067" class="C4" /><path d="M 6405 21749 l 0 -2350" class="C4" /><path d="M 5703 21492 l 0 -1835" class="C4" /><path d="M 5682 21488 l 0 -1828" class="C4" /><path d="M 5191 7019 l 0 -816" class="C4" /><path d="M 5191 7835 l 0 -816" class="C4" /><path d="M 28919 16578 l 0 7993" class="C4" /><path d="M 7146 23010 l 0 8923" class="C4" /><path d="M 28214 31932 l 0 -8923" class="C4" /><path d="M 28214 13912 l 0 -8501" class="C4" /><path d="M 7146 5411 l 0 8501" class="C4" /></g></svg>