<?xml version='1.0' encoding='utf-8'?>
<svg xmlns="http://www.w3.org/2000/svg" width="585.5mm" height="13.3mm" viewBox="0 0 1000000 22716"><defs><style>.C1 {stroke: #ffff00; stroke-width: 427; stroke-opacity: 1.000; fill: none; fill-opacity: 1.000;}</style><style>.C2 {stroke: #ffffff; stroke-width: 427; stroke-opacity: 1.000; fill: none; fill-opacity: 1.000;}</style></defs><g stroke-linecap="round" stroke-linejoin="round" fill-rule="evenodd"><path d="M 207538 11358 l -207538 -0" class="C1" /><path d="M 207538 14757 l -198116 0" class="C2" /><path d="M 207538 22673 l -204947 -0" class="C2" /><path d="M 207538 13493 l -204947 -0" class="C2" /><path d="M 207538 43 l -204947 0" class="C2" /><path d="M 2591 22673 l 0 -22630" class="C2" /><path d="M 207538 9223 l -204947 -0" class="C2" /><path d="M 9277 14611 l -6686 0" class="C2" /><path d="M 9277 8104 l -6686 0" class="C2" /><path d="M 207538 7959 l -198116 0" class="C2" /><path d="M 9422 7959 l 0 6797" class="C2" /><path d="M 9277 8104 l 145 -145" class="C2" /><path d="M 9277 8104 l 0 6507" class="C2" /><path d="M 9277 14611 l 145 145" class="C2" /><path d="M 2591 14611 l 0 -6507" class="C2" /><path d="M 405653 11358 l -207538 0" class="C1" /><path d="M 405653 9223 l -204947 0" class="C2" /><path d="M 405653 13493 l -204947 -0" class="C2" /><path d="M 405653 43 l -204947 0" class="C2" /><path d="M 405653 22673 l -204947 -0" class="C2" /><path d="M 405653 14757 l -198116 0" class="C2" /><path d="M 405653 22673 l 0 -22630" class="C2" /><path d="M 207393 14611 l -6686 0" class="C2" /><path d="M 207393 8104 l -6686 0" class="C2" /><path d="M 405653 7959 l -198116 -0" class="C2" /><path d="M 207538 7959 l 0 6797" class="C2" /><path d="M 207393 8104 l 0 6507" class="C2" /><path d="M 207393 8104 l 145 -145" class="C2" /><path d="M 207393 14611 l 145 145" class="C2" /><path d="M 200706 14611 l 0 -6507" class="C2" /><path d="M 207538 7959 l 0 6797" class="C2" /><path d="M 405653 14757 l 0 -6797" class="C2" /><path d="M 200706 22673 l 0 -22630" class="C2" /><path d="M 207538 22673 l 0 -22630" class="C2" /><path d="M 801884 11358 l -207538 -0" class="C1" /><path d="M 801884 9223 l -204947 -0" class="C2" /><path d="M 801884 13493 l -204947 -0" class="C2" /><path d="M 801884 43 l -204947 0" class="C2" /><path d="M 801884 22673 l -204947 -0" class="C2" /><path d="M 801884 14757 l -198116 0" class="C2" /><path d="M 596937 22673 l 0 -22630" class="C2" /><path d="M 603624 14611 l -6686 0" class="C2" /><path d="M 603624 8104 l -6686 0" class="C2" /><path d="M 801884 7959 l -198116 0" class="C2" /><path d="M 603769 7959 l 0 6797" class="C2" /><path d="M 603624 8104 l 0 6507" class="C2" /><path d="M 603624 8104 l 145 -145" class="C2" /><path d="M 603624 14611 l 145 145" class="C2" /><path d="M 596937 14611 l 0 -6507" class="C2" /><path d="M 1000000 11358 l -207538 -0" class="C1" /><path d="M 1000000 9223 l -204947 -0" class="C2" /><path d="M 1000000 13493 l -204947 -0" class="C2" /><path d="M 1000000 43 l -204947 0" class="C2" /><path d="M 1000000 22673 l -204947 -0" class="C2" /><path d="M 1000000 14757 l -198116 0" class="C2" /><path d="M 1000000 22673 l 0 -22630" class="C2" /><path d="M 801739 14611 l -6686 0" class="C2" /><path d="M 801739 8104 l -6686 0" class="C2" /><path d="M 1000000 7959 l -198116 -0" class="C2" /><path d="M 801884 7959 l 0 6797" class="C2" /><path d="M 801739 8104 l 0 6507" class="C2" /><path d="M 801739 8104 l 145 -145" class="C2" /><path d="M 801739 14611 l 145 145" class="C2" /><path d="M 795053 14611 l 0 -6507" class="C2" /><path d="M 801884 7959 l 0 6797" class="C2" /><path d="M 1000000 14757 l 0 -6797" class="C2" /><path d="M 795053 22673 l 0 -22630" class="C2" /><path d="M 801884 22673 l 0 -22630" class="C2" /><path d="M 603769 11358 l -207538 0" class="C1" /><path d="M 603769 9223 l -204947 0" class="C2" /><path d="M 603769 13493 l -204947 0" class="C2" /><path d="M 603769 43 l -204947 0" class="C2" /><path d="M 603769 22673 l -204947 -0" class="C2" /><path d="M 603769 14757 l -198116 0" class="C2" /><path d="M 398822 22673 l 0 -22630" class="C2" /><path d="M 603769 22673 l 0 -22630" class="C2" /><path d="M 405508 14611 l -6686 0" class="C2" /><path d="M 405508 8104 l -6686 0" class="C2" /><path d="M 603769 7959 l -198116 -0" class="C2" /><path d="M 405653 7959 l 0 6797" class="C2" /><path d="M 405508 8104 l 0 6507" class="C2" /><path d="M 405508 8104 l 145 -145" class="C2" /><path d="M 405508 14611 l 145 145" class="C2" /><path d="M 398822 14611 l 0 -6507" class="C2" /><path d="M 603769 14757 l 0 -6797" class="C2" /></g></svg>