<?xml version='1.0' encoding='utf-8'?>
<svg xmlns="http://www.w3.org/2000/svg" width="379.4mm" height="18.5mm" viewBox="0 0 1000000 48761"><defs><style>.C1 {stroke: #ffff00; stroke-width: 659; stroke-opacity: 1.000; fill: none; fill-opacity: 1.000;}</style><style>.C2 {stroke: #ff0000; stroke-width: 659; stroke-opacity: 1.000; fill: none; fill-opacity: 1.000;}</style><style>.C3 {stroke: #ffffff; stroke-width: 659; stroke-opacity: 1.000; fill: none; fill-opacity: 1.000;}</style><style>.C4 {stroke: #bf7fff; stroke-width: 659; stroke-opacity: 1.000; fill: none; fill-opacity: 1.000;}</style><style>.C5 {stroke: #00ff00; stroke-width: 659; stroke-opacity: 1.000; fill: none; fill-opacity: 1.000;}</style></defs><g stroke-linecap="round" stroke-linejoin="round" fill-rule="evenodd"><path d="M 68718 26865 l 319905 -0" class="C1" /><path d="M 68718 32103 l 305381 0" class="C2" /><path d="M 68718 44305 l 315912 -0" class="C2" /><path d="M 68718 30155 l 315912 -0" class="C2" /><path d="M 68718 9424 l 315912 0" class="C2" /><path d="M 384630 44305 l 0 -34882" class="C2" /><path d="M 68718 23574 l 315912 -0" class="C2" /><path d="M 374324 31880 l 10307 0" class="C2" /><path d="M 374324 21849 l 10307 0" class="C2" /><path d="M 68718 21626 l 305381 0" class="C2" /><path d="M 374100 21626 l 0 10478" class="C2" /><path d="M 374324 21849 l -224 -224" class="C2" /><path d="M 374324 21849 l 0 10030" class="C2" /><path d="M 374324 31880 l -224 224" class="C2" /><path d="M 384630 31880 l 0 -10030" class="C2" /><path d="M 68718 44305 l 0 -34882" class="C2" /><path d="M 68718 32103 l 0 -10478" class="C2" /><path d="M 679481 26865 l 319905 -0" class="C1" /><path d="M 679481 32103 l 305381 0" class="C3" /><path d="M 679481 44305 l 315912 -0" class="C3" /><path d="M 679481 30155 l 315912 -0" class="C3" /><path d="M 679481 9424 l 315912 0" class="C3" /><path d="M 995393 44305 l 0 -34882" class="C3" /><path d="M 679481 23574 l 315912 -0" class="C3" /><path d="M 985087 31880 l 10307 0" class="C3" /><path d="M 985087 21849 l 10307 0" class="C3" /><path d="M 679481 21626 l 305381 0" class="C3" /><path d="M 984863 21626 l 0 10478" class="C3" /><path d="M 985087 21849 l -224 -224" class="C3" /><path d="M 985087 21849 l -0 10030" class="C3" /><path d="M 985087 31880 l -224 224" class="C3" /><path d="M 995393 31880 l 0 -10030" class="C3" /><path d="M 374100 26865 l 319905 0" class="C1" /><path d="M 374100 23574 l 315912 0" class="C3" /><path d="M 374100 30155 l 315912 -0" class="C3" /><path d="M 374100 9424 l 315912 0" class="C3" /><path d="M 374100 44305 l 315912 -0" class="C3" /><path d="M 374100 32103 l 305381 0" class="C3" /><path d="M 374100 44305 l 0 -34882" class="C3" /><path d="M 679705 31880 l 10307 0" class="C3" /><path d="M 679705 21849 l 10307 0" class="C3" /><path d="M 374100 21626 l 305381 -0" class="C3" /><path d="M 679481 21626 l 0 10478" class="C3" /><path d="M 679705 21849 l 0 10030" class="C3" /><path d="M 679705 21849 l -224 -224" class="C3" /><path d="M 679705 31880 l -224 224" class="C3" /><path d="M 690012 31880 l 0 -10030" class="C3" /><path d="M 679481 21626 l 0 10478" class="C3" /><path d="M 374100 32103 l 0 -10478" class="C3" /><path d="M 690012 44305 l 0 -34882" class="C3" /><path d="M 679481 44305 l 0 -34882" class="C3" /><path d="M 4121 26865 l 76340 0" class="C1" /><path d="M 37068 17964 c 105 -31 177 -127 177 -236" class="C4" /><path d="M 37245 14696 c 0 -109 -72 -205 -177 -236" class="C4" /><path d="M 48422 17728 c 0 93 52 178 136 220 c 83 42 183 33 257 -23" class="C4" /><path d="M 48815 14499 c -75 -56 -174 -64 -257 -23 c -83 42 -136 127 -136 220" class="C4" /><path d="M 37327 17605 c -45 0 -82 37 -82 82" class="C4" /><path d="M 37245 14737 c 0 45 37 82 82 82" class="C4" /><path d="M 48422 17687 c 0 -45 -37 -82 -82 -82" class="C4" /><path d="M 48340 14819 c 45 0 82 -37 82 -82" class="C4" /><path d="M 46128 17605 l 2213 0" class="C4" /><path d="M 48340 14819 l -2213 0" class="C4" /><path d="M 37327 17605 l 2213 0" class="C4" /><path d="M 39539 14819 l -2213 0" class="C4" /><path d="M 39539 17441 l 6588 0" class="C4" /><path d="M 46128 14983 l -6588 0" class="C4" /><path d="M 8644 29078 l 95 0" class="C4" /><path d="M 8739 24653 l -95 0" class="C4" /><path d="M 8234 28911 l 246 0" class="C4" /><path d="M 8480 24820 l -246 0" class="C4" /><path d="M 8480 28668 l 164 0" class="C4" /><path d="M 8644 25062 l -164 0" class="C4" /><path d="M 8234 28476 c 0 -34 -21 -65 -54 -77" class="C4" /><path d="M 8181 25331 c 32 -12 54 -43 54 -77" class="C4" /><path d="M 8181 25331 l -916 336" class="C4" /><path d="M 7265 28063 l 916 336" class="C4" /><path d="M 7265 28063 c -9 -3 -19 -5 -28 -5" class="C4" /><path d="M 7236 25672 c 10 0 19 -2 28 -5" class="C4" /><path d="M 6268 28058 l 969 0" class="C4" /><path d="M 7236 25672 l -969 0" class="C4" /><path d="M 6268 25751 l -1311 0" class="C4" /><path d="M 4957 27980 l 1311 0" class="C4" /><path d="M 2908 25759 l -1967 0" class="C4" /><path d="M 941 27971 l 1967 0" class="C4" /><path d="M 941 25759 l -328 328" class="C4" /><path d="M 613 27644 l 328 328" class="C4" /><path d="M 6595 10230 l 328 0" class="C4" /><path d="M 6923 8100 l -328 0" class="C4" /><path d="M 6268 9903 c 0 181 147 328 328 328" class="C4" /><path d="M 6595 8100 c -181 0 -328 147 -328 328" class="C4" /><path d="M 8071 10066 l 492 0" class="C4" /><path d="M 8562 8264 l -492 0" class="C4" /><path d="M 8739 7936 l -13 0" class="C4" /><path d="M 8726 10394 l 13 0" class="C4" /><path d="M 3940 34925 c -72 0 -131 59 -131 131" class="C4" /><path d="M 3809 45120 c 0 72 59 131 131 131" class="C4" /><path d="M 3940 45251 l 3802 0" class="C4" /><path d="M 7743 34925 l -3802 0" class="C4" /><path d="M 8031 34594 l -289 0" class="C4" /><path d="M 7743 45582 l 285 0" class="C4" /><path d="M 37068 21401 c 124 155 313 245 511 245" class="C4" /><path d="M 37579 32083 c -178 0 -349 72 -472 201" class="C4" /><path d="M 48914 21646 l -11335 0" class="C5" /><path d="M 68718 21646 l -8004 0" class="C5" /><path d="M 37579 32083 l 31140 0" class="C5" /><path d="M 68718 32083 l 223 -223" class="C5" /><path d="M 68941 21869 l -223 -223" class="C5" /><path d="M 79208 21869 l -10266 0" class="C5" /><path d="M 68941 31860 l 10266 0" class="C5" /><path d="M 37068 48242 l 0 -6279" class="C4" /><path d="M 8739 41962 l 0 6279" class="C4" /><path d="M 8739 520 l 0 6279" class="C4" /><path d="M 37068 6799 l 0 -6279" class="C4" /><path d="M 8739 34401 l -10 0" class="C4" /><path d="M 37415 20993 l -170 0" class="C4" /><path d="M 37415 20993 l 0 416" class="C4" /><path d="M 37415 21410 l -340 0" class="C4" /><path d="M 37415 20497 l -170 0" class="C4" /><path d="M 37415 20497 l 0 496" class="C4" /><path d="M 37415 20418 l -170 0" class="C4" /><path d="M 37415 20418 l 0 79" class="C4" /><path d="M 37415 33358 l -347 0" class="C4" /><path d="M 37415 33347 l 0 11" class="C4" /><path d="M 37245 20492 l -177 0" class="C4" /><path d="M 37245 20492 l 0 499" class="C4" /><path d="M 37245 20991 l -177 0" class="C4" /><path d="M 37245 21402 l -177 0" class="C4" /><path d="M 37245 20991 l 0 412" class="C4" /><path d="M 37245 20405 l -177 0" class="C4" /><path d="M 37245 20405 l 0 87" class="C4" /><path d="M 37415 32580 l -347 0" class="C4" /><path d="M 37415 32580 l 0 531" class="C4" /><path d="M 37415 33112 l -347 0" class="C4" /><path d="M 37415 32284 l -347 0" class="C4" /><path d="M 37415 32284 l 0 297" class="C4" /><path d="M 37415 33347 l -347 0" class="C4" /><path d="M 37415 33112 l 0 235" class="C4" /><path d="M 37415 26620 l -347 0" class="C4" /><path d="M 37415 26620 l 0 531" class="C4" /><path d="M 37415 27151 l -347 0" class="C4" /><path d="M 37415 26323 l -347 0" class="C4" /><path d="M 37415 26323 l 0 297" class="C4" /><path d="M 37415 27386 l -347 0" class="C4" /><path d="M 37415 27151 l 0 235" class="C4" /><path d="M 48815 16922 l 12046 0" class="C4" /><path d="M 48815 16922 l 0 -3933" class="C4" /><path d="M 48815 12988 l 12046 0" class="C4" /><path d="M 60861 16922 l 0 -3933" class="C4" /><path d="M 48815 18233 l 0 -1311" class="C4" /><path d="M 60861 18233 l 0 -1311" class="C4" /><path d="M 48815 18233 l 12046 0" class="C4" /><path d="M 60751 21646 l 0 -3414" class="C4" /><path d="M 60861 21646 l 0 -3414" class="C4" /><path d="M 48815 21646 l 0 -3414" class="C4" /><path d="M 48914 26865 l 11800 0" class="C4" /><path d="M 48914 26865 l 0 -8522" class="C4" /><path d="M 48914 18343 l 11800 0" class="C4" /><path d="M 60714 26865 l 0 -8522" class="C4" /><path d="M 60604 18343 l 0 -110" class="C4" /><path d="M 49024 18233 l 0 110" class="C4" /><path d="M 60714 18343 l 0 -110" class="C4" /><path d="M 48914 18343 l 0 -110" class="C4" /><path d="M 37245 16212 l 0 -1516" class="C4" /><path d="M 37245 17728 l 0 -1516" class="C4" /><path d="M 48422 16212 l 0 -1516" class="C4" /><path d="M 48422 17728 l 0 -1516" class="C4" /><path d="M 46128 16212 l 0 -1393" class="C4" /><path d="M 46128 17605 l 0 -1393" class="C4" /><path d="M 39539 16212 l 0 -1393" class="C4" /><path d="M 39539 17605 l 0 -1393" class="C4" /><path d="M 8644 29078 l 0 -4425" class="C4" /><path d="M 8234 28911 l 0 -4091" class="C4" /><path d="M 8480 28911 l 0 -4091" class="C4" /><path d="M 2908 26906 l 2049 0" class="C4" /><path d="M 2908 26906 l 0 -82" class="C4" /><path d="M 2908 26824 l 2049 0" class="C4" /><path d="M 4957 26906 l 0 -82" class="C4" /><path d="M 2908 25700 l 2049 0" class="C4" /><path d="M 2908 26824 l 0 -1124" class="C4" /><path d="M 4957 26824 l 0 -1124" class="C4" /><path d="M 2908 28031 l 2049 0" class="C4" /><path d="M 2908 28031 l 0 -1124" class="C4" /><path d="M 4957 28031 l 0 -1124" class="C4" /><path d="M 6268 28058 l 0 -2386" class="C4" /><path d="M 941 25759 l 0 2213" class="C4" /><path d="M 613 27644 l 0 -1557" class="C4" /><path d="M 2908 28072 l 2049 0" class="C4" /><path d="M 2908 28072 l 0 -41" class="C4" /><path d="M 4957 28072 l 0 -41" class="C4" /><path d="M 2908 25659 l 2049 0" class="C4" /><path d="M 2908 25700 l 0 -41" class="C4" /><path d="M 4957 25700 l 0 -41" class="C4" /><path d="M 8713 9236 l -151 0" class="C4" /><path d="M 8739 10176 l -177 0" class="C4" /><path d="M 8562 9236 l 0 940" class="C4" /><path d="M 8071 9236 l -1147 0" class="C4" /><path d="M 8071 9236 l 0 940" class="C4" /><path d="M 8071 10176 l -1147 0" class="C4" /><path d="M 6923 9236 l 0 940" class="C4" /><path d="M 8071 9094 l -1147 0" class="C4" /><path d="M 6923 9094 l 0 142" class="C4" /><path d="M 8071 9094 l 0 142" class="C4" /><path d="M 8713 9094 l -151 0" class="C4" /><path d="M 8562 9094 l 0 142" class="C4" /><path d="M 8071 8154 l -1147 0" class="C4" /><path d="M 6923 8154 l 0 940" class="C4" /><path d="M 8071 8154 l 0 940" class="C4" /><path d="M 8739 8154 l -177 0" class="C4" /><path d="M 8562 8154 l 0 940" class="C4" /><path d="M 6268 9165 l 0 -738" class="C4" /><path d="M 6268 9903 l 0 -738" class="C4" /><path d="M 8739 10247 l -177 0" class="C4" /><path d="M 8562 10176 l 0 71" class="C4" /><path d="M 8071 10247 l -1147 0" class="C4" /><path d="M 6923 10176 l 0 71" class="C4" /><path d="M 8071 10176 l 0 71" class="C4" /><path d="M 8739 8083 l -177 0" class="C4" /><path d="M 8562 8083 l 0 71" class="C4" /><path d="M 8071 8083 l -1147 0" class="C4" /><path d="M 6923 8083 l 0 71" class="C4" /><path d="M 8071 8083 l 0 71" class="C4" /><path d="M 8739 35850 l -996 0" class="C4" /><path d="M 8739 44335 l -996 0" class="C4" /><path d="M 7743 44335 l 0 -8485" class="C4" /><path d="M 3809 45120 l 0 -10063" class="C4" /><path d="M 7743 35850 l 983 -1199" class="C4" /><path d="M 8739 34651 l -13 0" class="C4" /><path d="M 7743 34946 l 983 -1199" class="C4" /><path d="M 8726 33747 l 0 123" class="C4" /><path d="M 8726 33871 l -921 1122" class="C4" /><path d="M 7805 35651 c 37 -218 37 -440 -0 -658" class="C4" /><path d="M 7805 35651 l 921 -1123" class="C4" /><path d="M 8726 34528 l 0 123" class="C4" /><path d="M 7743 34946 l 0 903" class="C4" /><path d="M 8739 33871 l -13 0" class="C4" /><path d="M 8739 33747 l -13 0" class="C4" /><path d="M 8739 34528 l -13 0" class="C4" /><path d="M 8726 46312 l 0 123" class="C4" /><path d="M 8726 45658 l -921 -1127" class="C4" /><path d="M 7805 45188 c 37 -217 37 -439 -0 -656" class="C4" /><path d="M 7805 45188 l 921 1125" class="C4" /><path d="M 7743 45234 l 983 1201" class="C4" /><path d="M 8341 45188 l -536 0" class="C4" /><path d="M 8345 34992 l -540 0" class="C4" /><path d="M 7743 34946 l 0 -352" class="C4" /><path d="M 7743 45582 l 0 -347" class="C4" /><path d="M 68718 21646 l 0 10437" class="C5" /><path d="M 68941 21869 l 0 9991" class="C5" /><path d="M 79208 21869 l 0 9991" class="C5" /><path d="M 8739 41695 l 0 -11651" class="C4" /><path d="M 9148 42252 l 0 -556" class="C4" /><path d="M 8739 41962 c 38 190 218 316 409 289" class="C4" /><path d="M 8739 41962 c 0 -4 0 -9 0 -14 c 0 -5 0 -9 0 -14 c 0 -5 0 -10 0 -15 c 0 -5 0 -10 0 -15 c 0 -5 0 -10 0 -16 c 0 -5 0 -11 0 -16 c 0 -5 0 -11 0 -17 c 0 -6 0 -11 0 -17 c 0 -11 0 -23 0 -35 c 0 -12 0 -24 0 -36 c 0 -12 0 -24 0 -36 c 0 -12 0 -25 0 -37" class="C4" /><path d="M 36659 42252 l 0 -556" class="C4" /><path d="M 9148 42252 l 27510 0" class="C4" /><path d="M 37068 41695 c 0 -3700 0 -7400 0 -11651" class="C4" /><path d="M 37068 41962 c -0 -4 -0 -8 -0 -12 c 0 -4 0 -8 -0 -13 c -0 -4 -0 -9 -0 -13 c -0 -4 -0 -9 -0 -14 c -0 -5 -0 -9 -0 -14 c -0 -3 0 -6 0 -10 c 0 -9 0 -18 0 -27 c 0 -6 0 -13 0 -19 c -0 -7 -0 -13 -0 -20 c -0 -10 -0 -20 -0 -30 c -0 -10 -0 -21 -0 -31 c 0 -10 0 -21 0 -31 c 0 -11 0 -21 0 -32" class="C4" /><path d="M 36659 42252 c 191 27 371 -100 409 -289" class="C4" /><path d="M 37068 48242 l 0 -6279" class="C4" /><path d="M 8739 48242 l 0 -6279" class="C4" /><path d="M 37068 48352 c -0 -0 -0 -0 -0 -0 c 0 -0 0 -1 -0 -1 c -0 -1 -0 -1 -0 -2 c -0 -1 -0 -2 -0 -3 c -0 -1 -0 -2 -0 -3 c -0 -1 0 -2 0 -3 c 0 -3 0 -6 0 -9 c 0 -2 0 -5 0 -8 c -0 -3 -0 -6 -0 -9 c -0 -5 -0 -10 -0 -15 c -0 -5 -0 -11 -0 -17 c 0 -6 0 -13 0 -19 c 0 -7 0 -14 0 -22" class="C4" /><path d="M 8739 48352 c 0 -0 0 -0 0 -0 c 0 -0 0 -1 0 -1 c 0 -1 0 -1 0 -2 c 0 -1 0 -2 0 -3 c 0 -1 0 -3 0 -4 c 0 -1 0 -3 0 -5 c 0 -2 0 -4 0 -6 c 0 -2 0 -4 0 -7 c 0 -5 0 -10 0 -16 c 0 -6 0 -12 0 -19 c 0 -7 0 -14 0 -22 c 0 -8 0 -17 0 -25" class="C4" /><path d="M 8739 48352 c -0 108 43 213 120 289 c 77 77 181 120 289 120" class="C4" /><path d="M 36659 48761 l -27510 0" class="C4" /><path d="M 36659 48761 c 226 0 409 -183 409 -409" class="C4" /><path d="M 37068 7066 l 0 11100" class="C4" /><path d="M 36659 6510 l 0 556" class="C4" /><path d="M 37068 6799 c -38 -190 -218 -316 -409 -289" class="C4" /><path d="M 37068 6799 c 0 39 0 78 0 123 c 0 45 0 95 0 145" class="C4" /><path d="M 9148 6510 l 0 556" class="C4" /><path d="M 36659 6510 l -27510 0" class="C4" /><path d="M 8739 7066 c 0 462 0 925 0 1387 c 0 462 0 925 0 1387 c 0 462 0 925 0 1387 c 0 462 -0 925 0 1387 c 0 462 0 925 0 1387 c 0 462 0 925 0 1387 c 0 462 0 925 0 1387 c 0 462 0 925 0 1387" class="C4" /><path d="M 8739 6799 c 0 39 0 78 0 122 c 0 45 0 95 0 145" class="C4" /><path d="M 9148 6510 c -191 -27 -371 100 -409 289" class="C4" /><path d="M 8739 520 l 0 6279" class="C4" /><path d="M 37068 520 l 0 6279" class="C4" /><path d="M 8739 409 c 0 5 0 10 0 29 c 0 18 0 50 0 82" class="C4" /><path d="M 37068 409 c -0 5 -0 10 -0 29 c 0 18 0 50 0 82" class="C4" /><path d="M 9148 0 l 27510 0" class="C4" /><path d="M 37068 409 c 0 -108 -43 -213 -120 -289 c -77 -77 -181 -120 -289 -120" class="C4" /><path d="M 9148 0 c -226 0 -409 183 -409 409" class="C4" /><path d="M 10579 31613 l 0 -1568" class="C4" /><path d="M 10579 18166 l 0 -1018" class="C4" /><path d="M 10618 24510 l 0 -181" class="C4" /><path d="M 10618 24328 l 0 -77" class="C4" /><path d="M 10618 24251 c -8 -62 -21 -125 -39 -187" class="C4" /><path d="M 10579 24064 l 0 -5899" class="C4" /><path d="M 10579 30045 l 0 -5348" class="C4" /><path d="M 10579 24697 c 19 -62 32 -125 39 -187" class="C4" /><path d="M 35189 24252 l 0 77" class="C4" /><path d="M 35189 24328 l 0 181" class="C4" /><path d="M 35189 24510 c 8 62 21 125 39 187" class="C4" /><path d="M 35228 24697 l 0 5348" class="C4" /><path d="M 35228 18166 l 0 5899" class="C4" /><path d="M 35228 24064 c -19 62 -32 125 -39 187" class="C4" /><path d="M 35228 17148 l 0 1018" class="C4" /><path d="M 35228 30045 l 0 1568" class="C4" /><path d="M 11106 16751 l 23595 0" class="C4" /><path d="M 11106 32010 l 23595 0" class="C4" /><path d="M 34701 32010 c 310 -0 527 -164 527 -397" class="C4" /><path d="M 35228 17148 c -0 -233 -217 -397 -527 -397" class="C4" /><path d="M 10579 31613 c 0 233 217 397 527 397" class="C4" /><path d="M 11106 16751 c -310 0 -527 164 -527 397" class="C4" /><path d="M 36659 18166 l 0 11879" class="C4" /><path d="M 9148 30045 l 0 -11879" class="C4" /><path d="M 37068 30045 l 0 -11879" class="C4" /><path d="M 8739 18166 l 0 11879" class="C4" /><path d="M 37068 35163 l 26 0" class="C4" /><path d="M 37094 34948 l -26 0" class="C4" /><path d="M 37094 34948 l 0 215" class="C4" /><path d="M 37094 35294 l -26 0" class="C4" /><path d="M 37094 35294 l 0 214" class="C4" /><path d="M 37068 35508 l 26 0" class="C4" /><path d="M 37068 35293 l 26 0" class="C4" /><path d="M 37094 35294 l 0 -1" class="C4" /><path d="M 37068 34947 l 26 0" class="C4" /><path d="M 37094 34947 l 0 1" class="C4" /><path d="M 8729 45658 l 0 126" class="C4" /><path d="M 8467 45428 l 70 0" class="C4" /><path d="M 8467 45428 l 0 -86" class="C4" /><path d="M 8729 45713 l -262 0" class="C4" /><path d="M 8467 45713 l 0 -285" class="C4" /><path d="M 8729 34401 l 0 127" class="C4" /><path d="M 8520 34560 l -52 0" class="C4" /><path d="M 8520 34560 l 0 -67" class="C4" /><path d="M 8729 34493 l -210 0" class="C4" /><path d="M 8467 34778 l 54 0" class="C4" /><path d="M 8467 34778 l 0 -218" class="C4" /><path d="M 8467 34843 l 0 -65" class="C4" /><path d="M 8467 34488 l 52 0" class="C4" /><path d="M 8467 34488 l 0 -16" class="C4" /><path d="M 8729 34472 l -262 0" class="C4" /><path d="M 8520 34493 l 0 -5" class="C4" /><path d="M 8467 34488 l 0 72" class="C4" /><path d="M 8739 8957 l -26 0" class="C4" /><path d="M 8739 9175 l -26 0" class="C4" /><path d="M 8713 9175 l 0 -218" class="C4" /><path d="M 8739 9461 l -26 0" class="C4" /><path d="M 8713 9461 l 0 -285" class="C4" /><path d="M 8713 8886 l 26 0" class="C4" /><path d="M 8713 8886 l 0 -16" class="C4" /><path d="M 8739 8869 l -26 0" class="C4" /><path d="M 8713 8886 l 0 72" class="C4" /><path d="M 8739 13546 l -26 0" class="C4" /><path d="M 8739 13764 l -26 0" class="C4" /><path d="M 8713 13764 l 0 -218" class="C4" /><path d="M 8739 14050 l -26 0" class="C4" /><path d="M 8713 14050 l 0 -285" class="C4" /><path d="M 8713 13475 l 26 0" class="C4" /><path d="M 8713 13475 l 0 -16" class="C4" /><path d="M 8739 13458 l -26 0" class="C4" /><path d="M 8713 13475 l 0 72" class="C4" /><path d="M 13398 30268 c 0 188 153 341 341 341" class="C4" /><path d="M 13398 18494 l 0 11774" class="C4" /><path d="M 13739 18153 c -188 0 -341 153 -341 341" class="C4" /><path d="M 32068 18153 l -18330 0" class="C4" /><path d="M 32409 18494 c 0 -188 -153 -341 -341 -341" class="C4" /><path d="M 32409 30281 l 0 -11787" class="C4" /><path d="M 32081 30609 c 181 0 328 -147 328 -328" class="C4" /><path d="M 13739 30609 l 18343 0" class="C4" /><path d="M 37327 16212 l 0 -1393" class="C4" /><path d="M 37327 17605 l 0 -1393" class="C4" /><path d="M 48340 16212 l 0 -1393" class="C4" /><path d="M 48340 17605 l 0 -1393" class="C4" /><path d="M 8181 28399 l 0 -3068" class="C4" /><path d="M 7265 28063 l 0 -2396" class="C4" /><path d="M 7236 28058 l 0 -2386" class="C4" /><path d="M 6595 9165 l 0 -1065" class="C4" /><path d="M 6595 10230 l 0 -1065" class="C4" /><path d="M 37579 21646 l 0 10437" class="C4" /><path d="M 9148 30045 l 0 11651" class="C4" /><path d="M 36659 41695 l 0 -11651" class="C4" /><path d="M 36659 18166 l 0 -11100" class="C4" /><path d="M 9148 7066 l 0 11100" class="C4" /></g></svg>