<?xml version='1.0' encoding='utf-8'?>
<svg xmlns="http://www.w3.org/2000/svg" width="218.5mm" height="32.8mm" viewBox="0 0 1000000 150114"><defs><style>.C1 {stroke: #ffff00; stroke-width: 1144; stroke-opacity: 1.000; fill: none; fill-opacity: 1.000;}</style><style>.C2 {stroke: #ff00ff; stroke-width: 1144; stroke-opacity: 1.000; fill: none; fill-opacity: 1.000;}</style><style>.C3 {stroke: #ffffff; stroke-width: 1144; stroke-opacity: 1.000; fill: none; fill-opacity: 1.000;}</style><style>.C4 {stroke: #ff0000; stroke-width: 1144; stroke-opacity: 1.000; fill: none; fill-opacity: 1.000;}</style><style>.C5 {stroke: #bf7fff; stroke-width: 1144; stroke-opacity: 1.000; fill: none; fill-opacity: 1.000;}</style><style>.C6 {stroke: #00ff00; stroke-width: 1144; stroke-opacity: 1.000; fill: none; fill-opacity: 1.000;}</style></defs><g stroke-linecap="round" stroke-linejoin="round" fill-rule="evenodd"><path d="M 869007 119821 l 63658 -0" class="C1" /><path d="M 974961 125537 l -69731 0" class="C2" /><path d="M 963529 114106 l -58300 0" class="C2" /><path d="M 932665 110722 l -27435 0" class="C2" /><path d="M 904841 111111 l -17901 0" class="C2" /><path d="M 904841 128532 l -17901 0" class="C2" /><path d="M 932665 128921 l -27435 0" class="C2" /><path d="M 905229 128921 l 0 -18199" class="C2" /><path d="M 904841 128532 l 0 -17421" class="C2" /><path d="M 904841 128532 l 389 389" class="C2" /><path d="M 904841 111111 l 389 -389" class="C2" /><path d="M 886939 111111 l 0 17421" class="C2" /><path d="M 938952 89528 l -33722 0" class="C2" /><path d="M 999538 150114 l -94309 0" class="C2" /><path d="M 905229 89528 l 0 60586" class="C2" /><path d="M 896829 46661 l 35835 0" class="C1" /><path d="M 932665 119821 c 20203 0 36580 -16378 36580 -36580 c 0 -20203 -16378 -36580 -36580 -36580" class="C1" /><path d="M 932665 128921 c 25228 0 45680 -20451 45680 -45680 c 0 -25228 -20451 -45680 -45680 -45680" class="C2" /><path d="M 932665 110722 c 15177 0 27481 -12304 27481 -27481 c 0 -15177 -12304 -27481 -27481 -27481" class="C2" /><path d="M 932665 55760 l -27435 0" class="C2" /><path d="M 932665 37561 l -27435 0" class="C2" /><path d="M 905229 37561 l 0 18199" class="C2" /><path d="M 999538 16368 l 0 133747" class="C2" /><path d="M 938952 76954 l 0 12574" class="C2" /><path d="M 938952 76954 l -33722 0" class="C2" /><path d="M 905229 76954 l 0 -60586" class="C2" /><path d="M 999538 16368 l -94309 0" class="C2" /><path d="M 999538 16368 l -60586 60586" class="C2" /><path d="M 999538 150114 l -60586 -60586" class="C2" /><path d="M 963529 114106 l 0 -61729" class="C2" /><path d="M 974961 125537 l 0 -84592" class="C2" /><path d="M 974961 40945 l -69731 0" class="C2" /><path d="M 963529 52376 l -58300 0" class="C2" /><path d="M 649167 119821 l -555640 -0" class="C1" /><path d="M 649167 128921 l -530414 0" class="C3" /><path d="M 649167 150114 l -548705 -0" class="C3" /><path d="M 649167 125537 l -548705 -0" class="C3" /><path d="M 649167 89528 l -548705 0" class="C3" /><path d="M 100463 150114 l 0 -60586" class="C3" /><path d="M 649167 114106 l -548705 -0" class="C3" /><path d="M 118364 128532 l -17901 0" class="C3" /><path d="M 118364 111111 l -17901 0" class="C3" /><path d="M 649167 110722 l -530414 0" class="C3" /><path d="M 118753 110722 l 0 18199" class="C3" /><path d="M 118364 111111 l 389 -389" class="C3" /><path d="M 118364 111111 l 0 17421" class="C3" /><path d="M 118364 128532 l 389 389" class="C3" /><path d="M 100463 128532 l 0 -17421" class="C3" /><path d="M 649167 150114 l 0 -60586" class="C3" /><path d="M 649167 128921 l -0 -18199" class="C3" /><path d="M 627455 46661 l 303000 0" class="C1" /><path d="M 649167 37561 l 256062 0" class="C3" /><path d="M 649167 16368 l 274352 0" class="C3" /><path d="M 649167 40945 l 274352 0" class="C3" /><path d="M 649167 76954 l 274352 0" class="C3" /><path d="M 923520 16368 l -0 60586" class="C3" /><path d="M 649167 52376 l 274352 0" class="C3" /><path d="M 905618 37950 l 17901 0" class="C3" /><path d="M 905618 55371 l 17901 0" class="C3" /><path d="M 649167 55760 l 256062 0" class="C3" /><path d="M 905229 55760 l 0 -18199" class="C3" /><path d="M 905618 55371 l -389 389" class="C3" /><path d="M 905618 55371 l 0 -17421" class="C3" /><path d="M 905618 37950 l -389 -389" class="C3" /><path d="M 923520 37950 l 0 17421" class="C3" /><path d="M 649167 37561 l 0 18199" class="C3" /><path d="M 649167 16368 l 0 60586" class="C3" /><path d="M 926941 119821 l -303000 0" class="C1" /><path d="M 905229 110722 l -256062 0" class="C3" /><path d="M 905229 89528 l -274352 0" class="C3" /><path d="M 905229 114106 l -274352 0" class="C3" /><path d="M 905229 150114 l -274352 0" class="C3" /><path d="M 630877 89528 l 0 60586" class="C3" /><path d="M 905229 125537 l -274352 0" class="C3" /><path d="M 648779 111111 l -17901 0" class="C3" /><path d="M 648779 128532 l -17901 0" class="C3" /><path d="M 905229 128921 l -256062 0" class="C3" /><path d="M 649167 128921 l 0 -18199" class="C3" /><path d="M 648779 128532 l 389 389" class="C3" /><path d="M 648779 128532 l 0 -17421" class="C3" /><path d="M 648779 111111 l 389 -389" class="C3" /><path d="M 630877 111111 l 0 17421" class="C3" /><path d="M 905229 110722 l 0 18199" class="C3" /><path d="M 905229 89528 l 0 60586" class="C3" /><path d="M 118753 46661 l 555640 -0" class="C1" /><path d="M 118753 55760 l 530414 0" class="C4" /><path d="M 118753 76954 l 548705 -0" class="C4" /><path d="M 118753 52376 l 548705 -0" class="C4" /><path d="M 118753 16368 l 548705 0" class="C4" /><path d="M 667458 76954 l 0 -60586" class="C4" /><path d="M 118753 40945 l 548705 -0" class="C4" /><path d="M 649556 55371 l 17901 0" class="C4" /><path d="M 649556 37950 l 17901 0" class="C4" /><path d="M 118753 37561 l 530414 0" class="C4" /><path d="M 649167 37561 l 0 18199" class="C4" /><path d="M 649556 37950 l -389 -389" class="C4" /><path d="M 649556 37950 l 0 17421" class="C4" /><path d="M 649556 55371 l -389 389" class="C4" /><path d="M 667458 55371 l 0 -17421" class="C4" /><path d="M 118753 76954 l 0 -60586" class="C4" /><path d="M 118753 55760 l 0 -18199" class="C4" /><path d="M 6554 46661 l 132595 0" class="C1" /><path d="M 63779 31202 c 182 -53 307 -220 307 -410" class="C5" /><path d="M 64086 25526 c 0 -190 -125 -357 -307 -410" class="C5" /><path d="M 83500 30792 c 0 161 91 309 235 382 c 144 72 317 57 447 -39" class="C5" /><path d="M 84182 25183 c -130 -96 -302 -112 -447 -39 c -144 72 -235 220 -235 382" class="C5" /><path d="M 64229 30578 c -79 0 -142 64 -142 142" class="C5" /><path d="M 64086 25597 c 0 79 64 142 142 142" class="C5" /><path d="M 83500 30721 c 0 -79 -64 -142 -142 -142" class="C5" /><path d="M 83358 25739 c 79 0 142 -64 142 -142" class="C5" /><path d="M 79515 30578 l 3843 0" class="C5" /><path d="M 83358 25739 l -3843 0" class="C5" /><path d="M 64229 30578 l 3843 0" class="C5" /><path d="M 68072 25739 l -3843 0" class="C5" /><path d="M 68072 30294 l 11443 0" class="C5" /><path d="M 79515 26024 l -11443 0" class="C5" /><path d="M 14410 50505 l 165 0" class="C5" /><path d="M 14576 42819 l -165 0" class="C5" /><path d="M 13699 50215 l 427 0" class="C5" /><path d="M 14126 43109 l -427 0" class="C5" /><path d="M 14126 49793 l 285 0" class="C5" /><path d="M 14410 43531 l -285 0" class="C5" /><path d="M 13699 49460 c 0 -60 -37 -113 -93 -134" class="C5" /><path d="M 13605 43998 c 56 -21 93 -74 93 -134" class="C5" /><path d="M 13605 43998 l -1591 583" class="C5" /><path d="M 12015 48743 l 1591 583" class="C5" /><path d="M 12015 48743 c -16 -6 -32 -9 -49 -9" class="C5" /><path d="M 11966 44590 c 17 0 33 -3 49 -9" class="C5" /><path d="M 10283 48734 l 1683 0" class="C5" /><path d="M 11966 44590 l -1683 0" class="C5" /><path d="M 10283 44726 l -2277 0" class="C5" /><path d="M 8006 48598 l 2277 0" class="C5" /><path d="M 4447 44740 l -3416 0" class="C5" /><path d="M 1031 48583 l 3416 0" class="C5" /><path d="M 1031 44740 l -569 569" class="C5" /><path d="M 462 48014 l 569 569" class="C5" /><path d="M 10852 17769 l 569 0" class="C5" /><path d="M 11421 14068 l -569 0" class="C5" /><path d="M 10283 17200 c 0 314 255 569 569 569" class="C5" /><path d="M 10852 14068 c -314 0 -569 255 -569 569" class="C5" /><path d="M 13414 17484 l 854 0" class="C5" /><path d="M 14268 14353 l -854 0" class="C5" /><path d="M 14576 13784 l -23 0" class="C5" /><path d="M 14553 18054 l 23 0" class="C5" /><path d="M 6241 60662 c -126 0 -228 102 -228 228" class="C5" /><path d="M 6013 78368 c 0 126 102 228 228 228" class="C5" /><path d="M 6241 78595 l 6604 0" class="C5" /><path d="M 12845 60662 l -6604 0" class="C5" /><path d="M 13346 60087 l -501 0" class="C5" /><path d="M 12845 79170 l 494 0" class="C5" /><path d="M 63779 37171 c 216 269 543 426 888 426" class="C5" /><path d="M 64667 55724 c -309 0 -605 126 -820 349" class="C5" /><path d="M 84354 37597 l -19687 0" class="C6" /><path d="M 118753 37597 l -13903 0" class="C6" /><path d="M 64667 55724 l 54086 0" class="C6" /><path d="M 118753 55724 l 387 -387" class="C6" /><path d="M 119140 37984 l -387 -387" class="C6" /><path d="M 136971 37984 l -17831 0" class="C6" /><path d="M 119140 55337 l 17831 0" class="C6" /><path d="M 63779 83790 l 0 -10906" class="C5" /><path d="M 14576 72884 l 0 10906" class="C5" /><path d="M 14576 903 l 0 10906" class="C5" /><path d="M 63779 11809 l 0 -10906" class="C5" /><path d="M 14576 59750 l -17 0" class="C5" /><path d="M 64382 36463 l -296 0" class="C5" /><path d="M 64382 36463 l 0 723" class="C5" /><path d="M 64382 37186 l -591 0" class="C5" /><path d="M 64382 35602 l -296 0" class="C5" /><path d="M 64382 35602 l 0 861" class="C5" /><path d="M 64382 35464 l -296 0" class="C5" /><path d="M 64382 35464 l 0 138" class="C5" /><path d="M 64382 57938 l -603 0" class="C5" /><path d="M 64382 57919 l 0 19" class="C5" /><path d="M 64086 35593 l -307 0" class="C5" /><path d="M 64086 35593 l 0 866" class="C5" /><path d="M 64086 36459 l -307 0" class="C5" /><path d="M 64086 37174 l -307 0" class="C5" /><path d="M 64086 36459 l 0 715" class="C5" /><path d="M 64086 35442 l -307 0" class="C5" /><path d="M 64086 35442 l 0 151" class="C5" /><path d="M 64382 56588 l -603 0" class="C5" /><path d="M 64382 56588 l 0 923" class="C5" /><path d="M 64382 57511 l -603 0" class="C5" /><path d="M 64382 56073 l -603 0" class="C5" /><path d="M 64382 56073 l 0 515" class="C5" /><path d="M 64382 57919 l -603 0" class="C5" /><path d="M 64382 57511 l 0 408" class="C5" /><path d="M 64382 46235 l -603 0" class="C5" /><path d="M 64382 46235 l 0 923" class="C5" /><path d="M 64382 47158 l -603 0" class="C5" /><path d="M 64382 45720 l -603 0" class="C5" /><path d="M 64382 45720 l 0 515" class="C5" /><path d="M 64382 47566 l -603 0" class="C5" /><path d="M 64382 47158 l 0 408" class="C5" /><path d="M 84182 29391 l 20923 0" class="C5" /><path d="M 84182 29391 l 0 -6832" class="C5" /><path d="M 84182 22559 l 20923 0" class="C5" /><path d="M 105105 29391 l 0 -6832" class="C5" /><path d="M 84182 31668 l 0 -2277" class="C5" /><path d="M 105105 31668 l 0 -2277" class="C5" /><path d="M 84182 31668 l 20923 0" class="C5" /><path d="M 104914 37597 l 0 -5929" class="C5" /><path d="M 105105 37597 l 0 -5929" class="C5" /><path d="M 84182 37597 l 0 -5929" class="C5" /><path d="M 84354 46662 l 20496 0" class="C5" /><path d="M 84354 46662 l 0 -14802" class="C5" /><path d="M 84354 31859 l 20496 0" class="C5" /><path d="M 104850 46662 l 0 -14802" class="C5" /><path d="M 104659 31859 l 0 -191" class="C5" /><path d="M 84546 31668 l 0 191" class="C5" /><path d="M 104850 31859 l 0 -191" class="C5" /><path d="M 84354 31859 l 0 -191" class="C5" /><path d="M 64086 28159 l 0 -2633" class="C5" /><path d="M 64086 30792 l 0 -2633" class="C5" /><path d="M 83500 28159 l 0 -2633" class="C5" /><path d="M 83500 30792 l 0 -2633" class="C5" /><path d="M 79515 28159 l 0 -2420" class="C5" /><path d="M 79515 30578 l 0 -2420" class="C5" /><path d="M 68072 28159 l 0 -2420" class="C5" /><path d="M 68072 30578 l 0 -2420" class="C5" /><path d="M 14410 50505 l 0 -7686" class="C5" /><path d="M 13699 50215 l 0 -7105" class="C5" /><path d="M 14126 50215 l 0 -7105" class="C5" /><path d="M 4447 46733 l 3558 0" class="C5" /><path d="M 4447 46733 l 0 -142" class="C5" /><path d="M 4447 46591 l 3558 0" class="C5" /><path d="M 8006 46733 l 0 -142" class="C5" /><path d="M 4447 44638 l 3558 0" class="C5" /><path d="M 4447 46591 l 0 -1953" class="C5" /><path d="M 8006 46591 l 0 -1953" class="C5" /><path d="M 4447 48686 l 3558 0" class="C5" /><path d="M 4447 48686 l 0 -1953" class="C5" /><path d="M 8006 48686 l 0 -1953" class="C5" /><path d="M 10283 48734 l 0 -4145" class="C5" /><path d="M 1031 44740 l 0 3843" class="C5" /><path d="M 462 48014 l 0 -2704" class="C5" /><path d="M 4447 48757 l 3558 0" class="C5" /><path d="M 4447 48757 l 0 -71" class="C5" /><path d="M 8006 48757 l 0 -71" class="C5" /><path d="M 4447 44566 l 3558 0" class="C5" /><path d="M 4447 44638 l 0 -71" class="C5" /><path d="M 8006 44638 l 0 -71" class="C5" /><path d="M 14530 16042 l -262 0" class="C5" /><path d="M 14576 17675 l -307 0" class="C5" /><path d="M 14268 16042 l 0 1633" class="C5" /><path d="M 13414 16042 l -1993 0" class="C5" /><path d="M 13414 16042 l 0 1633" class="C5" /><path d="M 13414 17675 l -1993 0" class="C5" /><path d="M 11421 16042 l 0 1633" class="C5" /><path d="M 13414 15795 l -1993 0" class="C5" /><path d="M 11421 15795 l 0 247" class="C5" /><path d="M 13414 15795 l 0 247" class="C5" /><path d="M 14530 15795 l -262 0" class="C5" /><path d="M 14268 15795 l 0 247" class="C5" /><path d="M 13414 14162 l -1993 0" class="C5" /><path d="M 11421 14162 l 0 1633" class="C5" /><path d="M 13414 14162 l 0 1633" class="C5" /><path d="M 14576 14162 l -307 0" class="C5" /><path d="M 14268 14162 l 0 1633" class="C5" /><path d="M 10283 15919 l 0 -1281" class="C5" /><path d="M 10283 17200 l 0 -1281" class="C5" /><path d="M 14576 17798 l -307 0" class="C5" /><path d="M 14268 17675 l 0 123" class="C5" /><path d="M 13414 17798 l -1993 0" class="C5" /><path d="M 11421 17675 l 0 123" class="C5" /><path d="M 13414 17675 l 0 123" class="C5" /><path d="M 14576 14039 l -307 0" class="C5" /><path d="M 14268 14039 l 0 123" class="C5" /><path d="M 13414 14039 l -1993 0" class="C5" /><path d="M 11421 14039 l 0 123" class="C5" /><path d="M 13414 14039 l 0 123" class="C5" /><path d="M 14576 62267 l -1731 0" class="C5" /><path d="M 14576 77005 l -1731 0" class="C5" /><path d="M 12845 77005 l 0 -14737" class="C5" /><path d="M 6013 78368 l 0 -17478" class="C5" /><path d="M 12845 62267 l 1708 -2082" class="C5" /><path d="M 14576 60185 l -23 0" class="C5" /><path d="M 12845 60698 l 1708 -2082" class="C5" /><path d="M 14553 58616 l 0 214" class="C5" /><path d="M 14553 58829 l -1600 1948" class="C5" /><path d="M 12953 61921 c 65 -378 64 -765 -1 -1143" class="C5" /><path d="M 12953 61921 l 1600 -1950" class="C5" /><path d="M 14553 59971 l 0 214" class="C5" /><path d="M 12845 60698 l 0 1569" class="C5" /><path d="M 14576 58829 l -23 0" class="C5" /><path d="M 14576 58616 l -23 0" class="C5" /><path d="M 14576 59971 l -23 0" class="C5" /><path d="M 14553 80440 l 0 213" class="C5" /><path d="M 14553 79304 l -1600 -1957" class="C5" /><path d="M 12953 78486 c 65 -377 64 -763 -1 -1140" class="C5" /><path d="M 12953 78486 l 1600 1953" class="C5" /><path d="M 12845 78567 l 1708 2086" class="C5" /><path d="M 13884 78486 l -931 0" class="C5" /><path d="M 13891 60778 l -938 0" class="C5" /><path d="M 12845 60698 l 0 -612" class="C5" /><path d="M 12845 79170 l 0 -603" class="C5" /><path d="M 118753 37597 l 0 18127" class="C6" /><path d="M 119140 37984 l 0 17353" class="C6" /><path d="M 136971 37984 l 0 17353" class="C6" /><path d="M 14576 72420 l 0 -20236" class="C5" /><path d="M 15286 73386 l 0 -966" class="C5" /><path d="M 14576 72884 c 66 329 378 549 711 502" class="C5" /><path d="M 14576 72884 c 0 -8 0 -16 0 -24 c 0 -8 0 -16 0 -24 c 0 -8 0 -17 0 -25 c 0 -9 0 -17 0 -26 c 0 -9 0 -18 0 -27 c 0 -9 0 -18 0 -28 c 0 -9 0 -19 0 -29 c 0 -10 0 -20 0 -30 c 0 -20 0 -40 0 -61 c 0 -20 0 -41 0 -62 c 0 -21 0 -42 0 -63 c 0 -21 0 -43 0 -65" class="C5" /><path d="M 63068 73386 l 0 -966" class="C5" /><path d="M 15286 73386 l 47782 0" class="C5" /><path d="M 63779 72420 c 0 -6426 0 -12853 0 -20236" class="C5" /><path d="M 63779 72884 c -0 -7 -0 -14 -0 -21 c 0 -7 0 -15 -0 -22 c -0 -8 -0 -15 -0 -23 c -0 -8 -0 -16 -0 -24 c -0 -8 -0 -16 -0 -25 c -0 -6 0 -11 0 -17 c 0 -15 0 -31 0 -48 c 0 -11 0 -22 0 -33 c -0 -12 -0 -23 -0 -35 c -0 -17 -0 -35 -0 -53 c -0 -18 -0 -36 -0 -54 c 0 -18 0 -36 0 -55 c 0 -18 0 -37 0 -55" class="C5" /><path d="M 63068 73386 c 332 47 644 -173 711 -502" class="C5" /><path d="M 63779 83790 l 0 -10906" class="C5" /><path d="M 14576 83790 l 0 -10906" class="C5" /><path d="M 63779 83982 c -0 -0 -0 -0 -0 -1 c 0 -0 0 -1 -0 -2 c -0 -1 -0 -2 -0 -3 c -0 -1 -0 -3 -0 -5 c -0 -2 -0 -4 -0 -6 c -0 -1 0 -3 0 -5 c 0 -5 0 -10 0 -16 c 0 -4 0 -8 0 -13 c -0 -5 -0 -10 -0 -15 c -0 -8 -0 -17 -0 -26 c -0 -9 -0 -19 -0 -30 c 0 -11 0 -22 0 -34 c 0 -12 0 -25 0 -37" class="C5" /><path d="M 14576 83982 c 0 -0 0 -0 0 -1 c 0 -0 0 -1 0 -2 c 0 -1 0 -2 0 -4 c 0 -2 0 -3 0 -5 c 0 -2 0 -4 0 -7 c 0 -3 0 -5 0 -9 c 0 -3 0 -7 0 -10 c 0 -4 0 -8 0 -12 c 0 -8 0 -17 0 -28 c 0 -10 0 -21 0 -33 c 0 -12 0 -25 0 -38 c 0 -14 0 -29 0 -44" class="C5" /><path d="M 14576 83982 c -0 188 75 369 208 502 c 133 133 314 208 502 208" class="C5" /><path d="M 63068 84693 l -47782 0" class="C5" /><path d="M 63068 84693 c 392 0 711 -318 711 -711" class="C5" /><path d="M 63779 12273 l 0 19279" class="C5" /><path d="M 63068 11306 l 0 966" class="C5" /><path d="M 63779 11809 c -66 -329 -378 -549 -711 -502" class="C5" /><path d="M 63779 11809 c 0 68 0 135 0 213 c 0 77 0 164 0 251" class="C5" /><path d="M 15286 11306 l 0 966" class="C5" /><path d="M 63068 11306 l -47782 0" class="C5" /><path d="M 14576 12273 c 0 803 0 1607 0 2410 c 0 803 0 1607 0 2410 c 0 803 0 1607 0 2410 c 0 803 -0 1607 0 2410 c 0 803 0 1607 0 2410 c 0 803 0 1607 0 2410 c 0 803 0 1607 0 2410 c 0 803 0 1607 0 2410" class="C5" /><path d="M 14576 11809 c 0 68 0 135 0 212 c 0 77 0 164 0 251" class="C5" /><path d="M 15286 11306 c -332 -47 -644 173 -711 502" class="C5" /><path d="M 14576 903 l 0 10906" class="C5" /><path d="M 63779 903 l 0 10906" class="C5" /><path d="M 14576 711 c 0 9 0 18 0 50 c 0 32 0 87 0 142" class="C5" /><path d="M 63779 711 c -0 9 -0 18 -0 50 c 0 32 0 87 0 142" class="C5" /><path d="M 15286 0 l 47782 0" class="C5" /><path d="M 63779 711 c 0 -188 -75 -369 -208 -502 c -133 -133 -314 -208 -502 -208" class="C5" /><path d="M 15286 0 c -392 0 -711 318 -711 711" class="C5" /><path d="M 17771 54908 l 0 -2724" class="C5" /><path d="M 17771 31552 l 0 -1768" class="C5" /><path d="M 17839 42571 l 0 -315" class="C5" /><path d="M 17839 42255 l 0 -133" class="C5" /><path d="M 17839 42122 c -13 -108 -36 -217 -68 -325" class="C5" /><path d="M 17771 41797 l 0 -10245" class="C5" /><path d="M 17771 52184 l 0 -9289" class="C5" /><path d="M 17771 42896 c 32 -108 55 -217 68 -325" class="C5" /><path d="M 60516 42122 l 0 133" class="C5" /><path d="M 60516 42255 l 0 315" class="C5" /><path d="M 60516 42571 c 13 108 36 217 68 325" class="C5" /><path d="M 60584 42896 l 0 9289" class="C5" /><path d="M 60584 31552 l 0 10245" class="C5" /><path d="M 60584 41797 c -32 108 -55 217 -68 325" class="C5" /><path d="M 60584 29784 l 0 1768" class="C5" /><path d="M 60584 52184 l 0 2724" class="C5" /><path d="M 18686 29095 l 40982 0" class="C5" /><path d="M 18686 55598 l 40982 0" class="C5" /><path d="M 59668 55598 c 538 -0 916 -284 916 -689" class="C5" /><path d="M 60584 29784 c -0 -405 -378 -689 -916 -689" class="C5" /><path d="M 17771 54908 c 0 405 378 689 916 689" class="C5" /><path d="M 18686 29095 c -538 0 -916 284 -916 689" class="C5" /><path d="M 63068 31552 l 0 20632" class="C5" /><path d="M 15286 52184 l 0 -20632" class="C5" /><path d="M 63779 52184 l 0 -20632" class="C5" /><path d="M 14576 31552 l 0 20632" class="C5" /><path d="M 63779 61074 l 46 0" class="C5" /><path d="M 63824 60701 l -46 0" class="C5" /><path d="M 63824 60701 l 0 373" class="C5" /><path d="M 63824 61301 l -46 0" class="C5" /><path d="M 63824 61301 l 0 372" class="C5" /><path d="M 63779 61673 l 46 0" class="C5" /><path d="M 63779 61300 l 46 0" class="C5" /><path d="M 63824 61301 l 0 -2" class="C5" /><path d="M 63779 60700 l 46 0" class="C5" /><path d="M 63824 60700 l 0 1" class="C5" /><path d="M 14558 79304 l 0 219" class="C5" /><path d="M 14103 78903 l 122 0" class="C5" /><path d="M 14103 78903 l 0 -149" class="C5" /><path d="M 14558 79399 l -455 0" class="C5" /><path d="M 14103 79399 l 0 -496" class="C5" /><path d="M 14558 59750 l 0 221" class="C5" /><path d="M 14194 60027 l -91 0" class="C5" /><path d="M 14194 60027 l 0 -116" class="C5" /><path d="M 14558 59911 l -364 0" class="C5" /><path d="M 14103 60406 l 93 0" class="C5" /><path d="M 14103 60406 l 0 -379" class="C5" /><path d="M 14103 60519 l 0 -113" class="C5" /><path d="M 14103 59902 l 91 0" class="C5" /><path d="M 14103 59902 l 0 -28" class="C5" /><path d="M 14558 59874 l -455 0" class="C5" /><path d="M 14194 59911 l 0 -9" class="C5" /><path d="M 14103 59902 l 0 125" class="C5" /><path d="M 14576 15558 l -46 0" class="C5" /><path d="M 14576 15937 l -46 0" class="C5" /><path d="M 14530 15937 l 0 -379" class="C5" /><path d="M 14576 16432 l -46 0" class="C5" /><path d="M 14530 16432 l 0 -496" class="C5" /><path d="M 14530 15433 l 46 0" class="C5" /><path d="M 14530 15433 l 0 -28" class="C5" /><path d="M 14576 15405 l -46 0" class="C5" /><path d="M 14530 15433 l 0 125" class="C5" /><path d="M 14576 23528 l -46 0" class="C5" /><path d="M 14576 23907 l -46 0" class="C5" /><path d="M 14530 23907 l 0 -379" class="C5" /><path d="M 14576 24403 l -46 0" class="C5" /><path d="M 14530 24403 l 0 -496" class="C5" /><path d="M 14530 23404 l 46 0" class="C5" /><path d="M 14530 23404 l 0 -28" class="C5" /><path d="M 14576 23375 l -46 0" class="C5" /><path d="M 14530 23404 l 0 125" class="C5" /><path d="M 22667 52572 c 0 327 265 592 592 592" class="C5" /><path d="M 22667 32121 l 0 20450" class="C5" /><path d="M 23259 31529 c -327 0 -592 265 -592 592" class="C5" /><path d="M 55096 31529 l -31837 0" class="C5" /><path d="M 55688 32121 c 0 -327 -265 -592 -592 -592" class="C5" /><path d="M 55688 52594 l 0 -20473" class="C5" /><path d="M 55118 53164 c 314 0 569 -255 569 -569" class="C5" /><path d="M 23259 53164 l 31859 0" class="C5" /><path d="M 64229 28159 l 0 -2420" class="C5" /><path d="M 64229 30578 l 0 -2420" class="C5" /><path d="M 83358 28159 l 0 -2420" class="C5" /><path d="M 83358 30578 l 0 -2420" class="C5" /><path d="M 13605 49326 l 0 -5329" class="C5" /><path d="M 12015 48743 l 0 -4162" class="C5" /><path d="M 11966 48734 l 0 -4145" class="C5" /><path d="M 10852 15919 l 0 -1850" class="C5" /><path d="M 10852 17769 l 0 -1850" class="C5" /><path d="M 64667 37597 l 0 18127" class="C5" /><path d="M 15286 52184 l 0 20236" class="C5" /><path d="M 63068 72420 l 0 -20236" class="C5" /><path d="M 63068 31552 l 0 -19279" class="C5" /><path d="M 15286 12273 l 0 19279" class="C5" /></g></svg>