<?xml version='1.0' encoding='utf-8'?>
<svg xmlns="http://www.w3.org/2000/svg" width="611.4mm" height="18.5mm" viewBox="0 0 1000000 30258"><defs><style>.C1 {stroke: #ffff00; stroke-width: 409; stroke-opacity: 1.000; fill: none; fill-opacity: 1.000;}</style><style>.C2 {stroke: #ff0000; stroke-width: 409; stroke-opacity: 1.000; fill: none; fill-opacity: 1.000;}</style><style>.C3 {stroke: #ffffff; stroke-width: 409; stroke-opacity: 1.000; fill: none; fill-opacity: 1.000;}</style><style>.C4 {stroke: #bf7fff; stroke-width: 409; stroke-opacity: 1.000; fill: none; fill-opacity: 1.000;}</style><style>.C5 {stroke: #00ff00; stroke-width: 409; stroke-opacity: 1.000; fill: none; fill-opacity: 1.000;}</style></defs><g stroke-linecap="round" stroke-linejoin="round" fill-rule="evenodd"><path d="M 42869 16671 l 198515 -0" class="C1" /><path d="M 42869 19922 l 189502 0" class="C2" /><path d="M 42869 27493 l 196037 -0" class="C2" /><path d="M 42869 18713 l 196037 -0" class="C2" /><path d="M 42869 5848 l 196037 0" class="C2" /><path d="M 238906 27493 l 0 -21646" class="C2" /><path d="M 42869 14629 l 196037 -0" class="C2" /><path d="M 232510 19783 l 6396 0" class="C2" /><path d="M 232510 13559 l 6396 0" class="C2" /><path d="M 42869 13420 l 189502 0" class="C2" /><path d="M 232371 13420 l 0 6502" class="C2" /><path d="M 232510 13559 l -139 -139" class="C2" /><path d="M 232510 13559 l 0 6224" class="C2" /><path d="M 232510 19783 l -139 139" class="C2" /><path d="M 238906 19783 l 0 -6224" class="C2" /><path d="M 42869 27493 l 0 -21646" class="C2" /><path d="M 42869 19922 l 0 -6502" class="C2" /><path d="M 800878 16671 l 198515 -0" class="C1" /><path d="M 800878 19922 l 189502 0" class="C3" /><path d="M 800878 27493 l 196037 -0" class="C3" /><path d="M 800878 18713 l 196037 -0" class="C3" /><path d="M 800878 5848 l 196037 0" class="C3" /><path d="M 996915 27493 l 0 -21646" class="C3" /><path d="M 800878 14629 l 196037 -0" class="C3" /><path d="M 990519 19783 l 6396 0" class="C3" /><path d="M 990519 13559 l 6396 0" class="C3" /><path d="M 800878 13420 l 189502 0" class="C3" /><path d="M 990381 13420 l 0 6502" class="C3" /><path d="M 990519 13559 l -139 -139" class="C3" /><path d="M 990519 13559 l 0 6224" class="C3" /><path d="M 990519 19783 l -139 139" class="C3" /><path d="M 996915 19783 l 0 -6224" class="C3" /><path d="M 611376 16671 l 198515 0" class="C1" /><path d="M 611376 14629 l 196037 0" class="C3" /><path d="M 611376 18713 l 196037 -0" class="C3" /><path d="M 611376 5848 l 196037 0" class="C3" /><path d="M 611376 27493 l 196037 -0" class="C3" /><path d="M 611376 19922 l 189502 0" class="C3" /><path d="M 611376 27493 l 0 -21646" class="C3" /><path d="M 801017 19783 l 6396 0" class="C3" /><path d="M 801017 13559 l 6396 0" class="C3" /><path d="M 611376 13420 l 189502 -0" class="C3" /><path d="M 800878 13420 l 0 6502" class="C3" /><path d="M 801017 13559 l 0 6224" class="C3" /><path d="M 801017 13559 l -139 -139" class="C3" /><path d="M 801017 19783 l -139 139" class="C3" /><path d="M 807413 19783 l 0 -6224" class="C3" /><path d="M 800878 13420 l 0 6502" class="C3" /><path d="M 611376 19922 l 0 -6502" class="C3" /><path d="M 807413 27493 l 0 -21646" class="C3" /><path d="M 800878 27493 l 0 -21646" class="C3" /><path d="M 421874 16671 l 198515 0" class="C1" /><path d="M 421874 14629 l 196037 0" class="C3" /><path d="M 421874 18713 l 196037 -0" class="C3" /><path d="M 421874 5848 l 196037 0" class="C3" /><path d="M 421874 27493 l 196037 -0" class="C3" /><path d="M 421874 19922 l 189502 0" class="C3" /><path d="M 617910 27493 l 0 -21646" class="C3" /><path d="M 611515 19783 l 6396 0" class="C3" /><path d="M 611515 13559 l 6396 0" class="C3" /><path d="M 421874 13420 l 189502 -0" class="C3" /><path d="M 611376 13420 l 0 6502" class="C3" /><path d="M 611515 13559 l 0 6224" class="C3" /><path d="M 611515 13559 l -139 -139" class="C3" /><path d="M 611515 19783 l -139 139" class="C3" /><path d="M 617910 19783 l 0 -6224" class="C3" /><path d="M 232371 16671 l 198515 -0" class="C1" /><path d="M 232371 14629 l 196037 -0" class="C3" /><path d="M 232371 18713 l 196037 -0" class="C3" /><path d="M 232371 5848 l 196037 0" class="C3" /><path d="M 232371 27493 l 196037 -0" class="C3" /><path d="M 232371 19922 l 189502 0" class="C3" /><path d="M 232371 27493 l 0 -21646" class="C3" /><path d="M 422012 19783 l 6396 0" class="C3" /><path d="M 422012 13559 l 6396 0" class="C3" /><path d="M 232371 13420 l 189502 0" class="C3" /><path d="M 421874 13420 l 0 6502" class="C3" /><path d="M 422012 13559 l -0 6224" class="C3" /><path d="M 422012 13559 l -139 -139" class="C3" /><path d="M 422012 19783 l -139 139" class="C3" /><path d="M 428408 19783 l 0 -6224" class="C3" /><path d="M 421874 13420 l 0 6502" class="C3" /><path d="M 232371 19922 l 0 -6502" class="C3" /><path d="M 428408 27493 l 0 -21646" class="C3" /><path d="M 421874 27493 l 0 -21646" class="C3" /><path d="M 2783 16671 l 47373 0" class="C1" /><path d="M 23228 11148 c 65 -19 110 -79 110 -146" class="C4" /><path d="M 23338 9120 c 0 -68 -45 -127 -110 -146" class="C4" /><path d="M 30274 11001 c 0 58 33 110 84 136 c 52 26 113 20 160 -14" class="C4" /><path d="M 30518 8997 c -46 -34 -108 -40 -160 -14 c -52 26 -84 79 -84 136" class="C4" /><path d="M 23389 10925 c -28 0 -51 23 -51 51" class="C4" /><path d="M 23338 9145 c 0 28 23 51 51 51" class="C4" /><path d="M 30274 10976 c 0 -28 -23 -51 -51 -51" class="C4" /><path d="M 30223 9196 c 28 0 51 -23 51 -51" class="C4" /><path d="M 28850 10925 l 1373 0" class="C4" /><path d="M 30223 9196 l -1373 0" class="C4" /><path d="M 23389 10925 l 1373 0" class="C4" /><path d="M 24762 9196 l -1373 0" class="C4" /><path d="M 24762 10823 l 4088 0" class="C4" /><path d="M 28850 9298 l -4088 0" class="C4" /><path d="M 5590 18044 l 59 0" class="C4" /><path d="M 5649 15298 l -59 0" class="C4" /><path d="M 5336 17940 l 153 0" class="C4" /><path d="M 5489 15402 l -153 0" class="C4" /><path d="M 5489 17790 l 102 0" class="C4" /><path d="M 5590 15552 l -102 0" class="C4" /><path d="M 5336 17671 c 0 -21 -13 -40 -33 -48" class="C4" /><path d="M 5303 15719 c 20 -7 33 -26 33 -48" class="C4" /><path d="M 5303 15719 l -568 208" class="C4" /><path d="M 4734 17415 l 568 208" class="C4" /><path d="M 4734 17415 c -6 -2 -12 -3 -18 -3" class="C4" /><path d="M 4717 15931 c 6 0 12 -1 18 -3" class="C4" /><path d="M 4116 17411 l 601 0" class="C4" /><path d="M 4717 15931 l -601 0" class="C4" /><path d="M 4116 15979 l -814 0" class="C4" /><path d="M 3302 17363 l 814 0" class="C4" /><path d="M 2031 15985 l -1220 0" class="C4" /><path d="M 810 17358 l 1220 0" class="C4" /><path d="M 810 15985 l -203 203" class="C4" /><path d="M 607 17154 l 203 203" class="C4" /><path d="M 4319 6348 l 203 0" class="C4" /><path d="M 4522 5026 l -203 0" class="C4" /><path d="M 4116 6145 c 0 112 91 203 203 203" class="C4" /><path d="M 4319 5026 c -112 0 -203 91 -203 203" class="C4" /><path d="M 5234 6247 l 305 0" class="C4" /><path d="M 5539 5128 l -305 0" class="C4" /><path d="M 5649 4925 l -8 0" class="C4" /><path d="M 5641 6450 l 8 0" class="C4" /><path d="M 2671 21673 c -45 0 -81 36 -81 81" class="C4" /><path d="M 2590 27999 c 0 45 36 81 81 81" class="C4" /><path d="M 2671 28080 l 2359 0" class="C4" /><path d="M 5031 21673 l -2359 0" class="C4" /><path d="M 5210 21467 l -179 0" class="C4" /><path d="M 5031 28285 l 177 0" class="C4" /><path d="M 23228 13280 c 77 96 194 152 317 152" class="C4" /><path d="M 23546 19909 c -111 0 -216 45 -293 125" class="C4" /><path d="M 30579 13432 l -7034 0" class="C5" /><path d="M 42869 13432 l -4967 0" class="C5" /><path d="M 23546 19909 l 19323 0" class="C5" /><path d="M 42869 19909 l 138 -138" class="C5" /><path d="M 43007 13571 l -138 -138" class="C5" /><path d="M 49378 13571 l -6371 0" class="C5" /><path d="M 43007 19770 l 6371 0" class="C5" /><path d="M 23228 29936 l 0 -3897" class="C4" /><path d="M 5649 26039 l 0 3897" class="C4" /><path d="M 5649 322 l 0 3897" class="C4" /><path d="M 23228 4219 l 0 -3897" class="C4" /><path d="M 5649 21347 l -6 0" class="C4" /><path d="M 23444 13027 l -106 0" class="C4" /><path d="M 23444 13027 l 0 258" class="C4" /><path d="M 23444 13286 l -211 0" class="C4" /><path d="M 23444 12720 l -106 0" class="C4" /><path d="M 23444 12720 l 0 308" class="C4" /><path d="M 23444 12670 l -106 0" class="C4" /><path d="M 23444 12670 l 0 49" class="C4" /><path d="M 23444 20700 l -216 0" class="C4" /><path d="M 23444 20693 l 0 7" class="C4" /><path d="M 23338 12716 l -110 0" class="C4" /><path d="M 23338 12716 l 0 309" class="C4" /><path d="M 23338 13026 l -110 0" class="C4" /><path d="M 23338 13281 l -110 0" class="C4" /><path d="M 23338 13026 l 0 255" class="C4" /><path d="M 23338 12662 l -110 0" class="C4" /><path d="M 23338 12662 l 0 54" class="C4" /><path d="M 23444 20217 l -216 0" class="C4" /><path d="M 23444 20217 l 0 330" class="C4" /><path d="M 23444 20547 l -216 0" class="C4" /><path d="M 23444 20033 l -216 0" class="C4" /><path d="M 23444 20033 l 0 184" class="C4" /><path d="M 23444 20693 l -216 0" class="C4" /><path d="M 23444 20547 l 0 146" class="C4" /><path d="M 23444 16519 l -216 0" class="C4" /><path d="M 23444 16519 l 0 330" class="C4" /><path d="M 23444 16848 l -216 0" class="C4" /><path d="M 23444 16335 l -216 0" class="C4" /><path d="M 23444 16335 l 0 184" class="C4" /><path d="M 23444 16994 l -216 0" class="C4" /><path d="M 23444 16848 l 0 146" class="C4" /><path d="M 30518 10501 l 7475 0" class="C4" /><path d="M 30518 10501 l 0 -2441" class="C4" /><path d="M 30518 8060 l 7475 0" class="C4" /><path d="M 37993 10501 l 0 -2441" class="C4" /><path d="M 30518 11314 l 0 -814" class="C4" /><path d="M 37993 11314 l 0 -814" class="C4" /><path d="M 30518 11314 l 7475 0" class="C4" /><path d="M 37925 13432 l 0 -2118" class="C4" /><path d="M 37993 13432 l 0 -2118" class="C4" /><path d="M 30518 13432 l 0 -2118" class="C4" /><path d="M 30579 16671 l 7323 0" class="C4" /><path d="M 30579 16671 l 0 -5289" class="C4" /><path d="M 30579 11383 l 7323 0" class="C4" /><path d="M 37902 16671 l 0 -5289" class="C4" /><path d="M 37833 11383 l 0 -68" class="C4" /><path d="M 30648 11314 l 0 68" class="C4" /><path d="M 37902 11383 l 0 -68" class="C4" /><path d="M 30579 11383 l 0 -68" class="C4" /><path d="M 23338 10060 l 0 -941" class="C4" /><path d="M 23338 11001 l 0 -941" class="C4" /><path d="M 30274 10060 l 0 -941" class="C4" /><path d="M 30274 11001 l 0 -941" class="C4" /><path d="M 28850 10060 l 0 -864" class="C4" /><path d="M 28850 10925 l 0 -864" class="C4" /><path d="M 24762 10060 l 0 -864" class="C4" /><path d="M 24762 10925 l 0 -864" class="C4" /><path d="M 5590 18044 l 0 -2746" class="C4" /><path d="M 5336 17940 l 0 -2538" class="C4" /><path d="M 5489 17940 l 0 -2538" class="C4" /><path d="M 2031 16696 l 1271 0" class="C4" /><path d="M 2031 16696 l 0 -51" class="C4" /><path d="M 2031 16646 l 1271 0" class="C4" /><path d="M 3302 16696 l 0 -51" class="C4" /><path d="M 2031 15948 l 1271 0" class="C4" /><path d="M 2031 16646 l 0 -698" class="C4" /><path d="M 3302 16646 l 0 -698" class="C4" /><path d="M 2031 17394 l 1271 0" class="C4" /><path d="M 2031 17394 l 0 -698" class="C4" /><path d="M 3302 17394 l 0 -698" class="C4" /><path d="M 4116 17411 l 0 -1481" class="C4" /><path d="M 810 15985 l 0 1373" class="C4" /><path d="M 607 17154 l 0 -966" class="C4" /><path d="M 2031 17420 l 1271 0" class="C4" /><path d="M 2031 17420 l 0 -25" class="C4" /><path d="M 3302 17420 l 0 -25" class="C4" /><path d="M 2031 15922 l 1271 0" class="C4" /><path d="M 2031 15948 l 0 -25" class="C4" /><path d="M 3302 15948 l 0 -25" class="C4" /><path d="M 5633 5731 l -94 0" class="C4" /><path d="M 5649 6315 l -110 0" class="C4" /><path d="M 5539 5731 l 0 584" class="C4" /><path d="M 5234 5731 l -712 0" class="C4" /><path d="M 5234 5731 l 0 584" class="C4" /><path d="M 5234 6315 l -712 0" class="C4" /><path d="M 4522 5731 l 0 584" class="C4" /><path d="M 5234 5643 l -712 0" class="C4" /><path d="M 4522 5643 l 0 88" class="C4" /><path d="M 5234 5643 l 0 88" class="C4" /><path d="M 5633 5643 l -94 0" class="C4" /><path d="M 5539 5643 l 0 88" class="C4" /><path d="M 5234 5060 l -712 0" class="C4" /><path d="M 4522 5060 l 0 584" class="C4" /><path d="M 5234 5060 l 0 584" class="C4" /><path d="M 5649 5060 l -110 0" class="C4" /><path d="M 5539 5060 l 0 584" class="C4" /><path d="M 4116 5687 l 0 -458" class="C4" /><path d="M 4116 6145 l 0 -458" class="C4" /><path d="M 5649 6359 l -110 0" class="C4" /><path d="M 5539 6315 l 0 44" class="C4" /><path d="M 5234 6359 l -712 0" class="C4" /><path d="M 4522 6315 l 0 44" class="C4" /><path d="M 5234 6315 l 0 44" class="C4" /><path d="M 5649 5016 l -110 0" class="C4" /><path d="M 5539 5016 l 0 44" class="C4" /><path d="M 5234 5016 l -712 0" class="C4" /><path d="M 4522 5016 l 0 44" class="C4" /><path d="M 5234 5016 l 0 44" class="C4" /><path d="M 5649 22246 l -618 0" class="C4" /><path d="M 5649 27512 l -618 0" class="C4" /><path d="M 5031 27512 l 0 -5265" class="C4" /><path d="M 2590 27999 l 0 -6245" class="C4" /><path d="M 5031 22246 l 610 -744" class="C4" /><path d="M 5649 21502 l -8 0" class="C4" /><path d="M 5031 21686 l 610 -744" class="C4" /><path d="M 5641 20942 l 0 76" class="C4" /><path d="M 5641 21018 l -572 696" class="C4" /><path d="M 5070 22123 c 23 -135 23 -273 -0 -408" class="C4" /><path d="M 5070 22123 l 572 -697" class="C4" /><path d="M 5641 21426 l 0 76" class="C4" /><path d="M 5031 21686 l 0 561" class="C4" /><path d="M 5649 21018 l -8 0" class="C4" /><path d="M 5649 20942 l -8 0" class="C4" /><path d="M 5649 21426 l -8 0" class="C4" /><path d="M 5641 28739 l 0 76" class="C4" /><path d="M 5641 28333 l -572 -699" class="C4" /><path d="M 5070 28041 c 23 -135 23 -272 -0 -407" class="C4" /><path d="M 5070 28041 l 572 698" class="C4" /><path d="M 5031 28070 l 610 745" class="C4" /><path d="M 5402 28041 l -333 0" class="C4" /><path d="M 5405 21714 l -335 0" class="C4" /><path d="M 5031 21686 l 0 -219" class="C4" /><path d="M 5031 28285 l 0 -216" class="C4" /><path d="M 42869 13432 l 0 6476" class="C5" /><path d="M 43007 13571 l 0 6200" class="C5" /><path d="M 49378 13571 l 0 6200" class="C5" /><path d="M 5649 25874 l 0 -7230" class="C4" /><path d="M 5903 26219 l 0 -345" class="C4" /><path d="M 5649 26039 c 24 118 135 196 254 179" class="C4" /><path d="M 5649 26039 c 0 -3 0 -6 0 -8 c 0 -3 0 -6 0 -9 c 0 -3 0 -6 0 -9 c 0 -3 0 -6 0 -9 c 0 -3 0 -6 0 -10 c 0 -3 0 -7 0 -10 c 0 -3 0 -7 0 -10 c 0 -3 0 -7 0 -11 c 0 -7 0 -14 0 -22 c 0 -7 0 -15 0 -22 c 0 -7 0 -15 0 -23 c 0 -8 0 -15 0 -23" class="C4" /><path d="M 22974 26219 l 0 -345" class="C4" /><path d="M 5903 26219 l 17071 0" class="C4" /><path d="M 23228 25874 c 0 -2296 0 -4592 0 -7230" class="C4" /><path d="M 23228 26039 c -0 -3 -0 -5 -0 -8 c 0 -3 0 -5 -0 -8 c -0 -3 -0 -5 -0 -8 c -0 -3 -0 -6 -0 -8 c -0 -3 -0 -6 -0 -9 c -0 -2 0 -4 0 -6 c 0 -6 0 -11 0 -17 c 0 -4 0 -8 0 -12 c -0 -4 -0 -8 -0 -13 c -0 -6 -0 -12 -0 -19 c -0 -6 -0 -13 -0 -19 c 0 -6 0 -13 0 -20 c 0 -7 0 -13 0 -20" class="C4" /><path d="M 22974 26219 c 119 17 230 -62 254 -179" class="C4" /><path d="M 23228 29936 l 0 -3897" class="C4" /><path d="M 5649 29936 l 0 -3897" class="C4" /><path d="M 23228 30005 c -0 -0 -0 -0 -0 -0 c 0 -0 0 -0 -0 -1 c -0 -0 -0 -1 -0 -1 c -0 -0 -0 -1 -0 -2 c -0 -1 -0 -1 -0 -2 c -0 -1 0 -1 0 -2 c 0 -2 0 -3 0 -6 c 0 -1 0 -3 0 -5 c -0 -2 -0 -4 -0 -5 c -0 -3 -0 -6 -0 -9 c -0 -3 -0 -7 -0 -11 c 0 -4 0 -8 0 -12 c 0 -4 0 -9 0 -13" class="C4" /><path d="M 5649 30005 c 0 -0 0 -0 0 -0 c 0 -0 0 -0 0 -1 c 0 -0 0 -1 0 -1 c 0 -1 0 -1 0 -2 c 0 -1 0 -2 0 -3 c 0 -1 0 -2 0 -3 c 0 -1 0 -2 0 -4 c 0 -1 0 -3 0 -4 c 0 -3 0 -6 0 -10 c 0 -4 0 -8 0 -12 c 0 -4 0 -9 0 -14 c 0 -5 0 -10 0 -16" class="C4" /><path d="M 5649 30005 c -0 67 27 132 74 179 c 48 48 112 74 179 74" class="C4" /><path d="M 22974 30258 l -17071 0" class="C4" /><path d="M 22974 30258 c 140 0 254 -114 254 -254" class="C4" /><path d="M 23228 4385 l 0 6888" class="C4" /><path d="M 22974 4039 l 0 345" class="C4" /><path d="M 23228 4219 c -24 -118 -135 -196 -254 -179" class="C4" /><path d="M 23228 4219 c 0 24 0 48 0 76 c 0 28 0 59 0 90" class="C4" /><path d="M 5903 4039 l 0 345" class="C4" /><path d="M 22974 4039 l -17071 0" class="C4" /><path d="M 5649 4385 c 0 287 0 574 0 861 c 0 287 0 574 0 861 c 0 287 0 574 0 861 c 0 287 -0 574 0 861 c 0 287 0 574 0 861 c 0 287 0 574 0 861 c 0 287 0 574 0 861 c 0 287 0 574 0 861" class="C4" /><path d="M 5649 4219 c 0 24 0 48 0 76 c 0 28 0 59 0 90" class="C4" /><path d="M 5903 4039 c -119 -17 -230 62 -254 179" class="C4" /><path d="M 5649 322 l 0 3897" class="C4" /><path d="M 23228 322 l 0 3897" class="C4" /><path d="M 5649 254 c 0 3 0 6 0 18 c 0 11 0 31 0 51" class="C4" /><path d="M 23228 254 c -0 3 -0 6 -0 18 c 0 11 0 31 0 51" class="C4" /><path d="M 5903 0 l 17071 0" class="C4" /><path d="M 23228 254 c 0 -67 -27 -132 -74 -179 c -48 -48 -112 -74 -179 -74" class="C4" /><path d="M 5903 0 c -140 0 -254 114 -254 254" class="C4" /><path d="M 6791 19617 l 0 -973" class="C4" /><path d="M 6791 11273 l 0 -632" class="C4" /><path d="M 6815 15209 l 0 -113" class="C4" /><path d="M 6815 15097 l 0 -48" class="C4" /><path d="M 6815 15049 c -5 -39 -13 -77 -24 -116" class="C4" /><path d="M 6791 14933 l 0 -3660" class="C4" /><path d="M 6791 18644 l 0 -3319" class="C4" /><path d="M 6791 15325 c 12 -39 20 -77 24 -116" class="C4" /><path d="M 22062 15049 l 0 48" class="C4" /><path d="M 22062 15097 l 0 113" class="C4" /><path d="M 22062 15209 c 5 39 13 77 24 116" class="C4" /><path d="M 22087 15325 l 0 3319" class="C4" /><path d="M 22087 11273 l 0 3660" class="C4" /><path d="M 22087 14933 c -12 39 -20 77 -24 116" class="C4" /><path d="M 22087 10641 l 0 632" class="C4" /><path d="M 22087 18644 l 0 973" class="C4" /><path d="M 7118 10395 l 14642 0" class="C4" /><path d="M 7118 19863 l 14642 0" class="C4" /><path d="M 21760 19863 c 192 -0 327 -102 327 -246" class="C4" /><path d="M 22087 10641 c -0 -145 -135 -246 -327 -246" class="C4" /><path d="M 6791 19617 c 0 145 135 246 327 246" class="C4" /><path d="M 7118 10395 c -192 0 -327 102 -327 246" class="C4" /><path d="M 22974 11273 l 0 7371" class="C4" /><path d="M 5903 18644 l 0 -7371" class="C4" /><path d="M 23228 18644 l 0 -7371" class="C4" /><path d="M 5649 11273 l 0 7371" class="C4" /><path d="M 23228 21820 l 16 0" class="C4" /><path d="M 23244 21687 l -16 0" class="C4" /><path d="M 23244 21687 l 0 133" class="C4" /><path d="M 23244 21901 l -16 0" class="C4" /><path d="M 23244 21901 l 0 133" class="C4" /><path d="M 23228 22034 l 16 0" class="C4" /><path d="M 23228 21901 l 16 0" class="C4" /><path d="M 23244 21901 l 0 -1" class="C4" /><path d="M 23228 21686 l 16 0" class="C4" /><path d="M 23244 21686 l 0 0" class="C4" /><path d="M 5643 28333 l 0 78" class="C4" /><path d="M 5480 28190 l 44 0" class="C4" /><path d="M 5480 28190 l 0 -53" class="C4" /><path d="M 5643 28367 l -163 0" class="C4" /><path d="M 5480 28367 l 0 -177" class="C4" /><path d="M 5643 21347 l 0 79" class="C4" /><path d="M 5513 21446 l -33 0" class="C4" /><path d="M 5513 21446 l 0 -41" class="C4" /><path d="M 5643 21405 l -130 0" class="C4" /><path d="M 5480 21581 l 33 0" class="C4" /><path d="M 5480 21581 l 0 -135" class="C4" /><path d="M 5480 21622 l 0 -41" class="C4" /><path d="M 5480 21401 l 33 0" class="C4" /><path d="M 5480 21401 l 0 -10" class="C4" /><path d="M 5643 21391 l -163 0" class="C4" /><path d="M 5513 21405 l 0 -3" class="C4" /><path d="M 5480 21401 l 0 45" class="C4" /><path d="M 5649 5558 l -16 0" class="C4" /><path d="M 5649 5694 l -16 0" class="C4" /><path d="M 5633 5694 l 0 -135" class="C4" /><path d="M 5649 5871 l -16 0" class="C4" /><path d="M 5633 5871 l 0 -177" class="C4" /><path d="M 5633 5514 l 16 0" class="C4" /><path d="M 5633 5514 l 0 -10" class="C4" /><path d="M 5649 5504 l -16 0" class="C4" /><path d="M 5633 5514 l 0 45" class="C4" /><path d="M 5649 8406 l -16 0" class="C4" /><path d="M 5649 8541 l -16 0" class="C4" /><path d="M 5633 8541 l 0 -135" class="C4" /><path d="M 5649 8718 l -16 0" class="C4" /><path d="M 5633 8718 l 0 -177" class="C4" /><path d="M 5633 8362 l 16 0" class="C4" /><path d="M 5633 8362 l 0 -10" class="C4" /><path d="M 5649 8351 l -16 0" class="C4" /><path d="M 5633 8362 l 0 45" class="C4" /><path d="M 8540 18782 c 0 117 95 212 212 212" class="C4" /><path d="M 8540 11476 l 0 7306" class="C4" /><path d="M 8752 11265 c -117 0 -212 95 -212 212" class="C4" /><path d="M 20126 11265 l -11374 0" class="C4" /><path d="M 20337 11476 c 0 -117 -95 -212 -212 -212" class="C4" /><path d="M 20337 18790 l 0 -7314" class="C4" /><path d="M 20134 18994 c 112 0 203 -91 203 -203" class="C4" /><path d="M 8752 18994 l 11383 0" class="C4" /><path d="M 23389 10060 l 0 -864" class="C4" /><path d="M 23389 10925 l 0 -864" class="C4" /><path d="M 30223 10060 l 0 -864" class="C4" /><path d="M 30223 10925 l 0 -864" class="C4" /><path d="M 5303 17623 l 0 -1904" class="C4" /><path d="M 4734 17415 l 0 -1487" class="C4" /><path d="M 4717 17411 l 0 -1481" class="C4" /><path d="M 4319 5687 l 0 -661" class="C4" /><path d="M 4319 6348 l 0 -661" class="C4" /><path d="M 23546 13432 l 0 6476" class="C4" /><path d="M 5903 18644 l 0 7230" class="C4" /><path d="M 22974 25874 l 0 -7230" class="C4" /><path d="M 22974 11273 l 0 -6888" class="C4" /><path d="M 5903 4385 l 0 6888" class="C4" /></g></svg>