<?xml version='1.0' encoding='utf-8'?>
<svg xmlns="http://www.w3.org/2000/svg" width="727.4mm" height="18.5mm" viewBox="0 0 1000000 25433"><defs><style>.C1 {stroke: #ffff00; stroke-width: 344; stroke-opacity: 1.000; fill: none; fill-opacity: 1.000;}</style><style>.C2 {stroke: #ff0000; stroke-width: 344; stroke-opacity: 1.000; fill: none; fill-opacity: 1.000;}</style><style>.C3 {stroke: #ffffff; stroke-width: 344; stroke-opacity: 1.000; fill: none; fill-opacity: 1.000;}</style><style>.C4 {stroke: #bf7fff; stroke-width: 344; stroke-opacity: 1.000; fill: none; fill-opacity: 1.000;}</style><style>.C5 {stroke: #00ff00; stroke-width: 344; stroke-opacity: 1.000; fill: none; fill-opacity: 1.000;}</style></defs><g stroke-linecap="round" stroke-linejoin="round" fill-rule="evenodd"><path d="M 36128 14012 l 166857 -0" class="C1" /><path d="M 36128 16745 l 159282 0" class="C2" /><path d="M 36128 23109 l 164774 -0" class="C2" /><path d="M 36128 15728 l 164774 -0" class="C2" /><path d="M 36128 4915 l 164774 0" class="C2" /><path d="M 200902 23109 l 0 -18194" class="C2" /><path d="M 36128 12296 l 164774 -0" class="C2" /><path d="M 195526 16628 l 5376 0" class="C2" /><path d="M 195526 11396 l 5376 0" class="C2" /><path d="M 36128 11280 l 159282 0" class="C2" /><path d="M 195410 11280 l 0 5465" class="C2" /><path d="M 195526 11396 l -117 -117" class="C2" /><path d="M 195526 11396 l 0 5232" class="C2" /><path d="M 195526 16628 l -117 117" class="C2" /><path d="M 200902 16628 l 0 -5232" class="C2" /><path d="M 36128 23109 l 0 -18194" class="C2" /><path d="M 36128 16745 l 0 -5465" class="C2" /><path d="M 832538 14012 l 166857 -0" class="C1" /><path d="M 832538 16745 l 159282 0" class="C3" /><path d="M 832538 23109 l 164774 -0" class="C3" /><path d="M 832538 15728 l 164774 -0" class="C3" /><path d="M 832538 4915 l 164774 0" class="C3" /><path d="M 997312 23109 l 0 -18194" class="C3" /><path d="M 832538 12296 l 164774 -0" class="C3" /><path d="M 991936 16628 l 5376 0" class="C3" /><path d="M 991936 11396 l 5376 0" class="C3" /><path d="M 832538 11280 l 159282 0" class="C3" /><path d="M 991820 11280 l 0 5465" class="C3" /><path d="M 991936 11396 l -117 -117" class="C3" /><path d="M 991936 11396 l 0 5232" class="C3" /><path d="M 991936 16628 l -117 117" class="C3" /><path d="M 997312 16628 l 0 -5232" class="C3" /><path d="M 673256 14012 l 166857 0" class="C1" /><path d="M 673256 12296 l 164774 0" class="C3" /><path d="M 673256 15728 l 164774 -0" class="C3" /><path d="M 673256 4915 l 164774 0" class="C3" /><path d="M 673256 23109 l 164774 -0" class="C3" /><path d="M 673256 16745 l 159282 0" class="C3" /><path d="M 673256 23109 l 0 -18194" class="C3" /><path d="M 832654 16628 l 5376 0" class="C3" /><path d="M 832654 11396 l 5376 0" class="C3" /><path d="M 673256 11280 l 159282 -0" class="C3" /><path d="M 832538 11280 l 0 5465" class="C3" /><path d="M 832654 11396 l 0 5232" class="C3" /><path d="M 832654 11396 l -117 -117" class="C3" /><path d="M 832654 16628 l -117 117" class="C3" /><path d="M 838030 16628 l 0 -5232" class="C3" /><path d="M 832538 11280 l 0 5465" class="C3" /><path d="M 673256 16745 l 0 -5465" class="C3" /><path d="M 838030 23109 l 0 -18194" class="C3" /><path d="M 832538 23109 l 0 -18194" class="C3" /><path d="M 354692 14012 l 166857 -0" class="C1" /><path d="M 354692 12296 l 164774 -0" class="C3" /><path d="M 354692 15728 l 164774 -0" class="C3" /><path d="M 354692 4915 l 164774 0" class="C3" /><path d="M 354692 23109 l 164774 -0" class="C3" /><path d="M 354692 16745 l 159282 0" class="C3" /><path d="M 519466 23109 l 0 -18194" class="C3" /><path d="M 514090 16628 l 5376 0" class="C3" /><path d="M 514090 11396 l 5376 0" class="C3" /><path d="M 354692 11280 l 159282 0" class="C3" /><path d="M 513974 11280 l 0 5465" class="C3" /><path d="M 514090 11396 l 0 5232" class="C3" /><path d="M 514090 11396 l -117 -117" class="C3" /><path d="M 514090 16628 l -117 117" class="C3" /><path d="M 519466 16628 l 0 -5232" class="C3" /><path d="M 195410 14012 l 166857 -0" class="C1" /><path d="M 195410 12296 l 164774 -0" class="C3" /><path d="M 195410 15728 l 164774 -0" class="C3" /><path d="M 195410 4915 l 164774 0" class="C3" /><path d="M 195410 23109 l 164774 -0" class="C3" /><path d="M 195410 16745 l 159282 0" class="C3" /><path d="M 195410 23109 l 0 -18194" class="C3" /><path d="M 354808 16628 l 5376 0" class="C3" /><path d="M 354808 11396 l 5376 0" class="C3" /><path d="M 195410 11280 l 159282 -0" class="C3" /><path d="M 354692 11280 l 0 5465" class="C3" /><path d="M 354808 11396 l 0 5232" class="C3" /><path d="M 354808 11396 l -117 -117" class="C3" /><path d="M 354808 16628 l -117 117" class="C3" /><path d="M 360184 16628 l 0 -5232" class="C3" /><path d="M 354692 11280 l 0 5465" class="C3" /><path d="M 195410 16745 l 0 -5465" class="C3" /><path d="M 360184 23109 l 0 -18194" class="C3" /><path d="M 354692 23109 l 0 -18194" class="C3" /><path d="M 513974 14012 l 166857 0" class="C1" /><path d="M 513974 12296 l 164774 0" class="C3" /><path d="M 513974 15728 l 164774 0" class="C3" /><path d="M 513974 4915 l 164774 0" class="C3" /><path d="M 513974 23109 l 164774 -0" class="C3" /><path d="M 513974 16745 l 159282 0" class="C3" /><path d="M 678748 23109 l 0 -18194" class="C3" /><path d="M 513974 23109 l 0 -18194" class="C3" /><path d="M 673372 16628 l 5376 0" class="C3" /><path d="M 673372 11396 l 5376 0" class="C3" /><path d="M 513974 11280 l 159282 -0" class="C3" /><path d="M 673256 11280 l 0 5465" class="C3" /><path d="M 673372 11396 l 0 5232" class="C3" /><path d="M 673372 11396 l -117 -117" class="C3" /><path d="M 673372 16628 l -117 117" class="C3" /><path d="M 678748 16628 l 0 -5232" class="C3" /><path d="M 513974 16745 l 0 -5465" class="C3" /><path d="M 2435 14012 l 39818 0" class="C1" /><path d="M 19619 9370 c 55 -16 92 -66 92 -123" class="C4" /><path d="M 19711 7665 c 0 -57 -38 -107 -92 -123" class="C4" /><path d="M 25541 9247 c 0 48 27 93 71 115 c 43 22 95 17 134 -12" class="C4" /><path d="M 25746 7562 c -39 -29 -91 -34 -134 -12 c -43 22 -71 66 -71 115" class="C4" /><path d="M 19754 9183 c -24 0 -43 19 -43 43" class="C4" /><path d="M 19711 7687 c 0 24 19 43 43 43" class="C4" /><path d="M 25541 9225 c 0 -24 -19 -43 -43 -43" class="C4" /><path d="M 25499 7729 c 24 0 43 -19 43 -43" class="C4" /><path d="M 24345 9183 l 1154 0" class="C4" /><path d="M 25499 7729 l -1154 0" class="C4" /><path d="M 19754 9183 l 1154 0" class="C4" /><path d="M 20908 7729 l -1154 0" class="C4" /><path d="M 20908 9097 l 3436 0" class="C4" /><path d="M 24345 7815 l -3436 0" class="C4" /><path d="M 4794 15166 l 50 0" class="C4" /><path d="M 4843 12858 l -50 0" class="C4" /><path d="M 4580 15079 l 128 0" class="C4" /><path d="M 4708 12946 l -128 0" class="C4" /><path d="M 4708 14953 l 85 0" class="C4" /><path d="M 4794 13072 l -85 0" class="C4" /><path d="M 4580 14853 c 0 -18 -11 -34 -28 -40" class="C4" /><path d="M 4552 13212 c 17 -6 28 -22 28 -40" class="C4" /><path d="M 4552 13212 l -478 175" class="C4" /><path d="M 4074 14637 l 478 175" class="C4" /><path d="M 4074 14637 c -5 -2 -10 -3 -15 -3" class="C4" /><path d="M 4060 13390 c 5 0 10 -1 15 -3" class="C4" /><path d="M 3554 14635 l 505 0" class="C4" /><path d="M 4060 13390 l -505 0" class="C4" /><path d="M 3554 13431 l -684 0" class="C4" /><path d="M 2870 14594 l 684 0" class="C4" /><path d="M 1802 13435 l -1026 0" class="C4" /><path d="M 776 14589 l 1026 0" class="C4" /><path d="M 776 13435 l -171 171" class="C4" /><path d="M 605 14419 l 171 171" class="C4" /><path d="M 3725 5336 l 171 0" class="C4" /><path d="M 3896 4225 l -171 0" class="C4" /><path d="M 3554 5165 c 0 94 77 171 171 171" class="C4" /><path d="M 3725 4225 c -94 0 -171 77 -171 171" class="C4" /><path d="M 4495 5250 l 256 0" class="C4" /><path d="M 4751 4310 l -256 0" class="C4" /><path d="M 4843 4139 l -7 0" class="C4" /><path d="M 4837 5421 l 7 0" class="C4" /><path d="M 2340 18217 c -38 0 -68 31 -68 68" class="C4" /><path d="M 2272 23534 c 0 38 31 68 68 68" class="C4" /><path d="M 2340 23602 l 1983 0" class="C4" /><path d="M 4324 18217 l -1983 0" class="C4" /><path d="M 4474 18044 l -151 0" class="C4" /><path d="M 4324 23775 l 148 0" class="C4" /><path d="M 19619 11162 c 65 81 163 128 267 128" class="C4" /><path d="M 19886 16734 c -93 0 -182 38 -246 105" class="C4" /><path d="M 25798 11290 l -5912 0" class="C5" /><path d="M 36128 11290 l -4175 0" class="C5" /><path d="M 19886 16734 l 16242 0" class="C5" /><path d="M 36128 16734 l 116 -116" class="C5" /><path d="M 36244 11407 l -116 -116" class="C5" /><path d="M 41599 11407 l -5355 0" class="C5" /><path d="M 36244 16618 l 5355 0" class="C5" /><path d="M 19619 25162 l 0 -3275" class="C4" /><path d="M 4843 21887 l 0 3275" class="C4" /><path d="M 4843 271 l 0 3275" class="C4" /><path d="M 19619 3546 l 0 -3275" class="C4" /><path d="M 4843 17943 l -5 0" class="C4" /><path d="M 19800 10950 l -89 0" class="C4" /><path d="M 19800 10950 l 0 217" class="C4" /><path d="M 19800 11167 l -177 0" class="C4" /><path d="M 19800 10691 l -89 0" class="C4" /><path d="M 19800 10691 l 0 259" class="C4" /><path d="M 19800 10650 l -89 0" class="C4" /><path d="M 19800 10650 l 0 41" class="C4" /><path d="M 19800 17399 l -181 0" class="C4" /><path d="M 19800 17393 l 0 6" class="C4" /><path d="M 19711 10688 l -92 0" class="C4" /><path d="M 19711 10688 l 0 260" class="C4" /><path d="M 19711 10948 l -92 0" class="C4" /><path d="M 19711 11163 l -92 0" class="C4" /><path d="M 19711 10948 l 0 215" class="C4" /><path d="M 19711 10643 l -92 0" class="C4" /><path d="M 19711 10643 l 0 45" class="C4" /><path d="M 19800 16993 l -181 0" class="C4" /><path d="M 19800 16993 l 0 277" class="C4" /><path d="M 19800 17271 l -181 0" class="C4" /><path d="M 19800 16839 l -181 0" class="C4" /><path d="M 19800 16839 l 0 155" class="C4" /><path d="M 19800 17393 l -181 0" class="C4" /><path d="M 19800 17271 l 0 123" class="C4" /><path d="M 19800 13884 l -181 0" class="C4" /><path d="M 19800 13884 l 0 277" class="C4" /><path d="M 19800 14162 l -181 0" class="C4" /><path d="M 19800 13730 l -181 0" class="C4" /><path d="M 19800 13730 l 0 155" class="C4" /><path d="M 19800 14284 l -181 0" class="C4" /><path d="M 19800 14162 l 0 123" class="C4" /><path d="M 25746 8826 l 6283 0" class="C4" /><path d="M 25746 8826 l 0 -2052" class="C4" /><path d="M 25746 6774 l 6283 0" class="C4" /><path d="M 32029 8826 l 0 -2052" class="C4" /><path d="M 25746 9510 l 0 -684" class="C4" /><path d="M 32029 9510 l 0 -684" class="C4" /><path d="M 25746 9510 l 6283 0" class="C4" /><path d="M 31972 11290 l 0 -1780" class="C4" /><path d="M 32029 11290 l 0 -1780" class="C4" /><path d="M 25746 11290 l 0 -1780" class="C4" /><path d="M 25798 14012 l 6155 0" class="C4" /><path d="M 25798 14012 l 0 -4445" class="C4" /><path d="M 25798 9567 l 6155 0" class="C4" /><path d="M 31953 14012 l 0 -4445" class="C4" /><path d="M 31895 9567 l 0 -57" class="C4" /><path d="M 25855 9510 l 0 57" class="C4" /><path d="M 31953 9567 l 0 -57" class="C4" /><path d="M 25798 9567 l 0 -57" class="C4" /><path d="M 19711 8456 l 0 -791" class="C4" /><path d="M 19711 9247 l 0 -791" class="C4" /><path d="M 25541 8456 l 0 -791" class="C4" /><path d="M 25541 9247 l 0 -791" class="C4" /><path d="M 24345 8456 l 0 -727" class="C4" /><path d="M 24345 9183 l 0 -727" class="C4" /><path d="M 20908 8456 l 0 -727" class="C4" /><path d="M 20908 9183 l 0 -727" class="C4" /><path d="M 4794 15166 l 0 -2308" class="C4" /><path d="M 4580 15079 l 0 -2134" class="C4" /><path d="M 4708 15079 l 0 -2134" class="C4" /><path d="M 1802 14034 l 1069 0" class="C4" /><path d="M 1802 14034 l 0 -43" class="C4" /><path d="M 1802 13991 l 1069 0" class="C4" /><path d="M 2870 14034 l 0 -43" class="C4" /><path d="M 1802 13405 l 1069 0" class="C4" /><path d="M 1802 13991 l 0 -587" class="C4" /><path d="M 2870 13991 l 0 -587" class="C4" /><path d="M 1802 14620 l 1069 0" class="C4" /><path d="M 1802 14620 l 0 -587" class="C4" /><path d="M 2870 14620 l 0 -587" class="C4" /><path d="M 3554 14635 l 0 -1245" class="C4" /><path d="M 776 13435 l 0 1154" class="C4" /><path d="M 605 14419 l 0 -812" class="C4" /><path d="M 1802 14642 l 1069 0" class="C4" /><path d="M 1802 14642 l 0 -21" class="C4" /><path d="M 2870 14642 l 0 -21" class="C4" /><path d="M 1802 13383 l 1069 0" class="C4" /><path d="M 1802 13405 l 0 -21" class="C4" /><path d="M 2870 13405 l 0 -21" class="C4" /><path d="M 4830 4817 l -79 0" class="C4" /><path d="M 4843 5308 l -92 0" class="C4" /><path d="M 4751 4817 l 0 490" class="C4" /><path d="M 4495 4817 l -598 0" class="C4" /><path d="M 4495 4817 l 0 490" class="C4" /><path d="M 4495 5308 l -598 0" class="C4" /><path d="M 3896 4817 l 0 490" class="C4" /><path d="M 4495 4743 l -598 0" class="C4" /><path d="M 3896 4743 l 0 74" class="C4" /><path d="M 4495 4743 l 0 74" class="C4" /><path d="M 4830 4743 l -79 0" class="C4" /><path d="M 4751 4743 l 0 74" class="C4" /><path d="M 4495 4253 l -598 0" class="C4" /><path d="M 3896 4253 l 0 490" class="C4" /><path d="M 4495 4253 l 0 490" class="C4" /><path d="M 4843 4253 l -92 0" class="C4" /><path d="M 4751 4253 l 0 490" class="C4" /><path d="M 3554 4780 l 0 -385" class="C4" /><path d="M 3554 5165 l 0 -385" class="C4" /><path d="M 4843 5345 l -92 0" class="C4" /><path d="M 4751 5308 l 0 37" class="C4" /><path d="M 4495 5345 l -598 0" class="C4" /><path d="M 3896 5308 l 0 37" class="C4" /><path d="M 4495 5308 l 0 37" class="C4" /><path d="M 4843 4216 l -92 0" class="C4" /><path d="M 4751 4216 l 0 37" class="C4" /><path d="M 4495 4216 l -598 0" class="C4" /><path d="M 3896 4216 l 0 37" class="C4" /><path d="M 4495 4216 l 0 37" class="C4" /><path d="M 4843 18699 l -520 0" class="C4" /><path d="M 4843 23124 l -520 0" class="C4" /><path d="M 4324 23124 l 0 -4426" class="C4" /><path d="M 2272 23534 l 0 -5249" class="C4" /><path d="M 4324 18699 l 513 -625" class="C4" /><path d="M 4843 18073 l -7 0" class="C4" /><path d="M 4324 18227 l 513 -625" class="C4" /><path d="M 4837 17602 l 0 64" class="C4" /><path d="M 4837 17666 l -481 585" class="C4" /><path d="M 4356 18595 c 19 -114 19 -230 -0 -343" class="C4" /><path d="M 4356 18595 l 480 -586" class="C4" /><path d="M 4837 18009 l 0 64" class="C4" /><path d="M 4324 18227 l 0 471" class="C4" /><path d="M 4843 17666 l -7 0" class="C4" /><path d="M 4843 17602 l -7 0" class="C4" /><path d="M 4843 18009 l -7 0" class="C4" /><path d="M 4837 24156 l 0 64" class="C4" /><path d="M 4837 23815 l -481 -588" class="C4" /><path d="M 4356 23569 c 19 -113 19 -229 -0 -342" class="C4" /><path d="M 4356 23569 l 480 587" class="C4" /><path d="M 4324 23593 l 513 626" class="C4" /><path d="M 4636 23569 l -280 0" class="C4" /><path d="M 4638 18251 l -282 0" class="C4" /><path d="M 4324 18228 l 0 -184" class="C4" /><path d="M 4324 23775 l 0 -181" class="C4" /><path d="M 36128 11290 l 0 5444" class="C5" /><path d="M 36244 11407 l 0 5211" class="C5" /><path d="M 41599 11407 l 0 5211" class="C5" /><path d="M 4843 21748 l 0 -6077" class="C4" /><path d="M 5057 22038 l 0 -290" class="C4" /><path d="M 4843 21887 c 20 99 114 165 213 151" class="C4" /><path d="M 4843 21887 c 0 -2 0 -5 0 -7 c 0 -2 0 -5 0 -7 c 0 -2 0 -5 0 -8 c 0 -3 0 -5 0 -8 c 0 -3 0 -5 0 -8 c 0 -3 0 -6 0 -8 c 0 -3 0 -6 0 -9 c 0 -3 0 -6 0 -9 c 0 -6 0 -12 0 -18 c 0 -6 0 -12 0 -19 c 0 -6 0 -13 0 -19 c 0 -6 0 -13 0 -19" class="C4" /><path d="M 19406 22038 l 0 -290" class="C4" /><path d="M 5057 22038 l 14349 0" class="C4" /><path d="M 19619 21748 c 0 -1930 0 -3860 0 -6077" class="C4" /><path d="M 19619 21887 c -0 -2 -0 -4 -0 -6 c 0 -2 0 -4 -0 -7 c -0 -2 -0 -5 -0 -7 c -0 -2 -0 -5 -0 -7 c -0 -2 -0 -5 -0 -7 c -0 -2 0 -3 0 -5 c 0 -5 0 -9 0 -14 c 0 -3 0 -7 0 -10 c -0 -3 -0 -7 -0 -11 c -0 -5 -0 -10 -0 -16 c -0 -5 -0 -11 -0 -16 c 0 -5 0 -11 0 -16 c 0 -5 0 -11 0 -17" class="C4" /><path d="M 19406 22038 c 100 14 193 -52 213 -151" class="C4" /><path d="M 19619 25162 l 0 -3275" class="C4" /><path d="M 4843 25162 l 0 -3275" class="C4" /><path d="M 19619 25220 c -0 -0 -0 -0 -0 -0 c 0 -0 0 -0 -0 -1 c -0 -0 -0 -1 -0 -1 c -0 -0 -0 -1 -0 -1 c -0 -1 -0 -1 -0 -2 c -0 -0 0 -1 0 -1 c 0 -1 0 -3 0 -5 c 0 -1 0 -3 0 -4 c -0 -1 -0 -3 -0 -5 c -0 -2 -0 -5 -0 -8 c -0 -3 -0 -6 -0 -9 c 0 -3 0 -7 0 -10 c 0 -4 0 -7 0 -11" class="C4" /><path d="M 4843 25220 c 0 -0 0 -0 0 -0 c 0 -0 0 -0 0 -1 c 0 -0 0 -1 0 -1 c 0 -0 0 -1 0 -2 c 0 -1 0 -1 0 -2 c 0 -1 0 -2 0 -3 c 0 -1 0 -2 0 -3 c 0 -1 0 -2 0 -4 c 0 -2 0 -5 0 -8 c 0 -3 0 -6 0 -10 c 0 -4 0 -7 0 -11 c 0 -4 0 -9 0 -13" class="C4" /><path d="M 4843 25220 c -0 57 22 111 62 151 c 40 40 94 62 151 62" class="C4" /><path d="M 19406 25433 l -14349 0" class="C4" /><path d="M 19406 25433 c 118 0 213 -96 213 -213" class="C4" /><path d="M 19619 3685 l 0 5790" class="C4" /><path d="M 19406 3395 l 0 290" class="C4" /><path d="M 19619 3546 c -20 -99 -114 -165 -213 -151" class="C4" /><path d="M 19619 3546 c 0 20 0 41 0 64 c 0 23 0 49 0 75" class="C4" /><path d="M 5057 3395 l 0 290" class="C4" /><path d="M 19406 3395 l -14349 0" class="C4" /><path d="M 4843 3685 c 0 241 0 482 0 724 c 0 241 -0 482 0 724 c 0 241 0 482 0 724 c 0 241 0 482 0 724 c 0 241 -0 482 0 724 c 0 241 0 482 0 724 c 0 241 0 482 0 724 c 0 241 0 482 0 724" class="C4" /><path d="M 4843 3546 c 0 20 0 41 0 64 c 0 23 0 49 0 76" class="C4" /><path d="M 5057 3395 c -100 -14 -193 52 -213 151" class="C4" /><path d="M 4843 271 l 0 3275" class="C4" /><path d="M 19619 271 l 0 3275" class="C4" /><path d="M 4843 213 c 0 3 0 5 0 15 c 0 10 0 26 0 43" class="C4" /><path d="M 19619 213 c -0 3 -0 5 -0 15 c 0 10 0 26 0 43" class="C4" /><path d="M 5057 0 l 14349 0" class="C4" /><path d="M 19619 213 c 0 -57 -22 -111 -62 -151 c -40 -40 -94 -62 -151 -62" class="C4" /><path d="M 5057 0 c -118 0 -213 96 -213 213" class="C4" /><path d="M 5803 16489 l 0 -818" class="C4" /><path d="M 5803 9475 l 0 -531" class="C4" /><path d="M 5823 12784 l 0 -95" class="C4" /><path d="M 5823 12689 l 0 -40" class="C4" /><path d="M 5823 12649 c -4 -33 -11 -65 -21 -98" class="C4" /><path d="M 5803 12552 l 0 -3077" class="C4" /><path d="M 5803 15671 l 0 -2789" class="C4" /><path d="M 5803 12881 c 10 -33 17 -65 21 -98" class="C4" /><path d="M 18639 12649 l 0 40" class="C4" /><path d="M 18639 12689 l 0 95" class="C4" /><path d="M 18639 12784 c 4 33 11 65 21 98" class="C4" /><path d="M 18660 12881 l 0 2789" class="C4" /><path d="M 18660 9475 l 0 3077" class="C4" /><path d="M 18660 12552 c -10 33 -17 65 -21 98" class="C4" /><path d="M 18660 8944 l 0 531" class="C4" /><path d="M 18660 15671 l 0 818" class="C4" /><path d="M 6078 8737 l 12307 0" class="C4" /><path d="M 6078 16696 l 12307 0" class="C4" /><path d="M 18385 16696 c 162 -0 275 -85 275 -207" class="C4" /><path d="M 18660 8944 c -0 -122 -113 -207 -275 -207" class="C4" /><path d="M 5803 16489 c 0 122 113 207 275 207" class="C4" /><path d="M 6078 8737 c -162 0 -275 85 -275 207" class="C4" /><path d="M 19406 9475 l 0 6196" class="C4" /><path d="M 5057 15671 l 0 -6196" class="C4" /><path d="M 19619 15671 l 0 -6196" class="C4" /><path d="M 4843 9475 l 0 6196" class="C4" /><path d="M 19619 18340 l 14 0" class="C4" /><path d="M 19633 18228 l -14 0" class="C4" /><path d="M 19633 18228 l 0 112" class="C4" /><path d="M 19633 18409 l -14 0" class="C4" /><path d="M 19633 18409 l 0 112" class="C4" /><path d="M 19619 18520 l 14 0" class="C4" /><path d="M 19619 18408 l 14 0" class="C4" /><path d="M 19633 18409 l 0 -1" class="C4" /><path d="M 19619 18228 l 14 0" class="C4" /><path d="M 19633 18228 l 0 0" class="C4" /><path d="M 4838 23815 l 0 66" class="C4" /><path d="M 4701 23694 l 37 0" class="C4" /><path d="M 4701 23694 l 0 -45" class="C4" /><path d="M 4838 23843 l -137 0" class="C4" /><path d="M 4701 23843 l 0 -149" class="C4" /><path d="M 4838 17943 l 0 66" class="C4" /><path d="M 4729 18026 l -27 0" class="C4" /><path d="M 4729 18026 l 0 -35" class="C4" /><path d="M 4838 17991 l -109 0" class="C4" /><path d="M 4701 18140 l 28 0" class="C4" /><path d="M 4701 18140 l 0 -114" class="C4" /><path d="M 4701 18174 l 0 -34" class="C4" /><path d="M 4701 17989 l 27 0" class="C4" /><path d="M 4701 17989 l 0 -9" class="C4" /><path d="M 4838 17980 l -137 0" class="C4" /><path d="M 4729 17991 l 0 -3" class="C4" /><path d="M 4701 17989 l 0 37" class="C4" /><path d="M 4843 4672 l -14 0" class="C4" /><path d="M 4843 4786 l -14 0" class="C4" /><path d="M 4830 4786 l 0 -114" class="C4" /><path d="M 4843 4935 l -14 0" class="C4" /><path d="M 4830 4935 l 0 -149" class="C4" /><path d="M 4830 4635 l 14 0" class="C4" /><path d="M 4830 4635 l 0 -9" class="C4" /><path d="M 4843 4626 l -14 0" class="C4" /><path d="M 4830 4635 l 0 37" class="C4" /><path d="M 4843 7066 l -14 0" class="C4" /><path d="M 4843 7179 l -14 0" class="C4" /><path d="M 4830 7179 l 0 -114" class="C4" /><path d="M 4843 7328 l -14 0" class="C4" /><path d="M 4830 7328 l 0 -149" class="C4" /><path d="M 4830 7028 l 14 0" class="C4" /><path d="M 4830 7028 l 0 -9" class="C4" /><path d="M 4843 7020 l -14 0" class="C4" /><path d="M 4830 7028 l 0 37" class="C4" /><path d="M 7273 15787 c 0 98 80 178 178 178" class="C4" /><path d="M 7273 9646 l 0 6141" class="C4" /><path d="M 7451 9468 c -98 0 -178 80 -178 178" class="C4" /><path d="M 17011 9468 l -9560 0" class="C4" /><path d="M 17189 9646 c 0 -98 -80 -178 -178 -178" class="C4" /><path d="M 17189 15794 l 0 -6148" class="C4" /><path d="M 17018 15965 c 94 0 171 -77 171 -171" class="C4" /><path d="M 7451 15965 l 9567 0" class="C4" /><path d="M 19754 8456 l 0 -727" class="C4" /><path d="M 19754 9183 l 0 -727" class="C4" /><path d="M 25499 8456 l 0 -727" class="C4" /><path d="M 25499 9183 l 0 -727" class="C4" /><path d="M 4552 14813 l 0 -1600" class="C4" /><path d="M 4074 14637 l 0 -1250" class="C4" /><path d="M 4060 14635 l 0 -1245" class="C4" /><path d="M 3725 4780 l 0 -556" class="C4" /><path d="M 3725 5336 l 0 -556" class="C4" /><path d="M 19886 11290 l 0 5444" class="C4" /><path d="M 5057 15671 l 0 6077" class="C4" /><path d="M 19406 21748 l 0 -6077" class="C4" /><path d="M 19406 9475 l 0 -5790" class="C4" /><path d="M 5057 3685 l 0 5790" class="C4" /></g></svg>