<?xml version='1.0' encoding='utf-8'?>
<svg xmlns="http://www.w3.org/2000/svg" width="28.5mm" height="29.2mm" viewBox="0 0 976027 1000000"><defs><style>.C1 {stroke: #ffff00; stroke-width: 8562; stroke-opacity: 1.000; fill: none; fill-opacity: 1.000;}</style><style>.C2 {stroke: #ff00ff; stroke-width: 8562; stroke-opacity: 1.000; fill: none; fill-opacity: 1.000;}</style></defs><g stroke-linecap="round" stroke-linejoin="round" fill-rule="evenodd"><path d="M 35 773504 l 475957 -0" class="C1" /><path d="M 792231 816239 l -521368 0" class="C2" /><path d="M 706761 730769 l -435897 0" class="C2" /><path d="M 475992 705470 l -205128 0" class="C2" /><path d="M 267958 708376 l -133846 0" class="C2" /><path d="M 267958 838632 l -133846 0" class="C2" /><path d="M 475992 841538 l -205128 0" class="C2" /><path d="M 270864 841538 l 0 -136068" class="C2" /><path d="M 267958 838632 l 0 -130256" class="C2" /><path d="M 267958 838632 l 2906 2906" class="C2" /><path d="M 267958 708376 l 2906 -2906" class="C2" /><path d="M 134112 708376 l 0 130256" class="C2" /><path d="M 523001 547009 l -252137 0" class="C2" /><path d="M 975992 1000000 l -705128 0" class="C2" /><path d="M 270864 547009 l 0 452991" class="C2" /><path d="M 208059 226496 l 267934 0" class="C1" /><path d="M 475992 773504 c 151052 0 273504 -122452 273504 -273504 c 0 -151052 -122452 -273504 -273504 -273504" class="C1" /><path d="M 475992 841538 c 188626 0 341538 -152912 341538 -341538 c 0 -188626 -152912 -341538 -341538 -341538" class="C2" /><path d="M 475992 705470 c 113478 0 205470 -91992 205470 -205470 c 0 -113478 -91992 -205470 -205470 -205470" class="C2" /><path d="M 475992 294530 l -205128 0" class="C2" /><path d="M 475992 158462 l -205128 0" class="C2" /><path d="M 270864 158462 l 0 136068" class="C2" /><path d="M 975992 0 l 0 1000000" class="C2" /><path d="M 523001 452991 l 0 94017" class="C2" /><path d="M 523001 452991 l -252137 0" class="C2" /><path d="M 270864 452991 l 0 -452991" class="C2" /><path d="M 975992 0 l -705128 0" class="C2" /><path d="M 975992 0 l -452991 452991" class="C2" /><path d="M 975992 1000000 l -452991 -452991" class="C2" /><path d="M 706761 730769 l 0 -461538" class="C2" /><path d="M 792231 816239 l 0 -632479" class="C2" /><path d="M 792231 183761 l -521368 0" class="C2" /><path d="M 706761 269231 l -435897 0" class="C2" /></g></svg>