<?xml version='1.0' encoding='utf-8'?>
<svg xmlns="http://www.w3.org/2000/svg" width="334.5mm" height="32.8mm" viewBox="0 0 1000000 98057"><defs><style>.C1 {stroke: #ffff00; stroke-width: 747; stroke-opacity: 1.000; fill: none; fill-opacity: 1.000;}</style><style>.C2 {stroke: #ff00ff; stroke-width: 747; stroke-opacity: 1.000; fill: none; fill-opacity: 1.000;}</style><style>.C3 {stroke: #ffffff; stroke-width: 747; stroke-opacity: 1.000; fill: none; fill-opacity: 1.000;}</style><style>.C4 {stroke: #ff0000; stroke-width: 747; stroke-opacity: 1.000; fill: none; fill-opacity: 1.000;}</style><style>.C5 {stroke: #bf7fff; stroke-width: 747; stroke-opacity: 1.000; fill: none; fill-opacity: 1.000;}</style><style>.C6 {stroke: #00ff00; stroke-width: 747; stroke-opacity: 1.000; fill: none; fill-opacity: 1.000;}</style></defs><g stroke-linecap="round" stroke-linejoin="round" fill-rule="evenodd"><path d="M 914277 78269 l 41582 -0" class="C1" /><path d="M 983488 82003 l -45549 0" class="C2" /><path d="M 976021 74535 l -38082 0" class="C2" /><path d="M 955860 72325 l -17921 0" class="C2" /><path d="M 937685 72579 l -11693 0" class="C2" /><path d="M 937685 83959 l -11693 0" class="C2" /><path d="M 955860 84213 l -17921 0" class="C2" /><path d="M 937938 84213 l 0 -11888" class="C2" /><path d="M 937685 83959 l 0 -11380" class="C2" /><path d="M 937685 83959 l 254 254" class="C2" /><path d="M 937685 72579 l 254 -254" class="C2" /><path d="M 925991 72579 l 0 11380" class="C2" /><path d="M 959966 58481 l -22028 0" class="C2" /><path d="M 999542 98057 l -61604 0" class="C2" /><path d="M 937938 58481 l 0 39576" class="C2" /><path d="M 932451 30479 l 23408 0" class="C1" /><path d="M 955860 78269 c 13197 0 23895 -10698 23895 -23895 c 0 -13197 -10698 -23895 -23895 -23895" class="C1" /><path d="M 955860 84213 c 16479 0 29839 -13359 29839 -29839 c 0 -16479 -13359 -29839 -29839 -29839" class="C2" /><path d="M 955860 72325 c 9914 0 17951 -8037 17951 -17951 c 0 -9914 -8037 -17951 -17951 -17951" class="C2" /><path d="M 955860 36423 l -17921 0" class="C2" /><path d="M 955860 24536 l -17921 0" class="C2" /><path d="M 937938 24536 l 0 11888" class="C2" /><path d="M 999542 10692 l 0 87365" class="C2" /><path d="M 959966 50267 l 0 8214" class="C2" /><path d="M 959966 50267 l -22028 0" class="C2" /><path d="M 937938 50267 l 0 -39576" class="C2" /><path d="M 999542 10692 l -61604 0" class="C2" /><path d="M 999542 10692 l -39576 39576" class="C2" /><path d="M 999542 98057 l -39576 -39576" class="C2" /><path d="M 976021 74535 l 0 -40322" class="C2" /><path d="M 983488 82003 l 0 -55257" class="C2" /><path d="M 983488 26746 l -45549 0" class="C2" /><path d="M 976021 34213 l -38082 0" class="C2" /><path d="M 756493 30479 l 197924 0" class="C1" /><path d="M 770675 24536 l 167263 0" class="C3" /><path d="M 770675 10692 l 179211 0" class="C3" /><path d="M 770675 26746 l 179211 0" class="C3" /><path d="M 770675 50267 l 179211 0" class="C3" /><path d="M 949886 10692 l 0 39576" class="C3" /><path d="M 770675 34213 l 179211 0" class="C3" /><path d="M 938192 24790 l 11693 0" class="C3" /><path d="M 938192 36169 l 11693 0" class="C3" /><path d="M 770675 36423 l 167263 0" class="C3" /><path d="M 937938 36423 l 0 -11888" class="C3" /><path d="M 938192 36169 l -254 254" class="C3" /><path d="M 938192 36169 l 0 -11380" class="C3" /><path d="M 938192 24790 l -254 -254" class="C3" /><path d="M 949886 24790 l 0 11380" class="C3" /><path d="M 770675 24536 l 0 11888" class="C3" /><path d="M 770675 10692 l 0 39576" class="C3" /><path d="M 952121 78269 l -197924 0" class="C1" /><path d="M 937938 72325 l -167263 0" class="C3" /><path d="M 937938 58481 l -179211 0" class="C3" /><path d="M 937938 74535 l -179211 0" class="C3" /><path d="M 937938 98057 l -179211 0" class="C3" /><path d="M 758728 58481 l 0 39576" class="C3" /><path d="M 937938 82003 l -179211 0" class="C3" /><path d="M 770421 72579 l -11693 0" class="C3" /><path d="M 770421 83959 l -11693 0" class="C3" /><path d="M 937938 84213 l -167263 0" class="C3" /><path d="M 770675 84213 l 0 -11888" class="C3" /><path d="M 770421 83959 l 254 254" class="C3" /><path d="M 770421 83959 l 0 -11380" class="C3" /><path d="M 770421 72579 l 254 -254" class="C3" /><path d="M 758728 72579 l 0 11380" class="C3" /><path d="M 937938 72325 l 0 11888" class="C3" /><path d="M 937938 58481 l 0 39576" class="C3" /><path d="M 424201 78269 l -362952 -0" class="C1" /><path d="M 424201 84213 l -346474 0" class="C3" /><path d="M 424201 98057 l -358421 -0" class="C3" /><path d="M 424201 82003 l -358421 -0" class="C3" /><path d="M 424201 58481 l -358421 0" class="C3" /><path d="M 65780 98057 l 0 -39576" class="C3" /><path d="M 424201 74535 l -358421 -0" class="C3" /><path d="M 77473 83959 l -11693 0" class="C3" /><path d="M 77473 72579 l -11693 0" class="C3" /><path d="M 424201 72325 l -346474 0" class="C3" /><path d="M 77727 72325 l 0 11888" class="C3" /><path d="M 77473 72579 l 254 -254" class="C3" /><path d="M 77473 72579 l 0 11380" class="C3" /><path d="M 77473 83959 l 254 254" class="C3" /><path d="M 65780 83959 l 0 -11380" class="C3" /><path d="M 770675 78269 l -362952 0" class="C1" /><path d="M 770675 74535 l -358421 0" class="C3" /><path d="M 770675 82003 l -358421 -0" class="C3" /><path d="M 770675 58481 l -358421 0" class="C3" /><path d="M 770675 98057 l -358421 -0" class="C3" /><path d="M 770675 84213 l -346474 0" class="C3" /><path d="M 770675 98057 l 0 -39576" class="C3" /><path d="M 423947 83959 l -11693 0" class="C3" /><path d="M 423947 72579 l -11693 0" class="C3" /><path d="M 770675 72325 l -346474 -0" class="C3" /><path d="M 424201 72325 l 0 11888" class="C3" /><path d="M 423947 72579 l 0 11380" class="C3" /><path d="M 423947 72579 l 254 -254" class="C3" /><path d="M 423947 83959 l 254 254" class="C3" /><path d="M 412254 83959 l 0 -11380" class="C3" /><path d="M 424201 72325 l 0 11888" class="C3" /><path d="M 770675 84213 l 0 -11888" class="C3" /><path d="M 412254 98057 l 0 -39576" class="C3" /><path d="M 424201 98057 l 0 -39576" class="C3" /><path d="M 77727 30479 l 362952 -0" class="C1" /><path d="M 77727 36423 l 346474 0" class="C4" /><path d="M 77727 50267 l 358421 -0" class="C4" /><path d="M 77727 34213 l 358421 -0" class="C4" /><path d="M 77727 10692 l 358421 0" class="C4" /><path d="M 436149 50267 l 0 -39576" class="C4" /><path d="M 77727 26746 l 358421 -0" class="C4" /><path d="M 424455 36169 l 11693 0" class="C4" /><path d="M 424455 24790 l 11693 0" class="C4" /><path d="M 77727 24536 l 346474 -0" class="C4" /><path d="M 424201 24536 l 0 11888" class="C4" /><path d="M 424455 24790 l -254 -254" class="C4" /><path d="M 424455 24790 l 0 11380" class="C4" /><path d="M 424455 36169 l -254 254" class="C4" /><path d="M 436149 36169 l 0 -11380" class="C4" /><path d="M 77727 50267 l 0 -39576" class="C4" /><path d="M 77727 36423 l 0 -11888" class="C4" /><path d="M 424201 30479 l 362952 -0" class="C1" /><path d="M 424201 36423 l 346474 0" class="C3" /><path d="M 424201 50267 l 358421 -0" class="C3" /><path d="M 424201 34213 l 358421 -0" class="C3" /><path d="M 424201 10692 l 358421 0" class="C3" /><path d="M 782623 50267 l 0 -39576" class="C3" /><path d="M 424201 26746 l 358421 -0" class="C3" /><path d="M 770929 36169 l 11693 0" class="C3" /><path d="M 770929 24790 l 11693 0" class="C3" /><path d="M 424201 24536 l 346474 -0" class="C3" /><path d="M 770675 24536 l 0 11888" class="C3" /><path d="M 770929 24790 l -254 -254" class="C3" /><path d="M 770929 24790 l 0 11380" class="C3" /><path d="M 770929 36169 l -254 254" class="C3" /><path d="M 782623 36169 l 0 -11380" class="C3" /><path d="M 424201 50267 l 0 -39576" class="C3" /><path d="M 424201 36423 l 0 -11888" class="C3" /><path d="M 4438 30479 l 86613 0" class="C1" /><path d="M 41817 20382 c 119 -35 201 -144 201 -268" class="C5" /><path d="M 42018 16674 c 0 -124 -82 -233 -201 -268" class="C5" /><path d="M 54700 20114 c 0 105 60 202 154 249 c 94 47 207 37 292 -26" class="C5" /><path d="M 55145 16450 c -85 -63 -197 -73 -292 -26 c -94 47 -154 144 -154 249" class="C5" /><path d="M 42111 19974 c -51 0 -93 42 -93 93" class="C5" /><path d="M 42018 16720 c 0 51 42 93 93 93" class="C5" /><path d="M 54700 20067 c 0 -51 -42 -93 -93 -93" class="C5" /><path d="M 54607 16813 c 51 0 93 -42 93 -93" class="C5" /><path d="M 52097 19974 l 2510 0" class="C5" /><path d="M 54607 16813 l -2510 0" class="C5" /><path d="M 42111 19974 l 2510 0" class="C5" /><path d="M 44621 16813 l -2510 0" class="C5" /><path d="M 44621 19788 l 7475 0" class="C5" /><path d="M 52097 16999 l -7475 0" class="C5" /><path d="M 9569 32990 l 108 0" class="C5" /><path d="M 9677 27970 l -108 0" class="C5" /><path d="M 9104 32801 l 279 0" class="C5" /><path d="M 9383 28160 l -279 0" class="C5" /><path d="M 9383 32526 l 186 0" class="C5" /><path d="M 9569 28435 l -186 0" class="C5" /><path d="M 9104 32308 c 0 -39 -24 -74 -61 -87" class="C5" /><path d="M 9043 28740 c 37 -13 61 -48 61 -87" class="C5" /><path d="M 9043 28740 l -1039 381" class="C5" /><path d="M 8004 31840 l 1039 381" class="C5" /><path d="M 8004 31840 c -10 -4 -21 -6 -32 -6" class="C5" /><path d="M 7972 29127 c 11 0 22 -2 32 -6" class="C5" /><path d="M 6873 31834 l 1099 0" class="C5" /><path d="M 7972 29127 l -1099 0" class="C5" /><path d="M 6873 29216 l -1488 0" class="C5" /><path d="M 5385 31745 l 1488 0" class="C5" /><path d="M 3061 29225 l -2231 0" class="C5" /><path d="M 830 31735 l 2231 0" class="C5" /><path d="M 830 29225 l -372 372" class="C5" /><path d="M 458 31363 l 372 372" class="C5" /><path d="M 7245 11607 l 372 0" class="C5" /><path d="M 7617 9190 l -372 0" class="C5" /><path d="M 6873 11235 c 0 205 167 372 372 372" class="C5" /><path d="M 7245 9190 c -205 0 -372 167 -372 372" class="C5" /><path d="M 8918 11421 l 558 0" class="C5" /><path d="M 9476 9376 l -558 0" class="C5" /><path d="M 9677 9004 l -15 0" class="C5" /><path d="M 9662 11793 l 15 0" class="C5" /><path d="M 4233 39625 c -82 0 -149 67 -149 149" class="C5" /><path d="M 4084 51191 c 0 82 67 149 149 149" class="C5" /><path d="M 4233 51340 l 4314 0" class="C5" /><path d="M 8547 39625 l -4314 0" class="C5" /><path d="M 8874 39249 l -328 0" class="C5" /><path d="M 8547 51715 l 323 0" class="C5" /><path d="M 41817 24281 c 141 176 355 278 580 278" class="C5" /><path d="M 42398 36400 c -202 0 -396 82 -536 228" class="C5" /><path d="M 55258 24559 l -12860 0" class="C6" /><path d="M 77727 24559 l -9082 0" class="C6" /><path d="M 42398 36400 l 35330 0" class="C6" /><path d="M 77727 36400 l 253 -253" class="C6" /><path d="M 77980 24812 l -253 -253" class="C6" /><path d="M 89628 24812 l -11648 0" class="C6" /><path d="M 77980 36147 l 11648 0" class="C6" /><path d="M 41817 54733 l 0 -7124" class="C5" /><path d="M 9677 47609 l 0 7124" class="C5" /><path d="M 9677 590 l 0 7124" class="C5" /><path d="M 41817 7714 l 0 -7124" class="C5" /><path d="M 9677 39030 l -11 0" class="C5" /><path d="M 42212 23818 l -193 0" class="C5" /><path d="M 42212 23818 l 0 473" class="C5" /><path d="M 42212 24291 l -386 0" class="C5" /><path d="M 42212 23256 l -193 0" class="C5" /><path d="M 42212 23256 l 0 563" class="C5" /><path d="M 42212 23166 l -193 0" class="C5" /><path d="M 42212 23166 l 0 90" class="C5" /><path d="M 42212 37846 l -394 0" class="C5" /><path d="M 42212 37834 l 0 12" class="C5" /><path d="M 42018 23250 l -201 0" class="C5" /><path d="M 42018 23250 l 0 566" class="C5" /><path d="M 42018 23815 l -201 0" class="C5" /><path d="M 42018 24282 l -201 0" class="C5" /><path d="M 42018 23815 l 0 467" class="C5" /><path d="M 42018 23151 l -201 0" class="C5" /><path d="M 42018 23151 l 0 99" class="C5" /><path d="M 42212 36964 l -394 0" class="C5" /><path d="M 42212 36964 l 0 603" class="C5" /><path d="M 42212 37567 l -394 0" class="C5" /><path d="M 42212 36628 l -394 0" class="C5" /><path d="M 42212 36628 l 0 336" class="C5" /><path d="M 42212 37834 l -394 0" class="C5" /><path d="M 42212 37567 l 0 267" class="C5" /><path d="M 42212 30202 l -394 0" class="C5" /><path d="M 42212 30202 l 0 603" class="C5" /><path d="M 42212 30805 l -394 0" class="C5" /><path d="M 42212 29865 l -394 0" class="C5" /><path d="M 42212 29865 l 0 336" class="C5" /><path d="M 42212 31071 l -394 0" class="C5" /><path d="M 42212 30805 l 0 267" class="C5" /><path d="M 55145 19198 l 13667 0" class="C5" /><path d="M 55145 19198 l 0 -4463" class="C5" /><path d="M 55145 14736 l 13667 0" class="C5" /><path d="M 68812 19198 l 0 -4463" class="C5" /><path d="M 55145 20686 l 0 -1488" class="C5" /><path d="M 68812 20686 l 0 -1488" class="C5" /><path d="M 55145 20686 l 13667 0" class="C5" /><path d="M 68687 24559 l 0 -3873" class="C5" /><path d="M 68812 24559 l 0 -3873" class="C5" /><path d="M 55145 24559 l 0 -3873" class="C5" /><path d="M 55258 30480 l 13388 0" class="C5" /><path d="M 55258 30480 l 0 -9669" class="C5" /><path d="M 55258 20811 l 13388 0" class="C5" /><path d="M 68646 30480 l 0 -9669" class="C5" /><path d="M 68521 20811 l 0 -125" class="C5" /><path d="M 55383 20686 l 0 125" class="C5" /><path d="M 68646 20811 l 0 -125" class="C5" /><path d="M 55258 20811 l 0 -125" class="C5" /><path d="M 42018 18394 l 0 -1720" class="C5" /><path d="M 42018 20114 l 0 -1720" class="C5" /><path d="M 54700 18394 l 0 -1720" class="C5" /><path d="M 54700 20114 l 0 -1720" class="C5" /><path d="M 52097 18394 l 0 -1581" class="C5" /><path d="M 52097 19974 l 0 -1581" class="C5" /><path d="M 44621 18394 l 0 -1581" class="C5" /><path d="M 44621 19974 l 0 -1581" class="C5" /><path d="M 9569 32990 l 0 -5021" class="C5" /><path d="M 9104 32801 l 0 -4641" class="C5" /><path d="M 9383 32801 l 0 -4641" class="C5" /><path d="M 3061 30527 l 2324 0" class="C5" /><path d="M 3061 30527 l 0 -93" class="C5" /><path d="M 3061 30434 l 2324 0" class="C5" /><path d="M 5385 30527 l 0 -93" class="C5" /><path d="M 3061 29158 l 2324 0" class="C5" /><path d="M 3061 30434 l 0 -1276" class="C5" /><path d="M 5385 30434 l 0 -1276" class="C5" /><path d="M 3061 31803 l 2324 0" class="C5" /><path d="M 3061 31803 l 0 -1276" class="C5" /><path d="M 5385 31803 l 0 -1276" class="C5" /><path d="M 6873 31834 l 0 -2707" class="C5" /><path d="M 830 29225 l 0 2510" class="C5" /><path d="M 458 31363 l 0 -1766" class="C5" /><path d="M 3061 31849 l 2324 0" class="C5" /><path d="M 3061 31849 l 0 -46" class="C5" /><path d="M 5385 31849 l 0 -46" class="C5" /><path d="M 3061 29111 l 2324 0" class="C5" /><path d="M 3061 29158 l 0 -46" class="C5" /><path d="M 5385 29158 l 0 -46" class="C5" /><path d="M 9647 10479 l -171 0" class="C5" /><path d="M 9677 11546 l -201 0" class="C5" /><path d="M 9476 10479 l 0 1067" class="C5" /><path d="M 8918 10479 l -1302 0" class="C5" /><path d="M 8918 10479 l 0 1067" class="C5" /><path d="M 8918 11546 l -1302 0" class="C5" /><path d="M 7617 10479 l 0 1067" class="C5" /><path d="M 8918 10318 l -1302 0" class="C5" /><path d="M 7617 10318 l 0 161" class="C5" /><path d="M 8918 10318 l 0 161" class="C5" /><path d="M 9647 10318 l -171 0" class="C5" /><path d="M 9476 10318 l 0 161" class="C5" /><path d="M 8918 9251 l -1302 0" class="C5" /><path d="M 7617 9251 l 0 1067" class="C5" /><path d="M 8918 9251 l 0 1067" class="C5" /><path d="M 9677 9251 l -201 0" class="C5" /><path d="M 9476 9251 l 0 1067" class="C5" /><path d="M 6873 10398 l 0 -837" class="C5" /><path d="M 6873 11235 l 0 -837" class="C5" /><path d="M 9677 11626 l -201 0" class="C5" /><path d="M 9476 11546 l 0 81" class="C5" /><path d="M 8918 11626 l -1302 0" class="C5" /><path d="M 7617 11546 l 0 81" class="C5" /><path d="M 8918 11546 l 0 81" class="C5" /><path d="M 9677 9170 l -201 0" class="C5" /><path d="M 9476 9170 l 0 81" class="C5" /><path d="M 8918 9170 l -1302 0" class="C5" /><path d="M 7617 9170 l 0 81" class="C5" /><path d="M 8918 9170 l 0 81" class="C5" /><path d="M 9677 40674 l -1131 0" class="C5" /><path d="M 9677 50300 l -1131 0" class="C5" /><path d="M 8547 50300 l 0 -9627" class="C5" /><path d="M 4084 51191 l 0 -11417" class="C5" /><path d="M 8547 40674 l 1116 -1360" class="C5" /><path d="M 9677 39314 l -15 0" class="C5" /><path d="M 8547 39649 l 1116 -1360" class="C5" /><path d="M 9662 38288 l 0 140" class="C5" /><path d="M 9662 38428 l -1045 1273" class="C5" /><path d="M 8617 40448 c 42 -247 42 -500 -0 -747" class="C5" /><path d="M 8617 40448 l 1045 -1274" class="C5" /><path d="M 9662 39174 l 0 140" class="C5" /><path d="M 8547 39649 l 0 1025" class="C5" /><path d="M 9677 38428 l -15 0" class="C5" /><path d="M 9677 38288 l -15 0" class="C5" /><path d="M 9677 39174 l -15 0" class="C5" /><path d="M 9662 52544 l 0 139" class="C5" /><path d="M 9662 51802 l -1045 -1278" class="C5" /><path d="M 8617 51268 c 42 -246 42 -498 -0 -744" class="C5" /><path d="M 8617 51268 l 1045 1276" class="C5" /><path d="M 8547 51321 l 1116 1362" class="C5" /><path d="M 9226 51268 l -608 0" class="C5" /><path d="M 9230 39701 l -613 0" class="C5" /><path d="M 8547 39649 l 0 -400" class="C5" /><path d="M 8547 51715 l 0 -394" class="C5" /><path d="M 77727 24559 l 0 11841" class="C6" /><path d="M 77980 24812 l 0 11335" class="C6" /><path d="M 89628 24812 l 0 11335" class="C6" /><path d="M 9677 47306 l 0 -13218" class="C5" /><path d="M 10141 47937 l 0 -631" class="C5" /><path d="M 9677 47609 c 43 215 247 359 464 328" class="C5" /><path d="M 9677 47609 c 0 -5 0 -10 0 -15 c 0 -5 0 -11 0 -16 c 0 -5 0 -11 0 -17 c 0 -6 0 -11 0 -17 c 0 -6 0 -12 0 -18 c 0 -6 0 -12 0 -18 c 0 -6 0 -12 0 -19 c 0 -6 0 -13 0 -19 c 0 -13 0 -26 0 -40 c 0 -13 0 -27 0 -41 c 0 -14 0 -28 0 -41 c 0 -14 0 -28 0 -42" class="C5" /><path d="M 41353 47937 l 0 -631" class="C5" /><path d="M 10141 47937 l 31212 0" class="C5" /><path d="M 41817 47306 c 0 -4198 0 -8396 0 -13218" class="C5" /><path d="M 41817 47609 c -0 -5 -0 -9 -0 -14 c 0 -5 0 -10 -0 -14 c -0 -5 -0 -10 -0 -15 c -0 -5 -0 -10 -0 -16 c -0 -5 -0 -11 -0 -16 c -0 -4 0 -7 0 -11 c 0 -10 0 -20 0 -31 c 0 -7 0 -14 0 -22 c -0 -8 -0 -15 -0 -23 c -0 -11 -0 -23 -0 -34 c -0 -12 -0 -23 -0 -35 c 0 -12 0 -24 0 -36 c 0 -12 0 -24 0 -36" class="C5" /><path d="M 41353 47937 c 217 31 421 -113 464 -328" class="C5" /><path d="M 41817 54733 l 0 -7124" class="C5" /><path d="M 9677 54733 l 0 -7124" class="C5" /><path d="M 41817 54858 c -0 -0 -0 -0 -0 -0 c 0 -0 0 -1 -0 -1 c -0 -1 -0 -1 -0 -2 c -0 -1 -0 -2 -0 -3 c -0 -1 -0 -2 -0 -4 c -0 -1 0 -2 0 -3 c 0 -3 0 -6 0 -10 c 0 -3 0 -5 0 -9 c -0 -3 -0 -6 -0 -10 c -0 -5 -0 -11 -0 -17 c -0 -6 -0 -13 -0 -20 c 0 -7 0 -14 0 -22 c 0 -8 0 -16 0 -24" class="C5" /><path d="M 9677 54858 c 0 -0 0 -0 0 -1 c 0 -0 0 -1 0 -2 c 0 -1 0 -2 0 -3 c 0 -1 0 -2 0 -4 c 0 -1 0 -3 0 -5 c 0 -2 0 -4 0 -6 c 0 -2 0 -4 0 -7 c 0 -2 0 -5 0 -8 c 0 -5 0 -11 0 -18 c 0 -7 0 -14 0 -21 c 0 -8 0 -16 0 -25 c 0 -9 0 -19 0 -28" class="C5" /><path d="M 9677 54858 c -0 123 49 241 136 328 c 87 87 205 136 328 136" class="C5" /><path d="M 41353 55323 l -31212 0" class="C5" /><path d="M 41353 55323 c 256 0 464 -208 464 -464" class="C5" /><path d="M 41817 8017 l 0 12594" class="C5" /><path d="M 41353 7386 l 0 631" class="C5" /><path d="M 41817 7714 c -43 -215 -247 -359 -464 -328" class="C5" /><path d="M 41817 7714 c 0 44 0 88 0 139 c 0 50 0 107 0 164" class="C5" /><path d="M 10141 7386 l 0 631" class="C5" /><path d="M 41353 7386 l -31212 0" class="C5" /><path d="M 9677 8017 c 0 525 0 1049 0 1574 c 0 525 0 1049 0 1574 c 0 525 0 1049 0 1574 c 0 525 0 1049 0 1574 c 0 525 0 1049 0 1574 c 0 525 0 1049 0 1574 c 0 525 0 1049 0 1574 c 0 525 0 1049 0 1574" class="C5" /><path d="M 9677 7714 c 0 44 0 88 0 139 c 0 51 0 107 0 164" class="C5" /><path d="M 10141 7386 c -217 -31 -421 113 -464 328" class="C5" /><path d="M 9677 590 l 0 7124" class="C5" /><path d="M 41817 590 l 0 7124" class="C5" /><path d="M 9677 464 c 0 6 0 12 0 32 c 0 21 0 57 0 93" class="C5" /><path d="M 41817 464 c -0 6 -0 12 -0 33 c 0 21 0 57 0 93" class="C5" /><path d="M 10141 0 l 31212 0" class="C5" /><path d="M 41817 464 c 0 -123 -49 -241 -136 -328 c -87 -87 -205 -136 -328 -136" class="C5" /><path d="M 10141 0 c -256 0 -464 208 -464 464" class="C5" /><path d="M 11764 35867 l 0 -1779" class="C5" /><path d="M 11764 20610 l 0 -1155" class="C5" /><path d="M 11809 27808 l 0 -206" class="C5" /><path d="M 11809 27602 l 0 -87" class="C5" /><path d="M 11809 27515 c -9 -71 -24 -142 -45 -212" class="C5" /><path d="M 11764 27302 l 0 -6692" class="C5" /><path d="M 11764 34088 l 0 -6067" class="C5" /><path d="M 11764 28020 c 21 -71 36 -142 45 -212" class="C5" /><path d="M 39686 27515 l 0 87" class="C5" /><path d="M 39686 27602 l 0 206" class="C5" /><path d="M 39686 27808 c 9 71 24 142 45 212" class="C5" /><path d="M 39730 28020 l 0 6067" class="C5" /><path d="M 39730 20610 l 0 6692" class="C5" /><path d="M 39730 27302 c -21 71 -36 142 -45 212" class="C5" /><path d="M 39730 19456 l 0 1155" class="C5" /><path d="M 39730 34088 l 0 1779" class="C5" /><path d="M 12362 19006 l 26770 0" class="C5" /><path d="M 12362 36317 l 26770 0" class="C5" /><path d="M 39132 36317 c 351 -0 598 -186 598 -450" class="C5" /><path d="M 39730 19456 c -0 -264 -247 -450 -598 -450" class="C5" /><path d="M 11764 35867 c 0 264 247 450 598 450" class="C5" /><path d="M 12362 19006 c -351 0 -598 186 -598 450" class="C5" /><path d="M 41353 20610 l 0 13477" class="C5" /><path d="M 10141 34088 l 0 -13477" class="C5" /><path d="M 41817 34088 l 0 -13477" class="C5" /><path d="M 9677 20610 l 0 13477" class="C5" /><path d="M 41817 39894 l 30 0" class="C5" /><path d="M 41847 39651 l -30 0" class="C5" /><path d="M 41847 39651 l 0 244" class="C5" /><path d="M 41847 40043 l -30 0" class="C5" /><path d="M 41847 40043 l 0 243" class="C5" /><path d="M 41817 40286 l 30 0" class="C5" /><path d="M 41817 40042 l 30 0" class="C5" /><path d="M 41847 40043 l 0 -1" class="C5" /><path d="M 41817 39650 l 30 0" class="C5" /><path d="M 41847 39650 l 0 1" class="C5" /><path d="M 9666 51802 l 0 143" class="C5" /><path d="M 9368 51540 l 80 0" class="C5" /><path d="M 9368 51540 l 0 -98" class="C5" /><path d="M 9666 51864 l -298 0" class="C5" /><path d="M 9368 51864 l 0 -324" class="C5" /><path d="M 9666 39030 l 0 144" class="C5" /><path d="M 9428 39210 l -60 0" class="C5" /><path d="M 9428 39210 l 0 -76" class="C5" /><path d="M 9666 39135 l -238 0" class="C5" /><path d="M 9368 39458 l 61 0" class="C5" /><path d="M 9368 39458 l 0 -248" class="C5" /><path d="M 9368 39532 l 0 -74" class="C5" /><path d="M 9368 39129 l 60 0" class="C5" /><path d="M 9368 39129 l 0 -19" class="C5" /><path d="M 9666 39110 l -298 0" class="C5" /><path d="M 9428 39135 l 0 -6" class="C5" /><path d="M 9368 39129 l 0 81" class="C5" /><path d="M 9677 10163 l -30 0" class="C5" /><path d="M 9677 10410 l -30 0" class="C5" /><path d="M 9647 10410 l 0 -248" class="C5" /><path d="M 9677 10734 l -30 0" class="C5" /><path d="M 9647 10734 l 0 -324" class="C5" /><path d="M 9647 10081 l 30 0" class="C5" /><path d="M 9647 10081 l 0 -19" class="C5" /><path d="M 9677 10063 l -30 0" class="C5" /><path d="M 9647 10081 l 0 81" class="C5" /><path d="M 9677 15369 l -30 0" class="C5" /><path d="M 9677 15617 l -30 0" class="C5" /><path d="M 9647 15617 l 0 -248" class="C5" /><path d="M 9677 15940 l -30 0" class="C5" /><path d="M 9647 15940 l 0 -324" class="C5" /><path d="M 9647 15288 l 30 0" class="C5" /><path d="M 9647 15288 l 0 -19" class="C5" /><path d="M 9677 15269 l -30 0" class="C5" /><path d="M 9647 15288 l 0 81" class="C5" /><path d="M 14962 34340 c 0 214 173 387 387 387" class="C5" /><path d="M 14962 20982 l 0 13358" class="C5" /><path d="M 15349 20595 c -214 0 -387 173 -387 387" class="C5" /><path d="M 36145 20595 l -20796 0" class="C5" /><path d="M 36532 20982 c 0 -214 -173 -387 -387 -387" class="C5" /><path d="M 36532 34355 l 0 -13373" class="C5" /><path d="M 36160 34727 c 205 0 372 -167 372 -372" class="C5" /><path d="M 15349 34727 l 20811 0" class="C5" /><path d="M 42111 18394 l 0 -1581" class="C5" /><path d="M 42111 19974 l 0 -1581" class="C5" /><path d="M 54607 18394 l 0 -1581" class="C5" /><path d="M 54607 19974 l 0 -1581" class="C5" /><path d="M 9043 32221 l 0 -3481" class="C5" /><path d="M 8004 31840 l 0 -2719" class="C5" /><path d="M 7972 31834 l 0 -2707" class="C5" /><path d="M 7245 10398 l 0 -1209" class="C5" /><path d="M 7245 11607 l 0 -1209" class="C5" /><path d="M 42398 24559 l 0 11841" class="C5" /><path d="M 10141 34088 l 0 13218" class="C5" /><path d="M 41353 47306 l 0 -13218" class="C5" /><path d="M 41353 20610 l 0 -12594" class="C5" /><path d="M 10141 8017 l 0 12594" class="C5" /></g></svg>