<?xml version='1.0' encoding='utf-8'?>
<svg xmlns="http://www.w3.org/2000/svg" width="843.4mm" height="18.5mm" viewBox="0 0 1000000 21935"><defs><style>.C1 {stroke: #ffff00; stroke-width: 296; stroke-opacity: 1.000; fill: none; fill-opacity: 1.000;}</style><style>.C2 {stroke: #ff0000; stroke-width: 296; stroke-opacity: 1.000; fill: none; fill-opacity: 1.000;}</style><style>.C3 {stroke: #ffffff; stroke-width: 296; stroke-opacity: 1.000; fill: none; fill-opacity: 1.000;}</style><style>.C4 {stroke: #bf7fff; stroke-width: 296; stroke-opacity: 1.000; fill: none; fill-opacity: 1.000;}</style><style>.C5 {stroke: #00ff00; stroke-width: 296; stroke-opacity: 1.000; fill: none; fill-opacity: 1.000;}</style></defs><g stroke-linecap="round" stroke-linejoin="round" fill-rule="evenodd"><path d="M 31241 12085 l 143908 -0" class="C1" /><path d="M 31241 14442 l 137375 0" class="C2" /><path d="M 31241 19931 l 142112 -0" class="C2" /><path d="M 31241 13565 l 142112 -0" class="C2" /><path d="M 31241 4239 l 142112 0" class="C2" /><path d="M 173352 19931 l 0 -15691" class="C2" /><path d="M 31241 10605 l 142112 -0" class="C2" /><path d="M 168716 14341 l 4636 0" class="C2" /><path d="M 168716 9829 l 4636 0" class="C2" /><path d="M 31241 9728 l 137375 0" class="C2" /><path d="M 168615 9728 l 0 4713" class="C2" /><path d="M 168716 9829 l -101 -101" class="C2" /><path d="M 168716 9829 l 0 4512" class="C2" /><path d="M 168716 14341 l -101 101" class="C2" /><path d="M 173352 14341 l 0 -4512" class="C2" /><path d="M 31241 19931 l 0 -15691" class="C2" /><path d="M 31241 14442 l 0 -4713" class="C2" /><path d="M 855488 12085 l 143908 -0" class="C1" /><path d="M 855488 14442 l 137375 0" class="C3" /><path d="M 855488 19931 l 142112 -0" class="C3" /><path d="M 855488 13565 l 142112 -0" class="C3" /><path d="M 855488 4239 l 142112 0" class="C3" /><path d="M 997600 19931 l 0 -15691" class="C3" /><path d="M 855488 10605 l 142112 -0" class="C3" /><path d="M 992963 14341 l 4636 0" class="C3" /><path d="M 992963 9829 l 4636 0" class="C3" /><path d="M 855488 9728 l 137375 0" class="C3" /><path d="M 992863 9728 l 0 4713" class="C3" /><path d="M 992963 9829 l -101 -101" class="C3" /><path d="M 992963 9829 l 0 4512" class="C3" /><path d="M 992963 14341 l -101 101" class="C3" /><path d="M 997600 14341 l 0 -4512" class="C3" /><path d="M 718114 12085 l 143908 0" class="C1" /><path d="M 718114 10605 l 142112 0" class="C3" /><path d="M 718114 13565 l 142112 -0" class="C3" /><path d="M 718114 4239 l 142112 0" class="C3" /><path d="M 718114 19931 l 142112 -0" class="C3" /><path d="M 718114 14442 l 137375 0" class="C3" /><path d="M 718114 19931 l 0 -15691" class="C3" /><path d="M 855589 14341 l 4636 0" class="C3" /><path d="M 855589 9829 l 4636 0" class="C3" /><path d="M 718114 9728 l 137375 -0" class="C3" /><path d="M 855488 9728 l 0 4713" class="C3" /><path d="M 855589 9829 l 0 4512" class="C3" /><path d="M 855589 9829 l -101 -101" class="C3" /><path d="M 855589 14341 l -101 101" class="C3" /><path d="M 860225 14341 l 0 -4512" class="C3" /><path d="M 855488 9728 l 0 4713" class="C3" /><path d="M 718114 14442 l 0 -4713" class="C3" /><path d="M 860225 19931 l 0 -15691" class="C3" /><path d="M 855488 19931 l 0 -15691" class="C3" /><path d="M 580739 12085 l 143908 0" class="C1" /><path d="M 580739 10605 l 142112 0" class="C3" /><path d="M 580739 13565 l 142112 -0" class="C3" /><path d="M 580739 4239 l 142112 0" class="C3" /><path d="M 580739 19931 l 142112 -0" class="C3" /><path d="M 580739 14442 l 137375 0" class="C3" /><path d="M 722851 19931 l 0 -15691" class="C3" /><path d="M 718214 14341 l 4636 0" class="C3" /><path d="M 718214 9829 l 4636 0" class="C3" /><path d="M 580739 9728 l 137375 -0" class="C3" /><path d="M 718114 9728 l 0 4713" class="C3" /><path d="M 718214 9829 l 0 4512" class="C3" /><path d="M 718214 9829 l -101 -101" class="C3" /><path d="M 718214 14341 l -101 101" class="C3" /><path d="M 722851 14341 l 0 -4512" class="C3" /><path d="M 443364 12085 l 143908 -0" class="C1" /><path d="M 443364 10605 l 142112 -0" class="C3" /><path d="M 443364 13565 l 142112 -0" class="C3" /><path d="M 443364 4239 l 142112 0" class="C3" /><path d="M 443364 19931 l 142112 -0" class="C3" /><path d="M 443364 14442 l 137375 0" class="C3" /><path d="M 443364 19931 l 0 -15691" class="C3" /><path d="M 580840 14341 l 4636 0" class="C3" /><path d="M 580840 9829 l 4636 0" class="C3" /><path d="M 443364 9728 l 137375 0" class="C3" /><path d="M 580739 9728 l 0 4713" class="C3" /><path d="M 580840 9829 l -0 4512" class="C3" /><path d="M 580840 9829 l -101 -101" class="C3" /><path d="M 580840 14341 l -101 101" class="C3" /><path d="M 585476 14341 l 0 -4512" class="C3" /><path d="M 580739 9728 l 0 4713" class="C3" /><path d="M 443364 14442 l 0 -4713" class="C3" /><path d="M 585476 19931 l 0 -15691" class="C3" /><path d="M 580739 19931 l 0 -15691" class="C3" /><path d="M 305990 12085 l 143908 -0" class="C1" /><path d="M 305990 10605 l 142112 -0" class="C3" /><path d="M 305990 13565 l 142112 -0" class="C3" /><path d="M 305990 4239 l 142112 0" class="C3" /><path d="M 305990 19931 l 142112 -0" class="C3" /><path d="M 305990 14442 l 137375 0" class="C3" /><path d="M 448101 19931 l 0 -15691" class="C3" /><path d="M 443465 14341 l 4636 0" class="C3" /><path d="M 443465 9829 l 4636 0" class="C3" /><path d="M 305990 9728 l 137375 0" class="C3" /><path d="M 443364 9728 l 0 4713" class="C3" /><path d="M 443465 9829 l 0 4512" class="C3" /><path d="M 443465 9829 l -101 -101" class="C3" /><path d="M 443465 14341 l -101 101" class="C3" /><path d="M 448101 14341 l 0 -4512" class="C3" /><path d="M 168615 12085 l 143908 -0" class="C1" /><path d="M 168615 10605 l 142112 -0" class="C3" /><path d="M 168615 13565 l 142112 -0" class="C3" /><path d="M 168615 4239 l 142112 0" class="C3" /><path d="M 168615 19931 l 142112 -0" class="C3" /><path d="M 168615 14442 l 137375 0" class="C3" /><path d="M 168615 19931 l 0 -15691" class="C3" /><path d="M 306090 14341 l 4636 0" class="C3" /><path d="M 306090 9829 l 4636 0" class="C3" /><path d="M 168615 9728 l 137375 -0" class="C3" /><path d="M 305990 9728 l 0 4713" class="C3" /><path d="M 306090 9829 l 0 4512" class="C3" /><path d="M 306090 9829 l -101 -101" class="C3" /><path d="M 306090 14341 l -101 101" class="C3" /><path d="M 310727 14341 l 0 -4512" class="C3" /><path d="M 305990 9728 l 0 4713" class="C3" /><path d="M 168615 14442 l 0 -4713" class="C3" /><path d="M 310727 19931 l 0 -15691" class="C3" /><path d="M 305990 19931 l 0 -15691" class="C3" /><path d="M 2182 12085 l 34341 0" class="C1" /><path d="M 17003 8081 c 47 -14 80 -57 80 -106" class="C4" /><path d="M 17082 6611 c 0 -49 -32 -92 -80 -106" class="C4" /><path d="M 22110 7975 c 0 42 24 80 61 99 c 37 19 82 15 116 -10" class="C4" /><path d="M 22287 6522 c -34 -25 -78 -29 -116 -10 c -37 19 -61 57 -61 99" class="C4" /><path d="M 17119 7920 c -20 0 -37 17 -37 37" class="C4" /><path d="M 17082 6629 c 0 20 17 37 37 37" class="C4" /><path d="M 22110 7957 c 0 -20 -17 -37 -37 -37" class="C4" /><path d="M 22073 6666 c 20 0 37 -17 37 -37" class="C4" /><path d="M 21078 7920 l 995 0" class="C4" /><path d="M 22073 6666 l -995 0" class="C4" /><path d="M 17119 7920 l 995 0" class="C4" /><path d="M 18114 6666 l -995 0" class="C4" /><path d="M 18114 7846 l 2964 0" class="C4" /><path d="M 21078 6740 l -2964 0" class="C4" /><path d="M 4216 13081 l 43 0" class="C4" /><path d="M 4259 11090 l -43 0" class="C4" /><path d="M 4032 13005 l 111 0" class="C4" /><path d="M 4143 11165 l -111 0" class="C4" /><path d="M 4143 12896 l 74 0" class="C4" /><path d="M 4216 11274 l -74 0" class="C4" /><path d="M 4032 12810 c 0 -15 -10 -29 -24 -35" class="C4" /><path d="M 4008 11395 c 15 -5 24 -19 24 -35" class="C4" /><path d="M 4008 11395 l -412 151" class="C4" /><path d="M 3596 12624 l 412 151" class="C4" /><path d="M 3596 12624 c -4 -1 -8 -2 -13 -2" class="C4" /><path d="M 3583 11548 c 4 0 9 -1 13 -2" class="C4" /><path d="M 3147 12622 l 436 0" class="C4" /><path d="M 3583 11548 l -436 0" class="C4" /><path d="M 3147 11584 l -590 0" class="C4" /><path d="M 2558 12587 l 590 0" class="C4" /><path d="M 1636 11588 l -885 0" class="C4" /><path d="M 751 12583 l 885 0" class="C4" /><path d="M 751 11588 l -147 147" class="C4" /><path d="M 604 12435 l 147 147" class="C4" /><path d="M 3295 4602 l 147 0" class="C4" /><path d="M 3442 3644 l -147 0" class="C4" /><path d="M 3147 4455 c 0 81 66 147 147 147" class="C4" /><path d="M 3295 3644 c -81 0 -147 66 -147 147" class="C4" /><path d="M 3958 4528 l 221 0" class="C4" /><path d="M 4180 3717 l -221 0" class="C4" /><path d="M 4259 3570 l -6 0" class="C4" /><path d="M 4253 4676 l 6 0" class="C4" /><path d="M 2100 15711 c -33 0 -59 26 -59 59" class="C4" /><path d="M 2041 20297 c 0 33 26 59 59 59" class="C4" /><path d="M 2100 20356 l 1710 0" class="C4" /><path d="M 3811 15711 l -1710 0" class="C4" /><path d="M 3941 15562 l -130 0" class="C4" /><path d="M 3811 20505 l 128 0" class="C4" /><path d="M 17003 9627 c 56 70 141 110 230 110" class="C4" /><path d="M 17233 14432 c -80 0 -157 33 -212 90" class="C4" /><path d="M 22332 9737 l -5099 0" class="C5" /><path d="M 31241 9737 l -3601 0" class="C5" /><path d="M 17233 14432 l 14008 0" class="C5" /><path d="M 31241 14432 l 100 -100" class="C5" /><path d="M 31341 9838 l -100 -100" class="C5" /><path d="M 35959 9838 l -4618 0" class="C5" /><path d="M 31341 14332 l 4618 0" class="C5" /><path d="M 17003 21701 l 0 -2825" class="C4" /><path d="M 4259 18877 l 0 2825" class="C4" /><path d="M 4259 234 l 0 2825" class="C4" /><path d="M 17003 3058 l 0 -2825" class="C4" /><path d="M 4259 15475 l -4 0" class="C4" /><path d="M 17159 9444 l -77 0" class="C4" /><path d="M 17159 9444 l 0 187" class="C4" /><path d="M 17159 9631 l -153 0" class="C4" /><path d="M 17159 9221 l -77 0" class="C4" /><path d="M 17159 9221 l 0 223" class="C4" /><path d="M 17159 9185 l -77 0" class="C4" /><path d="M 17159 9185 l 0 36" class="C4" /><path d="M 17159 15006 l -156 0" class="C4" /><path d="M 17159 15001 l 0 5" class="C4" /><path d="M 17082 9218 l -80 0" class="C4" /><path d="M 17082 9218 l 0 224" class="C4" /><path d="M 17082 9443 l -80 0" class="C4" /><path d="M 17082 9628 l -80 0" class="C4" /><path d="M 17082 9443 l 0 185" class="C4" /><path d="M 17082 9179 l -80 0" class="C4" /><path d="M 17082 9179 l 0 39" class="C4" /><path d="M 17159 14656 l -156 0" class="C4" /><path d="M 17159 14656 l 0 239" class="C4" /><path d="M 17159 14895 l -156 0" class="C4" /><path d="M 17159 14523 l -156 0" class="C4" /><path d="M 17159 14523 l 0 133" class="C4" /><path d="M 17159 15001 l -156 0" class="C4" /><path d="M 17159 14895 l 0 106" class="C4" /><path d="M 17159 11975 l -156 0" class="C4" /><path d="M 17159 11975 l 0 239" class="C4" /><path d="M 17159 12214 l -156 0" class="C4" /><path d="M 17159 11841 l -156 0" class="C4" /><path d="M 17159 11841 l 0 133" class="C4" /><path d="M 17159 12319 l -156 0" class="C4" /><path d="M 17159 12214 l 0 106" class="C4" /><path d="M 22287 7612 l 5419 0" class="C4" /><path d="M 22287 7612 l 0 -1769" class="C4" /><path d="M 22287 5843 l 5419 0" class="C4" /><path d="M 27706 7612 l 0 -1769" class="C4" /><path d="M 22287 8202 l 0 -590" class="C4" /><path d="M 27706 8202 l 0 -590" class="C4" /><path d="M 22287 8202 l 5419 0" class="C4" /><path d="M 27656 9737 l 0 -1536" class="C4" /><path d="M 27706 9737 l 0 -1536" class="C4" /><path d="M 22287 9737 l 0 -1536" class="C4" /><path d="M 22332 12085 l 5308 0" class="C4" /><path d="M 22332 12085 l 0 -3834" class="C4" /><path d="M 22332 8251 l 5308 0" class="C4" /><path d="M 27640 12085 l 0 -3834" class="C4" /><path d="M 27590 8251 l 0 -50" class="C4" /><path d="M 22381 8202 l 0 50" class="C4" /><path d="M 27640 8251 l 0 -50" class="C4" /><path d="M 22332 8251 l 0 -50" class="C4" /><path d="M 17082 7293 l 0 -682" class="C4" /><path d="M 17082 7975 l 0 -682" class="C4" /><path d="M 22110 7293 l 0 -682" class="C4" /><path d="M 22110 7975 l 0 -682" class="C4" /><path d="M 21078 7293 l 0 -627" class="C4" /><path d="M 21078 7920 l 0 -627" class="C4" /><path d="M 18114 7293 l 0 -627" class="C4" /><path d="M 18114 7920 l 0 -627" class="C4" /><path d="M 4216 13081 l 0 -1991" class="C4" /><path d="M 4032 13005 l 0 -1840" class="C4" /><path d="M 4143 13005 l 0 -1840" class="C4" /><path d="M 1636 12104 l 922 0" class="C4" /><path d="M 1636 12104 l 0 -37" class="C4" /><path d="M 1636 12067 l 922 0" class="C4" /><path d="M 2558 12104 l 0 -37" class="C4" /><path d="M 1636 11561 l 922 0" class="C4" /><path d="M 1636 12067 l 0 -506" class="C4" /><path d="M 2558 12067 l 0 -506" class="C4" /><path d="M 1636 12609 l 922 0" class="C4" /><path d="M 1636 12609 l 0 -506" class="C4" /><path d="M 2558 12609 l 0 -506" class="C4" /><path d="M 3147 12622 l 0 -1073" class="C4" /><path d="M 751 11588 l 0 995" class="C4" /><path d="M 604 12435 l 0 -700" class="C4" /><path d="M 1636 12628 l 922 0" class="C4" /><path d="M 1636 12628 l 0 -18" class="C4" /><path d="M 2558 12628 l 0 -18" class="C4" /><path d="M 1636 11542 l 922 0" class="C4" /><path d="M 1636 11561 l 0 -18" class="C4" /><path d="M 2558 11561 l 0 -18" class="C4" /><path d="M 4247 4155 l -68 0" class="C4" /><path d="M 4259 4578 l -80 0" class="C4" /><path d="M 4180 4155 l 0 423" class="C4" /><path d="M 3958 4155 l -516 0" class="C4" /><path d="M 3958 4155 l 0 423" class="C4" /><path d="M 3958 4578 l -516 0" class="C4" /><path d="M 3442 4155 l 0 423" class="C4" /><path d="M 3958 4091 l -516 0" class="C4" /><path d="M 3442 4091 l 0 64" class="C4" /><path d="M 3958 4091 l 0 64" class="C4" /><path d="M 4247 4091 l -68 0" class="C4" /><path d="M 4180 4091 l 0 64" class="C4" /><path d="M 3958 3668 l -516 0" class="C4" /><path d="M 3442 3668 l 0 423" class="C4" /><path d="M 3958 3668 l 0 423" class="C4" /><path d="M 4259 3668 l -80 0" class="C4" /><path d="M 4180 3668 l 0 423" class="C4" /><path d="M 3147 4123 l 0 -332" class="C4" /><path d="M 3147 4455 l 0 -332" class="C4" /><path d="M 4259 4610 l -80 0" class="C4" /><path d="M 4180 4578 l 0 32" class="C4" /><path d="M 3958 4610 l -516 0" class="C4" /><path d="M 3442 4578 l 0 32" class="C4" /><path d="M 3958 4578 l 0 32" class="C4" /><path d="M 4259 3636 l -80 0" class="C4" /><path d="M 4180 3636 l 0 32" class="C4" /><path d="M 3958 3636 l -516 0" class="C4" /><path d="M 3442 3636 l 0 32" class="C4" /><path d="M 3958 3636 l 0 32" class="C4" /><path d="M 4259 16127 l -448 0" class="C4" /><path d="M 4259 19944 l -448 0" class="C4" /><path d="M 3811 19944 l 0 -3817" class="C4" /><path d="M 2041 20297 l 0 -4527" class="C4" /><path d="M 3811 16127 l 442 -539" class="C4" /><path d="M 4259 15588 l -6 0" class="C4" /><path d="M 3811 15720 l 442 -539" class="C4" /><path d="M 4253 15181 l 0 55" class="C4" /><path d="M 4253 15237 l -414 505" class="C4" /><path d="M 3839 16037 c 17 -98 17 -198 -0 -296" class="C4" /><path d="M 3839 16037 l 414 -505" class="C4" /><path d="M 4253 15532 l 0 55" class="C4" /><path d="M 3811 15720 l 0 406" class="C4" /><path d="M 4259 15237 l -6 0" class="C4" /><path d="M 4259 15181 l -6 0" class="C4" /><path d="M 4259 15532 l -6 0" class="C4" /><path d="M 4253 20833 l 0 55" class="C4" /><path d="M 4253 20539 l -414 -507" class="C4" /><path d="M 3839 20328 c 17 -98 17 -198 -0 -295" class="C4" /><path d="M 3839 20328 l 414 506" class="C4" /><path d="M 3811 20348 l 442 540" class="C4" /><path d="M 4080 20328 l -241 0" class="C4" /><path d="M 4082 15741 l -243 0" class="C4" /><path d="M 3811 15721 l 0 -158" class="C4" /><path d="M 3811 20505 l 0 -156" class="C4" /><path d="M 31241 9737 l 0 4695" class="C5" /><path d="M 31341 9838 l 0 4494" class="C5" /><path d="M 35959 9838 l 0 4494" class="C5" /><path d="M 4259 18756 l 0 -5241" class="C4" /><path d="M 4443 19007 l 0 -250" class="C4" /><path d="M 4259 18877 c 17 85 98 142 184 130" class="C4" /><path d="M 4259 18877 c 0 -2 0 -4 0 -6 c 0 -2 0 -4 0 -6 c 0 -2 0 -4 0 -7 c 0 -2 0 -4 0 -7 c 0 -2 0 -5 0 -7 c 0 -2 0 -5 0 -7 c 0 -2 0 -5 0 -7 c 0 -3 0 -5 0 -8 c 0 -5 0 -10 0 -16 c 0 -5 0 -11 0 -16 c 0 -5 0 -11 0 -16 c 0 -6 0 -11 0 -17" class="C4" /><path d="M 16819 19007 l 0 -250" class="C4" /><path d="M 4443 19007 l 12375 0" class="C4" /><path d="M 17003 18756 c 0 -1664 0 -3329 0 -5241" class="C4" /><path d="M 17003 18877 c -0 -2 -0 -4 -0 -6 c 0 -2 0 -4 -0 -6 c -0 -2 -0 -4 -0 -6 c -0 -2 -0 -4 -0 -6 c -0 -2 -0 -4 -0 -6 c -0 -1 0 -3 0 -4 c 0 -4 0 -8 0 -12 c 0 -3 0 -6 0 -9 c -0 -3 -0 -6 -0 -9 c -0 -4 -0 -9 -0 -14 c -0 -5 -0 -9 -0 -14 c 0 -5 0 -9 0 -14 c 0 -5 0 -10 0 -14" class="C4" /><path d="M 16819 19007 c 86 12 167 -45 184 -130" class="C4" /><path d="M 17003 21701 l 0 -2825" class="C4" /><path d="M 4259 21701 l 0 -2825" class="C4" /><path d="M 17003 21751 c -0 -0 -0 -0 -0 -0 c 0 -0 0 -0 -0 -1 c -0 -0 -0 -1 -0 -1 c -0 -0 -0 -1 -0 -1 c -0 -0 -0 -1 -0 -2 c -0 -0 0 -1 0 -1 c 0 -1 0 -3 0 -4 c 0 -1 0 -2 0 -3 c -0 -1 -0 -3 -0 -4 c -0 -2 -0 -4 -0 -7 c -0 -2 -0 -5 -0 -8 c 0 -3 0 -6 0 -9 c 0 -3 0 -6 0 -10" class="C4" /><path d="M 4259 21751 c 0 -0 0 -0 0 -0 c 0 -0 0 -0 0 -1 c 0 -0 0 -1 0 -1 c 0 -0 0 -1 0 -1 c 0 -1 0 -1 0 -2 c 0 -1 0 -1 0 -2 c 0 -1 0 -2 0 -3 c 0 -1 0 -2 0 -3 c 0 -2 0 -5 0 -7 c 0 -3 0 -5 0 -9 c 0 -3 0 -6 0 -10 c 0 -4 0 -7 0 -11" class="C4" /><path d="M 4259 21751 c -0 49 19 96 54 130 c 35 35 81 54 130 54" class="C4" /><path d="M 16819 21935 l -12375 0" class="C4" /><path d="M 16819 21935 c 102 0 184 -82 184 -184" class="C4" /><path d="M 17003 3179 l 0 4993" class="C4" /><path d="M 16819 2928 l 0 250" class="C4" /><path d="M 17003 3058 c -17 -85 -98 -142 -184 -130" class="C4" /><path d="M 17003 3058 c 0 18 0 35 0 55 c 0 20 0 43 0 65" class="C4" /><path d="M 4443 2928 l 0 250" class="C4" /><path d="M 16819 2928 l -12375 0" class="C4" /><path d="M 4259 3179 c 0 208 0 416 0 624 c 0 208 0 416 0 624 c 0 208 0 416 0 624 c 0 208 -0 416 0 624 c 0 208 0 416 0 624 c 0 208 0 416 0 624 c 0 208 0 416 0 624 c 0 208 0 416 0 624" class="C4" /><path d="M 4259 3058 c 0 18 0 35 0 55 c 0 20 0 43 0 65" class="C4" /><path d="M 4443 2928 c -86 -12 -167 45 -184 130" class="C4" /><path d="M 4259 234 l 0 2825" class="C4" /><path d="M 17003 234 l 0 2825" class="C4" /><path d="M 4259 184 c 0 2 0 5 0 13 c 0 8 0 23 0 37" class="C4" /><path d="M 17003 184 c 0 2 0 5 0 13 c 0 8 0 23 0 37" class="C4" /><path d="M 4443 0 l 12375 0" class="C4" /><path d="M 17003 184 c 0 -49 -19 -96 -54 -130 c -35 -35 -81 -54 -130 -54" class="C4" /><path d="M 4443 0 c -102 0 -184 82 -184 184" class="C4" /><path d="M 5087 14221 l 0 -706" class="C4" /><path d="M 5087 8172 l 0 -458" class="C4" /><path d="M 5104 11026 l 0 -82" class="C4" /><path d="M 5104 10944 l 0 -35" class="C4" /><path d="M 5104 10909 c -3 -28 -9 -56 -18 -84" class="C4" /><path d="M 5087 10825 l 0 -2653" class="C4" /><path d="M 5087 13515 l 0 -2406" class="C4" /><path d="M 5087 11110 c 8 -28 14 -56 18 -84" class="C4" /><path d="M 16157 10909 l 0 35" class="C4" /><path d="M 16157 10944 l 0 82" class="C4" /><path d="M 16157 11026 c 3 28 9 56 18 84" class="C4" /><path d="M 16175 11110 l 0 2406" class="C4" /><path d="M 16175 8172 l 0 2653" class="C4" /><path d="M 16175 10825 c -8 28 -14 56 -18 84" class="C4" /><path d="M 16175 7714 l 0 458" class="C4" /><path d="M 16175 13515 l 0 706" class="C4" /><path d="M 5324 7536 l 10614 0" class="C4" /><path d="M 5324 14399 l 10614 0" class="C4" /><path d="M 15938 14399 c 139 -0 237 -74 237 -178" class="C4" /><path d="M 16175 7714 c -0 -105 -98 -178 -237 -178" class="C4" /><path d="M 5087 14221 c 0 105 98 178 237 178" class="C4" /><path d="M 5324 7536 c -139 0 -237 74 -237 178" class="C4" /><path d="M 16819 8172 l 0 5344" class="C4" /><path d="M 4443 13515 l 0 -5344" class="C4" /><path d="M 17003 13515 l 0 -5344" class="C4" /><path d="M 4259 8172 l 0 5344" class="C4" /><path d="M 17003 15818 l 12 0" class="C4" /><path d="M 17014 15721 l -12 0" class="C4" /><path d="M 17014 15721 l 0 97" class="C4" /><path d="M 17014 15877 l -12 0" class="C4" /><path d="M 17014 15877 l 0 96" class="C4" /><path d="M 17003 15973 l 12 0" class="C4" /><path d="M 17003 15876 l 12 0" class="C4" /><path d="M 17014 15877 l 0 -0" class="C4" /><path d="M 17003 15721 l 12 0" class="C4" /><path d="M 17014 15721 l 0 0" class="C4" /><path d="M 4255 20539 l 0 57" class="C4" /><path d="M 4137 20435 l 32 0" class="C4" /><path d="M 4137 20435 l 0 -39" class="C4" /><path d="M 4255 20564 l -118 0" class="C4" /><path d="M 4137 20564 l 0 -128" class="C4" /><path d="M 4255 15475 l 0 57" class="C4" /><path d="M 4160 15547 l -24 0" class="C4" /><path d="M 4160 15547 l 0 -30" class="C4" /><path d="M 4255 15517 l -94 0" class="C4" /><path d="M 4137 15645 l 24 0" class="C4" /><path d="M 4137 15645 l 0 -98" class="C4" /><path d="M 4137 15674 l 0 -29" class="C4" /><path d="M 4137 15514 l 24 0" class="C4" /><path d="M 4137 15514 l 0 -7" class="C4" /><path d="M 4255 15507 l -118 0" class="C4" /><path d="M 4160 15517 l 0 -2" class="C4" /><path d="M 4137 15514 l 0 32" class="C4" /><path d="M 4259 4029 l -12 0" class="C4" /><path d="M 4259 4128 l -12 0" class="C4" /><path d="M 4247 4128 l 0 -98" class="C4" /><path d="M 4259 4256 l -12 0" class="C4" /><path d="M 4247 4256 l 0 -128" class="C4" /><path d="M 4247 3997 l 12 0" class="C4" /><path d="M 4247 3997 l 0 -7" class="C4" /><path d="M 4259 3990 l -12 0" class="C4" /><path d="M 4247 3997 l 0 32" class="C4" /><path d="M 4259 6094 l -12 0" class="C4" /><path d="M 4259 6192 l -12 0" class="C4" /><path d="M 4247 6192 l 0 -98" class="C4" /><path d="M 4259 6320 l -12 0" class="C4" /><path d="M 4247 6320 l 0 -128" class="C4" /><path d="M 4247 6061 l 12 0" class="C4" /><path d="M 4247 6061 l 0 -7" class="C4" /><path d="M 4259 6054 l -12 0" class="C4" /><path d="M 4247 6061 l 0 32" class="C4" /><path d="M 6355 13616 c 0 85 69 153 153 153" class="C4" /><path d="M 6355 8319 l 0 5296" class="C4" /><path d="M 6508 8166 c -85 0 -153 69 -153 153" class="C4" /><path d="M 14754 8166 l -8246 0" class="C4" /><path d="M 14907 8319 c 0 -85 -69 -153 -153 -153" class="C4" /><path d="M 14907 13622 l 0 -5302" class="C4" /><path d="M 14760 13769 c 81 0 147 -66 147 -147" class="C4" /><path d="M 6508 13769 l 8251 0" class="C4" /><path d="M 17119 7293 l 0 -627" class="C4" /><path d="M 17119 7920 l 0 -627" class="C4" /><path d="M 22073 7293 l 0 -627" class="C4" /><path d="M 22073 7920 l 0 -627" class="C4" /><path d="M 4008 12775 l 0 -1380" class="C4" /><path d="M 3596 12624 l 0 -1078" class="C4" /><path d="M 3583 12622 l 0 -1073" class="C4" /><path d="M 3295 4123 l 0 -479" class="C4" /><path d="M 3295 4602 l 0 -479" class="C4" /><path d="M 17233 9737 l 0 4695" class="C4" /><path d="M 4443 13515 l 0 5241" class="C4" /><path d="M 16819 18756 l 0 -5241" class="C4" /><path d="M 16819 8172 l 0 -4993" class="C4" /><path d="M 4443 3179 l 0 4993" class="C4" /></g></svg>