<?xml version='1.0' encoding='utf-8'?>
<svg xmlns="http://www.w3.org/2000/svg" width="162.5mm" height="32.8mm" viewBox="0 0 1000000 201846"><defs><style>.C1 {stroke: #ffff00; stroke-width: 1538; stroke-opacity: 1.000; fill: none; fill-opacity: 1.000;}</style><style>.C2 {stroke: #ff00ff; stroke-width: 1538; stroke-opacity: 1.000; fill: none; fill-opacity: 1.000;}</style><style>.C3 {stroke: #ffffff; stroke-width: 1538; stroke-opacity: 1.000; fill: none; fill-opacity: 1.000;}</style><style>.C4 {stroke: #ff0000; stroke-width: 1538; stroke-opacity: 1.000; fill: none; fill-opacity: 1.000;}</style><style>.C5 {stroke: #bf7fff; stroke-width: 1538; stroke-opacity: 1.000; fill: none; fill-opacity: 1.000;}</style><style>.C6 {stroke: #00ff00; stroke-width: 1538; stroke-opacity: 1.000; fill: none; fill-opacity: 1.000;}</style></defs><g stroke-linecap="round" stroke-linejoin="round" fill-rule="evenodd"><path d="M 824020 161114 l 85595 -0" class="C1" /><path d="M 966487 168799 l -93762 0" class="C2" /><path d="M 951116 153428 l -78391 0" class="C2" /><path d="M 909615 148879 l -36890 0" class="C2" /><path d="M 872203 149401 l -24071 0" class="C2" /><path d="M 872203 172826 l -24071 0" class="C2" /><path d="M 909615 173349 l -36890 0" class="C2" /><path d="M 872725 173349 l 0 -24470" class="C2" /><path d="M 872203 172826 l 0 -23425" class="C2" /><path d="M 872203 172826 l 523 523" class="C2" /><path d="M 872203 149401 l 523 -523" class="C2" /><path d="M 848132 149401 l 0 23425" class="C2" /><path d="M 918069 120381 l -45344 0" class="C2" /><path d="M 999534 201846 l -126809 0" class="C2" /><path d="M 872725 120381 l 0 81465" class="C2" /><path d="M 861430 62741 l 48185 0" class="C1" /><path d="M 909615 161114 c 27165 0 49186 -22022 49186 -49186 c 0 -27165 -22022 -49186 -49186 -49186" class="C1" /><path d="M 909615 173349 c 33922 0 61422 -27499 61422 -61422 c 0 -33922 -27499 -61422 -61422 -61422" class="C2" /><path d="M 909615 148879 c 20408 0 36951 -16544 36951 -36951 c 0 -20408 -16544 -36951 -36951 -36951" class="C2" /><path d="M 909615 74976 l -36890 0" class="C2" /><path d="M 909615 50506 l -36890 0" class="C2" /><path d="M 872725 50506 l 0 24470" class="C2" /><path d="M 999534 22008 l 0 179838" class="C2" /><path d="M 918069 103473 l 0 16908" class="C2" /><path d="M 918069 103473 l -45344 0" class="C2" /><path d="M 872725 103473 l 0 -81465" class="C2" /><path d="M 999534 22008 l -126809 0" class="C2" /><path d="M 999534 22008 l -81465 81465" class="C2" /><path d="M 999534 201846 l -81465 -81465" class="C2" /><path d="M 951116 153428 l 0 -83002" class="C2" /><path d="M 966487 168799 l 0 -113744" class="C2" /><path d="M 966487 55055 l -93762 0" class="C2" /><path d="M 951116 70426 l -78391 0" class="C2" /><path d="M 872725 161114 l -747123 -0" class="C1" /><path d="M 872725 173349 l -713203 0" class="C3" /><path d="M 872725 201846 l -737797 -0" class="C3" /><path d="M 872725 168799 l -737797 -0" class="C3" /><path d="M 872725 120381 l -737797 0" class="C3" /><path d="M 134929 201846 l 0 -81465" class="C3" /><path d="M 872725 153428 l -737797 -0" class="C3" /><path d="M 158999 172826 l -24071 0" class="C3" /><path d="M 158999 149401 l -24071 0" class="C3" /><path d="M 872725 148879 l -713203 0" class="C3" /><path d="M 159522 148879 l 0 24470" class="C3" /><path d="M 158999 149401 l 523 -523" class="C3" /><path d="M 158999 149401 l 0 23425" class="C3" /><path d="M 158999 172826 l 523 523" class="C3" /><path d="M 134929 172826 l 0 -23425" class="C3" /><path d="M 872725 201846 l 0 -81465" class="C3" /><path d="M 872725 173349 l -0 -24470" class="C3" /><path d="M 159522 62741 l 747123 -0" class="C1" /><path d="M 159522 74976 l 713203 0" class="C4" /><path d="M 159522 103473 l 737797 -0" class="C4" /><path d="M 159522 70426 l 737797 -0" class="C4" /><path d="M 159522 22008 l 737797 0" class="C4" /><path d="M 897318 103473 l 0 -81465" class="C4" /><path d="M 159522 55055 l 737797 -0" class="C4" /><path d="M 873248 74453 l 24071 0" class="C4" /><path d="M 873248 51028 l 24071 0" class="C4" /><path d="M 159522 50506 l 713203 0" class="C4" /><path d="M 872725 50506 l 0 24470" class="C4" /><path d="M 873248 51028 l -523 -523" class="C4" /><path d="M 873248 51028 l 0 23425" class="C4" /><path d="M 873248 74453 l -523 523" class="C4" /><path d="M 897318 74453 l 0 -23425" class="C4" /><path d="M 159522 103473 l 0 -81465" class="C4" /><path d="M 159522 74976 l 0 -24470" class="C4" /><path d="M 8658 62741 l 178289 0" class="C1" /><path d="M 85603 41955 c 245 -71 413 -296 413 -551" class="C5" /><path d="M 86016 34322 c 0 -255 -168 -480 -413 -551" class="C5" /><path d="M 112121 41403 c 0 217 122 416 317 513 c 194 97 426 77 601 -53" class="C5" /><path d="M 113038 33862 c -174 -130 -407 -150 -601 -53 c -194 97 -317 296 -317 513" class="C5" /><path d="M 86208 41116 c -106 0 -191 86 -191 191" class="C5" /><path d="M 86016 34418 c 0 106 86 191 191 191" class="C5" /><path d="M 112121 41308 c 0 -106 -86 -191 -191 -191" class="C5" /><path d="M 111929 34609 c 106 0 191 -86 191 -191" class="C5" /><path d="M 106762 41116 l 5167 0" class="C5" /><path d="M 111929 34609 l -5167 0" class="C5" /><path d="M 86208 41116 l 5167 0" class="C5" /><path d="M 91375 34609 l -5167 0" class="C5" /><path d="M 91375 40734 l 15387 0" class="C5" /><path d="M 106762 34992 l -15387 0" class="C5" /><path d="M 19221 67910 l 222 0" class="C5" /><path d="M 19443 57575 l -222 0" class="C5" /><path d="M 18264 67519 l 574 0" class="C5" /><path d="M 18839 57965 l -574 0" class="C5" /><path d="M 18839 66953 l 383 0" class="C5" /><path d="M 19221 58532 l -383 0" class="C5" /><path d="M 18264 66505 c 0 -80 -50 -152 -125 -180" class="C5" /><path d="M 18139 59160 c 75 -28 125 -99 125 -180" class="C5" /><path d="M 18139 59160 l -2139 784" class="C5" /><path d="M 16000 65541 l 2139 784" class="C5" /><path d="M 16000 65541 c -21 -8 -43 -12 -66 -12" class="C5" /><path d="M 15934 59956 c 22 0 45 -4 66 -12" class="C5" /><path d="M 13671 65529 l 2263 0" class="C5" /><path d="M 15934 59956 l -2263 0" class="C5" /><path d="M 13671 60140 l -3062 0" class="C5" /><path d="M 10609 65345 l 3062 0" class="C5" /><path d="M 5825 60159 l -4593 0" class="C5" /><path d="M 1231 65326 l 4593 0" class="C5" /><path d="M 1231 60159 l -766 766" class="C5" /><path d="M 466 64560 l 766 766" class="C5" /><path d="M 14437 23892 l 766 0" class="C5" /><path d="M 15202 18916 l -766 0" class="C5" /><path d="M 13671 23127 c 0 423 343 766 766 766" class="C5" /><path d="M 14437 18916 c -423 0 -766 343 -766 766" class="C5" /><path d="M 17882 23510 l 1148 0" class="C5" /><path d="M 19030 19299 l -1148 0" class="C5" /><path d="M 19443 18534 l -31 0" class="C5" /><path d="M 19413 24275 l 31 0" class="C5" /><path d="M 8236 81567 c -169 0 -306 137 -306 306" class="C5" /><path d="M 7930 105374 c 0 169 137 306 306 306" class="C5" /><path d="M 8236 105681 l 8880 0" class="C5" /><path d="M 17116 81567 l -8880 0" class="C5" /><path d="M 17790 80793 l -674 0" class="C5" /><path d="M 17116 106454 l 665 0" class="C5" /><path d="M 85603 49981 c 291 362 730 573 1194 573" class="C5" /><path d="M 86797 74928 c -416 0 -814 169 -1103 469" class="C5" /><path d="M 113269 50554 l -26472 0" class="C6" /><path d="M 159522 50554 l -18694 0" class="C6" /><path d="M 86797 74928 l 72725 0" class="C6" /><path d="M 159522 74928 l 521 -521" class="C6" /><path d="M 160043 51074 l -521 -521" class="C6" /><path d="M 184019 51074 l -23976 0" class="C6" /><path d="M 160043 74407 l 23976 0" class="C6" /><path d="M 85603 112666 l 0 -14665" class="C5" /><path d="M 19443 98001 l 0 14665" class="C5" /><path d="M 19443 1214 l 0 14665" class="C5" /><path d="M 85603 15878 l 0 -14665" class="C5" /><path d="M 19443 80341 l -23 0" class="C5" /><path d="M 86414 49029 l -398 0" class="C5" /><path d="M 86414 49029 l 0 973" class="C5" /><path d="M 86414 50001 l -795 0" class="C5" /><path d="M 86414 47871 l -398 0" class="C5" /><path d="M 86414 47871 l 0 1158" class="C5" /><path d="M 86414 47686 l -398 0" class="C5" /><path d="M 86414 47686 l 0 185" class="C5" /><path d="M 86414 77905 l -811 0" class="C5" /><path d="M 86414 77879 l 0 26" class="C5" /><path d="M 86016 47859 l -413 0" class="C5" /><path d="M 86016 47859 l 0 1164" class="C5" /><path d="M 86016 49023 l -413 0" class="C5" /><path d="M 86016 49984 l -413 0" class="C5" /><path d="M 86016 49023 l 0 961" class="C5" /><path d="M 86016 47656 l -413 0" class="C5" /><path d="M 86016 47656 l 0 203" class="C5" /><path d="M 86414 76089 l -811 0" class="C5" /><path d="M 86414 76089 l 0 1241" class="C5" /><path d="M 86414 77331 l -811 0" class="C5" /><path d="M 86414 75397 l -811 0" class="C5" /><path d="M 86414 75397 l 0 693" class="C5" /><path d="M 86414 77879 l -811 0" class="C5" /><path d="M 86414 77331 l 0 549" class="C5" /><path d="M 86414 62169 l -811 0" class="C5" /><path d="M 86414 62169 l 0 1241" class="C5" /><path d="M 86414 63410 l -811 0" class="C5" /><path d="M 86414 61476 l -811 0" class="C5" /><path d="M 86414 61476 l 0 693" class="C5" /><path d="M 86414 63959 l -811 0" class="C5" /><path d="M 86414 63410 l 0 549" class="C5" /><path d="M 113038 39519 l 28133 0" class="C5" /><path d="M 113038 39519 l 0 -9186" class="C5" /><path d="M 113038 30333 l 28133 0" class="C5" /><path d="M 141171 39519 l 0 -9186" class="C5" /><path d="M 113038 42581 l 0 -3062" class="C5" /><path d="M 141171 42581 l 0 -3062" class="C5" /><path d="M 113038 42581 l 28133 0" class="C5" /><path d="M 140914 50554 l 0 -7972" class="C5" /><path d="M 141171 50554 l 0 -7972" class="C5" /><path d="M 113038 50554 l 0 -7972" class="C5" /><path d="M 113269 62742 l 27559 0" class="C5" /><path d="M 113269 62742 l 0 -19904" class="C5" /><path d="M 113269 42839 l 27559 0" class="C5" /><path d="M 140828 62742 l 0 -19904" class="C5" /><path d="M 140571 42839 l 0 -257" class="C5" /><path d="M 113526 42581 l 0 257" class="C5" /><path d="M 140828 42839 l 0 -257" class="C5" /><path d="M 113269 42839 l 0 -257" class="C5" /><path d="M 86016 37863 l 0 -3541" class="C5" /><path d="M 86016 41403 l 0 -3541" class="C5" /><path d="M 112121 37863 l 0 -3541" class="C5" /><path d="M 112121 41403 l 0 -3541" class="C5" /><path d="M 106762 37863 l 0 -3253" class="C5" /><path d="M 106762 41116 l 0 -3253" class="C5" /><path d="M 91375 37863 l 0 -3253" class="C5" /><path d="M 91375 41116 l 0 -3253" class="C5" /><path d="M 19221 67910 l 0 -10335" class="C5" /><path d="M 18264 67519 l 0 -9554" class="C5" /><path d="M 18839 67519 l 0 -9554" class="C5" /><path d="M 5825 62838 l 4785 0" class="C5" /><path d="M 5825 62838 l 0 -191" class="C5" /><path d="M 5825 62647 l 4785 0" class="C5" /><path d="M 10609 62838 l 0 -191" class="C5" /><path d="M 5825 60020 l 4785 0" class="C5" /><path d="M 5825 62647 l 0 -2626" class="C5" /><path d="M 10609 62647 l 0 -2626" class="C5" /><path d="M 5825 65464 l 4785 0" class="C5" /><path d="M 5825 65464 l 0 -2626" class="C5" /><path d="M 10609 65464 l 0 -2626" class="C5" /><path d="M 13671 65529 l 0 -5573" class="C5" /><path d="M 1231 60159 l 0 5167" class="C5" /><path d="M 466 64560 l 0 -3636" class="C5" /><path d="M 5825 65560 l 4785 0" class="C5" /><path d="M 5825 65560 l 0 -96" class="C5" /><path d="M 10609 65560 l 0 -96" class="C5" /><path d="M 5825 59925 l 4785 0" class="C5" /><path d="M 5825 60020 l 0 -96" class="C5" /><path d="M 10609 60020 l 0 -96" class="C5" /><path d="M 19382 21570 l -352 0" class="C5" /><path d="M 19443 23766 l -413 0" class="C5" /><path d="M 19030 21570 l 0 2196" class="C5" /><path d="M 17882 21570 l -2679 0" class="C5" /><path d="M 17882 21570 l 0 2196" class="C5" /><path d="M 17882 23766 l -2679 0" class="C5" /><path d="M 15202 21570 l 0 2196" class="C5" /><path d="M 17882 21239 l -2679 0" class="C5" /><path d="M 15202 21239 l 0 331" class="C5" /><path d="M 17882 21239 l 0 331" class="C5" /><path d="M 19382 21239 l -352 0" class="C5" /><path d="M 19030 21239 l 0 331" class="C5" /><path d="M 17882 19043 l -2679 0" class="C5" /><path d="M 15202 19043 l 0 2196" class="C5" /><path d="M 17882 19043 l 0 2196" class="C5" /><path d="M 19443 19043 l -413 0" class="C5" /><path d="M 19030 19043 l 0 2196" class="C5" /><path d="M 13671 21404 l 0 -1722" class="C5" /><path d="M 13671 23127 l 0 -1722" class="C5" /><path d="M 19443 23932 l -413 0" class="C5" /><path d="M 19030 23766 l 0 166" class="C5" /><path d="M 17882 23932 l -2679 0" class="C5" /><path d="M 15202 23766 l 0 166" class="C5" /><path d="M 17882 23766 l 0 166" class="C5" /><path d="M 19443 18877 l -413 0" class="C5" /><path d="M 19030 18877 l 0 166" class="C5" /><path d="M 17882 18877 l -2679 0" class="C5" /><path d="M 15202 18877 l 0 166" class="C5" /><path d="M 17882 18877 l 0 166" class="C5" /><path d="M 19443 83725 l -2327 0" class="C5" /><path d="M 19443 103542 l -2327 0" class="C5" /><path d="M 17116 103542 l 0 -19816" class="C5" /><path d="M 7930 105374 l 0 -23502" class="C5" /><path d="M 17116 83725 l 2297 -2800" class="C5" /><path d="M 19443 80925 l -31 0" class="C5" /><path d="M 17116 81615 l 2297 -2800" class="C5" /><path d="M 19413 78815 l 0 288" class="C5" /><path d="M 19413 79103 l -2152 2620" class="C5" /><path d="M 17262 83260 c 87 -509 87 -1029 -1 -1537" class="C5" /><path d="M 17262 83260 l 2151 -2622" class="C5" /><path d="M 19413 80638 l 0 288" class="C5" /><path d="M 17116 81615 l 0 2110" class="C5" /><path d="M 19443 79103 l -31 0" class="C5" /><path d="M 19443 78815 l -31 0" class="C5" /><path d="M 19443 80638 l -31 0" class="C5" /><path d="M 19413 108160 l 0 286" class="C5" /><path d="M 19413 106633 l -2152 -2631" class="C5" /><path d="M 17262 105534 c 87 -507 86 -1025 -1 -1532" class="C5" /><path d="M 17262 105534 l 2151 2627" class="C5" /><path d="M 17116 105642 l 2297 2804" class="C5" /><path d="M 18514 105534 l -1252 0" class="C5" /><path d="M 18523 81723 l -1262 0" class="C5" /><path d="M 17116 81616 l 0 -822" class="C5" /><path d="M 17116 106454 l 0 -811" class="C5" /><path d="M 159522 50554 l 0 24374" class="C6" /><path d="M 160043 51074 l 0 23333" class="C6" /><path d="M 184019 51074 l 0 23333" class="C6" /><path d="M 19443 97377 l 0 -27209" class="C5" /><path d="M 20399 98677 l 0 -1299" class="C5" /><path d="M 19443 98001 c 89 443 508 739 955 676" class="C5" /><path d="M 19443 98001 c 0 -10 0 -21 0 -32 c 0 -11 0 -22 0 -33 c 0 -11 0 -22 0 -34 c 0 -12 0 -23 0 -35 c 0 -12 0 -24 0 -36 c 0 -12 0 -25 0 -38 c 0 -13 0 -26 0 -39 c 0 -13 0 -26 0 -40 c -0 -27 0 -54 0 -82 c 0 -27 0 -55 0 -84 c 0 -28 0 -57 0 -85 c 0 -29 0 -58 0 -87" class="C5" /><path d="M 84648 98677 l 0 -1299" class="C5" /><path d="M 20399 98677 l 64249 0" class="C5" /><path d="M 85603 97377 c 0 -8641 0 -17282 0 -27209" class="C5" /><path d="M 85603 98001 c -0 -9 -0 -19 -0 -29 c 0 -10 0 -20 -0 -30 c -0 -10 -0 -20 -0 -31 c -0 -10 -0 -21 -0 -32 c -0 -11 -0 -22 -0 -33 c -0 -7 0 -15 0 -22 c 0 -21 0 -42 0 -64 c 0 -15 0 -30 0 -45 c -0 -16 -0 -31 -0 -47 c -0 -23 -0 -47 -0 -71 c -0 -24 -0 -48 -0 -72 c 0 -24 0 -49 0 -74 c 0 -25 0 -49 0 -74" class="C5" /><path d="M 84648 98677 c 447 63 866 -233 955 -676" class="C5" /><path d="M 85603 112666 l 0 -14665" class="C5" /><path d="M 19443 112666 l 0 -14665" class="C5" /><path d="M 85603 112924 c -0 -0 -0 -0 -0 -1 c 0 -1 0 -1 -0 -3 c -0 -1 -0 -3 -0 -4 c -0 -2 -0 -4 -0 -6 c -0 -2 -0 -5 -0 -8 c -0 -2 0 -4 0 -6 c 0 -6 0 -13 0 -21 c 0 -5 0 -11 0 -18 c -0 -6 -0 -13 -0 -21 c -0 -11 -0 -22 -0 -35 c -0 -13 -0 -26 -0 -40 c 0 -14 0 -29 0 -45 c 0 -16 0 -33 0 -50" class="C5" /><path d="M 19443 112924 c 0 -0 0 -0 0 -1 c 0 -1 0 -2 0 -3 c 0 -1 0 -3 0 -5 c 0 -2 0 -5 0 -7 c 0 -3 0 -6 0 -9 c 0 -4 0 -7 0 -12 c 0 -4 0 -9 0 -14 c 0 -5 0 -10 0 -16 c 0 -11 0 -23 0 -37 c 0 -14 0 -28 0 -44 c 0 -16 0 -33 0 -51 c 0 -19 0 -39 0 -58" class="C5" /><path d="M 19443 112924 c -0 253 101 496 280 676 c 179 179 422 280 676 280" class="C5" /><path d="M 84648 113879 l -64249 0" class="C5" /><path d="M 84648 113879 c 528 0 955 -428 955 -955" class="C5" /><path d="M 85603 16502 l 0 25923" class="C5" /><path d="M 84648 15203 l 0 1299" class="C5" /><path d="M 85603 15878 c -89 -443 -508 -739 -955 -676" class="C5" /><path d="M 85603 15878 c 0 91 0 182 0 286 c 0 104 0 221 0 337" class="C5" /><path d="M 20399 15203 l 0 1299" class="C5" /><path d="M 84648 15203 l -64249 0" class="C5" /><path d="M 19443 16502 c 0 1080 0 2160 0 3240 c -0 1080 0 2160 0 3240 c -0 1080 0 2160 0 3240 c 0 1080 0 2160 0 3240 c -0 1080 0 2160 0 3240 c 0 1080 0 2160 0 3240 c -0 1080 -0 2160 0 3240 c 0 1080 0 2160 0 3240" class="C5" /><path d="M 19443 15878 c 0 91 0 182 0 285 c 0 104 0 221 0 338" class="C5" /><path d="M 20399 15203 c -447 -63 -866 233 -955 676" class="C5" /><path d="M 19443 1214 l 0 14665" class="C5" /><path d="M 85603 1214 l 0 14665" class="C5" /><path d="M 19443 955 c 0 12 0 24 0 67 c 0 43 0 117 0 191" class="C5" /><path d="M 85603 955 c -0 12 -0 24 -0 67 c 0 43 0 117 0 191" class="C5" /><path d="M 20399 0 l 64249 0" class="C5" /><path d="M 85603 955 c 0 -253 -101 -496 -280 -676 c -179 -179 -422 -280 -676 -280" class="C5" /><path d="M 20399 0 c -528 0 -955 428 -955 955" class="C5" /><path d="M 23739 73831 l 0 -3663" class="C5" /><path d="M 23739 42425 l 0 -2377" class="C5" /><path d="M 23831 57241 l 0 -424" class="C5" /><path d="M 23831 56817 l 0 -179" class="C5" /><path d="M 23831 56638 c -18 -146 -48 -291 -92 -437" class="C5" /><path d="M 23739 56201 l 0 -13776" class="C5" /><path d="M 23739 70168 l 0 -12490" class="C5" /><path d="M 23739 57678 c 43 -146 74 -291 92 -437" class="C5" /><path d="M 81215 56638 l 0 179" class="C5" /><path d="M 81215 56817 l 0 424" class="C5" /><path d="M 81215 57241 c 18 146 48 291 92 437" class="C5" /><path d="M 81307 57678 l 0 12490" class="C5" /><path d="M 81307 42425 l 0 13776" class="C5" /><path d="M 81307 56201 c -43 146 -74 291 -92 437" class="C5" /><path d="M 81307 40049 l 0 2377" class="C5" /><path d="M 81307 70168 l 0 3663" class="C5" /><path d="M 24971 39122 l 55105 0" class="C5" /><path d="M 24971 74757 l 55105 0" class="C5" /><path d="M 80076 74757 c 723 -0 1231 -382 1231 -926" class="C5" /><path d="M 81307 40049 c -0 -544 -508 -926 -1231 -926" class="C5" /><path d="M 23739 73831 c 0 544 508 926 1231 926" class="C5" /><path d="M 24971 39122 c -723 0 -1231 382 -1231 926" class="C5" /><path d="M 84648 42425 l 0 27743" class="C5" /><path d="M 20399 70168 l 0 -27743" class="C5" /><path d="M 85603 70168 l 0 -27743" class="C5" /><path d="M 19443 42425 l 0 27743" class="C5" /><path d="M 85603 82121 l 61 0" class="C5" /><path d="M 85664 81619 l -61 0" class="C5" /><path d="M 85664 81619 l 0 501" class="C5" /><path d="M 85664 82427 l -61 0" class="C5" /><path d="M 85664 82427 l 0 500" class="C5" /><path d="M 85603 82927 l 61 0" class="C5" /><path d="M 85603 82424 l 61 0" class="C5" /><path d="M 85664 82427 l 0 -3" class="C5" /><path d="M 85603 81618 l 61 0" class="C5" /><path d="M 85664 81618 l 0 1" class="C5" /><path d="M 19420 106633 l 0 294" class="C5" /><path d="M 18808 106094 l 164 0" class="C5" /><path d="M 18808 106094 l 0 -201" class="C5" /><path d="M 19420 106761 l -612 0" class="C5" /><path d="M 18808 106761 l 0 -667" class="C5" /><path d="M 19420 80341 l 0 297" class="C5" /><path d="M 18930 80713 l -122 0" class="C5" /><path d="M 18930 80713 l 0 -156" class="C5" /><path d="M 19420 80557 l -490 0" class="C5" /><path d="M 18808 81223 l 125 0" class="C5" /><path d="M 18808 81223 l 0 -509" class="C5" /><path d="M 18808 81375 l 0 -152" class="C5" /><path d="M 18808 80546 l 122 0" class="C5" /><path d="M 18808 80546 l 0 -38" class="C5" /><path d="M 19420 80507 l -612 0" class="C5" /><path d="M 18930 80557 l 0 -12" class="C5" /><path d="M 18808 80546 l 0 167" class="C5" /><path d="M 19443 20919 l -61 0" class="C5" /><path d="M 19443 21429 l -61 0" class="C5" /><path d="M 19382 21429 l 0 -509" class="C5" /><path d="M 19443 22095 l -61 0" class="C5" /><path d="M 19382 22095 l 0 -667" class="C5" /><path d="M 19382 20752 l 61 0" class="C5" /><path d="M 19382 20752 l 0 -38" class="C5" /><path d="M 19443 20713 l -61 0" class="C5" /><path d="M 19382 20752 l 0 167" class="C5" /><path d="M 19443 31637 l -61 0" class="C5" /><path d="M 19443 32146 l -61 0" class="C5" /><path d="M 19382 32146 l 0 -509" class="C5" /><path d="M 19443 32813 l -61 0" class="C5" /><path d="M 19382 32813 l 0 -667" class="C5" /><path d="M 19382 31469 l 61 0" class="C5" /><path d="M 19382 31469 l 0 -38" class="C5" /><path d="M 19443 31431 l -61 0" class="C5" /><path d="M 19382 31469 l 0 167" class="C5" /><path d="M 30323 70689 c 0 440 356 796 796 796" class="C5" /><path d="M 30323 43191 l 0 27498" class="C5" /><path d="M 31119 42395 c -440 0 -796 356 -796 796" class="C5" /><path d="M 73927 42395 l -42808 0" class="C5" /><path d="M 74723 43191 c 0 -440 -356 -796 -796 -796" class="C5" /><path d="M 74723 70719 l 0 -27528" class="C5" /><path d="M 73958 71485 c 423 0 766 -343 766 -766" class="C5" /><path d="M 31119 71485 l 42839 0" class="C5" /><path d="M 86208 37863 l 0 -3253" class="C5" /><path d="M 86208 41116 l 0 -3253" class="C5" /><path d="M 111929 37863 l 0 -3253" class="C5" /><path d="M 111929 41116 l 0 -3253" class="C5" /><path d="M 18139 66325 l 0 -7165" class="C5" /><path d="M 16000 65541 l 0 -5596" class="C5" /><path d="M 15934 65529 l 0 -5573" class="C5" /><path d="M 14437 21404 l 0 -2488" class="C5" /><path d="M 14437 23892 l 0 -2488" class="C5" /><path d="M 86797 50554 l 0 24374" class="C5" /><path d="M 20399 70168 l 0 27209" class="C5" /><path d="M 84648 97377 l 0 -27209" class="C5" /><path d="M 84648 42425 l 0 -25923" class="C5" /><path d="M 20399 16502 l 0 25923" class="C5" /></g></svg>