<?xml version='1.0' encoding='utf-8'?>
<svg xmlns="http://www.w3.org/2000/svg" width="15.3mm" height="33.8mm" viewBox="0 0 452663 1000000"><defs><style>.C1 {stroke: #ffffff; stroke-width: 7396; stroke-opacity: 1.000; fill: none; fill-opacity: 1.000;}</style></defs><g stroke-linecap="round" stroke-linejoin="round" fill-rule="evenodd"><path d="M 132810 988925 c 1 0 2 1 4 1 c 32 6 140 7 257 7 c 117 -0 243 -2 383 -7 c 141 -4 296 -12 452 -19" class="C1" /><path d="M 300276 24034 c -22 7 -44 15 -103 20 c -59 5 -155 7 -271 7 c -116 0 -251 -2 -399 -6 c -148 -5 -308 -12 -468 -19" class="C1" /><path d="M 329093 158 c -71 612 -143 1224 -143 1838 c -0 4 -0 9 -0 13" class="C1" /><path d="M 158816 13246 c -4088 0 -7403 3314 -7403 7403" class="C1" /><path d="M 117709 22811 c -252 -30 -504 -60 -738 -148 c -128 -48 -251 -112 -366 -188 c -111 -73 -216 -156 -310 -250 c -97 -97 -184 -205 -259 -320 c -74 -113 -136 -232 -186 -358 c -93 -233 -140 -484 -140 -736 c -0 -252 48 -503 140 -736 c 50 -125 113 -245 186 -358 c 75 -115 161 -223 259 -320 c 94 -94 199 -177 310 -250 c 115 -75 238 -140 365 -188 c 234 -87 486 -117 738 -148" class="C1" /><path d="M 78585 994290 c 0 -491 -536 -962 -1491 -1309 c -954 -347 -2249 -542 -3599 -542" class="C1" /><path d="M 132000 975112 c 1 13 3 25 7 58 c 5 36 14 97 24 170 c 12 80 26 175 42 281 c 18 116 39 246 60 376" class="C1" /><path d="M 374301 265 c -752 122 -1635 342 -2537 633" class="C1" /><path d="M 320646 975836 c -76 3 -151 6 -256 7 c -105 0 -240 -2 -384 -7 c -144 -5 -299 -12 -453 -19" class="C1" /><path d="M 132599 11365 l -672 12818" class="C1" /><path d="M 133061 26364 c -398 -25 -796 -51 -1160 -193 c -277 -108 -534 -284 -791 -459" class="C1" /><path d="M 329017 998796 l 42101 0" class="C1" /><path d="M 319709 6691 c 2 33 3 65 6 119 c 8 157 26 495 52 995 c 0 0 0 1 0 1" class="C1" /><path d="M 3330 24183 l 336 -12818" class="C1" /><path d="M 319592 6034 c -84 -127 -169 -254 -278 -292 c -114 -40 -255 17 -396 74" class="C1" /><path d="M 277429 994142 l 0 4935" class="C1" /><path d="M 371764 898 l -40964 0" class="C1" /><path d="M 278503 306 c -350 0 -898 274 -1481 740" class="C1" /><path d="M 329093 158 l 227 0" class="C1" /><path d="M 364071 6821 l 7693 -5922" class="C1" /><path d="M 123713 994290 l 0 3701" class="C1" /><path d="M 301526 973636 l 2 78" class="C1" /><path d="M 318514 5340 l -16135 0" class="C1" /><path d="M 189363 864324 c 1715 -346 2862 -1969 2617 -3701" class="C1" /><path d="M 3345 976113 l 10 -419 l 52 -407 l 92 -377 l 128 -332 l 159 -274 l 183 -204 l 200 -126 l 209 -43" class="C1" /><path d="M 79906 454 l 45227 0" class="C1" /><path d="M 313315 966381 c 0 1022 -829 1851 -1851 1851 c -1022 0 -1851 -829 -1851 -1851 c 0 -1022 829 -1851 1851 -1851 c 1022 0 1851 829 1851 1851" class="C1" /><path d="M 277392 999694 c 25 -203 37 -410 37 -617" class="C1" /><path d="M 179290 989700 l 0 -2162" class="C1" /><path d="M 319600 973715 l 2 -79" class="C1" /><path d="M 87822 6006 c 167 109 333 217 489 336 c 159 122 306 254 418 408 c 43 59 80 121 99 187 c 15 55 17 113 18 170" class="C1" /><path d="M 5267 26364 l 0 947567" class="C1" /><path d="M 257020 12462 l 0 785" class="C1" /><path d="M 349760 975817 l 3300 0" class="C1" /><path d="M 132765 988931 l -29846 0" class="C1" /><path d="M 318514 5340 l 9 206" class="C1" /><path d="M 192902 883099 l 0 -2118" class="C1" /><path d="M 192902 860622 l -921 0" class="C1" /><path d="M 151406 7709 l 148545 0" class="C1" /><path d="M 364071 7561 l 0 -740" class="C1" /><path d="M 183942 124304 l 0 -7403" class="C1" /><path d="M 133110 24183 c -4 178 -8 357 -12 531 c -3 149 -7 295 -10 435 c -5 209 -9 404 -13 570 c -2 106 -4 199 -6 285 c -2 83 -3 157 -5 203 c -1 44 -1 61 -2 79" class="C1" /><path d="M 151205 975965 c 4 -176 8 -352 12 -524 c 3 -149 7 -294 10 -433 c 5 -213 9 -410 13 -578 c 2 -106 4 -200 6 -285 c 2 -83 4 -157 5 -203 c 1 -42 1 -60 2 -77" class="C1" /><path d="M 278874 5858 c 0 1022 829 1851 1851 1851" class="C1" /><path d="M 301196 6463 c -2 35 -4 71 -10 182 c -6 112 -16 300 -28 534 c -12 235 -27 515 -44 847 c -17 331 -37 713 -57 1095" class="C1" /><path d="M 320064 988635 l -6 124" class="C1" /><path d="M 320064 988635 l 672 -12818" class="C1" /><path d="M 301314 993389 c -3 -62 -6 -124 -18 -345 c -12 -224 -32 -610 -52 -997" class="C1" /><path d="M 132016 24151 c -21 129 -42 258 -60 376 c -17 108 -31 207 -42 280 c -7 51 -13 90 -18 129" class="C1" /><path d="M 133063 26285 l -2 79" class="C1" /><path d="M 178586 883099 l 4808 0" class="C1" /><path d="M 364071 6821 c 1104 -290 2480 -691 3810 -1110" class="C1" /><path d="M 183394 857189 l 548 0" class="C1" /><path d="M 125133 454 c -349 0 -901 278 -1487 750" class="C1" /><path d="M 79906 454 c 8 5 16 9 43 22 c 27 13 71 35 126 59 c 58 25 128 54 208 79 c 27 9 56 17 85 26" class="C1" /><path d="M 257879 12462 c 0 -474 -384 -859 -859 -859" class="C1" /><path d="M 230033 500000 c 0 2044 -1657 3701 -3701 3701 c -2044 0 -3701 -1657 -3701 -3701 c 0 -2044 1657 -3701 3701 -3701 c 2044 0 3701 1657 3701 3701" class="C1" /><path d="M 320057 988759 c -18 7 -35 14 -90 19 c -54 5 -146 7 -256 7 c -111 0 -241 -2 -384 -7 c -143 -5 -298 -12 -453 -19" class="C1" /><path d="M 132954 993309 c -2 -33 -3 -65 -6 -119 c -8 -157 -27 -495 -52 -995 c -0 -0 -0 -1 -0 -1" class="C1" /><path d="M 99603 24183 l -96273 0" class="C1" /><path d="M 186851 124304 l 0 -1583" class="C1" /><path d="M 143123 875385 c 0 1063 -862 1925 -1925 1925 c -1063 0 -1925 -862 -1925 -1925 c 0 -1063 862 -1925 1925 -1925 c 1063 0 1925 862 1925 1925" class="C1" /><path d="M 131659 7857 l -28755 0" class="C1" /><path d="M 349744 26068 l 0 -2181" class="C1" /><path d="M 143974 33619 c 0 1533 -1243 2776 -2776 2776 c -1533 0 -2776 -1243 -2776 -2776 c 0 -1533 1243 -2776 2776 -2776 c 1533 0 2776 1243 2776 2776" class="C1" /><path d="M 335836 977411 l -1765 0" class="C1" /><path d="M 123645 7108 l 0 750" class="C1" /><path d="M 329017 992892 l 0 -749" class="C1" /><path d="M 131840 24201 c -1 0 -2 1 -4 1 c -32 6 -140 7 -257 7 c -117 -0 -243 -2 -384 -7 c -141 -4 -297 -12 -452 -19" class="C1" /><path d="M 257020 10300 l -77730 0" class="C1" /><path d="M 175640 993031 c -1022 0 -1851 497 -1851 1110" class="C1" /><path d="M 178586 857189 l 0 25910" class="C1" /><path d="M 277493 986754 c 4088 0 7403 -3314 7403 -7403" class="C1" /><path d="M 143123 124615 c 0 1063 -862 1925 -1925 1925 c -1063 0 -1925 -862 -1925 -1925 c 0 -1063 862 -1925 1925 -1925 c 1063 0 1925 862 1925 1925" class="C1" /><path d="M 131996 975030 c 0 3 0 6 1 18 c 1 12 2 33 3 54" class="C1" /><path d="M 277429 994142 c 0 -295 -195 -577 -542 -785 c -347 -208 -818 -325 -1309 -325" class="C1" /><path d="M 183394 135409 l 9931 0" class="C1" /><path d="M 447133 7561 l 349 66 l 337 197 l 312 321 l 276 432 l 230 529 l 176 606 l 116 662 l 51 694" class="C1" /><path d="M 319435 24035 c 154 -7 308 -14 452 -19 c 144 -5 278 -7 383 -7 c 105 0 181 3 257 7" class="C1" /><path d="M 301083 6976 l 110 -445" class="C1" /><path d="M 190285 864324 l -921 0" class="C1" /><path d="M 372757 999546 c -8 -5 -17 -9 -43 -22 c -27 -13 -71 -35 -126 -59 c -58 -25 -128 -54 -208 -79 c -27 -9 -56 -17 -85 -26" class="C1" /><path d="M 352724 988635 l -51 694 l -116 662 l -176 606 l -230 529 l -276 432 l -312 321 l -337 197 l -349 66" class="C1" /><path d="M 257020 989700 c 1194 0 2162 -968 2162 -2162" class="C1" /><path d="M 300452 25729 c -50 -53 -100 -106 -165 -144 c -68 -40 -151 -65 -242 -77 c -91 -12 -190 -13 -293 4 c -99 16 -202 48 -306 80" class="C1" /><path d="M 187772 864591 l 0 -268" class="C1" /><path d="M 179290 12462 l 0 -2162" class="C1" /><path d="M 173789 994142 c 0 -1022 -829 -1851 -1851 -1851" class="C1" /><path d="M 319482 26137 c -0 -18 -1 -35 -2 -79 c -1 -46 -3 -120 -5 -203 c -2 -85 -4 -179 -6 -285 c -4 -168 -8 -365 -13 -578 c -3 -139 -6 -284 -10 -433 c -4 -172 -8 -348 -12 -524" class="C1" /><path d="M 102919 973932 c -397 -0 -795 0 -1173 0 c -378 0 -735 -0 -1093 -0" class="C1" /><path d="M 374540 5710 l 0 -5552" class="C1" /><path d="M 175640 998954 l 99939 0" class="C1" /><path d="M 193802 855377 c -620 383 -969 1085 -900 1811" class="C1" /><path d="M 133071 993966 c 84 127 169 254 278 292 c 114 40 255 -17 396 -74" class="C1" /><path d="M 153199 984172 l -242 4611" class="C1" /><path d="M 102919 988931 l 0 3508" class="C1" /><path d="M 151413 20649 l 0 7299" class="C1" /><path d="M 350876 992143 l 96273 0" class="C1" /><path d="M 133906 988907 l -678 -12943" class="C1" /><path d="M 717 988931 c 103 1966 1727 3508 3696 3508" class="C1" /><path d="M 78585 994290 l 0 4770" class="C1" /><path d="M 452633 975817 c 30 -568 -175 -1123 -566 -1535 c -391 -412 -935 -646 -1504 -646" class="C1" /><path d="M 349760 992143 c 196 0 392 0 578 0 c 186 0 362 0 538 0" class="C1" /><path d="M 366023 993994 l 18 -361 l 53 -347 l 86 -320 l 115 -280 l 140 -230 l 160 -171 l 174 -105 l 181 -36" class="C1" /><path d="M 5529 992439 l -349 -66 l -337 -197 l -312 -321 l -276 -432 l -230 -529 l -176 -606 l -116 -662 l -51 -694" class="C1" /><path d="M 352708 11069 l 336 12818" class="C1" /><path d="M 131996 975030 c -0 -80 -0 -161 12 -240 c 12 -75 34 -148 57 -222" class="C1" /><path d="M 349744 11069 l 2964 0" class="C1" /><path d="M 152957 988783 c -413 -41 -829 -42 -1242 -1" class="C1" /><path d="M 284896 27949 l 0 1954" class="C1" /><path d="M 173789 999077 c 0 207 13 414 37 617" class="C1" /><path d="M 320822 975799 c 1 -0 2 -1 4 -1 c 32 -6 140 -7 257 -7 c 117 0 243 2 384 7 c 141 4 297 12 452 19" class="C1" /><path d="M 150408 11241 l 678 12942" class="C1" /><path d="M 164014 975965 l -2992 0" class="C1" /><path d="M 86640 5178 c 385 300 779 577 1182 829" class="C1" /><path d="M 86640 6006 l 1182 0" class="C1" /><path d="M 175233 5858 l 0 -4935" class="C1" /><path d="M 192902 857189 l -921 0" class="C1" /><path d="M 372294 999360 l 0 -5366" class="C1" /><path d="M 123645 7108 c 1022 0 1851 -493 1851 -1101" class="C1" /><path d="M 81544 1204 c -308 -240 -711 -433 -1176 -564" class="C1" /><path d="M 449333 975817 l -336 12818" class="C1" /><path d="M 132599 11365 l 6 -124" class="C1" /><path d="M 301152 988729 c 35 658 69 1317 103 1963 c 34 646 67 1280 86 1647 c 0 5 1 10 1 15" class="C1" /><path d="M 447133 7561 l 1116 0" class="C1" /><path d="M 349744 11069 l 0 -3508" class="C1" /><path d="M 717 988931 l -672 -12818" class="C1" /><path d="M 300954 11092 l -7 127" class="C1" /><path d="M 100638 26364 l -209 -43 l -200 -126 l -183 -204 l -159 -274 l -128 -332 l -92 -377 l -52 -407 l -10 -419" class="C1" /><path d="M 192902 142812 c -69 726 280 1428 900 1811" class="C1" /><path d="M 320167 992419 c 61 -53 122 -107 190 -152 c 66 -44 138 -79 213 -108 c 72 -28 146 -50 222 -62 c 71 -12 144 -15 217 -19" class="C1" /><path d="M 150166 5488 c 4 81 7 162 18 411 c 11 262 29 708 53 1255 c 20 461 43 994 67 1577 c 15 363 31 746 48 1141 c 19 446 38 907 57 1369" class="C1" /><path d="M 194954 970097 l 0 -940194" class="C1" /><path d="M 257879 987538 l 0 -785" class="C1" /><path d="M 255717 970097 l 0 -940194" class="C1" /><path d="M 102903 11365 l 28513 0" class="C1" /><path d="M 352724 988635 l -2964 0" class="C1" /><path d="M 161022 24035 l 2992 0" class="C1" /><path d="M 132985 992322 c 10 186 20 372 28 531 c 17 327 28 539 40 751" class="C1" /><path d="M 174159 999694 l -333 0" class="C1" /><path d="M 183394 116901 l -4808 0" class="C1" /><path d="M 151842 992611 c 64 -55 128 -110 198 -156 c 69 -45 143 -82 221 -112 c 74 -29 151 -51 230 -64 c 74 -12 149 -16 225 -20" class="C1" /><path d="M 131416 11365 c 19 -282 39 -563 57 -836 c 17 -241 33 -475 48 -696 c 25 -355 47 -675 67 -961 c 24 -339 43 -629 53 -765 c 4 -64 7 -94 9 -123" class="C1" /><path d="M 372294 993994 l 463 0" class="C1" /><path d="M 179632 857189 l 0 -714377" class="C1" /><path d="M 277392 999694 l -333 0" class="C1" /><path d="M 194703 883099 l 0 86999" class="C1" /><path d="M 143974 966381 c 0 1533 -1243 2776 -2776 2776 c -1533 0 -2776 -1243 -2776 -2776 c 0 -1533 1243 -2776 2776 -2776 c 1533 0 2776 1243 2776 2776" class="C1" /><path d="M 329017 992892 c -1022 0 -1851 493 -1851 1101" class="C1" /><path d="M 75279 7857 c 2811 0 5089 -829 5089 -1851" class="C1" /><path d="M 133191 973825 c -114 2 -229 3 -339 27 c -118 25 -231 76 -335 143 c -107 68 -204 153 -279 255 c -73 99 -126 214 -178 330" class="C1" /><path d="M 101803 992439 l -96273 0" class="C1" /><path d="M 318632 994512 c 151 -16 302 -33 439 -84 c 137 -52 261 -139 376 -241 c 116 -102 224 -219 260 -363 c 1 -2 1 -4 2 -6" class="C1" /><path d="M 191981 857189 l 104 -737 l 295 -624 l 442 -417 l 521 -147 l 521 147 l 442 417 l 295 624 l 104 737" class="C1" /><path d="M 302254 988759 l 16620 0" class="C1" /><path d="M 353060 975817 l 96273 0" class="C1" /><path d="M 132723 988907 l 87 18" class="C1" /><path d="M 189363 135676 l -2513 0" class="C1" /><path d="M 183394 142812 l 548 0" class="C1" /><path d="M 151413 972051 l 0 7299" class="C1" /><path d="M 321247 988635 l 672 -12818" class="C1" /><path d="M 134140 994454 c -2 -49 -4 -99 -9 -204 c -9 -223 -29 -699 -53 -1255 c -20 -469 -43 -995 -67 -1576 c -15 -362 -31 -746 -48 -1141 c -19 -446 -38 -908 -57 -1369" class="C1" /><path d="M 151506 11223 c -2 -0 -4 -1 -6 -1 c -33 -6 -140 -7 -257 -7 c -116 0 -243 2 -383 7 c -141 4 -296 12 -452 19" class="C1" /><path d="M 329017 992892 l 0 5904" class="C1" /><path d="M 151413 972051 l 133483 0" class="C1" /><path d="M 125496 6006 c 0 1022 829 1851 1851 1851" class="C1" /><path d="M 313315 33619 c 0 1022 -829 1851 -1851 1851 c -1022 0 -1851 -829 -1851 -1851 c 0 -1022 829 -1851 1851 -1851 c 1022 0 1851 829 1851 1851" class="C1" /><path d="M 151466 993537 c 2 -35 4 -71 10 -182 c 6 -112 16 -300 28 -534 c 12 -235 27 -515 44 -847 c 17 -331 37 -713 57 -1095" class="C1" /><path d="M 123569 999842 l -227 0" class="C1" /><path d="M 132599 11365 l -87 18" class="C1" /><path d="M 300947 11218 l -672 12815" class="C1" /><path d="M 151580 993024 l -110 445" class="C1" /><path d="M 320667 24970 c -0 -3 -0 -6 -1 -18 c -1 -12 -2 -33 -3 -54" class="C1" /><path d="M 123645 7108 l 0 -5904" class="C1" /><path d="M 166219 979351 c 0 2044 -1657 3701 -3701 3701 c -2044 0 -3701 -1657 -3701 -3701 c 0 -2044 1657 -3701 3701 -3701 c 2044 0 3701 1657 3701 3701" class="C1" /><path d="M 257020 989700 l -77730 0" class="C1" /><path d="M 319821 993265 l 105 -426" class="C1" /><path d="M 257020 12462 l -77730 0" class="C1" /><path d="M 372757 993994 c 4 -43 8 -85 17 -126 c 19 -85 62 -164 112 -237 c 90 -134 203 -248 325 -350 c 235 -197 504 -352 784 -481 c 429 -199 882 -338 1342 -441 c 564 -125 1141 -195 1718 -210 c 126 -3 252 -4 378 -5" class="C1" /><path d="M 300348 974954 c -1 -21 -2 -41 -3 -53 c -1 -12 -1 -15 -1 -18" class="C1" /><path d="M 132778 7953 c -25 477 -50 954 -79 1505 c -29 547 -61 1165 -93 1784" class="C1" /><path d="M 302379 5340 c -150 17 -300 33 -439 84 c -139 51 -267 137 -376 241 c -110 104 -202 227 -260 363 c -58 136 -83 285 -107 434" class="C1" /><path d="M 447149 992143 c 161 0 323 0 462 0 c 139 0 257 -0 355 -0 c 98 0 176 0 223 0 c 47 0 61 -0 76 -0" class="C1" /><path d="M 363817 992892 c 25 -156 50 -312 79 -432 c 29 -120 63 -205 98 -257 c 25 -39 51 -60 77 -61 c 1 -0 2 -0 3 -0" class="C1" /><path d="M 320765 975064 c 1 -50 3 -101 3 -149 c 0 -144 -11 -275 -40 -393 c -34 -137 -93 -256 -151 -374" class="C1" /><path d="M 301057 9120 c -16 313 -33 627 -50 955 c -17 329 -35 673 -53 1016" class="C1" /><path d="M 352724 988635 l 336 -12818" class="C1" /><path d="M 352009 26068 l 96273 0" class="C1" /><path d="M 133061 26364 l 430 -0" class="C1" /><path d="M 123569 999842 c 72 -612 143 -1224 143 -1838 c 0 -4 0 -9 0 -13" class="C1" /><path d="M 363817 992892 l -34800 0" class="C1" /><path d="M 132665 973932 l -29746 0" class="C1" /><path d="M 194703 116901 l 0 25910" class="C1" /><path d="M 372294 993994 l -6272 0" class="C1" /><path d="M 313389 124615 c 0 1063 -862 1925 -1925 1925 c -1063 0 -1925 -862 -1925 -1925 c 0 -1063 862 -1925 1925 -1925 c 1063 0 1925 862 1925 1925" class="C1" /><path d="M 88845 7108 l 34800 0" class="C1" /><path d="M 86640 6006 l -18 361 l -53 347 l -86 320 l -115 280 l -140 230 l -160 171 l -174 105 l -181 36" class="C1" /><path d="M 349744 23887 l 3300 0" class="C1" /><path d="M 193326 864591 l 1377 0" class="C1" /><path d="M 300484 975836 c 76 3 152 6 257 7 c 105 0 239 -2 383 -7 c 144 -5 298 -12 452 -19" class="C1" /><path d="M 151550 11217 l 27740 0" class="C1" /><path d="M 372757 999546 l 0 -5552" class="C1" /><path d="M 30 24183 l 3300 0" class="C1" /><path d="M 4365 26364 c -322 0 -644 0 -924 0 c -289 0 -532 0 -735 0 c -202 0 -363 0 -458 0 c -91 0 -120 0 -149 0" class="C1" /><path d="M 191981 880980 c 245 -1732 -903 -3355 -2617 -3701" class="C1" /><path d="M 133180 973863 c 0 18 1 35 2 79 c 1 46 3 120 5 203 c 2 85 4 179 6 285 c 4 168 8 365 13 578 c 3 139 6 284 10 433 c 4 172 8 348 12 524" class="C1" /><path d="M 151320 7646 c -22 -418 -44 -836 -57 -1080 c -13 -247 -17 -316 -20 -384" class="C1" /><path d="M 314240 966381 c 0 1533 -1243 2776 -2776 2776 c -1533 0 -2776 -1243 -2776 -2776 c 0 -1533 1243 -2776 2776 -2776 c 1533 0 2776 1243 2776 2776" class="C1" /><path d="M 300246 24909 c 6 148 12 296 41 424 c 34 150 99 273 165 396" class="C1" /><path d="M 259182 967491 l -1303 0" class="C1" /><path d="M 187772 135676 l 0 -268" class="C1" /><path d="M 320064 988635 l 87 -18" class="C1" /><path d="M 121862 992439 l 0 740" class="C1" /><path d="M 448298 973636 l 209 43 l 200 126 l 183 204 l 159 274 l 128 332 l 92 377 l 52 407 l 10 419" class="C1" /><path d="M 259182 12462 c 0 -1194 -968 -2162 -2162 -2162" class="C1" /><path d="M 194703 883099 l -104 737 l -295 624 l -442 417 l -521 147 l -521 -147 l -442 -417 l -295 -624 l -104 -737" class="C1" /><path d="M 314240 875385 c 0 1533 -1243 2776 -2776 2776 c -1533 0 -2776 -1243 -2776 -2776 c 0 -1533 1243 -2776 2776 -2776 c 1533 0 2776 1243 2776 2776" class="C1" /><path d="M 319435 24035 l -17977 0" class="C1" /><path d="M 183942 883099 l 0 -7403" class="C1" /><path d="M 257020 988397 c 474 0 859 -384 859 -859" class="C1" /><path d="M 151136 26364 l -2 -78" class="C1" /><path d="M 101803 992439 l 1116 0" class="C1" /><path d="M 302497 994512 l 16135 0" class="C1" /><path d="M 257879 987538 l 1303 0" class="C1" /><path d="M 318875 988759 c -19 461 -39 923 -57 1369 c -17 395 -32 778 -48 1141 c -25 584 -48 1116 -67 1577 c -23 547 -42 994 -53 1255 c -10 249 -14 330 -18 411" class="C1" /><path d="M 192902 142812 l 0 -3434" class="C1" /><path d="M 78585 999060 c -1 3 -2 6 -4 10 c -81 222 -151 444 -220 665" class="C1" /><path d="M 319553 975817 l -678 12942" class="C1" /><path d="M 300393 975817 l 91 19" class="C1" /><path d="M 88592 993179 l -7693 5922" class="C1" /><path d="M 301314 993389 c 24 149 49 298 107 434 c 58 136 150 259 260 363 c 110 104 238 190 376 241 c 139 51 289 68 439 84" class="C1" /><path d="M 320057 988759 l 6 -124" class="C1" /><path d="M 131416 11365 l -672 12818" class="C1" /><path d="M 186851 864324 l 2513 0" class="C1" /><path d="M 257879 13246 l 0 -785" class="C1" /><path d="M 320610 23887 l 29134 -0" class="C1" /><path d="M 179290 13246 l 0 -785" class="C1" /><path d="M 177084 1047 l 0 5922" class="C1" /><path d="M 123713 994290 c 0 -295 -195 -577 -542 -785 c -347 -208 -818 -325 -1309 -325" class="C1" /><path d="M 259182 13246 l 0 -785" class="C1" /><path d="M 284896 27949 l -133483 0" class="C1" /><path d="M 352025 973636 l 96273 0" class="C1" /><path d="M 132017 24164 c 76 -3 151 -6 256 -7 c 105 -0 240 2 384 7 c 144 5 299 12 453 19" class="C1" /><path d="M 132512 11383 c -1 0 -2 0 -3 1 c -32 6 -140 7 -257 7 c -117 -0 -243 -2 -384 -7 c -141 -4 -297 -12 -452 -19" class="C1" /><path d="M 143974 124615 c 0 1533 -1243 2776 -2776 2776 c -1533 0 -2776 -1243 -2776 -2776 c 0 -1533 1243 -2776 2776 -2776 c 1533 0 2776 1243 2776 2776" class="C1" /><path d="M 151606 990880 l 96 -210" class="C1" /><path d="M 121862 999102 l 0 -5922" class="C1" /><path d="M 374078 941 l -6196 4770" class="C1" /><path d="M 702 11365 l -672 12818" class="C1" /><path d="M 374078 5710 c 0 491 536 962 1491 1309 c 954 347 2249 542 3599 542" class="C1" /><path d="M 277059 999694 l -102900 0" class="C1" /><path d="M 151606 990880 c 16 -313 33 -627 50 -955 c 17 -329 35 -673 53 -1016" class="C1" /><path d="M 284896 24035 l 14138 0" class="C1" /><path d="M 99619 976113 l -96273 0" class="C1" /><path d="M 88592 993179 c -1104 290 -2480 691 -3810 1110" class="C1" /><path d="M 319864 992449 l -10 195" class="C1" /><path d="M 284896 970097 l 0 1954" class="C1" /><path d="M 158816 986754 l 118677 0" class="C1" /><path d="M 132511 11383 l 88 -18" class="C1" /><path d="M 151349 6611 c 3 62 6 124 18 345 c 12 224 32 610 52 997" class="C1" /><path d="M 374078 941 c 1 -3 2 -6 4 -10 c 81 -222 151 -444 220 -665" class="C1" /><path d="M 102919 976113 l -3300 0" class="C1" /><path d="M 175604 306 l 102900 0" class="C1" /><path d="M 278874 923 l 0 4935" class="C1" /><path d="M 150408 11241 l -16620 0" class="C1" /><path d="M 318757 11093 l -16620 0" class="C1" /><path d="M 81544 1204 l 5096 3974" class="C1" /><path d="M 299706 11217 l 7 -95" class="C1" /><path d="M 366023 994822 c -385 -300 -779 -577 -1182 -829" class="C1" /><path d="M 4365 26364 l -209 -43 l -200 -126 l -183 -204 l -159 -274 l -128 -332 l -92 -377 l -52 -407 l -10 -419" class="C1" /><path d="M 275288 975965 l -2992 0" class="C1" /><path d="M 151413 24169 l -327 14" class="C1" /><path d="M 100654 973932 l -96273 0" class="C1" /><path d="M 352708 11069 l 96273 0" class="C1" /><path d="M 4398 7857 c -1969 0 -3593 1541 -3696 3508" class="C1" /><path d="M 151136 26365 l -17645 0" class="C1" /><path d="M 99939 11365 l -336 12818" class="C1" /><path d="M 300289 25281 c 3 24 6 48 11 72 c 18 79 62 152 108 222 c 47 72 97 140 155 203 c 58 62 123 119 193 168 c 69 49 142 92 218 124 c 142 60 294 83 447 106" class="C1" /><path d="M 173789 999077 l 0 -4935" class="C1" /><path d="M 78361 999735 c -60 26 -121 51 -163 70 c -43 19 -67 32 -73 36 c -1 1 -2 1 -2 1" class="C1" /><path d="M 151709 988908 c -21 7 -42 14 -98 18 c -56 4 -148 6 -258 6 c -110 -0 -239 -2 -380 -7 c -141 -5 -294 -12 -446 -19" class="C1" /><path d="M 131110 25712 c 97 -29 193 -59 286 -74 c 100 -17 195 -17 283 -6 c 91 11 174 35 241 74 c 66 39 116 93 165 147" class="C1" /><path d="M 278874 923 c 0 -207 -13 -414 -37 -617" class="C1" /><path d="M 84781 994290 l -6196 0" class="C1" /><path d="M 302136 11093 l -678 12943" class="C1" /><path d="M 121862 999102 c 583 466 1131 740 1481 740" class="C1" /><path d="M 319602 973636 l -430 0" class="C1" /><path d="M 183394 857189 l -4808 0" class="C1" /><path d="M 300348 974961 c 1 12 3 24 7 56 c 5 35 14 95 24 167 c 12 79 26 173 42 278 c 18 115 39 245 60 374" class="C1" /><path d="M 368807 7561 l -181 -36 l -174 -105 l -160 -171 l -140 -230 l -115 -280 l -86 -320 l -53 -347 l -18 -361" class="C1" /><path d="M 190285 122721 l -921 0" class="C1" /><path d="M 175271 306 l 333 0" class="C1" /><path d="M 194703 135409 l -1377 0" class="C1" /><path d="M 152848 990352 c -20 293 -41 585 -58 834 c -16 227 -29 418 -41 583 c -12 175 -22 322 -27 391 c -2 34 -3 49 -5 65" class="C1" /><path d="M 330801 898 c -583 -466 -1131 -740 -1481 -740" class="C1" /><path d="M 259182 39912 l -1303 0" class="C1" /><path d="M 447396 26068 l 0 947567" class="C1" /><path d="M 300276 24034 c -9 154 -17 309 -22 456 c -5 144 -6 282 -8 419" class="C1" /><path d="M 257879 967491 l 0 -5228" class="C1" /><path d="M 178586 142812 l 4808 0" class="C1" /><path d="M 132749 7135 l -662 902" class="C1" /><path d="M 301528 973713 c 0 16 1 33 2 75 c 1 45 3 121 5 204 c 2 86 4 181 6 288 c 4 165 8 360 13 570 c 3 139 6 285 10 435 c 4 174 8 352 12 531" class="C1" /><path d="M 327167 997685 c 0 4 0 9 0 13 c 1 617 71 1232 142 1847" class="C1" /><path d="M 299815 9648 c 20 -293 41 -585 58 -834 c 16 -227 29 -418 41 -583 c 12 -175 22 -322 27 -391 c 2 -34 3 -49 5 -65" class="C1" /><path d="M 197116 29903 l 0 940194" class="C1" /><path d="M 318523 5546 c 2 49 4 99 9 204 c 9 224 29 699 53 1255 c 20 469 43 995 67 1576 c 15 362 31 746 48 1141 c 19 446 38 908 57 1369" class="C1" /><path d="M 102903 24183 l 0 -12818" class="C1" /><path d="M 73448 992439 c 322 8 644 15 965 42 c 594 48 1186 160 1756 340 c 391 123 772 279 1125 490 c 253 151 491 332 669 570 c 61 82 115 171 139 269 c 11 45 16 92 21 140" class="C1" /><path d="M 349760 992143 l 0 -3508" class="C1" /><path d="M 301458 24035 c -153 -7 -305 -14 -446 -19 c -141 -5 -270 -7 -380 -7 c -110 -0 -202 2 -258 6 c -56 4 -77 11 -98 18" class="C1" /><path d="M 151349 6611 c -24 -149 -49 -298 -107 -434 c -58 -136 -150 -259 -260 -363 c -110 -104 -238 -190 -376 -241 c -139 -51 -289 -68 -439 -84" class="C1" /><path d="M 191981 139378 c 245 -1732 -903 -3355 -2617 -3701" class="C1" /><path d="M 3666 11365 l 96273 0" class="C1" /><path d="M 259182 960088 l 0 7403" class="C1" /><path d="M 151413 29903 l 0 -1954" class="C1" /><path d="M 183394 875696 l 9931 0" class="C1" /><path d="M 319669 7497 c -24 -462 -48 -923 -57 -1080 c -1 -24 -2 -40 -3 -57" class="C1" /><path d="M 133179 973784 l 18075 0" class="C1" /><path d="M 190285 122721 c 1715 -346 2862 -1969 2617 -3701" class="C1" /><path d="M 133110 24183 l 678 -12942" class="C1" /><path d="M 151252 973865 l 2 -81" class="C1" /><path d="M 314240 33619 c 0 1533 -1243 2776 -2776 2776 c -1533 0 -2776 -1243 -2776 -2776 c 0 -1533 1243 -2776 2776 -2776 c 1533 0 2776 1243 2776 2776" class="C1" /><path d="M 279280 992291 c -1022 0 -1851 829 -1851 1851" class="C1" /><path d="M 374540 5710 l -463 0" class="C1" /><path d="M 151134 26287 c -0 -16 -1 -33 -2 -75 c -1 -45 -3 -121 -5 -204 c -2 -86 -4 -181 -6 -288 c -4 -165 -8 -360 -13 -570 c -3 -139 -6 -285 -10 -435 c -4 -174 -8 -352 -12 -531" class="C1" /><path d="M 319484 26216 l -2 -79" class="C1" /><path d="M 301071 988759 l -678 -12942" class="C1" /><path d="M 130744 24183 l -27841 0" class="C1" /><path d="M 259182 987538 l 0 -785" class="C1" /><path d="M 132723 988907 l -678 -12942" class="C1" /><path d="M 301458 24035 c -4 176 -8 352 -12 524 c -3 149 -7 294 -10 433 c -5 213 -9 411 -13 578 c -2 106 -4 200 -6 285 c -2 83 -4 157 -5 203 c -1 42 -1 60 -2 77" class="C1" /><path d="M 132876 7647 c -0 5 -1 10 -1 15 c -20 367 -53 1001 -86 1647 c -34 646 -68 1304 -103 1963" class="C1" /><path d="M 151124 26326 l 290 -24" class="C1" /><path d="M 132053 976113 l -29134 0" class="C1" /><path d="M 301411 26135 l -2 81" class="C1" /><path d="M 183394 116901 l 548 0" class="C1" /><path d="M 319832 7561 l 29912 0" class="C1" /><path d="M 372757 999546 l -45227 0" class="C1" /><path d="M 177084 6969 l 0 740" class="C1" /><path d="M 321553 974288 c 102 117 205 234 274 378 c 68 142 105 309 117 482 c 9 119 6 241 -2 363 c -2 37 -5 74 -8 111 c -5 65 -10 129 -16 194" class="C1" /><path d="M 125496 2315 l 0 3692" class="C1" /><path d="M 102903 7857 c -196 0 -392 0 -578 0 c -186 0 -362 0 -538 0" class="C1" /><path d="M 334954 977189 c 252 30 504 60 738 148 c 128 48 251 113 366 188 c 111 73 216 156 310 250 c 97 97 184 205 259 320 c 74 113 136 232 186 358 c 93 233 140 484 140 736 c 0 252 -48 503 -140 736 c -50 125 -113 245 -186 358 c -75 115 -161 223 -259 320 c -94 94 -199 177 -310 250 c -115 75 -238 140 -365 188 c -234 87 -486 117 -738 148" class="C1" /><path d="M 186851 877279 l 0 -1583" class="C1" /><path d="M 179632 116901 l 0 -86999" class="C1" /><path d="M 79906 454 l 0 5552" class="C1" /><path d="M 191981 116901 l 104 -737 l 295 -624 l 442 -417 l 521 -147 l 521 147 l 442 417 l 295 624 l 104 737" class="C1" /><path d="M 366023 993994 l -1182 0" class="C1" /><path d="M 320663 24888 c -1 -13 -3 -25 -7 -58 c -5 -36 -14 -97 -24 -170 c -12 -80 -26 -175 -42 -281 c -18 -116 -39 -246 -60 -376" class="C1" /><path d="M 300401 975965 l -15505 0" class="C1" /><path d="M 284896 979351 l 0 -7299" class="C1" /><path d="M 78122 994290 l 463 0" class="C1" /><path d="M 101803 992439 l -349 -66 l -337 -197 l -312 -321 l -276 -432 l -230 -529 l -176 -606 l -116 -662 l -51 -694" class="C1" /><path d="M 143049 966381 c 0 1022 -829 1851 -1851 1851 c -1022 0 -1851 -829 -1851 -1851 c 0 -1022 829 -1851 1851 -1851 c 1022 0 1851 829 1851 1851" class="C1" /><path d="M 99954 988931 l -336 -12818" class="C1" /><path d="M 175233 5858 c 0 295 195 577 542 785 c 347 208 818 325 1309 325" class="C1" /><path d="M 151361 993967 c 4 -79 8 -157 20 -384 c 12 -226 31 -601 57 -1095 c 18 -337 38 -730 59 -1123" class="C1" /><path d="M 320152 988617 l -88 18" class="C1" /><path d="M 318757 11093 l 678 12943" class="C1" /><path d="M 301301 6033 c -4 79 -8 157 -20 384 c -12 226 -31 601 -57 1095 c -18 337 -38 730 -59 1123" class="C1" /><path d="M 257879 970097 l 0 -2606" class="C1" /><path d="M 300954 11092 c -20 11 -40 22 -96 30 c -30 4 -71 8 -117 11 c -48 3 -101 5 -161 7 c -60 1 -126 2 -197 2 c -69 -0 -143 -1 -220 -3 c -143 -3 -297 -10 -451 -17" class="C1" /><path d="M 350101 26068 l 0 947567" class="C1" /><path d="M 450547 26068 c 569 0 1112 -234 1504 -646 c 391 -412 596 -968 566 -1535" class="C1" /><path d="M 448997 988635 l -51 694 l -116 662 l -176 606 l -230 529 l -276 432 l -312 321 l -337 197 l -349 66" class="C1" /><path d="M 132799 7551 l 10 -195" class="C1" /><path d="M 30 24183 c -30 568 175 1123 566 1535 c 391 412 935 646 1504 646" class="C1" /><path d="M 186851 122721 l 2513 0" class="C1" /><path d="M 319898 11069 l 29846 0" class="C1" /><path d="M 151591 11241 l -85 -18" class="C1" /><path d="M 133350 994253 c 64 51 129 102 199 143 c 69 41 143 73 220 98 c 74 24 149 42 226 51 c 72 8 145 8 218 8" class="C1" /><path d="M 183942 142812 l 0 -7403" class="C1" /><path d="M 88845 7108 c -25 156 -50 312 -79 432 c -29 120 -63 204 -98 257 c -25 39 -51 60 -77 61 c -1 0 -2 0 -3 0" class="C1" /><path d="M 257020 10300 l 0 2162" class="C1" /><path d="M 320151 988617 c 1 -0 2 -0 3 -1 c 32 -6 140 -7 257 -7 c 117 0 243 2 384 7 c 141 4 297 12 452 19" class="C1" /><path d="M 299712 11122 c 20 -291 40 -582 59 -857 c 15 -212 29 -414 43 -617" class="C1" /><path d="M 150166 5488 l -16135 0" class="C1" /><path d="M 178586 116901 l 0 25910" class="C1" /><path d="M 102919 973932 l 0 2181" class="C1" /><path d="M 301071 988759 l 85 18" class="C1" /><path d="M 191981 883099 l 0 -2118" class="C1" /><path d="M 451946 11069 l 672 12818" class="C1" /><path d="M 448981 11069 l 336 12818" class="C1" /><path d="M 329320 158 l 45220 0" class="C1" /><path d="M 327530 999546 c 349 -0 901 -278 1487 -750" class="C1" /><path d="M 257020 987538 l 0 -785" class="C1" /><path d="M 152957 988783 l -7 95" class="C1" /><path d="M 151413 972051 l 0 -1954" class="C1" /><path d="M 133906 988907 l 16620 0" class="C1" /><path d="M 183394 864591 l 0 -7403" class="C1" /><path d="M 377384 992143 c -2811 0 -5089 829 -5089 1851" class="C1" /><path d="M 99619 976113 l 10 -419 l 52 -407 l 92 -377 l 128 -332 l 159 -274 l 183 -204 l 200 -126 l 209 -43" class="C1" /><path d="M 449317 23887 l -10 419 l -52 407 l -92 377 l -128 332 l -159 274 l -183 204 l -200 126 l -209 43" class="C1" /><path d="M 187772 124304 l 0 -1583" class="C1" /><path d="M 186851 135676 l 0 -268" class="C1" /><path d="M 330801 898 l 0 5922" class="C1" /><path d="M 133061 26364 l -30158 0" class="C1" /><path d="M 301095 6953 c -79 150 -157 300 -277 436 c -114 130 -264 248 -415 366" class="C1" /><path d="M 99939 11365 l 2964 0" class="C1" /><path d="M 131898 24936 c -1 50 -3 101 -3 149 c -0 144 11 275 40 393 c 34 137 93 256 151 374" class="C1" /><path d="M 379215 7561 c -322 -8 -644 -15 -965 -42 c -594 -48 -1186 -160 -1756 -340 c -391 -123 -772 -279 -1125 -490 c -253 -151 -491 -332 -669 -570 c -61 -82 -115 -171 -139 -269 c -11 -45 -16 -92 -21 -140" class="C1" /><path d="M 99954 988931 l -96273 0" class="C1" /><path d="M 175271 306 c -25 203 -37 410 -37 617" class="C1" /><path d="M 257879 37737 l 0 -5228" class="C1" /><path d="M 151087 24183 l -17977 0" class="C1" /><path d="M 334954 981187 c -252 -30 -504 -60 -738 -148 c -128 -48 -251 -112 -366 -188 c -111 -73 -216 -156 -310 -250 c -97 -97 -184 -205 -259 -320 c -74 -113 -136 -232 -186 -358 c -93 -232 -140 -484 -140 -736 c 0 -252 48 -503 140 -736 c 50 -125 113 -245 186 -358 c 75 -115 161 -223 259 -320 c 94 -94 199 -177 310 -250 c 115 -75 238 -140 365 -188 c 234 -87 486 -117 738 -148" class="C1" /><path d="M 259182 970097 l 0 -2606" class="C1" /><path d="M 350860 7561 l -1116 0" class="C1" /><path d="M 319998 26068 l 29746 0" class="C1" /><path d="M 132952 6183 c -4 68 -7 136 -20 384 c -13 244 -35 662 -57 1080" class="C1" /><path d="M 319940 11093 l -87 -18" class="C1" /><path d="M 193802 115090 c -620 383 -969 1085 -900 1811" class="C1" /><path d="M 257879 37737 l 0 924527" class="C1" /><path d="M 80368 6006 l -463 0" class="C1" /><path d="M 350860 7561 l 349 66 l 337 197 l 312 321 l 276 432 l 230 529 l 176 606 l 116 662 l 51 694" class="C1" /><path d="M 702 11365 l 2964 0" class="C1" /><path d="M 448282 26068 c 322 0 644 -0 924 -0 c 289 0 532 0 735 0 c 202 0 363 0 458 0 c 91 0 120 0 149 0" class="C1" /><path d="M 328950 5710 c 0 295 195 577 542 785 c 347 208 818 325 1309 325" class="C1" /><path d="M 102919 988931 l -2964 0" class="C1" /><path d="M 190285 135676 l -921 0" class="C1" /><path d="M 320736 975817 l -90 19" class="C1" /><path d="M 284896 29903 l -133483 0" class="C1" /><path d="M 278503 306 l 333 0" class="C1" /><path d="M 451961 988635 l 672 -12818" class="C1" /><path d="M 132070 25804 c 16 32 32 63 50 93 c 67 108 170 189 279 255 c 106 65 218 117 336 143 c 110 24 224 26 339 27" class="C1" /><path d="M 132136 975984 l -91 -19" class="C1" /><path d="M 116809 981261 l 1832 0" class="C1" /><path d="M 150284 994660 c 150 -17 300 -33 439 -84 c 139 -51 267 -137 376 -241 c 110 -104 202 -227 260 -363 c 58 -136 83 -285 107 -434" class="C1" /><path d="M 301409 26216 c -395 -24 -789 -48 -1153 -182 c -282 -104 -546 -273 -810 -442" class="C1" /><path d="M 192902 119020 l 0 -2118" class="C1" /><path d="M 327167 997685 l 0 -3692" class="C1" /><path d="M 320667 24970 c 0 80 0 161 -12 240 c -12 75 -34 148 -57 222" class="C1" /><path d="M 151709 988908 c 20 -11 40 -22 96 -30 c 30 -4 71 -8 117 -11 c 48 -3 101 -5 161 -7 c 60 -1 126 -2 197 -2 c 69 0 143 1 220 3 c 143 3 297 10 451 17" class="C1" /><path d="M 319710 993817 c 4 -68 7 -136 20 -384 c 13 -244 35 -662 57 -1080" class="C1" /><path d="M 300961 9330 c -0 0 -0 0 -0 1 c -17 39 -67 69 -117 99 c -51 30 -102 60 -161 85 c -59 26 -126 48 -197 67 c -70 19 -143 34 -220 44 c -143 19 -297 21 -451 22" class="C1" /><path d="M 192902 139378 l -921 0" class="C1" /><path d="M 319913 992865 l 662 -902" class="C1" /><path d="M 189363 877279 l -2513 0" class="C1" /><path d="M 258787 11217 l 40919 0" class="C1" /><path d="M 134031 5488 c -151 16 -302 33 -439 84 c -137 52 -261 139 -376 241 c -116 102 -224 219 -260 363 c -1 2 -1 4 -2 6" class="C1" /><path d="M 193326 864591 l -9931 0" class="C1" /><path d="M 192902 142812 l -921 0" class="C1" /><path d="M 151709 988908 l 7 -127" class="C1" /><path d="M 328950 5710 l 0 -3701" class="C1" /><path d="M 320527 24016 l 91 19" class="C1" /><path d="M 259182 32509 l 0 -2606" class="C1" /><path d="M 78122 994290 l 0 5552" class="C1" /><path d="M 319484 26216 l -18075 0" class="C1" /><path d="M 314240 124615 c 0 1533 -1243 2776 -2776 2776 c -1533 0 -2776 -1243 -2776 -2776 c 0 -1533 1243 -2776 2776 -2776 c 1533 0 2776 1243 2776 2776" class="C1" /><path d="M 374301 265 c 60 -26 121 -51 163 -70 c 43 -19 67 -32 73 -36 c 1 -1 2 -1 2 -1" class="C1" /><path d="M 132605 11241 l -6 124" class="C1" /><path d="M 367881 5710 l 6196 0" class="C1" /><path d="M 177084 1047 c -583 -466 -1131 -740 -1481 -740" class="C1" /><path d="M 299706 11217 c 413 41 829 42 1242 1" class="C1" /><path d="M 321553 974288 c -97 29 -193 59 -286 74 c -100 17 -195 17 -283 6 c -91 -11 -174 -35 -241 -74 c -66 -39 -116 -93 -165 -147" class="C1" /><path d="M 194703 857189 l 0 25910" class="C1" /><path d="M 78585 999060 l 6196 -4770" class="C1" /><path d="M 179290 988783 l -26333 0" class="C1" /><path d="M 102903 24183 l -3300 0" class="C1" /><path d="M 183394 124304 l 0 -7403" class="C1" /><path d="M 451961 988635 l -2964 0" class="C1" /><path d="M 319602 973636 c 398 25 796 51 1160 193 c 277 108 534 284 791 459" class="C1" /><path d="M 301576 975817 l 17977 0" class="C1" /><path d="M 131110 25712 c -102 -117 -205 -234 -274 -378 c -68 -142 -105 -309 -117 -482 c -9 -119 -6 -241 2 -363 c 2 -37 5 -74 8 -111 c 5 -65 10 -129 16 -194" class="C1" /><path d="M 187772 877279 l 0 -1583" class="C1" /><path d="M 80368 640 l 0 5366" class="C1" /><path d="M 143049 33619 c 0 1022 -829 1851 -1851 1851 c -1022 0 -1851 -829 -1851 -1851 c 0 -1022 829 -1851 1851 -1851 c 1022 0 1851 829 1851 1851" class="C1" /><path d="M 277493 20649 c 0 2044 -1657 3701 -3701 3701 c -2044 0 -3701 -1657 -3701 -3701 c 0 -2044 1657 -3701 3701 -3701 c 2044 0 3701 1657 3701 3701" class="C1" /><path d="M 321013 992016 l -9 127" class="C1" /><path d="M 277493 13246 l -118677 0" class="C1" /><path d="M 132966 993537 l 107 431" class="C1" /><path d="M 193326 864591 l 0 11104" class="C1" /><path d="M 353044 23887 l -10 419 l -52 407 l -92 377 l -128 332 l -159 274 l -183 204 l -200 126 l -209 43" class="C1" /><path d="M 151413 979351 c 0 1963 780 3846 2168 5235 c 1388 1388 3271 2168 5235 2168" class="C1" /><path d="M 448997 988635 l -96273 0" class="C1" /><path d="M 133228 975965 l 17977 -0" class="C1" /><path d="M 102903 7857 l 0 3508" class="C1" /><path d="M 119723 979484 c 0 1104 -895 1999 -1999 1999 c -1104 0 -1999 -895 -1999 -1999 c 0 -1104 895 -1999 1999 -1999 c 1104 0 1999 895 1999 1999" class="C1" /><path d="M 132496 7581 c -61 53 -122 107 -190 152 c -66 44 -138 79 -213 108 c -72 28 -146 50 -222 62 c -71 12 -144 15 -217 19" class="C1" /><path d="M 191981 119020 l 0 -2118" class="C1" /><path d="M 173383 7709 c 1022 0 1851 -829 1851 -1851" class="C1" /><path d="M 371119 998796 c 308 240 711 433 1176 564" class="C1" /><path d="M 166219 20649 c 0 2044 -1657 3701 -3701 3701 c -2044 0 -3701 -1657 -3701 -3701 c 0 -2044 1657 -3701 3701 -3701 c 2044 0 3701 1657 3701 3701" class="C1" /><path d="M 5514 7857 c -161 0 -323 0 -462 0 c -139 -0 -257 -0 -355 -0 c -98 0 -176 0 -223 0 c -47 0 -61 0 -76 0" class="C1" /><path d="M 133788 11241 c 19 -461 39 -923 57 -1369 c 17 -395 32 -778 48 -1141 c 25 -584 48 -1116 67 -1577 c 23 -547 42 -994 53 -1255 c 10 -249 14 -330 18 -411" class="C1" /><path d="M 102903 26364 l 0 -2181" class="C1" /><path d="M 313389 875385 c 0 1063 -862 1925 -1925 1925 c -1063 0 -1925 -862 -1925 -1925 c 0 -1063 862 -1925 1925 -1925 c 1063 0 1925 862 1925 1925" class="C1" /><path d="M 3666 11365 l 51 -694 l 116 -662 l 176 -606 l 230 -529 l 276 -432 l 312 -321 l 337 -197 l 349 -66" class="C1" /><path d="M 301257 992291 l -148545 0" class="C1" /><path d="M 277023 6969 l 0 740" class="C1" /><path d="M 151701 990670 c 0 -0 0 -0 0 -1 c 17 -38 67 -69 117 -99 c 51 -31 102 -60 161 -85 c 59 -26 126 -48 197 -67 c 70 -19 143 -34 220 -44 c 143 -19 297 -21 451 -22" class="C1" /><path d="M 319602 973636 l 30158 0" class="C1" /><path d="M 284896 27949 l 0 -7299" class="C1" /><path d="M 79906 6006 c -4 43 -8 85 -17 126 c -19 85 -62 164 -112 237 c -90 134 -203 248 -325 350 c -235 197 -504 352 -784 481 c -429 199 -882 338 -1342 441 c -564 125 -1141 195 -1718 210 c -126 3 -252 4 -378 5" class="C1" /><path d="M 80898 999102 l 40964 0" class="C1" /><path d="M 300821 7389 c -64 55 -128 110 -198 156 c -69 45 -143 82 -221 112 c -74 29 -151 51 -230 64 c -74 12 -149 16 -225 20" class="C1" /><path d="M 192902 883099 c -69 726 280 1428 900 1811" class="C1" /><path d="M 257879 960088 l 1303 0" class="C1" /><path d="M 277493 979351 c 0 2044 -1657 3701 -3701 3701 c -2044 0 -3701 -1657 -3701 -3701 c 0 -2044 1657 -3701 3701 -3701 c 2044 0 3701 1657 3701 3701" class="C1" /><path d="M 143974 875385 c 0 1533 -1243 2776 -2776 2776 c -1533 0 -2776 -1243 -2776 -2776 c 0 -1533 1243 -2776 2776 -2776 c 1533 0 2776 1243 2776 2776" class="C1" /><path d="M 131927 24183 l 90 -19" class="C1" /><path d="M 349744 23887 l 0 -12818" class="C1" /><path d="M 134149 994660 l 16135 0" class="C1" /><path d="M 349744 26068 c 398 0 795 0 1173 0 c 378 0 735 0 1093 0" class="C1" /><path d="M 301409 26216 l -16513 0" class="C1" /><path d="M 152717 992226 l -5 65" class="C1" /><path d="M 352025 973636 l 209 43 l 200 126 l 183 204 l 159 274 l 128 332 l 92 377 l 52 407 l 10 419" class="C1" /><path d="M 330801 7561 l 0 -740" class="C1" /><path d="M 336937 20516 c 0 1104 -895 1999 -1999 1999 c -1104 0 -1999 -895 -1999 -1999 c 0 -1104 895 -1999 1999 -1999 c 1104 0 1999 895 1999 1999" class="C1" /><path d="M 131650 7984 l 9 -127" class="C1" /><path d="M 183394 883099 l 0 -7403" class="C1" /><path d="M 353044 23887 l 96273 0" class="C1" /><path d="M 102562 26364 l 0 947567" class="C1" /><path d="M 301157 988777 c 2 0 4 1 6 1 c 33 6 140 7 257 7 c 116 -0 243 -2 383 -7 c 141 -4 296 -12 452 -19" class="C1" /><path d="M 192902 880980 l -921 0" class="C1" /><path d="M 275579 993031 l 0 -740" class="C1" /><path d="M 125496 2315 c -0 -4 -0 -9 -0 -13 c -1 -617 -72 -1232 -142 -1847" class="C1" /><path d="M 132807 988926 c 26 502 53 1004 78 1489 c 26 485 50 955 71 1346 c 11 201 20 381 30 562" class="C1" /><path d="M 192902 116901 l -921 0" class="C1" /><path d="M 301057 9120 l -96 210" class="C1" /><path d="M 275579 998954 l 0 -5922" class="C1" /><path d="M 299447 25592 c -114 -122 -228 -243 -304 -396 c -37 -75 -65 -157 -87 -243 c -22 -88 -36 -179 -43 -272 c -16 -208 3 -427 21 -645" class="C1" /><path d="M 151413 970097 l 133483 0" class="C1" /><path d="M 88592 992439 l 0 740" class="C1" /><path d="M 319856 11075 c -26 -502 -53 -1004 -78 -1489 c -26 -485 -50 -955 -71 -1346 c -11 -201 -20 -381 -30 -562" class="C1" /><path d="M 179290 986754 l 0 785" class="C1" /><path d="M 364840 993994 c -167 -109 -333 -217 -489 -336 c -159 -122 -306 -254 -418 -408 c -43 -59 -80 -122 -99 -187 c -15 -55 -17 -113 -18 -170" class="C1" /><path d="M 101787 7857 l -96273 0" class="C1" /><path d="M 117709 18813 c 252 30 504 60 738 148 c 128 48 251 113 366 188 c 111 73 216 156 310 250 c 97 97 184 205 259 320 c 74 113 136 232 186 358 c 93 233 140 484 140 736 c -0 252 -48 503 -140 736 c -50 125 -113 245 -186 358 c -75 115 -161 223 -259 320 c -94 94 -199 177 -310 250 c -115 75 -238 140 -365 188 c -234 87 -486 117 -738 148" class="C1" /><path d="M 452633 975817 l -3300 0" class="C1" /><path d="M 123645 1204 l -42101 0" class="C1" /><path d="M 134149 994660 l -9 -206" class="C1" /><path d="M 351123 26068 l 0 947567" class="C1" /><path d="M 299034 24035 l 672 -12818" class="C1" /><path d="M 371119 998796 l -5096 -3974" class="C1" /><path d="M 320647 975849 c 21 -129 42 -258 60 -376 c 17 -108 31 -207 42 -280 c 7 -51 13 -90 18 -129" class="C1" /><path d="M 319885 992047 c 25 -477 50 -954 79 -1505 c 29 -547 61 -1165 93 -1784" class="C1" /><path d="M 301113 988783 l -42325 0" class="C1" /><path d="M 301539 973674 c -114 2 -228 4 -339 27 c -118 26 -231 77 -335 143 c -107 69 -204 154 -279 256 c -73 100 -126 215 -178 330" class="C1" /><path d="M 121862 993179 l -33270 0" class="C1" /><path d="M 319853 11075 c -1 -0 -2 -1 -4 -1 c -32 -6 -140 -7 -257 -7 c -117 0 -243 2 -383 7 c -141 4 -296 12 -452 19" class="C1" /><path d="M 175640 993031 l 0 -740" class="C1" /><path d="M 151568 993047 c 79 -150 157 -300 277 -436 c 114 -130 264 -248 415 -366" class="C1" /><path d="M 191981 142812 l 0 -3434" class="C1" /><path d="M 125133 454 l 221 0" class="C1" /><path d="M 193326 124304 l 1377 0" class="C1" /><path d="M 449317 23887 l 3300 0" class="C1" /><path d="M 179290 987538 l 77730 0" class="C1" /><path d="M 319697 6463 l -107 -431" class="C1" /><path d="M 151413 973866 l -172 -41" class="C1" /><path d="M 132605 11241 c 18 -7 36 -14 90 -19 c 54 -5 146 -7 256 -7 c 111 -0 241 2 384 7 c 143 5 298 12 453 19" class="C1" /><path d="M 366023 994822 l 0 -829" class="C1" /><path d="M 257879 32509 l 1303 0" class="C1" /><path d="M 277023 6969 l 0 -5922" class="C1" /><path d="M 194703 29903 l 0 86999" class="C1" /><path d="M 125564 992439 c -1022 0 -1851 829 -1851 1851" class="C1" /><path d="M 284896 20649 c 0 -4088 -3314 -7403 -7403 -7403" class="C1" /><path d="M 320736 975817 l 87 -18" class="C1" /><path d="M 133228 975965 c -154 7 -308 14 -452 19 c -144 5 -278 7 -383 7 c -105 -0 -181 -3 -257 -6" class="C1" /><path d="M 2115 973932 c -569 0 -1112 234 -1504 646 c -391 412 -596 968 -566 1535" class="C1" /><path d="M 335854 18739 l -1832 0" class="C1" /><path d="M 183942 864591 l 0 -7403" class="C1" /><path d="M 374078 5710 l 0 -4770" class="C1" /><path d="M 151205 975965 l 209 9" class="C1" /><path d="M 277023 1047 l -99939 0" class="C1" /><path d="M 321247 988635 c -19 282 -39 563 -57 836 c -17 241 -33 475 -48 696 c -25 355 -47 675 -67 961 c -24 339 -43 629 -53 765 c -4 64 -7 94 -9 123" class="C1" /><path d="M 174159 999694 c 350 0 898 -274 1481 -740" class="C1" /><path d="M 275579 993031 l -99939 0" class="C1" /><path d="M 240297 500000 c 0 7666 -6214 13880 -13880 13880 c -7666 0 -13880 -6214 -13880 -13880 c 0 -7666 6214 -13880 13880 -13880 c 7666 0 13880 6214 13880 13880" class="C1" /><path d="M 132994 992503 c 24 462 48 923 57 1080 c 1 24 2 40 3 57" class="C1" /><path d="M 319677 7678 c -10 -186 -20 -372 -28 -531 c -17 -327 -28 -539 -40 -751" class="C1" /><path d="M 320593 974196 c -16 -32 -32 -63 -50 -93 c -67 -108 -170 -189 -279 -256 c -106 -65 -218 -117 -336 -143 c -110 -24 -224 -26 -339 -27" class="C1" /><path d="M 330801 6821 l 33270 0" class="C1" /><path d="M 327167 993994 c 0 -1022 -829 -1851 -1851 -1851" class="C1" /><path d="M 150526 988907 c -19 462 -39 923 -57 1369 c -17 395 -32 778 -48 1141 c -25 583 -48 1115 -67 1576 c -23 547 -42 994 -53 1255 c -10 249 -14 330 -18 411" class="C1" /><path d="M 319940 11093 l 678 12942" class="C1" /><path d="M 327530 999546 l -221 0" class="C1" /><path d="M 133179 973784 l 2 79" class="C1" /><path d="M 132831 992439 l -29912 0" class="C1" /><path d="M 151715 988782 l 339 -6464" class="C1" /><path d="M 86640 5178 l 0 829" class="C1" /><path d="M 319472 26175 c 114 -2 229 -3 339 -27 c 118 -25 231 -76 335 -143 c 107 -68 204 -153 279 -255 c 73 -99 126 -214 178 -330" class="C1" /><path d="M 183394 883099 l 548 0" class="C1" /><path d="M 194703 142812 l -104 737 l -295 624 l -442 417 l -521 147 l -521 -147 l -442 -417 l -295 -624 l -104 -737" class="C1" /><path d="M 299946 7774 l 5 -65" class="C1" /><path d="M 302254 988759 l -678 -12942" class="C1" /><path d="M 186851 864591 l 0 -268" class="C1" /><path d="M 192902 119020 l -921 0" class="C1" /><path d="M 321919 975817 l 27841 0" class="C1" /><path d="M 302497 994512 c -4 -81 -7 -162 -18 -411 c -11 -262 -29 -709 -53 -1255 c -20 -461 -43 -993 -67 -1577 c -15 -363 -31 -746 -48 -1141 c -19 -446 -38 -907 -57 -1369" class="C1" /><path d="M 192902 139378 c 245 -1732 -903 -3355 -2617 -3701" class="C1" /><path d="M 3681 988931 l -2964 0" class="C1" /><path d="M 80368 6006 l 6272 0" class="C1" /><path d="M 349760 973636 c 398 0 795 0 1173 0 c 378 0 735 0 1093 0" class="C1" /><path d="M 257879 12462 l 1303 0" class="C1" /><path d="M 5529 992439 l -1116 0" class="C1" /><path d="M 259182 32509 l 0 7403" class="C1" /><path d="M 257020 987538 l 0 2162" class="C1" /><path d="M 189363 122721 c 1715 -346 2862 -1969 2617 -3701" class="C1" /><path d="M 257879 32509 l 0 -2606" class="C1" /><path d="M 319787 992354 c 0 -5 1 -10 1 -15 c 19 -367 52 -1001 86 -1647 c 34 -646 68 -1304 103 -1963" class="C1" /><path d="M 78361 999735 c 752 -122 1635 -342 2537 -633" class="C1" /><path d="M 102903 26364 c -398 0 -795 0 -1173 0 c -378 0 -735 0 -1093 0" class="C1" /><path d="M 448417 26068 l 0 947567" class="C1" /><path d="M 321004 992143 l 28755 0" class="C1" /><path d="M 301342 992354 c 22 418 44 836 57 1080 c 13 247 17 316 20 384" class="C1" /><path d="M 132841 6735 l -11 214" class="C1" /><path d="M 327099 7561 c 1022 0 1851 -829 1851 -1851" class="C1" /><path d="M 177084 6969 l 99939 0" class="C1" /><path d="M 300344 974882 c -0 -80 -0 -160 12 -238 c 11 -75 34 -149 57 -222" class="C1" /><path d="M 123343 999842 l -45220 0" class="C1" /><path d="M 192902 860622 l 0 -3434" class="C1" /><path d="M 194703 142812 l 0 714377" class="C1" /><path d="M 151510 11271 c -34 -658 -69 -1317 -103 -1963 c -34 -646 -67 -1280 -86 -1647 c -0 -5 -1 -10 -1 -15" class="C1" /><path d="M 301526 973635 l 17645 -0" class="C1" /><path d="M 101540 26364 l 0 947567" class="C1" /><path d="M 275579 998953 c 583 466 1131 740 1481 740" class="C1" /><path d="M 100638 26364 l -96273 0" class="C1" /><path d="M 349760 988635 l -28513 0" class="C1" /><path d="M 277023 6969 c 1022 0 1851 -497 1851 -1110" class="C1" /><path d="M 151591 11241 l 349 6665" class="C1" /><path d="M 350860 7561 l 96273 0" class="C1" /><path d="M 102919 976113 l 0 12818" class="C1" /><path d="M 175640 993031 l 0 5922" class="C1" /><path d="M 116826 22589 l 1765 0" class="C1" /><path d="M 152950 988878 c -20 291 -40 582 -59 857 c -15 212 -29 414 -43 617" class="C1" /><path d="M 319821 993265 l 11 -214" class="C1" /><path d="M 349760 973636 l 0 2181" class="C1" /><path d="M 192902 883099 l -921 0" class="C1" /><path d="M 179632 970097 l 0 -86999" class="C1" /><path d="M 448981 11069 l 2964 0" class="C1" /><path d="M 349760 975817 l 0 12818" class="C1" /><path d="M 302136 11093 c 19 -462 39 -923 57 -1369 c 17 -395 32 -778 48 -1141 c 25 -583 48 -1115 67 -1576 c 23 -547 42 -994 53 -1255 c 10 -249 14 -330 18 -411" class="C1" /><path d="M 451946 11069 c -103 -1966 -1727 -3508 -3696 -3508" class="C1" /><path d="M 448265 992143 c 1969 0 3593 -1541 3696 -3508" class="C1" /><path d="M 191981 860622 l 0 -3434" class="C1" /><path d="M 272296 24035 l 2992 0" class="C1" /><path d="M 4245 26364 l 0 947567" class="C1" /><path d="M 284896 973784 l 16112 0" class="C1" /><path d="M 183394 142812 l 0 -7403" class="C1" /><path d="M 193326 124304 l 0 11104" class="C1" /><path d="M 131927 24183 l -87 18" class="C1" /><path d="M 150526 988907 l 678 -12943" class="C1" /><path d="M 3681 988931 l -336 -12818" class="C1" /><path d="M 319313 5747 c -64 -51 -129 -102 -199 -143 c -69 -41 -143 -73 -220 -98 c -74 -24 -149 -42 -226 -51 c -72 -8 -145 -8 -218 -8" class="C1" /><path d="M 190285 877279 l -921 0" class="C1" /><path d="M 193326 124304 l -9931 0" class="C1" /><path d="M 448298 973636 c 322 0 644 0 924 0 c 289 0 532 0 735 -0 c 202 0 363 0 458 0 c 91 0 120 0 149 0" class="C1" /><path d="M 194703 875696 l -1377 0" class="C1" /><path d="M 99939 11365 l 51 -694 l 116 -662 l 176 -606 l 230 -529 l 276 -432 l 312 -321 l 337 -197 l 349 -66" class="C1" /><path d="M 300954 11092 c 21 -7 42 -14 98 -18 c 56 -4 148 -6 258 -6 c 110 0 239 2 380 7 c 141 5 294 12 446 19" class="C1" /><path d="M 319553 975817 c 4 -178 8 -357 12 -531 c 3 -149 7 -295 10 -435 c 5 -209 9 -404 13 -570 c 2 -106 4 -199 6 -285 c 2 -83 4 -157 5 -203 c 1 -44 1 -61 2 -79" class="C1" /><path d="M 190285 864324 c 1715 -346 2862 -1969 2617 -3701" class="C1" /><path d="M 192902 880980 c 245 -1732 -903 -3355 -2617 -3701" class="C1" /><path d="M 3345 976113 l -3300 0" class="C1" /><path d="M 4380 973932 c -322 0 -644 -0 -924 -0 c -289 0 -532 0 -735 0 c -202 0 -363 0 -458 0 c -91 0 -120 0 -149 0" class="C1" /><path d="M 83856 992439 l 181 36 l 174 105 l 160 171 l 140 230 l 115 280 l 86 320 l 53 347 l 18 361" class="C1" /><path d="M 132841 6735 l -105 426" class="C1" /></g></svg>