<?xml version='1.0' encoding='utf-8'?>
<svg xmlns="http://www.w3.org/2000/svg" width="219.5mm" height="32.8mm" viewBox="0 0 1000000 149431"><defs><style>.C1 {stroke: #ff00ff; stroke-width: 1139; stroke-opacity: 1.000; fill: none; fill-opacity: 1.000;}</style><style>.C2 {stroke: #ffffff; stroke-width: 1139; stroke-opacity: 1.000; fill: none; fill-opacity: 1.000;}</style><style>.C3 {stroke: #ffff00; stroke-width: 1139; stroke-opacity: 1.000; fill: none; fill-opacity: 1.000;}</style><style>.C4 {stroke: #ff0000; stroke-width: 1139; stroke-opacity: 1.000; fill: none; fill-opacity: 1.000;}</style><style>.C5 {stroke: #bf7fff; stroke-width: 1139; stroke-opacity: 1.000; fill: none; fill-opacity: 1.000;}</style><style>.C6 {stroke: #00ff00; stroke-width: 1139; stroke-opacity: 1.000; fill: none; fill-opacity: 1.000;}</style></defs><g stroke-linecap="round" stroke-linejoin="round" fill-rule="evenodd"><path d="M 905659 126103 l -387 -341" class="C1" /><path d="M 646212 16293 l 273102 0" class="C2" /><path d="M 675229 39621 l 0 13655" class="C2" /><path d="M 645939 112732 c 151 0 273 -122 273 -273" class="C2" /><path d="M 905932 52991 l 13382 0" class="C2" /><path d="M 925994 46448 l -305321 0" class="C3" /><path d="M 646212 126103 l 259447 0" class="C2" /><path d="M 905659 112448 l -387 341" class="C1" /><path d="M 923866 39621 l -18207 0" class="C1" /><path d="M 999538 149431 l -60310 -60310" class="C1" /><path d="M 882423 119275 l 41443 0" class="C3" /><path d="M 905659 37390 l 0 18116" class="C1" /><path d="M 900295 46448 l 23571 0" class="C3" /><path d="M 646212 55210 l 21621 0" class="C2" /><path d="M 892004 112789 l 0 12972" class="C1" /><path d="M 975073 124965 l 0 -84207" class="C1" /><path d="M 667833 37686 l 0 17524" class="C2" /><path d="M 905659 149431 l -273102 0" class="C2" /><path d="M 939228 76603 l -33569 0" class="C1" /><path d="M 905659 89120 l 0 60310" class="C2" /><path d="M 646212 76603 l 273102 0" class="C2" /><path d="M 905659 39621 l 0 13655" class="C2" /><path d="M 975073 124965 l -69414 0" class="C1" /><path d="M 646212 52138 l 273102 0" class="C2" /><path d="M 646212 112448 l 0 11" class="C2" /><path d="M 905659 89120 l 0 60310" class="C1" /><path d="M 667833 55210 l 7397 -1934" class="C2" /><path d="M 905272 112789 l -13268 0" class="C1" /><path d="M 118214 46448 l 553109 0" class="C3" /><path d="M 118214 40759 l 546205 0" class="C4" /><path d="M 118214 52138 l 546205 0" class="C4" /><path d="M 118214 16293 l 546205 0" class="C4" /><path d="M 118214 76603 l 546205 0" class="C4" /><path d="M 118214 55506 l 527998 0" class="C4" /><path d="M 664419 76603 l 0 -60310" class="C4" /><path d="M 118214 76603 l 0 -60310" class="C4" /><path d="M 646599 55119 l 17820 0" class="C4" /><path d="M 646599 37777 l 17820 0" class="C4" /><path d="M 118214 37390 l 527998 0" class="C4" /><path d="M 646212 37390 l 0 18116" class="C4" /><path d="M 646599 37777 l 0 17342" class="C4" /><path d="M 646599 37777 l -387 -387" class="C4" /><path d="M 646599 55119 l -387 387" class="C4" /><path d="M 664419 55119 l 0 -17342" class="C4" /><path d="M 118214 55506 l 0 -18116" class="C4" /><path d="M 963693 113586 l 0 -61448" class="C1" /><path d="M 905659 113586 l -273102 0" class="C2" /><path d="M 905272 125762 l -13268 0" class="C1" /><path d="M 905659 89120 l -273102 0" class="C2" /><path d="M 646212 37686 l 0 17524" class="C2" /><path d="M 923866 53276 l -18207 0" class="C1" /><path d="M 905659 124965 l -273102 0" class="C2" /><path d="M 646212 126103 l 0 -13655" class="C2" /><path d="M 975073 40759 l -69414 0" class="C1" /><path d="M 6527 46448 l 131991 0" class="C3" /><path d="M 63490 31060 c 181 -53 306 -219 306 -408" class="C5" /><path d="M 63796 25409 c 0 -189 -125 -355 -306 -408" class="C5" /><path d="M 83122 30652 c 0 161 91 308 234 380 c 144 72 316 57 445 -39" class="C5" /><path d="M 83801 25069 c -129 -96 -301 -111 -445 -39 c -144 72 -234 219 -234 380" class="C5" /><path d="M 63938 30439 c -78 0 -142 63 -142 142" class="C5" /><path d="M 63796 25480 c 0 78 63 142 142 142" class="C5" /><path d="M 83122 30581 c 0 -78 -63 -142 -142 -142" class="C5" /><path d="M 82980 25622 c 78 0 142 -63 142 -142" class="C5" /><path d="M 79155 30439 l 3825 0" class="C5" /><path d="M 82980 25622 l -3825 0" class="C5" /><path d="M 63938 30439 l 3825 0" class="C5" /><path d="M 67764 25622 l -3825 0" class="C5" /><path d="M 67764 30156 l 11391 0" class="C5" /><path d="M 79155 25905 l -11391 0" class="C5" /><path d="M 14347 50275 l 164 0" class="C5" /><path d="M 14511 42624 l -164 0" class="C5" /><path d="M 13638 49986 l 425 0" class="C5" /><path d="M 14063 42913 l -425 0" class="C5" /><path d="M 14063 49566 l 283 0" class="C5" /><path d="M 14347 43332 l -283 0" class="C5" /><path d="M 13638 49235 c 0 -59 -37 -113 -93 -133" class="C5" /><path d="M 13545 43797 c 56 -20 93 -74 93 -133" class="C5" /><path d="M 13545 43797 l -1584 581" class="C5" /><path d="M 11962 48521 l 1584 581" class="C5" /><path d="M 11962 48521 c -16 -6 -32 -9 -49 -9" class="C5" /><path d="M 11913 44386 c 17 0 33 -3 49 -9" class="C5" /><path d="M 10238 48512 l 1675 0" class="C5" /><path d="M 11913 44386 l -1675 0" class="C5" /><path d="M 10238 44522 l -2267 0" class="C5" /><path d="M 7971 48376 l 2267 0" class="C5" /><path d="M 4429 44537 l -3400 0" class="C5" /><path d="M 1029 48362 l 3400 0" class="C5" /><path d="M 1029 44537 l -567 567" class="C5" /><path d="M 462 47795 l 567 567" class="C5" /><path d="M 10805 17688 l 567 0" class="C5" /><path d="M 11371 14004 l -567 0" class="C5" /><path d="M 10238 17121 c 0 313 254 567 567 567" class="C5" /><path d="M 10805 14004 c -313 0 -567 254 -567 567" class="C5" /><path d="M 13355 17405 l 850 0" class="C5" /><path d="M 14205 14288 l -850 0" class="C5" /><path d="M 14511 13721 l -23 0" class="C5" /><path d="M 14489 17971 l 23 0" class="C5" /><path d="M 6214 60385 c -125 0 -227 101 -227 227" class="C5" /><path d="M 5988 78011 c 0 125 101 227 227 227" class="C5" /><path d="M 6214 78237 l 6574 0" class="C5" /><path d="M 12788 60385 l -6574 0" class="C5" /><path d="M 13287 59813 l -499 0" class="C5" /><path d="M 12788 78810 l 492 0" class="C5" /><path d="M 63490 37002 c 215 268 540 424 884 424" class="C5" /><path d="M 64375 55471 c -308 0 -603 125 -816 347" class="C5" /><path d="M 83972 37426 l -19598 0" class="C6" /><path d="M 118214 37426 l -13840 0" class="C6" /><path d="M 64375 55471 l 53840 0" class="C6" /><path d="M 118214 55471 l 385 -385" class="C6" /><path d="M 118599 37811 l -385 -385" class="C6" /><path d="M 136349 37811 l -17750 0" class="C6" /><path d="M 118599 55085 l 17750 0" class="C6" /><path d="M 63490 83409 l 0 -10857" class="C5" /><path d="M 14511 72552 l 0 10857" class="C5" /><path d="M 14511 899 l 0 10857" class="C5" /><path d="M 63490 11755 l 0 -10857" class="C5" /><path d="M 14511 59478 l -17 0" class="C5" /><path d="M 64091 36297 l -295 0" class="C5" /><path d="M 64091 36297 l 0 720" class="C5" /><path d="M 64091 37017 l -588 0" class="C5" /><path d="M 64091 35440 l -295 0" class="C5" /><path d="M 64091 35440 l 0 857" class="C5" /><path d="M 64091 35303 l -295 0" class="C5" /><path d="M 64091 35303 l 0 137" class="C5" /><path d="M 64091 57674 l -601 0" class="C5" /><path d="M 64091 57655 l 0 19" class="C5" /><path d="M 63796 35431 l -306 0" class="C5" /><path d="M 63796 35431 l 0 862" class="C5" /><path d="M 63796 36293 l -306 0" class="C5" /><path d="M 63796 37004 l -306 0" class="C5" /><path d="M 63796 36293 l 0 712" class="C5" /><path d="M 63796 35280 l -306 0" class="C5" /><path d="M 63796 35280 l 0 150" class="C5" /><path d="M 64091 56330 l -601 0" class="C5" /><path d="M 64091 56330 l 0 919" class="C5" /><path d="M 64091 57249 l -601 0" class="C5" /><path d="M 64091 55818 l -601 0" class="C5" /><path d="M 64091 55818 l 0 513" class="C5" /><path d="M 64091 57655 l -601 0" class="C5" /><path d="M 64091 57249 l 0 406" class="C5" /><path d="M 64091 46025 l -601 0" class="C5" /><path d="M 64091 46025 l 0 919" class="C5" /><path d="M 64091 46944 l -601 0" class="C5" /><path d="M 64091 45512 l -601 0" class="C5" /><path d="M 64091 45512 l 0 513" class="C5" /><path d="M 64091 47350 l -601 0" class="C5" /><path d="M 64091 46944 l 0 406" class="C5" /><path d="M 83801 29257 l 20827 0" class="C5" /><path d="M 83801 29257 l 0 -6801" class="C5" /><path d="M 83801 22456 l 20827 0" class="C5" /><path d="M 104628 29257 l 0 -6801" class="C5" /><path d="M 83801 31524 l 0 -2267" class="C5" /><path d="M 104628 31524 l 0 -2267" class="C5" /><path d="M 83801 31524 l 20827 0" class="C5" /><path d="M 104438 37426 l 0 -5902" class="C5" /><path d="M 104628 37426 l 0 -5902" class="C5" /><path d="M 83801 37426 l 0 -5902" class="C5" /><path d="M 83972 46449 l 20402 0" class="C5" /><path d="M 83972 46449 l 0 -14735" class="C5" /><path d="M 83972 31714 l 20402 0" class="C5" /><path d="M 104374 46449 l 0 -14735" class="C5" /><path d="M 104184 31714 l 0 -190" class="C5" /><path d="M 84163 31524 l 0 190" class="C5" /><path d="M 104374 31714 l 0 -190" class="C5" /><path d="M 83972 31714 l 0 -190" class="C5" /><path d="M 63796 28031 l 0 -2621" class="C5" /><path d="M 63796 30652 l 0 -2621" class="C5" /><path d="M 83122 28031 l 0 -2621" class="C5" /><path d="M 83122 30652 l 0 -2621" class="C5" /><path d="M 79155 28031 l 0 -2409" class="C5" /><path d="M 79155 30439 l 0 -2409" class="C5" /><path d="M 67764 28031 l 0 -2409" class="C5" /><path d="M 67764 30439 l 0 -2409" class="C5" /><path d="M 14347 50275 l 0 -7651" class="C5" /><path d="M 13638 49986 l 0 -7073" class="C5" /><path d="M 14063 49986 l 0 -7073" class="C5" /><path d="M 4429 46520 l 3542 0" class="C5" /><path d="M 4429 46520 l 0 -142" class="C5" /><path d="M 4429 46379 l 3542 0" class="C5" /><path d="M 7971 46520 l 0 -142" class="C5" /><path d="M 4429 44434 l 3542 0" class="C5" /><path d="M 4429 46379 l 0 -1944" class="C5" /><path d="M 7971 46379 l 0 -1944" class="C5" /><path d="M 4429 48464 l 3542 0" class="C5" /><path d="M 4429 48464 l 0 -1944" class="C5" /><path d="M 7971 48464 l 0 -1944" class="C5" /><path d="M 10238 48512 l 0 -4126" class="C5" /><path d="M 1029 44537 l 0 3825" class="C5" /><path d="M 462 47795 l 0 -2692" class="C5" /><path d="M 4429 48535 l 3542 0" class="C5" /><path d="M 4429 48535 l 0 -71" class="C5" /><path d="M 7971 48535 l 0 -71" class="C5" /><path d="M 4429 44363 l 3542 0" class="C5" /><path d="M 4429 44434 l 0 -71" class="C5" /><path d="M 7971 44434 l 0 -71" class="C5" /><path d="M 14466 15969 l -261 0" class="C5" /><path d="M 14511 17595 l -306 0" class="C5" /><path d="M 14205 15969 l 0 1626" class="C5" /><path d="M 13355 15969 l -1984 0" class="C5" /><path d="M 13355 15969 l 0 1626" class="C5" /><path d="M 13355 17595 l -1984 0" class="C5" /><path d="M 11371 15969 l 0 1626" class="C5" /><path d="M 13355 15723 l -1984 0" class="C5" /><path d="M 11371 15723 l 0 245" class="C5" /><path d="M 13355 15723 l 0 245" class="C5" /><path d="M 14466 15723 l -261 0" class="C5" /><path d="M 14205 15723 l 0 245" class="C5" /><path d="M 13355 14098 l -1984 0" class="C5" /><path d="M 11371 14098 l 0 1626" class="C5" /><path d="M 13355 14098 l 0 1626" class="C5" /><path d="M 14511 14098 l -306 0" class="C5" /><path d="M 14205 14098 l 0 1626" class="C5" /><path d="M 10238 15846 l 0 -1275" class="C5" /><path d="M 10238 17121 l 0 -1275" class="C5" /><path d="M 14511 17717 l -306 0" class="C5" /><path d="M 14205 17595 l 0 123" class="C5" /><path d="M 13355 17717 l -1984 0" class="C5" /><path d="M 11371 17595 l 0 123" class="C5" /><path d="M 13355 17595 l 0 123" class="C5" /><path d="M 14511 13975 l -306 0" class="C5" /><path d="M 14205 13975 l 0 123" class="C5" /><path d="M 13355 13975 l -1984 0" class="C5" /><path d="M 11371 13975 l 0 123" class="C5" /><path d="M 13355 13975 l 0 123" class="C5" /><path d="M 14511 61984 l -1723 0" class="C5" /><path d="M 14511 76654 l -1723 0" class="C5" /><path d="M 12788 76654 l 0 -14670" class="C5" /><path d="M 5988 78011 l 0 -17399" class="C5" /><path d="M 12788 61984 l 1700 -2073" class="C5" /><path d="M 14511 59911 l -23 0" class="C5" /><path d="M 12788 60421 l 1700 -2073" class="C5" /><path d="M 14489 58348 l 0 213" class="C5" /><path d="M 14489 58561 l -1593 1939" class="C5" /><path d="M 12896 61639 c 64 -377 64 -762 -1 -1138" class="C5" /><path d="M 12896 61639 l 1592 -1941" class="C5" /><path d="M 14489 59698 l 0 213" class="C5" /><path d="M 12788 60421 l 0 1562" class="C5" /><path d="M 14511 58561 l -23 0" class="C5" /><path d="M 14511 58348 l -23 0" class="C5" /><path d="M 14511 59698 l -23 0" class="C5" /><path d="M 14489 80073 l 0 212" class="C5" /><path d="M 14489 78942 l -1593 -1948" class="C5" /><path d="M 12896 78129 c 64 -375 64 -759 -1 -1134" class="C5" /><path d="M 12896 78129 l 1592 1944" class="C5" /><path d="M 12788 78209 l 1700 2076" class="C5" /><path d="M 13823 78129 l -927 0" class="C5" /><path d="M 13830 60501 l -934 0" class="C5" /><path d="M 12788 60422 l 0 -609" class="C5" /><path d="M 12788 78810 l 0 -601" class="C5" /><path d="M 118214 37426 l 0 18045" class="C6" /><path d="M 118599 37811 l 0 17274" class="C6" /><path d="M 136349 37811 l 0 17274" class="C6" /><path d="M 14511 72090 l 0 -20144" class="C5" /><path d="M 15218 73052 l 0 -962" class="C5" /><path d="M 14511 72552 c 66 328 376 547 707 500" class="C5" /><path d="M 14511 72552 c 0 -8 0 -15 0 -23 c 0 -8 0 -16 0 -24 c 0 -8 0 -17 0 -25 c -0 -9 -0 -17 0 -26 c 0 -9 0 -18 0 -27 c 0 -9 0 -18 0 -28 c 0 -9 -0 -19 -0 -29 c 0 -10 0 -20 0 -30 c 0 -20 0 -40 0 -61 c 0 -20 -0 -41 -0 -62 c 0 -21 0 -42 0 -63 c 0 -21 -0 -43 -0 -64" class="C5" /><path d="M 62783 73052 l 0 -962" class="C5" /><path d="M 15218 73052 l 47565 0" class="C5" /><path d="M 63490 72090 c 0 -6397 0 -12794 0 -20144" class="C5" /><path d="M 63490 72552 c -0 -7 -0 -14 -0 -21 c 0 -7 0 -15 -0 -22 c -0 -7 -0 -15 -0 -23 c -0 -8 -0 -16 -0 -24 c -0 -8 -0 -16 -0 -24 c -0 -5 0 -11 0 -17 c 0 -15 0 -31 0 -47 c 0 -11 0 -22 0 -33 c -0 -12 -0 -23 -0 -35 c -0 -17 -0 -35 -0 -52 c -0 -18 -0 -36 -0 -54 c 0 -18 0 -36 0 -54 c 0 -18 0 -37 0 -55" class="C5" /><path d="M 62783 73052 c 331 47 641 -172 707 -500" class="C5" /><path d="M 63490 83409 l 0 -10857" class="C5" /><path d="M 14511 83409 l 0 -10857" class="C5" /><path d="M 63490 83600 c -0 -0 -0 -0 -0 -1 c 0 -0 0 -1 -0 -2 c -0 -1 -0 -2 -0 -3 c -0 -1 -0 -3 -0 -5 c -0 -2 -0 -4 -0 -6 c -0 -1 0 -3 0 -5 c 0 -5 0 -10 0 -16 c 0 -4 0 -8 0 -13 c -0 -5 -0 -10 -0 -15 c -0 -8 -0 -17 -0 -26 c -0 -9 -0 -19 -0 -30 c 0 -11 0 -22 0 -34 c 0 -12 0 -25 0 -37" class="C5" /><path d="M 14511 83600 c 0 -0 0 -0 0 -1 c 0 -0 0 -1 0 -2 c -0 -1 -0 -2 0 -4 c 0 -2 0 -3 0 -5 c -0 -2 -0 -4 0 -7 c 0 -3 0 -5 0 -9 c -0 -3 -0 -6 -0 -10 c 0 -4 0 -8 0 -12 c 0 -8 0 -17 0 -27 c 0 -10 0 -21 0 -33 c 0 -12 0 -24 0 -38 c -0 -14 -0 -29 -0 -43" class="C5" /><path d="M 14511 83600 c -0 188 75 367 207 500 c 133 133 313 207 500 207" class="C5" /><path d="M 62783 84307 l -47565 0" class="C5" /><path d="M 62783 84307 c 391 0 707 -317 707 -707" class="C5" /><path d="M 63490 12217 l 0 19192" class="C5" /><path d="M 62783 11255 l 0 962" class="C5" /><path d="M 63490 11755 c -66 -328 -376 -547 -707 -500" class="C5" /><path d="M 63490 11755 c 0 67 0 135 0 212 c 0 77 0 163 0 250" class="C5" /><path d="M 15218 11255 l 0 962" class="C5" /><path d="M 62783 11255 l -47565 0" class="C5" /><path d="M 14511 12217 c -0 800 -0 1599 0 2399 c 0 800 0 1599 0 2399 c 0 800 0 1599 0 2399 c -0 800 -0 1599 0 2399 c 0 800 0 1599 0 2399 c -0 800 0 1599 0 2399 c 0 800 0 1599 0 2399 c 0 800 0 1599 0 2399" class="C5" /><path d="M 14511 11755 c 0 67 0 135 0 211 c 0 77 0 164 0 250" class="C5" /><path d="M 15218 11255 c -331 -47 -641 172 -707 500" class="C5" /><path d="M 14511 899 l 0 10857" class="C5" /><path d="M 63490 899 l 0 10857" class="C5" /><path d="M 14511 707 c 0 9 0 18 0 49 c 0 32 0 87 0 142" class="C5" /><path d="M 63490 707 c 0 9 0 18 0 50 c 0 32 0 87 0 142" class="C5" /><path d="M 15218 0 l 47565 0" class="C5" /><path d="M 63490 707 c 0 -188 -75 -367 -207 -500 c -133 -133 -313 -207 -500 -207" class="C5" /><path d="M 15218 0 c -391 0 -707 317 -707 707" class="C5" /><path d="M 17692 54658 l 0 -2712" class="C5" /><path d="M 17692 31408 l 0 -1760" class="C5" /><path d="M 17760 42377 l 0 -314" class="C5" /><path d="M 17760 42063 l 0 -133" class="C5" /><path d="M 17760 41930 c -13 -108 -36 -216 -68 -324" class="C5" /><path d="M 17692 41607 l 0 -10198" class="C5" /><path d="M 17692 51947 l 0 -9246" class="C5" /><path d="M 17692 42700 c 32 -108 55 -216 68 -324" class="C5" /><path d="M 60242 41930 l 0 133" class="C5" /><path d="M 60242 42063 l 0 314" class="C5" /><path d="M 60242 42377 c 13 108 36 216 68 324" class="C5" /><path d="M 60310 42700 l 0 9246" class="C5" /><path d="M 60310 31408 l 0 10198" class="C5" /><path d="M 60310 41607 c -32 108 -55 216 -68 324" class="C5" /><path d="M 60310 29649 l 0 1760" class="C5" /><path d="M 60310 51947 l 0 2712" class="C5" /><path d="M 18603 28963 l 40795 0" class="C5" /><path d="M 18603 55344 l 40795 0" class="C5" /><path d="M 59398 55344 c 536 -0 911 -283 911 -686" class="C5" /><path d="M 60310 29649 c 0 -403 -376 -686 -911 -686" class="C5" /><path d="M 17692 54658 c 0 403 376 686 911 686" class="C5" /><path d="M 18603 28963 c -536 0 -911 283 -911 686" class="C5" /><path d="M 62783 31408 l 0 20538" class="C5" /><path d="M 15218 51947 l 0 -20538" class="C5" /><path d="M 63490 51947 l 0 -20538" class="C5" /><path d="M 14511 31408 l 0 20538" class="C5" /><path d="M 63490 60795 l 45 0" class="C5" /><path d="M 63536 60424 l -45 0" class="C5" /><path d="M 63536 60424 l 0 371" class="C5" /><path d="M 63536 61022 l -45 0" class="C5" /><path d="M 63536 61022 l 0 370" class="C5" /><path d="M 63490 61392 l 45 0" class="C5" /><path d="M 63490 61020 l 45 0" class="C5" /><path d="M 63536 61022 l 0 -2" class="C5" /><path d="M 63490 60423 l 45 0" class="C5" /><path d="M 63536 60423 l 0 1" class="C5" /><path d="M 14494 78942 l 0 218" class="C5" /><path d="M 14041 78543 l 122 0" class="C5" /><path d="M 14041 78543 l 0 -149" class="C5" /><path d="M 14494 79037 l -453 0" class="C5" /><path d="M 14041 79037 l 0 -493" class="C5" /><path d="M 14494 59478 l 0 220" class="C5" /><path d="M 14131 59753 l -91 0" class="C5" /><path d="M 14131 59753 l 0 -115" class="C5" /><path d="M 14494 59638 l -363 0" class="C5" /><path d="M 14041 60131 l 93 0" class="C5" /><path d="M 14041 60131 l 0 -377" class="C5" /><path d="M 14041 60243 l 0 -113" class="C5" /><path d="M 14041 59629 l 91 0" class="C5" /><path d="M 14041 59629 l 0 -28" class="C5" /><path d="M 14494 59601 l -453 0" class="C5" /><path d="M 14131 59638 l 0 -9" class="C5" /><path d="M 14041 59629 l 0 124" class="C5" /><path d="M 14511 15487 l -45 0" class="C5" /><path d="M 14511 15864 l -45 0" class="C5" /><path d="M 14466 15864 l 0 -377" class="C5" /><path d="M 14511 16358 l -45 0" class="C5" /><path d="M 14466 16358 l 0 -493" class="C5" /><path d="M 14466 15363 l 45 0" class="C5" /><path d="M 14466 15363 l 0 -28" class="C5" /><path d="M 14511 15335 l -45 0" class="C5" /><path d="M 14466 15363 l 0 124" class="C5" /><path d="M 14511 23421 l -45 0" class="C5" /><path d="M 14511 23798 l -45 0" class="C5" /><path d="M 14466 23798 l 0 -377" class="C5" /><path d="M 14511 24292 l -45 0" class="C5" /><path d="M 14466 24292 l 0 -493" class="C5" /><path d="M 14466 23297 l 45 0" class="C5" /><path d="M 14466 23297 l 0 -28" class="C5" /><path d="M 14511 23269 l -45 0" class="C5" /><path d="M 14466 23297 l 0 124" class="C5" /><path d="M 22566 52332 c 0 326 264 589 589 589" class="C5" /><path d="M 22566 31975 l 0 20357" class="C5" /><path d="M 23155 31386 c -326 0 -589 264 -589 589" class="C5" /><path d="M 54847 31386 l -31692 0" class="C5" /><path d="M 55436 31975 c 0 -326 -264 -589 -589 -589" class="C5" /><path d="M 55436 52355 l 0 -20380" class="C5" /><path d="M 54869 52921 c 313 0 567 -254 567 -567" class="C5" /><path d="M 23155 52921 l 31714 0" class="C5" /><path d="M 63938 28031 l 0 -2409" class="C5" /><path d="M 63938 30439 l 0 -2409" class="C5" /><path d="M 82980 28031 l 0 -2409" class="C5" /><path d="M 82980 30439 l 0 -2409" class="C5" /><path d="M 13545 49102 l 0 -5304" class="C5" /><path d="M 11962 48521 l 0 -4143" class="C5" /><path d="M 11913 48512 l 0 -4126" class="C5" /><path d="M 10805 15846 l 0 -1842" class="C5" /><path d="M 10805 17688 l 0 -1842" class="C5" /><path d="M 64375 37426 l 0 18045" class="C5" /><path d="M 15218 51947 l 0 20144" class="C5" /><path d="M 62783 72090 l 0 -20144" class="C5" /><path d="M 62783 31408 l 0 -19192" class="C5" /><path d="M 15218 12217 l 0 19192" class="C5" /><path d="M 939228 89120 l -33569 0" class="C1" /><path d="M 923866 119275 c 20111 0 36414 -16303 36414 -36414 c 0 -20111 -16303 -36414 -36414 -36414" class="C3" /><path d="M 905659 76603 l 0 -60310" class="C1" /><path d="M 625877 119275 l 293856 0" class="C3" /><path d="M 646212 76603 l 0 -60310" class="C2" /><path d="M 646212 40759 l 273102 0" class="C2" /><path d="M 905659 39621 l -230430 0" class="C2" /><path d="M 632557 125819 l 0 -13086" class="C2" /><path d="M 939228 76603 l 0 12517" class="C1" /><path d="M 905272 125762 l 0 -12972" class="C1" /><path d="M 923866 126103 c 23881 0 43241 -19360 43241 -43241 c 0 -23881 -19360 -43241 -43241 -43241" class="C1" /><path d="M 632557 89120 l 0 60310" class="C2" /><path d="M 999538 16293 l -60310 60310" class="C1" /><path d="M 645939 125819 l -13382 0" class="C2" /><path d="M 646212 126092 c 0 -151 -122 -273 -273 -273" class="C2" /><path d="M 905659 126103 l 0 -13655" class="C2" /><path d="M 113662 112448 l 532550 0" class="C2" /><path d="M 113662 126103 l 532550 0" class="C2" /><path d="M 93327 119275 l 566958 0" class="C3" /><path d="M 646212 126103 l 0 -13655" class="C2" /><path d="M 250276 112448 l -136613 0" class="C2" /><path d="M 250276 126103 l -136613 0" class="C2" /><path d="M 186778 119275 c 0 1728 -1401 3129 -3129 3129 c -1728 0 -3129 -1401 -3129 -3129 c 0 -1728 1401 -3129 3129 -3129 c 1728 0 3129 1401 3129 3129" class="C2" /><path d="M 350640 119275 c 0 1728 -1401 3129 -3129 3129 c -1728 0 -3129 -1401 -3129 -3129 c 0 -1728 1401 -3129 3129 -3129 c 1728 0 3129 1401 3129 3129" class="C2" /><path d="M 113662 126103 l 0 -11" class="C2" /><path d="M 113662 126092 c 0 -151 -122 -273 -273 -273" class="C2" /><path d="M 113389 125819 l -13382 0" class="C2" /><path d="M 113389 112732 l -13382 0" class="C2" /><path d="M 250276 126103 c 1971 -2191 8210 -3698 15304 -3698 c 7094 0 13333 1508 15304 3698" class="C2" /><path d="M 280884 112448 c -1971 2191 -8210 3698 -15304 3698 c -7094 0 -13333 -1508 -15304 -3698" class="C2" /><path d="M 113662 112448 l 0 11" class="C2" /><path d="M 113389 112732 c 151 0 273 -122 273 -273" class="C2" /><path d="M 113662 126103 l 0 -13655" class="C2" /><path d="M 332148 119275 c 0 2828 6878 5121 15362 5121 c 8484 0 15362 -2293 15362 -5121 c 0 -2828 -6878 -5121 -15362 -5121 c -8484 0 -15362 2293 -15362 5121" class="C2" /><path d="M 168287 119275 c 0 2828 6878 5121 15362 5121 c 8484 0 15362 -2293 15362 -5121 c 0 -2828 -6878 -5121 -15362 -5121 c -8484 0 -15362 2293 -15362 5121" class="C2" /><path d="M 100007 125819 l 0 -13086" class="C2" /><path d="M 646212 124965 l -546205 0" class="C2" /><path d="M 646212 113586 l -546205 0" class="C2" /><path d="M 646212 149431 l -546205 0" class="C2" /><path d="M 646212 89120 l -546205 0" class="C2" /><path d="M 646212 89120 l 0 60310" class="C2" /><path d="M 100007 89120 l 0 60310" class="C2" /><path d="M 919314 76603 l 0 -60310" class="C2" /><path d="M 923866 126103 l -18207 0" class="C1" /><path d="M 963693 52138 l -58034 0" class="C1" /><path d="M 905659 128333 l 0 -18116" class="C1" /><path d="M 905932 39905 l 13382 0" class="C2" /><path d="M 905659 39632 c 0 151 122 273 273 273" class="C2" /><path d="M 905659 53276 l -230430 0" class="C2" /><path d="M 645939 112732 l -13382 0" class="C2" /><path d="M 919314 39905 l 0 13086" class="C2" /><path d="M 646212 112448 l 259447 0" class="C2" /><path d="M 923866 112448 l -18207 0" class="C1" /><path d="M 999538 16293 l 0 133137" class="C1" /><path d="M 667833 37686 l 7397 1934" class="C2" /><path d="M 905932 52991 c -151 0 -273 122 -273 273" class="C2" /><path d="M 923866 112448 c 16340 0 29586 -13246 29586 -29586 c 0 -16340 -13246 -29586 -29586 -29586" class="C1" /><path d="M 999538 149431 l -93879 0" class="C1" /><path d="M 667833 37686 l -21621 0" class="C2" /><path d="M 646212 126103 l 0 -11" class="C2" /><path d="M 963693 113586 l -58034 0" class="C1" /><path d="M 999538 16293 l -93879 0" class="C1" /></g></svg>