<?xml version='1.0' encoding='utf-8'?>
<svg xmlns="http://www.w3.org/2000/svg" width="15.3mm" height="24.8mm" viewBox="0 0 616935 1000000"><defs><style>.C1 {stroke: #ffffff; stroke-width: 10081; stroke-opacity: 1.000; fill: none; fill-opacity: 1.000;}</style></defs><g stroke-linecap="round" stroke-linejoin="round" fill-rule="evenodd"><path d="M 435928 965832 l -922 17599" class="C1" /><path d="M 349505 18229 l -105700 0" class="C1" /><path d="M 352061 944444 l 1772 0" class="C1" /><path d="M 436623 983263 l 119 -25" class="C1" /><path d="M 378596 998301 c 34 -276 51 -557 51 -839" class="C1" /><path d="M 245194 981771 l 105700 0" class="C1" /><path d="M 499120 991676 c -523 -408 -1060 -784 -1608 -1127" class="C1" /><path d="M 172135 988435 c -1390 0 -2517 1127 -2517 2517" class="C1" /><path d="M 182507 963123 c -155 2 -311 5 -460 37 c -161 34 -315 103 -456 194 c -145 93 -277 208 -379 347 c -100 135 -171 292 -243 448" class="C1" /><path d="M 388801 958054 l 0 2658" class="C1" /><path d="M 6395 983665 l -457 -17431" class="C1" /><path d="M 121859 989442 l -10462 8053" class="C1" /><path d="M 456871 973134 c -342 -41 -685 -82 -1003 -201 c -174 -65 -341 -153 -498 -256 c -151 -99 -293 -212 -421 -340 c -132 -132 -250 -279 -352 -435 c -100 -153 -186 -316 -253 -486 c -126 -316 -191 -658 -191 -1000 c 0 -342 65 -684 191 -1000 c 68 -170 153 -333 253 -486 c 102 -157 220 -304 352 -435 c 128 -128 270 -241 422 -340 c 156 -103 323 -190 497 -255 c 318 -119 661 -160 1003 -201" class="C1" /><path d="M 264764 41946 l 0 118304" class="C1" /><path d="M 182722 990902 c 88 69 175 138 271 195 c 94 55 195 99 299 133 c 100 33 203 58 307 70 c 98 11 197 11 296 11" class="C1" /><path d="M 350894 982939 c 645 0 1168 -523 1168 -1168" class="C1" /><path d="M 477004 988033 c 266 0 533 0 786 0 c 253 0 492 0 732 0" class="C1" /><path d="M 217353 980704 l 161381 0" class="C1" /><path d="M 207548 986315 l 130 -285" class="C1" /><path d="M 207286 960712 l 0 -2658" class="C1" /><path d="M 160065 26866 c 342 41 685 82 1003 201 c 174 65 341 153 498 256 c 151 99 293 212 421 340 c 132 132 250 279 352 435 c 100 153 186 316 253 486 c 126 316 191 658 191 1000 c -0 342 -65 684 -191 1000 c -68 170 -153 333 -253 486 c -102 157 -220 304 -352 435 c -128 128 -270 241 -422 340 c -156 103 -323 190 -497 255 c -318 119 -661 160 -1003 201" class="C1" /><path d="M 168137 10948 c 1390 0 2517 -670 2517 -1497" class="C1" /><path d="M 352444 45490 l 0 -3543" class="C1" /><path d="M 182184 989619 c -2 -44 -5 -88 -8 -161 c -11 -214 -37 -674 -71 -1353 c -0 -1 -0 -1 -0 -2" class="C1" /><path d="M 255475 814584 l 0 -364" class="C1" /><path d="M 262451 809186 l 0 -4669" class="C1" /><path d="M 433138 8825 c 3 67 6 134 12 278 c 13 304 39 951 72 1707 c 27 637 58 1353 92 2144 c 21 492 43 1014 65 1552 c 25 607 52 1234 78 1862" class="C1" /><path d="M 614571 16335 l 913 17431" class="C1" /><path d="M 240230 989241 l 0 8053" class="C1" /><path d="M 387412 29363 c 0 -5560 -4507 -10067 -10067 -10067" class="C1" /><path d="M 120815 10948 c -34 212 -68 424 -108 588 c -40 163 -86 278 -133 349 c -35 52 -70 81 -105 83 c -1 0 -2 0 -4 0" class="C1" /><path d="M 250775 814584 l 0 -10067" class="C1" /><path d="M 610540 16335 l 457 17431" class="C1" /><path d="M 207548 986315 c 22 -426 45 -852 68 -1298 c 23 -447 48 -915 72 -1382" class="C1" /><path d="M 169618 990952 c 0 -400 -265 -785 -737 -1068 c -472 -283 -1112 -442 -1780 -442" class="C1" /><path d="M 456706 26766 l -2491 0" class="C1" /><path d="M 449834 2505 c -792 -634 -1538 -1007 -2013 -1007" class="C1" /><path d="M 139824 988435 l 1518 0" class="C1" /><path d="M 436623 983263 l -9 168" class="C1" /><path d="M 477469 36732 l 0 926134" class="C1" /><path d="M 108252 990952 l 0 6486" class="C1" /><path d="M 611000 962866 c 438 0 876 0 1256 0 c 393 0 724 0 999 0 c 275 -0 494 -0 623 -0 c 124 0 163 0 203 0" class="C1" /><path d="M 412735 991254 c -5 -110 -10 -220 -24 -558 c -15 -356 -40 -963 -72 -1707 c -27 -627 -58 -1351 -92 -2145 c -21 -494 -43 -1014 -65 -1551 c -25 -606 -52 -1234 -78 -1861" class="C1" /><path d="M 4528 34168 l 457 -17431" class="C1" /><path d="M 158865 32000 l 2400 0" class="C1" /><path d="M 207513 989231 l -149 605" class="C1" /><path d="M 435995 962866 l -585 0" class="C1" /><path d="M 378718 1699 c -475 0 -1221 373 -2013 1007" class="C1" /><path d="M 182490 963067 l 24579 0" class="C1" /><path d="M 263704 839750 c -94 987 381 1942 1224 2463" class="C1" /><path d="M 446282 990549 c 0 -1390 -1127 -2517 -2517 -2517" class="C1" /><path d="M 434428 36877 c 155 -2 311 -5 460 -37 c 161 -35 315 -103 456 -194 c 145 -93 277 -208 379 -347 c 100 -135 171 -292 243 -448" class="C1" /><path d="M 427446 953000 c 0 1390 -1127 2517 -2517 2517 c -1390 0 -2517 -1127 -2517 -2517 c 0 -1390 1127 -2517 2517 -2517 c 1390 0 2517 1127 2517 2517" class="C1" /><path d="M 102367 11968 c 3822 0 6921 -1127 6921 -2517" class="C1" /><path d="M 436614 983431 c -24 10 -48 20 -122 26 c -74 6 -198 9 -349 9 c -151 0 -328 -3 -522 -9 c -194 -6 -405 -16 -616 -26" class="C1" /><path d="M 378144 998301 l -139927 0" class="C1" /><path d="M 205897 34149 l -444 19" class="C1" /><path d="M 507648 990549 l -8528 0" class="C1" /><path d="M 614571 16335 c -140 -2674 -2349 -4770 -5026 -4770" class="C1" /><path d="M 434696 11478 c -33 -628 -66 -1256 -77 -1469 c -2 -32 -3 -55 -4 -78" class="C1" /><path d="M 194624 170739 c 0 1446 -1172 2617 -2617 2617 c -1446 0 -2617 -1172 -2617 -2617 c 0 -1446 1172 -2617 2617 -2617 c 1446 0 2617 1172 2617 2617" class="C1" /><path d="M 408325 33965 c -30 10 -60 20 -140 27 c -80 7 -211 10 -369 10 c -158 0 -342 -3 -543 -9 c -201 -6 -419 -16 -637 -26" class="C1" /><path d="M 408343 35660 c 4 33 8 65 16 97 c 24 107 84 206 147 302 c 64 98 132 191 211 275 c 79 85 168 161 263 229 c 93 67 193 125 296 169 c 193 81 400 113 608 144" class="C1" /><path d="M 250775 804517 l -6539 0" class="C1" /><path d="M 207678 986030 c 0 -0 0 -1 0 -1 c 23 -51 91 -93 159 -134 c 69 -42 139 -81 219 -116 c 80 -35 171 -65 268 -91 c 95 -25 194 -46 299 -60 c 194 -26 404 -28 613 -30" class="C1" /><path d="M 407559 16407 c 27 -396 55 -791 81 -1166 c 20 -288 39 -563 59 -839" class="C1" /><path d="M 182239 988522 c 33 628 66 1256 77 1469 c 2 32 3 55 4 78" class="C1" /><path d="M 181984 983657 c 36 682 72 1365 107 2025 c 35 660 68 1298 96 1830 c 14 273 27 518 40 764" class="C1" /><path d="M 434735 10071 l -145 -587" class="C1" /><path d="M 387412 39288 l 0 2658" class="C1" /><path d="M 434445 36933 l -2 -108" class="C1" /><path d="M 480082 33765 l -14 570 l -71 553 l -125 513 l -175 452 l -216 372 l -250 277 l -272 171 l -284 58" class="C1" /><path d="M 250775 839750 l 0 -10067" class="C1" /><path d="M 5938 966235 l -4488 0" class="C1" /><path d="M 499120 990549 l 24 -491 l 72 -472 l 116 -435 l 156 -381 l 191 -313 l 218 -233 l 236 -143 l 245 -48" class="C1" /><path d="M 7498 11968 c -220 0 -439 0 -629 0 c -190 -0 -349 -0 -482 -0 c -133 0 -240 0 -303 0 c -63 0 -83 0 -103 0" class="C1" /><path d="M 169618 990952 l 0 5033" class="C1" /><path d="M 205453 34168 l -24446 0" class="C1" /><path d="M 409423 10769 l 149 -605" class="C1" /><path d="M 508988 1644 c 82 -35 164 -70 222 -96 c 58 -26 91 -44 100 -48 c 2 -1 3 -1 3 -2" class="C1" /><path d="M 376130 997294 l 0 -8053" class="C1" /><path d="M 439145 965832 l 37859 0" class="C1" /><path d="M 456871 967698 c 342 41 685 82 1003 201 c 174 65 341 153 498 256 c 151 99 293 212 421 340 c 132 132 250 279 352 435 c 100 153 186 316 253 486 c 126 316 191 658 191 1000 c 0 342 -65 684 -191 1000 c -68 170 -153 333 -253 486 c -102 157 -220 304 -352 435 c -128 128 -270 241 -422 340 c -156 103 -323 190 -497 255 c -318 119 -661 160 -1003 201" class="C1" /><path d="M 505538 2505 l -55704 0" class="C1" /><path d="M 610955 988033 c 2677 0 4886 -2096 5026 -4770" class="C1" /><path d="M 245194 984710 l 0 -2939" class="C1" /><path d="M 407198 36084 c -155 -165 -310 -331 -414 -539 c -51 -102 -89 -214 -118 -331 c -29 -119 -49 -243 -58 -370 c -22 -283 4 -580 29 -878" class="C1" /><path d="M 263704 839750 l 0 -2881" class="C1" /><path d="M 139931 11968 l 0 4770" class="C1" /><path d="M 262315 195483 c -94 987 381 1942 1224 2463" class="C1" /><path d="M 435928 965832 c 5 -243 11 -485 16 -722 c 4 -203 9 -402 13 -591 c 6 -285 13 -550 18 -775 c 3 -144 6 -271 9 -387 c 2 -112 5 -214 6 -276 c 1 -59 2 -83 2 -107" class="C1" /><path d="M 475594 33765 l 0 -17431" class="C1" /><path d="M 433456 16368 l -22601 0" class="C1" /><path d="M 209376 983593 c -27 395 -55 791 -81 1166 c -20 288 -39 563 -59 839" class="C1" /><path d="M 379222 2538 l 0 6711" class="C1" /><path d="M 378734 980704 c 5560 0 10067 -4507 10067 -10067" class="C1" /><path d="M 352061 981771 l 1772 0" class="C1" /><path d="M 182227 988276 c 13 253 27 506 38 723 c 23 445 39 733 54 1021" class="C1" /><path d="M 495076 10558 c 1501 -395 3372 -940 5182 -1510" class="C1" /><path d="M 170160 1901 c -475 0 -1225 378 -2023 1019" class="C1" /><path d="M 608027 11565 l 1518 0" class="C1" /><path d="M 264280 814584 l -13505 0" class="C1" /><path d="M 350894 984711 c 1623 0 2939 -1316 2939 -2939" class="C1" /><path d="M 438648 963753 c 139 159 278 319 373 514 c 93 192 142 420 160 655 c 12 162 8 327 -3 494 c -3 50 -7 101 -11 151 c -7 88 -14 176 -21 264" class="C1" /><path d="M 381164 988234 c -1390 0 -2517 1127 -2517 2517" class="C1" /><path d="M 409248 16366 c 28 -9 57 -19 133 -25 c 76 -6 201 -9 351 -8 c 150 0 326 3 517 9 c 192 6 399 16 607 26" class="C1" /><path d="M 954 16737 l -913 17431" class="C1" /><path d="M 169423 998502 c 97 -832 195 -1665 195 -2499 c 0 -6 0 -12 0 -17" class="C1" /><path d="M 438232 983263 l 913 -17431" class="C1" /><path d="M 243804 19296 l 0 -1067" class="C1" /><path d="M 608027 11565 l 475 90 l 458 268 l 424 436 l 376 588 l 313 719 l 240 825 l 158 900 l 70 944" class="C1" /><path d="M 435992 962974 l 2 -108" class="C1" /><path d="M 379222 2538 c 0 -282 -17 -563 -51 -839" class="C1" /><path d="M 180556 12097 c -34 649 -68 1298 -107 2046 c -39 743 -83 1585 -127 2426" class="C1" /><path d="M 408565 36271 c -68 -72 -136 -144 -224 -196 c -92 -54 -205 -88 -329 -105 c -124 -17 -258 -17 -398 6 c -135 22 -275 65 -415 109" class="C1" /><path d="M 268045 41946 l 0 916108" class="C1" /><path d="M 378734 970637 c 0 2780 -2254 5033 -5033 5033 c -2780 0 -5033 -2254 -5033 -5033 c 0 -2780 2254 -5033 5033 -5033 c 2780 0 5033 2254 5033 5033" class="C1" /><path d="M 107623 990952 l 0 7550" class="C1" /><path d="M 254086 170316 l 0 -2153" class="C1" /><path d="M 608384 36732 l 0 926134" class="C1" /><path d="M 179034 11968 l -39103 0" class="C1" /><path d="M 434751 10381 c 2 44 5 88 8 161 c 11 214 35 674 71 1353 c 0 1 0 1 0 2" class="C1" /><path d="M 266153 839750 l -141 1002 l -401 849 l -600 567 l -708 199 l -708 -199 l -600 -567 l -401 -849 l -141 -1002" class="C1" /><path d="M 197171 829261 c 0 2085 -1690 3775 -3775 3775 c -2085 0 -3775 -1690 -3775 -3775 c 0 -2085 1690 -3775 3775 -3775 c 2085 0 3775 1690 3775 3775" class="C1" /><path d="M 240805 10759 l 0 1007" class="C1" /><path d="M 449834 2505 l 0 8053" class="C1" /><path d="M 409388 13685 c -22 426 -45 852 -68 1298 c -23 447 -48 915 -72 1382" class="C1" /><path d="M 195781 47000 c 0 2085 -1690 3775 -3775 3775 c -2085 0 -3775 -1690 -3775 -3775 c 0 -2085 1690 -3775 3775 -3775 c 2085 0 3775 1690 3775 3775" class="C1" /><path d="M 258892 831837 l -3417 0" class="C1" /><path d="M 262315 190814 l -1253 0" class="C1" /><path d="M 436623 983263 l 914 -17431" class="C1" /><path d="M 437416 965875 c 28 -175 57 -350 82 -511 c 23 -147 43 -281 57 -381 c 10 -69 18 -122 25 -175" class="C1" /><path d="M 437343 963627 c -22 -43 -43 -86 -68 -127 c -92 -147 -231 -257 -379 -347 c -144 -89 -297 -159 -457 -194 c -149 -33 -305 -35 -461 -37" class="C1" /><path d="M 207002 966033 l 284 12" class="C1" /><path d="M 136854 966235 l -130916 0" class="C1" /><path d="M 260145 831837 l -1253 0" class="C1" /><path d="M 249386 170316 l 0 -10067" class="C1" /><path d="M 204201 8746 l -21941 0" class="C1" /><path d="M 257503 168163 c 2332 -471 3892 -2678 3559 -5033" class="C1" /><path d="M 237714 997462 c 0 282 17 563 51 839" class="C1" /><path d="M 170654 4431 l 0 5020" class="C1" /><path d="M 378647 990751 l 0 6711" class="C1" /><path d="M 180193 16762 l 119 -25" class="C1" /><path d="M 262315 163130 l -1253 0" class="C1" /><path d="M 436293 989559 l 15 -291" class="C1" /><path d="M 207688 983634 c -28 9 -57 19 -133 25 c -76 6 -201 8 -351 8 c -150 -0 -326 -3 -517 -9 c -192 -6 -399 -16 -607 -25" class="C1" /><path d="M 6395 983665 l -4031 0" class="C1" /><path d="M 376130 989241 l 0 -1007" class="C1" /><path d="M 266153 804517 l 0 35233" class="C1" /><path d="M 262891 170316 l 1873 0" class="C1" /><path d="M 218963 33967 l 4068 0" class="C1" /><path d="M 611951 983263 l -70 944 l -158 900 l -240 825 l -313 719 l -376 588 l -424 436 l -458 268 l -475 90" class="C1" /><path d="M 435995 962866 l 41010 0" class="C1" /><path d="M 258756 168163 c 2332 -471 3892 -2678 3559 -5033" class="C1" /><path d="M 350672 45490 l 1772 0" class="C1" /><path d="M 264280 814584 l 1873 0" class="C1" /><path d="M 475594 16335 l 0 -4770" class="C1" /><path d="M 180642 10441 l -15 291" class="C1" /><path d="M 183809 991455 l -12 -280" class="C1" /><path d="M 180312 16737 l 9 -168" class="C1" /><path d="M 110886 2920 c -418 -326 -967 -589 -1599 -766" class="C1" /><path d="M 447512 1498 l 308 0" class="C1" /><path d="M 257503 185780 l -3417 0" class="C1" /><path d="M 179022 12140 l 12 -172" class="C1" /><path d="M 495076 10558 l 10462 -8053" class="C1" /><path d="M 446282 995569 l 0 -5020" class="C1" /><path d="M 245194 980704 l 0 1067" class="C1" /><path d="M 437914 987860 l -12 172" class="C1" /><path d="M 496120 989052 c 34 -212 68 -424 108 -587 c 40 -163 86 -278 133 -349 c 35 -52 70 -81 105 -83 c 1 -0 2 -0 4 -0" class="C1" /><path d="M 446775 998099 c 475 -0 1225 -378 2023 -1019" class="C1" /><path d="M 262315 190814 c 333 -2355 -1227 -4562 -3559 -5033" class="C1" /><path d="M 182343 990512 c 115 173 230 345 378 398 c 155 55 347 -23 539 -101" class="C1" /><path d="M 449834 10558 l 45242 0" class="C1" /><path d="M 264764 185416 l -1873 0" class="C1" /><path d="M 262451 836870 c 333 -2355 -1227 -4562 -3559 -5033" class="C1" /><path d="M 514569 988033 c -3822 0 -6921 1127 -6921 2517" class="C1" /><path d="M 170160 1901 l 301 0" class="C1" /><path d="M 256728 814584 l 0 -364" class="C1" /><path d="M 178288 36247 c 131 -40 262 -80 389 -101 c 136 -23 265 -23 385 -9 c 124 15 237 47 328 100 c 90 53 157 126 225 199" class="C1" /><path d="M 215964 19296 c -5560 0 -10067 4507 -10067 10067" class="C1" /><path d="M 182557 966033 l 24446 -0" class="C1" /><path d="M 197171 953000 c 0 2085 -1690 3775 -3775 3775 c -2085 0 -3775 -1690 -3775 -3775 c 0 -2085 1690 -3775 3775 -3775 c 2085 0 3775 1690 3775 3775" class="C1" /><path d="M 242847 160250 l 0 35233" class="C1" /><path d="M 458071 968000 l -2400 0" class="C1" /><path d="M 433126 8545 l -21941 0" class="C1" /><path d="M 180941 37134 l -41010 0" class="C1" /><path d="M 250131 170316 l 0 -10067" class="C1" /><path d="M 138078 37134 l 0 926134" class="C1" /><path d="M 207869 988669 c 87 -75 173 -150 269 -213 c 93 -62 195 -111 300 -152 c 101 -39 206 -70 312 -87 c 101 -17 203 -22 305 -27" class="C1" /><path d="M 262451 804517 l 141 -1002 l 401 -849 l 600 -567 l 708 -199 l 708 199 l 600 567 l 401 849 l 141 1002" class="C1" /><path d="M 205518 37028 c -1 -22 -1 -45 -3 -103 c -1 -62 -4 -164 -6 -278 c -3 -117 -5 -246 -9 -392 c -5 -225 -11 -490 -18 -775 c -4 -190 -9 -388 -13 -591 c -5 -236 -11 -479 -16 -722" class="C1" /><path d="M 139931 34168 l -4488 0" class="C1" /><path d="M 409720 9488 c -6 107 -11 214 -27 522 c -16 308 -43 817 -78 1489 c -24 458 -52 993 -80 1527" class="C1" /><path d="M 195912 953000 c 0 1390 -1127 2517 -2517 2517 c -1390 0 -2517 -1127 -2517 -2517 c 0 -1390 1127 -2517 2517 -2517 c 1390 0 2517 1127 2517 2517" class="C1" /><path d="M 109288 2154 l 0 7297" class="C1" /><path d="M 5938 966235 l 14 -570 l 71 -553 l 125 -513 l 175 -452 l 216 -372 l 250 -277 l 272 -171 l 284 -58" class="C1" /><path d="M 117816 9451 l 1608 0" class="C1" /><path d="M 255475 831837 l 0 -2153" class="C1" /><path d="M 108252 997438 l 8426 -6486" class="C1" /><path d="M 256728 831837 l 0 -2153" class="C1" /><path d="M 139467 37134 l 0 926134" class="C1" /><path d="M 446282 995569 c 0 6 0 12 0 18 c 1 839 97 1676 193 2512" class="C1" /><path d="M 206139 16569 l 475 9063" class="C1" /><path d="M 108252 990952 c 0 -667 -729 -1308 -2027 -1780 c -1298 -472 -3058 -737 -4894 -737" class="C1" /><path d="M 240805 2706 l 0 8053" class="C1" /><path d="M 409869 36822 l -3 110" class="C1" /><path d="M 238217 998301 l -452 0" class="C1" /><path d="M 408325 33965 c -12 210 -23 420 -30 620 c -7 196 -9 383 -11 570" class="C1" /><path d="M 509313 9048 l -629 0" class="C1" /><path d="M 238792 1700 l 139927 0" class="C1" /><path d="M 180584 11551 l 14 -265" class="C1" /><path d="M 238339 1700 l 452 0" class="C1" /><path d="M 352444 19296 l 0 -1067" class="C1" /><path d="M 205771 11680 c -30 -569 -60 -1137 -77 -1469 c -18 -336 -22 -429 -27 -522" class="C1" /><path d="M 436048 35127 c -2 -17 -4 -35 -10 -79 c -7 -49 -19 -132 -33 -231 c -16 -109 -35 -238 -58 -382 c -25 -158 -53 -335 -82 -512" class="C1" /><path d="M 347733 958054 l 0 -916108" class="C1" /><path d="M 409867 36933 l -22455 0" class="C1" /><path d="M 409257 13970 c -0 0 -0 1 -0 1 c -23 53 -91 94 -159 134 c -70 41 -139 81 -219 116 c -80 35 -171 65 -268 91 c -95 25 -194 46 -299 60 c -194 26 -404 28 -613 30" class="C1" /><path d="M 436418 989015 l 900 -1227" class="C1" /><path d="M 476080 36732 l 0 926134" class="C1" /><path d="M 180959 966234 l -39617 0" class="C1" /><path d="M 436743 983238 l -119 25" class="C1" /><path d="M 209385 983464 c -561 -56 -1127 -57 -1688 -2" class="C1" /><path d="M 244270 160250 l 0 -118304" class="C1" /><path d="M 410907 983390 c 47 895 94 1791 140 2670 c 46 879 91 1741 117 2240 c 0 7 1 13 1 20" class="C1" /><path d="M 164193 970819 c 0 1501 -1217 2718 -2718 2718 c -1501 0 -2718 -1217 -2718 -2718 c 0 -1501 1217 -2718 2718 -2718 c 1501 0 2718 1217 2718 2718" class="C1" /><path d="M 255339 170316 l 0 -2153" class="C1" /><path d="M 611000 962866 l 284 58 l 272 171 l 250 277 l 216 372 l 175 452 l 125 513 l 71 553 l 14 570" class="C1" /><path d="M 507648 997846 l 0 -7297" class="C1" /><path d="M 411415 962866 l 3 106" class="C1" /><path d="M 180517 10985 l -900 1227" class="C1" /><path d="M 480084 962866 l 130916 0" class="C1" /><path d="M 181871 983633 l -922 -17599" class="C1" /><path d="M 480082 33765 l 130916 0" class="C1" /><path d="M 407550 16536 l 9 -129" class="C1" /><path d="M 204531 16569 l -22601 0" class="C1" /><path d="M 434379 33967 c 209 -10 419 -19 615 -26 c 196 -6 378 -10 521 -9 c 143 0 246 5 349 9" class="C1" /><path d="M 448798 989052 l 0 -1019" class="C1" /><path d="M 411165 988320 c 30 569 60 1137 77 1469 c 18 336 22 429 27 522" class="C1" /><path d="M 167102 988435 l 0 1007" class="C1" /><path d="M 258892 814220 c 2332 -471 3892 -2678 3559 -5033" class="C1" /><path d="M 436054 35238 c 0 109 0 219 -16 326 c -16 102 -47 202 -78 301" class="C1" /><path d="M 264764 185416 l 0 314584" class="C1" /><path d="M 449834 11565 l 0 -1007" class="C1" /><path d="M 135900 16737 l -457 17431" class="C1" /><path d="M 205520 37134 l -3 -106" class="C1" /><path d="M 378718 1700 l 452 0" class="C1" /><path d="M 370277 33967 l 4068 0" class="C1" /><path d="M 481035 983263 l 457 -17431" class="C1" /><path d="M 180882 964762 c 0 4 0 8 1 25 c 1 16 2 45 4 73" class="C1" /><path d="M 435995 962866 c 541 35 1082 69 1577 262 c 377 147 726 386 1076 625" class="C1" /><path d="M 437537 965832 l -122 26" class="C1" /><path d="M 508277 990549 c 5 -58 10 -116 23 -172 c 26 -115 84 -222 152 -322 c 123 -182 276 -337 442 -476 c 319 -268 686 -478 1066 -654 c 584 -270 1199 -460 1825 -599 c 767 -170 1552 -265 2336 -286 c 171 -5 342 -6 513 -7" class="C1" /><path d="M 240230 997294 l 135900 0" class="C1" /><path d="M 435864 33941 l 124 26" class="C1" /><path d="M 435977 33766 l 39617 -0" class="C1" /><path d="M 353833 944444 l 0 10067" class="C1" /><path d="M 2364 983665 l -914 -17431" class="C1" /><path d="M 139931 34168 l 0 -17431" class="C1" /><path d="M 180888 964873 c 2 17 4 35 10 79 c 7 49 19 132 33 231 c 16 109 35 238 58 382 c 25 158 53 335 82 512" class="C1" /><path d="M 409933 33967 c -207 -10 -415 -19 -606 -26 c -191 -6 -367 -9 -517 -9 c -150 -0 -275 2 -351 8 c -77 6 -105 15 -133 24" class="C1" /><path d="M 244237 839750 l 6539 0" class="C1" /><path d="M 179399 34168 l -118 25" class="C1" /><path d="M 349505 15289 l -105700 0" class="C1" /><path d="M 180321 16569 c 24 -10 48 -20 122 -26 c 74 -6 198 -9 349 -9 c 151 -0 328 3 522 9 c 194 6 405 16 616 26" class="C1" /><path d="M 169423 998502 l -308 0" class="C1" /><path d="M 609437 988033 c 220 0 439 0 629 0 c 190 0 349 0 482 0 c 133 0 240 0 303 0 c 63 0 83 0 103 0" class="C1" /><path d="M 108658 1901 l 0 7550" class="C1" /><path d="M 180312 16737 l -914 17431" class="C1" /><path d="M 258756 168163 l -1253 0" class="C1" /><path d="M 495076 11565 l 0 -1007" class="C1" /><path d="M 501516 11565 l -245 -48 l -236 -143 l -218 -233 l -191 -313 l -156 -381 l -116 -435 l -72 -472 l -24 -491" class="C1" /><path d="M 263704 804517 l -1253 0" class="C1" /><path d="M 139824 988435 l -130916 0" class="C1" /><path d="M 180642 10441 l -143 579" class="C1" /><path d="M 436293 989559 l 143 -579" class="C1" /><path d="M 388801 970637 l 0 -9926" class="C1" /><path d="M 207286 960712 l 0 9926" class="C1" /><path d="M 262891 170316 l -13505 0" class="C1" /><path d="M 244237 804517 l 0 35233" class="C1" /><path d="M 411048 988234 l -201996 0" class="C1" /><path d="M 40 34168 l 4488 0" class="C1" /><path d="M 119424 9451 c 226 148 453 296 665 458 c 216 165 417 345 568 554 c 58 80 109 165 134 254 c 21 75 23 153 25 231" class="C1" /><path d="M 409067 11331 c -87 75 -173 150 -269 213 c -93 62 -195 111 -300 152 c -101 39 -206 70 -312 87 c -101 17 -203 22 -305 27" class="C1" /><path d="M 387412 39288 l -181514 0" class="C1" /><path d="M 435065 16368 l 922 17599" class="C1" /><path d="M 477112 11565 l -1518 0" class="C1" /><path d="M 139931 37134 l 0 -2966" class="C1" /><path d="M 249386 195483 l 0 -10067" class="C1" /><path d="M 183809 991455 l 21941 0" class="C1" /><path d="M 447512 1498 c -97 832 -194 1664 -195 2499 c -0 6 -0 12 -0 18" class="C1" /><path d="M 388801 963067 l 21910 0" class="C1" /><path d="M 177790 34168 l -37859 0" class="C1" /><path d="M 411186 8545 c -204 23 -408 45 -597 115 c -189 69 -362 186 -512 328 c -149 142 -275 309 -354 494 c -79 185 -113 387 -146 590" class="C1" /><path d="M 180941 37134 l 585 -0" class="C1" /><path d="M 207286 970637 c 0 5560 4507 10067 10067 10067" class="C1" /><path d="M 205897 29363 l 0 9926" class="C1" /><path d="M 249386 160250 l 745 0" class="C1" /><path d="M 353833 981771 l 0 -1067" class="C1" /><path d="M 438232 983263 c -26 383 -53 766 -78 1137 c -22 328 -44 646 -65 947 c -33 482 -64 918 -91 1306 c -32 461 -59 855 -72 1040 c -6 87 -9 127 -12 168" class="C1" /><path d="M 508684 9048 c 0 667 729 1308 2027 1780 c 1298 472 3058 737 4894 737" class="C1" /><path d="M 121859 988435 l 0 1007" class="C1" /><path d="M 350894 984710 l -105700 0" class="C1" /><path d="M 136854 966235 l 14 -570 l 71 -553 l 125 -513 l 175 -452 l 216 -372 l 250 -277 l 272 -171 l 284 -58" class="C1" /><path d="M 437577 964809 c 2 -68 4 -137 4 -203 c 1 -196 -14 -374 -54 -534 c -46 -187 -126 -348 -206 -509" class="C1" /><path d="M 179521 34142 c 103 -4 206 -9 349 -9 c 143 -1 326 3 522 9 c 196 6 406 16 616 26" class="C1" /><path d="M 183479 983633 l 22601 0" class="C1" /><path d="M 434213 9098 c -88 -69 -175 -138 -271 -195 c -94 -55 -195 -99 -299 -133 c -100 -33 -203 -58 -307 -70 c -98 -11 -197 -11 -296 -11" class="C1" /><path d="M 437537 965832 l 118 -25" class="C1" /><path d="M 180194 16762 c -1 0 -3 1 -4 1 c -43 8 -190 10 -349 9 c -159 -1 -330 -3 -522 -9 c -191 -6 -403 -16 -615 -26" class="C1" /><path d="M 609773 36732 l 0 926134" class="C1" /><path d="M 205897 41946 l 0 -2658" class="C1" /><path d="M 409248 16366 l -9 172" class="C1" /><path d="M 238339 1699 c -34 276 -51 557 -51 839" class="C1" /><path d="M 350894 981771 l 0 -1067" class="C1" /><path d="M 266153 829684 l -1873 0" class="C1" /><path d="M 240230 989241 l 0 -1007" class="C1" /><path d="M 183797 991175 c -3 -67 -6 -134 -12 -278 c -13 -304 -39 -951 -72 -1707 c -27 -637 -58 -1353 -92 -2144 c -21 -492 -43 -1014 -65 -1552 c -25 -607 -52 -1234 -78 -1862" class="C1" /><path d="M 508277 998099 c -11 -6 -22 -13 -59 -30 c -36 -18 -97 -47 -172 -80 c -79 -35 -173 -73 -283 -108 c -37 -12 -76 -24 -116 -35" class="C1" /><path d="M 264764 160250 l 0 35233" class="C1" /><path d="M 260145 814220 c 2332 -471 3892 -2678 3559 -5033" class="C1" /><path d="M 263704 809186 l -1253 0" class="C1" /><path d="M 409248 16366 c -27 15 -54 30 -131 41 c -41 6 -96 11 -159 15 c -65 4 -138 7 -219 9 c -82 2 -172 3 -268 3 c -94 -0 -194 -1 -299 -4 c -194 -4 -404 -14 -613 -23" class="C1" /><path d="M 263704 839750 l -1253 0" class="C1" /><path d="M 169115 998502 l -61492 0" class="C1" /><path d="M 477004 965832 l 4488 0" class="C1" /><path d="M 508277 998099 l 0 -7550" class="C1" /><path d="M 434592 9488 c -115 -173 -230 -345 -378 -398 c -155 -55 -347 23 -539 101" class="C1" /><path d="M 448798 989052 c -1390 0 -2517 670 -2517 1497" class="C1" /><path d="M 207688 983634 c 27 -15 54 -30 131 -41 c 41 -6 96 -11 159 -15 c 65 -4 138 -7 219 -9 c 82 -2 172 -3 268 -3 c 94 0 194 1 299 3 c 194 4 404 14 613 23" class="C1" /><path d="M 409577 10071 c -3 48 -5 96 -13 247 c -8 152 -21 408 -38 726 c -17 319 -37 701 -60 1152 c -24 450 -51 970 -78 1489" class="C1" /><path d="M 243804 18229 l 0 -2939" class="C1" /><path d="M 4985 16737 l 70 -944 l 158 -900 l 240 -825 l 313 -719 l 376 -588 l 424 -436 l 458 -268 l 475 -90" class="C1" /><path d="M 350672 19296 l 0 -1067" class="C1" /><path d="M 207688 983634 l 9 -172" class="C1" /><path d="M 409239 16538 l -913 17427" class="C1" /><path d="M 250775 804517 l 745 0" class="C1" /><path d="M 242847 195483 l 6539 0" class="C1" /><path d="M 160229 973235 l 2491 0" class="C1" /><path d="M 615982 983263 l -4031 0" class="C1" /><path d="M 8908 988435 l -1518 0" class="C1" /><path d="M 262891 170316 l 0 15100" class="C1" /><path d="M 350672 18229 c 0 -645 -523 -1168 -1168 -1168" class="C1" /><path d="M 107948 998356 c -82 35 -164 70 -222 96 c -58 26 -91 44 -100 48 c -2 1 -3 1 -3 2" class="C1" /><path d="M 182557 966033 c -209 10 -419 19 -615 26 c -196 6 -378 10 -521 9 c -143 -0 -246 -5 -349 -9" class="C1" /><path d="M 249386 185416 l 13505 0" class="C1" /><path d="M 182201 989929 l 145 587" class="C1" /><path d="M 40 34168 c -40 772 238 1527 770 2088 c 532 561 1271 878 2045 878" class="C1" /><path d="M 435144 36732 l 40450 0" class="C1" /><path d="M 181007 34168 c -5 243 -11 485 -16 722 c -5 203 -9 402 -13 591 c -6 285 -13 550 -18 775 c -3 144 -6 271 -9 387 c -2 112 -5 214 -6 276 c -1 59 -2 83 -2 107" class="C1" /><path d="M 207286 958054 l 181514 0" class="C1" /><path d="M 410856 16368 c 26 -628 53 -1255 78 -1862 c 22 -537 44 -1058 65 -1552 c 34 -793 65 -1517 92 -2144 c 32 -744 57 -1352 72 -1707 c 14 -338 19 -448 24 -558" class="C1" /><path d="M 435065 16368 l -118 -25" class="C1" /><path d="M 481035 983263 l -70 944 l -158 900 l -240 825 l -313 719 l -376 588 l -424 436 l -458 268 l -475 90" class="C1" /><path d="M 251520 814584 l 0 -10067" class="C1" /><path d="M 181007 34168 l 922 -17599" class="C1" /><path d="M 409439 10738 c -107 204 -214 408 -376 593 c -155 177 -359 337 -564 497" class="C1" /><path d="M 508684 2562 c 2 -4 3 -9 5 -13 c 110 -302 205 -603 299 -905" class="C1" /><path d="M 350672 18229 l 1772 0" class="C1" /><path d="M 408284 35155 c 8 201 17 402 56 577 c 46 204 135 371 224 539" class="C1" /><path d="M 427315 47000 c 0 2085 -1690 3775 -3775 3775 c -2085 0 -3775 -1690 -3775 -3775 c 0 -2085 1690 -3775 3775 -3775 c 2085 0 3775 1690 3775 3775" class="C1" /><path d="M 117816 8324 c 523 408 1060 784 1608 1127" class="C1" /><path d="M 436142 990309 c 5 -93 10 -185 27 -522 c 17 -332 47 -900 77 -1469" class="C1" /><path d="M 352444 55556 l -1772 0" class="C1" /><path d="M 207358 989929 c 3 -48 5 -96 13 -247 c 8 -152 21 -407 38 -726 c 17 -319 37 -701 60 -1152 c 24 -450 51 -970 78 -1489" class="C1" /><path d="M 477004 983263 l -38773 0" class="C1" /><path d="M 436054 35238 c -0 -4 -0 -8 -1 -25 c -1 -16 -2 -45 -4 -73" class="C1" /><path d="M 205750 991455 c 204 -23 408 -45 597 -115 c 189 -69 362 -186 512 -328 c 149 -142 275 -309 354 -494 c 79 -185 113 -387 146 -590" class="C1" /><path d="M 477112 11565 l 475 90 l 458 268 l 424 436 l 376 588 l 313 719 l 240 825 l 158 900 l 70 944" class="C1" /><path d="M 266153 839750 l 0 118304" class="C1" /><path d="M 349505 18229 l 0 1067" class="C1" /><path d="M 433126 8545 l 12 280" class="C1" /><path d="M 108658 1901 l 61502 0" class="C1" /><path d="M 240230 989241 c -1390 0 -2517 676 -2517 1510" class="C1" /><path d="M 4266 963268 c -773 0 -1512 318 -2045 878 c -532 561 -811 1316 -770 2088" class="C1" /><path d="M 506049 997080 c 418 326 967 589 1599 766" class="C1" /><path d="M 207286 960712 l 181514 0" class="C1" /><path d="M 387412 33967 l 19225 0" class="C1" /><path d="M 262315 195483 l 0 -4670" class="C1" /><path d="M 179359 35191 c -2 68 -4 137 -4 203 c -1 196 14 374 54 534 c 46 187 126 348 206 509" class="C1" /><path d="M 410856 16368 l -922 17600" class="C1" /><path d="M 350672 45490 l 0 -3543" class="C1" /><path d="M 139931 16737 l 38773 0" class="C1" /><path d="M 435008 16335 l 40586 0" class="C1" /><path d="M 375735 966033 l -4068 0" class="C1" /><path d="M 350672 52599 l 0 905455" class="C1" /><path d="M 265106 802189 l 0 -760243" class="C1" /><path d="M 250775 839750 l 745 0" class="C1" /><path d="M 437902 988033 l 39103 0" class="C1" /><path d="M 376705 10759 l 0 1007" class="C1" /><path d="M 206023 16545 c -2 -1 -5 -1 -8 -2 c -45 -8 -191 -10 -349 -9 c -158 1 -330 3 -521 9 c -191 6 -403 16 -615 26" class="C1" /><path d="M 263704 836870 l -1253 0" class="C1" /><path d="M 245194 983464 l -35808 0" class="C1" /><path d="M 206080 983633 l 922 -17600" class="C1" /><path d="M 209237 985597 c -28 398 -56 796 -79 1135 c -22 309 -40 568 -56 793 c -17 239 -31 438 -37 532 c -3 46 -5 67 -6 88" class="C1" /><path d="M 480084 962866 l 284 58 l 272 171 l 250 277 l 216 372 l 175 452 l 125 513 l 71 553 l 14 570" class="C1" /><path d="M 264928 802054 c -844 521 -1318 1476 -1224 2463" class="C1" /><path d="M 479625 16335 l 457 17431" class="C1" /><path d="M 615982 983263 l 913 -17431" class="C1" /><path d="M 410796 983431 l 116 24" class="C1" /><path d="M 410912 983455 c 2 1 5 1 8 2 c 45 8 191 10 349 9 c 158 -1 330 -3 521 -9 c 191 -6 403 -16 615 -26" class="C1" /><path d="M 110886 2920 l 6929 5404" class="C1" /><path d="M 434918 11565 l 40676 0" class="C1" /><path d="M 411126 989727 c -4 -84 -9 -168 -25 -469 c -16 -304 -43 -830 -71 -1355" class="C1" /><path d="M 205503 37082 l 394 -32" class="C1" /><path d="M 436764 988408 c 83 -73 166 -145 258 -206 c 90 -60 188 -108 290 -147 c 98 -38 199 -67 301 -84 c 97 -16 196 -21 295 -25" class="C1" /><path d="M 168137 10948 l 0 -8028" class="C1" /><path d="M 111397 997495 l 55704 0" class="C1" /><path d="M 180312 16737 l -119 25" class="C1" /><path d="M 434708 11724 c -13 -253 -27 -506 -38 -723 c -23 -445 -39 -733 -54 -1021" class="C1" /><path d="M 478674 36732 l 130916 0" class="C1" /><path d="M 180689 11681 c -0 7 -1 13 -1 20 c -27 499 -71 1361 -117 2240 c -46 879 -93 1774 -140 2669" class="C1" /><path d="M 434676 991254 c 205 -22 410 -44 597 -115 c 187 -70 354 -189 512 -328 c 157 -139 305 -298 354 -494 c 1 -3 1 -6 2 -9" class="C1" /><path d="M 207496 989262 c 107 -204 214 -408 376 -593 c 155 -177 359 -337 564 -497" class="C1" /><path d="M 107623 990952 l 629 0" class="C1" /><path d="M 616895 965832 l -4488 0" class="C1" /><path d="M 139824 988435 l -475 -90 l -458 -268 l -424 -436 l -376 -588 l -313 -719 l -240 -825 l -158 -900 l -70 -944" class="C1" /><path d="M 240805 2706 c -792 -634 -1538 -1007 -2013 -1007" class="C1" /><path d="M 205520 37135 l -23994 0" class="C1" /><path d="M 508988 1644 c -1023 166 -2223 465 -3450 861" class="C1" /><path d="M 5935 37134 l -284 -58 l -272 -171 l -250 -277 l -216 -372 l -175 -452 l -125 -513 l -71 -553 l -14 -570" class="C1" /><path d="M 352061 954510 l 0 -7109" class="C1" /><path d="M 379222 9250 c 0 1390 1127 2517 2517 2517" class="C1" /><path d="M 610997 33765 l 4488 0" class="C1" /><path d="M 353833 958054 l 0 -3543" class="C1" /><path d="M 178704 16737 c 26 -383 53 -766 78 -1137 c 22 -328 44 -646 65 -947 c 33 -482 64 -918 91 -1306 c 32 -461 59 -855 72 -1040 c 6 -87 9 -127 12 -168" class="C1" /><path d="M 108658 9451 c -5 58 -10 116 -23 172 c -26 115 -84 222 -152 322 c -123 182 -276 337 -442 476 c -319 268 -686 478 -1066 654 c -584 270 -1199 460 -1825 599 c -767 170 -1552 265 -2336 286 c -171 5 -342 6 -513 7" class="C1" /><path d="M 411432 962918 c -155 2 -311 5 -460 37 c -161 35 -315 104 -456 195 c -145 93 -277 209 -379 348 c -100 135 -171 292 -242 449" class="C1" /><path d="M 249386 160250 l -6539 0" class="C1" /><path d="M 475594 36732 c 541 0 1081 0 1594 0 c 513 0 1000 0 1486 0" class="C1" /><path d="M 507648 990549 l 629 0" class="C1" /><path d="M 170654 9451 c 0 1390 1127 2517 2517 2517" class="C1" /><path d="M 238217 998301 c 475 0 1221 -373 2013 -1007" class="C1" /><path d="M 350894 981771 l 0 2939" class="C1" /><path d="M 612407 965832 l -457 17431" class="C1" /><path d="M 255475 814220 l 3417 0" class="C1" /><path d="M 181928 983665 l -40586 0" class="C1" /><path d="M 180172 11592 c -83 73 -166 145 -258 206 c -90 60 -188 108 -290 147 c -98 38 -199 67 -301 84 c -97 16 -196 21 -295 25" class="C1" /><path d="M 182493 963175 c 1 24 1 48 2 107 c 1 62 4 164 6 276 c 3 116 5 243 9 387 c 5 228 11 497 18 786 c 4 189 9 387 13 589 c 5 233 11 473 16 712" class="C1" /><path d="M 238288 9250 c 0 400 265 785 737 1068 c 472 283 1112 442 1780 442" class="C1" /><path d="M 2364 983665 c 140 2674 2349 4770 5026 4770" class="C1" /><path d="M 141342 983665 l 0 4770" class="C1" /><path d="M 250775 829684 l 13505 0" class="C1" /><path d="M 434379 33967 l -24446 0" class="C1" /><path d="M 262315 163130 l 0 -2881" class="C1" /><path d="M 446775 998099 l -301 0" class="C1" /><path d="M 115419 988435 l 245 48 l 236 143 l 218 233 l 191 313 l 156 381 l 116 435 l 72 472 l 24 491" class="C1" /><path d="M 181930 16569 c 26 -627 53 -1255 78 -1861 c 22 -537 44 -1058 65 -1551 c 34 -794 65 -1518 92 -2145 c 32 -744 57 -1352 72 -1707 c 14 -338 19 -448 24 -558" class="C1" /><path d="M 409813 964658 c -1 -28 -3 -56 -4 -72 c -1 -17 -1 -21 -1 -25" class="C1" /><path d="M 181791 963268 l -40450 0" class="C1" /><path d="M 167102 997495 c 792 634 1538 1007 2013 1007" class="C1" /><path d="M 499120 991676 l 0 -1127" class="C1" /><path d="M 350672 52599 l 0 -7109" class="C1" /><path d="M 181871 983633 l 118 25" class="C1" /><path d="M 436351 988449 l -14 265" class="C1" /><path d="M 378647 990751 c 0 -400 -265 -785 -737 -1068 c -472 -283 -1112 -442 -1780 -442" class="C1" /><path d="M 138261 963268 l -130916 0" class="C1" /><path d="M 141342 963268 c -541 -0 -1081 0 -1594 0 c -513 0 -1000 -0 -1486 -0" class="C1" /><path d="M 168137 2920 l -57251 0" class="C1" /><path d="M 496120 989052 l -47322 0" class="C1" /><path d="M 227420 970637 c 0 2780 -2254 5033 -5033 5033 c -2780 0 -5033 -2254 -5033 -5033 c 0 -2780 2254 -5033 5033 -5033 c 2780 0 5033 2254 5033 5033" class="C1" /><path d="M 240805 10759 l 135900 0" class="C1" /><path d="M 4985 16737 l 130916 0" class="C1" /><path d="M 409388 13685 l -130 285" class="C1" /><path d="M 326764 500000 c 0 10424 -8451 18875 -18875 18875 c -10424 0 -18875 -8451 -18875 -18875 c 0 -10424 8451 -18875 18875 -18875 c 10424 0 18875 8451 18875 18875" class="C1" /><path d="M 477004 962866 l 0 2966" class="C1" /><path d="M 497512 990549 c -226 -148 -453 -296 -665 -458 c -216 -165 -417 -345 -568 -554 c -58 -80 -109 -165 -134 -255 c -21 -75 -23 -153 -25 -231" class="C1" /><path d="M 260145 814220 l -1253 0" class="C1" /><path d="M 261062 163130 l 0 -2881" class="C1" /><path d="M 426157 170739 c 0 1446 -1172 2617 -2617 2617 c -1446 0 -2617 -1172 -2617 -2617 c 0 -1446 1172 -2617 2617 -2617 c 1446 0 2617 1172 2617 2617" class="C1" /><path d="M 180943 37026 l -2 108" class="C1" /><path d="M 412405 983431 l -922 -17599" class="C1" /><path d="M 117816 8324 l 0 1127" class="C1" /><path d="M 477004 965832 l 0 17431" class="C1" /><path d="M 433456 16368 l 922 17600" class="C1" /><path d="M 141342 963268 l 0 2966" class="C1" /><path d="M 121859 989442 c -1501 395 -3372 940 -5182 1510" class="C1" /><path d="M 263539 157787 c -844 521 -1318 1476 -1224 2463" class="C1" /><path d="M 262451 839750 l 0 -2881" class="C1" /><path d="M 204201 8746 c 5 110 10 220 24 558 c 15 356 40 963 72 1707 c 27 627 58 1351 92 2145 c 21 494 43 1014 65 1551 c 25 606 52 1234 78 1861" class="C1" /><path d="M 237714 990751 c 0 -1390 -1127 -2517 -2517 -2517" class="C1" /><path d="M 352061 958054 l 0 -3543" class="C1" /><path d="M 5773 37134 l 0 926134" class="C1" /><path d="M 262315 195483 l -1253 0" class="C1" /><path d="M 135444 34168 l -130916 0" class="C1" /><path d="M 349505 15289 l 0 2939" class="C1" /><path d="M 207002 966033 c 5 -239 11 -479 16 -712 c 4 -202 9 -400 13 -589 c 6 -289 13 -558 18 -786 c 3 -144 6 -271 9 -387 c 3 -112 5 -214 6 -276 c 1 -57 2 -81 2 -105" class="C1" /><path d="M 407699 14403 c 28 -398 56 -796 79 -1135 c 22 -309 40 -568 56 -793 c 17 -239 31 -438 37 -532 c 3 -46 5 -67 6 -88" class="C1" /><path d="M 411418 962972 c 1 22 1 45 3 103 c 1 62 4 164 6 278 c 3 117 5 246 9 392 c 5 225 11 490 18 775 c 4 190 9 388 13 591 c 5 236 11 479 16 722" class="C1" /><path d="M 180321 16569 l -9 168" class="C1" /><path d="M 251520 839750 l 0 -10067" class="C1" /><path d="M 409813 964669 c 2 16 4 32 10 76 c 7 48 18 129 33 227 c 16 108 35 235 57 378 c 25 157 53 333 82 508" class="C1" /><path d="M 264764 195483 l -141 1002 l -401 849 l -600 567 l -708 199 l -708 -199 l -600 -567 l -401 -849 l -141 -1002" class="C1" /><path d="M 376705 10760 c 1390 0 2517 -676 2517 -1510" class="C1" /><path d="M 481035 983263 l -4031 0" class="C1" /><path d="M 411126 989727 c 33 203 66 405 146 590 c 79 185 205 352 354 494 c 149 142 323 258 512 328 c 189 69 393 92 597 115" class="C1" /><path d="M 427546 829261 c 0 1446 -1172 2617 -2617 2617 c -1446 0 -2617 -1172 -2617 -2617 c 0 -1446 1172 -2617 2617 -2617 c 1446 0 2617 1172 2617 2617" class="C1" /><path d="M 255339 185780 l 0 -364" class="C1" /><path d="M 183479 983633 l -922 -17600" class="C1" /><path d="M 207066 963178 l 3 -110" class="C1" /><path d="M 141342 966235 l 0 17431" class="C1" /><path d="M 182260 8746 c -205 22 -410 44 -597 115 c -187 70 -354 189 -512 328 c -157 139 -304 298 -354 494 c -1 3 -1 6 -2 9" class="C1" /><path d="M 263704 836870 c 333 -2355 -1227 -4562 -3559 -5033" class="C1" /><path d="M 475594 16335 l 4031 0" class="C1" /><path d="M 139931 11968 c -266 0 -533 0 -786 0 c -253 0 -492 0 -732 0" class="C1" /><path d="M 178288 36247 c -139 -159 -278 -319 -373 -514 c -93 -192 -142 -420 -160 -655 c -12 -162 -8 -327 3 -494 c 3 -50 7 -101 11 -151 c 7 -88 14 -176 21 -264" class="C1" /><path d="M 250131 195483 l 0 -10067" class="C1" /><path d="M 167102 997495 l 0 -8053" class="C1" /><path d="M 387412 41946 l -181514 0" class="C1" /><path d="M 610540 16335 l 4031 0" class="C1" /><path d="M 428704 953000 c 0 2085 -1690 3775 -3775 3775 c -2085 0 -3775 -1690 -3775 -3775 c 0 -2085 1690 -3775 3775 -3775 c 2085 0 3775 1690 3775 3775" class="C1" /><path d="M 500258 9048 l 8426 0" class="C1" /><path d="M 435006 983431 c -26 627 -53 1255 -78 1861 c -22 537 -44 1058 -65 1551 c -34 794 -65 1518 -92 2145 c -32 744 -57 1352 -72 1707 c -14 338 -19 448 -24 558" class="C1" /><path d="M 254086 168163 l 3417 0" class="C1" /><path d="M 351908 16536 l 55643 0" class="C1" /><path d="M 447317 9048 l 0 -5033" class="C1" /><path d="M 5980 11968 c -2677 0 -4886 2096 -5026 4770" class="C1" /><path d="M 406637 33967 l 913 -17431" class="C1" /><path d="M 206029 16610 c -47 -895 -94 -1791 -140 -2670 c -46 -879 -91 -1741 -117 -2240 c -0 -7 -1 -13 -1 -20" class="C1" /><path d="M 179593 36373 c 22 43 43 86 68 127 c 92 147 231 256 379 347 c 144 89 297 159 457 194 c 149 33 305 35 461 37" class="C1" /><path d="M 409807 964561 c -0 -109 -1 -217 16 -324 c 16 -102 46 -202 77 -302" class="C1" /><path d="M 407877 11854 l 6 -88" class="C1" /><path d="M 209385 983464 l -9 129" class="C1" /><path d="M 244270 804517 l 0 -644267" class="C1" /><path d="M 226031 29363 c 0 2780 -2254 5033 -5033 5033 c -2780 0 -5033 -2254 -5033 -5033 c 0 -2780 2254 -5033 5033 -5033 c 2780 0 5033 2254 5033 5033" class="C1" /><path d="M 477004 962866 c 541 0 1081 0 1594 0 c 513 0 1000 0 1486 0" class="C1" /><path d="M 477112 11565 l 130916 0" class="C1" /><path d="M 475594 33765 l 4488 0" class="C1" /><path d="M 207216 990512 c 6 -107 11 -214 27 -522 c 16 -308 43 -817 78 -1489 c 24 -458 52 -993 80 -1527" class="C1" /><path d="M 7346 963268 c -438 0 -876 0 -1256 0 c -393 0 -724 0 -999 0 c -275 0 -494 0 -623 0 c -124 0 -163 0 -203 0" class="C1" /><path d="M 506049 997080 l -6929 -5404" class="C1" /><path d="M 205809 10273 c -33 -203 -66 -405 -146 -590 c -79 -185 -205 -352 -354 -494 c -149 -142 -323 -258 -512 -328 c -189 -69 -393 -92 -597 -115" class="C1" /><path d="M 107948 998356 c 1023 -166 2223 -465 3450 -861" class="C1" /><path d="M 508684 9048 l 0 -6486" class="C1" /><path d="M 196013 829261 c 0 1446 -1172 2617 -2617 2617 c -1446 0 -2617 -1172 -2617 -2617 c 0 -1446 1172 -2617 2617 -2617 c 1446 0 2617 1172 2617 2617" class="C1" /><path d="M 5935 37134 c -438 0 -876 0 -1256 0 c -393 -0 -724 0 -999 0 c -275 0 -494 0 -623 0 c -124 0 -163 0 -203 0" class="C1" /><path d="M 437415 965858 c -103 4 -206 9 -349 9 c -143 1 -326 -3 -522 -9 c -196 -6 -406 -16 -616 -26" class="C1" /><path d="M 458179 29181 c 0 1501 -1217 2718 -2718 2718 c -1501 0 -2718 -1217 -2718 -2718 c 0 -1501 1217 -2718 2718 -2718 c 1501 0 2718 1217 2718 2718" class="C1" /><path d="M 376130 997294 c 792 634 1538 1007 2013 1007" class="C1" /><path d="M 249386 195483 l 745 0" class="C1" /><path d="M 377345 19296 l -161381 0" class="C1" /><path d="M 194523 47000 c 0 1390 -1127 2517 -2517 2517 c -1390 0 -2517 -1127 -2517 -2517 c 0 -1390 1127 -2517 2517 -2517 c 1390 0 2517 1127 2517 2517" class="C1" /><path d="M 411415 962865 l 23994 -0" class="C1" /><path d="M 141342 966235 l -4488 0" class="C1" /><path d="M 138414 11968 l -130916 0" class="C1" /><path d="M 205809 10273 c 4 84 9 168 25 469 c 16 304 43 830 71 1355" class="C1" /><path d="M 181072 966059 l -124 -26" class="C1" /><path d="M 412405 983431 l 22601 0" class="C1" /><path d="M 427315 170739 c 0 2085 -1690 3775 -3775 3775 c -2085 0 -3775 -1690 -3775 -3775 c 0 -2085 1690 -3775 3775 -3775 c 2085 0 3775 1690 3775 3775" class="C1" /><path d="M 409867 36933 c -537 -33 -1073 -66 -1568 -248 c -384 -141 -742 -371 -1101 -601" class="C1" /><path d="M 437654 965807 c 2 -0 3 -1 5 -1 c 44 -8 190 -10 349 -9 c 159 1 330 3 522 9 c 192 6 403 16 615 26" class="C1" /><path d="M 434946 16343 c -2 -0 -3 -1 -5 -1 c -44 -8 -190 -10 -349 -9 c -159 1 -330 3 -521 9 c -191 6 -403 16 -615 26" class="C1" /><path d="M 262315 160250 l -1253 0" class="C1" /><path d="M 434443 36825 c -1 -24 -1 -48 -2 -107 c -1 -62 -4 -164 -6 -276 c -3 -116 -5 -243 -9 -387 c -5 -228 -11 -497 -18 -786 c -4 -189 -9 -387 -13 -589 c -5 -233 -11 -473 -16 -712" class="C1" /><path d="M 378596 998301 l -452 0" class="C1" /><path d="M 438648 963753 c -131 40 -262 80 -389 101 c -136 23 -265 23 -385 9 c -124 -15 -237 -47 -328 -100 c -90 -53 -157 -126 -225 -199" class="C1" /><path d="M 352444 45490 l 0 10067" class="C1" /><path d="M 182490 963067 l 2 108" class="C1" /><path d="M 258756 185780 l -1253 0" class="C1" /><path d="M 245659 958054 l 0 -118304" class="C1" /><path d="M 352061 981771 l 0 -1067" class="C1" /><path d="M 206080 983633 c -26 628 -53 1255 -78 1862 c -22 537 -44 1058 -65 1552 c -34 793 -65 1517 -92 2144 c -32 744 -57 1352 -72 1707 c -14 338 -19 448 -24 558" class="C1" /><path d="M 434951 16343 c -36 -682 -72 -1365 -107 -2025 c -35 -660 -68 -1298 -96 -1830 c -14 -273 -27 -518 -40 -764" class="C1" /><path d="M 261062 190814 c 333 -2355 -1227 -4562 -3559 -5033" class="C1" /><path d="M 137311 983665 l -457 -17431" class="C1" /><path d="M 261062 195483 l 0 -4670" class="C1" /><path d="M 261062 160250 l 141 -1002 l 401 -849 l 600 -567 l 708 -199 l 708 199 l 600 567 l 401 849 l 141 1002" class="C1" /><path d="M 410852 983464 l -57556 0" class="C1" /><path d="M 141342 983665 l -4031 0" class="C1" /><path d="M 109288 9451 l 8528 0" class="C1" /><path d="M 195781 170739 c 0 2085 -1690 3775 -3775 3775 c -2085 0 -3775 -1690 -3775 -3775 c 0 -2085 1690 -3775 3775 -3775 c 2085 0 3775 1690 3775 3775" class="C1" /><path d="M 206083 16536 l 37721 0" class="C1" /><path d="M 616895 965832 c 40 -772 -238 -1527 -770 -2088 c -532 -561 -1271 -878 -2045 -878" class="C1" /><path d="M 954 16737 l 4031 0" class="C1" /><path d="M 181989 983657 c 2 0 3 1 5 1 c 44 8 190 10 349 9 c 159 -1 330 -3 521 -9 c 191 -6 403 -16 615 -26" class="C1" /><path d="M 376705 2706 l -135900 0" class="C1" /><path d="M 167102 989442 l -45242 0" class="C1" /><path d="M 410796 983431 l -922 -17599" class="C1" /><path d="M 436742 983238 c 1 -0 3 -1 4 -1 c 43 -9 190 -10 349 -9 c 159 1 330 3 522 9 c 191 6 403 16 615 26" class="C1" /><path d="M 137311 983665 l -130916 0" class="C1" /><path d="M 434445 36933 l -24579 0" class="C1" /><path d="M 116678 990952 l -8426 0" class="C1" /><path d="M 412735 991254 l 21941 0" class="C1" /><path d="M 352444 18229 c 0 -1623 -1316 -2939 -2939 -2939" class="C1" /><path d="M 207286 963179 l -234 -56" class="C1" /><path d="M 101266 988435 c 438 10 876 21 1312 57 c 808 66 1613 218 2388 463 c 532 168 1050 379 1530 667 c 344 206 668 451 910 776 c 83 112 157 233 190 365 c 15 62 22 126 28 190" class="C1" /><path d="M 204531 16569 l 922 17599" class="C1" /><path d="M 436247 988319 c 0 -7 1 -13 1 -20 c 26 -499 71 -1361 117 -2240 c 46 -879 93 -1774 140 -2669" class="C1" /><path d="M 448798 989052 l 0 8028" class="C1" /><path d="M 411483 965832 l 24446 0" class="C1" /><path d="M 205887 11766 l 201996 0" class="C1" /><path d="M 180941 37134 c -541 -35 -1082 -69 -1577 -262 c -377 -147 -726 -386 -1076 -625" class="C1" /><path d="M 168137 10948 l 0 1019" class="C1" /><path d="M 475594 36732 l 0 -2966" class="C1" /><path d="M 136851 37134 l -130916 0" class="C1" /><path d="M 263704 809186 l 0 -4669" class="C1" /><path d="M 7162 37134 l 0 926134" class="C1" /><path d="M 235772 11766 c 1390 0 2517 -1127 2517 -2517" class="C1" /><path d="M 109288 9451 l -629 0" class="C1" /><path d="M 139931 37134 c -541 0 -1081 0 -1594 0 c -513 0 -1000 0 -1486 0" class="C1" /><path d="M 108252 997438 c -2 4 -3 9 -5 13 c -111 302 -205 603 -299 905" class="C1" /><path d="M 508277 998099 l -61502 0" class="C1" /><path d="M 117816 9451 l -24 491 l -72 472 l -116 435 l -157 381 l -191 313 l -218 233 l -236 143 l -245 48" class="C1" /><path d="M 376705 10759 l 0 -8053" class="C1" /><path d="M 312806 500000 c 0 2780 -2254 5033 -5033 5033 c -2780 0 -5033 -2254 -5033 -5033 c 0 -2780 2254 -5033 5033 -5033 c 2780 0 5033 2254 5033 5033" class="C1" /><path d="M 447821 1498 l 61492 0" class="C1" /><path d="M 224421 966033 l -4068 0" class="C1" /><path d="M 515670 11565 c -438 -10 -876 -21 -1312 -57 c -808 -66 -1613 -218 -2388 -463 c -532 -168 -1050 -379 -1530 -667 c -344 -206 -668 -451 -910 -776 c -83 -112 -157 -233 -190 -365 c -15 -62 -22 -126 -28 -190" class="C1" /><path d="M 206139 16569 l -116 -24" class="C1" /><path d="M 264280 814584 l 0 15100" class="C1" /><path d="M 179520 34125 c -28 175 -57 350 -82 511 c -23 147 -43 281 -57 381 c -10 69 -18 122 -25 175" class="C1" /><path d="M 238288 9250 l 0 -6711" class="C1" /><path d="M 479625 16335 l 130916 0" class="C1" /><path d="M 409885 966033 l -21084 0" class="C1" /><path d="M 436380 987903 c 34 -649 68 -1298 107 -2046 c 39 -743 83 -1585 127 -2426" class="C1" /><path d="M 426057 47000 c 0 1390 -1127 2517 -2517 2517 c -1390 0 -2517 -1127 -2517 -2517 c 0 -1390 1127 -2517 2517 -2517 c 1390 0 2517 1127 2517 2517" class="C1" /><path d="M 160065 32302 c -342 -41 -685 -82 -1003 -201 c -174 -65 -341 -153 -498 -256 c -151 -99 -293 -212 -421 -340 c -132 -132 -250 -279 -352 -435 c -100 -153 -186 -316 -253 -486 c -126 -316 -191 -658 -191 -1000 c -0 -342 65 -684 191 -1000 c 68 -170 153 -333 253 -486 c 102 -157 220 -304 352 -435 c 128 -128 270 -241 422 -340 c 156 -103 323 -190 497 -255 c 318 -119 661 -160 1003 -201" class="C1" /><path d="M 609590 36732 c 438 0 876 -0 1256 -0 c 393 0 724 0 999 0 c 275 0 494 0 623 0 c 124 0 163 0 203 0" class="C1" /><path d="M 407550 16536 c 561 56 1127 57 1688 2" class="C1" /><path d="M 509313 9048 l 0 -7550" class="C1" /><path d="M 135900 16737 l 70 -944 l 158 -900 l 240 -825 l 313 -719 l 376 -588 l 424 -436 l 458 -268 l 475 -90" class="C1" /><path d="M 481492 965832 l 130916 0" class="C1" /><path d="M 387412 39288 l 0 -9926" class="C1" /><path d="M 448798 997080 l 57251 0" class="C1" /><path d="M 135900 16737 l 4031 0" class="C1" /><path d="M 178704 16737 l -913 17431" class="C1" /><path d="M 444801 11565 c 1390 0 2517 -1127 2517 -2517" class="C1" /><path d="M 428704 829261 c 0 2085 -1690 3775 -3775 3775 c -2085 0 -3775 -1690 -3775 -3775 c 0 -2085 1690 -3775 3775 -3775 c 2085 0 3775 1690 3775 3775" class="C1" /><path d="M 237714 997462 l 0 -6711" class="C1" /><path d="M 182017 988435 l -40676 0" class="C1" /><path d="M 610997 33765 l -14 570 l -71 553 l -125 513 l -175 452 l -216 372 l -250 277 l -272 171 l -284 58" class="C1" /><path d="M 409933 33967 c -5 239 -11 479 -16 712 c -4 202 -9 400 -13 589 c -7 289 -13 558 -18 786 c -3 144 -6 271 -9 387 c -3 112 -5 214 -6 276 c -1 57 -2 81 -2 105" class="C1" /><path d="M 8908 988435 l -475 -90 l -458 -268 l -424 -436 l -376 -588 l -313 -719 l -240 -825 l -158 -900 l -70 -944" class="C1" /><path d="M 254086 185780 l 0 -364" class="C1" /><path d="M 353833 954510 l -1772 0" class="C1" /><path d="M 209058 988146 l -6 88" class="C1" /><path d="M 180793 9691 c -5 93 -10 185 -27 522 c -17 332 -47 900 -77 1469" class="C1" /><path d="M 170654 4431 c -0 -6 -0 -12 -0 -18 c -2 -839 -97 -1676 -193 -2512" class="C1" /><path d="M 120815 10948 l 47322 0" class="C1" /><path d="M 409998 965858 c 103 4 206 8 349 9 c 143 1 325 -3 521 -9 c 196 -6 405 -16 615 -26" class="C1" /><path d="M 436614 983431 l 9 -168" class="C1" /><path d="M 409874 965832 l 124 26" class="C1" /><path d="M 207697 983462 l 461 -8791" class="C1" /><path d="M 508684 2562 l -8426 6486" class="C1" /><path d="M 108658 1901 c 11 6 22 13 59 30 c 36 18 97 47 172 80 c 79 35 173 73 283 108 c 37 12 76 24 116 35" class="C1" /><path d="M 136851 37134 l -284 -58 l -272 -171 l -250 -277 l -216 -372 l -175 -452 l -125 -513 l -71 -553 l -14 -570" class="C1" /><path d="M 477004 988033 l 0 -4770" class="C1" /><path d="M 376130 989241 l -135900 0" class="C1" /><path d="M 209714 977193 l -329 6271" class="C1" /><path d="M 179399 34168 l 122 -26" class="C1" /><path d="M 447317 9048 c 0 400 265 785 737 1068 c 472 283 1112 442 1780 442" class="C1" /><path d="M 180882 964762 c -0 -109 -0 -219 16 -326 c 16 -102 47 -202 78 -301" class="C1" /><path d="M 478522 988033 l 130916 0" class="C1" /><path d="M 179281 34193 c -2 0 -3 1 -5 1 c -44 8 -190 10 -349 9 c -159 -1 -330 -3 -522 -9 c -192 -6 -403 -16 -615 -26" class="C1" /><path d="M 499120 990549 l -1608 0" class="C1" /><path d="M 612670 36732 c 773 0 1512 -318 2045 -878 c 532 -561 811 -1316 770 -2088" class="C1" /><path d="M 611951 983263 l -130916 0" class="C1" /><path d="M 377345 29363 c 0 2780 -2254 5033 -5033 5033 c -2780 0 -5033 -2254 -5033 -5033 c 0 -2780 2254 -5033 5033 -5033 c 2780 0 5033 2254 5033 5033" class="C1" /></g></svg>