<?xml version='1.0' encoding='utf-8'?>
<svg xmlns="http://www.w3.org/2000/svg" width="9.6mm" height="24.8mm" viewBox="0 0 387097 1000000"><defs><style>.C1 {stroke: #ffffff; stroke-width: 10081; stroke-opacity: 1.000; fill: none; fill-opacity: 1.000;}</style></defs><g stroke-linecap="round" stroke-linejoin="round" fill-rule="evenodd"><path d="M 240740 827216 l 456 -437" class="C1" /><path d="M 133188 835665 l 2039 0" class="C1" /><path d="M 180447 10726 c -5 92 -10 184 -25 469 c -15 288 -40 772 -71 1354 c -30 582 -66 1261 -107 2044 c -18 348 -38 716 -57 1085" class="C1" /><path d="M 108536 2363 l 61432 0" class="C1" /><path d="M 237425 172558 c 0 331 134 602 303 614" class="C1" /><path d="M 177950 957811 c -30 11 -61 23 -97 33 c -36 10 -79 19 -122 27 c -44 8 -89 14 -134 19 c -45 5 -89 7 -130 8 c -9 0 -18 0 -27 0" class="C1" /><path d="M 272866 970467 l 0 -9915" class="C1" /><path d="M 145670 779735 l 0 -1411" class="C1" /><path d="M 236482 171795 c -174 0 -314 141 -314 314" class="C1" /><path d="M 148184 227051 l 0 561" class="C1" /><path d="M 119289 9905 c 226 148 452 295 664 457 c 216 165 416 345 568 554 c 58 80 109 165 134 254 c 21 75 23 153 24 231" class="C1" /><path d="M 178014 941796 l 513 299" class="C1" /><path d="M 8090 37557 l 0 925088" class="C1" /><path d="M 144355 813965 l -1251 0" class="C1" /><path d="M 185867 942998 c 212 -127 424 -253 635 -380 c 144 -87 289 -173 433 -260" class="C1" /><path d="M 145670 786505 l 0 -160" class="C1" /><path d="M 178831 12419 c 206 -19 412 -39 596 -115 c 163 -67 308 -179 453 -290" class="C1" /><path d="M 149755 215787 l 0 13072" class="C1" /><path d="M 189831 51730 l -3299 0" class="C1" /><path d="M 107926 965607 l -2574 0" class="C1" /><path d="M 238682 173208 l -954 -37" class="C1" /><path d="M 953 17183 l -912 17411" class="C1" /><path d="M 180151 11680 c 51 -64 102 -128 141 -197 c 98 -174 122 -381 146 -589" class="C1" /><path d="M 149138 781450 c 169 -7 303 -167 303 -363" class="C1" /><path d="M 91556 962644 l -84331 0" class="C1" /><path d="M 146659 163611 l 0 -2877" class="C1" /><path d="M 180438 10894 l -143 579" class="C1" /><path d="M 216635 995110 c 0 6 0 12 0 18 c 3 838 98 1674 193 2509" class="C1" /><path d="M 91556 957898 l 181309 0" class="C1" /><path d="M 236168 51540 l 0 -5697" class="C1" /><path d="M 177209 947361 c 220 128 440 256 660 384 c 219 128 439 256 658 384" class="C1" /><path d="M 241195 178788 l 0 -2903" class="C1" /><path d="M 177355 942554 c 173 -22 347 -43 728 -66 c 18 -1 37 -2 56 -3" class="C1" /><path d="M 237728 183682 l 954 -37" class="C1" /><path d="M 219149 988600 c -667 0 -1306 158 -1778 438 c -471 281 -736 661 -736 1058" class="C1" /><path d="M 237731 816375 c -22 -3 -44 -6 -64 -13 c -26 -8 -49 -22 -71 -38 c -34 -26 -63 -58 -87 -93 c -35 -51 -59 -110 -71 -170 c -8 -40 -11 -82 -13 -123" class="C1" /><path d="M 237728 817948 l 954 26" class="C1" /><path d="M 206659 989106 l -9 168" class="C1" /><path d="M 384847 16982 l 913 17411" class="C1" /><path d="M 120679 11400 l 47269 0" class="C1" /><path d="M 145670 778323 l 0 -757" class="C1" /><path d="M 205577 10726 c -33 -202 -66 -405 -146 -589 c -79 -185 -204 -352 -354 -493 c -149 -142 -323 -258 -511 -327 c -189 -69 -392 -92 -596 -115" class="C1" /><path d="M 206658 989106 l 143 -579" class="C1" /><path d="M 6276 983018 l -456 -17411" class="C1" /><path d="M 178072 956303 l 12416 0" class="C1" /><path d="M 387056 965406 l 0 0" class="C1" /><path d="M 139691 170488 l 0 -1849" class="C1" /><path d="M 266418 988600 c 34 -212 68 -424 107 -587 c 40 -163 86 -278 133 -349 c 35 -52 70 -80 105 -82 c 1 -0 2 -0 4 -0" class="C1" /><path d="M 192371 51095 l 0 -1488" class="C1" /><path d="M 189019 956779 c 30 -1 61 -2 83 -6 c 22 -3 37 -9 44 -16 c 7 -7 7 -16 0 -25 c -7 -10 -22 -21 -44 -32 c -17 -9 -38 -17 -59 -26" class="C1" /><path d="M 236482 815334 l 0 13072" class="C1" /><path d="M 185929 947081 c -34 32 -69 64 -176 97 c -110 34 -298 70 -529 103 c -116 17 -243 33 -381 49 c -343 41 -757 84 -1207 126 c -451 42 -937 84 -1424 126 c -487 42 -973 84 -1424 126 c -451 42 -867 84 -1207 126 c -341 42 -606 84 -807 126 c -200 42 -335 84 -283 126 c 18 14 58 29 98 43" class="C1" /><path d="M 145670 225172 l 628 -1145" class="C1" /><path d="M 290855 10159 c 49 0 98 0 247 0 c 150 0 400 0 704 0 c 304 0 662 0 1053 0 c 392 0 817 0 1242 0" class="C1" /><path d="M 387056 965406 l -4483 0" class="C1" /><path d="M 187239 946325 l 0 -251" class="C1" /><path d="M 146126 780836 l -456 -1101" class="C1" /><path d="M 149441 786596 c 0 -141 -134 -257 -303 -262" class="C1" /><path d="M 255893 34393 l 3779 0" class="C1" /><path d="M 187291 49607 l 0 -6907" class="C1" /><path d="M 240622 174046 l 0 -737" class="C1" /><path d="M 207128 987956 c 83 -73 166 -145 258 -206 c 90 -59 188 -108 289 -147 c 98 -38 198 -67 301 -84 c 97 -16 196 -21 294 -25" class="C1" /><path d="M 177209 943339 c 220 128 440 256 660 383 c 219 128 439 256 658 384" class="C1" /><path d="M 145670 782691 l 456 -1230" class="C1" /><path d="M 240740 816524 l -3012 -119" class="C1" /><path d="M 173602 956674 c 135 -38 269 -77 410 -113 c 145 -37 296 -72 442 -102 c 143 -29 281 -54 406 -71 c 120 -17 227 -27 315 -30 c 85 -3 152 2 198 13 c 45 11 69 28 71 51 c 2 23 -19 51 -60 82 c -43 33 -107 69 -194 106 c -49 21 -104 42 -160 64" class="C1" /><path d="M 247543 12217 l 474 90 l 457 268 l 424 435 l 375 587 l 313 718 l 240 824 l 158 899 l 70 943" class="C1" /><path d="M 241195 817498 l 0 569" class="C1" /><path d="M 4149 962644 c -772 0 -1511 317 -2042 877 c -532 560 -810 1314 -769 2085" class="C1" /><path d="M 235001 981589 l 0 -1066" class="C1" /><path d="M 247323 980523 l 0 2294" class="C1" /><path d="M 183723 956674 c -5 211 -11 423 -13 634 c -2 168 -1 336 -1 504" class="C1" /><path d="M 191774 956653 l 385 0" class="C1" /><path d="M 173818 957811 c -43 11 -87 23 -130 33 c -44 10 -88 19 -129 27 c -41 8 -79 14 -113 19 c -33 5 -62 7 -84 8 c -5 0 -9 0 -14 0" class="C1" /><path d="M 139554 987783 l -474 -90 l -457 -267 l -424 -435 l -375 -587 l -313 -718 l -240 -824 l -70 -335" class="C1" /><path d="M 380821 16982 l 456 17411" class="C1" /><path d="M 386144 982817 l -0 0" class="C1" /><path d="M 6276 983018 l -4026 0" class="C1" /><path d="M 187291 51095 l -1087 136" class="C1" /><path d="M 146126 785871 l 3012 99" class="C1" /><path d="M 129886 168261 l 0 -125958" class="C1" /><path d="M 107389 990296 l 0 7541" class="C1" /><path d="M 182054 9201 l -15 353" class="C1" /><path d="M 166801 988788 l -45191 0" class="C1" /><path d="M 240567 823602 l -2840 35" class="C1" /><path d="M 4979 17183 l 124441 0" class="C1" /><path d="M 187205 54173 c -221 -128 -441 -256 -662 -384 c -220 -128 -440 -256 -660 -384" class="C1" /><path d="M 110761 3381 c -418 -326 -966 -588 -1597 -765" class="C1" /><path d="M 149133 158274 c -843 520 -1317 1474 -1223 2460" class="C1" /><path d="M 172052 49607 l 0 -6907" class="C1" /><path d="M 147910 163611 l 0 -2877" class="C1" /><path d="M 240280 818453 c -37 3 -74 6 -110 12 c -67 11 -133 31 -192 57 c -65 29 -122 64 -170 105 c -52 44 -93 95 -117 147 c -24 52 -31 106 -39 160" class="C1" /><path d="M 187153 947414 c 22 14 44 28 43 42 c -4 42 -218 84 -631 126 c -58 6 -120 12 -183 18" class="C1" /><path d="M 182211 50242 c -1024 -46 -2048 -92 -3058 -241 c -678 -100 -1350 -247 -2021 -394" class="C1" /><path d="M 145670 777566 l 0 -774" class="C1" /><path d="M 178023 941782 c -12 -19 -24 -37 45 -57 c 82 -23 276 -47 532 -71 c 251 -23 561 -45 924 -68 c 361 -23 776 -47 1216 -71 c 426 -23 876 -46 1324 -69 c 449 -23 896 -46 1318 -70 c 407 -23 793 -47 1114 -70 c 273 -20 501 -39 728 -58" class="C1" /><path d="M 240680 816491 l -2949 -116" class="C1" /><path d="M 41 34594 l -0 0" class="C1" /><path d="M 236482 184867 l 628 0" class="C1" /><path d="M 186848 57988 c -102 -59 -203 -118 -305 -177 c -220 -128 -440 -256 -660 -384" class="C1" /><path d="M 169120 997838 l -308 0" class="C1" /><path d="M 102251 12419 c 3818 0 6913 -1125 6913 -2514" class="C1" /><path d="M 148184 776800 l 0 -262" class="C1" /><path d="M 150356 804273 l 0 35193" class="C1" /><path d="M 178238 946449 c -5 0 -10 1 -15 1 c -491 42 -756 84 -868 126 c -74 28 -80 56 -86 84" class="C1" /><path d="M 187153 945403 c 22 14 44 28 43 42 c -4 42 -218 84 -631 126 c -58 6 -120 12 -183 18" class="C1" /><path d="M 107389 990296 l 628 0" class="C1" /><path d="M 237425 828092 l 0 -12443" class="C1" /><path d="M 178530 52404 c -219 128 -437 255 -656 382 c -219 128 -439 255 -658 382" class="C1" /><path d="M 241163 174432 c 21 -43 32 -90 32 -137" class="C1" /><path d="M 149138 786795 l -1 3" class="C1" /><path d="M 267808 990095 c -226 -148 -452 -295 -664 -457 c -216 -165 -416 -345 -568 -554 c -58 -80 -109 -165 -134 -254 c -21 -75 -23 -153 -25 -231" class="C1" /><path d="M 186021 941337 l -112 -112" class="C1" /><path d="M 235001 984525 c 1622 0 2936 -1315 2936 -2936" class="C1" /><path d="M 237110 184867 l 0 -13072" class="C1" /><path d="M 236168 981589 l 1770 0" class="C1" /><path d="M 186141 956674 c 22 12 44 23 74 34 c 30 11 67 21 107 30 c 40 9 83 17 128 23 c 45 6 91 11 134 14 c 33 2 64 3 96 3" class="C1" /><path d="M 168812 997838 l -61423 0" class="C1" /><path d="M 235574 982604 c 367 -207 593 -595 593 -1016" class="C1" /><path d="M 187239 50441 l 0 -200" class="C1" /><path d="M 172644 42303 l -102 397" class="C1" /><path d="M 187239 52452 l 0 -251" class="C1" /><path d="M 177269 57480 c -1 -28 -1 -56 86 -84 c 130 -42 456 -84 868 -126 c 411 -42 908 -84 1475 -126 c 567 -42 1205 -84 1858 -126 c 653 -42 1321 -84 1957 -126 c 637 -42 1243 -84 1759 -126 c 517 -42 945 -84 1293 -126 c 348 -42 617 -84 631 -126 c 5 -14 -19 -28 -43 -42" class="C1" /><path d="M 187239 948336 l 0 -251" class="C1" /><path d="M 277933 997384 l 0 -7289" class="C1" /><path d="M 185910 941225 l -179 -179" class="C1" /><path d="M 189410 42700 l -67 -369" class="C1" /><path d="M 192371 49607 l 0 -6907" class="C1" /><path d="M 135227 164536 l 744 0" class="C1" /><path d="M 269414 991221 c -523 -408 -1058 -783 -1606 -1125" class="C1" /><path d="M 262810 980523 c 5553 0 10055 -4502 10055 -10055" class="C1" /><path d="M 97003 12419 c -36 -292 -73 -583 -183 -849 c -119 -287 -325 -542 -571 -744 c -191 -157 -407 -283 -638 -355 c -213 -67 -440 -89 -666 -111" class="C1" /><path d="M 238682 173002 l -951 -37" class="C1" /><path d="M 117683 8779 l 0 1125" class="C1" /><path d="M 205043 990799 l 0 0" class="C1" /><path d="M 147910 839467 l -1251 0" class="C1" /><path d="M 247323 987581 c 266 0 532 0 785 0 c 253 0 492 0 731 0" class="C1" /><path d="M 177131 949106 l 0 6907" class="C1" /><path d="M 172052 956013 l 5080 0" class="C1" /><path d="M 191865 957898 c 2 -1 4 -2 -3 -6 c -6 -3 -21 -9 -46 -16 c -9 -3 -20 -6 -30 -9" class="C1" /><path d="M 178359 946187 c -46 4 -92 8 -137 12 c -479 42 -753 84 -868 126 c -76 28 -81 56 -86 84" class="C1" /><path d="M 178526 52244 c -2 -0 -3 -1 -5 -1 c -155 -42 -55 -84 95 -126 c 150 -42 352 -84 642 -126 c 290 -42 668 -84 1092 -126 c 423 -42 892 -84 1375 -126 c 483 -42 980 -84 1449 -126 c 469 -42 911 -84 1302 -126 c 392 -42 733 -84 957 -126 c 195 -37 301 -73 407 -110" class="C1" /><path d="M 237425 177049 c 0 41 134 75 303 77" class="C1" /><path d="M 174591 948471 l 7620 0" class="C1" /><path d="M 237728 182208 l 3012 -90" class="C1" /><path d="M 91698 10360 c 425 0 851 0 1242 0 c 392 0 749 -0 1053 -0 c 304 0 554 0 704 0 c 150 0 198 0 247 0" class="C1" /><path d="M 177183 55217 l 0 251" class="C1" /><path d="M 206658 989106 l 15 -290" class="C1" /><path d="M 150356 829713 l -1639 0" class="C1" /><path d="M 237937 981589 l 0 -1066" class="C1" /><path d="M 146244 226843 l 0 511" class="C1" /><path d="M 386144 982817 l 913 -17411" class="C1" /><path d="M 247543 12217 l 130767 0" class="C1" /><path d="M 173413 948346 l -678 316" class="C1" /><path d="M 272866 37356 l 107005 0" class="C1" /><path d="M 185929 943059 c -34 32 -69 64 -176 97 c -110 34 -298 70 -529 103 c -116 17 -243 33 -381 49 c -343 41 -757 83 -1207 126 c -451 42 -937 84 -1424 126 c -487 42 -973 84 -1424 126 c -451 42 -867 84 -1207 126 c -341 42 -606 84 -807 126 c -200 42 -335 84 -283 126 c 18 14 58 29 98 43" class="C1" /><path d="M 216635 995110 l 0 -5014" class="C1" /><path d="M 238682 817715 l 1940 -8" class="C1" /><path d="M 167947 3381 l -57186 0" class="C1" /><path d="M 150698 775427 c 0 -174 -141 -314 -314 -314" class="C1" /><path d="M 139773 12419 c -266 0 -532 0 -785 0 c -253 0 -492 0 -731 0" class="C1" /><path d="M 108536 2363 c 11 6 22 13 59 30 c 36 18 97 47 172 79 c 79 34 173 73 283 108 c 37 12 76 24 116 35" class="C1" /><path d="M 177131 49607 l 0 -6907" class="C1" /><path d="M 180296 11472 c -1 4 -2 7 -3 11 c -50 196 -196 355 -354 493 c -157 139 -325 257 -511 327 c -186 70 -391 92 -596 115" class="C1" /><path d="M 178090 947874 c -70 41 -140 82 -210 123 c -207 121 -415 241 -623 362" class="C1" /><path d="M 41 34594 l 4483 0" class="C1" /><path d="M 382117 982817 l -130768 0" class="C1" /><path d="M 144355 186236 l -1251 0" class="C1" /><path d="M 139554 987783 l -130767 0" class="C1" /><path d="M 187291 956013 l 5080 0" class="C1" /><path d="M 172668 956548 c -42 12 -85 23 -123 34 c -38 11 -73 21 -102 31 c -29 9 -52 17 -69 23 c -17 6 -27 11 -28 14 c -1 2 3 3 8 3" class="C1" /><path d="M 177203 942665 l 109 63" class="C1" /><path d="M 149136 776500 c -4 88 -4 177 1 265" class="C1" /><path d="M 5974 12419 c -2674 0 -4881 2094 -5021 4765" class="C1" /><path d="M 173413 948471 l -1361 635" class="C1" /><path d="M 278561 997637 l -61432 0" class="C1" /><path d="M 149441 787158 c 0 -196 -134 -356 -303 -363" class="C1" /><path d="M 240622 818438 c 66 -7 132 -15 194 -30 c 61 -15 117 -37 166 -63 c 50 -27 92 -57 126 -91 c 36 -35 62 -73 75 -112 c 8 -25 11 -50 14 -76" class="C1" /><path d="M 247543 12217 l -1516 0" class="C1" /><path d="M 185259 59156 l -6567 0" class="C1" /><path d="M 146659 804273 l 141 -1000 l 401 -848 l 600 -567 l 707 -199 l 707 199 l 600 567 l 401 848 l 141 1000" class="C1" /><path d="M 178588 58438 c 4 -12 8 -25 28 -37 c 69 -42 331 -84 642 -126 c 312 -42 674 -84 1092 -126 c 418 -42 891 -84 1375 -126 c 484 -42 978 -84 1449 -126 c 471 -42 918 -84 1302 -126 c 385 -42 707 -84 957 -126 c 250 -42 429 -84 467 -126 c 28 -31 -21 -62 -70 -93" class="C1" /><path d="M 180228 957811 c -1 -168 -3 -336 -6 -504 c -4 -211 -12 -423 -19 -634" class="C1" /><path d="M 241195 173484 l 0 811" class="C1" /><path d="M 180202 956674 c -4 12 -9 23 -4 34 c 5 11 20 21 41 30 c 21 9 49 17 82 23 c 33 6 71 11 112 14 c 31 2 64 3 98 3" class="C1" /><path d="M 237937 45842 l 0 -3539" class="C1" /><path d="M 187003 942318 l 132 -79" class="C1" /><path d="M 187046 942361 l -1025 -1025" class="C1" /><path d="M 147910 195928 l -1251 0" class="C1" /><path d="M 149755 228859 l 628 0" class="C1" /><path d="M 91556 37557 l -85627 0" class="C1" /><path d="M 198576 499698 c 0 2777 -2251 5028 -5028 5028 c -2777 0 -5028 -2251 -5028 -5028 c 0 -2777 2251 -5028 5028 -5028 c 2777 0 5028 2251 5028 5028" class="C1" /><path d="M 149138 786334 l -3012 -99" class="C1" /><path d="M 145670 226335 l 0 -1163" class="C1" /><path d="M 149138 216863 c 169 -9 303 -214 303 -465" class="C1" /><path d="M 169120 997838 c 96 -831 192 -1663 195 -2496 c 0 -6 0 -12 0 -18" class="C1" /><path d="M 279383 2308 c -1022 166 -2220 465 -3446 860" class="C1" /><path d="M 146659 839467 l 0 -2877" class="C1" /><path d="M 148184 776800 l 0 681" class="C1" /><path d="M 180224 957821 c -246 22 -492 45 -644 67 c -23 3 -44 7 -65 10" class="C1" /><path d="M 169968 2363 c -474 0 -1224 378 -2020 1018" class="C1" /><path d="M 382574 965406 l -456 17411" class="C1" /><path d="M 206659 989106 l -0 0" class="C1" /><path d="M 128696 183328 c -84 3503 1606 6812 4492 8798" class="C1" /><path d="M 169314 990296 l -0 0" class="C1" /><path d="M 41 34594 c -40 771 238 1525 769 2085 c 532 560 1270 877 2042 877" class="C1" /><path d="M 170461 9905 c -0 667 265 1306 736 1778 c 471 471 1111 736 1778 736" class="C1" /><path d="M 236168 828092 c 0 174 141 314 314 314" class="C1" /><path d="M 129421 984525 l 0 -2936" class="C1" /><path d="M 238682 818441 l -954 -26" class="C1" /><path d="M 189235 957811 c -37 -17 -74 -34 -107 -51 c -74 -38 -130 -75 -138 -102 c -3 -11 1 -20 6 -29" class="C1" /><path d="M 206650 989274 l -0 0" class="C1" /><path d="M 236168 957898 l 0 -3539" class="C1" /><path d="M 182211 50242 l -7620 0" class="C1" /><path d="M 146126 780836 l 3012 -11" class="C1" /><path d="M 178222 58686 l 470 470" class="C1" /><path d="M 237731 827366 c 1 -54 -0 -107 -3 -161" class="C1" /><path d="M 177825 956674 c 79 -38 157 -77 259 -113 c 104 -37 233 -72 371 -102 c 136 -29 281 -54 428 -71 c 142 -17 286 -27 424 -30 c 133 -3 259 2 373 13 c 112 11 212 28 293 51 c 83 23 147 51 191 82 c 45 33 69 69 64 106 c -3 21 -14 42 -26 64" class="C1" /><path d="M 189050 948346 l 1285 126" class="C1" /><path d="M 191778 957898 c 41 -162 83 -324 125 -487 c 55 -211 110 -422 166 -633" class="C1" /><path d="M 172052 51095 l 1361 635" class="C1" /><path d="M 240622 819502 l -1940 -244" class="C1" /><path d="M 40 34594 c -40 771 238 1525 769 2085 c 532 560 1270 877 2042 877" class="C1" /><path d="M 167947 11400 l -0 -8019" class="C1" /><path d="M 108017 996775 c -2 4 -3 9 -5 13 c -110 302 -204 603 -299 904" class="C1" /><path d="M 378310 12217 l 1516 0" class="C1" /><path d="M 235001 17446 l 573 0" class="C1" /><path d="M 240679 816494 c 1 -1 2 -2 4 -2 c 9 -2 32 15 56 32" class="C1" /><path d="M 240740 816524 l 456 437" class="C1" /><path d="M 138257 12419 l -130768 0" class="C1" /><path d="M 290094 987581 c 36 292 73 583 183 849 c 119 287 325 542 571 744 c 191 157 407 283 638 355 c 213 67 440 89 666 111" class="C1" /><path d="M 150383 215787 l -628 0" class="C1" /><path d="M 237425 815648 c 0 -174 -141 -314 -314 -314" class="C1" /><path d="M 177183 51195 l 0 251" class="C1" /><path d="M 175774 956013 l 0 290" class="C1" /><path d="M 148184 216900 l 0 -30" class="C1" /><path d="M 269414 991221 l 0 -1126" class="C1" /><path d="M 5929 37557 c -438 0 -875 0 -1255 0 c -393 0 -723 0 -998 -0 c -275 0 -494 0 -622 0 c -124 0 -163 0 -202 0" class="C1" /><path d="M 205043 990799 c 204 -23 408 -45 596 -115 c 189 -69 362 -186 511 -327 c 149 -142 274 -309 354 -493 c 79 -185 112 -387 146 -589" class="C1" /><path d="M 133188 164536 c -2887 1986 -4576 5295 -4492 8798" class="C1" /><path d="M 149138 227650 l 0 -3588" class="C1" /><path d="M 382948 37356 c 772 0 1511 -317 2042 -877 c 532 -560 810 -1314 769 -2085" class="C1" /><path d="M 299406 12217 c -36 -292 -73 -583 -183 -849 c -119 -287 -325 -542 -571 -744 c -191 -157 -407 -283 -638 -355 c -213 -67 -440 -89 -666 -111" class="C1" /><path d="M 237425 827802 c 5 -60 11 -120 28 -177 c 18 -57 47 -110 87 -156 c 26 -30 56 -56 92 -76 c 21 -12 45 -21 70 -25 c 9 -2 19 -2 29 -3" class="C1" /><path d="M 275937 3168 l -55641 0" class="C1" /><path d="M 178832 12419 l -39058 0" class="C1" /><path d="M 172784 948769 l 1214 -423" class="C1" /><path d="M 149138 785971 l 0 -4521" class="C1" /><path d="M 150384 228859 c 174 0 314 -141 314 -314" class="C1" /><path d="M 172557 42303 c -2 1 -4 2 3 6 c 6 3 20 9 46 16 c 9 3 20 6 30 9" class="C1" /><path d="M 177183 57228 l 0 419" class="C1" /><path d="M 279708 9704 l -628 0" class="C1" /><path d="M 150356 839467 l -141 1000 l -401 848 l -600 567 l -707 199 l -707 -199 l -600 -567 l -401 -848 l -141 -1000" class="C1" /><path d="M 149138 218846 c 169 -11 303 -276 303 -598" class="C1" /><path d="M 4979 17183 l 70 -943 l 158 -899 l 240 -824 l 313 -718 l 375 -587 l 424 -435 l 457 -268 l 474 -90" class="C1" /><path d="M 185730 59156 l -471 0" class="C1" /><path d="M 219149 988600 l 0 -1018" class="C1" /><path d="M 135227 814027 l 0 -5952" class="C1" /><path d="M 236168 18613 l 1770 0" class="C1" /><path d="M 192159 956779 c -56 211 -112 422 -167 633 c -43 162 -85 324 -127 487" class="C1" /><path d="M 386144 982817 l -4026 0" class="C1" /><path d="M 133188 808075 c -2887 1986 -4576 5295 -4492 8798" class="C1" /><path d="M 135227 808075 l 744 0" class="C1" /><path d="M 172292 956763 l -29 -110" class="C1" /><path d="M 149441 786726 l 0 -11298" class="C1" /><path d="M 186530 957898 c -43 -1 -85 -2 -129 -6 c -44 -3 -90 -9 -134 -16 c -44 -7 -86 -16 -124 -25 c -38 -10 -72 -21 -100 -32 c -6 -3 -12 -5 -18 -8" class="C1" /><path d="M 190733 956242 l -245 -66" class="C1" /><path d="M 187291 949106 c 336 -147 672 -294 1011 -394 c 505 -149 1017 -195 1529 -241" class="C1" /><path d="M 180187 15676 c 19 -367 38 -734 57 -1085 c 41 -789 78 -1494 107 -2046 c 29 -551 50 -951 71 -1351" class="C1" /><path d="M 177596 942141 l -413 413" class="C1" /><path d="M 265487 12217 l 0 -1006" class="C1" /><path d="M 206783 988563 l 899 -1225" class="C1" /><path d="M 183127 990799 l 21916 0" class="C1" /><path d="M 237728 182630 c 5 -141 5 -281 0 -422" class="C1" /><path d="M 172602 956674 c -43 12 -86 23 -125 34 c -39 11 -75 21 -106 30 c -31 9 -56 17 -75 23 c -19 6 -32 11 -35 14 c -3 2 -0 3 2 3" class="C1" /><path d="M 266418 988600 l -47269 0" class="C1" /><path d="M 149138 776503 c 169 -7 303 -167 303 -363" class="C1" /><path d="M 187239 948084 c -74 42 -149 84 -383 126 c -234 42 -627 84 -1090 126 c -463 42 -995 84 -1631 126 c -51 3 -102 7 -154 10" class="C1" /><path d="M 143104 813965 c 2329 -471 3888 -2675 3555 -5028" class="C1" /><path d="M 140942 814027 l 0 -62" class="C1" /><path d="M 91556 29734 l 0 9915" class="C1" /><path d="M 178359 948198 c -46 4 -93 8 -137 12 c -474 42 -671 84 -868 126" class="C1" /><path d="M 101039 987783 c 437 10 875 21 1311 56 c 807 66 1611 218 2385 462 c 531 168 1049 379 1528 666 c 343 206 667 451 909 775 c 83 112 157 233 189 365 c 15 62 22 126 28 190" class="C1" /><path d="M 139691 814027 l 0 -62" class="C1" /><path d="M 233232 957898 l -0 -915595" class="C1" /><path d="M 146126 218462 l -456 -400" class="C1" /><path d="M 237937 19678 l 0 -1066" class="C1" /><path d="M 178526 56266 c -2 -0 -3 -1 -5 -1 c -155 -42 -55 -84 95 -126 c 150 -42 352 -84 642 -126 c 290 -42 668 -84 1092 -126 c 423 -42 892 -84 1375 -126 c 483 -42 980 -84 1449 -126 c 469 -42 911 -84 1302 -126 c 392 -42 733 -84 957 -126 c 195 -37 301 -73 407 -110" class="C1" /><path d="M 146126 785871 l -456 -1243" class="C1" /><path d="M 166801 987783 l 0 17 l 0 50 l 0 83 l 0 115 l 0 145 l 0 173 l 0 199 l 0 222" class="C1" /><path d="M 298619 989640 c 8 0 15 0 20 0 c 44 0 -114 0 -317 -0 c -203 0 -450 0 -762 0 c -312 0 -689 0 -1091 0 c -402 0 -828 0 -1254 0" class="C1" /><path d="M 145670 786505 c 0 35 249 73 574 88" class="C1" /><path d="M 172263 956779 c 56 211 112 422 167 633 c 43 162 85 324 127 487" class="C1" /><path d="M 146244 217291 c -325 23 -574 128 -574 243" class="C1" /><path d="M 174591 948471 c 395 27 790 55 1182 145 c 456 106 907 297 1358 489" class="C1" /><path d="M 183709 957811 c -6 11 -12 23 -27 33 c -15 10 -40 19 -69 27 c -30 8 -65 14 -104 19 c -39 5 -82 7 -127 8 c -10 0 -20 0 -30 0" class="C1" /><path d="M 146659 195928 l 0 -4664" class="C1" /><path d="M 145670 218062 l 0 2199" class="C1" /><path d="M 5929 37557 l -284 -58 l -272 -171 l -249 -277 l -216 -372 l -174 -451 l -125 -512 l -71 -552 l -14 -570" class="C1" /><path d="M 148717 186174 l 0 -15686" class="C1" /><path d="M 191009 50242 l -1179 0" class="C1" /><path d="M 4523 34594 l 456 -17411" class="C1" /><path d="M 146126 218927 c 21 -52 42 -104 55 -154 c 14 -50 20 -98 20 -141 c -0 -39 -6 -74 -19 -101 c -14 -30 -35 -49 -56 -69" class="C1" /><path d="M 191121 956779 l 948 0" class="C1" /><path d="M 177207 55500 c 220 128 440 256 660 384 c 219 128 439 256 658 384" class="C1" /><path d="M 183352 957898 c -1 -162 -1 -324 1 -487 c 3 -211 10 -422 17 -633" class="C1" /><path d="M 121609 988788 l -10450 8044" class="C1" /><path d="M 236168 944303 l 1770 0" class="C1" /><path d="M 146659 836590 c 333 -2353 -1226 -4557 -3555 -5028" class="C1" /><path d="M 87691 987783 c 36 292 73 583 183 849 c 119 287 325 542 571 744 c 191 157 407 282 638 355 c 213 67 440 89 666 111" class="C1" /><path d="M 144355 168639 l -1251 0" class="C1" /><path d="M 181384 984525 c 19 364 38 727 57 1087 c 46 882 92 1738 118 2239 c 0 7 1 13 1 20" class="C1" /><path d="M 116434 990296 l -8416 0" class="C1" /><path d="M 167947 11400 c 1388 0 2514 -670 2514 -1496" class="C1" /><path d="M 178090 943852 c -70 41 -140 82 -210 123 c -220 128 -440 256 -660 383" class="C1" /><path d="M 189263 42700 l -68 -397" class="C1" /><path d="M 237937 957898 l 0 -3539" class="C1" /><path d="M 272866 39648 l 0 2655" class="C1" /><path d="M 187291 49607 c -425 95 -851 191 -1279 268 c -1251 226 -2526 296 -3801 366" class="C1" /><path d="M 129421 18613 l 0 -2936" class="C1" /><path d="M 121609 987783 l 0 1005" class="C1" /><path d="M 146244 226843 l 1940 208" class="C1" /><path d="M 150383 786982 l 0 -11869" class="C1" /><path d="M 384847 16982 c -140 -2671 -2346 -4765 -5021 -4765" class="C1" /><path d="M 101612 980523 l 161199 0" class="C1" /><path d="M 6702 37557 l 0 925088" class="C1" /><path d="M 190729 956367 l -241 -65" class="C1" /><path d="M 40 34594 l 912 -17411" class="C1" /><path d="M 148717 814027 l 1639 0" class="C1" /><path d="M 178606 15676 c 13 -194 27 -389 39 -574 c 34 -490 64 -919 91 -1305 c 32 -457 59 -854 72 -1039 c 6 -87 9 -127 12 -167" class="C1" /><path d="M 187239 945654 l 0 -251" class="C1" /><path d="M 177131 51095 l 0 -853" class="C1" /><path d="M 190604 42390 c 43 -11 87 -23 130 -33 c 44 -10 88 -19 129 -27 c 41 -8 79 -14 113 -19 c 33 -5 62 -7 84 -8 c 5 -0 9 -0 14 -0" class="C1" /><path d="M 188648 42700 l 0 -290" class="C1" /><path d="M 135227 808075 l -2039 0" class="C1" /><path d="M 149441 228545 l 0 -12443" class="C1" /><path d="M 129421 981589 l 105581 0" class="C1" /><path d="M 146244 776705 l 1940 -89" class="C1" /><path d="M 150384 788185 c 174 0 314 -141 314 -314" class="C1" /><path d="M 149441 216398 c -5 60 -11 120 -28 177 c -18 57 -47 110 -87 156 c -26 30 -56 56 -92 75 c -21 11 -45 20 -69 24 c -10 2 -19 2 -29 3" class="C1" /><path d="M 241195 824740 l 0 1424" class="C1" /><path d="M 88452 10360 c -292 36 -583 73 -848 183 c -287 119 -542 325 -744 571 c -157 191 -283 407 -355 638 c -67 213 -89 440 -111 666" class="C1" /><path d="M 121609 988788 c -1499 394 -3368 939 -5176 1508" class="C1" /><path d="M 262810 970467 c 0 2777 -2251 5028 -5028 5028 c -2777 0 -5028 -2251 -5028 -5028 c 0 -2777 2251 -5028 5028 -5028 c 2777 0 5028 2251 5028 5028" class="C1" /><path d="M 150698 957898 l 0 -915595" class="C1" /><path d="M 91556 960553 l 0 -2655" class="C1" /><path d="M 187235 948096 c -217 -127 -434 -253 -651 -380 c -217 -127 -435 -253 -652 -380" class="C1" /><path d="M 147910 804273 l -1251 0" class="C1" /><path d="M 175187 42390 l -30 229" class="C1" /><path d="M 235001 15676 l -105581 0" class="C1" /><path d="M 237730 172966 l -1 2 l -1 12" class="C1" /><path d="M 188648 956303 l 0 -290" class="C1" /><path d="M 139691 813965 l 3413 0" class="C1" /><path d="M 239939 818701 l 0 715" class="C1" /><path d="M 248240 42303 l 0 915595" class="C1" /><path d="M 145670 218062 l 0 -528" class="C1" /><path d="M 205724 15676 c -23 -431 -45 -862 -68 -1288 c -46 -881 -92 -1739 -118 -2239 c -0 -7 -1 -13 -1 -20" class="C1" /><path d="M 191073 42303 l 102 397" class="C1" /><path d="M 240622 818438 l 0 -732" class="C1" /><path d="M 175186 957686 c -23 11 -46 23 -60 33 c -14 10 -19 19 -17 27 c 2 8 10 14 27 19 c 17 4 43 6 69 8" class="C1" /><path d="M 379607 987581 c 219 0 439 0 628 0 c 189 -0 349 0 482 0 c 133 0 240 0 303 0 c 63 0 83 0 103 0" class="C1" /><path d="M 208477 984525 c -9 126 -17 252 -26 373 c -34 495 -65 921 -91 1305 c -32 456 -59 854 -72 1039 c -6 87 -9 127 -12 167" class="C1" /><path d="M 178588 50394 c 3 -12 6 -25 28 -37 c 70 -39 330 -77 591 -116" class="C1" /><path d="M 117683 8779 c 523 408 1058 783 1606 1125" class="C1" /><path d="M 181520 989274 c -4 -84 -9 -168 -25 -469 c -16 -304 -43 -829 -71 -1354" class="C1" /><path d="M 187291 51095 l 0 -853" class="C1" /><path d="M 379007 37356 l 0 925087" class="C1" /><path d="M 145670 777566 c 0 137 89 258 219 299" class="C1" /><path d="M 173350 957898 c -42 -162 -84 -324 -125 -487 c -53 -211 -104 -422 -155 -633" class="C1" /><path d="M 241195 820225 c 0 -368 -249 -682 -574 -723" class="C1" /><path d="M 96242 989841 c 292 -36 583 -73 849 -183 c 287 -119 542 -325 744 -571 c 157 -191 283 -407 355 -638 c 67 -213 89 -440 111 -666" class="C1" /><path d="M 149138 218381 c -5 155 -5 310 0 465" class="C1" /><path d="M 177269 53458 c -1 -28 -1 -56 86 -84 c 130 -42 456 -84 868 -126 c 411 -42 908 -84 1475 -126 c 567 -42 1205 -84 1858 -126 c 653 -42 1321 -84 1957 -126 c 637 -42 1243 -84 1759 -126 c 517 -42 945 -84 1293 -126 c 348 -42 617 -84 631 -126 c 5 -14 -19 -28 -43 -42" class="C1" /><path d="M 177440 957898 c -26 -162 -53 -324 -77 -487 c -31 -211 -59 -422 -86 -633" class="C1" /><path d="M 128696 826867 c -84 3503 1606 6812 4492 8798" class="C1" /><path d="M 148717 829713 l 0 -15686" class="C1" /><path d="M 237728 818415 c 5 -156 5 -312 0 -467" class="C1" /><path d="M 153634 42303 l 0 915595" class="C1" /><path d="M 189831 948471 c 637 70 1275 141 1900 366 c 214 77 427 173 640 268" class="C1" /><path d="M 139691 831562 l 0 -1849" class="C1" /><path d="M 149135 216833 l -951 37" class="C1" /><path d="M 178529 946279 c -219 127 -437 255 -656 382 c -219 128 -438 255 -658 382" class="C1" /><path d="M 172263 956653 c -2 -1 -5 -2 2 -6 c 7 -3 23 -9 46 -16 c 22 -7 50 -16 83 -25 c 33 -10 71 -21 112 -32 c 31 -9 63 -17 96 -26" class="C1" /><path d="M 145670 220261 l 456 -1334" class="C1" /><path d="M 147910 160734 l -1251 0" class="C1" /><path d="M 92992 989841 c -425 0 -851 0 -1242 0 c -391 0 -749 0 -1052 0 c -304 0 -554 0 -703 0 c -149 0 -197 0 -245 0" class="C1" /><path d="M 205308 984525 c -4 107 -9 214 -13 320 c -23 545 -44 1059 -65 1550 c -33 788 -65 1515 -91 2142 c -32 744 -57 1350 -72 1705 c -14 337 -19 448 -24 558" class="C1" /><path d="M 235001 984525 l -105581 0" class="C1" /><path d="M 143104 168639 c 2329 -471 3888 -2675 3555 -5028" class="C1" /><path d="M 235001 18613 l -105581 0" class="C1" /><path d="M 237110 815334 l -628 0" class="C1" /><path d="M 191121 956779 c -50 211 -100 422 -152 633 c -40 162 -81 324 -122 487" class="C1" /><path d="M 238682 183469 l 1940 -116" class="C1" /><path d="M 237728 823638 l 0 3567" class="C1" /><path d="M 187291 42700 l -10159 0" class="C1" /><path d="M 135227 192126 l 0 -5952" class="C1" /><path d="M 279079 9704 c 0 667 728 1306 2025 1778 c 1296 471 3055 736 4888 736" class="C1" /><path d="M 290855 10159 c -292 36 -583 73 -849 183 c -287 119 -542 325 -744 571 c -157 191 -283 407 -355 638 c -67 213 -89 440 -111 666" class="C1" /><path d="M 276335 996619 c 418 326 966 588 1597 765" class="C1" /><path d="M 206649 989274 c 5 -92 10 -184 25 -469 c 15 -288 41 -773 71 -1354 c 30 -581 66 -1257 107 -2044 c 15 -285 31 -584 46 -884" class="C1" /><path d="M 135227 835665 l 0 -5952" class="C1" /><path d="M 241195 816962 l 0 536" class="C1" /><path d="M 236168 954359 l 0 -5697" class="C1" /><path d="M 203970 9201 l -21916 0" class="C1" /><path d="M 128696 173334 l 0 9994" class="C1" /><path d="M 148184 777481 l -1940 231" class="C1" /><path d="M 246027 16982 l 0 -4765" class="C1" /><path d="M 177183 943057 l 0 251" class="C1" /><path d="M 191009 51730 l 1361 -635" class="C1" /><path d="M 149138 786795 l 0 -461" class="C1" /><path d="M 2250 983018 c 140 2671 2346 4765 5021 4765" class="C1" /><path d="M 237425 172558 c 0 227 134 414 303 422" class="C1" /><path d="M 177207 51478 c 220 128 440 256 660 384 c 219 128 439 256 658 384" class="C1" /><path d="M 277933 990095 l 628 0" class="C1" /><path d="M 149441 787871 c 0 174 141 314 314 314" class="C1" /><path d="M 237731 816375 c -2 10 -3 20 -3 31" class="C1" /><path d="M 187239 944313 l 0 -251" class="C1" /><path d="M 182211 948471 c 790 27 1581 55 2363 145 c 912 106 1814 297 2716 489" class="C1" /><path d="M 135227 192126 l 744 0" class="C1" /><path d="M 178090 945863 c -70 41 -140 82 -210 123 c -220 128 -440 256 -660 383" class="C1" /><path d="M 8786 987783 l -474 -90 l -457 -267 l -424 -435 l -375 -587 l -313 -718 l -240 -824 l -158 -899 l -70 -943" class="C1" /><path d="M 220296 12217 l 0 -1006" class="C1" /><path d="M 185866 53267 c 217 -127 434 -254 651 -381 c 217 -127 435 -254 653 -381" class="C1" /><path d="M 177203 944676 l 109 63" class="C1" /><path d="M 173413 948471 l 1179 0" class="C1" /><path d="M 277933 990095 l -8519 0" class="C1" /><path d="M 171828 987783 c -1388 0 -2514 1125 -2514 2514" class="C1" /><path d="M 145670 779735 l 0 2957" class="C1" /><path d="M 185997 941361 c 50 41 99 81 119 122 c 41 81 -35 163 -166 240 c -142 84 -347 163 -617 240 c -270 77 -603 152 -978 228 c -427 86 -907 174 -1415 254 c -239 38 -484 74 -729 110" class="C1" /><path d="M 145670 777566 c 8 15 16 30 41 44 c 26 15 69 30 123 43 c 51 12 112 23 180 31 c 63 7 131 13 201 15 c 9 0 19 0 28 1" class="C1" /><path d="M 177207 57511 c 220 128 440 256 660 384 c 219 128 439 256 658 384" class="C1" /><path d="M 381123 987581 c 2674 0 4881 -2094 5021 -4765" class="C1" /><path d="M 178692 941046 l -680 680" class="C1" /><path d="M 240266 818534 c 12 -25 17 -53 15 -81" class="C1" /><path d="M 272866 39648 l 0 -9915" class="C1" /><path d="M 237425 815938 c 0 252 134 458 303 467" class="C1" /><path d="M 148184 227775 l 951 37" class="C1" /><path d="M 173533 42303 l 401 107" class="C1" /><path d="M 148717 170488 l 1639 0" class="C1" /><path d="M 189398 42632 c 10 -0 19 -1 29 -1 c 91 -5 219 -27 348 -51 c 132 -24 265 -51 401 -82 c 141 -32 286 -69 421 -106 c 2 -1 4 -1 6 -2" class="C1" /><path d="M 149138 227650 c -3 54 -4 109 -3 163" class="C1" /><path d="M 175774 42410 l 0 290" class="C1" /><path d="M 108017 996775 l 8416 -6479" class="C1" /><path d="M 238682 173827 l 0 -618" class="C1" /><path d="M 276335 996619 l -6922 -5398" class="C1" /><path d="M 169968 2363 l 301 0" class="C1" /><path d="M 272866 42303 l -181309 0" class="C1" /><path d="M 146244 786593 l 1940 89" class="C1" /><path d="M 139691 186236 l 0 -62" class="C1" /><path d="M 140942 186236 l 0 -62" class="C1" /><path d="M 241195 182812 l 0 366" class="C1" /><path d="M 217129 997637 l -300 0" class="C1" /><path d="M 185919 945325 c -54 40 -108 80 -269 119 c -170 42 -458 84 -807 126 c -349 42 -759 84 -1207 126 c -449 42 -936 84 -1424 126 c -488 42 -976 84 -1424 126 c -448 42 -855 84 -1207 126 c -353 42 -651 84 -807 126 c -100 27 -141 54 -183 81" class="C1" /><path d="M 139691 168639 l 3413 0" class="C1" /><path d="M 149755 788185 l 628 0" class="C1" /><path d="M 149441 786596 c 0 -337 -134 -614 -303 -625" class="C1" /><path d="M 186803 948471 l 183 -110" class="C1" /><path d="M 190578 956674 c 40 12 80 23 123 34 c 43 11 88 21 132 30 c 44 9 86 17 125 23 c 39 6 75 11 105 14 c 22 2 40 3 58 3" class="C1" /><path d="M 272866 34393 l 108411 0" class="C1" /><path d="M 237731 827366 l 2949 -116" class="C1" /><path d="M 240607 818520 c 14 -24 19 -53 15 -81" class="C1" /><path d="M 149138 781450 l -3012 11" class="C1" /><path d="M 181560 987870 c 30 569 60 1137 77 1469 c 18 337 23 430 28 523" class="C1" /><path d="M 240622 174046 l -1940 -220" class="C1" /><path d="M 380395 37356 l 0 925087" class="C1" /><path d="M 192068 956779 c 5 -1 9 -2 5 -6 c -5 -3 -19 -9 -39 -16 c -20 -7 -46 -16 -78 -25 c -32 -10 -68 -21 -108 -32 c -30 -9 -62 -17 -94 -26" class="C1" /><path d="M 150383 228859 l 0 -13072" class="C1" /><path d="M 146244 776705 c -325 15 -574 53 -574 88" class="C1" /><path d="M 150356 228859 l 0 546254" class="C1" /><path d="M 185932 941297 c -56 42 -112 84 -283 126 c -171 42 -458 84 -807 126 c -348 42 -759 84 -1207 126 c -449 42 -936 84 -1424 126 c -488 42 -976 84 -1424 126 c -448 42 -855 84 -1207 126 c -353 42 -651 84 -807 126 c -100 27 -141 54 -183 81" class="C1" /><path d="M 191009 50242 l 1361 -635" class="C1" /><path d="M 135227 170488 l 0 -5952" class="C1" /><path d="M 109164 9905 l -628 0" class="C1" /><path d="M 185224 941248 c -123 16 -245 33 -381 49 c -336 41 -755 84 -1207 126 c -452 42 -938 84 -1424 126 c -486 42 -973 84 -1424 126 c -451 42 -867 84 -1207 126 c -341 42 -606 84 -807 126 c -200 42 -335 84 -283 126 c 18 14 58 29 98 43" class="C1" /><path d="M 173998 948346 l 732 126" class="C1" /><path d="M 382117 982817 l -70 943 l -158 899 l -240 824 l -313 718 l -375 587 l -424 435 l -457 268 l -474 90" class="C1" /><path d="M 241195 180817 l -456 1301" class="C1" /><path d="M 174876 956751 l 202 1119" class="C1" /><path d="M 237728 173172 c 4 -69 5 -137 2 -206" class="C1" /><path d="M 186026 957811 c 19 -168 38 -336 56 -504 c 22 -211 41 -423 59 -634" class="C1" /><path d="M 251350 982817 l 60 -2294" class="C1" /><path d="M 173934 956303 l 4139 0" class="C1" /><path d="M 279708 9704 l 0 -7541" class="C1" /><path d="M 187239 943643 l 0 -251" class="C1" /><path d="M 187239 944062 c -76 42 -151 84 -383 126 c -232 42 -619 84 -1090 126 c -471 42 -1025 84 -1631 126 c -606 42 -1265 84 -1924 126 c -659 42 -1318 84 -1924 126 c -606 42 -1160 84 -1631 126 c -471 42 -858 84 -1090 126 c -232 42 -307 84 -383 126" class="C1" /><path d="M 178530 50393 c -219 127 -437 255 -656 382 c -219 128 -439 255 -658 382" class="C1" /><path d="M 177355 942554 l -114 112" class="C1" /><path d="M 379871 37356 c 433 0 867 0 1255 0 c 401 0 754 0 998 0 c 125 0 222 0 319 0" class="C1" /><path d="M 216635 990095 c -0 -1388 -1125 -2514 -2514 -2514" class="C1" /><path d="M 2250 983018 l -912 -17411" class="C1" /><path d="M 101612 19678 c -5553 0 -10055 4502 -10055 10055" class="C1" /><path d="M 146244 777712 c -325 39 -574 304 -574 611" class="C1" /><path d="M 149138 785971 c -5 121 -5 242 0 363" class="C1" /><path d="M 237425 817818 c 0 70 134 127 303 130" class="C1" /><path d="M 189235 957811 l 30 -229" class="C1" /><path d="M 240740 182118 c -21 50 -42 101 -55 148 c -14 48 -20 92 -19 131 c 0 36 6 67 19 89 c 14 25 35 39 56 54" class="C1" /><path d="M 180187 15676 c 19 -354 37 -707 54 -1039 c 40 -759 74 -1404 104 -1981 c 30 -577 57 -1087 68 -1307 c 4 -77 6 -119 8 -160" class="C1" /><path d="M 148184 227491 l -1940 -136" class="C1" /><path d="M 150356 839467 l 0 118431" class="C1" /><path d="M 240740 827086 c -21 34 -42 67 -55 94 c -14 27 -20 46 -19 57 c 0 11 6 15 19 11 c 14 -4 35 -18 56 -32" class="C1" /><path d="M 241195 826164 l -456 922" class="C1" /><path d="M 279079 9704 l 0 -6479" class="C1" /><path d="M 173602 956674 c 39 211 78 423 118 634 c 32 168 65 336 98 504" class="C1" /><path d="M 146126 218462 l 3012 -82" class="C1" /><path d="M 129421 19678 l 0 -1066" class="C1" /><path d="M 237110 171795 l -628 0" class="C1" /><path d="M 135971 835665 l 0 -5952" class="C1" /><path d="M 173934 956303 l -241 65" class="C1" /><path d="M 147910 836590 l -1251 0" class="C1" /><path d="M 108017 990296 c 0 -667 -728 -1306 -2025 -1778 c -1296 -471 -3055 -736 -4888 -736" class="C1" /><path d="M 187205 52162 c -221 -128 -441 -256 -662 -384 c -220 -128 -440 -256 -660 -384" class="C1" /><path d="M 150356 788185 l 0 16089" class="C1" /><path d="M 272866 29734 c 0 -5553 -4502 -10055 -10055 -10055" class="C1" /><path d="M 187291 949106 l 0 6907" class="C1" /><path d="M 181442 987783 l -40372 0" class="C1" /><path d="M 180423 11184 c -2 42 -4 85 -9 165 c -12 221 -38 730 -68 1306 c -30 577 -64 1223 -104 1982 c -17 332 -36 685 -54 1039" class="C1" /><path d="M 236482 815334 c -174 0 -314 141 -314 314" class="C1" /><path d="M 192371 42700 l -5080 0" class="C1" /><path d="M 149135 227813 c 22 3 44 6 64 13 c 26 8 49 22 70 38 c 34 26 63 57 86 91 c 35 51 59 109 72 169 c 8 41 11 83 14 124" class="C1" /><path d="M 237937 45842 l 0 10055" class="C1" /><path d="M 140942 170488 l 0 -1849" class="C1" /><path d="M 188648 956177 l 1841 0" class="C1" /><path d="M 220296 3168 c -791 -633 -1536 -1006 -2011 -1006" class="C1" /><path d="M 147910 163611 l -1251 0" class="C1" /><path d="M 178588 56427 c 4 -12 8 -25 28 -37 c 69 -42 331 -84 642 -126 c 312 -42 674 -84 1092 -126 c 418 -42 891 -84 1375 -126 c 484 -42 978 -84 1449 -126 c 471 -42 918 -84 1302 -126 c 385 -42 707 -84 957 -126 c 250 -42 429 -84 467 -126 c 28 -31 -21 -62 -70 -93" class="C1" /><path d="M 148184 786683 l 0 77" class="C1" /><path d="M 208277 987409 l -12 172" class="C1" /><path d="M 146126 786235 c 21 -8 42 -16 55 -34 c 14 -18 20 -46 20 -80 c -0 -31 -6 -68 -19 -108 c -14 -44 -35 -93 -56 -142" class="C1" /><path d="M 109164 9905 l 8519 0" class="C1" /><path d="M 173998 948346 l 4399 0" class="C1" /><path d="M 241195 182812 l 0 -1995" class="C1" /><path d="M 190664 42700 l -60 -310" class="C1" /><path d="M 177207 53489 c 220 128 440 256 660 384 c 219 128 439 256 658 384" class="C1" /><path d="M 212286 499698 c 0 10413 -8441 18854 -18854 18854 c -10413 0 -18854 -8441 -18854 -18854 c 0 -10413 8441 -18854 18854 -18854 c 10413 0 18854 8441 18854 18854" class="C1" /><path d="M 166801 996832 c 791 633 1536 1006 2011 1006" class="C1" /><path d="M 237937 55898 l -1770 0" class="C1" /><path d="M 149138 218846 l -3012 82" class="C1" /><path d="M 91556 960553 l 181309 0" class="C1" /><path d="M 215269 12217 c 667 0 1306 -265 1778 -736 c 471 -471 736 -1111 736 -1778" class="C1" /><path d="M 150356 160734 l 0 35194" class="C1" /><path d="M 150356 42303 l 0 118431" class="C1" /><path d="M 149138 776765 c 169 -12 303 -288 303 -625" class="C1" /><path d="M 185866 57289 c 217 -127 434 -254 651 -381 c 217 -127 435 -254 653 -381" class="C1" /><path d="M 237730 183696 l 951 -37" class="C1" /><path d="M 147910 836590 c 333 -2353 -1226 -4557 -3555 -5028" class="C1" /><path d="M 177131 49607 l -2540 635" class="C1" /><path d="M 172454 42700 l 104 -397" class="C1" /><path d="M 147910 195928 c -94 986 380 1940 1223 2460" class="C1" /><path d="M 143104 831562 l -3413 0" class="C1" /><path d="M 177277 956779 c 42 -1 83 -2 127 -6 c 44 -3 90 -9 134 -16 c 44 -7 87 -16 126 -25 c 39 -10 75 -21 104 -32 c 22 -9 39 -17 56 -26" class="C1" /><path d="M 187193 943683 c 1 1 2 2 2 2 c 27 31 -221 62 -468 93" class="C1" /><path d="M 147910 839467 c -94 986 380 1940 1223 2460" class="C1" /><path d="M 177203 946688 l 109 63" class="C1" /><path d="M 147910 808938 l 0 -4664" class="C1" /><path d="M 205655 12217 l 40372 0" class="C1" /><path d="M 144355 168639 c 2329 -471 3888 -2675 3555 -5028" class="C1" /><path d="M 145670 784628 l 0 -1937" class="C1" /><path d="M 145670 786345 l 456 -110" class="C1" /><path d="M 180531 956779 c 10 211 20 422 25 633 c 4 162 6 324 7 487" class="C1" /><path d="M 177183 945068 l 0 251" class="C1" /><path d="M 387056 965406 c 40 -771 -238 -1525 -769 -2085 c -532 -560 -1270 -877 -2042 -877" class="C1" /><path d="M 239887 957898 c -19 -117 -38 -234 -74 -344 c -97 -294 -320 -544 -571 -744 c -196 -156 -408 -282 -638 -355 c -212 -67 -439 -89 -666 -111" class="C1" /><path d="M 178029 941929 c -37 11 -75 23 -108 34 c -200 67 -256 129 -311 192" class="C1" /><path d="M 141070 984525 l 0 335 l 0 824 l 0 718 l 0 587 l 0 435 l 0 267 l 0 90" class="C1" /><path d="M 237937 944303 l 0 10055" class="C1" /><path d="M 107714 997692 c -82 35 -164 69 -222 96 c -58 26 -91 44 -100 48 c -2 1 -3 1 -3 2" class="C1" /><path d="M 191009 51730 l -1179 0" class="C1" /><path d="M 246852 42303 l 0 915595" class="C1" /><path d="M 240567 823602 l 628 1138" class="C1" /><path d="M 190847 957898 c -25 -1 -50 -2 -82 -6 c -32 -3 -70 -9 -111 -16 c -41 -7 -84 -16 -128 -25 c -44 -10 -89 -21 -131 -32 c -9 -3 -19 -5 -28 -8" class="C1" /><path d="M 236168 184553 c 0 174 141 314 314 314" class="C1" /><path d="M 175025 956779 c 41 211 81 422 119 633 c 29 162 56 324 83 487" class="C1" /><path d="M 147910 191264 l -1251 0" class="C1" /><path d="M 192371 949106 l 0 6907" class="C1" /><path d="M 149138 776503 l -1 -3" class="C1" /><path d="M 149755 775113 l 0 11869" class="C1" /><path d="M 180531 956779 l 2838 0" class="C1" /><path d="M 189236 957686 c 23 11 46 23 60 33 c 14 10 19 19 17 27 c -2 8 -10 14 -27 19 c -17 4 -43 6 -69 8" class="C1" /><path d="M 187205 56184 c -221 -128 -441 -256 -662 -384 c -220 -128 -440 -256 -660 -384" class="C1" /><path d="M 91556 42303 l 0 -2655" class="C1" /><path d="M 185224 941248 c 92 0 184 0 268 0 c 207 0 361 0 397 0 c 16 0 8 0 -1 0" class="C1" /><path d="M 298645 989640 c 292 -36 583 -73 848 -183 c 287 -119 542 -325 744 -571 c 157 -191 283 -407 355 -638 c 67 -213 89 -440 111 -666" class="C1" /><path d="M 272866 962443 l 108302 0" class="C1" /><path d="M 180438 10894 l 9 -168" class="C1" /><path d="M 174055 42390 l -59 310" class="C1" /><path d="M 5974 12419 c -2674 0 -4881 2094 -5021 4765" class="C1" /><path d="M 173934 956177 l -245 66" class="C1" /><path d="M 108017 990296 l 0 6479" class="C1" /><path d="M 185766 942554 c 324 -22 648 -43 893 -66 c 250 -23 418 -47 409 -70 c -3 -8 -29 -16 -54 -24" class="C1" /><path d="M 239940 818699 c -1 -3 -1 -5 1 -12 c 3 -8 10 -22 28 -41 c 13 -13 30 -28 54 -42 c 24 -15 53 -29 86 -41 c 31 -11 66 -21 102 -25 c 18 -2 37 -2 55 -3" class="C1" /><path d="M 185766 942554 c -519 42 -1037 84 -1631 126 c -594 42 -1263 84 -1924 126 c -661 42 -1316 84 -1924 126 c -608 42 -1171 84 -1631 126 c -460 42 -817 84 -1090 126 c -273 42 -463 84 -383 126 c 21 11 61 22 101 33" class="C1" /><path d="M 189195 957898 c 29 -1 57 -2 77 -6 c 20 -3 32 -9 37 -16 c 5 -7 3 -16 -7 -25 c -10 -10 -27 -21 -51 -32 c -5 -3 -11 -5 -17 -8" class="C1" /><path d="M 237728 183682 c -169 8 -303 195 -303 422" class="C1" /><path d="M 185919 943314 c -54 40 -108 80 -269 119 c -170 42 -458 84 -807 126 c -349 42 -759 84 -1207 126 c -449 42 -936 84 -1424 126 c -488 42 -976 84 -1424 126 c -448 42 -855 84 -1207 126 c -353 42 -651 84 -807 126 c -100 27 -141 54 -183 81" class="C1" /><path d="M 187153 943392 c 22 14 44 28 43 42 c -4 42 -218 84 -631 126 c -58 6 -120 12 -183 18" class="C1" /><path d="M 381168 962443 l 284 58 l 272 171 l 249 277 l 216 372 l 174 451 l 125 512 l 71 552 l 14 570" class="C1" /><path d="M 111667 29734 c 0 2777 -2251 5028 -5028 5028 c -2777 0 -5028 -2251 -5028 -5028 c 0 -2777 2251 -5028 5028 -5028 c 2777 0 5028 2251 5028 5028" class="C1" /><path d="M 169314 990296 c -0 -833 -1125 -1508 -2514 -1508" class="C1" /><path d="M 128696 816873 l 0 9994" class="C1" /><path d="M 149755 786982 l 0 1203" class="C1" /><path d="M 241195 174604 c 0 -279 -249 -521 -574 -557" class="C1" /><path d="M 189831 51730 c -395 -27 -790 -55 -1182 -145 c -456 -106 -907 -297 -1358 -489" class="C1" /><path d="M 177892 957898 c 42 -0 85 -0 129 -6 c 2 -0 4 -0 5 -1" class="C1" /><path d="M 173934 956177 l 1841 0" class="C1" /><path d="M 203970 9201 c 5 110 10 220 24 558 c 15 355 40 961 72 1705 c 27 627 58 1353 91 2142 c 21 491 42 1006 65 1550 c 7 172 14 346 22 521" class="C1" /><path d="M 145670 226335 c 0 253 249 474 574 509" class="C1" /><path d="M 149138 780825 l 0 -4059" class="C1" /><path d="M 178588 52405 c 4 -12 8 -25 28 -37 c 69 -42 331 -84 642 -126 c 312 -42 674 -84 1092 -126 c 418 -42 891 -84 1375 -126 c 484 -42 978 -84 1449 -126 c 471 -42 918 -84 1302 -126 c 385 -42 707 -84 957 -126 c 250 -42 429 -84 467 -126 c 28 -31 -21 -62 -70 -93" class="C1" /><path d="M 91556 960553 l 0 9915" class="C1" /><path d="M 178692 941046 l 7039 0" class="C1" /><path d="M 185766 942554 l -3555 0" class="C1" /><path d="M 181520 989274 c 33 202 66 405 146 589 c 79 185 204 352 354 493 c 149 142 323 258 511 327 c 189 69 392 92 596 115" class="C1" /><path d="M 91556 34594 l -87033 0" class="C1" /><path d="M 148184 227775 l 0 -163" class="C1" /><path d="M 183370 956779 c 44 -1 89 -2 130 -6 c 41 -3 78 -9 110 -16 c 32 -7 58 -16 78 -25 c 20 -10 33 -21 37 -32 c 3 -9 1 -17 -2 -26" class="C1" /><path d="M 180313 11437 l -899 1225" class="C1" /><path d="M 107926 34594 l -2574 0" class="C1" /><path d="M 191820 956548 c -141 -39 -283 -77 -412 -113 c -133 -37 -253 -71 -359 -102 c -104 -30 -194 -56 -247 -71 c -32 -9 -51 -14 -69 -19" class="C1" /><path d="M 237728 182208 c -169 12 -303 283 -303 614" class="C1" /><path d="M 150698 216101 c 0 -174 -141 -314 -314 -314" class="C1" /><path d="M 238682 817974 l 0 467" class="C1" /><path d="M 177307 57191 c 5 -16 9 -31 48 -47 c 103 -42 449 -84 868 -126 c 419 -42 910 -84 1475 -126 c 565 -42 1204 -84 1858 -126 c 653 -42 1321 -84 1957 -126 c 637 -42 1242 -84 1759 -126 c 517 -42 945 -84 1293 -126 c 348 -42 617 -84 631 -126 c 5 -14 -19 -28 -43 -42" class="C1" /><path d="M 279079 3225 c 2 -4 3 -9 5 -13 c 110 -302 205 -603 299 -904" class="C1" /><path d="M 144355 831562 l -1251 0" class="C1" /><path d="M 189831 948471 l 1179 0" class="C1" /><path d="M 146298 224027 l -628 -1683" class="C1" /><path d="M 135227 829713 l 13490 0" class="C1" /><path d="M 148184 217155 l -1940 136" class="C1" /><path d="M 217782 9704 c 0 833 1125 1508 2514 1508" class="C1" /><path d="M 206674 988816 c 2 -42 4 -85 9 -165 c 12 -222 38 -731 68 -1306 c 30 -576 64 -1218 104 -1982 c 14 -269 29 -553 44 -838" class="C1" /><path d="M 149138 218381 c 169 -3 303 -61 303 -133" class="C1" /><path d="M 237425 172109 c 0 -174 -141 -314 -314 -314" class="C1" /><path d="M 238682 173002 l 0 206" class="C1" /><path d="M 177307 53169 c 5 -16 9 -31 48 -47 c 103 -42 449 -84 868 -126 c 419 -42 910 -84 1475 -126 c 565 -42 1204 -84 1858 -126 c 653 -42 1321 -84 1957 -126 c 637 -42 1242 -84 1759 -126 c 517 -42 945 -84 1293 -126 c 348 -42 617 -84 631 -126 c 5 -14 -19 -28 -43 -42" class="C1" /><path d="M 189029 957608 l 129 -860" class="C1" /><path d="M 129886 811800 l 0 -623399" class="C1" /><path d="M 240622 817706 c 325 -1 574 -92 574 -209" class="C1" /><path d="M 206613 987866 c 0 -7 1 -13 1 -20 c 26 -498 71 -1355 117 -2236 c 19 -359 38 -722 57 -1085" class="C1" /><path d="M 185866 51256 c 217 -127 434 -254 651 -381 c 217 -127 435 -254 653 -381" class="C1" /><path d="M 180228 957811 c -2 -17 -4 -34 -12 -51 c -18 -37 -65 -72 -136 -102 c -69 -29 -160 -54 -270 -71 c -105 -17 -228 -27 -360 -30 c -127 -3 -264 2 -401 13 c -136 11 -274 28 -405 51 c -134 23 -262 51 -378 82 c -120 32 -226 67 -314 106 c -1 1 -3 1 -4 2" class="C1" /><path d="M 150356 186174 l -1639 0" class="C1" /><path d="M 111159 996832 l 55641 0" class="C1" /><path d="M 180484 12134 c -0 7 -1 13 -1 20 c -26 498 -71 1355 -117 2236 c -22 425 -45 856 -67 1286" class="C1" /><path d="M 262810 29734 c 0 2777 -2251 5028 -5028 5028 c -2777 0 -5028 -2251 -5028 -5028 c 0 -2777 2251 -5028 5028 -5028 c 2777 0 5028 2251 5028 5028" class="C1" /><path d="M 240740 182540 l -3012 90" class="C1" /><path d="M 190367 957811 c 32 -168 65 -336 96 -504 c 39 -211 77 -423 115 -634" class="C1" /><path d="M 237728 818415 l 0 5222" class="C1" /><path d="M 182211 942554 c -659 42 -1318 84 -1924 126 c -606 42 -1160 84 -1631 126 c -471 42 -858 84 -1090 126 c -232 42 -307 84 -383 126" class="C1" /><path d="M 133188 192126 l 2039 0" class="C1" /><path d="M 240567 177150 l -2840 -24" class="C1" /><path d="M 135227 186174 l 13490 0" class="C1" /><path d="M 241195 820225 l 0 1692" class="C1" /><path d="M 247323 987581 l 0 -90 l 0 -268 l 0 -435 l 0 -587 l 0 -718 l -0 -824 l 0 -899 l 0 -943" class="C1" /><path d="M 236168 45842 l 0 -3539" class="C1" /><path d="M 180564 957898 c -44 -1 -88 -2 -128 -6 c -40 -3 -76 -9 -106 -16 c -30 -7 -55 -16 -72 -25 c -17 -10 -28 -21 -30 -32 c -0 -3 -1 -5 -1 -8" class="C1" /><path d="M 278561 997637 l 0 -7542" class="C1" /><path d="M 237728 827205 l 3012 -119" class="C1" /><path d="M 150383 788185 l 0 -1203" class="C1" /><path d="M 387056 965406 l -913 17411" class="C1" /><path d="M 88452 10360 c 49 0 98 0 247 0 c 150 0 400 0 704 0 c 304 0 662 0 1053 0 c 392 0 817 0 1242 0" class="C1" /><path d="M 169314 990296 l 0 5027" class="C1" /><path d="M 171828 987783 c -1388 0 -2514 1125 -2514 2514" class="C1" /><path d="M 192371 51095 l -2540 635" class="C1" /><path d="M 191754 956674 c -139 -38 -278 -77 -405 -113 c -130 -37 -247 -72 -345 -102 c -96 -29 -174 -54 -228 -71 c -52 -17 -81 -27 -86 -30 c -5 -3 13 2 53 13 c 39 11 100 28 178 51 c 80 23 177 51 288 82 c 115 33 243 69 378 106 c 76 21 155 42 233 64" class="C1" /><path d="M 108536 2363 l 0 7541" class="C1" /><path d="M 149136 776500 l -953 35" class="C1" /><path d="M 180587 10150 c -5 92 -9 184 -27 519 c -17 331 -47 898 -76 1465" class="C1" /><path d="M 178529 942257 c -219 127 -437 255 -656 382 c -219 128 -438 255 -658 382" class="C1" /><path d="M 381277 34393 l -14 570 l -71 552 l -125 512 l -174 451 l -216 372 l -249 277 l -272 171 l -284 58" class="C1" /><path d="M 177269 55469 c -1 -28 -1 -56 86 -84 c 130 -42 456 -84 868 -126 c 411 -42 908 -84 1475 -126 c 567 -42 1205 -84 1858 -126 c 653 -42 1321 -84 1957 -126 c 637 -42 1243 -84 1759 -126 c 517 -42 945 -84 1293 -126 c 348 -42 617 -84 631 -126 c 5 -14 -19 -28 -43 -42" class="C1" /><path d="M 190833 42303 c -33 8 -66 16 -95 22 c -89 20 -145 30 -171 30 c -19 -0 -22 -5 -25 -10" class="C1" /><path d="M 241195 178788 l 0 2029" class="C1" /><path d="M 236482 828406 l 628 0" class="C1" /><path d="M 387056 965406 c 40 -771 -238 -1525 -769 -2085 c -532 -560 -1270 -877 -2042 -877" class="C1" /><path d="M 178530 56426 c -219 128 -437 255 -656 382 c -219 128 -439 255 -658 382" class="C1" /><path d="M 953 17183 l 4026 0" class="C1" /><path d="M 149133 801813 c -842 521 -1317 1474 -1223 2460" class="C1" /><path d="M 237728 823638 c -169 2 -303 52 -303 112" class="C1" /><path d="M 236168 18613 c 0 -421 -227 -809 -593 -1016" class="C1" /><path d="M 236168 981589 l 0 -1066" class="C1" /><path d="M 251350 982817 l -4026 0" class="C1" /><path d="M 219149 996619 l 57186 0" class="C1" /><path d="M 149441 228248 c 0 -322 -134 -587 -303 -598" class="C1" /><path d="M 205043 990799 l 15 -353" class="C1" /><path d="M 173575 957898 c 25 -1 50 -2 82 -6 c 32 -3 70 -9 111 -16 c 41 -7 84 -16 128 -25 c 44 -10 89 -21 131 -32 c 9 -3 19 -5 28 -8" class="C1" /><path d="M 217977 2162 l 308 0" class="C1" /><path d="M 139773 12419 l 0 3258" class="C1" /><path d="M 237110 828406 c 174 0 314 -141 314 -314" class="C1" /><path d="M 166801 996832 l 0 -8044" class="C1" /><path d="M 187239 54463 l 0 -251" class="C1" /><path d="M 177183 53206 l 0 251" class="C1" /><path d="M 187193 945694 c 1 1 2 2 2 2 c 27 31 -221 62 -468 93" class="C1" /><path d="M 189831 50242 l -7620 0" class="C1" /><path d="M 187239 56474 l 0 -251" class="C1" /><path d="M 147910 808938 l -1251 0" class="C1" /><path d="M 146126 781461 c 21 -50 42 -100 55 -154 c 14 -55 20 -113 20 -171 c -0 -53 -6 -106 -19 -154 c -14 -53 -35 -99 -56 -146" class="C1" /><path d="M 237728 182630 c -169 4 -303 88 -303 192" class="C1" /><path d="M 279383 2308 c 82 -35 164 -69 222 -96 c 58 -26 91 -44 100 -48 c 2 -1 3 -1 3 -2" class="C1" /><path d="M 271920 12217 l -245 -48 l -236 -143 l -217 -232 l -190 -313 l -156 -381 l -116 -435 l -72 -472 l -24 -490" class="C1" /><path d="M 190488 42410 l 401 -107" class="C1" /><path d="M 172052 949106 l 0 6907" class="C1" /><path d="M 188896 957811 c 21 11 42 23 54 33 c 12 10 15 19 10 27 c -4 8 -16 14 -34 19 c -18 5 -44 7 -75 8 c -7 0 -14 0 -22 0" class="C1" /><path d="M 174591 50242 c -395 -27 -790 -55 -1182 -145 c -456 -106 -907 -297 -1358 -489" class="C1" /><path d="M 186881 947890 l 319 -185" class="C1" /><path d="M 183723 956674 c -7 -38 -15 -77 9 -113 c 24 -37 80 -72 158 -102 c 76 -29 173 -54 288 -71 c 110 -17 236 -27 371 -30 c 130 -3 268 2 405 13 c 137 11 273 28 403 51 c 132 23 257 51 368 82 c 116 33 219 69 298 106 c 45 21 82 42 119 64" class="C1" /><path d="M 206899 984525 c -16 298 -31 597 -46 883 c -42 793 -78 1495 -107 2046 c -29 550 -50 951 -71 1351" class="C1" /><path d="M 91556 965607 l -85737 0" class="C1" /><path d="M 149138 216863 l -954 38" class="C1" /><path d="M 208265 987581 l 39058 0" class="C1" /><path d="M 174591 51730 c -637 -70 -1275 -141 -1900 -366 c -214 -77 -427 -173 -640 -268" class="C1" /><path d="M 278561 997637 c -11 -6 -22 -13 -59 -30 c -36 -18 -97 -47 -172 -79 c -79 -34 -173 -73 -283 -108 c -37 -12 -76 -24 -115 -35" class="C1" /><path d="M 238682 183645 l 0 -177" class="C1" /><path d="M 381123 987581 c 2674 0 4881 -2094 5021 -4765" class="C1" /><path d="M 111667 970467 c 0 2777 -2251 5028 -5028 5028 c -2777 0 -5028 -2251 -5028 -5028 c 0 -2777 2251 -5028 5028 -5028 c 2777 0 5028 2251 5028 5028" class="C1" /><path d="M 149138 776765 l -954 35" class="C1" /><path d="M 178526 58277 c -2 -0 -3 -1 -5 -1 c -155 -42 -55 -84 95 -126 c 150 -42 352 -84 642 -126 c 290 -42 668 -84 1092 -126 c 423 -42 892 -84 1375 -126 c 483 -42 980 -84 1449 -126 c 469 -42 911 -84 1302 -126 c 392 -42 733 -84 957 -126 c 195 -37 301 -73 407 -110" class="C1" /><path d="M 169314 995324 l 0 -5027" class="C1" /><path d="M 174055 957811 c 63 -17 127 -34 192 -51 c 145 -37 298 -73 443 -102 c 117 -23 228 -41 340 -58" class="C1" /><path d="M 149755 775113 c -174 0 -314 141 -314 314" class="C1" /><path d="M 146659 160734 l 141 -1000 l 401 -848 l 600 -567 l 707 -199 l 707 199 l 600 567 l 401 848 l 141 1000" class="C1" /><path d="M 172354 956653 l 22 84" class="C1" /><path d="M 149138 224062 l 0 -5216" class="C1" /><path d="M 177825 956674 c 21 211 42 423 65 634 c 19 168 39 336 60 504" class="C1" /><path d="M 187239 947665 l 0 -251" class="C1" /><path d="M 251350 982817 l -70 943 l -158 899 l -240 824 l -313 718 l -375 587 l -424 435 l -457 268 l -474 90" class="C1" /><path d="M 167947 11400 l 0 1018" class="C1" /><path d="M 145670 222344 l 0 -2083" class="C1" /><path d="M 177131 956013 l 10159 0" class="C1" /><path d="M 174670 42315 c 3 3 6 7 8 10 c 12 21 -34 28 -92 30 c -56 2 -123 -1 -215 -13 c -70 -9 -154 -24 -238 -39" class="C1" /><path d="M 220296 3168 l 0 8044" class="C1" /><path d="M 173693 956368 c -4 1 -7 2 -14 3 c -26 7 -96 27 -178 51 c -83 24 -178 51 -288 82 c -114 32 -243 68 -378 106 c -76 21 -155 42 -233 64" class="C1" /><path d="M 147910 191264 c 333 -2353 -1226 -4557 -3555 -5028" class="C1" /><path d="M 192130 956763 l 29 -110" class="C1" /><path d="M 189050 948346 l 1960 0" class="C1" /><path d="M 185867 945009 c 212 -127 424 -253 635 -380 c 211 -127 422 -253 633 -380" class="C1" /><path d="M 110761 3381 l 6922 5398" class="C1" /><path d="M 185730 59156 l 1103 -1103" class="C1" /><path d="M 185866 55278 c 217 -127 434 -254 651 -381 c 217 -127 435 -254 653 -381" class="C1" /><path d="M 239652 819380 l 0 -446" class="C1" /><path d="M 186881 943868 l 319 -185" class="C1" /><path d="M 294101 10159 c 425 0 851 0 1242 0 c 392 -0 749 0 1053 0 c 304 0 554 0 704 0 c 150 0 198 0 247 0" class="C1" /><path d="M 218285 2162 l 61423 0" class="C1" /><path d="M 240622 818438 c -114 5 -228 10 -342 14" class="C1" /><path d="M 129421 980523 l 0 1066" class="C1" /><path d="M 186801 58019 c -6 14 -12 28 -69 41 c -95 23 -331 46 -628 69 c -297 23 -654 46 -1070 70 c -402 23 -859 47 -1340 70 c -482 23 -988 45 -1490 69 c -488 23 -972 47 -1425 71 c -449 23 -868 45 -1226 68 c -351 23 -643 47 -877 71 c -229 23 -401 45 -442 68 c -23 13 -2 27 19 41" class="C1" /><path d="M 177131 42700 l -5080 0" class="C1" /><path d="M 190488 42410 l -16555 0" class="C1" /><path d="M 172052 51095 l 0 -1488" class="C1" /><path d="M 135227 835665 l 744 0" class="C1" /><path d="M 186881 945879 l 319 -185" class="C1" /><path d="M 175227 957898 c -29 -1 -57 -2 -77 -6 c -20 -3 -32 -9 -37 -16 c -5 -7 -2 -16 7 -25 c 10 -10 27 -21 51 -32 c 5 -3 11 -5 17 -8" class="C1" /><path d="M 173475 42700 l 97 -386" class="C1" /><path d="M 182054 9201 c -204 23 -408 45 -596 115 c -189 69 -362 186 -511 327 c -149 142 -274 309 -354 493 c -79 185 -112 387 -146 589" class="C1" /><path d="M 170461 4890 l 0 5014" class="C1" /><path d="M 182211 948471 l 7620 0" class="C1" /><path d="M 270663 9704 l 8416 0" class="C1" /><path d="M 236168 51540 l 0 897122" class="C1" /><path d="M 237937 954359 l -1770 0" class="C1" /><path d="M 149441 224173 c 0 -60 -134 -109 -303 -111" class="C1" /><path d="M 149755 215787 c -174 0 -314 141 -314 314" class="C1" /><path d="M 269414 990095 l -1606 0" class="C1" /><path d="M 187202 947374 c -220 -128 -440 -256 -660 -384 c -106 -62 -211 -123 -317 -185" class="C1" /><path d="M 217129 997637 c 474 0 1224 -378 2020 -1018" class="C1" /><path d="M 7226 962644 c -433 0 -867 -0 -1255 -0 c -401 0 -754 0 -998 0 c -125 0 -222 -0 -319 -0" class="C1" /><path d="M 178529 948290 l -311 181" class="C1" /><path d="M 180438 10894 l -15 290" class="C1" /><path d="M 115177 987783 l 245 48 l 236 143 l 217 232 l 190 313 l 156 381 l 116 435 l 71 472 l 24 490" class="C1" /><path d="M 235001 15676 l 0 2936" class="C1" /><path d="M 187202 945363 c -220 -128 -440 -256 -660 -384 c -106 -62 -211 -123 -317 -185" class="C1" /><path d="M 272866 957898 l 0 2655" class="C1" /><path d="M 148184 227612 l 954 38" class="C1" /><path d="M 286058 12217 c -437 -10 -875 -21 -1311 -56 c -808 -66 -1611 -218 -2385 -462 c -531 -168 -1049 -379 -1528 -666 c -343 -206 -667 -451 -909 -775 c -83 -112 -157 -233 -189 -365 c -15 -62 -22 -126 -28 -190" class="C1" /><path d="M 237425 817818 c 0 322 134 586 303 597" class="C1" /><path d="M 187193 947705 c 1 1 2 2 2 2 c 27 31 -221 62 -468 93" class="C1" /><path d="M 187168 948346 l 1882 0" class="C1" /><path d="M 147910 195928 l 0 -4664" class="C1" /><path d="M 177548 51730 l -2956 0" class="C1" /><path d="M 262810 19678 l -161199 0" class="C1" /><path d="M 135971 170488 l 0 -5952" class="C1" /><path d="M 182054 9201 c -204 23 -408 45 -596 115 c -189 69 -362 186 -511 327 c -149 142 -274 309 -354 493 c -79 185 -112 387 -146 589" class="C1" /><path d="M 178588 54416 c 4 -12 8 -25 28 -37 c 69 -42 331 -84 642 -126 c 312 -42 674 -84 1092 -126 c 418 -42 891 -84 1375 -126 c 484 -42 978 -84 1449 -126 c 471 -42 918 -84 1302 -126 c 385 -42 707 -84 957 -126 c 250 -42 429 -84 467 -126 c 28 -31 -21 -62 -70 -93" class="C1" /><path d="M 191820 956674 c 43 12 86 23 125 34 c 39 11 75 21 106 30 c 31 9 56 17 75 23 c 19 6 32 11 35 14 c 3 2 0 3 -2 3" class="C1" /><path d="M 187239 946325 c -76 42 -151 84 -383 126 c -232 42 -619 84 -1090 126 c -471 42 -1025 84 -1631 126 c -607 42 -1266 84 -1924 126 c -658 42 -1315 84 -1924 126 c -609 42 -1172 84 -1631 126 c -460 42 -817 84 -1090 126 c -273 42 -463 84 -383 126 c 21 11 61 22 101 33" class="C1" /><path d="M 149138 780825 c -5 208 -5 417 0 625" class="C1" /><path d="M 217782 9704 l 0 -5028" class="C1" /><path d="M 177940 957842 l 97 56" class="C1" /><path d="M 144355 813965 c 2329 -471 3888 -2675 3555 -5028" class="C1" /><path d="M 170461 4890 c 0 -6 0 -12 0 -18 c -0 -838 -97 -1674 -193 -2509" class="C1" /><path d="M 185929 945070 c -34 32 -69 64 -176 97 c -110 34 -298 70 -529 103 c -116 17 -243 33 -381 49 c -343 41 -757 83 -1207 126 c -451 42 -937 84 -1424 126 c -487 42 -973 84 -1424 126 c -451 42 -867 84 -1207 126 c -341 42 -606 84 -807 126 c -200 42 -335 84 -283 126 c 18 14 58 29 98 43" class="C1" /><path d="M 117683 9905 l 1606 0" class="C1" /><path d="M 236168 19678 l 0 -1066" class="C1" /><path d="M 190367 957811 c -64 -17 -127 -34 -192 -51 c -144 -37 -296 -72 -443 -102 c -144 -29 -285 -54 -414 -71 c -124 -17 -237 -27 -330 -30 c -89 -2 -160 3 -216 13 c -56 10 -98 26 -92 51 c 1 5 5 11 8 17" class="C1" /><path d="M 143104 186236 l -3413 0" class="C1" /><path d="M 146244 777700 l 0 13" class="C1" /><path d="M 272866 39648 l -181309 0" class="C1" /><path d="M 205043 990799 c 204 -23 408 -45 596 -115 c 189 -69 362 -186 511 -327 c 149 -142 274 -309 354 -493 c 79 -185 112 -387 146 -589" class="C1" /><path d="M 241195 826164 l 0 637" class="C1" /><path d="M 237728 173172 l 0 3954" class="C1" /><path d="M 129886 957898 l 0 -125958" class="C1" /><path d="M 237728 816405 l 0 1543" class="C1" /><path d="M 248839 987581 l 130768 0" class="C1" /><path d="M 217977 2162 c -97 831 -194 1663 -195 2496 c -0 6 -0 12 0 18" class="C1" /><path d="M 241195 818067 l 0 2158" class="C1" /><path d="M 177355 942554 l -171 0" class="C1" /><path d="M 265487 11212 c 1499 -394 3368 -939 5176 -1508" class="C1" /><path d="M 240740 182540 l 456 272" class="C1" /><path d="M 145670 227111 c 0 115 249 220 574 243" class="C1" /><path d="M 237730 183696 l -1 -2 l -1 -12" class="C1" /><path d="M 208265 987581 c -206 19 -412 39 -596 115 c -163 67 -308 179 -453 290" class="C1" /><path d="M 149441 781087 c 0 -141 -134 -257 -303 -262" class="C1" /><path d="M 175593 42303 l -63 397" class="C1" /><path d="M 237938 18613 c 0 -1622 -1315 -2936 -2936 -2936" class="C1" /><path d="M 187235 946085 c -217 -127 -434 -253 -651 -380 c -217 -127 -435 -253 -652 -380" class="C1" /><path d="M 381277 34393 l 4483 0" class="C1" /><path d="M 237728 177125 l 0 5082" class="C1" /><path d="M 177131 949106 l 5080 -635" class="C1" /><path d="M 178093 941839 c -71 41 -142 83 -213 124 c -38 22 -76 44 -113 66" class="C1" /><path d="M 192371 49607 l -2540 635" class="C1" /><path d="M 235001 18613 l 0 1066" class="C1" /><path d="M 236482 171795 l 0 13072" class="C1" /><path d="M 236168 45842 l 1770 0" class="C1" /><path d="M 187235 944074 c -217 -127 -434 -253 -651 -380 c -217 -127 -435 -253 -652 -380" class="C1" /><path d="M 135227 164536 l -2039 0" class="C1" /><path d="M 279079 3225 l -8416 6479" class="C1" /><path d="M 241195 174604 l 0 1281" class="C1" /><path d="M 177131 51095 c -336 147 -672 294 -1011 394 c -505 149 -1017 195 -1529 241" class="C1" /><path d="M 240567 177150 l 628 1638" class="C1" /><path d="M 173070 956779 c 23 -1 46 -2 75 -6 c 30 -3 67 -9 107 -16 c 40 -7 82 -16 126 -25 c 44 -10 89 -21 131 -32 c 32 -9 63 -17 93 -26" class="C1" /><path d="M 187239 944313 c -76 42 -151 84 -383 126 c -232 42 -619 84 -1090 126 c -471 42 -1025 84 -1631 126 c -607 42 -1266 84 -1924 126 c -658 42 -1315 84 -1924 126 c -609 42 -1172 84 -1631 126 c -460 42 -817 84 -1090 126 c -273 42 -463 84 -383 126 c 21 11 61 22 101 33" class="C1" /><path d="M 235001 981589 l 0 2936" class="C1" /><path d="M 172602 956548 c 141 -38 282 -77 412 -113 c 133 -37 255 -72 359 -102 c 102 -29 186 -54 247 -71 c 58 -17 95 -27 107 -30 c 12 -3 1 2 -32 13 c -32 11 -86 28 -158 51 c -74 23 -166 51 -272 82 c -110 33 -235 69 -367 106 c -75 21 -153 42 -230 63" class="C1" /><path d="M 149138 216863 c 0 -10 -1 -20 -3 -30" class="C1" /><path d="M 146659 191264 c 333 -2353 -1226 -4557 -3555 -5028" class="C1" /><path d="M 174591 50242 l -1179 0" class="C1" /><path d="M 178529 944268 c -219 127 -437 255 -656 382 c -219 128 -438 255 -658 382" class="C1" /><path d="M 235574 982755 l -573 0" class="C1" /><path d="M 295216 989640 c -422 0 -844 0 -1226 0 c -382 0 -724 0 -1012 0 c -287 -0 -520 0 -643 0 c -109 0 -133 0 -157 0" class="C1" /><path d="M 148184 786760 l 954 35" class="C1" /><path d="M 178820 12591 l 12 -172" class="C1" /><path d="M 148717 170488 l -13490 0" class="C1" /><path d="M 140942 831562 l 0 -1849" class="C1" /><path d="M 8786 987783 l -1516 0" class="C1" /><path d="M 174869 956303 c 81 -15 161 -29 236 -41 c 126 -19 236 -27 330 -30 c 91 -2 167 1 216 13 c 49 12 70 31 92 51" class="C1" /><path d="M 108536 9905 c -5 58 -10 116 -23 172 c -26 115 -84 222 -151 321 c -123 181 -276 336 -441 476 c -319 268 -685 478 -1064 653 c -583 270 -1198 460 -1823 599 c -767 170 -1550 264 -2333 286 c -171 5 -342 6 -513 7" class="C1" /><path d="M 269414 990095 l 24 -490 l 71 -472 l 116 -435 l 156 -381 l 190 -313 l 217 -232 l 236 -143 l 245 -48" class="C1" /><path d="M 107714 997692 c 1022 -166 2220 -465 3446 -860" class="C1" /><path d="M 205537 12130 c -30 -569 -60 -1137 -77 -1469 c -18 -337 -23 -430 -28 -523" class="C1" /><path d="M 150356 195928 l -141 1000 l -401 848 l -600 567 l -707 199 l -707 -199 l -600 -567 l -401 -848 l -141 -1000" class="C1" /><path d="M 237425 172109 l 0 12443" class="C1" /><path d="M 150356 195928 l 0 19859" class="C1" /><path d="M 109164 2616 l 0 7289" class="C1" /><path d="M 172354 956653 l 237 0" class="C1" /><path d="M 181780 15676 c 7 -175 15 -349 22 -521 c 23 -543 44 -1059 65 -1550 c 33 -789 65 -1515 91 -2142 c 32 -744 57 -1350 72 -1705 c 14 -338 19 -448 24 -558" class="C1" /><path d="M 178530 58437 l -301 176" class="C1" /><path d="M 237110 828406 l 0 -13072" class="C1" /><path d="M 149138 218381 l 0 -1518" class="C1" /><path d="M 189043 956674 c -90 -38 -181 -77 -245 -113 c -66 -37 -103 -72 -116 -102 c -12 -29 -1 -54 37 -71 c 36 -17 96 -27 176 -30 c 77 -3 174 2 283 13 c 109 11 231 28 358 51 c 131 23 268 51 405 82 c 143 33 286 69 418 106 c 75 21 147 42 218 64" class="C1" /><path d="M 186679 956779 l 2340 0" class="C1" /><path d="M 5820 965607 l -4483 0" class="C1" /><path d="M 187239 948336 c -18 42 -37 84 -383 126 c -28 3 -57 7 -87 10" class="C1" /><path d="M 179969 12044 c -83 73 -166 145 -258 206 c -90 60 -188 108 -289 147 c -98 38 -198 67 -301 84 c -97 16 -196 21 -294 25" class="C1" /><path d="M 187202 943352 c -220 -128 -440 -256 -660 -384 c -106 -62 -211 -123 -317 -185" class="C1" /><path d="M 135904 15676 l 70 -335 l 240 -824 l 313 -718 l 375 -587 l 424 -435 l 457 -268 l 474 -90" class="C1" /><path d="M 237937 43857 c 293 -36 585 -72 849 -183 c 284 -120 534 -328 744 -571 c 163 -190 302 -402 355 -638 c 12 -53 19 -107 27 -162" class="C1" /><path d="M 129421 983018 l -123145 0" class="C1" /><path d="M 185867 947020 c 212 -127 424 -253 635 -380 c 211 -127 422 -253 633 -380" class="C1" /><path d="M 96241 989841 c 0 -0 0 -0 0 -0 c 85 -0 -63 0 -248 0 c -186 0 -410 -0 -705 -0 c -295 0 -659 0 -1054 0 c -394 0 -818 0 -1242 0" class="C1" /><path d="M 241195 824740 l 0 -2823" class="C1" /><path d="M 148184 216900 l 0 255" class="C1" /><path d="M 177307 51158 c 5 -16 9 -31 48 -47 c 103 -42 449 -84 868 -126 c 419 -42 910 -84 1475 -126 c 565 -42 1203 -84 1858 -126 c 654 -42 1324 -84 1957 -126 c 634 -42 1231 -84 1759 -126 c 529 -42 988 -84 1293 -126 c 281 -39 430 -77 580 -116" class="C1" /><path d="M 192371 949106 l -1361 -635" class="C1" /><path d="M 186679 956779 c -25 211 -49 422 -78 633 c -22 162 -47 324 -71 487" class="C1" /><path d="M 178530 54415 c -219 128 -437 255 -656 382 c -219 128 -439 255 -658 382" class="C1" /><path d="M 206510 989850 c 5 -92 9 -184 27 -519 c 17 -331 47 -898 76 -1465" class="C1" /><path d="M 145670 227111 l 0 -777" class="C1" /><path d="M 177237 51478 c -8 -38 -16 -77 118 -115 c 146 -42 461 -84 868 -126 c 407 -42 907 -84 1475 -126 c 568 -42 1205 -84 1858 -126 c 652 -42 1321 -84 1957 -126 c 637 -42 1243 -84 1759 -126 c 517 -42 945 -84 1293 -126 c 348 -42 617 -84 631 -126 c 5 -14 -19 -28 -43 -42" class="C1" /><path d="M 187114 948730 l 1935 -384" class="C1" /><path d="M 278561 990095 c 5 -58 10 -115 23 -171 c 26 -115 84 -222 152 -321 c 123 -181 276 -336 441 -476 c 319 -268 685 -478 1064 -654 c 583 -270 1198 -460 1823 -599 c 767 -170 1550 -264 2333 -286 c 171 -5 342 -6 513 -7" class="C1" /><path d="M 237443 16982 l 8584 0" class="C1" /><path d="M 117683 9905 l -24 490 l -71 472 l -116 435 l -156 381 l -190 313 l -217 232 l -236 143 l -245 48" class="C1" /><path d="M 177307 55180 c 5 -16 9 -31 48 -47 c 103 -42 449 -84 868 -126 c 419 -42 910 -84 1475 -126 c 565 -42 1204 -84 1858 -126 c 653 -42 1321 -84 1957 -126 c 637 -42 1242 -84 1759 -126 c 517 -42 945 -84 1293 -126 c 348 -42 617 -84 631 -126 c 5 -14 -19 -28 -43 -42" class="C1" /><path d="M 241195 821917 l -628 1685" class="C1" /><path d="M 146659 808938 l 0 -4664" class="C1" /><path d="M 206945 988320 c -51 64 -102 128 -141 197 c -98 174 -122 381 -146 589" class="C1" /><path d="M 238682 183645 l 0 14" class="C1" /><path d="M 187239 946073 c -76 42 -151 84 -383 126 c -232 42 -619 84 -1090 126 c -471 42 -1025 84 -1631 126 c -606 42 -1265 84 -1924 126 c -659 42 -1318 84 -1924 126 c -606 42 -1160 84 -1631 126 c -471 42 -858 84 -1090 126 c -232 42 -307 84 -383 126" class="C1" /><path d="M 219149 988600 l 0 8019" class="C1" /><path d="M 174591 51730 l -1179 0" class="C1" /><path d="M 237110 184867 c 174 0 314 -141 314 -314" class="C1" /><path d="M 148717 814027 l -13490 0" class="C1" /><path d="M 189831 50242 c -395 -27 -790 -55 -1182 -145 c -456 -106 -907 -297 -1358 -489" class="C1" /><path d="M 240607 818516 c 26 -0 52 -1 78 -3 c 72 -6 140 -25 203 -51 c 67 -27 127 -62 177 -109 c 34 -32 63 -71 88 -114 c 23 -42 42 -89 41 -136 c -0 -11 -2 -23 -3 -34" class="C1" /><path d="M 205577 10726 c 4 84 9 168 25 469 c 16 304 43 829 71 1354" class="C1" /><path d="M 178526 54255 c -2 -0 -3 -1 -5 -1 c -155 -43 -55 -84 95 -126 c 150 -42 352 -84 642 -126 c 290 -42 668 -84 1092 -126 c 423 -42 892 -84 1375 -126 c 483 -42 980 -84 1449 -126 c 469 -42 911 -84 1302 -126 c 392 -42 733 -84 957 -126 c 195 -37 301 -73 407 -110" class="C1" /><path d="M 240253 818482 l 0 973" class="C1" /><path d="M 238682 819258 l 0 -817" class="C1" /><path d="M 953 17183 l 0 0" class="C1" /><path d="M 246027 16982 l 4026 0" class="C1" /><path d="M 146244 776705 l 0 995" class="C1" /><path d="M 150383 775113 l -628 0" class="C1" /><path d="M 185919 947336 c -54 40 -108 80 -269 120 c -170 42 -458 84 -807 126 c -349 42 -759 84 -1207 126 c -449 42 -936 84 -1424 126 c -488 42 -976 84 -1424 126 c -448 42 -855 84 -1207 126 c -353 42 -651 84 -807 126 c -100 27 -141 54 -183 81" class="C1" /><path d="M 186026 957811 c -40 -17 -81 -34 -126 -51 c -100 -37 -223 -72 -358 -102 c -132 -29 -275 -54 -423 -71 c -141 -17 -286 -27 -426 -30 c -135 -3 -264 2 -381 13 c -116 11 -220 28 -307 51 c -89 23 -159 51 -210 82 c -52 32 -82 68 -86 106 c -0 1 -0 1 -0 2" class="C1" /><path d="M 178359 944176 c -46 4 -92 8 -137 12 c -479 42 -753 84 -868 126 c -76 28 -81 56 -86 84" class="C1" /><path d="M 120679 11400 c -34 212 -67 424 -107 587 c -40 163 -86 278 -133 349 c -35 52 -70 81 -105 82 c -1 0 -2 0 -4 0" class="C1" /><path d="M 180447 10726 l 0 0" class="C1" /><path d="M 183127 990799 c -5 -110 -10 -220 -24 -558 c -15 -355 -40 -961 -72 -1705 c -27 -628 -58 -1354 -91 -2142 c -21 -490 -42 -1004 -65 -1550 c -4 -106 -9 -213 -13 -320" class="C1" /><path d="M 91556 970467 c 0 5553 4502 10055 10055 10055" class="C1" /><path d="M 188829 957898 c 25 -162 50 -324 78 -487 c 35 -211 74 -422 113 -633" class="C1" /><path d="M 241195 173484 c 0 -80 -249 -156 -574 -175" class="C1" /><path d="M 272866 965406 l 109708 0" class="C1" /><path d="M 250053 16982 l 71 2697" class="C1" /><path d="M 175025 956779 l 2252 0" class="C1" /><path d="M 173413 948346 l 585 0" class="C1" /><path d="M 192159 956653 c 2 -1 5 -2 -2 -6 c -7 -3 -23 -9 -46 -16 c -22 -7 -50 -16 -83 -25 c -33 -10 -71 -21 -112 -32 c -31 -9 -63 -17 -96 -26" class="C1" /><path d="M 177183 946408 l 0 251" class="C1" /><path d="M 239652 818934 c 141 8 265 -93 287 -233" class="C1" /><path d="M 5820 965607 l 14 -570 l 71 -552 l 125 -512 l 174 -451 l 216 -372 l 249 -277 l 272 -171 l 284 -58" class="C1" /><path d="M 220296 11212 l 45191 0" class="C1" /><path d="M 250053 16982 l 130767 0" class="C1" /><path d="M 135971 192126 l 0 -5952" class="C1" /><path d="M 215269 12217 c 667 0 1306 -265 1778 -736 c 471 -471 736 -1111 736 -1778" class="C1" /><path d="M 178238 944438 c -5 0 -10 1 -15 1 c -491 42 -756 84 -868 126 c -74 28 -80 56 -86 84" class="C1" /><path d="M 175031 956674 c -29 12 -58 23 -80 34 c -21 11 -34 21 -40 30 c -6 9 -4 17 4 23 c 9 6 24 11 48 14 c 18 2 40 3 62 3" class="C1" /><path d="M 265487 11212 l 10450 -8044" class="C1" /><path d="M 206801 988527 c 1 -4 2 -7 3 -11 c 50 -196 197 -355 354 -493 c 157 -139 325 -257 511 -327 c 186 -70 391 -92 596 -115" class="C1" /><path d="M 378310 12217 l 474 90 l 457 268 l 424 435 l 375 587 l 313 718 l 240 824 l 158 899 l 70 943" class="C1" /><path d="M 240622 183353 c 325 -19 574 -95 574 -175" class="C1" /><path d="M 145670 784628 l 0 1717" class="C1" /><path d="M 135971 814027 l 0 -5952" class="C1" /><path d="M 237728 827205 c -169 11 -303 275 -303 597" class="C1" /><path d="M 145670 222344 l 0 2828" class="C1" /><path d="M 240881 819601 l 0 -1204" class="C1" /><path d="M 206899 984525 c -15 284 -30 569 -44 838 c -40 764 -74 1405 -104 1981 c -30 576 -57 1087 -69 1307 c -4 77 -6 119 -8 160" class="C1" /><path d="M 146298 224027 l 2840 35" class="C1" /><path d="M 177209 945350 c 220 128 440 256 660 384 c 219 128 439 256 658 383" class="C1" /><path d="M 180438 10894 l 0 0" class="C1" /><path d="M 284846 987581 c -3818 0 -6913 1125 -6913 2514" class="C1" /><path d="M 177183 944397 l 0 251" class="C1" /><path d="M 238682 173193 l 1940 116" class="C1" /><path d="M 238682 817974 l 0 -259" class="C1" /><path d="M 172052 49607 l 1361 635" class="C1" /><path d="M 246027 19678 l 0 -2697" class="C1" /><path d="M 191968 42700 l -104 -397" class="C1" /><path d="M 187205 50151 l -39 -23" class="C1" /><path d="M 237728 182630 l 0 1052" class="C1" /><path d="M 149441 787871 l 0 -1145" class="C1" /><path d="M 172052 949106 l 2540 -635" class="C1" /><path d="M 177183 947079 l 0 251" class="C1" /><path d="M 381168 962443 c 438 -0 875 -0 1254 -0 c 393 0 723 0 998 0 c 275 0 494 0 622 0 c 124 0 163 0 203 0" class="C1" /><path d="M 240266 818534 c 28 -1 57 -2 85 -4 c 85 -4 171 -7 256 -11" class="C1" /><path d="M 175024 957569 c -10 0 -19 1 -29 1 c -91 5 -219 27 -348 51 c -132 25 -265 52 -401 82 c -141 32 -286 67 -421 106 c -2 1 -4 1 -6 2" class="C1" /><path d="M 172263 956779 l 806 0" class="C1" /><path d="M 380821 16982 l 4026 0" class="C1" /><path d="M 148184 786763 l 953 35" class="C1" /><path d="M 149441 228545 c 0 174 141 314 314 314" class="C1" /><path d="M 247323 982817 l -9655 0" class="C1" /><path d="M 147910 839467 l 0 -2877" class="C1" /><path d="M 182054 9201 l -0 0" class="C1" /><path d="M 139554 987783 l 1516 0" class="C1" /><path d="M 241195 175885 l -628 1265" class="C1" /><path d="M 7490 12419 c -219 0 -439 0 -628 0 c -189 0 -349 0 -482 0 c -133 -0 -240 -0 -303 -0 c -63 0 -83 0 -103 0" class="C1" /></g></svg>