<?xml version='1.0' encoding='utf-8'?>
<svg xmlns="http://www.w3.org/2000/svg" width="9.6mm" height="46.5mm" viewBox="0 0 206452 1000000"><defs><style>.C1 {stroke: #ffffff; stroke-width: 5376; stroke-opacity: 1.000; fill: none; fill-opacity: 1.000;}</style></defs><g stroke-linecap="round" stroke-linejoin="round" fill-rule="evenodd"><path d="M 107290 28274 c 18 -17 37 -34 94 -52 c 59 -18 159 -37 282 -55 c 62 -9 129 -18 203 -26 c 183 -22 404 -45 644 -67 c 240 -23 500 -45 760 -67 c 260 -22 519 -45 760 -67 c 241 -22 462 -45 644 -67 c 182 -22 323 -45 430 -67 c 107 -22 179 -45 151 -67 c -9 -8 -31 -15 -52 -23" class="C1" /><path d="M 62098 994774 l -4489 0" class="C1" /><path d="M 111236 973074 c 117 -68 233 -136 350 -204 c 117 -68 234 -136 351 -204" class="C1" /><path d="M 79663 901986 l -509 20" class="C1" /><path d="M 128761 878824 l 0 414" class="C1" /><path d="M 111327 27678 c 25 -2 50 -4 73 -6 c 253 -22 358 -45 463 -67" class="C1" /><path d="M 113188 23356 c -43 8 -86 16 -126 22 c -67 10 -126 15 -176 16 c -48 1 -89 -1 -115 -7 c -26 -6 -38 -17 -49 -27" class="C1" /><path d="M 111982 27194 l 0 -3684" class="C1" /><path d="M 74429 993434 l -69743 0" class="C1" /><path d="M 77814 902450 l 0 1064" class="C1" /><path d="M 79993 908326 l 335 0" class="C1" /><path d="M 110213 994229 l -0 0" class="C1" /><path d="M 104521 23102 l -505 0" class="C1" /><path d="M 58221 5333 l -335 0" class="C1" /><path d="M 116880 993869 c -740 0 -1341 357 -1341 798" class="C1" /><path d="M 126262 895455 l 0 -10592" class="C1" /><path d="M 111954 970500 l 0 -134" class="C1" /><path d="M 78057 902595 l 1606 -48" class="C1" /><path d="M 64362 6131 c -18 113 -36 226 -57 313 c -21 87 -46 148 -71 186 c -19 28 -37 43 -56 44 c -1 0 -1 0 -2 0" class="C1" /><path d="M 127420 119090 l 0 -363" class="C1" /><path d="M 51735 6674 c -19 -156 -39 -311 -98 -453 c -64 -153 -174 -289 -305 -397 c -102 -84 -217 -151 -340 -189 c -114 -36 -235 -47 -355 -59" class="C1" /><path d="M 79663 902547 l 0 -561" class="C1" /><path d="M 135418 897482 l -1087 0" class="C1" /><path d="M 106593 27732 c 116 68 231 135 347 203 c 116 68 232 135 348 203" class="C1" /><path d="M 116151 5226 l -0 -2681" class="C1" /><path d="M 78120 96316 l 1035 130" class="C1" /><path d="M 111888 972665 c -3 8 -5 17 -25 25 c -55 22 -239 45 -463 67 c -223 22 -485 45 -787 67 c -301 22 -642 45 -991 67 c -349 22 -706 45 -1044 67 c -338 22 -656 45 -938 67 c -282 22 -527 45 -690 67 c -150 21 -230 41 -309 62" class="C1" /><path d="M 114397 23158 c 23 -6 46 -12 67 -18 c 21 -6 40 -11 57 -16 c 16 -5 30 -9 40 -12 c 10 -3 17 -6 19 -7 c 1 -1 0 -1 -1 -2" class="C1" /><path d="M 61428 993434 l 131 26 l 126 76 l 116 124 l 102 167 l 83 203 l 62 232 l 38 252 l 13 262" class="C1" /><path d="M 106615 27941 c -0 -0 -1 -1 -1 -1 c -14 -16 118 -33 250 -50" class="C1" /><path d="M 126262 85668 l 0 -63163" class="C1" /><path d="M 95371 6765 l 6 -92" class="C1" /><path d="M 159277 994424 c -26 0 -52 0 -132 0 c -80 0 -213 0 -375 0 c -162 0 -353 0 -562 0 c -209 0 -436 0 -663 0" class="C1" /><path d="M 114375 977388 l 54 -212" class="C1" /><path d="M 137814 92388 c 45 -1868 -856 -3633 -2396 -4692" class="C1" /><path d="M 103854 972699 l 1355 -339" class="C1" /><path d="M 53888 993434 c 233 6 466 11 699 30 c 431 35 859 116 1272 246 c 283 89 559 202 815 355 c 183 110 356 240 485 413 c 44 60 84 124 101 195 c 8 33 11 67 15 101" class="C1" /><path d="M 115539 994667 c 0 -356 -141 -697 -393 -948 c -251 -251 -592 -393 -948 -393" class="C1" /><path d="M 206430 981499 l -2391 0" class="C1" /><path d="M 111954 972645 l 0 -134" class="C1" /><path d="M 89572 1854 l -30499 0" class="C1" /><path d="M 111954 30420 l 0 -134" class="C1" /><path d="M 110213 994229 c 3 -49 5 -98 13 -250 c 8 -153 22 -412 38 -722 c 16 -310 35 -673 57 -1090 c 10 -186 20 -382 30 -579" class="C1" /><path d="M 81118 990023 l 56310 0" class="C1" /><path d="M 111470 27851 c 37 -22 75 -44 112 -65 c 111 -64 221 -129 332 -193" class="C1" /><path d="M 60923 977388 l 96698 0" class="C1" /><path d="M 51329 994532 c 156 -19 311 -39 453 -98 c 153 -64 289 -174 397 -305 c 84 -102 151 -217 189 -340 c 36 -114 47 -235 59 -355" class="C1" /><path d="M 106637 30241 c -12 -7 -23 -15 -23 -22 c 2 -22 116 -45 336 -67 c 31 -3 64 -6 97 -9" class="C1" /><path d="M 91642 993434 c -356 0 -697 141 -948 393 c -251 251 -393 592 -393 948" class="C1" /><path d="M 59073 1854 c -223 -174 -515 -314 -852 -408" class="C1" /><path d="M 77814 904596 l 0 -1082" class="C1" /><path d="M 111941 971422 c -117 -68 -235 -136 -352 -205 c -117 -68 -234 -136 -351 -205" class="C1" /><path d="M 3186 6674 c -1426 0 -2603 1117 -2678 2541" class="C1" /><path d="M 508 9215 l 0 0" class="C1" /><path d="M 126750 113186 l 0 611" class="C1" /><path d="M 508 9215 l 2147 0" class="C1" /><path d="M 127566 101950 l 667 0" class="C1" /><path d="M 74546 6674 c -142 0 -284 0 -418 0 c -135 0 -262 0 -390 0" class="C1" /><path d="M 79552 975500 l 0 -5363" class="C1" /><path d="M 134330 900657 l -7194 0" class="C1" /><path d="M 127420 884269 l 0 16" class="C1" /><path d="M 127420 878556 l -509 -20" class="C1" /><path d="M 126912 880450 l 0 2782" class="C1" /><path d="M 111862 30688 l 61 -60" class="C1" /><path d="M 104521 23102 c 27 -112 53 -225 81 -337 c 21 -87 43 -173 65 -259" class="C1" /><path d="M 104183 23158 c 74 20 149 41 216 60 c 69 20 132 38 184 54 c 51 16 93 29 121 38 c 27 9 43 14 46 16 c 2 1 -7 -1 -28 -7 c -21 -6 -53 -15 -95 -27 c -42 -12 -95 -27 -153 -44 c -61 -17 -130 -37 -202 -56 c -41 -11 -83 -23 -124 -34" class="C1" /><path d="M 113687 23356 l 129 -34" class="C1" /><path d="M 127566 914225 l 667 0" class="C1" /><path d="M 77814 93522 l 0 1506" class="C1" /><path d="M 96832 993480 c 16 303 32 607 41 784 c 9 179 12 229 15 279" class="C1" /><path d="M 103854 972699 l 0 794" class="C1" /><path d="M 134330 90870 l -7194 0" class="C1" /><path d="M 82061 22505 l 0 954883" class="C1" /><path d="M 79993 98539 l 335 0" class="C1" /><path d="M 111612 23158 c -42 20 -84 41 -138 60 c -56 20 -124 38 -198 54 c -72 16 -150 29 -229 38 c -76 9 -153 14 -226 16 c -71 1 -138 -1 -199 -7 c -60 -6 -113 -15 -156 -27 c -44 -12 -78 -27 -102 -44 c -24 -17 -37 -37 -34 -56 c 1 -11 8 -23 14 -34" class="C1" /><path d="M 206430 981499 l 0 0" class="C1" /><path d="M 113965 27599 l -312 0" class="C1" /><path d="M 107376 30688 c -173 12 -346 23 -476 35 c -134 12 -223 25 -218 37 c 2 4 15 9 29 13" class="C1" /><path d="M 107376 30688 l 1896 0" class="C1" /><path d="M 112997 22505 c 15 1 30 1 41 3 c 11 2 17 5 20 9 c 3 4 1 8 -4 14 c -5 5 -14 11 -27 17 c -3 1 -6 3 -9 4" class="C1" /><path d="M 90301 994774 c -0 -444 -600 -804 -1341 -804" class="C1" /><path d="M 113901 977388 l -214 -57" class="C1" /><path d="M 106563 23510 l -2709 0" class="C1" /><path d="M 137427 9107 l 65677 0" class="C1" /><path d="M 77814 906828 l 0 -683" class="C1" /><path d="M 126912 116944 c 2 -111 2 -222 0 -334" class="C1" /><path d="M 148566 994667 c 3 -31 5 -62 12 -91 c 14 -61 45 -118 81 -171 c 65 -97 147 -179 235 -254 c 170 -143 365 -255 568 -348 c 311 -144 639 -245 972 -319 c 409 -91 827 -141 1244 -152 c 91 -2 182 -3 274 -4" class="C1" /><path d="M 111238 968869 c 1 0 2 0 3 1 c 82 22 30 45 -51 67 c -80 22 -188 45 -343 67 c -155 22 -356 45 -582 67 c -226 22 -476 45 -733 67 c -257 22 -523 45 -773 67 c -250 22 -486 45 -695 67 c -209 22 -391 45 -511 67 c -104 19 -161 39 -217 58" class="C1" /><path d="M 113336 27532 l -4064 0" class="C1" /><path d="M 78057 97904 l 1606 63" class="C1" /><path d="M 106637 29169 c -12 -7 -23 -15 -23 -22 c 2 -22 116 -45 336 -67 c 31 -3 64 -6 97 -9" class="C1" /><path d="M 107240 31338 l 60 60" class="C1" /><path d="M 106609 973202 l 21 12" class="C1" /><path d="M 107290 29347 c 18 -17 37 -34 94 -52 c 59 -18 159 -37 282 -55 c 62 -9 129 -18 203 -26 c 183 -22 404 -45 644 -67 c 240 -23 500 -45 760 -67 c 260 -22 519 -45 760 -67 c 241 -22 462 -45 644 -67 c 182 -22 323 -45 430 -67 c 107 -22 179 -45 151 -67 c -9 -8 -31 -15 -52 -23" class="C1" /><path d="M 106609 971057 c 118 68 235 137 353 205 c 117 68 235 137 352 205" class="C1" /><path d="M 149004 1281 c -545 88 -1184 248 -1838 459" class="C1" /><path d="M 57886 1311 c 6 3 12 7 31 16 c 19 9 52 25 91 42 c 42 18 92 39 151 57 c 20 6 41 13 62 19" class="C1" /><path d="M 106825 969006 c 3 -7 7 -15 37 -22 c 51 -12 177 -24 335 -37 c 158 -12 349 -25 571 -37 c 214 -12 458 -25 715 -37 c 257 -12 527 -24 795 -37 c 260 -12 518 -25 760 -38 c 240 -12 463 -24 654 -36 c 187 -12 343 -25 468 -38 c 122 -12 214 -24 236 -36 c 12 -7 1 -15 -10 -22" class="C1" /><path d="M 128761 883650 l 0 -1173" class="C1" /><path d="M 126913 884305 l 507 -20" class="C1" /><path d="M 78057 92202 l -243 233" class="C1" /><path d="M 128761 879858 l -335 611" class="C1" /><path d="M 78637 96619 c -75 -4 -142 50 -153 124" class="C1" /><path d="M 105209 972360 c 211 15 422 29 630 78 c 243 56 484 159 724 261" class="C1" /><path d="M 64858 993970 c -799 210 -1796 501 -2760 804" class="C1" /><path d="M 109356 995042 c 109 -12 217 -24 318 -61 c 101 -37 193 -99 273 -175 c 80 -76 146 -165 189 -263 c 42 -99 60 -206 78 -314" class="C1" /><path d="M 79993 91567 c -93 0 -168 75 -168 168" class="C1" /><path d="M 80328 908326 c 93 0 168 -75 168 -168" class="C1" /><path d="M 106591 28811 c 40 -22 81 -45 204 -67 c 123 -22 330 -45 581 -67 c 251 -22 547 -45 870 -67 c 323 -22 675 -45 1026 -67 c 351 -22 703 -45 1026 -67 c 323 -22 619 -45 870 -67 c 251 -22 458 -45 581 -67 c 123 -22 164 -45 204 -67" class="C1" /><path d="M 107666 31385 c 65 -9 131 -17 203 -26 c 179 -22 403 -45 644 -67 c 241 -22 500 -45 760 -67 c 259 -22 519 -45 760 -67 c 241 -22 462 -45 644 -67 c 182 -22 323 -45 430 -67 c 107 -22 179 -45 151 -67 c -9 -8 -31 -15 -52 -23" class="C1" /><path d="M 107376 30688 c 277 -22 553 -45 870 -67 c 317 -22 673 -45 1026 -67 c 353 -22 702 -45 1026 -67 c 325 -22 625 -45 870 -67 c 245 -22 436 -45 581 -67 c 146 -22 247 -45 204 -67 c -11 -6 -33 -12 -54 -18" class="C1" /><path d="M 57447 998719 c 545 -88 1184 -248 1838 -459" class="C1" /><path d="M 111982 23510 l -5418 0" class="C1" /><path d="M 96258 6522 c -0 4 -0 7 -1 11 c -14 266 -38 723 -62 1193 c -10 191 -20 385 -30 579" class="C1" /><path d="M 3854 980027 c -231 0 -462 0 -669 0 c -214 0 -402 0 -532 0 c -67 0 -118 0 -170 0" class="C1" /><path d="M 77814 906828 c 0 149 133 278 306 297" class="C1" /><path d="M 128761 117525 l 0 753" class="C1" /><path d="M 109620 6520 c -16 -303 -32 -607 -41 -784 c -9 -179 -12 -229 -15 -279" class="C1" /><path d="M 128234 85668 l 0 1535" class="C1" /><path d="M 79552 990023 c 0 865 701 1566 1566 1566" class="C1" /><path d="M 128518 114252 l -1606 -53" class="C1" /><path d="M 126750 113566 c 0 104 72 190 162 194" class="C1" /><path d="M 111149 31493 l -3754 0" class="C1" /><path d="M 126912 884289 c -0 5 0 11 2 16" class="C1" /><path d="M 127420 113777 l -508 -19" class="C1" /><path d="M 88960 998260 c 422 338 819 536 1073 536" class="C1" /><path d="M 96234 5861 l -8 155" class="C1" /><path d="M 3104 981607 l -2391 0" class="C1" /><path d="M 128761 114915 l 0 1033" class="C1" /><path d="M 116151 5226 c 0 444 600 804 1341 804" class="C1" /><path d="M 77814 906144 l 335 -674" class="C1" /><path d="M 128761 113914 c 0 -19 -133 -39 -306 -47" class="C1" /><path d="M 106781 29987 l -170 99" class="C1" /><path d="M 57609 998230 l 4489 -3455" class="C1" /><path d="M 126582 113660 l 0 -642" class="C1" /><path d="M 116151 2544 l 0 2681" class="C1" /><path d="M 111204 972000 c -2 7 -4 13 -15 20 c -37 22 -176 45 -343 67 c -166 22 -359 45 -582 67 c -223 22 -475 45 -733 67 c -258 22 -522 45 -773 67 c -251 22 -489 45 -695 67 c -205 22 -377 45 -511 67 c -134 22 -229 45 -249 67 c -15 17 11 33 38 50" class="C1" /><path d="M 104729 23321 l 129 34" class="C1" /><path d="M 104923 22551 c 34 9 68 18 102 27 c 77 20 158 38 236 54 c 77 16 152 29 221 38 c 66 9 126 14 176 16 c 48 1 85 -1 115 -7 c 30 -5 52 -14 49 -27 c -1 -3 -2 -6 -4 -9" class="C1" /><path d="M 90913 2659 l 0 2674" class="C1" /><path d="M 96239 5771 c -3 49 -5 98 -13 250 c -8 154 -22 412 -38 722 c -16 310 -35 670 -57 1090 c -8 152 -16 312 -25 471" class="C1" /><path d="M 157622 21089 l 0 -5288" class="C1" /><path d="M 148842 1770 l -4489 3455" class="C1" /><path d="M 111204 973073 c -1 7 -3 13 -15 20 c -37 21 -176 41 -315 62" class="C1" /><path d="M 148842 1770 c 1 -2 2 -5 3 -7 c 59 -161 109 -322 159 -482" class="C1" /><path d="M 88960 993434 l 0 536" class="C1" /><path d="M 113864 23158 c -21 -113 -42 -225 -63 -338 c -17 -90 -35 -179 -52 -269" class="C1" /><path d="M 105209 972360 l 1760 0" class="C1" /><path d="M 128455 118611 l -0 -7" class="C1" /><path d="M 128761 118682 c -4 -8 -9 -16 -22 -24 c -14 -8 -37 -16 -66 -23 c -27 -7 -60 -12 -96 -16 c -33 -4 -70 -7 -107 -8 c -5 -0 -10 -0 -15 -0" class="C1" /><path d="M 57609 994774 l 0 3455" class="C1" /><path d="M 75237 990893 l 0 2541" class="C1" /><path d="M 58221 5333 l 4543 0" class="C1" /><path d="M 79552 975500 l 0 1888" class="C1" /><path d="M 106591 27962 l 0 134" class="C1" /><path d="M 111888 970520 c -3 8 -5 17 -25 25 c -55 22 -239 45 -463 67 c -223 22 -485 45 -787 67 c -301 22 -642 45 -991 67 c -348 22 -704 45 -1044 67 c -340 22 -663 45 -938 67 c -276 22 -504 45 -690 67 c -186 22 -329 45 -336 67 c -2 7 10 15 23 22" class="C1" /><path d="M 159683 6566 c -19 -156 -39 -311 -98 -453 c -64 -153 -174 -289 -305 -397 c -102 -84 -217 -151 -340 -189 c -114 -36 -235 -47 -355 -59" class="C1" /><path d="M 111327 29823 c 25 -2 49 -4 73 -6 c 255 -22 402 -45 463 -67 c 41 -15 43 -30 46 -45" class="C1" /><path d="M 106629 27599 l -1004 0" class="C1" /><path d="M 111075 993326 c -110 10 -220 21 -318 61 c -87 36 -164 95 -242 155" class="C1" /><path d="M 127420 878469 l 0 87" class="C1" /><path d="M 106591 27739 c 40 -22 79 -45 204 -67 c 125 -22 334 -45 581 -67 c 247 -22 531 -45 870 -67 c 27 -2 55 -4 82 -5" class="C1" /><path d="M 107295 28138 c 29 -21 58 -43 144 -64 c 90 -22 244 -45 430 -67 c 186 -22 405 -45 644 -67 c 239 -22 499 -45 760 -67 c 260 -22 521 -45 760 -67 c 239 -22 456 -45 644 -67 c 188 -22 347 -45 430 -67 c 54 -14 75 -29 97 -43" class="C1" /><path d="M 126262 104438 l 0 -18770" class="C1" /><path d="M 105907 500054 c 0 1481 -1201 2681 -2681 2681 c -1481 0 -2681 -1201 -2681 -2681 c 0 -1481 1201 -2681 2681 -2681 c 1481 0 2681 1201 2681 2681" class="C1" /><path d="M 89572 6131 l 0 -4277" class="C1" /><path d="M 80495 91735 c 0 -93 -75 -168 -168 -168" class="C1" /><path d="M 95983 6474 c -44 39 -89 77 -137 110 c -48 32 -100 57 -154 78 c -52 20 -106 36 -161 45 c -52 9 -104 11 -157 13" class="C1" /><path d="M 96954 8304 c 2 -57 5 -114 7 -170 c 12 -291 24 -565 35 -826 c 18 -420 35 -808 49 -1143 c 17 -397 30 -720 38 -909 c 8 -180 10 -239 13 -298" class="C1" /><path d="M 114578 23169 c 1 1 2 1 -1 3 c -4 2 -12 5 -24 9 c -12 4 -27 8 -45 14 c -18 5 -38 11 -60 17 c -16 5 -34 9 -51 14" class="C1" /><path d="M 22 18501 c -22 411 127 813 410 1112 c 284 299 677 468 1089 468" class="C1" /><path d="M 128761 881366 l 0 -1508" class="C1" /><path d="M 104015 23102 c -3 1 -5 1 -3 3 c 2 2 10 5 21 9 c 11 4 25 8 42 14 c 17 5 36 11 58 17 c 16 5 33 9 50 14" class="C1" /><path d="M 205943 990785 l -0 0" class="C1" /><path d="M 104764 977176 l 32 165" class="C1" /><path d="M 128518 116938 l 243 587" class="C1" /><path d="M 126750 113186 c 0 -93 -75 -168 -168 -168" class="C1" /><path d="M 116880 998146 l 30499 0" class="C1" /><path d="M 152259 15801 c 0 1481 -1201 2681 -2681 2681 c -1481 0 -2681 -1201 -2681 -2681 c 0 -1481 1201 -2681 2681 -2681 c 1481 0 2681 1201 2681 2681" class="C1" /><path d="M 80495 22505 l 0 1888" class="C1" /><path d="M 152259 984092 c 0 1481 -1201 2681 -2681 2681 c -1481 0 -2681 -1201 -2681 -2681 c 0 -1481 1201 -2681 2681 -2681 c 1481 0 2681 1201 2681 2681" class="C1" /><path d="M 110218 994140 l 76 -309" class="C1" /><path d="M 137427 10438 l 0 -569" class="C1" /><path d="M 78149 94129 l -335 -607" class="C1" /><path d="M 111943 28484 l -58 -34" class="C1" /><path d="M 109272 30688 c 351 -22 703 -45 1026 -67 c 323 -22 619 -45 870 -67 c 251 -22 458 -45 581 -67 c 123 -22 164 -45 204 -67" class="C1" /><path d="M 4686 993434 l -808 0" class="C1" /><path d="M 126912 119249 l 1 1" class="C1" /><path d="M 114691 27194 l -1355 338" class="C1" /><path d="M 205252 9107 c -75 -1424 -1251 -2541 -2678 -2541" class="C1" /><path d="M 128426 880468 l -1514 -19" class="C1" /><path d="M 126079 22505 l 0 954883" class="C1" /><path d="M 128761 114000 l -243 59" class="C1" /><path d="M 106610 28118 c 117 68 235 136 352 205 c 56 33 113 66 169 99" class="C1" /><path d="M 79155 907580 l -1035 -62" class="C1" /><path d="M 60923 22505 l 0 -1416" class="C1" /><path d="M 79552 9870 l 0 569" class="C1" /><path d="M 79663 96896 c -3 83 -3 166 0 249" class="C1" /><path d="M 80495 990023 l -944 0" class="C1" /><path d="M 110352 991589 c -10 196 -21 392 -30 578 c -22 421 -42 797 -57 1091 c -15 294 -27 507 -38 721" class="C1" /><path d="M 127136 99236 l 7194 0" class="C1" /><path d="M 106593 28805 c 116 68 231 135 347 203 c 116 68 232 135 348 203" class="C1" /><path d="M 111236 30847 c 117 -68 233 -136 350 -204 c 117 -68 234 -136 351 -204" class="C1" /><path d="M 54534 6674 c 2036 0 3687 -600 3687 -1341" class="C1" /><path d="M 148231 994667 l 335 0" class="C1" /><path d="M 117491 1740 c -422 -338 -819 -536 -1073 -536" class="C1" /><path d="M 133934 909023 l 0 3174" class="C1" /><path d="M 111204 970928 c -2 7 -4 13 -15 20 c -37 22 -176 45 -343 67 c -166 22 -359 45 -582 67 c -223 22 -475 45 -733 67 c -258 22 -522 45 -773 67 c -251 22 -489 45 -695 67 c -205 22 -377 45 -511 67 c -134 22 -229 45 -249 67 c -15 17 11 33 38 50" class="C1" /><path d="M 111943 30629 l -58 -34" class="C1" /><path d="M 115802 998689 c 253 0 653 -201 1078 -543" class="C1" /><path d="M 134330 99236 l 0 3174" class="C1" /><path d="M 111908 969294 c 0 15 1 30 -46 45 c -69 22 -243 45 -463 67 c -219 22 -484 45 -787 67 c -302 22 -643 45 -991 67 c -348 22 -704 45 -1044 67 c -340 22 -663 45 -938 67 c -276 22 -504 45 -690 67 c -186 22 -329 45 -336 67 c -2 7 10 15 23 22" class="C1" /><path d="M 126912 884289 l 509 -20" class="C1" /><path d="M 111941 970350 c -117 -68 -235 -136 -352 -205 c -117 -68 -234 -136 -351 -205" class="C1" /><path d="M 58221 1446 l 0 3887" class="C1" /><path d="M 134330 909023 l 0 3174" class="C1" /><path d="M 113687 23423 l 131 -35" class="C1" /><path d="M 57447 998719 c -44 19 -87 37 -118 51 c -31 14 -49 23 -53 26 c -1 1 -1 1 -2 1" class="C1" /><path d="M 203290 979919 c 233 0 467 0 669 0 c 209 0 386 0 532 0 c 146 0 263 0 332 0 c 66 0 87 0 108 0" class="C1" /><path d="M 106563 972699 l 0 455" class="C1" /><path d="M 126247 877892 c -93 0 -168 75 -168 168" class="C1" /><path d="M 46768 993434 c 19 156 39 311 98 453 c 64 153 174 289 305 397 c 102 84 217 151 340 189 c 114 36 235 47 355 59" class="C1" /><path d="M 90197 998796 l -164 0" class="C1" /><path d="M 113343 500054 c 0 5553 -4502 10055 -10055 10055 c -5553 0 -10055 -4502 -10055 -10055 c 0 -5553 4502 -10055 10055 -10055 c 5553 0 10055 4502 10055 10055" class="C1" /><path d="M 108466 23158 c 3 -113 6 -225 7 -338 c 1 -90 1 -179 0 -269" class="C1" /><path d="M 128761 115948 l -243 656" class="C1" /><path d="M 111327 28751 c 25 -2 49 -4 73 -6 c 255 -22 402 -45 463 -67 c 41 -15 43 -30 46 -45" class="C1" /><path d="M 106563 973493 c 227 -51 454 -102 682 -143 c 667 -120 1347 -158 2027 -195" class="C1" /><path d="M 128761 879238 c 0 -135 -133 -253 -306 -271" class="C1" /><path d="M 59073 1854 l 3692 2879" class="C1" /><path d="M 127420 118727 l 1035 -123" class="C1" /><path d="M 105209 27532 c -340 -37 -680 -75 -1014 -195 c -114 -41 -228 -92 -341 -143" class="C1" /><path d="M 79663 94110 c 90 -1 162 -28 162 -60" class="C1" /><path d="M 78310 96832 c -7 13 -9 28 -8 43" class="C1" /><path d="M 79825 91735 l 0 6636" class="C1" /><path d="M 81118 8304 c -865 0 -1566 701 -1566 1566" class="C1" /><path d="M 126582 119990 l 0 -6330" class="C1" /><path d="M 111081 993235 l -6 92" class="C1" /><path d="M 96226 6015 c -1 23 -2 45 -5 88 c -6 118 -20 390 -37 697 c -16 307 -34 650 -55 1057 c -8 144 -15 295 -23 447" class="C1" /><path d="M 137179 910210 l 0 67178" class="C1" /><path d="M 78120 96883 c 61 -3 121 -5 182 -8" class="C1" /><path d="M 22 18501 c -22 411 127 813 410 1112 c 284 299 677 468 1089 468" class="C1" /><path d="M 128761 882477 l -243 711" class="C1" /><path d="M 113622 22551 c -34 9 -68 18 -102 27 c -77 20 -159 39 -236 54 c -62 12 -122 22 -181 31" class="C1" /><path d="M 157622 979919 l 45668 0" class="C1" /><path d="M 116151 5226 l 0 0" class="C1" /><path d="M 60923 18501 l -58511 0" class="C1" /><path d="M 104858 977331 l 8829 0" class="C1" /><path d="M 104727 23388 l 131 35" class="C1" /><path d="M 111392 28611 c 3 -0 5 -0 8 -1 c 262 -23 403 -45 463 -67 c 40 -15 43 -30 46 -45" class="C1" /><path d="M 111954 28633 l 0 -134" class="C1" /><path d="M 79825 905524 c 0 -22 -72 -40 -162 -41" class="C1" /><path d="M 79663 92208 c 90 -6 162 -147 162 -318" class="C1" /><path d="M 108473 22551 c 3 -6 6 -12 14 -17 c 8 -5 21 -10 37 -14 c 16 -4 34 -7 55 -10 c 21 -2 44 -4 68 -4 c 5 -0 11 -0 16 -0" class="C1" /><path d="M 109641 5771 c -18 -108 -35 -216 -78 -314 c -42 -99 -109 -188 -189 -263 c -80 -76 -172 -138 -273 -175 c -101 -37 -209 -49 -318 -61" class="C1" /><path d="M 111392 29684 c 3 -0 5 -0 8 -1 c 262 -23 403 -45 463 -67 c 40 -15 43 -30 46 -45" class="C1" /><path d="M 114691 972699 l -726 -339" class="C1" /><path d="M 79662 901978 l 0 1 l 1 6" class="C1" /><path d="M 155123 5468 c -156 19 -311 39 -453 98 c -153 64 -289 174 -397 305 c -84 102 -151 217 -189 340 c -36 114 -47 235 -59 355" class="C1" /><path d="M 79825 908158 c 0 93 75 168 168 168" class="C1" /><path d="M 79155 902005 l 0 94" class="C1" /><path d="M 78120 907125 l 0 393" class="C1" /><path d="M 80495 9870 l -944 0" class="C1" /><path d="M 81118 9870 l 0 569" class="C1" /><path d="M 79825 907919 c 0 -176 -72 -321 -162 -327" class="C1" /><path d="M 126750 880391 c 0 32 72 58 162 59" class="C1" /><path d="M 79663 901986 c 90 -4 162 -104 162 -225" class="C1" /><path d="M 110194 993478 c 0 -4 0 -7 1 -11 c 14 -266 38 -723 62 -1193 c 12 -227 24 -456 36 -686" class="C1" /><path d="M 79552 29755 l 0 -5363" class="C1" /><path d="M 80495 901521 c 0 -93 -75 -168 -168 -168" class="C1" /><path d="M 77814 902450 l 0 -195" class="C1" /><path d="M 80495 975500 l -944 0" class="C1" /><path d="M 57886 5333 c -3 31 -5 62 -12 91 c -14 61 -45 118 -81 171 c -65 97 -147 179 -235 254 c -170 143 -365 255 -568 349 c -311 144 -639 245 -972 319 c -409 91 -827 141 -1245 152 c -91 3 -182 3 -274 4" class="C1" /><path d="M 203290 979919 l 151 31 l 145 91 l 133 148 l 115 198 l 93 241 l 67 273 l 38 295 l 7 304" class="C1" /><path d="M 114421 977388 c 1 -1 2 -1 -1 -3 c -3 -2 -11 -5 -24 -9 c -5 -2 -11 -3 -16 -5" class="C1" /><path d="M 79993 91567 l 0 6972" class="C1" /><path d="M 107322 29379 c -113 67 -226 135 -339 202 c -113 67 -225 135 -338 202" class="C1" /><path d="M 78128 96842 c -14 0 -28 0 -41 1 c -38 3 -75 13 -109 27 c -36 15 -68 33 -94 58 c -18 17 -34 38 -47 61 c -12 22 -22 47 -22 73 c 0 6 1 12 2 18" class="C1" /><path d="M 113748 22551 c 23 -6 46 -12 69 -17 c 23 -5 47 -10 69 -14 c 22 -4 42 -7 60 -10 c 18 -2 33 -4 45 -4 c 3 -0 5 -0 7 -0" class="C1" /><path d="M 79663 902772 c 90 -6 162 -151 162 -327" class="C1" /><path d="M 106889 23102 l -1248 0" class="C1" /><path d="M 57609 994774 c 0 -356 -388 -697 -1080 -948 c -691 -251 -1629 -393 -2607 -393" class="C1" /><path d="M 111511 31092 l -274 -159" class="C1" /><path d="M 60923 15801 l 0 5288" class="C1" /><path d="M 134330 102411 l -397 0" class="C1" /><path d="M 106799 969023 c 54 31 108 63 162 94 c 117 68 235 137 352 205" class="C1" /><path d="M 105625 27599 l -685 -67" class="C1" /><path d="M 128455 119141 c 173 -8 306 -28 306 -47" class="C1" /><path d="M 110332 22546 c 131 -12 262 -24 344 -36 c 12 -2 23 -4 34 -5" class="C1" /><path d="M 73090 990893 l -38 -1438" class="C1" /><path d="M 126262 113018 l 0 -8581" class="C1" /><path d="M 126750 884537 c 3 -32 6 -64 15 -94 c 9 -30 25 -59 46 -83 c 14 -16 30 -30 49 -40 c 11 -6 24 -11 37 -13 c 5 -1 10 -1 15 -2" class="C1" /><path d="M 106717 30814 l -71 42" class="C1" /><path d="M 62764 4733 l 0 600" class="C1" /><path d="M 128761 879238 l 0 620" class="C1" /><path d="M 2412 18501 l 243 -9286" class="C1" /><path d="M 106615 29014 c -0 -0 -1 -1 -1 -1 c -14 -16 118 -33 250 -50" class="C1" /><path d="M 155123 5468 c -0 0 -0 0 -0 0 c -45 0 33 0 132 0 c 99 -0 219 -0 376 -0 c 157 0 352 0 562 0 c 210 0 437 0 663 0" class="C1" /><path d="M 3994 6674 c -117 0 -234 0 -335 -0 c -101 0 -186 0 -257 0 c -71 0 -128 0 -162 0 c -34 -0 -44 -0 -55 -0" class="C1" /><path d="M 80328 98539 c 93 0 168 -75 168 -168" class="C1" /><path d="M 156856 5468 c 227 0 454 0 662 0 c 209 0 399 0 561 0 c 162 0 295 0 375 0 c 79 0 105 0 131 0" class="C1" /><path d="M 128761 118278 l 0 404" class="C1" /><path d="M 111982 973493 l 1355 -339" class="C1" /><path d="M 111149 31493 l 363 -363" class="C1" /><path d="M 90033 998796 l -32759 0" class="C1" /><path d="M 96158 6169 c -0 2 -1 4 -1 6 c -27 104 -105 189 -189 263 c -84 74 -173 137 -273 175 c -99 37 -209 49 -318 61" class="C1" /><path d="M 128455 113867 l -1035 -48" class="C1" /><path d="M 133934 897482 l 0 3174" class="C1" /><path d="M 111954 971573 l 0 -134" class="C1" /><path d="M 128761 114915 l 0 -916" class="C1" /><path d="M 127420 878469 l -507 -20" class="C1" /><path d="M 69975 981607 l -2015 0" class="C1" /><path d="M 128234 104438 l -75 534 l -214 452 l -320 302 l -377 106 l -377 -106 l -320 -302 l -214 -452 l -75 -534" class="C1" /><path d="M 128455 878967 l -1035 -111" class="C1" /><path d="M 128518 116938 l -1606 6" class="C1" /><path d="M 113999 22505 c 22 86 45 173 66 259 c 28 112 56 225 83 337" class="C1" /><path d="M 90650 1311 l 160 0" class="C1" /><path d="M 115539 997341 l 0 -2674" class="C1" /><path d="M 126750 878059 l 0 6636" class="C1" /><path d="M 127420 113778 l -509 -19" class="C1" /><path d="M 78120 902161 c -173 10 -306 51 -306 93" class="C1" /><path d="M 126912 113760 l 0 246" class="C1" /><path d="M 77831 906919 c -11 23 -17 48 -17 73" class="C1" /><path d="M 79552 989454 l 0 568" class="C1" /><path d="M 104546 977388 l -54 -212" class="C1" /><path d="M 114691 973493 l -726 -339" class="C1" /><path d="M 113622 977342 l 32 -165" class="C1" /><path d="M 203104 9107 l 2147 0" class="C1" /><path d="M 78057 902820 c 11 -27 22 -54 30 -79 c 7 -25 11 -49 10 -70 c -0 -19 -3 -35 -10 -47 c -7 -13 -19 -21 -30 -29" class="C1" /><path d="M 154717 993326 c 19 156 39 311 98 453 c 64 153 174 289 305 397 c 102 84 217 151 340 189 c 114 36 235 47 355 59" class="C1" /><path d="M 108466 23158 c 4 20 8 41 -5 60 c -13 20 -43 38 -84 54 c -41 16 -92 29 -153 38 c -59 9 -126 14 -198 16 c -69 1 -143 -1 -216 -7 c -73 -6 -146 -15 -215 -27 c -71 -12 -137 -27 -197 -44 c -62 -17 -117 -37 -159 -56 c -24 -11 -44 -23 -63 -34" class="C1" /><path d="M 131282 909023 l 0 986" class="C1" /><path d="M 127420 878621 l 1035 73" class="C1" /><path d="M 126247 113018 l 0 642" class="C1" /><path d="M 90913 2659 c -0 -3 -0 -6 -0 -9 c -1 -447 -52 -893 -103 -1338" class="C1" /><path d="M 131282 99236 l 0 33" class="C1" /><path d="M 131282 89884 l 0 986" class="C1" /><path d="M 107290 30419 c 18 -17 37 -34 94 -52 c 59 -18 159 -37 282 -55 c 62 -9 129 -18 203 -26 c 183 -22 404 -45 644 -67 c 240 -22 500 -45 760 -67 c 260 -22 519 -45 760 -67 c 241 -22 462 -45 644 -67 c 182 -22 323 -45 430 -67 c 107 -22 179 -45 151 -67 c -9 -8 -31 -15 -52 -23" class="C1" /><path d="M 110168 23102 l -1514 0" class="C1" /><path d="M 104858 977331 l -214 57" class="C1" /><path d="M 142090 993869 c 18 -113 36 -226 57 -313 c 21 -87 46 -148 71 -186 c 18 -28 37 -43 56 -44 c 1 -0 1 -0 2 -0" class="C1" /><path d="M 59285 998260 l 29675 0" class="C1" /><path d="M 96313 5464 c -2 49 -5 98 -14 277 c -9 176 -25 479 -41 781" class="C1" /><path d="M 110168 23102 c -5 -112 -11 -225 -14 -337 c -2 -87 -3 -173 -4 -259" class="C1" /><path d="M 105526 22551 c 20 9 39 18 57 27 c 39 20 69 40 74 54 c 2 6 -1 11 -3 15" class="C1" /><path d="M 57609 998230 c -1 2 -2 5 -3 7 c -59 161 -109 321 -159 482" class="C1" /><path d="M 149004 1281 c 44 -19 87 -37 118 -51 c 31 -14 49 -23 53 -26 c 1 -0 1 -1 2 -1" class="C1" /><path d="M 79552 24392 l 944 0" class="C1" /><path d="M 114148 23102 c -12 1 -24 1 -40 3 c -16 2 -36 5 -57 9 c -21 4 -44 8 -67 14 c -23 5 -47 11 -70 17 c -17 5 -33 9 -50 14" class="C1" /><path d="M 107395 968400 l -588 588" class="C1" /><path d="M 77814 903514 l 243 -694" class="C1" /><path d="M 107253 31325 c -26 -22 -53 -43 -64 -65 c -22 -43 19 -87 89 -128 c 75 -45 185 -87 329 -128 c 144 -41 322 -81 521 -122 c 228 -46 484 -93 755 -135 c 127 -20 258 -39 389 -59" class="C1" /><path d="M 78057 97904 l -243 -233" class="C1" /><path d="M 114300 27374 l -647 226" class="C1" /><path d="M 110218 994140 l -0 0" class="C1" /><path d="M 134330 912197 l -397 0" class="C1" /><path d="M 127136 909023 l -874 0" class="C1" /><path d="M 78310 96832 c -15 1 -30 1 -46 2 c -46 2 -91 4 -137 6" class="C1" /><path d="M 111940 30269 c -117 -68 -235 -136 -352 -205 c -117 -68 -234 -136 -351 -205" class="C1" /><path d="M 111982 977176 l 2709 0" class="C1" /><path d="M 110344 23158 c 2 -6 5 -12 2 -18 c -3 -6 -11 -11 -22 -16 c -11 -5 -26 -9 -43 -12 c -18 -3 -38 -6 -60 -7 c -17 -1 -34 -1 -52 -2" class="C1" /><path d="M 129462 910009 l 667 0" class="C1" /><path d="M 128761 881366 l 0 1111" class="C1" /><path d="M 126750 113866 c 0 180 72 327 162 334" class="C1" /><path d="M 114691 973493 l 0 3684" class="C1" /><path d="M 134330 897482 l 0 3174" class="C1" /><path d="M 113687 23423 l -982 0" class="C1" /><path d="M 128455 119141 l 0 -531" class="C1" /><path d="M 107300 31397 l 96 96" class="C1" /><path d="M 64858 993434 l 0 536" class="C1" /><path d="M 113653 27599 l -391 -67" class="C1" /><path d="M 80328 908326 l 0 -6972" class="C1" /><path d="M 107323 971540 c -116 68 -231 135 -347 203 c -116 68 -232 135 -348 203" class="C1" /><path d="M 157622 981499 l 46418 0" class="C1" /><path d="M 126262 977388 l 0 -63163" class="C1" /><path d="M 4314 980027 l 0 -959946" class="C1" /><path d="M 112705 23510 l 0 -154" class="C1" /><path d="M 77982 96263 l 0 642" class="C1" /><path d="M 109641 5771 c 2 45 5 90 13 250 c 8 162 23 442 38 722" class="C1" /><path d="M 79663 907591 l 0 -2109" class="C1" /><path d="M 77814 95931 l 0 -902" class="C1" /><path d="M 106591 29035 l 0 134" class="C1" /><path d="M 126582 877892 l -335 0" class="C1" /><path d="M 124514 977388 l 0 -954883" class="C1" /><path d="M 116419 1204 l 32759 0" class="C1" /><path d="M 126912 883480 c 3 -83 3 -165 0 -248" class="C1" /><path d="M 106609 972130 c 118 68 235 137 353 205 c 117 68 235 137 352 205" class="C1" /><path d="M 106610 30263 c 117 68 235 136 352 205 c 56 33 113 66 169 99" class="C1" /><path d="M 130130 99269 c -1242 251 -2074 1427 -1896 2681" class="C1" /><path d="M 149178 5226 l -335 0" class="C1" /><path d="M 104674 977388 c 17 -4 35 -8 51 -12 c 47 -11 77 -16 91 -16 c 10 0 12 3 13 5" class="C1" /><path d="M 129462 900624 l 667 0" class="C1" /><path d="M 126750 116804 c 0 75 72 137 162 140" class="C1" /><path d="M 80495 990023 c 0 224 121 432 316 542" class="C1" /><path d="M 111940 28124 c -117 -68 -235 -136 -352 -205 c -117 -68 -234 -136 -351 -205" class="C1" /><path d="M 111941 972495 c -117 -68 -235 -136 -352 -205 c -117 -68 -234 -136 -351 -205" class="C1" /><path d="M 127566 104438 l 667 0" class="C1" /><path d="M 126247 113660 l 0 6330" class="C1" /><path d="M 109272 973154 c 546 24 1092 49 1631 128 c 362 53 720 132 1078 210" class="C1" /><path d="M 133934 99236 l 0 3174" class="C1" /><path d="M 148891 981499 l 1373 0" class="C1" /><path d="M 128455 878967 l 0 -273" class="C1" /><path d="M 81118 990023 l 0 -568" class="C1" /><path d="M 79663 905483 l 0 -2711" class="C1" /><path d="M 107323 970468 c -116 68 -231 135 -347 203 c -116 68 -232 135 -348 203" class="C1" /><path d="M 148566 998689 c -6 -3 -12 -7 -31 -16 c -19 -9 -52 -25 -91 -42 c -42 -18 -92 -39 -151 -57 c -20 -6 -41 -13 -62 -19" class="C1" /><path d="M 128234 895455 l 0 2488" class="C1" /><path d="M 134330 912197 l 1087 0" class="C1" /><path d="M 66286 10438 c -2962 0 -5363 2401 -5363 5363" class="C1" /><path d="M 205943 990785 l -2147 0" class="C1" /><path d="M 104580 973154 l -726 339" class="C1" /><path d="M 105636 22660 l -69 459" class="C1" /><path d="M 111480 23356 l -6622 0" class="C1" /><path d="M 117491 6030 l 24102 0" class="C1" /><path d="M 51329 994532 c -26 0 -52 0 -132 0 c -80 0 -213 0 -375 0 c -162 0 -353 0 -562 0 c -209 0 -436 0 -663 0" class="C1" /><path d="M 111982 972699 l 0 455" class="C1" /><path d="M 107647 968400 l 3503 0" class="C1" /><path d="M 130130 89884 l 1820 0" class="C1" /><path d="M 152259 989454 c 2962 0 5363 -2401 5363 -5363" class="C1" /><path d="M 78484 96744 c 0 1 1 3 -1 6 c -2 4 -6 12 -15 22 c -7 7 -16 15 -29 23 c -13 8 -28 15 -46 22 c -17 6 -35 11 -54 13 c -10 1 -20 1 -29 1" class="C1" /><path d="M 111734 30909 l 220 -220" class="C1" /><path d="M 127566 101950 l 0 2488" class="C1" /><path d="M 80495 9870 l 0 569" class="C1" /><path d="M 77814 907425 c 0 42 133 83 306 93" class="C1" /><path d="M 131950 909023 l 0 986" class="C1" /><path d="M 96732 991589 c 12 230 24 460 36 687 c 25 470 49 927 63 1194 c 0 4 0 7 1 11" class="C1" /><path d="M 96234 5861 l 5 -90" class="C1" /><path d="M 2656 9215 l 69743 0" class="C1" /><path d="M 127566 895455 l 667 0" class="C1" /><path d="M 106563 972699 l 580 -72" class="C1" /><path d="M 60923 978804 l 0 -1416" class="C1" /><path d="M 126913 878449 c -12 -2 -23 -3 -34 -7 c -14 -4 -26 -12 -37 -20 c -18 -14 -33 -30 -46 -49 c -19 -27 -32 -58 -38 -90 c -4 -22 -6 -44 -7 -66" class="C1" /><path d="M 3162 20081 l -151 -31 l -145 -91 l -133 -148 l -115 -198 l -93 -241 l -67 -273 l -38 -295 l -7 -304" class="C1" /><path d="M 49003 5576 c 225 0 450 0 654 0 c 204 0 386 0 540 0 c 153 0 277 0 343 0 c 58 0 71 0 84 0" class="C1" /><path d="M 126750 878217 c 0 172 72 313 162 319" class="C1" /><path d="M 111550 22535 l -52 -30" class="C1" /><path d="M 111075 993326 l 20831 0" class="C1" /><path d="M 74429 993434 l -253 -48 l -244 -143 l -226 -232 l -200 -313 l -167 -383 l -128 -439 l -84 -480 l -37 -503" class="C1" /><path d="M 97095 4958 l -0 0" class="C1" /><path d="M 141593 6030 c 799 -210 1796 -501 2760 -804" class="C1" /><path d="M 113815 23321 c 2 -0 4 -1 8 -2 c 14 -4 51 -15 95 -27 c 44 -13 95 -27 153 -44 c 61 -17 129 -37 202 -56 c 41 -11 83 -23 124 -34" class="C1" /><path d="M 137427 8304 l 0 1566" class="C1" /><path d="M 79155 907682 l 0 -110" class="C1" /><path d="M 96769 993434 l -21532 0" class="C1" /><path d="M 75237 990893 l -2147 0" class="C1" /><path d="M 74057 977388 l 0 -954883" class="C1" /><path d="M 106609 969985 c 118 68 235 137 353 205 c 117 68 235 137 352 205" class="C1" /><path d="M 2656 9215 l 37 -503 l 84 -480 l 128 -439 l 167 -383 l 200 -313 l 226 -232 l 244 -143 l 253 -48" class="C1" /><path d="M 131950 910009 l -1820 0" class="C1" /><path d="M 113965 27532 l -629 0" class="C1" /><path d="M 79662 92122 l -1573 62" class="C1" /><path d="M 106591 969830 l 0 134" class="C1" /><path d="M 130130 900624 l 1820 0" class="C1" /><path d="M 74797 977388 l 0 -954883" class="C1" /><path d="M 126912 878536 l 0 1914" class="C1" /><path d="M 110218 994140 l -5 90" class="C1" /><path d="M 131950 89884 l 0 986" class="C1" /><path d="M 128761 118682 c -0 -73 -47 -138 -117 -160" class="C1" /><path d="M 106591 30107 l 0 134" class="C1" /><path d="M 111943 29556 l -58 -34" class="C1" /><path d="M 60923 978804 l 0 5288" class="C1" /><path d="M 4686 993434 l -253 -48 l -244 -143 l -226 -232 l -200 -313 l -167 -383 l -128 -439 l -84 -480 l -37 -503" class="C1" /><path d="M 126582 119990 c 93 0 168 -75 168 -168" class="C1" /><path d="M 135418 912197 c 1540 -1059 2441 -2824 2396 -4692" class="C1" /><path d="M 137179 22505 l 0 67178" class="C1" /><path d="M 126912 119249 c -90 4 -162 89 -162 194" class="C1" /><path d="M 96106 8304 c 8 -152 16 -303 23 -447 c 21 -407 39 -749 55 -1057 c 16 -307 30 -580 37 -697 c 2 -41 3 -63 4 -85" class="C1" /><path d="M 106694 30791 l 547 547" class="C1" /><path d="M 114578 23102 l -430 0" class="C1" /><path d="M 137814 97718 l 0 -5330" class="C1" /><path d="M 110285 993850 l 479 -653" class="C1" /><path d="M 106657 27394 l -1032 205" class="C1" /><path d="M 88960 993970 l -24102 0" class="C1" /><path d="M 62764 5333 l 857 0" class="C1" /><path d="M 126912 116944 l 0 2165" class="C1" /><path d="M 128234 914225 l -75 534 l -214 452 l -320 302 l -377 106 l -377 -106 l -320 -302 l -214 -452 l -75 -534" class="C1" /><path d="M 79663 96896 l 0 -2785" class="C1" /><path d="M 126582 113018 l -335 0" class="C1" /><path d="M 114563 23110 l 16 59" class="C1" /><path d="M 78149 905470 l 1514 13" class="C1" /><path d="M 57274 994774 l 0 4022" class="C1" /><path d="M 113336 973154 l 629 0" class="C1" /><path d="M 104124 22505 c -1 1 -2 1 1 3 c 3 2 11 5 24 9 c 5 2 11 3 16 5" class="C1" /><path d="M 106591 973048 l 0 106" class="C1" /><path d="M 206430 981499 c 22 -411 -127 -813 -410 -1112 c -284 -299 -677 -468 -1089 -468" class="C1" /><path d="M 79552 976559 c -156 19 -312 38 -453 98 c -152 64 -285 175 -397 305 c -87 101 -161 214 -189 340 c -6 28 -10 57 -14 86" class="C1" /><path d="M 202137 979919 l 0 -959946" class="C1" /><path d="M 132023 6566 l 253 48 l 244 143 l 226 232 l 200 313 l 167 383 l 128 439 l 37 179" class="C1" /><path d="M 89572 6131 c 356 -0 697 -84 948 -234 c 251 -150 393 -353 393 -564" class="C1" /><path d="M 202877 979919 l 0 -959946" class="C1" /><path d="M 126262 85668 l 75 -534 l 214 -452 l 320 -302 l 377 -106 l 377 106 l 320 302 l 214 452 l 75 534" class="C1" /><path d="M 110218 994140 l 8 -155" class="C1" /><path d="M 2213 980027 c -412 0 -806 169 -1089 468 c -284 299 -432 701 -410 1112" class="C1" /><path d="M 126750 113797 l 0 6026" class="C1" /><path d="M 60923 981607 l -57819 0" class="C1" /><path d="M 105209 973154 l 4064 0" class="C1" /><path d="M 60923 20081 l -57761 0" class="C1" /><path d="M 3162 20081 c -233 -0 -467 -0 -669 -0 c -209 0 -386 0 -532 0 c -146 0 -263 0 -332 0 c -66 0 -87 0 -108 0" class="C1" /><path d="M 143687 995267 c -279 -217 -564 -418 -857 -600" class="C1" /><path d="M 78057 902595 l -243 -145" class="C1" /><path d="M 145024 6566 l -131 -26 l -126 -76 l -116 -124 l -102 -167 l -83 -203 l -62 -232 l -38 -252 l -13 -262" class="C1" /><path d="M 113019 22618 c 12 -6 24 -12 32 -17 c 7 -5 10 -10 9 -14 c -1 -4 -5 -8 -15 -10 c -9 -2 -23 -3 -37 -4" class="C1" /><path d="M 103854 973493 l 0 3684" class="C1" /><path d="M 111238 972086 c 1 0 2 0 3 1 c 82 22 30 45 -51 67 c -80 22 -188 45 -343 67 c -155 22 -356 45 -582 67 c -226 22 -476 45 -733 67 c -257 22 -523 45 -773 67 c -250 22 -486 45 -695 67 c -209 22 -391 45 -511 67 c -104 19 -161 39 -217 58" class="C1" /><path d="M 103854 973493 l 1355 -339" class="C1" /><path d="M 57886 1311 l 32764 0" class="C1" /><path d="M 126582 884863 l 0 -6972" class="C1" /><path d="M 78149 905470 l -335 -874" class="C1" /><path d="M 148842 5226 c 0 356 388 697 1080 948 c 691 251 1629 393 2607 393" class="C1" /><path d="M 79993 901354 c -93 0 -168 75 -168 168" class="C1" /><path d="M 111982 973493 l 0 3684" class="C1" /><path d="M 202598 19973 c 231 0 462 0 669 0 c 214 0 402 0 532 0 c 67 0 118 0 170 0" class="C1" /><path d="M 144354 5226 l 4489 0" class="C1" /><path d="M 81118 9870 l 0 -1566" class="C1" /><path d="M 78317 96860 l 0 -519" class="C1" /><path d="M 126912 113760 l 1 -1" class="C1" /><path d="M 148891 18393 l 1373 0" class="C1" /><path d="M 157546 994424 c -227 0 -454 0 -663 0 c -209 -0 -400 -0 -562 -0 c -162 0 -296 0 -375 0 c -80 0 -106 0 -132 0" class="C1" /><path d="M 113336 27532 c -211 -15 -422 -29 -630 -78 c -243 -56 -484 -159 -724 -261" class="C1" /><path d="M 148231 998554 l 0 -3887" class="C1" /><path d="M 205943 990785 l 487 -9286" class="C1" /><path d="M 104580 972360 l -726 339" class="C1" /><path d="M 74546 10438 l 0 -1224" class="C1" /><path d="M 141593 6566 l 0 -536" class="C1" /><path d="M 114810 6566 c 740 0 1341 -600 1341 -1341" class="C1" /><path d="M 80495 24392 l 0 3039" class="C1" /><path d="M 134330 87696 l -397 0" class="C1" /><path d="M 73737 6674 l -69743 0" class="C1" /><path d="M 126912 878536 c 1 -29 2 -58 2 -87" class="C1" /><path d="M 127420 113820 l 0 -41" class="C1" /><path d="M 95264 8304 c 5 -67 9 -134 14 -199 c 18 -264 34 -491 49 -696 c 17 -243 31 -455 38 -554 c 3 -46 5 -68 6 -89" class="C1" /><path d="M 108784 4958 c 3 59 5 118 13 298 c 8 189 21 512 38 909 c 14 335 31 722 49 1143 c 11 261 22 536 35 826 c 2 56 5 113 7 170" class="C1" /><path d="M 113105 22680 c 5 -0 10 -0 16 -1 c 49 -3 117 -14 186 -27 c 70 -13 142 -28 214 -44 c 75 -17 152 -36 224 -56 c 1 -0 2 -1 3 -1" class="C1" /><path d="M 105548 22505 c -15 1 -30 1 -41 3 c -11 2 -17 5 -20 9 c -3 4 -1 8 4 14 c 5 5 14 11 27 17 c 3 1 6 3 9 4" class="C1" /><path d="M 106563 973493 l 0 3684" class="C1" /><path d="M 104580 972360 l 629 0" class="C1" /><path d="M 111954 29705 l 0 -134" class="C1" /><path d="M 104069 977176 l 55 212" class="C1" /><path d="M 79155 96882 l 509 14" class="C1" /><path d="M 79155 97131 l 0 138" class="C1" /><path d="M 111470 28924 c 37 -22 75 -44 112 -65 c 117 -68 235 -136 352 -205" class="C1" /><path d="M 157622 18393 l 45726 0" class="C1" /><path d="M 64858 993970 l -5573 4290" class="C1" /><path d="M 106591 28677 c 40 -22 81 -45 204 -67 c 124 -22 330 -45 581 -67 c 251 -22 546 -45 870 -67 c 324 -22 675 -45 1026 -67 c 351 -22 701 -45 1026 -67 c 325 -22 625 -45 870 -67 c 245 -22 436 -45 581 -67 c 146 -22 247 -45 204 -67 c -11 -6 -33 -12 -54 -18" class="C1" /><path d="M 203104 9107 l 243 9286" class="C1" /><path d="M 128518 114252 l 243 663" class="C1" /><path d="M 128518 883436 l 243 213" class="C1" /><path d="M 202457 993326 c 117 0 234 0 335 0 c 101 0 186 0 257 0 c 71 0 128 0 162 0 c 34 0 44 0 55 0" class="C1" /><path d="M 157622 15801 c 0 -2962 -2401 -5363 -5363 -5363" class="C1" /><path d="M 148566 998689 l 0 -4022" class="C1" /><path d="M 111612 23158 c -11 -113 -22 -225 -35 -338 c -10 -90 -21 -179 -32 -269" class="C1" /><path d="M 111904 23102 c -22 1 -44 1 -68 3 c -23 2 -48 5 -71 9 c -24 4 -46 8 -67 14 c -21 5 -40 11 -55 17 c -12 5 -21 9 -30 14" class="C1" /><path d="M 80328 91567 l -335 0" class="C1" /><path d="M 112705 977331 l 0 -155" class="C1" /><path d="M 110226 993985 c 1 -23 2 -45 5 -88 c 6 -118 20 -389 37 -697 c 16 -308 34 -652 55 -1057 c 9 -177 19 -366 29 -554" class="C1" /><path d="M 203266 993326 c 1426 0 2603 -1117 2678 -2541" class="C1" /><path d="M 109502 991589 c -4 93 -8 186 -12 278 c -12 290 -24 565 -35 826 c -18 421 -35 808 -49 1143 c -17 397 -30 720 -38 909 c -8 180 -10 239 -13 297" class="C1" /><path d="M 127136 90870 l 0 8366" class="C1" /><path d="M 113336 972360 l 629 0" class="C1" /><path d="M 113878 22505 c -13 1 -27 1 -43 3 c -17 2 -37 5 -59 9 c -22 4 -45 8 -68 14 c -23 5 -47 11 -70 17 c -5 1 -10 3 -15 4" class="C1" /><path d="M 111400 968650 l -250 -250" class="C1" /><path d="M 106781 28915 l -170 99" class="C1" /><path d="M 79155 97269 l -1035 5" class="C1" /><path d="M 95377 6674 c 110 -10 220 -21 318 -61 c 87 -36 164 -95 242 -155" class="C1" /><path d="M 131214 8304 l 0 -179 l 0 -439 l 0 -383 l 0 -313 l -0 -232 l 0 -143 l 0 -48" class="C1" /><path d="M 108655 23102 c -24 1 -47 1 -69 3 c -22 2 -42 5 -59 9 c -17 4 -31 8 -42 14 c -11 5 -18 11 -20 17 c -2 5 -0 9 1 14" class="C1" /><path d="M 114691 23510 l -2709 0" class="C1" /><path d="M 147379 998146 l -3692 -2879" class="C1" /><path d="M 96811 994229 c -2 -45 -5 -90 -13 -250 c -8 -162 -23 -442 -38 -722" class="C1" /><path d="M 127566 895455 c 50 -526 -203 -1034 -652 -1312" class="C1" /><path d="M 128761 878824 c 0 -61 -133 -118 -306 -130" class="C1" /><path d="M 126912 114199 l 0 2411" class="C1" /><path d="M 60923 978804 l 96698 0" class="C1" /><path d="M 126914 915537 c 449 -278 702 -786 652 -1312" class="C1" /><path d="M 131906 993326 c 142 -0 284 -0 419 -0 c 135 0 262 0 390 0" class="C1" /><path d="M 135418 87696 l -1087 0" class="C1" /><path d="M 141593 6030 l 5573 -4290" class="C1" /><path d="M 79155 902005 l 0 -8" class="C1" /><path d="M 114578 23102 c -30 -112 -60 -225 -89 -337 c -23 -87 -45 -173 -68 -259" class="C1" /><path d="M 114362 23225 c 23 -6 45 -12 66 -18 c 20 -6 39 -11 54 -16 c 15 -5 28 -9 37 -12 c 9 -3 14 -6 15 -7 c 0 -1 -2 -1 -4 -2" class="C1" /><path d="M 22 18501 l 2391 0" class="C1" /><path d="M 78302 96876 c 20 -2 39 -3 59 -6 c 36 -6 71 -16 103 -30 c 34 -15 65 -34 91 -56 c 28 -24 49 -51 62 -79 c 13 -28 17 -57 21 -85" class="C1" /><path d="M 3347 990893 l -2147 0" class="C1" /><path d="M 78128 96840 c -8 13 -10 28 -8 43" class="C1" /><path d="M 111888 971593 c -3 8 -5 17 -25 25 c -55 22 -239 45 -463 67 c -223 22 -485 45 -787 67 c -301 22 -642 45 -991 67 c -348 22 -704 45 -1044 67 c -340 22 -663 45 -938 67 c -276 22 -504 45 -690 67 c -186 22 -329 45 -336 67 c -2 7 10 15 23 22" class="C1" /><path d="M 105511 977176 l 36 212" class="C1" /><path d="M 127566 85668 l 0 1535" class="C1" /><path d="M 115539 997341 c -0 3 -0 6 0 9 c 0 447 52 893 103 1338" class="C1" /><path d="M 157622 22505 l -96698 0" class="C1" /><path d="M 111817 22505 c 14 86 28 173 41 259 c 17 112 31 225 46 337" class="C1" /><path d="M 80812 9248 l 306 0" class="C1" /><path d="M 143687 995267 l 0 -600" class="C1" /><path d="M 79825 98217 c 0 -134 -72 -244 -162 -249" class="C1" /><path d="M 1200 990893 c 75 1424 1251 2541 2678 2541" class="C1" /><path d="M 106563 27194 l 0 -3684" class="C1" /><path d="M 113105 23102 c -22 -112 -43 -225 -64 -337 c -15 -87 -30 -173 -44 -259" class="C1" /><path d="M 116880 993869 l 0 -543" class="C1" /><path d="M 105433 977176 l 36 197" class="C1" /><path d="M 107295 29210 c 29 -21 58 -42 144 -64 c 90 -22 244 -45 430 -67 c 186 -22 405 -45 644 -67 c 239 -22 499 -45 760 -67 c 260 -22 521 -45 760 -67 c 239 -22 456 -45 644 -67 c 188 -22 347 -45 430 -67 c 54 -14 75 -29 97 -43" class="C1" /><path d="M 22 18501 l -0 0" class="C1" /><path d="M 126262 90870 l 874 0" class="C1" /><path d="M 78120 907125 l 1035 117" class="C1" /><path d="M 77814 92763 l 0 -340" class="C1" /><path d="M 103854 27194 l 726 338" class="C1" /><path d="M 127420 884269 l 0 -136" class="C1" /><path d="M 134330 897482 l -397 0" class="C1" /><path d="M 81118 991589 l 0 -1566" class="C1" /><path d="M 106563 27194 c -179 78 -358 157 -539 210 c -269 80 -542 104 -816 128" class="C1" /><path d="M 90650 1311 c -253 0 -653 201 -1078 543" class="C1" /><path d="M 113965 27532 l 726 -338" class="C1" /><path d="M 77814 97081 l 0 -1151" class="C1" /><path d="M 106591 28677 l 0 134" class="C1" /><path d="M 109356 995042 l 0 0" class="C1" /><path d="M 131906 993326 l 0 -1738" class="C1" /><path d="M 91642 993434 c -356 0 -697 141 -948 393 c -251 251 -393 592 -393 948" class="C1" /><path d="M 71649 15801 c 0 1481 -1201 2681 -2681 2681 c -1481 0 -2681 -1201 -2681 -2681 c 0 -1481 1201 -2681 2681 -2681 c 1481 0 2681 1201 2681 2681" class="C1" /><path d="M 96081 6280 c 27 -34 54 -68 75 -105 c 52 -93 65 -203 78 -314" class="C1" /><path d="M 126912 114006 l 1606 53" class="C1" /><path d="M 77814 95931 c 0 196 133 364 306 385" class="C1" /><path d="M 78120 97274 c -173 1 -306 49 -306 111" class="C1" /><path d="M 109272 27532 l -4064 0" class="C1" /><path d="M 72398 9215 l -32 1224" class="C1" /><path d="M 106637 28096 c -12 -7 -23 -15 -23 -22 c 2 -22 116 -45 336 -67 c 31 -3 64 -6 97 -9" class="C1" /><path d="M 107238 22551 c -10 90 -20 179 -30 269 c -12 113 -22 225 -32 338" class="C1" /><path d="M 79552 970137 l 944 0" class="C1" /><path d="M 111954 29348 l 0 -134" class="C1" /><path d="M 81118 990645 l -306 0" class="C1" /><path d="M 110352 991589 c -10 189 -20 377 -29 554 c -21 405 -39 749 -55 1057 c -16 308 -30 580 -37 697 c -2 41 -3 63 -4 85" class="C1" /><path d="M 152259 10438 l -85973 0" class="C1" /><path d="M 78089 97920 c -1 1 -1 1 -2 1 c -5 1 -17 -8 -30 -17" class="C1" /><path d="M 111238 969941 c 1 0 2 0 3 1 c 82 22 30 45 -51 67 c -80 22 -188 45 -343 67 c -155 22 -356 45 -582 67 c -226 22 -476 45 -733 67 c -257 22 -523 45 -773 67 c -250 22 -486 45 -695 67 c -209 22 -391 45 -511 67 c -104 19 -161 39 -217 58" class="C1" /><path d="M 105209 27532 l -629 0" class="C1" /><path d="M 107176 23158 c -12 -6 -24 -12 -39 -18 c -16 -6 -36 -11 -57 -16 c -21 -5 -44 -9 -68 -12 c -24 -3 -48 -6 -72 -7 c -18 -1 -34 -1 -51 -2" class="C1" /><path d="M 111862 30688 c -92 11 -185 23 -388 35 c -10 1 -20 1 -30 2" class="C1" /><path d="M 126262 877892 l 0 -757901" class="C1" /><path d="M 126912 119250 c 2 -47 2 -94 -1 -141" class="C1" /><path d="M 128234 87203 c -177 1255 654 2430 1896 2681" class="C1" /><path d="M 107322 28306 c -113 67 -226 135 -339 202 c -113 67 -225 135 -338 202" class="C1" /><path d="M 113184 23116 l -108 -597" class="C1" /><path d="M 126912 116610 l 1606 -6" class="C1" /><path d="M 111759 972360 l 1577 0" class="C1" /><path d="M 128761 883650 l 0 281" class="C1" /><path d="M 77814 93522 l 0 -760" class="C1" /><path d="M 80495 989454 l 0 568" class="C1" /><path d="M 148842 5226 l 0 -3455" class="C1" /><path d="M 105209 973154 c 211 15 422 29 630 78 c 243 56 484 159 724 261" class="C1" /><path d="M 131282 900624 l 0 33" class="C1" /><path d="M 96234 5861 l 0 0" class="C1" /><path d="M 79662 907701 l 0 -1 l 1 -6" class="C1" /><path d="M 108784 4958 l -11689 0" class="C1" /><path d="M 109272 973154 l 4064 0" class="C1" /><path d="M 126079 884696 c 0 93 75 168 168 168" class="C1" /><path d="M 105840 977176 l 0 155" class="C1" /><path d="M 106591 29884 c 40 -22 81 -45 204 -67 c 123 -22 330 -45 581 -67 c 251 -22 547 -45 870 -67 c 323 -22 675 -45 1026 -67 c 351 -22 703 -45 1026 -67 c 323 -22 619 -45 870 -67 c 251 -22 458 -45 581 -67 c 123 -22 164 -45 204 -67" class="C1" /><path d="M 113653 27599 l -2346 0" class="C1" /><path d="M 111470 29996 c 37 -22 75 -44 112 -65 c 117 -68 235 -136 352 -205" class="C1" /><path d="M 114810 6566 c 740 0 1341 -600 1341 -1341" class="C1" /><path d="M 77814 907425 l 0 -432" class="C1" /><path d="M 80812 9328 c -195 110 -316 317 -316 542" class="C1" /><path d="M 157622 984092 l 0 -5288" class="C1" /><path d="M 79815 990893 l -4578 0" class="C1" /><path d="M 111236 972001 c 117 -68 233 -136 350 -204 c 117 -68 234 -136 351 -204" class="C1" /><path d="M 205252 9107 l 487 9286" class="C1" /><path d="M 110330 22551 c 1 9 2 18 6 27 c 9 20 35 38 72 54 c 37 16 85 29 144 38 c 56 9 121 14 192 16 c 68 1 141 -1 214 -7 c 73 -6 146 -15 216 -27 c 72 -12 140 -27 201 -44 c 64 -17 121 -36 167 -56 c 1 -0 2 -1 2 -1" class="C1" /><path d="M 79825 97214 c 0 -37 -72 -68 -162 -69" class="C1" /><path d="M 127420 119090 l 0 140" class="C1" /><path d="M 116255 1204 c -51 443 -102 887 -104 1331 c -0 3 -0 6 -0 9" class="C1" /><path d="M 131950 99269 l -1820 0" class="C1" /><path d="M 203348 18393 l -7 304 l -38 295 l -67 273 l -93 241 l -115 198 l -133 148 l -145 91 l -151 31" class="C1" /><path d="M 77814 904596 l 0 1548" class="C1" /><path d="M 110294 993831 c 0 -2 1 -4 1 -6 c 27 -104 105 -189 189 -263 c 84 -74 173 -137 273 -175 c 99 -37 209 -49 318 -61" class="C1" /><path d="M 78089 97922 l 1573 62" class="C1" /><path d="M 111888 969448 c -3 8 -5 17 -25 25 c -55 22 -239 45 -463 67 c -223 22 -485 45 -787 67 c -301 22 -642 45 -991 67 c -348 22 -704 45 -1044 67 c -340 22 -663 45 -938 67 c -276 22 -504 45 -690 67 c -186 22 -329 45 -336 67 c -2 7 10 15 23 22" class="C1" /><path d="M 107395 968400 l 251 0" class="C1" /><path d="M 148231 994667 l -4543 0" class="C1" /><path d="M 66286 989454 l 85973 0" class="C1" /><path d="M 126247 877892 l 0 6972" class="C1" /><path d="M 126079 119823 c 0 93 75 168 168 168" class="C1" /><path d="M 57886 1311 l 0 4022" class="C1" /><path d="M 201766 6566 l 253 48 l 244 143 l 226 232 l 200 313 l 167 383 l 128 439 l 84 480 l 37 503" class="C1" /><path d="M 134330 102411 l 1087 0" class="C1" /><path d="M 106591 27605 c 10 -22 20 -45 204 -67 c 15 -2 31 -4 47 -5" class="C1" /><path d="M 127136 909023 l 7194 0" class="C1" /><path d="M 111982 27194 l -2709 338" class="C1" /><path d="M 22 18501 l 487 -9286" class="C1" /><path d="M 105526 22618 c -12 -6 -24 -12 -32 -17 c -7 -5 -10 -10 -9 -14 c 1 -4 5 -8 15 -10 c 9 -2 23 -3 37 -4" class="C1" /><path d="M 71649 984092 c 0 1481 -1201 2681 -2681 2681 c -1481 0 -2681 -1201 -2681 -2681 c 0 -1481 1201 -2681 2681 -2681 c 1481 0 2681 1201 2681 2681" class="C1" /><path d="M 97095 4958 l -8 188" class="C1" /><path d="M 79663 94110 l 0 -1903" class="C1" /><path d="M 130130 910009 c -1242 251 -2074 1427 -1896 2681" class="C1" /><path d="M 107323 969395 c -116 68 -231 135 -347 203 c -116 68 -232 135 -348 203" class="C1" /><path d="M 206430 981499 c 22 -411 -127 -813 -410 -1112 c -284 -299 -677 -468 -1089 -468" class="C1" /><path d="M 60923 980027 l -57070 0" class="C1" /><path d="M 113105 23102 l -1201 0" class="C1" /><path d="M 113336 972360 c 340 38 680 75 1014 195 c 114 41 228 92 341 143" class="C1" /><path d="M 80495 29755 l -944 0" class="C1" /><path d="M 107295 30283 c 29 -21 58 -42 144 -64 c 90 -22 244 -45 430 -67 c 186 -22 405 -45 644 -67 c 239 -22 499 -45 760 -67 c 260 -22 521 -45 760 -67 c 239 -22 456 -45 644 -67 c 188 -22 347 -45 430 -67 c 54 -14 75 -29 97 -43" class="C1" /><path d="M 151918 993326 c -2036 0 -3687 600 -3687 1341" class="C1" /><path d="M 79825 908158 l 0 -6636" class="C1" /><path d="M 79825 97214 c 0 -172 -72 -312 -162 -318" class="C1" /><path d="M 113019 977342 l 16 -122" class="C1" /><path d="M 106824 27532 l -98 59" class="C1" /><path d="M 115802 998689 l -160 0" class="C1" /><path d="M 126262 900657 l 874 0" class="C1" /><path d="M 103982 23110 l -16 59" class="C1" /><path d="M 114691 972699 l 0 794" class="C1" /><path d="M 127566 85668 l 667 0" class="C1" /><path d="M 111545 22551 c 16 -6 32 -12 52 -17 c 19 -5 42 -10 65 -14 c 23 -4 47 -7 71 -10 c 24 -2 48 -4 69 -4 c 5 -0 10 -0 15 -0" class="C1" /><path d="M 127136 900657 l 0 8366" class="C1" /><path d="M 111236 968783 l 161 -94" class="C1" /><path d="M 157622 21089 l -96698 0" class="C1" /><path d="M 133969 991589 l -37 179 l -128 439 l -167 383 l -200 313 l -226 232 l -244 143 l -253 48" class="C1" /><path d="M 106889 23102 c 13 -112 26 -225 42 -337 c 12 -87 25 -173 38 -259" class="C1" /><path d="M 111925 972495 c 4 20 9 41 -63 61 c -78 22 -246 45 -463 67 c -217 22 -484 45 -787 67 c -303 22 -643 45 -991 67 c -348 22 -704 45 -1044 67 c -340 22 -663 45 -938 67 c -276 22 -504 45 -690 67 c -186 22 -329 45 -336 67 c -2 7 10 15 23 22" class="C1" /><path d="M 143687 994667 l -857 0" class="C1" /><path d="M 127566 87203 c -177 1255 654 2430 1896 2681" class="C1" /><path d="M 78057 92271 c 11 -18 22 -36 30 -50 c 7 -14 11 -24 10 -31 c -0 -6 -3 -8 -10 -6 c -7 2 -19 10 -30 17" class="C1" /><path d="M 112802 977388 l 34 -212" class="C1" /><path d="M 80495 972462 l 0 -945031" class="C1" /><path d="M 116880 993869 l 0 4277" class="C1" /><path d="M 3104 981607 l 7 -304 l 38 -295 l 67 -273 l 93 -241 l 115 -198 l 133 -148 l 145 -91 l 151 -31" class="C1" /><path d="M 79155 96446 l 0 436" class="C1" /><path d="M 81118 8304 l 56310 0" class="C1" /><path d="M 147167 1740 l -29675 0" class="C1" /><path d="M 111204 969855 c -2 7 -4 13 -15 20 c -37 22 -176 45 -343 67 c -166 22 -359 45 -582 67 c -223 22 -475 45 -733 67 c -258 22 -522 45 -773 67 c -251 22 -489 45 -695 67 c -205 22 -377 45 -511 67 c -134 22 -229 45 -249 67 c -15 17 11 33 38 50" class="C1" /><path d="M 62764 5333 l -13 262 l -38 251 l -62 232 l -83 203 l -102 167 l -116 124 l -126 76 l -131 26" class="C1" /><path d="M 111908 971439 c 0 15 1 30 -46 45 c -69 22 -243 45 -463 67 c -219 22 -484 45 -787 67 c -302 22 -643 45 -991 67 c -348 22 -704 45 -1044 67 c -340 22 -663 45 -938 67 c -276 22 -504 45 -690 67 c -186 22 -329 45 -336 67 c -2 7 10 15 23 22" class="C1" /><path d="M 109683 6566 l 21532 0" class="C1" /><path d="M 78149 94129 l 1514 -19" class="C1" /><path d="M 106593 29878 c 116 68 231 135 347 203 c 116 68 232 135 348 203" class="C1" /><path d="M 72398 9215 l 37 -503 l 84 -480 l 128 -439 l 167 -383 l 200 -313 l 226 -232 l 244 -143 l 253 -48" class="C1" /><path d="M 110151 22505 c 23 1 47 1 68 3 c 21 2 40 5 56 9 c 16 4 29 8 38 14 c 9 5 15 11 16 17 c 0 1 0 3 0 4" class="C1" /><path d="M 79663 907591 c -2 37 -3 73 -1 110" class="C1" /><path d="M 106781 27842 l -170 99" class="C1" /><path d="M 1200 990893 l -487 -9286" class="C1" /><path d="M 109714 8304 c -10 -194 -20 -388 -30 -580 c -25 -470 -49 -927 -63 -1194 c -0 -4 -0 -7 -1 -11" class="C1" /><path d="M 109356 995042 c 109 -12 217 -24 318 -61 c 101 -37 193 -99 273 -175 c 80 -76 146 -165 189 -263 c 42 -99 60 -206 78 -314" class="C1" /><path d="M 105526 22551 l -16 122" class="C1" /><path d="M 113294 977381 c -2 -2 -3 -4 -4 -5 c -6 -11 18 -15 49 -16 c 30 -1 66 0 115 7 c 37 5 82 13 127 21" class="C1" /><path d="M 203796 990785 l -37 503 l -84 480 l -128 439 l -167 383 l -200 313 l -226 232 l -244 143 l -253 48" class="C1" /><path d="M 103967 23102 c 30 -112 60 -225 89 -337 c 23 -87 45 -173 68 -259" class="C1" /><path d="M 106610 29190 c 117 68 235 136 352 205 c 56 33 113 66 169 99" class="C1" /><path d="M 129462 89884 l 667 0" class="C1" /><path d="M 128455 118604 c 173 -21 306 -162 306 -326" class="C1" /><path d="M 78512 22505 c 10 62 20 125 40 183 c 52 157 171 290 305 397 c 104 83 218 150 340 189 c 113 36 234 48 355 59" class="C1" /><path d="M 110330 22551 c 1 90 1 179 3 269 c 2 113 6 225 10 338" class="C1" /><path d="M 111940 29197 c -117 -68 -235 -136 -352 -205 c -117 -68 -234 -136 -351 -205" class="C1" /><path d="M 74429 993434 l 808 0" class="C1" /><path d="M 80495 975500 l 0 1888" class="C1" /><path d="M 128518 883436 l -1606 44" class="C1" /><path d="M 106591 29750 c 40 -22 81 -45 204 -67 c 124 -22 330 -45 581 -67 c 251 -22 546 -45 870 -67 c 324 -22 675 -45 1026 -67 c 351 -22 701 -45 1026 -67 c 325 -22 625 -45 870 -67 c 245 -22 436 -45 581 -67 c 146 -22 247 -45 204 -67 c -11 -6 -33 -12 -54 -18" class="C1" /><path d="M 127566 897942 l 667 0" class="C1" /><path d="M 206430 981499 l -487 9286" class="C1" /><path d="M 126914 105750 c 449 -278 702 -786 652 -1312" class="C1" /><path d="M 128426 880468 l 335 898" class="C1" /><path d="M 128761 118682 l 0 413" class="C1" /><path d="M 104147 23225 c 75 21 151 41 220 60 c 71 20 135 38 192 54 c 55 16 104 30 132 38 c 17 5 27 8 37 10" class="C1" /><path d="M 105439 977213 c -5 0 -10 0 -16 1 c -49 3 -117 14 -186 27 c -70 13 -142 27 -214 44 c -75 17 -152 37 -224 56 c -1 0 -2 1 -3 1" class="C1" /><path d="M 111506 31100 c 7 10 13 20 -24 30 c -44 12 -147 25 -284 38 c -134 12 -299 24 -493 36 c -193 12 -414 25 -648 38 c -227 12 -467 25 -706 37 c -239 12 -478 24 -703 37 c -217 12 -423 25 -594 37 c -146 11 -267 21 -388 31" class="C1" /><path d="M 114529 23169 l -12 -45" class="C1" /><path d="M 111908 970366 c 0 15 1 30 -46 45 c -69 22 -243 45 -463 67 c -219 22 -484 45 -787 67 c -302 22 -643 45 -991 67 c -348 22 -704 45 -1044 67 c -340 22 -663 45 -938 67 c -276 22 -504 45 -690 67 c -186 22 -329 45 -336 67 c -2 7 10 15 23 22" class="C1" /><path d="M 96234 5861 l -76 309" class="C1" /><path d="M 126912 119250 l 508 -19" class="C1" /><path d="M 134330 87696 l 0 3174" class="C1" /><path d="M 107238 22551 c 22 9 43 18 67 27 c 53 20 119 38 191 54 c 70 16 147 29 225 38 c 75 9 153 14 227 16 c 72 1 141 -1 203 -7 c 62 -6 118 -15 164 -27 c 47 -12 85 -27 112 -44 c 28 -17 44 -36 46 -56 c 0 -0 0 -1 0 -1" class="C1" /><path d="M 126912 883480 c -90 1 -162 33 -162 71" class="C1" /><path d="M 106591 970903 l 0 134" class="C1" /><path d="M 111982 972699 c 179 -78 358 -157 539 -210 c 269 -80 542 -104 816 -128" class="C1" /><path d="M 49598 994532 c -227 0 -454 0 -663 0 c -209 0 -400 0 -562 0 c -162 0 -296 0 -375 0 c -80 0 -106 0 -132 0" class="C1" /><path d="M 106969 22505 c 23 1 45 1 69 3 c 24 2 48 5 72 9 c 23 4 46 8 66 14 c 20 5 38 11 53 17 c 3 1 6 3 9 4" class="C1" /><path d="M 128761 113914 l 0 86" class="C1" /><path d="M 111236 970928 c 117 -68 233 -136 350 -204 c 117 -68 234 -136 351 -204" class="C1" /><path d="M 79825 98371 c 0 93 75 168 168 168" class="C1" /><path d="M 3347 990893 l -243 -9286" class="C1" /><path d="M 79552 22505 l 0 1888" class="C1" /><path d="M 128518 114059 c -11 4 -22 9 -30 18 c -7 10 -11 24 -10 42 c 0 17 3 36 10 58 c 7 24 19 50 30 76" class="C1" /><path d="M 113102 23158 c 16 -6 31 -12 42 -18 c 11 -6 18 -11 21 -16 c 3 -5 2 -9 -2 -12 c -5 -3 -13 -6 -25 -7 c -9 -1 -21 -1 -33 -2" class="C1" /><path d="M 127566 87203 l 667 0" class="C1" /><path d="M 159277 994424 c 156 -19 311 -39 453 -98 c 153 -64 289 -174 397 -305 c 84 -102 151 -217 189 -340 c 36 -114 47 -235 59 -355" class="C1" /><path d="M 78120 96883 l 0 390" class="C1" /><path d="M 74546 9215 l 5149 0" class="C1" /><path d="M 126912 884289 c -90 5 -162 114 -162 248" class="C1" /><path d="M 97668 995042 c -3 -59 -5 -117 -13 -297 c -8 -189 -21 -513 -38 -909 c -14 -335 -31 -722 -49 -1143 c -11 -262 -23 -537 -35 -826 c -4 -92 -8 -185 -12 -278" class="C1" /><path d="M 508 9215 l -487 9286" class="C1" /><path d="M 143687 994667 l 13 -262 l 38 -252 l 62 -232 l 83 -203 l 102 -167 l 116 -124 l 126 -76 l 131 -26" class="C1" /><path d="M 126912 114199 c 3 -65 3 -129 0 -194" class="C1" /><path d="M 128455 119141 l -1035 48" class="C1" /><path d="M 201766 6566 l 808 0" class="C1" /><path d="M 105641 23102 c -16 1 -32 1 -44 3 c -12 2 -20 5 -23 9 c -4 4 -4 8 0 14 c 4 5 12 11 23 17 c 9 5 20 9 32 14" class="C1" /><path d="M 111204 968782 c -2 7 -4 13 -15 20 c -37 22 -176 45 -343 67 c -166 22 -359 45 -582 67 c -223 22 -475 45 -733 67 c -258 22 -522 45 -773 67 c -251 22 -489 45 -695 67 c -205 22 -377 45 -511 67 c -134 22 -229 45 -249 67 c -15 17 11 33 38 50" class="C1" /><path d="M 79663 902547 c 90 -2 162 -47 162 -102" class="C1" /><path d="M 126912 119109 c -90 6 -162 154 -162 334" class="C1" /><path d="M 77814 97385 l 0 -304" class="C1" /><path d="M 111236 28701 c 117 -68 233 -136 350 -204 c 117 -68 234 -136 351 -204" class="C1" /><path d="M 203796 990785 l -66369 0" class="C1" /><path d="M 79662 92122 c -0 29 0 57 2 86" class="C1" /><path d="M 105629 23158 c 48 20 96 41 131 60 c 35 20 55 38 62 54 c 7 16 0 29 -20 38 c -19 9 -51 14 -94 16 c -41 1 -93 -1 -151 -7 c -58 -6 -123 -15 -191 -27 c -70 -12 -143 -27 -216 -44 c -76 -17 -152 -37 -223 -56 c -40 -11 -78 -23 -116 -34" class="C1" /><path d="M 147379 998146 c 223 174 515 314 852 408" class="C1" /><path d="M 111862 30688 l 91 0" class="C1" /><path d="M 106615 30086 c -0 -0 -1 -1 -1 -1 c -14 -16 118 -33 250 -50" class="C1" /><path d="M 64362 6131 l 25210 0" class="C1" /><path d="M 111236 27629 l 166 -97" class="C1" /><path d="M 111236 29774 c 117 -68 233 -136 350 -204 c 117 -68 234 -136 351 -204" class="C1" /><path d="M 79663 902547 c -3 75 -3 150 0 225" class="C1" /><path d="M 104923 22551 c -17 90 -35 179 -51 269 c -21 113 -41 225 -62 338" class="C1" /><path d="M 97095 4958 c -109 12 -217 24 -318 61 c -101 37 -193 99 -273 175 c -80 76 -146 165 -189 263 c -42 99 -60 206 -78 314" class="C1" /><path d="M 106591 971975 l 0 134" class="C1" /><path d="M 104667 22505 c 13 1 27 1 43 3 c 17 2 37 5 59 9 c 22 4 45 8 68 14 c 23 5 47 11 70 17 c 5 1 10 3 15 4" class="C1" /><path d="M 79663 902772 l -1606 48" class="C1" /><path d="M 81118 991589 l 56310 0" class="C1" /><path d="M 126912 883232 l 1606 -44" class="C1" /><path d="M 126912 883232 c -90 6 -162 147 -162 319" class="C1" /><path d="M 111576 22505 c -23 0 -45 0 -69 3 c -1 0 -2 0 -3 0" class="C1" /><path d="M 113864 23158 c -72 20 -144 41 -219 60 c -77 20 -158 38 -236 54 c -76 16 -150 29 -216 38 c -64 9 -121 14 -168 16 c -45 1 -81 -1 -105 -7 c -24 -6 -37 -15 -38 -27 c -1 -12 10 -27 32 -44 c 23 -17 57 -37 103 -56 c 26 -11 56 -23 85 -34" class="C1" /><path d="M 104580 973154 l 629 0" class="C1" /><path d="M 107288 31359 c 30 -22 60 -45 151 -67 c 91 -22 244 -45 430 -67 c 186 -22 405 -45 644 -67 c 239 -22 499 -45 760 -67 c 260 -22 521 -45 760 -67 c 239 -22 456 -45 644 -67 c 188 -22 347 -45 430 -67 c 54 -14 75 -29 97 -43" class="C1" /><path d="M 129462 910009 c -1242 251 -2074 1427 -1896 2681" class="C1" /><path d="M 127566 912690 l 667 0" class="C1" /><path d="M 137427 989454 l 0 568" class="C1" /><path d="M 133934 87696 l 0 3174" class="C1" /><path d="M 47188 5576 c -4 0 -8 0 -11 0 c -23 0 61 0 169 0 c 108 0 240 0 406 0 c 167 0 368 0 582 0 c 214 0 442 0 669 0" class="C1" /><path d="M 106591 27605 l 0 134" class="C1" /><path d="M 109356 995042 l 8 -188" class="C1" /><path d="M 80328 98539 l 0 -6972" class="C1" /><path d="M 89572 6131 l 0 543" class="C1" /><path d="M 3574 980027 l 0 -959946" class="C1" /><path d="M 96238 5771 l 0 0" class="C1" /><path d="M 104810 23158 c -21 -6 -43 -12 -66 -18 c -23 -6 -47 -11 -70 -16 c -23 -5 -46 -9 -67 -12 c -21 -3 -40 -6 -56 -7 c -12 -1 -21 -1 -31 -2" class="C1" /><path d="M 116255 1204 l 164 0" class="C1" /><path d="M 78637 96381 l 0 238" class="C1" /><path d="M 204039 981499 l -243 9286" class="C1" /><path d="M 107322 30452 c -113 67 -226 135 -339 202 c -77 46 -154 92 -231 138" class="C1" /><path d="M 127566 85668 c 50 -526 -203 -1034 -652 -1312" class="C1" /><path d="M 79993 901354 l 0 6972" class="C1" /><path d="M 128455 884061 c 173 -12 306 -68 306 -130" class="C1" /><path d="M 62764 4733 c 279 217 564 418 857 600" class="C1" /><path d="M 105707 22551 c -11 -6 -22 -12 -29 -17 c -6 -5 -8 -10 -5 -14 c 2 -4 8 -7 18 -10 c 10 -2 23 -4 40 -4 c 4 -0 8 -0 12 -0" class="C1" /><path d="M 157622 977388 l 0 1416" class="C1" /><path d="M 104796 977342 c -23 6 -46 12 -69 17 c -23 5 -47 10 -69 14 c -22 4 -42 7 -60 10 c -18 2 -33 4 -45 4 c -3 0 -5 0 -7 0" class="C1" /><path d="M 79825 91889 c -3 32 -6 64 -15 95 c -9 30 -25 59 -46 83 c -14 16 -30 30 -49 40 c -11 6 -24 11 -37 13 c -5 1 -10 1 -15 2" class="C1" /><path d="M 111954 28275 l 0 -134" class="C1" /><path d="M 117491 6566 l 0 -9 l 0 -27 l 0 -44 l 0 -61 l 0 -77 l 0 -93 l -0 -106 l 0 -119" class="C1" /><path d="M 77814 95028 l 335 -899" class="C1" /><path d="M 126247 884863 l 335 0" class="C1" /><path d="M 79155 902100 l -1035 62" class="C1" /><path d="M 105840 23423 l -982 0" class="C1" /><path d="M 105743 22505 c -13 86 -27 173 -41 259 c -19 112 -39 225 -60 337" class="C1" /><path d="M 128234 912690 l 0 1535" class="C1" /><path d="M 126262 914225 l 0 -18770" class="C1" /><path d="M 77814 97671 l 0 -286" class="C1" /><path d="M 113687 23356 l -2207 0" class="C1" /><path d="M 80495 972462 l 0 3039" class="C1" /><path d="M 126912 116610 c -90 4 -162 89 -162 194" class="C1" /><path d="M 106563 977176 l 5418 0" class="C1" /><path d="M 126247 119990 l 335 0" class="C1" /><path d="M 80328 901354 l -335 0" class="C1" /><path d="M 110139 994537 c 2 -49 5 -98 14 -277 c 9 -176 25 -479 41 -781" class="C1" /><path d="M 142831 994667 c -121 -79 -241 -158 -354 -244 c -115 -88 -222 -184 -303 -295 c -31 -43 -58 -88 -71 -136 c -11 -40 -12 -82 -13 -123" class="C1" /><path d="M 127136 99236 l -874 0" class="C1" /><path d="M 126750 113866 c 0 75 72 137 162 140" class="C1" /><path d="M 106591 29750 l 0 134" class="C1" /><path d="M 113965 27599 l 362 -169" class="C1" /><path d="M 128761 117525 l 0 -1577" class="C1" /><path d="M 148566 998689 l -32764 0" class="C1" /><path d="M 114529 23169 l -126 0" class="C1" /><path d="M 128518 116604 c -11 27 -22 53 -30 82 c -7 29 -11 60 -10 91 c 0 28 3 57 10 82 c 7 28 19 53 30 78" class="C1" /><path d="M 88960 998260 l -0 -4290" class="C1" /><path d="M 128234 101950 l 0 2488" class="C1" /><path d="M 111238 971014 c 1 0 2 0 3 1 c 82 23 30 45 -51 67 c -80 22 -188 45 -343 67 c -155 22 -356 45 -582 67 c -226 22 -476 45 -733 67 c -257 22 -523 45 -773 67 c -250 22 -486 45 -695 67 c -209 22 -391 45 -511 67 c -104 19 -161 39 -217 58" class="C1" /><path d="M 203348 18393 l 2391 0" class="C1" /><path d="M 78484 96743 l 0 -381" class="C1" /><path d="M 126912 119109 l 509 -19" class="C1" /><path d="M 104170 22505 c -22 86 -44 173 -67 259 c -29 112 -59 225 -88 337" class="C1" /><path d="M 74546 6674 l 0 48 l 0 143 l 0 232 l 0 313 l 0 383 l 0 439 l 0 480 l 0 503" class="C1" /><path d="M 107323 972613 c -116 68 -231 135 -347 203 c -116 68 -232 135 -348 203" class="C1" /><path d="M 132023 6566 l -809 0" class="C1" /><path d="M 131950 900624 l 0 33" class="C1" /><path d="M 203266 993326 c 1426 0 2603 -1117 2678 -2541" class="C1" /><path d="M 109272 27532 c -422 -15 -843 -29 -1260 -78 c -487 -56 -968 -159 -1449 -261" class="C1" /><path d="M 137814 902175 c 45 -1868 -856 -3633 -2396 -4692" class="C1" /><path d="M 127566 912690 l 0 1535" class="C1" /><path d="M 105625 27599 l -1045 0" class="C1" /><path d="M 129462 99269 l 667 0" class="C1" /><path d="M 90913 5333 c 0 740 600 1341 1341 1341" class="C1" /><path d="M 63621 5333 c 121 79 241 158 354 244 c 115 88 222 184 303 295 c 31 43 58 88 71 136 c 11 40 12 81 13 123" class="C1" /><path d="M 157622 19973 l 44976 0" class="C1" /><path d="M 152564 6566 c -233 -6 -466 -11 -699 -30 c -431 -35 -859 -116 -1272 -246 c -283 -89 -559 -202 -815 -355 c -183 -110 -356 -240 -485 -413 c -44 -60 -84 -124 -101 -195 c -8 -33 -11 -67 -15 -101" class="C1" /><path d="M 126582 884863 c 93 0 168 -75 168 -168" class="C1" /><path d="M 79662 97984 c 12 2 23 3 34 7 c 14 4 26 12 38 20 c 18 14 34 31 46 49 c 19 27 32 59 38 91 c 4 22 6 44 7 66" class="C1" /><path d="M 137814 907505 l 0 -5330" class="C1" /><path d="M 79663 92208 l -1606 63" class="C1" /><path d="M 90301 994774 l 0 2681" class="C1" /><path d="M 104148 23158 c -23 -6 -46 -12 -67 -18 c -21 -6 -40 -11 -57 -16 c -16 -5 -30 -9 -40 -12 c -10 -3 -17 -6 -19 -7 c -1 -1 -0 -1 1 -2" class="C1" /><path d="M 114691 27194 l 0 -3684" class="C1" /><path d="M 79662 901978 l -507 19" class="C1" /><path d="M 111236 969856 c 117 -68 233 -136 350 -204 c 117 -68 234 -136 351 -204" class="C1" /><path d="M 137427 9870 l -56310 0" class="C1" /><path d="M 126912 883480 l 0 810" class="C1" /><path d="M 114476 977176 l -55 212" class="C1" /><path d="M 107666 31385 c -49 0 -98 0 -143 0 c -110 0 -193 0 -212 0 c -9 0 -4 0 1 0" class="C1" /><path d="M 127566 895455 l 0 2488" class="C1" /><path d="M 96106 8304 c 8 -159 17 -318 25 -471 c 22 -423 42 -797 57 -1091 c 15 -293 27 -507 38 -721" class="C1" /><path d="M 110371 993720 c -27 34 -54 68 -75 105 c -52 93 -65 203 -78 314" class="C1" /><path d="M 60923 984092 c 0 2962 2401 5363 5363 5363" class="C1" /><path d="M 57274 994774 l 335 0" class="C1" /><path d="M 97668 995042 l 11689 0" class="C1" /><path d="M 104172 23169 l -205 0" class="C1" /><path d="M 127566 897942 c -177 1255 654 2430 1896 2681" class="C1" /><path d="M 114397 23225 c -75 20 -150 41 -220 60 c -71 20 -136 38 -192 54 c -54 16 -99 29 -132 38 c -31 9 -51 14 -57 16 c -6 1 -1 -1 17 -7 c 17 -6 46 -15 84 -27 c 39 -12 89 -27 145 -44 c 59 -17 125 -37 196 -56 c 40 -11 81 -22 123 -34" class="C1" /><path d="M 3186 6674 c -1426 0 -2603 1117 -2678 2541" class="C1" /><path d="M 204239 19973 c 412 0 806 -169 1089 -468 c 284 -299 432 -701 410 -1112" class="C1" /><path d="M 157622 21089 l 0 1416" class="C1" /><path d="M 117491 1740 l 0 4290" class="C1" /><path d="M 135418 102411 c 1540 -1059 2441 -2824 2396 -4692" class="C1" /><path d="M 79663 97967 l 0 -823" class="C1" /><path d="M 132714 993326 l 69743 0" class="C1" /><path d="M 113931 977176 l -52 206" class="C1" /><path d="M 132023 6566 l 69743 0" class="C1" /><path d="M 131950 99236 l 0 33" class="C1" /><path d="M 113336 973154 c 211 15 422 29 630 78 c 243 56 484 159 724 261" class="C1" /><path d="M 128234 897942 c -177 1255 654 2430 1896 2681" class="C1" /><path d="M 72398 9215 l 2147 0" class="C1" /><path d="M 110468 993526 c 44 -39 89 -77 138 -110 c 48 -32 100 -57 154 -78 c 52 -20 106 -36 161 -45 c 52 -8 104 -11 157 -13" class="C1" /><path d="M 128518 883188 c -11 28 -22 55 -30 82 c -7 27 -11 52 -10 75 c 0 21 3 40 10 54 c 7 16 19 26 30 37" class="C1" /><path d="M 79155 907242 l 0 330" class="C1" /><path d="M 95377 6674 l -20831 0" class="C1" /><path d="M 137427 990023 l 0 1566" class="C1" /><path d="M 111954 969428 l 0 -223" class="C1" /><path d="M 90197 998796 c 52 -443 104 -887 104 -1331 c 0 -3 0 -6 0 -9" class="C1" /><path d="M 103967 23169 c -1 1 -2 1 1 3 c 4 2 12 5 24 9 c 12 4 27 8 45 14 c 18 5 38 11 60 17 c 16 5 34 9 51 14" class="C1" /><path d="M 105840 23356 l 0 154" class="C1" /><path d="M 103854 977176 l 2709 0" class="C1" /><path d="M 97095 4958 c -109 12 -217 24 -318 61 c -101 37 -193 99 -273 175 c -80 76 -146 165 -189 263 c -42 99 -60 206 -78 314" class="C1" /><path d="M 79663 97145 l -509 -14" class="C1" /><path d="M 79662 97984 c 1 -5 2 -11 2 -16" class="C1" /><path d="M 126247 113018 c -93 0 -168 75 -168 168" class="C1" /><path d="M 79155 907682 l 507 19" class="C1" /><path d="M 127420 878856 l 0 -299" class="C1" /><path d="M 79825 907919 c 0 -121 -72 -221 -162 -225" class="C1" /><path d="M 111195 991589 c -7 104 -14 207 -21 306 c -18 262 -34 490 -49 696 c -17 244 -31 455 -38 554 c -3 46 -5 68 -6 89" class="C1" /><path d="M 111503 31022 c 20 -6 40 -12 58 -18 c 107 -36 136 -69 166 -102" class="C1" /><path d="M 149178 5226 l 0 -4022" class="C1" /><path d="M 77814 92763 l 243 -492" class="C1" /><path d="M 73090 990893 l -69743 0" class="C1" /><path d="M 142090 993869 l -25210 0" class="C1" /><path d="M 79155 907572 l 509 20" class="C1" /><path d="M 47174 5576 c -156 19 -311 39 -453 98 c -153 64 -289 174 -397 305 c -84 102 -151 217 -189 340 c -36 114 -47 235 -59 355" class="C1" /><path d="M 75237 989454 l 0 1438" class="C1" /><path d="M 96811 994229 c 18 108 35 216 78 314 c 42 99 109 188 189 263 c 80 76 172 138 273 175 c 101 37 209 49 318 61" class="C1" /><path d="M 126750 878059 c 0 -93 -75 -168 -168 -168" class="C1" /><path d="M 96167 6150 l -479 653" class="C1" /><path d="M 108664 22505 c 0 86 1 173 -0 259 c -1 112 -5 225 -9 337" class="C1" /><path d="M 111941 969277 c -117 -68 -235 -136 -352 -205 c -117 -68 -234 -136 -351 -205" class="C1" /><path d="M 126262 895455 l 75 -534 l 214 -452 l 320 -302 l 377 -106 l 377 106 l 320 302 l 214 452 l 75 534" class="C1" /><path d="M 127420 884134 l 1035 -73" class="C1" /><path d="M 111469 31070 c 38 -22 76 -44 114 -66 c 20 -12 40 -23 60 -35" class="C1" /><path d="M 79155 97131 l 0 -249" class="C1" /><path d="M 103854 27194 l 0 -3684" class="C1" /><path d="M 137179 100424 l 0 799046" class="C1" /><path d="M 78120 96883 c -35 4 -71 8 -103 16 c -32 8 -62 20 -88 34 c -26 14 -49 30 -67 48 c -19 19 -33 39 -40 60 c -4 13 -6 27 -7 40" class="C1" /><path d="M 129462 99269 c -1242 251 -2074 1427 -1896 2681" class="C1" /></g></svg>