<?xml version='1.0' encoding='utf-8'?>
<svg xmlns="http://www.w3.org/2000/svg" width="15.3mm" height="46.5mm" viewBox="0 0 329032 1000000"><defs><style>.C1 {stroke: #ffffff; stroke-width: 5376; stroke-opacity: 1.000; fill: none; fill-opacity: 1.000;}</style></defs><g stroke-linecap="round" stroke-linejoin="round" fill-rule="evenodd"><path d="M 63109 3644 l 0 602" class="C1" /><path d="M 58220 215 l 0 4031" class="C1" /><path d="M 237980 999785 l -161 0" class="C1" /><path d="M 227715 909652 c 0 772 -626 1397 -1397 1397 c -772 0 -1397 -626 -1397 -1397 c 0 -772 626 -1397 1397 -1397 c 772 0 1397 626 1397 1397" class="C1" /><path d="M 73925 981191 l 0 -962167" class="C1" /><path d="M 188476 98184 l -1000 0" class="C1" /><path d="M 110242 995068 c 57 -109 114 -218 201 -317 c 83 -94 192 -180 301 -265" class="C1" /><path d="M 723 8135 l -488 9305" class="C1" /><path d="M 195686 915252 l 3491 0" class="C1" /><path d="M 193177 911027 l -1824 0" class="C1" /><path d="M 98594 985125 l 115 919 l 330 808 l 505 600 l 620 319 l 49 11" class="C1" /><path d="M 104730 24291 c 0 1113 -902 2015 -2015 2015 c -1113 0 -2015 -902 -2015 -2015 c 0 -1113 902 -2015 2015 -2015 c 1113 0 2015 902 2015 2015" class="C1" /><path d="M 233641 981449 c 74 85 148 170 199 275 c 50 103 76 224 85 350 c 6 86 4 175 -1 264 c -2 27 -4 54 -6 81 c -4 47 -7 94 -11 141" class="C1" /><path d="M 2874 8135 l 69888 0" class="C1" /><path d="M 163313 19852 l 26409 0" class="C1" /><path d="M 217593 18464 c -83 -88 -166 -176 -221 -288 c -27 -54 -48 -114 -63 -177 c -16 -64 -26 -130 -31 -198 c -12 -151 2 -310 16 -469" class="C1" /><path d="M 127717 995056 l 0 -537" class="C1" /><path d="M 142238 991068 l 0 -570" class="C1" /><path d="M 198417 103558 l 0 792885" class="C1" /><path d="M 126374 995862 c 0 -742 -602 -1344 -1344 -1344" class="C1" /><path d="M 89917 1000000 l -165 0" class="C1" /><path d="M 232225 980976 l 21893 0" class="C1" /><path d="M 326402 982559 l -244 9305" class="C1" /><path d="M 188784 896442 l 0 2493" class="C1" /><path d="M 233249 994319 l -6 92" class="C1" /><path d="M 74926 981191 l 0 1583" class="C1" /><path d="M 218818 979202 l 0 946" class="C1" /><path d="M 89917 1000000 c 52 -444 104 -889 104 -1334 c 0 -3 0 -6 0 -9" class="C1" /><path d="M 195686 84748 l -398 0" class="C1" /><path d="M 232512 18809 l 21594 -0" class="C1" /><path d="M 200267 999355 c 423 338 821 537 1075 537" class="C1" /><path d="M 74105 5589 l -69888 0" class="C1" /><path d="M 96562 992062 l -111 -2115" class="C1" /><path d="M 54861 5589 c 2040 0 3695 -602 3695 -1344" class="C1" /><path d="M 326158 991865 l -69888 0" class="C1" /><path d="M 201315 4944 l 0 537" class="C1" /><path d="M 127422 4138 c 0 214 142 419 394 570 c 252 151 594 236 950 236" class="C1" /><path d="M 199176 896442 l -3491 0" class="C1" /><path d="M 64526 995163 l -5585 4299" class="C1" /><path d="M 232556 991954 c -13 5 -26 10 -65 14 c -40 3 -106 5 -186 5 c -80 0 -175 -1 -279 -5 c -104 -3 -216 -9 -329 -14" class="C1" /><path d="M 104730 975709 c 0 1113 -902 2015 -2015 2015 c -1113 0 -2015 -902 -2015 -2015 c 0 -1113 902 -2015 2015 -2015 c 1113 0 2015 902 2015 2015" class="C1" /><path d="M 63109 3644 c 279 218 566 419 858 602" class="C1" /><path d="M 72763 8135 l 2152 0" class="C1" /><path d="M 57261 995969 c 0 -356 -389 -698 -1082 -950 c -693 -252 -1633 -394 -2613 -394" class="C1" /><path d="M 254117 980976 c 289 0 577 0 851 0 c 274 0 534 0 793 0" class="C1" /><path d="M 140669 21593 l 0 1892" class="C1" /><path d="M 111251 991972 l -5 69" class="C1" /><path d="M 198665 7362 l 0 1569" class="C1" /><path d="M 239060 999241 l 30563 0" class="C1" /><path d="M 227661 24291 c 0 742 -602 1344 -1344 1344 c -742 0 -1344 -602 -1344 -1344 c 0 -742 602 -1344 1344 -1344 c 742 0 1344 602 1344 1344" class="C1" /><path d="M 218773 991955 l 62 13" class="C1" /><path d="M 256269 991865 l -37 504 l -84 481 l -128 440 l -167 384 l -200 314 l -226 233 l -244 143 l -253 48" class="C1" /><path d="M 328797 982559 l -2396 0" class="C1" /><path d="M 96753 994541 c 7 135 14 270 20 386 c 13 237 21 391 29 545" class="C1" /><path d="M 255762 980976 l 69888 0" class="C1" /><path d="M 232392 5374 l 21714 0" class="C1" /><path d="M 232384 995226 l 8 -155" class="C1" /><path d="M 88678 995163 l -24152 0" class="C1" /><path d="M 185725 979202 l 0 -958405" class="C1" /><path d="M 126374 999445 c 0 150 9 300 27 448" class="C1" /><path d="M 265924 995755 l 13 -262 l 38 -252 l 62 -232 l 84 -204 l 102 -167 l 116 -124 l 126 -76 l 131 -26" class="C1" /><path d="M 219632 991955 l 12065 0" class="C1" /><path d="M 191353 901622 l 1824 0" class="C1" /><path d="M 202659 555 l 0 3583" class="C1" /><path d="M 2642 982774 l -2396 0" class="C1" /><path d="M 219632 991955 l -492 -9395" class="C1" /><path d="M 232560 991865 l 488 -9305" class="C1" /><path d="M 87125 985221 c 0 801 -650 1451 -1451 1451 c -801 0 -1451 -650 -1451 -1451 c 0 -801 650 -1451 1451 -1451 c 801 0 1451 650 1451 1451" class="C1" /><path d="M 162751 20174 l 0 -5299" class="C1" /><path d="M 232957 17226 l 21149 -0" class="C1" /><path d="M 175154 20798 l -11400 0" class="C1" /><path d="M 193177 909877 l 0 1149" class="C1" /><path d="M 272107 4031 l -336 0" class="C1" /><path d="M 264507 4837 l 5585 -4299" class="C1" /><path d="M 254365 980976 l 0 -962167" class="C1" /><path d="M 187477 915252 l 0 -18809" class="C1" /><path d="M 227661 975709 c 0 742 -602 1344 -1344 1344 c -742 0 -1344 -602 -1344 -1344 c 0 -742 602 -1344 1344 -1344 c 742 0 1344 602 1344 1344" class="C1" /><path d="M 265924 996356 l 0 -602" class="C1" /><path d="M 127717 995056 l 0 4299" class="C1" /><path d="M 74915 17441 l -2396 0" class="C1" /><path d="M 232015 4057 c -47 -37 -93 -74 -144 -104 c -50 -30 -104 -53 -160 -71 c -53 -18 -108 -31 -164 -37 c -52 -6 -105 -6 -158 -6" class="C1" /><path d="M 198665 8028 l 19116 -0" class="C1" /><path d="M 140955 991972 l -29704 0" class="C1" /><path d="M 158951 14875 l -115 -919 l -330 -808 l -505 -600 l -620 -319 l -660 0 l -620 319 l -505 600 l -330 808 l -115 919 l 115 919 l 330 808 l 505 600 l 620 319 l 660 0 l 620 -319 l 505 -600 l 330 -808 l 115 -919" class="C1" /><path d="M 218286 982667 l -19621 0" class="C1" /><path d="M 162751 985125 l 0 -5299" class="C1" /><path d="M 88678 999463 l 0 -4299" class="C1" /><path d="M 228333 90348 c 0 1113 -902 2015 -2015 2015 c -1113 0 -2015 -902 -2015 -2015 c 0 -1113 902 -2015 2015 -2015 c 1113 0 2015 902 2015 2015" class="C1" /><path d="M 254106 17226 l 0 -9305" class="C1" /><path d="M 231697 991955 c -14 335 -28 670 -42 994 c -12 287 -24 565 -35 828 c -18 424 -35 810 -49 1145 c -17 397 -30 721 -38 911 c -8 181 -10 239 -13 298" class="C1" /><path d="M 243369 983556 c 183 22 366 44 535 107 c 93 35 182 82 266 137 c 81 53 157 113 225 181 c 71 70 133 149 188 232 c 53 82 99 169 135 260 c 67 169 102 351 102 534 c 0 183 -35 365 -102 534 c -36 91 -82 178 -135 260 c -55 84 -117 162 -188 232 c -68 68 -144 128 -225 182 c -83 55 -172 102 -265 136 c -170 63 -353 85 -535 107" class="C1" /><path d="M 188784 915252 l 669 0" class="C1" /><path d="M 232225 980976 l -312 0" class="C1" /><path d="M 232359 994564 c 0 -4 0 -7 1 -11 c 14 -267 38 -727 63 -1196 c 25 -469 50 -947 75 -1425" class="C1" /><path d="M 231611 7938 l -12065 0" class="C1" /><path d="M 239115 0 c -52 444 -104 889 -104 1334 c -0 3 -0 6 -0 9" class="C1" /><path d="M 175154 20798 l 14568 0" class="C1" /><path d="M 163313 20174 l -562 0" class="C1" /><path d="M 232139 18917 l -1 -58" class="C1" /><path d="M 89972 759 l -30563 0" class="C1" /><path d="M 265924 996356 c -279 -218 -566 -419 -858 -602" class="C1" /><path d="M 187477 84748 l 75 -535 l 214 -453 l 321 -303 l 378 -106 l 378 106 l 321 303 l 214 453 l 75 535" class="C1" /><path d="M 219808 996131 l 11713 0" class="C1" /><path d="M 326147 7920 l 244 9305" class="C1" /><path d="M 163754 978407 l 11400 0" class="C1" /><path d="M 72530 982774 l 7 -304 l 38 -295 l 67 -274 l 93 -241 l 116 -199 l 133 -148 l 145 -91 l 152 -31" class="C1" /><path d="M 190684 98378 l 669 0" class="C1" /><path d="M 96477 8046 c 13 -5 26 -10 65 -14 c 40 -3 106 -5 186 -5 c 80 -0 175 1 279 5 c 104 3 216 9 329 14" class="C1" /><path d="M 63109 4245 l 858 0" class="C1" /><path d="M 74915 5589 l 0 2546" class="C1" /><path d="M 74116 994626 l -253 -48 l -244 -143 l -226 -233 l -200 -314 l -167 -384 l -128 -440 l -84 -481 l -37 -504" class="C1" /><path d="M 218195 17332 c -6 112 -13 224 -16 331 c -4 105 -5 205 -6 304" class="C1" /><path d="M 239115 0 l 165 0" class="C1" /><path d="M 4227 994626 l -253 -48 l -244 -143 l -226 -233 l -200 -314 l -167 -384 l -128 -440 l -84 -481 l -37 -504" class="C1" /><path d="M 141615 28859 l -946 0" class="C1" /><path d="M 104112 909652 c 0 772 -626 1397 -1397 1397 c -772 0 -1397 -626 -1397 -1397 c 0 -772 626 -1397 1397 -1397 c 772 0 1397 626 1397 1397" class="C1" /><path d="M 140669 991068 c 0 867 703 1569 1569 1569" class="C1" /><path d="M 100213 12218 l -49 11 l -620 319 l -505 600 l -330 808 l -115 919 l 115 919 l 330 808 l 505 600 l 620 319 l 49 11" class="C1" /><path d="M 202659 4138 c 0 742 602 1344 1344 1344" class="C1" /><path d="M 59409 759 l 3699 2885" class="C1" /><path d="M 218835 991968 c 1 0 3 1 4 1 c 24 4 102 5 186 5 c 85 -0 176 -2 278 -5 c 102 -3 215 -8 328 -14" class="C1" /><path d="M 163172 986576 c 242 456 717 742 1234 742" class="C1" /><path d="M 111076 994472 l -3 47" class="C1" /><path d="M 198417 915252 l 0 63951" class="C1" /><path d="M 195288 98184 l 0 5374" class="C1" /><path d="M 218205 18237 c 2 17 4 35 8 52 c 13 57 45 110 78 161 c 34 52 71 102 113 147 c 42 45 90 86 140 122 c 50 36 103 67 158 90 c 103 44 214 60 325 77" class="C1" /><path d="M 188130 104872 c 450 -278 704 -788 654 -1315" class="C1" /><path d="M 198665 8932 l -56427 0" class="C1" /><path d="M 254106 18809 c 289 0 577 0 851 0 c 274 0 534 0 793 0" class="C1" /><path d="M 219139 982559 l 13050 0" class="C1" /><path d="M 198665 981083 l 20062 0" class="C1" /><path d="M 217244 20798 l 0 -946" class="C1" /><path d="M 218832 991933 c 25 478 50 956 75 1425 c 25 469 49 929 63 1196 c 0 4 0 7 1 11" class="C1" /><path d="M 232104 17333 c 112 -5 223 -10 328 -14 c 105 -3 202 -5 278 -5 c 76 0 131 2 186 5" class="C1" /><path d="M 91316 1566 c -0 -3 -0 -6 -0 -9 c -0 -448 -52 -895 -103 -1341" class="C1" /><path d="M 141615 991068 c 0 344 279 623 623 623" class="C1" /><path d="M 232409 7925 c -19 -364 -38 -729 -57 -1081 c -19 -352 -36 -693 -51 -977 c -8 -146 -15 -277 -22 -408" class="C1" /><path d="M 73270 19024 l -152 -31 l -145 -91 l -133 -148 l -116 -199 l -93 -241 l -67 -274 l -38 -295 l -7 -304" class="C1" /><path d="M 232139 18917 l -13121 0" class="C1" /><path d="M 164406 12683 c -517 0 -991 285 -1234 742" class="C1" /><path d="M 162751 14875 l -73 -1048 l -216 -1008 l -351 -929 l -473 -814 l -576 -668 l -657 -497 l -713 -306 l -741 -103" class="C1" /><path d="M 193522 19852 l 0 946" class="C1" /><path d="M 254106 7920 l 0 -2546" class="C1" /><path d="M 218688 7937 l -5 92" class="C1" /><path d="M 271771 4031 l 0 -3463" class="C1" /><path d="M 179178 13674 c -257 -614 -912 -961 -1564 -830 c -652 131 -1122 704 -1122 1370" class="C1" /><path d="M 195288 84748 l 0 5374" class="C1" /><path d="M 99811 982667 l 826 -0" class="C1" /><path d="M 217786 7959 c 15 -211 29 -422 43 -622 c 11 -154 21 -301 31 -448" class="C1" /><path d="M 110259 8045 l 76 1456" class="C1" /><path d="M 217956 5528 l 3 -47" class="C1" /><path d="M 72530 982774 l -69888 0" class="C1" /><path d="M 274171 994411 c -2040 0 -3695 602 -3695 1344" class="C1" /><path d="M 256258 7920 l 69888 0" class="C1" /><path d="M 193522 980148 l -3800 0" class="C1" /><path d="M 91365 994626 c -742 0 -1344 602 -1344 1344" class="C1" /><path d="M 89972 5045 c 742 0 1344 -358 1344 -799" class="C1" /><path d="M 187477 896442 l 0 -792885" class="C1" /><path d="M 201315 645 l -72549 0" class="C1" /><path d="M 96640 994626 l -21714 -0" class="C1" /><path d="M 237667 5374 c 742 0 1344 -602 1344 -1344" class="C1" /><path d="M 190684 901622 l 669 0" class="C1" /><path d="M 195686 103558 l -398 0" class="C1" /><path d="M 243369 986458 c -183 -22 -366 -44 -535 -107 c -93 -35 -182 -82 -266 -137 c -81 -53 -157 -113 -225 -181 c -71 -70 -133 -149 -188 -232 c -53 -82 -99 -169 -135 -260 c -67 -169 -102 -351 -102 -534 c -0 -183 35 -365 102 -534 c 36 -91 82 -178 135 -260 c 55 -84 117 -162 188 -232 c 68 -68 144 -128 225 -182 c 83 -55 172 -102 265 -136 c 170 -63 353 -85 535 -107" class="C1" /><path d="M 104730 90348 c 0 1113 -902 2015 -2015 2015 c -1113 0 -2015 -902 -2015 -2015 c 0 -1113 902 -2015 2015 -2015 c 1113 0 2015 902 2015 2015" class="C1" /><path d="M 232189 982559 l -492 9395" class="C1" /><path d="M 96472 8135 l 5 -90" class="C1" /><path d="M 164406 987317 c 652 0 1217 -451 1362 -1087 c 145 -636 -169 -1287 -756 -1570 c -587 -283 -1292 -122 -1699 388" class="C1" /><path d="M 58556 350 l 0 3896" class="C1" /><path d="M 232983 982583 c 15 -94 30 -187 44 -273 c 12 -78 23 -150 31 -203 c 5 -37 9 -65 13 -93" class="C1" /><path d="M 188784 913714 l 669 0" class="C1" /><path d="M 232556 991954 l 5 -90" class="C1" /><path d="M 162751 20174 l -68519 0" class="C1" /><path d="M 195288 896442 l 0 5374" class="C1" /><path d="M 190684 911027 l 669 0" class="C1" /><path d="M 157332 12218 l -49 11 l -620 319 l -505 600 l -330 808 l -115 919 l 115 919 l 330 808 l 505 600 l 620 319 l 49 11" class="C1" /><path d="M 141615 972720 l 0 -943862" class="C1" /><path d="M 202390 107 l 242 0" class="C1" /><path d="M 141615 976515 l 0 1892" class="C1" /><path d="M 232384 995226 l 76 -309" class="C1" /><path d="M 219018 18917 l -20353 0" class="C1" /><path d="M 254106 17226 l 2396 0" class="C1" /><path d="M 231521 996131 c 110 -12 219 -24 319 -61 c 100 -38 189 -101 273 -175 c 84 -74 163 -159 189 -264 c 0 -2 1 -3 1 -5" class="C1" /><path d="M 189453 915252 l -75 535 l -214 453 l -321 303 l -378 106 l -378 -106 l -321 -303 l -214 -453 l -75 -535" class="C1" /><path d="M 271933 78 c -546 89 -1187 248 -1842 460" class="C1" /><path d="M 140669 990499 l 0 570" class="C1" /><path d="M 198665 980772 l 0 10297" class="C1" /><path d="M 127717 995056 c -742 0 -1344 361 -1344 806" class="C1" /><path d="M 143184 21593 l -0 956814" class="C1" /><path d="M 163313 979826 l -562 0" class="C1" /><path d="M 96729 4374 c -3 49 -5 99 -15 278 c -9 177 -25 481 -41 784" class="C1" /><path d="M 254117 994411 c 142 0 284 0 419 0 c 135 0 263 0 391 0" class="C1" /><path d="M 195686 896442 l 0 5374" class="C1" /><path d="M 200267 999355 l 0 -4299" class="C1" /><path d="M 202659 555 c 0 -150 -9 -300 -27 -448" class="C1" /><path d="M 264507 4837 c 801 -211 1800 -502 2766 -806" class="C1" /><path d="M 188784 101065 l 0 2493" class="C1" /><path d="M 191353 98378 c -1245 251 -2078 1430 -1900 2687" class="C1" /><path d="M 142238 7362 c -867 0 -1569 703 -1569 1569" class="C1" /><path d="M 158951 990499 l 562 0" class="C1" /><path d="M 202390 107 c -254 0 -652 199 -1075 537" class="C1" /><path d="M 232294 4577 l -77 -313" class="C1" /><path d="M 188784 103558 l 669 0" class="C1" /><path d="M 218347 982573 c 55 2 110 5 186 5 c 76 0 174 -1 278 -5 c 105 -3 216 -9 328 -14" class="C1" /><path d="M 57099 999922 c -44 19 -88 37 -118 51 c -31 14 -49 23 -53 26 c -1 1 -1 1 -2 1" class="C1" /><path d="M 271933 78 c 44 -19 88 -37 118 -51 c 31 -14 49 -23 53 -26 c 1 -1 1 -1 2 -1" class="C1" /><path d="M 219054 17333 c -111 -5 -222 -10 -324 -14 c -102 -3 -196 -5 -276 -5 c -80 -0 -147 1 -187 4 c -41 3 -56 8 -71 13" class="C1" /><path d="M 91052 215 l 161 0" class="C1" /><path d="M 232130 18887 c 83 -1 166 -2 246 -20 c 86 -18 168 -55 243 -104 c 77 -50 148 -111 202 -185 c 53 -72 91 -156 129 -239" class="C1" /><path d="M 256269 991865 l 244 -9305" class="C1" /><path d="M 325650 980976 c 234 0 468 0 670 -0 c 210 0 386 0 533 0 c 147 0 264 0 332 0 c 66 0 87 0 108 0" class="C1" /><path d="M 256269 991865 l -2152 0" class="C1" /><path d="M 240354 537 l 0 4299" class="C1" /><path d="M 2886 992080 l -244 -9305" class="C1" /><path d="M 155713 985125 l 115 919 l 330 808 l 505 600 l 620 319 l 49 11" class="C1" /><path d="M 110092 995735 c 3 -57 6 -114 15 -279 c 9 -164 23 -436 42 -795 c 13 -245 28 -530 43 -815" class="C1" /><path d="M 95613 8135 c 14 -204 28 -409 42 -607 c 12 -175 24 -345 35 -505 c 18 -257 34 -490 49 -697 c 17 -246 31 -457 38 -555 c 3 -46 5 -68 6 -90" class="C1" /><path d="M 126374 999445 l 0 -3583" class="C1" /><path d="M 235 17441 c -22 412 127 815 411 1115 c 284 299 679 469 1091 469" class="C1" /><path d="M 95790 5589 l -20875 0" class="C1" /><path d="M 74915 19024 l 0 -1583" class="C1" /><path d="M 195686 98184 l 0 5374" class="C1" /><path d="M 256502 17226 l -7 304 l -38 295 l -67 274 l -93 241 l -116 199 l -133 148 l -145 91 l -152 31" class="C1" /><path d="M 1749 981191 c -413 0 -807 170 -1091 469 c -284 299 -433 702 -411 1115" class="C1" /><path d="M 269623 999241 c 223 174 516 314 854 409" class="C1" /><path d="M 189722 980148 l 0 -946" class="C1" /><path d="M 218688 7937 c 15 -5 30 -10 71 -13 c 41 -3 107 -5 187 -4 c 80 0 174 2 276 5 c 102 3 213 8 324 14" class="C1" /><path d="M 74915 8135 l 20699 0" class="C1" /><path d="M 325737 980976 l 0 -962167" class="C1" /><path d="M 218781 4949 l 80 -323" class="C1" /><path d="M 200267 995056 l 0 -537" class="C1" /><path d="M 265924 995755 l -858 0" class="C1" /><path d="M 140669 23485 l 946 0" class="C1" /><path d="M 110345 992063 c 14 -8 29 -16 70 -22 c 22 -3 51 -6 85 -8 c 34 -2 74 -4 117 -5 c 44 -1 92 -2 143 -1 c 50 0 104 1 159 2 c 104 2 215 7 327 12" class="C1" /><path d="M 187477 90123 l 1000 0" class="C1" /><path d="M 63967 4245 c 121 79 242 158 355 244 c 115 88 222 184 303 296 c 31 43 58 88 72 136 c 11 40 12 82 13 123" class="C1" /><path d="M 275500 5374 c -234 -6 -467 -11 -701 -30 c -432 -35 -861 -116 -1275 -247 c -284 -90 -560 -202 -817 -356 c -183 -110 -356 -241 -486 -414 c -44 -60 -84 -124 -101 -195 c -8 -33 -12 -67 -15 -101" class="C1" /><path d="M 232944 981382 c -12 -23 -23 -46 -36 -68 c -49 -78 -123 -137 -202 -185 c -77 -47 -158 -85 -244 -104 c -80 -17 -163 -19 -246 -20" class="C1" /><path d="M 96397 5389 c -44 39 -89 78 -138 110 c -48 32 -100 58 -155 79 c -52 20 -106 36 -161 45 c -52 9 -105 11 -157 14" class="C1" /><path d="M 199176 84748 l -3491 0" class="C1" /><path d="M 111246 992041 c -15 211 -29 422 -43 622 c -11 154 -21 301 -31 448" class="C1" /><path d="M 244809 14779 c 0 801 -650 1451 -1451 1451 c -801 0 -1451 -650 -1451 -1451 c 0 -801 650 -1451 1451 -1451 c 801 0 1451 650 1451 1451" class="C1" /><path d="M 232280 5459 c -7 -135 -14 -270 -20 -386 c -13 -237 -21 -391 -29 -545" class="C1" /><path d="M 96815 995735 c 61 92 123 184 202 212 c 83 29 185 -12 288 -54" class="C1" /><path d="M 219112 981004 c -83 1 -166 3 -246 20 c -86 19 -168 56 -243 104 c -77 50 -148 112 -202 186 c -53 72 -91 156 -129 240" class="C1" /><path d="M 110201 8067 c -25 -478 -50 -956 -75 -1425 c -25 -469 -49 -929 -63 -1196 c -0 -4 -0 -7 -1 -11" class="C1" /><path d="M 190684 98378 c -1245 251 -2078 1430 -1900 2687" class="C1" /><path d="M 90021 995969 c 0 -214 -142 -419 -394 -570 c -252 -151 -594 -236 -950 -236" class="C1" /><path d="M 232896 17319 l 66 14" class="C1" /><path d="M 111328 990499 l -77 1473" class="C1" /><path d="M 61088 994626 l 131 26 l 126 76 l 116 124 l 102 167 l 84 204 l 62 232 l 38 252 l 13 262" class="C1" /><path d="M 96730 995258 c -1 -24 -2 -47 -5 -86 c -6 -114 -19 -359 -38 -722 c -0 -0 -0 -1 -0 -1" class="C1" /><path d="M 189722 19852 l 3800 0" class="C1" /><path d="M 96673 5436 c -0 4 -0 7 -1 11 c -14 267 -38 727 -63 1196 c -25 469 -50 947 -75 1425" class="C1" /><path d="M 95783 5681 l 6 -92" class="C1" /><path d="M 140669 971141 l 946 0" class="C1" /><path d="M 255751 18809 l 69888 0" class="C1" /><path d="M 189722 979202 l 3800 0" class="C1" /><path d="M 217244 19852 l 1574 0" class="C1" /><path d="M 271771 568 c 1 -2 2 -5 3 -7 c 59 -161 109 -322 160 -483" class="C1" /><path d="M 140669 976515 l 0 -5374" class="C1" /><path d="M 64526 994626 l 0 537" class="C1" /><path d="M 74116 994626 l 810 0" class="C1" /><path d="M 96593 992080 l -21667 0" class="C1" /><path d="M 233419 991865 l 488 -9305" class="C1" /><path d="M 110349 991971 l 77 -1472" class="C1" /><path d="M 175154 979202 l 0 -795" class="C1" /><path d="M 327283 18809 c 413 0 807 -170 1091 -469 c 284 -299 433 -702 411 -1115" class="C1" /><path d="M 96648 4774 l -8 155" class="C1" /><path d="M 191353 88973 l 1824 0" class="C1" /><path d="M 110169 995423 c 1 -26 3 -51 7 -132 c 4 -81 11 -218 20 -388 c 9 -170 20 -374 32 -615 c 13 -240 27 -518 42 -795" class="C1" /><path d="M 88678 994626 l 0 537" class="C1" /><path d="M 218688 7937 c -14 8 -29 16 -70 22 c -22 3 -51 6 -85 8 c -34 2 -74 4 -117 5 c -44 1 -92 2 -143 1 c -50 -0 -104 -1 -159 -2 c -104 -2 -215 -7 -327 -12" class="C1" /><path d="M 74667 981191 l 0 -962167" class="C1" /><path d="M 100497 17441 l -568 0" class="C1" /><path d="M 270476 995755 l 336 0" class="C1" /><path d="M 232624 991851 c 1 -0 2 -0 2 -0 c 23 -4 101 -5 186 -5 c 85 0 176 2 278 5 c 102 3 215 8 328 14" class="C1" /><path d="M 64526 995163 c -801 211 -1800 502 -2766 806" class="C1" /><path d="M 270812 999785 l 0 -4031" class="C1" /><path d="M 97591 996088 c -2 -36 -3 -72 -6 -148 c -7 -162 -21 -508 -38 -911 c -14 -340 -31 -722 -49 -1144 c -11 -263 -23 -541 -35 -828 c -14 -324 -28 -659 -42 -994" class="C1" /><path d="M 110063 5435 c -16 -304 -32 -607 -41 -784 c -9 -180 -12 -229 -15 -279" class="C1" /><path d="M 218280 982559 l 66 14" class="C1" /><path d="M 158951 9501 l 562 0" class="C1" /><path d="M 127717 999355 l 72549 0" class="C1" /><path d="M 97335 8045 c 14 -335 28 -670 42 -994 c 12 -287 24 -565 35 -828 c 18 -424 35 -810 49 -1145 c 17 -397 30 -721 38 -911 c 8 -181 10 -239 13 -298" class="C1" /><path d="M 158951 9501 l -60919 0" class="C1" /><path d="M 110197 8032 c -1 -0 -3 -1 -4 -1 c -24 -4 -102 -5 -186 -5 c -85 0 -176 2 -278 5 c -102 3 -215 8 -328 14" class="C1" /><path d="M 232430 994342 c 18 -346 36 -693 57 -1092 c 21 -397 44 -846 68 -1295" class="C1" /><path d="M 163203 986408 c 243 489 750 792 1296 774 c 546 -18 1032 -352 1243 -857" class="C1" /><path d="M 91316 1566 l 0 2680" class="C1" /><path d="M 328310 991865 l -2152 0" class="C1" /><path d="M 110345 992063 c -15 5 -30 10 -71 13 c -41 3 -107 5 -187 4 c -80 -0 -174 -2 -276 -5 c -102 -3 -213 -8 -324 -14" class="C1" /><path d="M 163754 979202 c -289 58 -482 332 -441 623" class="C1" /><path d="M 232304 995626 c 3 -49 5 -99 15 -278 c 9 -177 25 -481 41 -784" class="C1" /><path d="M 219546 7938 l -492 9396" class="C1" /><path d="M 328298 7920 l 488 9305" class="C1" /><path d="M 3393 981191 c -234 0 -468 0 -670 0 c -210 0 -386 0 -533 0 c -147 0 -264 0 -332 0 c -66 0 -87 0 -108 0" class="C1" /><path d="M 163313 980148 l 26409 0" class="C1" /><path d="M 192508 901622 l 0 194" class="C1" /><path d="M 74915 19024 c -289 0 -577 0 -851 0 c -274 0 -534 0 -793 0" class="C1" /><path d="M 89972 5045 l 0 544" class="C1" /><path d="M 254928 994411 l 69888 0" class="C1" /><path d="M 219546 7938 c 14 -335 28 -670 42 -994 c 12 -287 24 -565 35 -828 c 18 -424 35 -810 49 -1144 c 17 -397 30 -722 38 -911 c 8 -181 10 -239 13 -298" class="C1" /><path d="M 167203 500000 c 0 1484 -1203 2687 -2687 2687 c -1484 0 -2687 -1203 -2687 -2687 c 0 -1484 1203 -2687 2687 -2687 c 1484 0 2687 1203 2687 2687" class="C1" /><path d="M 233641 981449 c -70 21 -140 43 -207 54 c -72 12 -142 13 -206 5 c -66 -8 -127 -25 -175 -54 c -48 -28 -84 -67 -120 -106" class="C1" /><path d="M 201341 999893 l -74699 0" class="C1" /><path d="M 97597 996238 l 11713 0" class="C1" /><path d="M 4227 994626 l -810 0" class="C1" /><path d="M 237980 999785 c 253 0 654 -202 1080 -544" class="C1" /><path d="M 64710 5045 c -18 113 -36 226 -57 314 c -21 87 -46 148 -71 186 c -18 28 -37 43 -56 44 c -1 0 -1 0 -2 0" class="C1" /><path d="M 73270 19024 l -69888 0" class="C1" /><path d="M 192508 909877 l 0 1149" class="C1" /><path d="M 189453 896442 l 0 2493" class="C1" /><path d="M 96759 994672 c 18 335 35 670 41 784 c 1 17 2 29 2 41" class="C1" /><path d="M 232560 991865 l 63 -13" class="C1" /><path d="M 193177 98184 l 0 194" class="C1" /><path d="M 201610 995862 l 0 3583" class="C1" /><path d="M 199176 915252 l 0 -18809" class="C1" /><path d="M 57099 999922 c 546 -89 1187 -248 1842 -460" class="C1" /><path d="M 176492 14214 l 60 405" class="C1" /><path d="M 63109 4245 l -13 262 l -38 252 l -62 232 l -84 204 l -102 167 l -116 124 l -126 76 l -131 26" class="C1" /><path d="M 163313 985125 l 0 -5299" class="C1" /><path d="M 174531 500000 c 0 5565 -4511 10076 -10076 10076 c -5565 0 -10076 -4511 -10076 -10076 c 0 -5565 4511 -10076 10076 -10076 c 5565 0 10076 4511 10076 10076" class="C1" /><path d="M 218818 980148 l -1574 0" class="C1" /><path d="M 254916 5374 l 253 48 l 244 143 l 226 233 l 200 314 l 167 384 l 128 440 l 84 481 l 37 504" class="C1" /><path d="M 325650 980976 l 152 31 l 145 91 l 133 148 l 116 199 l 93 241 l 67 274 l 38 295 l 7 304" class="C1" /><path d="M 91052 215 c -253 0 -654 202 -1080 544" class="C1" /><path d="M 94232 20174 c -94 664 346 1286 1003 1419" class="C1" /><path d="M 232223 981034 l 1 -58" class="C1" /><path d="M 192508 88973 l 0 1149" class="C1" /><path d="M 270812 999785 c -6 -3 -12 -7 -31 -16 c -19 -9 -52 -25 -92 -42 c -42 -18 -93 -39 -151 -58 c -20 -6 -41 -13 -62 -19" class="C1" /><path d="M 2631 17441 l 244 -9305" class="C1" /><path d="M 326390 17226 l -7 304 l -38 295 l -67 274 l -93 241 l -116 199 l -133 148 l -145 91 l -152 31" class="C1" /><path d="M 734 992080 c 75 1427 1254 2546 2683 2546" class="C1" /><path d="M 110083 4684 c 2 45 5 90 13 251 c 9 162 23 443 38 723" class="C1" /><path d="M 110251 995051 l -80 323" class="C1" /><path d="M 233048 982559 l 63 -13" class="C1" /><path d="M 188784 896442 l 669 0" class="C1" /><path d="M 232983 982573 c -55 2 -110 5 -186 5 c -76 0 -174 -1 -279 -5 c -105 -3 -217 -9 -329 -14" class="C1" /><path d="M 97017 995943 c 47 37 93 74 144 104 c 50 30 104 53 160 71 c 53 18 108 31 164 37 c 52 6 105 6 158 6" class="C1" /><path d="M 218864 4577 c -1 26 -3 51 -7 132 c -4 81 -11 218 -20 388 c -9 170 -20 374 -32 615 c -13 240 -27 518 -42 795" class="C1" /><path d="M 233069 982013 c 1 -37 2 -73 2 -108 c 0 -104 -8 -200 -29 -285 c -25 -100 -67 -186 -110 -272" class="C1" /><path d="M 188476 909877 l -1000 0" class="C1" /><path d="M 72763 8135 l -244 9305" class="C1" /><path d="M 218591 5249 c -46 40 -93 80 -143 114 c -50 33 -104 59 -160 81 c -54 21 -110 37 -167 47 c -54 9 -108 12 -163 14" class="C1" /><path d="M 94232 981191 l -19306 0" class="C1" /><path d="M 109310 996238 c 109 -12 218 -24 319 -61 c 101 -37 193 -99 273 -175 c 80 -76 147 -165 189 -264 c 42 -99 60 -207 78 -315" class="C1" /><path d="M 110270 993494 l 69 -152" class="C1" /><path d="M 235 17441 l 2396 0" class="C1" /><path d="M 256258 7920 l 244 9305" class="C1" /><path d="M 217244 979202 l 1574 0" class="C1" /><path d="M 187477 103558 l 0 -18809" class="C1" /><path d="M 328298 7920 c -75 -1427 -1254 -2546 -2683 -2546" class="C1" /><path d="M 159513 990499 l 741 -103 l 713 -306 l 657 -497 l 576 -668 l 473 -814 l 351 -929 l 216 -1008 l 73 -1048" class="C1" /><path d="M 165743 13674 c -211 -504 -697 -839 -1243 -857 c -546 -18 -1053 285 -1296 774" class="C1" /><path d="M 96562 992062 l 63 13" class="C1" /><path d="M 219722 3762 c -109 12 -218 24 -319 61 c -101 37 -193 99 -273 175 c -80 76 -147 165 -189 264 c -42 99 -60 207 -78 315" class="C1" /><path d="M 193522 979202 l 0 946" class="C1" /><path d="M 218323 18563 c -36 -38 -73 -77 -120 -105 c -49 -29 -110 -47 -176 -56 c -66 -9 -138 -9 -213 3 c -72 12 -147 35 -222 58" class="C1" /><path d="M 228333 24291 c 0 1113 -902 2015 -2015 2015 c -1113 0 -2015 -902 -2015 -2015 c 0 -1113 902 -2015 2015 -2015 c 1113 0 2015 902 2015 2015" class="C1" /><path d="M 96581 5064 l -481 655" class="C1" /><path d="M 198665 19228 l -35352 0" class="C1" /><path d="M 187477 84748 l 0 -63951" class="C1" /><path d="M 195686 90123 l -7210 0" class="C1" /><path d="M 3382 19024 c -234 0 -468 0 -670 0 c -210 0 -386 0 -533 0 c -147 -0 -264 -0 -332 -0 c -66 0 -87 0 -108 0" class="C1" /><path d="M 163754 979202 l 11400 0" class="C1" /><path d="M 188784 86286 l 669 0" class="C1" /><path d="M 254117 982559 l 0 9305" class="C1" /><path d="M 58220 215 c 6 3 12 7 31 16 c 19 9 52 25 92 42 c 42 18 93 39 151 58 c 20 6 41 13 62 19" class="C1" /><path d="M 219018 18917 c -286 -18 -573 -35 -837 -132 c -205 -75 -396 -198 -588 -321" class="C1" /><path d="M 328310 991865 l 488 -9305" class="C1" /><path d="M 239011 4031 c 0 214 142 419 394 570 c 252 151 594 236 950 236" class="C1" /><path d="M 217244 980148 l 0 -946" class="C1" /><path d="M 324816 994411 c 117 -0 234 -0 336 0 c 101 0 186 -0 258 -0 c 71 0 128 0 162 0 c 34 0 45 0 55 0" class="C1" /><path d="M 199176 103558 l 0 -18809" class="C1" /><path d="M 188784 101065 l 669 0" class="C1" /><path d="M 218970 994565 c 16 304 32 607 41 784 c 9 180 12 229 15 279" class="C1" /><path d="M 195686 909877 l 0 5374" class="C1" /><path d="M 201583 999893 l -242 0" class="C1" /><path d="M 104058 975709 c 0 742 -602 1344 -1344 1344 c -742 0 -1344 -602 -1344 -1344 c 0 -742 602 -1344 1344 -1344 c 742 0 1344 602 1344 1344" class="C1" /><path d="M 157332 982467 c -1093 401 -1764 1503 -1619 2657" class="C1" /><path d="M 231611 7938 l 492 9396" class="C1" /><path d="M 233419 991865 c -14 204 -28 409 -42 607 c -12 175 -24 345 -35 505 c -18 257 -34 490 -49 697 c -17 246 -31 457 -38 555 c -3 46 -5 68 -6 90" class="C1" /><path d="M 58220 215 l 32832 0" class="C1" /><path d="M 265065 995755 c -121 -79 -242 -158 -355 -244 c -115 -88 -222 -184 -303 -296 c -31 -43 -58 -88 -72 -136 c -11 -40 -12 -82 -13 -123" class="C1" /><path d="M 189453 84748 l 0 1538" class="C1" /><path d="M 217781 8028 l 5 -69" class="C1" /><path d="M 94232 979826 l 0 5299" class="C1" /><path d="M 237716 998434 c 0 3 0 6 0 9 c 0 448 52 895 103 1341" class="C1" /><path d="M 142238 7362 l 56427 0" class="C1" /><path d="M 4216 5589 c -117 -0 -234 0 -336 0 c -101 -0 -186 -0 -258 -0 c -71 0 -128 0 -162 0 c -34 0 -45 0 -55 0" class="C1" /><path d="M 74926 982774 l -2396 0" class="C1" /><path d="M 142238 992638 l 56427 0" class="C1" /><path d="M 240354 4837 l 24152 0" class="C1" /><path d="M 179238 985920 c 0 772 -626 1397 -1397 1397 c -772 0 -1397 -626 -1397 -1397 c 0 -772 626 -1397 1397 -1397 c 772 0 1397 626 1397 1397" class="C1" /><path d="M 162751 20174 c -94 664 346 1286 1003 1419" class="C1" /><path d="M 195686 84748 l 0 5374" class="C1" /><path d="M 58556 4245 l -336 0" class="C1" /><path d="M 218683 8029 l -488 9303" class="C1" /><path d="M 109225 3869 c 3 59 5 118 13 298 c 8 190 21 514 38 911 c 14 335 31 721 49 1145 c 11 263 23 541 35 828 c 14 324 28 659 42 993" class="C1" /><path d="M 175154 21593 l -11400 0" class="C1" /><path d="M 72519 17441 l -69888 0" class="C1" /><path d="M 162751 14875 l 562 0" class="C1" /><path d="M 73282 981191 l -69888 0" class="C1" /><path d="M 61759 995969 l -4498 0" class="C1" /><path d="M 64710 5045 l 25263 0" class="C1" /><path d="M 237716 998434 l 0 -2680" class="C1" /><path d="M 188784 896442 c 50 -527 -203 -1037 -654 -1315" class="C1" /><path d="M 218693 6658 c -0 0 -0 0 -0 0 c -13 27 -49 50 -85 72 c -37 22 -74 43 -117 62 c -43 19 -91 35 -143 48 c -50 13 -104 25 -159 32 c -104 14 -216 15 -327 16" class="C1" /><path d="M 219105 981032 c 0 12 1 24 1 55 c 1 33 2 88 3 148 c 1 62 3 131 5 209 c 3 120 6 262 9 414 c 2 101 5 207 7 316 c 3 126 6 256 9 385" class="C1" /><path d="M 269623 999241 l -3699 -2885" class="C1" /><path d="M 56925 995969 l 336 0" class="C1" /><path d="M 163313 14951 c 406 510 1111 671 1699 388 c 587 -283 901 -934 756 -1570 c -145 -636 -710 -1087 -1362 -1087" class="C1" /><path d="M 218762 6506 l -69 152" class="C1" /><path d="M 94232 979826 l 68519 0" class="C1" /><path d="M 326390 17226 l 2396 0" class="C1" /><path d="M 191353 911027 c -1245 251 -2078 1430 -1900 2687" class="C1" /><path d="M 104112 90348 c 0 772 -626 1397 -1397 1397 c -772 0 -1397 -626 -1397 -1397 c 0 -772 626 -1397 1397 -1397 c 772 0 1397 626 1397 1397" class="C1" /><path d="M 163313 14875 l -73 -1048 l -216 -1008 l -351 -929 l -473 -814 l -576 -668 l -657 -497 l -713 -306 l -741 -103" class="C1" /><path d="M 2642 982774 l 7 -304 l 38 -295 l 67 -274 l 93 -241 l 116 -199 l 133 -148 l 145 -91 l 152 -31" class="C1" /><path d="M 193522 19852 l 23722 0" class="C1" /><path d="M 219808 996131 c -3 -59 -5 -118 -13 -298 c -8 -190 -21 -514 -38 -911 c -14 -335 -31 -721 -49 -1145 c -11 -263 -23 -541 -35 -828 c -14 -324 -28 -659 -42 -993" class="C1" /><path d="M 163313 980772 l 35352 0" class="C1" /><path d="M 201610 995862 c 0 -214 -142 -419 -394 -570 c -252 -151 -594 -236 -950 -236" class="C1" /><path d="M 232470 7938 l -63 -13" class="C1" /><path d="M 254916 5374 l 69888 0" class="C1" /><path d="M 58941 999463 l 29737 0" class="C1" /><path d="M 110125 5482 l 107834 0" class="C1" /><path d="M 88678 999463 c 423 338 821 537 1075 537" class="C1" /><path d="M 231435 3762 l -11713 0" class="C1" /><path d="M 218173 17967 c 4 107 9 215 30 308 c 25 109 72 198 120 288" class="C1" /><path d="M 72774 992080 l -69888 0" class="C1" /><path d="M 94232 17441 l -19317 0" class="C1" /><path d="M 90021 995969 l 0 2687" class="C1" /><path d="M 128766 4944 l 72549 0" class="C1" /><path d="M 163754 978407 c -657 133 -1097 755 -1003 1419" class="C1" /><path d="M 218949 995316 c 18 108 35 216 78 315 c 42 99 109 188 189 264 c 80 76 172 138 273 175 c 101 37 210 49 319 61" class="C1" /><path d="M 110339 993342 c 0 -0 0 -0 0 -0 c 13 -27 49 -50 85 -72 c 37 -22 74 -43 117 -62 c 43 -19 91 -35 143 -48 c 50 -13 104 -25 159 -32 c 104 -14 216 -15 327 -16" class="C1" /><path d="M 239280 0 l 32827 0" class="C1" /><path d="M 270476 995755 l -4553 0" class="C1" /><path d="M 217781 8028 c 300 30 602 30 901 1" class="C1" /><path d="M 193522 980148 l 23722 0" class="C1" /><path d="M 326158 991865 l -37 504 l -84 481 l -128 440 l -167 384 l -200 314 l -226 233 l -244 143 l -253 48" class="C1" /><path d="M 188784 86286 c -178 1257 655 2436 1900 2687" class="C1" /><path d="M 96738 995423 l 77 313" class="C1" /><path d="M 94232 19024 l -19317 0" class="C1" /><path d="M 270812 995755 c 3 -31 5 -62 12 -92 c 14 -61 45 -119 81 -172 c 66 -97 147 -180 236 -254 c 170 -143 366 -255 569 -349 c 312 -144 640 -246 974 -320 c 410 -91 828 -141 1247 -153 c 91 -2 183 -3 274 -4" class="C1" /><path d="M 74116 994626 l -69888 0" class="C1" /><path d="M 89972 5045 l 0 -4286" class="C1" /><path d="M 95235 978407 c -657 133 -1097 755 -1003 1419" class="C1" /><path d="M 272107 4031 l 0 -4031" class="C1" /><path d="M 141615 23485 l 0 3795" class="C1" /><path d="M 192508 98184 l 0 194" class="C1" /><path d="M 218818 20798 l -1574 0" class="C1" /><path d="M 141615 8932 l 0 570" class="C1" /><path d="M 110230 8028 l 30726 0" class="C1" /><path d="M 109401 8045 l -12065 0" class="C1" /><path d="M 193177 98378 l -1824 0" class="C1" /><path d="M 218949 995316 c -2 -45 -5 -90 -13 -251 c -9 -162 -23 -443 -38 -723" class="C1" /><path d="M 232138 18859 c -0 -13 -1 -26 -1 -57 c -1 -33 -2 -87 -3 -147 c -1 -62 -3 -130 -5 -207 c -3 -122 -6 -265 -10 -420 c -2 -101 -5 -206 -7 -314 c -3 -125 -6 -252 -8 -380" class="C1" /><path d="M 256513 982559 l 69888 0" class="C1" /><path d="M 94232 982774 l -19306 0" class="C1" /><path d="M 142238 8932 l 0 570" class="C1" /><path d="M 110441 994751 c 46 -40 93 -80 143 -114 c 50 -33 104 -59 160 -81 c 54 -21 110 -37 167 -47 c 54 -9 108 -12 163 -14" class="C1" /><path d="M 240354 537 c -423 -338 -821 -537 -1075 -537" class="C1" /><path d="M 74926 981191 c -289 0 -577 0 -851 0 c -274 0 -534 0 -793 0" class="C1" /><path d="M 239060 994955 l 0 -544" class="C1" /><path d="M 228333 975709 c 0 1113 -902 2015 -2015 2015 c -1113 0 -2015 -902 -2015 -2015 c 0 -1113 902 -2015 2015 -2015 c 1113 0 2015 902 2015 2015" class="C1" /><path d="M 187477 979202 l 0 -63951" class="C1" /><path d="M 195288 909877 l 0 5374" class="C1" /><path d="M 232451 994936 l 481 -655" class="C1" /><path d="M 231442 3912 c 2 36 3 72 6 148 c 7 162 21 508 38 911 c 14 340 31 722 49 1144 c 11 263 23 541 35 828 c 14 324 28 659 42 994" class="C1" /><path d="M 198665 17333 l 18628 0" class="C1" /><path d="M 74926 992080 l 0 2546" class="C1" /><path d="M 96623 992075 c 19 364 38 729 57 1081 c 19 352 36 693 51 977 c 8 146 15 277 22 408" class="C1" /><path d="M 232303 4742 c 1 24 2 47 5 86 c 6 114 19 359 38 722 c 0 0 0 1 0 1" class="C1" /><path d="M 57261 999432 l 4498 -3463" class="C1" /><path d="M 188784 913714 l 0 1538" class="C1" /><path d="M 188784 84748 c 50 -527 -203 -1037 -654 -1315" class="C1" /><path d="M 198665 980772 l 0 -623" class="C1" /><path d="M 85663 16444 c -183 -22 -366 -44 -535 -107 c -93 -35 -182 -82 -266 -137 c -81 -53 -157 -113 -225 -181 c -71 -70 -133 -149 -188 -232 c -53 -82 -99 -169 -135 -260 c -67 -169 -102 -351 -102 -534 c -0 -183 35 -365 102 -534 c 36 -91 82 -178 135 -260 c 55 -84 117 -162 188 -232 c 68 -68 144 -128 225 -182 c 83 -55 172 -102 265 -136 c 170 -63 353 -85 535 -107" class="C1" /><path d="M 193522 979202 l 23722 0" class="C1" /><path d="M 95235 978407 l 68519 0" class="C1" /><path d="M 3406 5589 c -1429 0 -2609 1119 -2683 2546" class="C1" /><path d="M 244023 13489 l -1330 0" class="C1" /><path d="M 217294 17333 l 488 -9305" class="C1" /><path d="M 218818 19852 l 0 946" class="C1" /><path d="M 57261 999432 c -1 2 -2 5 -3 7 c -59 161 -109 322 -160 483" class="C1" /><path d="M 239060 994955 c -742 0 -1344 358 -1344 799" class="C1" /><path d="M 254117 991865 l -20699 -0" class="C1" /><path d="M 232104 17333 l -13050 0" class="C1" /><path d="M 198665 19852 l 0 -623" class="C1" /><path d="M 232189 982559 c 3 -130 6 -259 9 -385 c 2 -108 5 -214 7 -316 c 3 -152 7 -294 9 -414 c 2 -77 3 -145 5 -207 c 1 -60 3 -114 3 -147 c 1 -32 1 -44 1 -57" class="C1" /><path d="M 232624 991851 l -64 13" class="C1" /><path d="M 232218 4265 c -61 -92 -123 -184 -202 -212 c -83 -29 -185 12 -288 54" class="C1" /><path d="M 193177 88973 l 0 1149" class="C1" /><path d="M 140669 28859 l 0 -5374" class="C1" /><path d="M 57261 995969 l 0 3463" class="C1" /><path d="M 85663 13542 c 183 22 366 44 535 107 c 93 35 182 82 266 137 c 81 53 157 113 225 181 c 71 70 133 149 188 232 c 53 82 99 169 135 260 c 67 169 102 351 102 534 c 0 183 -35 365 -102 534 c -36 91 -82 178 -135 260 c -55 84 -117 162 -188 232 c -68 68 -144 128 -225 182 c -83 55 -172 102 -265 136 c -170 63 -353 85 -535 107" class="C1" /><path d="M 2886 992080 l -2152 0" class="C1" /><path d="M 264323 994955 l -25263 0" class="C1" /><path d="M 127422 4138 l 0 -3583" class="C1" /><path d="M 101832 14875 l -115 -919 l -330 -808 l -505 -600 l -620 -319 l -660 0 l -620 319 l -505 600 l -330 808 l -115 919 l 115 919 l 330 808 l 505 600 l 620 319 l 660 0 l 620 -319 l 505 -600 l 330 -808 l 115 -919" class="C1" /><path d="M 200267 995056 l -72549 0" class="C1" /><path d="M 128766 645 l 0 4299" class="C1" /><path d="M 228333 909652 c 0 1113 -902 2015 -2015 2015 c -1113 0 -2015 -902 -2015 -2015 c 0 -1113 902 -2015 2015 -2015 c 1113 0 2015 902 2015 2015" class="C1" /><path d="M 264323 994955 c 18 -113 36 -226 57 -314 c 21 -87 46 -148 71 -186 c 18 -28 37 -43 56 -44 c 1 -0 1 -0 2 -0" class="C1" /><path d="M 98032 990499 l 60919 0" class="C1" /><path d="M 96477 8046 l -5 90" class="C1" /><path d="M 219054 17333 c -3 128 -6 256 -8 380 c -2 108 -5 213 -7 314 c -3 154 -7 298 -10 420 c -2 77 -3 145 -5 207 c -1 60 -3 114 -3 147 c -1 31 -1 43 -1 56" class="C1" /><path d="M 232998 18012 c -0 -2 -0 -4 -1 -13 c -0 -9 -1 -24 -2 -39" class="C1" /><path d="M 96472 8135 l -63 13" class="C1" /><path d="M 264507 5374 l 0 -537" class="C1" /><path d="M 110083 4684 c -18 -108 -35 -216 -78 -315 c -42 -99 -109 -188 -189 -264 c -80 -76 -172 -138 -273 -175 c -101 -37 -210 -49 -319 -61" class="C1" /><path d="M 232407 7925 c -1 -0 -2 -0 -3 -1 c -24 -4 -102 -5 -186 -5 c -85 0 -176 2 -278 5 c -102 3 -215 8 -328 14" class="C1" /><path d="M 128766 645 c -423 -338 -821 -537 -1075 -537" class="C1" /><path d="M 254106 7920 l 2152 0" class="C1" /><path d="M 97512 3869 c -110 12 -219 24 -319 61 c -100 38 -189 101 -273 175 c -84 74 -163 159 -189 264 c -0 2 -1 3 -1 5" class="C1" /><path d="M 233111 982546 c 1 -0 2 -0 3 -1 c 23 -4 101 -5 186 -5 c 85 0 176 2 278 5 c 102 3 215 9 328 14" class="C1" /><path d="M 158951 990499 l 741 -103 l 713 -306 l 657 -497 l 576 -668 l 473 -814 l 351 -929 l 216 -1008 l 73 -1048" class="C1" /><path d="M 233243 994411 l 20875 0" class="C1" /><path d="M 254117 982559 l 2396 0" class="C1" /><path d="M 218940 4265 c -3 57 -6 114 -15 279 c -9 164 -23 436 -42 795 c -13 245 -28 530 -43 815" class="C1" /><path d="M 109401 8045 l 76 1456" class="C1" /><path d="M 155151 985125 l 115 919 l 330 808 l 505 600 l 620 319 l 660 0 l 620 -319 l 505 -600 l 330 -808 l 115 -919 l -115 -919 l -330 -808 l -505 -600 l -620 -319 l -660 0 l -620 319 l -505 600 l -330 808 l -115 919" class="C1" /><path d="M 140669 976515 l 0 1892" class="C1" /><path d="M 96409 8149 c -1 0 -2 0 -2 0 c -23 4 -101 5 -186 5 c -85 -0 -176 -2 -278 -5 c -102 -3 -215 -8 -328 -14" class="C1" /><path d="M 3382 19024 l -152 -31 l -145 -91 l -133 -148 l -116 -199 l -93 -241 l -67 -274 l -38 -295 l -7 -304" class="C1" /><path d="M 270476 999650 l 0 -3896" class="C1" /><path d="M 271771 4031 c 0 356 389 698 1082 950 c 693 252 1633 394 2613 394" class="C1" /><path d="M 109225 3869 l -11713 0" class="C1" /><path d="M 232415 994633 l -7 142" class="C1" /><path d="M 254106 18809 l 0 -1583" class="C1" /><path d="M 109486 992062 l 82 -1563" class="C1" /><path d="M 74926 982774 l 0 9305" class="C1" /><path d="M 176552 985380 c -216 712 164 1468 864 1720 c 700 252 1475 -89 1762 -775" class="C1" /><path d="M 232470 7938 l 492 9395" class="C1" /><path d="M 254117 980976 l 0 1583" class="C1" /><path d="M 218762 6506 c -12 228 -24 455 -36 693 c -12 239 -26 488 -39 738" class="C1" /><path d="M 163754 21593 l -68519 0" class="C1" /><path d="M 267945 5374 l -131 -26 l -126 -76 l -116 -124 l -102 -167 l -84 -204 l -62 -232 l -38 -252 l -13 -262" class="C1" /><path d="M 189453 103558 l -75 535 l -214 453 l -321 303 l -378 106 l -378 -106 l -321 -303 l -214 -453 l -75 -535" class="C1" /><path d="M 189453 898935 c -178 1257 655 2436 1900 2687" class="C1" /><path d="M 141615 976515 l -946 0" class="C1" /><path d="M 267273 4031 l 4498 0" class="C1" /><path d="M 271771 568 l -4498 3463" class="C1" /><path d="M 96617 5367 l 7 -142" class="C1" /><path d="M 74915 17441 l 0 -9305" class="C1" /><path d="M 193522 20798 l 23722 0" class="C1" /><path d="M 187477 896442 l 75 -535 l 214 -453 l 321 -303 l 378 -106 l 378 106 l 321 303 l 214 453 l 75 535" class="C1" /><path d="M 198417 20798 l 0 63951" class="C1" /><path d="M 187294 20798 l 0 958405" class="C1" /><path d="M 227715 90348 c 0 772 -626 1397 -1397 1397 c -772 0 -1397 -626 -1397 -1397 c 0 -772 626 -1397 1397 -1397 c 772 0 1397 626 1397 1397" class="C1" /><path d="M 219103 980976 l 1 56" class="C1" /><path d="M 232635 994611 c 44 -39 89 -78 138 -110 c 48 -32 100 -58 155 -79 c 52 -20 106 -36 161 -45 c 52 -9 105 -11 157 -14" class="C1" /><path d="M 218907 994518 l -107834 0" class="C1" /><path d="M 232995 17953 c -1 -9 -2 -18 -5 -42 c -4 -26 -10 -70 -18 -123 c -9 -58 -19 -127 -31 -204 c -13 -84 -28 -179 -44 -273" class="C1" /><path d="M 126642 999893 l -242 0" class="C1" /><path d="M 219019 18858 l -1 59" class="C1" /><path d="M 97253 9615 l 82 -1570" class="C1" /><path d="M 141615 8932 l -946 0" class="C1" /><path d="M 97597 996238 l -6 -150" class="C1" /><path d="M 324995 980976 l 0 -962167" class="C1" /><path d="M 190684 911027 c -1245 251 -2078 1430 -1900 2687" class="C1" /><path d="M 202954 994518 c -742 0 -1344 602 -1344 1344" class="C1" /><path d="M 188476 98184 l 7210 0" class="C1" /><path d="M 142238 992638 l 0 -1569" class="C1" /><path d="M 244010 983717 l -1281 0" class="C1" /><path d="M 201315 4944 l 0 -4299" class="C1" /><path d="M 189453 101065 l 0 2493" class="C1" /><path d="M 188130 916566 c 450 -278 704 -788 654 -1315" class="C1" /><path d="M 325626 994411 c 1429 0 2609 -1119 2683 -2546" class="C1" /><path d="M 187477 901816 l 1000 0" class="C1" /><path d="M 104058 24291 c 0 742 -602 1344 -1344 1344 c -742 0 -1344 -602 -1344 -1344 c 0 -742 602 -1344 1344 -1344 c 742 0 1344 602 1344 1344" class="C1" /><path d="M 188476 909877 l 7210 0" class="C1" /><path d="M 95613 8135 l -149 2844" class="C1" /><path d="M 126642 999893 c 254 0 652 -199 1075 -537" class="C1" /><path d="M 98032 985125 l 115 919 l 330 808 l 505 600 l 620 319 l 660 0 l 620 -319 l 505 -600 l 330 -808 l 115 -919 l -115 -919 l -330 -808 l -505 -600 l -620 -319 l -660 0 l -620 319 l -505 600 l -330 808 l -115 919" class="C1" /><path d="M 163313 20174 c -41 292 152 565 441 623" class="C1" /><path d="M 142238 8308 c -344 0 -623 279 -623 623" class="C1" /><path d="M 59409 759 c -223 -174 -516 -314 -854 -409" class="C1" /><path d="M 104730 909652 c 0 1113 -902 2015 -2015 2015 c -1113 0 -2015 -902 -2015 -2015 c 0 -1113 902 -2015 2015 -2015 c 1113 0 2015 902 2015 2015" class="C1" /><path d="M 734 992080 l -488 -9305" class="C1" /><path d="M 141615 972720 l 0 3795" class="C1" /><path d="M 232998 18012 c 0 58 0 117 -9 174 c -8 54 -25 108 -41 161" class="C1" /><path d="M 326147 7920 l 2152 0" class="C1" /><path d="M 254916 5374 l -810 0" class="C1" /><path d="M 188784 84748 l 0 1538" class="C1" /><path d="M 218195 17332 c -16 5 -32 11 -75 14 c -43 3 -113 5 -197 5 c -84 0 -182 -1 -290 -5 c -107 -3 -224 -9 -340 -14" class="C1" /><path d="M 140669 8932 l 0 570" class="C1" /><path d="M 126079 5482 c 742 0 1344 -602 1344 -1344" class="C1" /><path d="M 195686 103558 l 3491 0" class="C1" /><path d="M 127449 107 c -18 147 -27 297 -27 448" class="C1" /><path d="M 111171 993111 c -15 212 -30 425 -42 606 c -12 165 -21 303 -30 424 c -9 127 -16 234 -20 284 c -2 25 -3 36 -3 47" class="C1" /><path d="M 232225 980976 c 289 18 578 37 842 140 c 201 78 388 206 574 333" class="C1" /><path d="M 96602 5658 c -18 346 -36 693 -57 1092 c -21 397 -44 846 -68 1295" class="C1" /><path d="M 237716 995755 c 0 -742 -602 -1344 -1344 -1344" class="C1" /><path d="M 163754 20798 l 0 795" class="C1" /><path d="M 97421 992062 l -92 -1749" class="C1" /><path d="M 141615 990499 l 0 570" class="C1" /><path d="M 96472 8135 l -103 1967" class="C1" /><path d="M 254117 994411 l 0 -2546" class="C1" /><path d="M 127449 107 l 242 0" class="C1" /><path d="M 72763 8135 l 37 -504 l 84 -481 l 128 -440 l 167 -384 l 200 -314 l 226 -233 l 244 -143 l 253 -48" class="C1" /><path d="M 188784 84748 l 669 0" class="C1" /><path d="M 56925 995969 l 0 4031" class="C1" /><path d="M 111251 991972 c -300 -30 -602 -30 -901 -1" class="C1" /><path d="M 218790 4932 c -57 109 -114 218 -201 317 c -83 94 -192 180 -301 265" class="C1" /><path d="M 175154 20798 l 0 795" class="C1" /><path d="M 188476 98184 l 0 -8061" class="C1" /><path d="M 324805 5374 l 253 48 l 244 143 l 226 233 l 200 314 l 167 384 l 128 440 l 84 481 l 37 504" class="C1" /><path d="M 218773 991955 l -492 -9395" class="C1" /><path d="M 232440 7920 l 21667 0" class="C1" /><path d="M 85022 16283 l 1281 0" class="C1" /><path d="M 96625 992075 c 1 0 2 0 3 1 c 24 4 102 5 186 5 c 85 -0 176 -2 278 -5 c 102 -3 215 -8 328 -14" class="C1" /><path d="M 142238 991068 l 56427 0" class="C1" /><path d="M 195686 896442 l -398 0" class="C1" /><path d="M 255107 980976 l 0 -962167" class="C1" /><path d="M 3295 981191 l 0 -962167" class="C1" /><path d="M 239011 4031 l 0 -2687" class="C1" /><path d="M 189722 20798 l 0 -946" class="C1" /><path d="M 325639 18809 c 234 0 468 0 670 0 c 210 0 386 0 533 0 c 147 0 264 0 332 0 c 66 0 87 0 108 0" class="C1" /><path d="M 179238 14080 c 0 772 -626 1397 -1397 1397 c -772 0 -1397 -626 -1397 -1397 c 0 -772 626 -1397 1397 -1397 c 772 0 1397 626 1397 1397" class="C1" /><path d="M 270092 537 l -29737 0" class="C1" /><path d="M 328797 982559 c 22 -412 -127 -815 -411 -1115 c -284 -299 -679 -469 -1091 -469" class="C1" /><path d="M 175154 979202 l 14568 0" class="C1" /><path d="M 74926 992080 l -2152 0" class="C1" /><path d="M 233048 982559 l -65 14" class="C1" /><path d="M 91316 4245 c 0 742 602 1344 1344 1344" class="C1" /><path d="M 217861 6889 c 15 -212 30 -425 42 -606 c 12 -165 21 -303 30 -424 c 9 -127 16 -234 20 -284 c 2 -25 3 -36 3 -47" class="C1" /><path d="M 239060 994955 l 0 4286" class="C1" /><path d="M 218803 991972 l -20137 0" class="C1" /><path d="M 195686 915252 l -398 0" class="C1" /><path d="M 162751 985125 l 562 0" class="C1" /><path d="M 74915 5589 c -142 0 -284 0 -419 0 c -135 0 -263 0 -391 0" class="C1" /><path d="M 98032 9501 l -741 103 l -713 306 l -657 497 l -576 668 l -473 814 l -351 929 l -216 1008 l -73 1048" class="C1" /><path d="M 110270 993494 c 12 -228 24 -455 36 -693 c 12 -239 26 -488 39 -738" class="C1" /><path d="M 256502 17226 l 69888 0" class="C1" /><path d="M 4037 981191 l -0 -962167" class="C1" /><path d="M 189453 86286 c -178 1257 655 2436 1900 2687" class="C1" /><path d="M 201583 999893 c 18 -147 27 -297 27 -448" class="C1" /><path d="M 96408 8149 l 64 -13" class="C1" /><path d="M 109486 992062 c -14 335 -28 670 -42 994 c -12 287 -24 565 -35 828 c -18 424 -35 810 -49 1144 c -17 397 -30 722 -38 911 c -8 181 -10 239 -13 298" class="C1" /><path d="M 190684 88973 l 669 0" class="C1" /><path d="M 110259 8045 l -62 -13" class="C1" /><path d="M 127691 107 l 74699 0" class="C1" /><path d="M 240354 5374 l 0 -537" class="C1" /><path d="M 97421 992062 l 12065 0" class="C1" /><path d="M 53532 994626 c 234 6 467 11 701 30 c 432 35 861 116 1275 247 c 284 90 560 202 817 356 c 183 110 356 241 486 414 c 44 60 84 124 101 195 c 8 33 12 67 15 101" class="C1" /><path d="M 94232 14875 l 0 5299" class="C1" /><path d="M 723 8135 l 2152 0" class="C1" /><path d="M 232273 5328 c -18 -335 -35 -670 -41 -784 c -1 -17 -2 -29 -2 -41" class="C1" /><path d="M 188784 898935 c -178 1257 655 2436 1900 2687" class="C1" /><path d="M 195686 901816 l -7210 0" class="C1" /><path d="M 110345 992063 l 5 -92" class="C1" /><path d="M 188476 909877 l 0 -8061" class="C1" /><path d="M 2874 8135 l 37 -504 l 84 -481 l 128 -440 l 167 -384 l 200 -314 l 226 -233 l 244 -143 l 253 -48" class="C1" /><path d="M 141615 991068 l -946 0" class="C1" /><path d="M 163754 979202 l 0 -795" class="C1" /><path d="M 198665 991068 l 0 1569" class="C1" /><path d="M 233907 982559 l 20211 0" class="C1" /><path d="M 100213 982467 c -1093 401 -1764 1503 -1619 2657" class="C1" /><path d="M 231435 3762 l 6 150" class="C1" /><path d="M 218248 981933 c -1 -15 -2 -30 -2 -39 c -0 -9 -1 -11 -1 -13" class="C1" /><path d="M 142238 8932 l 0 -1569" class="C1" /><path d="M 324805 5374 l 810 0" class="C1" /><path d="M 96648 4774 l -76 309" class="C1" /><path d="M 189453 913714 l 0 1538" class="C1" /><path d="M 141615 21593 l 0 1892" class="C1" /><path d="M 85009 986511 l 1330 0" class="C1" /><path d="M 193177 901622 l 0 194" class="C1" /><path d="M 94232 985125 l 73 1048 l 216 1008 l 351 929 l 473 814 l 576 668 l 657 497 l 713 306 l 741 103" class="C1" /><path d="M 128766 4944 l 0 537" class="C1" /><path d="M 89753 1000000 l -32827 0" class="C1" /><path d="M 218245 981881 c -0 -58 -0 -116 8 -173 c 8 -55 25 -108 41 -161" class="C1" /><path d="M 255762 980976 l 152 31 l 145 91 l 133 148 l 116 199 l 93 241 l 67 274 l 38 295 l 7 304" class="C1" /><path d="M 193522 20798 l -3800 0" class="C1" /><path d="M 58556 4245 l 4553 0" class="C1" /><path d="M 232560 991865 l -5 90" class="C1" /><path d="M 163313 20174 l 0 -5299" class="C1" /><path d="M 218248 981938 c 1 9 2 17 5 40 c 4 26 10 69 18 121 c 8 57 19 125 31 202 c 13 84 28 178 44 271" class="C1" /><path d="M 201315 4944 c 742 0 1344 -361 1344 -806" class="C1" /><path d="M 198665 19228 l 0 -10297" class="C1" /><path d="M 219103 980975 l 12809 -0" class="C1" /><path d="M 270812 999785 l -32832 0" class="C1" /><path d="M 188784 898935 l 669 0" class="C1" /><path d="M 58220 4245 c -3 31 -5 62 -12 92 c -14 61 -45 119 -81 172 c -66 97 -147 180 -236 254 c -170 143 -366 255 -569 349 c -312 144 -640 246 -974 320 c -410 91 -828 141 -1247 153 c -91 2 -183 3 -274 4" class="C1" /><path d="M 72774 992080 l -244 -9305" class="C1" /></g></svg>