<?xml version='1.0' encoding='utf-8'?>
<svg xmlns="http://www.w3.org/2000/svg" width="121.5mm" height="13.3mm" viewBox="0 0 1000000 109465"><defs><style>.C1 {stroke: #ffff00; stroke-width: 2058; stroke-opacity: 1.000; fill: none; fill-opacity: 1.000;}</style><style>.C2 {stroke: #ffffff; stroke-width: 2058; stroke-opacity: 1.000; fill: none; fill-opacity: 1.000;}</style></defs><g stroke-linecap="round" stroke-linejoin="round" fill-rule="evenodd"><path d="M 1000000 54733 l -1000000 -0" class="C1" /><path d="M 1000000 71109 l -954600 0" class="C2" /><path d="M 1000000 109252 l -987517 -0" class="C2" /><path d="M 1000000 65019 l -987517 -0" class="C2" /><path d="M 1000000 213 l -987517 0" class="C2" /><path d="M 12483 109252 l 0 -109038" class="C2" /><path d="M 1000000 44446 l -987517 -0" class="C2" /><path d="M 44701 70409 l -32218 0" class="C2" /><path d="M 44701 39056 l -32218 0" class="C2" /><path d="M 1000000 38356 l -954600 0" class="C2" /><path d="M 45400 38356 l 0 32753" class="C2" /><path d="M 44701 39056 l 699 -699" class="C2" /><path d="M 44701 39056 l 0 31354" class="C2" /><path d="M 44701 70409 l 699 699" class="C2" /><path d="M 12483 70409 l 0 -31354" class="C2" /><path d="M 1000000 109252 l 0 -109038" class="C2" /><path d="M 1000000 71109 l 0 -32753" class="C2" /></g></svg>