<?xml version='1.0' encoding='utf-8'?>
<svg xmlns="http://www.w3.org/2000/svg" width="30.7mm" height="18mm" viewBox="0 0 1000000 586319"><defs><style>.C1 {stroke: #ffff00; stroke-width: 8143; stroke-opacity: 1.000; fill: none; fill-opacity: 1.000;}</style><style>.C2 {stroke: #00ff00; stroke-width: 8143; stroke-opacity: 1.000; fill: none; fill-opacity: 1.000;}</style><style>.C3 {stroke: #00ffff; stroke-width: 8143; stroke-opacity: 1.000; fill: none; fill-opacity: 1.000;}</style></defs><g stroke-linecap="round" stroke-linejoin="round" fill-rule="evenodd"><path d="M 15060 399312 l 984940 0" class="C1" /><path d="M 431446 464110 l 146529 0" class="C2" /><path d="M 824958 461342 l 127480 0" class="C2" /><path d="M 824958 337281 l 127480 0" class="C2" /><path d="M 431446 334513 l 390744 0" class="C2" /><path d="M 822190 334513 l 0 129597" class="C2" /><path d="M 824958 337281 l -2768 -2768" class="C2" /><path d="M 824958 337281 l -0 124061" class="C2" /><path d="M 824958 461342 l -2768 2768" class="C2" /><path d="M 952438 461342 l 0 -124061" class="C2" /><path d="M 431446 464110 l 0 -464008" class="C3" /><path d="M 577975 553981 l 0 -154669" class="C3" /><path d="M 708223 553981 l 0 -154669" class="C3" /><path d="M 577975 399312 l 130248 0" class="C3" /><path d="M 708223 464110 l 113967 0" class="C2" /><path d="M 431446 521094 l 146529 0" class="C3" /><path d="M 577975 553981 l 130248 0" class="C3" /><path d="M 431446 545515 l 146529 0" class="C3" /><path d="M 431446 586218 l -366322 0" class="C3" /><path d="M 431446 586218 l 0 -122107" class="C3" /><path d="M 65124 586218 l 0 -130248" class="C3" /><path d="M 431446 102 l -366322 0" class="C3" /><path d="M 65124 130350 l -65124 0" class="C3" /><path d="M 65124 260598 l -65124 0" class="C3" /><path d="M 65124 455970 l -65124 0" class="C3" /><path d="M 65124 423408 l -65124 0" class="C3" /><path d="M 0 455970 l 0 -32562" class="C3" /><path d="M 0 260598 l 0 -130248" class="C3" /><path d="M 65124 423408 l 0 -162810" class="C3" /><path d="M 65124 130350 l 0 -130248" class="C3" /><path d="M 65124 423408 l 0 32562" class="C3" /><path d="M 65124 130350 l 0 130248" class="C3" /></g></svg>