<?xml version='1.0' encoding='utf-8'?>
<svg xmlns="http://www.w3.org/2000/svg" width="148mm" height="19.6mm" viewBox="0 0 1000000 132432"><defs><style>.C1 {stroke: #ffff00; stroke-width: 1689; stroke-opacity: 1.000; fill: none; fill-opacity: 1.000;}</style><style>.C2 {stroke: #ff0000; stroke-width: 1689; stroke-opacity: 1.000; fill: none; fill-opacity: 1.000;}</style><style>.C3 {stroke: #999999; stroke-width: 1689; stroke-opacity: 1.000; fill: none; fill-opacity: 1.000;}</style><style>.C4 {stroke: #00ff00; stroke-width: 1689; stroke-opacity: 1.000; fill: none; fill-opacity: 1.000;}</style><style>.C5 {stroke: #00ffff; stroke-width: 1689; stroke-opacity: 1.000; fill: none; fill-opacity: 1.000;}</style></defs><g stroke-linecap="round" stroke-linejoin="round" fill-rule="evenodd"><path d="M 179406 87726 l 820014 -0" class="C1" /><path d="M 179406 101155 l 782785 0" class="C2" /><path d="M 179406 132432 l 809778 -0" class="C2" /><path d="M 179406 96161 l 809778 -0" class="C2" /><path d="M 179406 43019 l 809778 0" class="C2" /><path d="M 989184 132432 l 0 -89413" class="C2" /><path d="M 179406 79291 l 809778 -0" class="C2" /><path d="M 962765 100581 l 26419 0" class="C2" /><path d="M 962765 74871 l 26419 0" class="C2" /><path d="M 179406 74297 l 782785 -0" class="C2" /><path d="M 962191 74297 l 0 26858" class="C2" /><path d="M 962765 74871 l -574 -574" class="C2" /><path d="M 962765 74871 l 0 25710" class="C2" /><path d="M 962765 100581 l -574 574" class="C2" /><path d="M 989184 100581 l 0 -25710" class="C2" /><path d="M 179406 132432 l 0 -89413" class="C2" /><path d="M 179406 101155 l 0 -26858" class="C2" /><path d="M 98428 101155 l 6748 0" class="C3" /><path d="M 179980 100581 l 26419 0" class="C4" /><path d="M 179980 74871 l 26419 0" class="C4" /><path d="M 98428 74297 l 6748 0" class="C3" /><path d="M 179406 74297 l 0 26858" class="C4" /><path d="M 179980 74871 l -574 -574" class="C4" /><path d="M 179980 74871 l -0 25710" class="C4" /><path d="M 179980 100581 l -574 574" class="C4" /><path d="M 206399 100581 l 0 -25710" class="C4" /><path d="M 98428 121467 l 0 -121467" class="C3" /><path d="M 128795 119780 l 0 -32054" class="C5" /><path d="M 155788 119780 l 0 -32054" class="C5" /><path d="M 128795 87726 l 26993 0" class="C5" /><path d="M 155788 101155 l 23619 0" class="C4" /><path d="M 98428 112964 l 6748 -0" class="C3" /><path d="M 128795 119780 l 26993 0" class="C5" /><path d="M 98428 118025 l 6748 0" class="C3" /><path d="M 105176 121467 l -80978 0" class="C5" /><path d="M 105176 0 l -80978 0" class="C5" /><path d="M 30947 23619 l -6748 -0" class="C3" /><path d="M 30947 50611 l -6748 0" class="C3" /><path d="M 30947 91100 l -6748 0" class="C3" /><path d="M 30947 84352 l -6748 0" class="C3" /><path d="M 17450 91100 l 0 -6748" class="C5" /><path d="M 17450 50611 l 0 -26993" class="C5" /><path d="M 30947 121467 l 0 -121467" class="C3" /><path d="M 229414 87726 l -228834 0" class="C1" /><path d="M 24199 121467 l 0 -121467" class="C5" /><path d="M 105176 121467 l 0 -121467" class="C5" /><path d="M 24199 84352 l -6748 0" class="C5" /><path d="M 24199 91100 l -6748 0" class="C5" /><path d="M 24199 50611 l -6748 0" class="C5" /><path d="M 24199 23619 l -6748 0" class="C5" /><path d="M 105176 74297 l 74230 0" class="C4" /><path d="M 105176 101155 l 23619 0" class="C4" /><path d="M 105176 112964 l 23619 0" class="C5" /><path d="M 105176 118025 l 23619 0" class="C5" /></g></svg>