<?xml version='1.0' encoding='utf-8'?>
<svg xmlns="http://www.w3.org/2000/svg" width="33.9mm" height="18mm" viewBox="0 0 1000000 530973"><defs><style>.C1 {stroke: #999999; stroke-width: 7375; stroke-opacity: 1.000; fill: none; fill-opacity: 1.000;}</style><style>.C2 {stroke: #00ff00; stroke-width: 7375; stroke-opacity: 1.000; fill: none; fill-opacity: 1.000;}</style><style>.C3 {stroke: #00ffff; stroke-width: 7375; stroke-opacity: 1.000; fill: none; fill-opacity: 1.000;}</style><style>.C4 {stroke: #ffff00; stroke-width: 7375; stroke-opacity: 1.000; fill: none; fill-opacity: 1.000;}</style></defs><g stroke-linecap="round" stroke-linejoin="round" fill-rule="evenodd"><path d="M 427595 442127 l 29489 0" class="C1" /><path d="M 783972 439621 l 115450 0" class="C2" /><path d="M 783972 327267 l 115450 0" class="C2" /><path d="M 427595 324760 l 29489 0" class="C1" /><path d="M 781466 324760 l 0 117367" class="C2" /><path d="M 783972 327267 l -2507 -2507" class="C2" /><path d="M 783972 327267 l -0 112354" class="C2" /><path d="M 783972 439621 l -2507 2507" class="C2" /><path d="M 899422 439621 l 0 -112354" class="C2" /><path d="M 427595 530890 l 0 -530806" class="C1" /><path d="M 560296 523518 l 0 -140074" class="C3" /><path d="M 678253 523518 l 0 -140074" class="C3" /><path d="M 560296 383444 l 117957 0" class="C3" /><path d="M 678253 442127 l 103212 0" class="C2" /><path d="M 427595 493733 l 29489 -0" class="C1" /><path d="M 560296 523518 l 117957 0" class="C3" /><path d="M 427595 515850 l 29489 0" class="C1" /><path d="M 457084 530890 l -353871 0" class="C3" /><path d="M 457084 84 l -353871 0" class="C3" /><path d="M 132702 103296 l -29489 -0" class="C1" /><path d="M 132702 221253 l -29489 0" class="C1" /><path d="M 132702 398188 l -29489 0" class="C1" /><path d="M 132702 368699 l -29489 0" class="C1" /><path d="M 73724 398188 l 0 -29489" class="C3" /><path d="M 73724 221253 l 0 -117957" class="C3" /><path d="M 132702 530890 l 0 -530806" class="C1" /><path d="M 1000000 383444 l -1000000 0" class="C4" /><path d="M 103213 530890 l 0 -530806" class="C3" /><path d="M 457084 530890 l 0 -530806" class="C3" /><path d="M 103213 368699 l -29489 0" class="C3" /><path d="M 103213 398188 l -29489 0" class="C3" /><path d="M 103213 221253 l -29489 0" class="C3" /><path d="M 103213 103296 l -29489 0" class="C3" /><path d="M 457084 324760 l 324382 0" class="C2" /><path d="M 457084 442127 l 103212 0" class="C2" /><path d="M 457084 493733 l 103212 0" class="C3" /><path d="M 457084 515850 l 103212 0" class="C3" /></g></svg>