<?xml version='1.0' encoding='utf-8'?>
<svg xmlns="http://www.w3.org/2000/svg" width="20.6mm" height="23mm" viewBox="0 0 895652 1000000"><defs><style>.C1 {stroke: #ffff00; stroke-width: 10870; stroke-opacity: 1.000; fill: none; fill-opacity: 1.000;}</style><style>.C2 {stroke: #ff00ff; stroke-width: 10870; stroke-opacity: 1.000; fill: none; fill-opacity: 1.000;}</style><style>.C3 {stroke: #00ff00; stroke-width: 10870; stroke-opacity: 1.000; fill: none; fill-opacity: 1.000;}</style></defs><g stroke-linecap="round" stroke-linejoin="round" fill-rule="evenodd"><path d="M 547799 712540 l 347853 0" class="C1" /><path d="M 287459 0 l 0 452200" class="C1" /><path d="M 574918 425081 l 254917 0" class="C2" /><path d="M 0 1000000 l 0 -829835" class="C2" /><path d="M 574918 425081 l 0 -254917" class="C2" /><path d="M 574918 170165 l -574918 0" class="C2" /><path d="M 0 1000000 l 829835 0" class="C2" /><path d="M 829835 425081 l 0 574918" class="C2" /><path d="M 287459 452200 c 0 143782 116558 260340 260340 260340" class="C1" /><path d="M 574918 425081 l -574918 574918" class="C2" /><path d="M 287459 452200 c 0 143782 116558 260340 260340 260340" class="C1" /><path d="M 201113 452200 c 0 191470 155217 346687 346687 346687" class="C3" /><path d="M 373805 452200 c 0 96094 77900 173994 173994 173994" class="C3" /><path d="M 547799 798887 l 282035 0" class="C3" /><path d="M 547799 626194 l 282035 0" class="C3" /><path d="M 341697 658303 l 488138 0" class="C2" /><path d="M 233222 766778 l 596613 0" class="C2" /><path d="M 233222 766778 l 0 -596613" class="C2" /><path d="M 341697 658303 l 0 -488138" class="C2" /><path d="M 373805 452200 l 0 -108475" class="C3" /><path d="M 829835 626194 l 0 172692" class="C3" /><path d="M 370117 340037 l 0 -169872" class="C3" /><path d="M 204801 340037 l 0 -169872" class="C3" /><path d="M 201113 452200 l 0 -108475" class="C3" /><path d="M 201113 343725 l 172692 0" class="C3" /><path d="M 204801 340037 l 165316 0" class="C3" /><path d="M 204801 340037 l -3688 3688" class="C3" /><path d="M 370117 340037 l 3688 3688" class="C3" /><path d="M 370117 170165 l -165316 0" class="C3" /></g></svg>