<?xml version='1.0' encoding='utf-8'?>
<svg xmlns="http://www.w3.org/2000/svg" width="29.2mm" height="28.5mm" viewBox="0 0 1000000 976027"><defs><style>.C1 {stroke: #ffff00; stroke-width: 8562; stroke-opacity: 1.000; fill: none; fill-opacity: 1.000;}</style><style>.C2 {stroke: #ff00ff; stroke-width: 8562; stroke-opacity: 1.000; fill: none; fill-opacity: 1.000;}</style></defs><g stroke-linecap="round" stroke-linejoin="round" fill-rule="evenodd"><path d="M 226496 35 l 0 475957" class="C1" /><path d="M 183761 792231 l 0 -521368" class="C2" /><path d="M 269231 706761 l 0 -435897" class="C2" /><path d="M 294530 475992 l 0 -205128" class="C2" /><path d="M 291624 267958 l 0 -133846" class="C2" /><path d="M 161368 267958 l 0 -133846" class="C2" /><path d="M 158462 475992 l 0 -205128" class="C2" /><path d="M 158462 270864 l 136068 0" class="C2" /><path d="M 161368 267958 l 130256 0" class="C2" /><path d="M 161368 267958 l -2906 2906" class="C2" /><path d="M 291624 267958 l 2906 2906" class="C2" /><path d="M 291624 134112 l -130256 0" class="C2" /><path d="M 452991 523001 l 0 -252137" class="C2" /><path d="M 0 975992 l 0 -705128" class="C2" /><path d="M 452991 270864 l -452991 0" class="C2" /><path d="M 773504 208059 l 0 267934" class="C1" /><path d="M 226496 475992 c 0 151052 122452 273504 273504 273504 c 151052 0 273504 -122452 273504 -273504" class="C1" /><path d="M 158462 475992 c 0 188626 152912 341538 341538 341538 c 188626 0 341538 -152912 341538 -341538" class="C2" /><path d="M 294530 475992 c 0 113478 91992 205470 205470 205470 c 113478 0 205470 -91992 205470 -205470" class="C2" /><path d="M 705470 475992 l -0 -205128" class="C2" /><path d="M 841538 475992 l 0 -205128" class="C2" /><path d="M 841538 270864 l -136068 0" class="C2" /><path d="M 1000000 975992 l -1000000 -0" class="C2" /><path d="M 547009 523001 l -94017 0" class="C2" /><path d="M 547009 523001 l 0 -252137" class="C2" /><path d="M 547009 270864 l 452991 0" class="C2" /><path d="M 1000000 975992 l 0 -705128" class="C2" /><path d="M 1000000 975992 l -452991 -452991" class="C2" /><path d="M 0 975992 l 452991 -452991" class="C2" /><path d="M 269231 706761 l 461538 0" class="C2" /><path d="M 183761 792231 l 632479 0" class="C2" /><path d="M 816239 792231 l 0 -521368" class="C2" /><path d="M 730769 706761 l 0 -435897" class="C2" /></g></svg>