<?xml version='1.0' encoding='utf-8'?>
<svg xmlns="http://www.w3.org/2000/svg" width="380.3mm" height="18.5mm" viewBox="0 0 1000000 48646"><defs><style>.C1 {stroke: #ffff00; stroke-width: 657; stroke-opacity: 1.000; fill: none; fill-opacity: 1.000;}</style><style>.C2 {stroke: #bf7fff; stroke-width: 657; stroke-opacity: 1.000; fill: none; fill-opacity: 1.000;}</style><style>.C3 {stroke: #00ff00; stroke-width: 657; stroke-opacity: 1.000; fill: none; fill-opacity: 1.000;}</style><style>.C4 {stroke: #ff0000; stroke-width: 657; stroke-opacity: 1.000; fill: none; fill-opacity: 1.000;}</style><style>.C5 {stroke: #ffffff; stroke-width: 657; stroke-opacity: 1.000; fill: none; fill-opacity: 1.000;}</style></defs><g stroke-linecap="round" stroke-linejoin="round" fill-rule="evenodd"><path d="M 4046 26801 l 76160 0" class="C1" /><path d="M 36915 17922 c 105 -31 177 -126 177 -235" class="C2" /><path d="M 37091 14661 c 0 -109 -72 -205 -177 -235" class="C2" /><path d="M 48242 17686 c 0 93 52 178 135 219 c 83 42 182 33 257 -22" class="C2" /><path d="M 48634 14465 c -74 -55 -174 -64 -257 -22 c -83 42 -135 126 -135 219" class="C2" /><path d="M 37173 17564 c -45 0 -82 37 -82 82" class="C2" /><path d="M 37091 14702 c 0 45 37 82 82 82" class="C2" /><path d="M 48242 17645 c 0 -45 -37 -82 -82 -82" class="C2" /><path d="M 48161 14784 c 45 0 82 -37 82 -82" class="C2" /><path d="M 45953 17564 l 2207 0" class="C2" /><path d="M 48161 14784 l -2207 0" class="C2" /><path d="M 37173 17564 l 2207 0" class="C2" /><path d="M 39380 14784 l -2207 0" class="C2" /><path d="M 39380 17400 l 6573 0" class="C2" /><path d="M 45953 14948 l -6573 0" class="C2" /><path d="M 8558 29009 l 95 0" class="C2" /><path d="M 8653 24594 l -95 0" class="C2" /><path d="M 8150 28842 l 245 0" class="C2" /><path d="M 8395 24761 l -245 0" class="C2" /><path d="M 8395 28600 l 164 0" class="C2" /><path d="M 8558 25003 l -164 0" class="C2" /><path d="M 8150 28409 c 0 -34 -21 -65 -54 -77" class="C2" /><path d="M 8096 25271 c 32 -12 54 -42 54 -77" class="C2" /><path d="M 8096 25271 l -914 335" class="C2" /><path d="M 7182 27997 l 914 335" class="C2" /><path d="M 7182 27997 c -9 -3 -19 -5 -28 -5" class="C2" /><path d="M 7154 25611 c 10 0 19 -2 28 -5" class="C2" /><path d="M 6188 27992 l 967 0" class="C2" /><path d="M 7154 25611 l -967 0" class="C2" /><path d="M 6188 25690 l -1308 0" class="C2" /><path d="M 4880 27913 l 1308 0" class="C2" /><path d="M 2836 25698 l -1962 0" class="C2" /><path d="M 874 27905 l 1962 0" class="C2" /><path d="M 874 25698 l -327 327" class="C2" /><path d="M 547 27578 l 327 327" class="C2" /><path d="M 6515 10206 l 327 0" class="C2" /><path d="M 6842 8081 l -327 0" class="C2" /><path d="M 6188 9879 c 0 181 146 327 327 327" class="C2" /><path d="M 6515 8081 c -181 0 -327 146 -327 327" class="C2" /><path d="M 7986 10043 l 491 0" class="C2" /><path d="M 8477 8244 l -491 0" class="C2" /><path d="M 8653 7917 l -13 0" class="C2" /><path d="M 8640 10370 l 13 0" class="C2" /><path d="M 3866 34843 c -72 0 -131 59 -131 131" class="C2" /><path d="M 3735 45013 c 0 72 59 131 131 131" class="C2" /><path d="M 3866 45144 l 3793 0" class="C2" /><path d="M 7659 34843 l -3793 0" class="C2" /><path d="M 7947 34512 l -288 0" class="C2" /><path d="M 7659 45474 l 284 0" class="C2" /><path d="M 36915 21350 c 124 155 312 245 510 245" class="C2" /><path d="M 37425 32007 c -178 0 -348 72 -471 200" class="C2" /><path d="M 48733 21595 l -11308 0" class="C3" /><path d="M 68491 21595 l -7986 0" class="C3" /><path d="M 37425 32007 l 31066 0" class="C3" /><path d="M 68491 32007 l 222 -222" class="C3" /><path d="M 68713 21817 l -222 -222" class="C3" /><path d="M 78955 21817 l -10242 0" class="C3" /><path d="M 68713 31785 l 10242 0" class="C3" /><path d="M 36915 48127 l 0 -6264" class="C2" /><path d="M 8653 41863 l 0 6264" class="C2" /><path d="M 8653 518 l 0 6264" class="C2" /><path d="M 36915 6783 l 0 -6264" class="C2" /><path d="M 8653 34319 l -10 0" class="C2" /><path d="M 37261 20944 l -170 0" class="C2" /><path d="M 37261 20944 l 0 415" class="C2" /><path d="M 37261 21359 l -339 0" class="C2" /><path d="M 37261 20449 l -170 0" class="C2" /><path d="M 37261 20449 l 0 495" class="C2" /><path d="M 37261 20370 l -170 0" class="C2" /><path d="M 37261 20370 l 0 79" class="C2" /><path d="M 37261 33279 l -347 0" class="C2" /><path d="M 37261 33268 l 0 11" class="C2" /><path d="M 37091 20444 l -177 0" class="C2" /><path d="M 37091 20444 l 0 497" class="C2" /><path d="M 37091 20941 l -177 0" class="C2" /><path d="M 37091 21352 l -177 0" class="C2" /><path d="M 37091 20941 l 0 411" class="C2" /><path d="M 37091 20357 l -177 0" class="C2" /><path d="M 37091 20357 l 0 87" class="C2" /><path d="M 37261 32503 l -347 0" class="C2" /><path d="M 37261 32503 l 0 530" class="C2" /><path d="M 37261 33033 l -347 0" class="C2" /><path d="M 37261 32207 l -347 0" class="C2" /><path d="M 37261 32207 l 0 296" class="C2" /><path d="M 37261 33268 l -347 0" class="C2" /><path d="M 37261 33033 l 0 234" class="C2" /><path d="M 37261 26557 l -347 0" class="C2" /><path d="M 37261 26557 l 0 530" class="C2" /><path d="M 37261 27087 l -347 0" class="C2" /><path d="M 37261 26261 l -347 0" class="C2" /><path d="M 37261 26261 l 0 296" class="C2" /><path d="M 37261 27321 l -347 0" class="C2" /><path d="M 37261 27087 l 0 234" class="C2" /><path d="M 48634 16881 l 12018 0" class="C2" /><path d="M 48634 16881 l 0 -3924" class="C2" /><path d="M 48634 12957 l 12018 0" class="C2" /><path d="M 60652 16881 l 0 -3924" class="C2" /><path d="M 48634 18189 l 0 -1308" class="C2" /><path d="M 60652 18189 l 0 -1308" class="C2" /><path d="M 48634 18189 l 12018 0" class="C2" /><path d="M 60542 21595 l 0 -3405" class="C2" /><path d="M 60652 21595 l 0 -3405" class="C2" /><path d="M 48634 21595 l 0 -3405" class="C2" /><path d="M 48733 26802 l 11772 0" class="C2" /><path d="M 48733 26802 l 0 -8502" class="C2" /><path d="M 48733 18299 l 11772 0" class="C2" /><path d="M 60505 26802 l 0 -8502" class="C2" /><path d="M 60395 18299 l 0 -110" class="C2" /><path d="M 48843 18189 l 0 110" class="C2" /><path d="M 60505 18299 l 0 -110" class="C2" /><path d="M 48733 18299 l 0 -110" class="C2" /><path d="M 37091 16174 l 0 -1512" class="C2" /><path d="M 37091 17686 l 0 -1512" class="C2" /><path d="M 48242 16174 l 0 -1512" class="C2" /><path d="M 48242 17686 l 0 -1512" class="C2" /><path d="M 45953 16174 l 0 -1390" class="C2" /><path d="M 45953 17564 l 0 -1390" class="C2" /><path d="M 39380 16174 l 0 -1390" class="C2" /><path d="M 39380 17564 l 0 -1390" class="C2" /><path d="M 8558 29009 l 0 -4415" class="C2" /><path d="M 8150 28842 l 0 -4081" class="C2" /><path d="M 8395 28842 l 0 -4081" class="C2" /><path d="M 2836 26843 l 2044 0" class="C2" /><path d="M 2836 26843 l 0 -82" class="C2" /><path d="M 2836 26761 l 2044 0" class="C2" /><path d="M 4880 26843 l 0 -82" class="C2" /><path d="M 2836 25639 l 2044 0" class="C2" /><path d="M 2836 26761 l 0 -1122" class="C2" /><path d="M 4880 26761 l 0 -1122" class="C2" /><path d="M 2836 27964 l 2044 0" class="C2" /><path d="M 2836 27964 l 0 -1122" class="C2" /><path d="M 4880 27964 l 0 -1122" class="C2" /><path d="M 6188 27992 l 0 -2381" class="C2" /><path d="M 874 25698 l 0 2207" class="C2" /><path d="M 547 27578 l 0 -1553" class="C2" /><path d="M 2836 28005 l 2044 0" class="C2" /><path d="M 2836 28005 l 0 -41" class="C2" /><path d="M 4880 28005 l 0 -41" class="C2" /><path d="M 2836 25598 l 2044 0" class="C2" /><path d="M 2836 25639 l 0 -41" class="C2" /><path d="M 4880 25639 l 0 -41" class="C2" /><path d="M 8627 9214 l -150 0" class="C2" /><path d="M 8653 10152 l -177 0" class="C2" /><path d="M 8477 9214 l 0 938" class="C2" /><path d="M 7986 9214 l -1145 0" class="C2" /><path d="M 7986 9214 l 0 938" class="C2" /><path d="M 7986 10152 l -1145 0" class="C2" /><path d="M 6842 9214 l 0 938" class="C2" /><path d="M 7986 9073 l -1145 0" class="C2" /><path d="M 6842 9073 l 0 142" class="C2" /><path d="M 7986 9073 l 0 142" class="C2" /><path d="M 8627 9073 l -150 0" class="C2" /><path d="M 8477 9073 l 0 142" class="C2" /><path d="M 7986 8134 l -1145 0" class="C2" /><path d="M 6842 8134 l 0 938" class="C2" /><path d="M 7986 8134 l 0 938" class="C2" /><path d="M 8653 8134 l -177 0" class="C2" /><path d="M 8477 8134 l 0 938" class="C2" /><path d="M 6188 9143 l 0 -736" class="C2" /><path d="M 6188 9879 l 0 -736" class="C2" /><path d="M 8653 10223 l -177 0" class="C2" /><path d="M 8477 10152 l 0 71" class="C2" /><path d="M 7986 10223 l -1145 0" class="C2" /><path d="M 6842 10152 l 0 71" class="C2" /><path d="M 7986 10152 l 0 71" class="C2" /><path d="M 8653 8064 l -177 0" class="C2" /><path d="M 8477 8064 l 0 71" class="C2" /><path d="M 7986 8064 l -1145 0" class="C2" /><path d="M 6842 8064 l 0 71" class="C2" /><path d="M 7986 8064 l 0 71" class="C2" /><path d="M 8653 35765 l -994 0" class="C2" /><path d="M 8653 44230 l -994 0" class="C2" /><path d="M 7659 44230 l 0 -8465" class="C2" /><path d="M 3735 45013 l 0 -10039" class="C2" /><path d="M 7659 35765 l 981 -1196" class="C2" /><path d="M 8653 34569 l -13 0" class="C2" /><path d="M 7659 34864 l 981 -1196" class="C2" /><path d="M 8640 33668 l 0 123" class="C2" /><path d="M 8640 33790 l -919 1119" class="C2" /><path d="M 7721 35566 c 37 -217 37 -439 -0 -657" class="C2" /><path d="M 7721 35566 l 919 -1120" class="C2" /><path d="M 8640 34446 l 0 123" class="C2" /><path d="M 7659 34864 l 0 901" class="C2" /><path d="M 8653 33790 l -13 0" class="C2" /><path d="M 8653 33668 l -13 0" class="C2" /><path d="M 8653 34446 l -13 0" class="C2" /><path d="M 8640 46203 l 0 122" class="C2" /><path d="M 8640 45550 l -919 -1124" class="C2" /><path d="M 7721 45081 c 37 -217 37 -438 -0 -655" class="C2" /><path d="M 7721 45081 l 919 1122" class="C2" /><path d="M 7659 45127 l 981 1198" class="C2" /><path d="M 8256 45081 l -535 0" class="C2" /><path d="M 8260 34909 l -539 0" class="C2" /><path d="M 7659 34864 l 0 -351" class="C2" /><path d="M 7659 45474 l 0 -347" class="C2" /><path d="M 68491 21595 l 0 10412" class="C3" /><path d="M 68713 21817 l 0 9967" class="C3" /><path d="M 78955 21817 l 0 9967" class="C3" /><path d="M 8653 41597 l 0 -11623" class="C2" /><path d="M 9061 42152 l 0 -555" class="C2" /><path d="M 8653 41863 c 38 189 217 316 408 289" class="C2" /><path d="M 8653 41863 c 0 -4 0 -9 0 -14 c 0 -5 0 -9 0 -14 c 0 -5 0 -10 0 -15 c 0 -5 0 -10 0 -15 c 0 -5 0 -10 0 -16 c 0 -5 0 -11 0 -16 c 0 -5 0 -11 0 -17 c 0 -6 0 -11 0 -17 c 0 -11 0 -23 0 -35 c 0 -12 0 -24 0 -36 c 0 -12 0 -24 0 -36 c 0 -12 0 -25 0 -37" class="C2" /><path d="M 36507 42152 l 0 -555" class="C2" /><path d="M 9061 42152 l 27445 0" class="C2" /><path d="M 36915 41597 c 0 -3691 0 -7382 0 -11623" class="C2" /><path d="M 36915 41863 c -0 -4 -0 -8 -0 -12 c 0 -4 0 -8 -0 -13 c -0 -4 -0 -9 -0 -13 c -0 -4 -0 -9 -0 -14 c -0 -5 -0 -9 -0 -14 c -0 -3 0 -6 0 -10 c 0 -9 0 -18 0 -27 c 0 -6 0 -13 0 -19 c -0 -7 -0 -13 -0 -20 c -0 -10 -0 -20 -0 -30 c -0 -10 -0 -21 -0 -31 c 0 -10 0 -21 0 -31 c 0 -11 0 -21 0 -32" class="C2" /><path d="M 36507 42152 c 191 27 370 -100 408 -289" class="C2" /><path d="M 36915 48127 l 0 -6264" class="C2" /><path d="M 8653 48127 l 0 -6264" class="C2" /><path d="M 36915 48238 c -0 -0 -0 -0 -0 -0 c 0 -0 0 -1 -0 -1 c -0 -1 -0 -1 -0 -2 c -0 -1 -0 -2 -0 -3 c -0 -1 -0 -2 -0 -3 c -0 -1 0 -2 0 -3 c 0 -3 0 -6 0 -9 c 0 -2 0 -5 0 -7 c -0 -3 -0 -6 -0 -9 c -0 -5 -0 -10 -0 -15 c -0 -5 -0 -11 -0 -17 c 0 -6 0 -13 0 -19 c 0 -7 0 -14 0 -21" class="C2" /><path d="M 8653 48238 c 0 -0 0 -0 0 -0 c 0 -0 0 -1 0 -1 c 0 -1 0 -1 0 -2 c 0 -1 0 -2 0 -3 c 0 -1 0 -3 0 -4 c 0 -1 0 -3 0 -5 c 0 -2 0 -4 0 -6 c 0 -2 0 -4 0 -7 c 0 -5 0 -10 0 -16 c 0 -6 0 -12 0 -19 c 0 -7 0 -14 0 -22 c 0 -8 0 -16 0 -25" class="C2" /><path d="M 8653 48238 c -0 108 43 212 120 289 c 77 77 180 120 289 120" class="C2" /><path d="M 36507 48646 l -27445 0" class="C2" /><path d="M 36507 48646 c 225 0 408 -183 408 -408" class="C2" /><path d="M 36915 7049 l 0 11074" class="C2" /><path d="M 36507 6494 l 0 555" class="C2" /><path d="M 36915 6783 c -38 -189 -217 -316 -408 -289" class="C2" /><path d="M 36915 6783 c 0 39 0 78 0 122 c 0 44 0 94 0 144" class="C2" /><path d="M 9061 6494 l 0 555" class="C2" /><path d="M 36507 6494 l -27445 0" class="C2" /><path d="M 8653 7049 c 0 461 -0 923 0 1384 c 0 461 0 923 0 1384 c 0 461 -0 923 0 1384 c 0 461 0 923 0 1384 c 0 461 -0 923 0 1384 c 0 461 -0 923 0 1384 c 0 461 0 923 0 1384 c -0 461 0 923 0 1384" class="C2" /><path d="M 8653 6783 c 0 39 0 78 0 122 c 0 44 0 94 0 144" class="C2" /><path d="M 9061 6494 c -191 -27 -370 100 -408 289" class="C2" /><path d="M 8653 518 l 0 6264" class="C2" /><path d="M 36915 518 l 0 6264" class="C2" /><path d="M 8653 408 c 0 5 0 10 0 29 c 0 18 0 50 0 82" class="C2" /><path d="M 36915 408 c 0 5 0 10 0 29 c 0 18 0 50 0 82" class="C2" /><path d="M 9061 0 l 27445 0" class="C2" /><path d="M 36915 408 c 0 -108 -43 -212 -120 -289 c -77 -77 -180 -120 -289 -120" class="C2" /><path d="M 9061 0 c -225 0 -408 183 -408 408" class="C2" /><path d="M 10489 31538 l 0 -1565" class="C2" /><path d="M 10489 18123 l 0 -1015" class="C2" /><path d="M 10528 24452 l 0 -181" class="C2" /><path d="M 10528 24271 l 0 -77" class="C2" /><path d="M 10528 24194 c -8 -62 -21 -124 -39 -187" class="C2" /><path d="M 10489 24007 l 0 -5885" class="C2" /><path d="M 10489 29974 l 0 -5335" class="C2" /><path d="M 10488 24638 c 19 -62 32 -124 39 -187" class="C2" /><path d="M 35040 24194 l 0 77" class="C2" /><path d="M 35040 24271 l 0 181" class="C2" /><path d="M 35040 24452 c 8 62 21 124 39 187" class="C2" /><path d="M 35080 24638 l 0 5335" class="C2" /><path d="M 35080 18123 l 0 5885" class="C2" /><path d="M 35080 24007 c -19 62 -32 124 -39 187" class="C2" /><path d="M 35080 17108 l 0 1015" class="C2" /><path d="M 35080 29974 l 0 1565" class="C2" /><path d="M 11014 16712 l 23539 0" class="C2" /><path d="M 11014 31934 l 23539 0" class="C2" /><path d="M 34554 31934 c 309 -0 526 -163 526 -396" class="C2" /><path d="M 35080 17108 c -0 -233 -217 -396 -526 -396" class="C2" /><path d="M 10489 31538 c 0 233 217 396 526 396" class="C2" /><path d="M 11014 16712 c -309 0 -526 163 -526 396" class="C2" /><path d="M 36507 18123 l 0 11851" class="C2" /><path d="M 9061 29974 l 0 -11851" class="C2" /><path d="M 36915 29974 l 0 -11851" class="C2" /><path d="M 8653 18123 l 0 11851" class="C2" /><path d="M 36915 35079 l 26 0" class="C2" /><path d="M 36941 34865 l -26 0" class="C2" /><path d="M 36941 34865 l 0 214" class="C2" /><path d="M 36941 35210 l -26 0" class="C2" /><path d="M 36941 35210 l 0 214" class="C2" /><path d="M 36915 35424 l 26 0" class="C2" /><path d="M 36915 35209 l 26 0" class="C2" /><path d="M 36941 35210 l 0 -1" class="C2" /><path d="M 36915 34865 l 26 0" class="C2" /><path d="M 36941 34865 l 0 1" class="C2" /><path d="M 8644 45550 l 0 126" class="C2" /><path d="M 8382 45320 l 70 0" class="C2" /><path d="M 8382 45320 l 0 -86" class="C2" /><path d="M 8644 45605 l -262 0" class="C2" /><path d="M 8382 45605 l 0 -285" class="C2" /><path d="M 8644 34319 l 0 127" class="C2" /><path d="M 8434 34478 l -52 0" class="C2" /><path d="M 8434 34478 l 0 -67" class="C2" /><path d="M 8644 34412 l -209 0" class="C2" /><path d="M 8382 34696 l 53 0" class="C2" /><path d="M 8382 34696 l 0 -218" class="C2" /><path d="M 8382 34761 l 0 -65" class="C2" /><path d="M 8382 34407 l 52 0" class="C2" /><path d="M 8382 34407 l 0 -16" class="C2" /><path d="M 8644 34390 l -262 0" class="C2" /><path d="M 8434 34412 l 0 -5" class="C2" /><path d="M 8382 34407 l 0 72" class="C2" /><path d="M 8653 8936 l -26 0" class="C2" /><path d="M 8653 9154 l -26 0" class="C2" /><path d="M 8627 9154 l 0 -218" class="C2" /><path d="M 8653 9438 l -26 0" class="C2" /><path d="M 8627 9438 l 0 -285" class="C2" /><path d="M 8627 8865 l 26 0" class="C2" /><path d="M 8627 8865 l 0 -16" class="C2" /><path d="M 8653 8848 l -26 0" class="C2" /><path d="M 8627 8865 l 0 72" class="C2" /><path d="M 8653 13514 l -26 0" class="C2" /><path d="M 8653 13732 l -26 0" class="C2" /><path d="M 8627 13732 l 0 -218" class="C2" /><path d="M 8653 14017 l -26 0" class="C2" /><path d="M 8627 14017 l 0 -285" class="C2" /><path d="M 8627 13443 l 26 0" class="C2" /><path d="M 8627 13443 l 0 -16" class="C2" /><path d="M 8653 13426 l -26 0" class="C2" /><path d="M 8627 13443 l 0 72" class="C2" /><path d="M 13301 30196 c 0 188 152 340 340 340" class="C2" /><path d="M 13301 18450 l 0 11746" class="C2" /><path d="M 13641 18110 c -188 0 -340 152 -340 340" class="C2" /><path d="M 31927 18110 l -18286 0" class="C2" /><path d="M 32267 18450 c 0 -188 -152 -340 -340 -340" class="C2" /><path d="M 32267 30209 l 0 -11759" class="C2" /><path d="M 31940 30536 c 181 0 327 -146 327 -327" class="C2" /><path d="M 13641 30536 l 18299 0" class="C2" /><path d="M 37173 16174 l 0 -1390" class="C2" /><path d="M 37173 17564 l 0 -1390" class="C2" /><path d="M 48161 16174 l 0 -1390" class="C2" /><path d="M 48161 17564 l 0 -1390" class="C2" /><path d="M 8096 28332 l 0 -3061" class="C2" /><path d="M 7182 27997 l 0 -2391" class="C2" /><path d="M 7154 27992 l 0 -2381" class="C2" /><path d="M 6515 9143 l 0 -1063" class="C2" /><path d="M 6515 10206 l 0 -1063" class="C2" /><path d="M 37425 21595 l 0 10412" class="C2" /><path d="M 9061 29974 l 0 11623" class="C2" /><path d="M 36507 41597 l 0 -11623" class="C2" /><path d="M 36507 18123 l 0 -11074" class="C2" /><path d="M 9061 7049 l 0 11074" class="C2" /><path d="M 68491 26801 l 319148 0" class="C1" /><path d="M 68491 23518 l 315164 0" class="C4" /><path d="M 68491 30084 l 315164 0" class="C4" /><path d="M 68491 9401 l 315164 0" class="C4" /><path d="M 68491 44201 l 315164 0" class="C4" /><path d="M 68491 32027 l 304659 0" class="C4" /><path d="M 383655 44201 l 0 -34799" class="C4" /><path d="M 68491 44201 l 0 -34799" class="C4" /><path d="M 373373 31804 l 10282 0" class="C4" /><path d="M 373373 21798 l 10282 0" class="C4" /><path d="M 68491 21574 l 304659 0" class="C4" /><path d="M 373149 21574 l 0 10453" class="C4" /><path d="M 373373 21798 l 0 10006" class="C4" /><path d="M 373373 21798 l -223 -223" class="C4" /><path d="M 373373 31804 l -223 223" class="C4" /><path d="M 383655 31804 l 0 -10006" class="C4" /><path d="M 68491 32027 l 0 -10453" class="C4" /><path d="M 680435 30741 l -290542 0" class="C5" /><path d="M 680435 22861 l -290542 0" class="C5" /><path d="M 385625 31857 l 4268 -1116" class="C5" /><path d="M 385625 21745 l 4268 1116" class="C5" /><path d="M 373149 31857 l 12475 0" class="C5" /><path d="M 692168 26801 l -333755 0" class="C1" /><path d="M 385625 21745 l -12475 0" class="C5" /><path d="M 373149 21745 l 0 10112" class="C5" /><path d="M 385625 21745 l 0 10112" class="C5" /><path d="M 389893 22861 l 0 7879" class="C5" /><path d="M 680435 22868 c 0 87 71 158 158 158" class="C5" /><path d="M 680592 23026 l 7722 0" class="C5" /><path d="M 680592 30576 l 7722 0" class="C5" /><path d="M 680592 30576 c -87 0 -158 71 -158 158" class="C5" /><path d="M 680435 22861 l 0 7879" class="C5" /><path d="M 688314 23026 l 0 7551" class="C5" /><path d="M 373149 23518 l 315164 0" class="C5" /><path d="M 373149 30084 l 315164 0" class="C5" /><path d="M 373149 9401 l 315164 0" class="C5" /><path d="M 373149 44201 l 315164 0" class="C5" /><path d="M 688314 44201 l 0 -34799" class="C5" /><path d="M 373149 44201 l 0 -34799" class="C5" /><path d="M 987720 30741 l -307285 0" class="C5" /><path d="M 987720 22861 l -307285 -0" class="C5" /><path d="M 999453 26801 l -327139 0" class="C1" /><path d="M 680435 22861 l 0 7879" class="C5" /><path d="M 908893 30741 l 78827 0" class="C5" /><path d="M 908893 22861 l 78827 0" class="C5" /><path d="M 949143 26801 c 0 997 -808 1806 -1806 1806 c -997 0 -1806 -808 -1806 -1806 c 0 -997 808 -1806 1806 -1806 c 997 0 1806 808 1806 1806" class="C5" /><path d="M 854593 26801 c 0 997 -808 1806 -1806 1806 c -997 0 -1806 -808 -1806 -1806 c 0 -997 808 -1806 1806 -1806 c 997 0 1806 808 1806 1806" class="C5" /><path d="M 987720 22861 l 0 7" class="C5" /><path d="M 987720 22868 c 0 87 71 158 158 158" class="C5" /><path d="M 987877 23026 l 7722 0" class="C5" /><path d="M 987877 30576 l 7722 0" class="C5" /><path d="M 908893 22861 c -1137 1264 -4737 2134 -8831 2134 c -4093 0 -7693 -870 -8831 -2134" class="C5" /><path d="M 891232 30741 c 1137 -1264 4737 -2134 8831 -2134 c 4093 -0 7693 870 8831 2134" class="C5" /><path d="M 987720 30741 l 0 -7" class="C5" /><path d="M 987877 30576 c -87 0 -158 71 -158 158" class="C5" /><path d="M 987720 22861 l 0 7879" class="C5" /><path d="M 861652 26801 c 0 -1632 -3969 -2955 -8864 -2955 c -4895 0 -8864 1323 -8864 2955 c 0 1632 3969 2955 8864 2955 c 4895 0 8864 -1323 8864 -2955" class="C5" /><path d="M 956201 26801 c 0 -1632 -3969 -2955 -8864 -2955 c -4895 0 -8864 1323 -8864 2955 c 0 1632 3969 2955 8864 2955 c 4895 0 8864 -1323 8864 -2955" class="C5" /><path d="M 995599 23026 l 0 7551" class="C5" /><path d="M 680435 23518 l 315164 0" class="C5" /><path d="M 680435 30084 l 315164 0" class="C5" /><path d="M 680435 9401 l 315164 0" class="C5" /><path d="M 680435 44201 l 315164 0" class="C5" /><path d="M 680435 44201 l 0 -34799" class="C5" /><path d="M 995599 44201 l 0 -34799" class="C5" /></g></svg>