<?xml version='1.0' encoding='utf-8'?>
<svg xmlns="http://www.w3.org/2000/svg" width="23mm" height="20.6mm" viewBox="0 0 1000000 895652"><defs><style>.C1 {stroke: #ffff00; stroke-width: 10870; stroke-opacity: 1.000; fill: none; fill-opacity: 1.000;}</style><style>.C2 {stroke: #ff00ff; stroke-width: 10870; stroke-opacity: 1.000; fill: none; fill-opacity: 1.000;}</style></defs><g stroke-linecap="round" stroke-linejoin="round" fill-rule="evenodd"><path d="M 712540 347853 l 0 -347853" class="C1" /><path d="M 0 608193 l 452200 -0" class="C1" /><path d="M 425081 320734 l 0 -254917" class="C2" /><path d="M 1000000 895652 l -829835 0" class="C2" /><path d="M 425081 320734 l -254917 0" class="C2" /><path d="M 170165 320734 l 0 574918" class="C2" /><path d="M 1000000 895652 l 0 -829835" class="C2" /><path d="M 425081 65817 l 574918 0" class="C2" /><path d="M 452200 608193 c 143782 0 260340 -116558 260340 -260340" class="C1" /><path d="M 425081 320734 l 574918 574918" class="C2" /><path d="M 452200 608193 c 143782 0 260340 -116558 260340 -260340" class="C1" /><path d="M 452200 694539 c 191470 0 346687 -155217 346687 -346687" class="C2" /><path d="M 452200 521847 c 96094 0 173994 -77900 173994 -173994" class="C2" /><path d="M 798887 347853 l 0 -282035" class="C2" /><path d="M 626194 347853 l 0 -282035" class="C2" /><path d="M 658303 553956 l 0 -488138" class="C2" /><path d="M 766778 662431 l 0 -596613" class="C2" /><path d="M 766778 662431 l -596613 0" class="C2" /><path d="M 658303 553956 l -488138 0" class="C2" /><path d="M 452200 521847 l -108475 0" class="C2" /><path d="M 626194 65817 l 172692 0" class="C2" /><path d="M 340037 525535 l -169872 0" class="C2" /><path d="M 340037 690851 l -169872 0" class="C2" /><path d="M 452200 694539 l -108475 0" class="C2" /><path d="M 343725 694539 l 0 -172692" class="C2" /><path d="M 340037 690851 l 0 -165316" class="C2" /><path d="M 340037 690851 l 3688 3688" class="C2" /><path d="M 340037 525535 l 3688 -3688" class="C2" /><path d="M 170165 525535 l 0 165316" class="C2" /></g></svg>