<?xml version='1.0' encoding='utf-8'?>
<svg xmlns="http://www.w3.org/2000/svg" width="203.4mm" height="18.5mm" viewBox="0 0 1000000 90954"><defs><style>.C1 {stroke: #ffff00; stroke-width: 1229; stroke-opacity: 1.000; fill: none; fill-opacity: 1.000;}</style><style>.C2 {stroke: #bf7fff; stroke-width: 1229; stroke-opacity: 1.000; fill: none; fill-opacity: 1.000;}</style><style>.C3 {stroke: #00ff00; stroke-width: 1229; stroke-opacity: 1.000; fill: none; fill-opacity: 1.000;}</style><style>.C4 {stroke: #ff0000; stroke-width: 1229; stroke-opacity: 1.000; fill: none; fill-opacity: 1.000;}</style><style>.C5 {stroke: #ffffff; stroke-width: 1229; stroke-opacity: 1.000; fill: none; fill-opacity: 1.000;}</style></defs><g stroke-linecap="round" stroke-linejoin="round" fill-rule="evenodd"><path d="M 7171 50110 l 142397 0" class="C1" /><path d="M 68626 33508 c 196 -57 330 -236 330 -440" class="C2" /><path d="M 68956 27413 c 0 -204 -135 -383 -330 -440" class="C2" /><path d="M 89805 33068 c 0 173 98 332 253 410 c 155 78 341 62 480 -42" class="C2" /><path d="M 90538 27045 c -139 -104 -325 -120 -480 -42 c -155 78 -253 236 -253 410" class="C2" /><path d="M 69109 32839 c -84 0 -153 68 -153 153" class="C2" /><path d="M 68956 27489 c 0 84 68 153 153 153" class="C2" /><path d="M 89805 32992 c 0 -84 -68 -153 -153 -153" class="C2" /><path d="M 89653 27642 c 84 0 153 -68 153 -153" class="C2" /><path d="M 85526 32839 l 4127 0" class="C2" /><path d="M 89653 27642 l -4127 0" class="C2" /><path d="M 69109 32839 l 4127 0" class="C2" /><path d="M 73236 27642 l -4127 0" class="C2" /><path d="M 73236 32533 l 12289 0" class="C2" /><path d="M 85526 27948 l -12289 0" class="C2" /><path d="M 15608 54238 l 177 0" class="C2" /><path d="M 15785 45984 l -177 0" class="C2" /><path d="M 14844 53927 l 459 0" class="C2" /><path d="M 15302 46296 l -459 0" class="C2" /><path d="M 15302 53474 l 306 0" class="C2" /><path d="M 15608 46749 l -306 0" class="C2" /><path d="M 14844 53116 c 0 -64 -40 -121 -100 -144" class="C2" /><path d="M 14744 47250 c 60 -22 100 -79 100 -144" class="C2" /><path d="M 14744 47250 l -1709 626" class="C2" /><path d="M 13035 52346 l 1709 626" class="C2" /><path d="M 13035 52346 c -17 -6 -35 -9 -53 -9" class="C2" /><path d="M 12982 47886 c 18 0 36 -3 53 -9" class="C2" /><path d="M 11175 52337 l 1807 0" class="C2" /><path d="M 12982 47886 l -1807 0" class="C2" /><path d="M 11175 48033 l -2446 0" class="C2" /><path d="M 8730 52190 l 2446 0" class="C2" /><path d="M 4908 48048 l -3668 0" class="C2" /><path d="M 1240 52175 l 3668 0" class="C2" /><path d="M 1240 48048 l -611 611" class="C2" /><path d="M 628 51564 l 611 611" class="C2" /><path d="M 11787 19082 l 611 0" class="C2" /><path d="M 12398 15108 l -611 0" class="C2" /><path d="M 11175 18471 c 0 338 274 611 611 611" class="C2" /><path d="M 11787 15108 c -338 0 -611 274 -611 611" class="C2" /><path d="M 14538 18777 l 917 0" class="C2" /><path d="M 15455 15414 l -917 0" class="C2" /><path d="M 15785 14803 l -24 0" class="C2" /><path d="M 15761 19388 l 24 0" class="C2" /><path d="M 6834 65146 c -135 0 -245 109 -245 245" class="C2" /><path d="M 6590 84161 c 0 135 109 245 245 245" class="C2" /><path d="M 6834 84406 l 7092 0" class="C2" /><path d="M 13927 65146 l -7092 0" class="C2" /><path d="M 14465 64529 l -538 0" class="C2" /><path d="M 13927 85023 l 531 0" class="C2" /><path d="M 68626 39919 c 232 289 583 458 954 458" class="C2" /><path d="M 69580 59844 c -332 0 -650 135 -881 375" class="C2" /><path d="M 90723 40376 l -21143 0" class="C3" /><path d="M 127664 40376 l -14931 0" class="C3" /><path d="M 69580 59844 l 58084 0" class="C3" /><path d="M 127664 59844 l 416 -416" class="C3" /><path d="M 128080 40792 l -416 -416" class="C3" /><path d="M 147229 40792 l -19149 0" class="C3" /><path d="M 128080 59428 l 19149 0" class="C3" /><path d="M 68626 89984 l 0 -11713" class="C2" /><path d="M 15785 78272 l 0 11713" class="C2" /><path d="M 15785 969 l 0 11713" class="C2" /><path d="M 68626 12682 l 0 -11713" class="C2" /><path d="M 15785 64167 l -18 0" class="C2" /><path d="M 69274 39159 l -318 0" class="C2" /><path d="M 69274 39159 l 0 777" class="C2" /><path d="M 69274 39935 l -635 0" class="C2" /><path d="M 69274 38234 l -318 0" class="C2" /><path d="M 69274 38234 l 0 925" class="C2" /><path d="M 69274 38086 l -318 0" class="C2" /><path d="M 69274 38086 l 0 148" class="C2" /><path d="M 69274 62222 l -648 0" class="C2" /><path d="M 69274 62201 l 0 21" class="C2" /><path d="M 68956 38224 l -330 0" class="C2" /><path d="M 68956 38224 l 0 930" class="C2" /><path d="M 68956 39154 l -330 0" class="C2" /><path d="M 68956 39922 l -330 0" class="C2" /><path d="M 68956 39154 l 0 768" class="C2" /><path d="M 68956 38062 l -330 0" class="C2" /><path d="M 68956 38062 l 0 162" class="C2" /><path d="M 69274 60772 l -648 0" class="C2" /><path d="M 69274 60772 l 0 991" class="C2" /><path d="M 69274 61763 l -648 0" class="C2" /><path d="M 69274 60218 l -648 0" class="C2" /><path d="M 69274 60218 l 0 553" class="C2" /><path d="M 69274 62201 l -648 0" class="C2" /><path d="M 69274 61763 l 0 438" class="C2" /><path d="M 69274 49653 l -648 0" class="C2" /><path d="M 69274 49653 l 0 991" class="C2" /><path d="M 69274 50645 l -648 0" class="C2" /><path d="M 69274 49100 l -648 0" class="C2" /><path d="M 69274 49100 l 0 553" class="C2" /><path d="M 69274 51083 l -648 0" class="C2" /><path d="M 69274 50645 l 0 438" class="C2" /><path d="M 90538 31564 l 22469 0" class="C2" /><path d="M 90538 31564 l 0 -7337" class="C2" /><path d="M 90538 24227 l 22469 0" class="C2" /><path d="M 113007 31564 l 0 -7337" class="C2" /><path d="M 90538 34009 l 0 -2446" class="C2" /><path d="M 113007 34009 l 0 -2446" class="C2" /><path d="M 90538 34009 l 22469 0" class="C2" /><path d="M 112802 40376 l 0 -6367" class="C2" /><path d="M 113007 40376 l 0 -6367" class="C2" /><path d="M 90538 40376 l 0 -6367" class="C2" /><path d="M 90723 50111 l 22011 0" class="C2" /><path d="M 90723 50111 l 0 -15897" class="C2" /><path d="M 90723 34215 l 22011 0" class="C2" /><path d="M 112733 50111 l 0 -15897" class="C2" /><path d="M 112528 34215 l 0 -206" class="C2" /><path d="M 90928 34009 l 0 206" class="C2" /><path d="M 112733 34215 l 0 -206" class="C2" /><path d="M 90723 34215 l 0 -206" class="C2" /><path d="M 68956 30240 l 0 -2828" class="C2" /><path d="M 68956 33068 l 0 -2828" class="C2" /><path d="M 89805 30240 l 0 -2828" class="C2" /><path d="M 89805 33068 l 0 -2828" class="C2" /><path d="M 85526 30240 l 0 -2599" class="C2" /><path d="M 85526 32839 l 0 -2599" class="C2" /><path d="M 73236 30240 l 0 -2599" class="C2" /><path d="M 73236 32839 l 0 -2599" class="C2" /><path d="M 15608 54238 l 0 -8254" class="C2" /><path d="M 14844 53927 l 0 -7630" class="C2" /><path d="M 15302 53927 l 0 -7630" class="C2" /><path d="M 4908 50188 l 3821 0" class="C2" /><path d="M 4908 50188 l 0 -153" class="C2" /><path d="M 4908 50035 l 3821 0" class="C2" /><path d="M 8730 50188 l 0 -153" class="C2" /><path d="M 4908 47937 l 3821 0" class="C2" /><path d="M 4908 50035 l 0 -2098" class="C2" /><path d="M 8730 50035 l 0 -2098" class="C2" /><path d="M 4908 52285 l 3821 0" class="C2" /><path d="M 4908 52285 l 0 -2098" class="C2" /><path d="M 8730 52285 l 0 -2098" class="C2" /><path d="M 11175 52337 l 0 -4451" class="C2" /><path d="M 1240 48048 l 0 4127" class="C2" /><path d="M 628 51564 l 0 -2904" class="C2" /><path d="M 4908 52362 l 3821 0" class="C2" /><path d="M 4908 52362 l 0 -76" class="C2" /><path d="M 8730 52362 l 0 -76" class="C2" /><path d="M 4908 47861 l 3821 0" class="C2" /><path d="M 4908 47937 l 0 -76" class="C2" /><path d="M 8730 47937 l 0 -76" class="C2" /><path d="M 15736 17228 l -281 0" class="C2" /><path d="M 15785 18982 l -330 0" class="C2" /><path d="M 15455 17228 l 0 1754" class="C2" /><path d="M 14538 17228 l -2140 0" class="C2" /><path d="M 14538 17228 l 0 1754" class="C2" /><path d="M 14538 18982 l -2140 0" class="C2" /><path d="M 12398 17228 l 0 1754" class="C2" /><path d="M 14538 16963 l -2140 0" class="C2" /><path d="M 12398 16963 l 0 265" class="C2" /><path d="M 14538 16963 l 0 265" class="C2" /><path d="M 15736 16963 l -281 0" class="C2" /><path d="M 15455 16963 l 0 265" class="C2" /><path d="M 14538 15209 l -2140 0" class="C2" /><path d="M 12398 15209 l 0 1754" class="C2" /><path d="M 14538 15209 l 0 1754" class="C2" /><path d="M 15785 15209 l -330 0" class="C2" /><path d="M 15455 15209 l 0 1754" class="C2" /><path d="M 11175 17095 l 0 -1376" class="C2" /><path d="M 11175 18471 l 0 -1376" class="C2" /><path d="M 15785 19114 l -330 0" class="C2" /><path d="M 15455 18982 l 0 132" class="C2" /><path d="M 14538 19114 l -2140 0" class="C2" /><path d="M 12398 18982 l 0 132" class="C2" /><path d="M 14538 18982 l 0 132" class="C2" /><path d="M 15785 15077 l -330 0" class="C2" /><path d="M 15455 15077 l 0 132" class="C2" /><path d="M 14538 15077 l -2140 0" class="C2" /><path d="M 12398 15077 l 0 132" class="C2" /><path d="M 14538 15077 l 0 132" class="C2" /><path d="M 15785 66870 l -1859 0" class="C2" /><path d="M 15785 82697 l -1859 0" class="C2" /><path d="M 13927 82697 l 0 -15827" class="C2" /><path d="M 6590 84161 l 0 -18770" class="C2" /><path d="M 13927 66870 l 1834 -2236" class="C2" /><path d="M 15785 64634 l -24 0" class="C2" /><path d="M 13927 65185 l 1834 -2236" class="C2" /><path d="M 15761 62949 l 0 230" class="C2" /><path d="M 15761 63178 l -1719 2092" class="C2" /><path d="M 14043 66499 c 69 -406 69 -822 -1 -1228" class="C2" /><path d="M 14043 66499 l 1718 -2095" class="C2" /><path d="M 15761 64404 l 0 230" class="C2" /><path d="M 13927 65185 l 0 1685" class="C2" /><path d="M 15785 63178 l -24 0" class="C2" /><path d="M 15785 62949 l -24 0" class="C2" /><path d="M 15785 64404 l -24 0" class="C2" /><path d="M 15761 86386 l 0 229" class="C2" /><path d="M 15761 85166 l -1719 -2102" class="C2" /><path d="M 14043 84288 c 69 -405 69 -819 -1 -1224" class="C2" /><path d="M 14043 84288 l 1718 2098" class="C2" /><path d="M 13927 84375 l 1834 2240" class="C2" /><path d="M 15043 84288 l -1000 0" class="C2" /><path d="M 15050 65271 l -1008 0" class="C2" /><path d="M 13927 65185 l 0 -657" class="C2" /><path d="M 13927 85023 l 0 -648" class="C2" /><path d="M 127664 40376 l 0 19467" class="C3" /><path d="M 128080 40792 l 0 18636" class="C3" /><path d="M 147229 40792 l 0 18636" class="C3" /><path d="M 15785 77774 l 0 -21732" class="C2" /><path d="M 16548 78811 l 0 -1038" class="C2" /><path d="M 15785 78272 c 71 353 406 590 763 540" class="C2" /><path d="M 15785 78272 c 0 -8 0 -17 0 -25 c 0 -9 0 -17 0 -26 c 0 -9 0 -18 0 -27 c 0 -9 0 -19 0 -28 c 0 -10 0 -19 0 -29 c 0 -10 0 -20 0 -30 c 0 -10 0 -20 0 -31 c 0 -11 0 -21 0 -32 c 0 -21 0 -43 0 -65 c 0 -22 0 -44 0 -67 c 0 -23 0 -45 0 -68 c 0 -23 0 -46 0 -69" class="C2" /><path d="M 67863 78811 l 0 -1038" class="C2" /><path d="M 16548 78811 l 51315 0" class="C2" /><path d="M 68626 77774 c 0 -6902 0 -13803 0 -21732" class="C2" /><path d="M 68626 78272 c -0 -8 -0 -15 -0 -23 c 0 -8 0 -16 -0 -24 c -0 -8 -0 -16 -0 -25 c -0 -8 -0 -17 -0 -26 c -0 -9 -0 -17 -0 -26 c -0 -6 0 -12 0 -18 c 0 -17 0 -34 0 -51 c 0 -12 0 -24 0 -36 c -0 -12 -0 -25 -0 -38 c -0 -19 -0 -38 -0 -57 c -0 -19 -0 -38 -0 -58 c 0 -19 0 -39 0 -59 c 0 -20 0 -39 0 -59" class="C2" /><path d="M 67863 78811 c 357 50 692 -186 763 -540" class="C2" /><path d="M 68626 89984 l 0 -11713" class="C2" /><path d="M 15785 89984 l 0 -11713" class="C2" /><path d="M 68626 90191 c -0 -0 -0 -0 -0 -1 c 0 -0 0 -1 -0 -2 c -0 -1 -0 -2 -0 -4 c -0 -1 -0 -3 -0 -5 c -0 -2 -0 -4 -0 -6 c -0 -2 0 -3 0 -5 c 0 -5 0 -11 0 -17 c 0 -4 0 -9 0 -14 c -0 -5 -0 -11 -0 -16 c -0 -9 -0 -18 -0 -28 c -0 -10 -0 -21 -0 -32 c 0 -11 0 -23 0 -36 c 0 -13 0 -26 0 -40" class="C2" /><path d="M 15785 90191 c 0 -0 0 -0 0 -1 c 0 -1 0 -1 0 -3 c 0 -1 0 -3 0 -4 c 0 -2 0 -4 0 -6 c 0 -2 0 -5 0 -8 c 0 -3 0 -6 0 -9 c 0 -3 0 -7 0 -11 c 0 -4 0 -8 0 -13 c 0 -9 0 -19 0 -30 c 0 -11 0 -23 0 -35 c 0 -13 0 -26 0 -41 c 0 -15 0 -31 0 -47" class="C2" /><path d="M 15785 90191 c -0 202 80 396 223 540 c 143 143 337 223 540 223" class="C2" /><path d="M 67863 90954 l -51315 0" class="C2" /><path d="M 67863 90954 c 421 0 763 -342 763 -763" class="C2" /><path d="M 68626 13180 l 0 20705" class="C2" /><path d="M 67863 12142 l 0 1038" class="C2" /><path d="M 68626 12682 c -71 -353 -406 -590 -763 -540" class="C2" /><path d="M 68626 12682 c 0 73 0 145 0 229 c 0 83 0 176 0 270" class="C2" /><path d="M 16548 12142 l 0 1038" class="C2" /><path d="M 67863 12142 l -51315 0" class="C2" /><path d="M 15785 13180 c 0 863 -0 1725 0 2588 c 0 863 0 1725 0 2588 c 0 863 -0 1725 0 2588 c 0 863 0 1725 0 2588 c 0 863 -0 1725 0 2588 c 0 863 -0 1725 0 2588 c 0 863 0 1725 0 2588 c -0 863 0 1725 0 2588" class="C2" /><path d="M 15785 12682 c 0 73 0 145 0 228 c 0 83 0 177 0 270" class="C2" /><path d="M 16548 12142 c -357 -50 -692 186 -763 540" class="C2" /><path d="M 15785 969 l 0 11713" class="C2" /><path d="M 68626 969 l 0 11713" class="C2" /><path d="M 15785 763 c 0 10 0 19 0 53 c 0 34 0 94 0 153" class="C2" /><path d="M 68626 763 c 0 10 0 19 0 54 c 0 34 0 94 0 153" class="C2" /><path d="M 16548 0 l 51315 0" class="C2" /><path d="M 68626 763 c 0 -202 -80 -396 -223 -540 c -143 -143 -337 -223 -540 -223" class="C2" /><path d="M 16548 0 c -421 0 -763 342 -763 763" class="C2" /><path d="M 19217 58968 l 0 -2925" class="C2" /><path d="M 19217 33885 l 0 -1898" class="C2" /><path d="M 19290 45718 l 0 -339" class="C2" /><path d="M 19290 45379 l 0 -143" class="C2" /><path d="M 19290 45236 c -14 -116 -39 -233 -73 -349" class="C2" /><path d="M 19217 44887 l 0 -11003" class="C2" /><path d="M 19217 56042 l 0 -9975" class="C2" /><path d="M 19217 46067 c 35 -116 59 -233 73 -349" class="C2" /><path d="M 65122 45236 l 0 143" class="C2" /><path d="M 65122 45379 l 0 339" class="C2" /><path d="M 65122 45718 c 14 116 39 233 73 349" class="C2" /><path d="M 65195 46067 l 0 9975" class="C2" /><path d="M 65195 33885 l 0 11003" class="C2" /><path d="M 65195 44887 c -35 116 -59 233 -73 349" class="C2" /><path d="M 65195 31986 l 0 1898" class="C2" /><path d="M 65195 56042 l 0 2925" class="C2" /><path d="M 20200 31246 l 44012 0" class="C2" /><path d="M 20200 59708 l 44012 0" class="C2" /><path d="M 64212 59708 c 578 -0 983 -305 983 -740" class="C2" /><path d="M 65195 31986 c -0 -435 -406 -740 -983 -740" class="C2" /><path d="M 19217 58968 c 0 435 406 740 983 740" class="C2" /><path d="M 20200 31246 c -578 0 -983 305 -983 740" class="C2" /><path d="M 67863 33885 l 0 22158" class="C2" /><path d="M 16548 56042 l 0 -22158" class="C2" /><path d="M 68626 56042 l 0 -22158" class="C2" /><path d="M 15785 33885 l 0 22158" class="C2" /><path d="M 68626 65588 l 49 0" class="C2" /><path d="M 68675 65188 l -49 0" class="C2" /><path d="M 68675 65188 l 0 400" class="C2" /><path d="M 68675 65833 l -49 0" class="C2" /><path d="M 68675 65833 l 0 400" class="C2" /><path d="M 68626 66233 l 49 0" class="C2" /><path d="M 68626 65831 l 49 0" class="C2" /><path d="M 68675 65833 l 0 -2" class="C2" /><path d="M 68626 65187 l 49 0" class="C2" /><path d="M 68675 65187 l 0 1" class="C2" /><path d="M 15767 85166 l 0 235" class="C2" /><path d="M 15278 84736 l 131 0" class="C2" /><path d="M 15278 84736 l 0 -160" class="C2" /><path d="M 15767 85268 l -489 0" class="C2" /><path d="M 15278 85268 l 0 -532" class="C2" /><path d="M 15767 64167 l 0 237" class="C2" /><path d="M 15376 64464 l -98 0" class="C2" /><path d="M 15376 64464 l 0 -124" class="C2" /><path d="M 15767 64340 l -391 0" class="C2" /><path d="M 15278 64871 l 100 0" class="C2" /><path d="M 15278 64871 l 0 -407" class="C2" /><path d="M 15278 64993 l 0 -122" class="C2" /><path d="M 15278 64331 l 98 0" class="C2" /><path d="M 15278 64331 l 0 -31" class="C2" /><path d="M 15767 64300 l -489 0" class="C2" /><path d="M 15376 64340 l 0 -9" class="C2" /><path d="M 15278 64331 l 0 134" class="C2" /><path d="M 15785 16708 l -49 0" class="C2" /><path d="M 15785 17115 l -49 0" class="C2" /><path d="M 15736 17115 l 0 -407" class="C2" /><path d="M 15785 17647 l -49 0" class="C2" /><path d="M 15736 17647 l 0 -532" class="C2" /><path d="M 15736 16574 l 49 0" class="C2" /><path d="M 15736 16574 l 0 -31" class="C2" /><path d="M 15785 16544 l -49 0" class="C2" /><path d="M 15736 16574 l 0 134" class="C2" /><path d="M 15785 25268 l -49 0" class="C2" /><path d="M 15785 25675 l -49 0" class="C2" /><path d="M 15736 25675 l 0 -407" class="C2" /><path d="M 15785 26207 l -49 0" class="C2" /><path d="M 15736 26207 l 0 -532" class="C2" /><path d="M 15736 25134 l 49 0" class="C2" /><path d="M 15736 25134 l 0 -31" class="C2" /><path d="M 15785 25103 l -49 0" class="C2" /><path d="M 15736 25134 l 0 134" class="C2" /><path d="M 24475 56458 c 0 351 285 636 636 636" class="C2" /><path d="M 24475 34496 l 0 21962" class="C2" /><path d="M 25111 33860 c -351 0 -636 285 -636 636" class="C2" /><path d="M 59301 33860 l -34190 0" class="C2" /><path d="M 59937 34496 c 0 -351 -285 -636 -636 -636" class="C2" /><path d="M 59937 56482 l 0 -21986" class="C2" /><path d="M 59325 57094 c 338 0 611 -274 611 -611" class="C2" /><path d="M 25111 57094 l 34215 0" class="C2" /><path d="M 69109 30240 l 0 -2599" class="C2" /><path d="M 69109 32839 l 0 -2599" class="C2" /><path d="M 89653 30240 l 0 -2599" class="C2" /><path d="M 89653 32839 l 0 -2599" class="C2" /><path d="M 14744 52973 l 0 -5723" class="C2" /><path d="M 13035 52346 l 0 -4470" class="C2" /><path d="M 12982 52337 l 0 -4451" class="C2" /><path d="M 11787 17095 l 0 -1987" class="C2" /><path d="M 11787 19082 l 0 -1987" class="C2" /><path d="M 69580 40376 l 0 19467" class="C2" /><path d="M 16548 56042 l 0 21732" class="C2" /><path d="M 67863 77774 l 0 -21732" class="C2" /><path d="M 67863 33885 l 0 -20705" class="C2" /><path d="M 16548 13180 l 0 20705" class="C2" /><path d="M 127664 50110 l 596716 0" class="C1" /><path d="M 127664 43972 l 589267 0" class="C4" /><path d="M 127664 56248 l 589267 0" class="C4" /><path d="M 127664 17578 l 589267 0" class="C4" /><path d="M 127664 82643 l 589267 0" class="C4" /><path d="M 127664 59882 l 569625 0" class="C4" /><path d="M 716931 82643 l 0 -65065" class="C4" /><path d="M 127664 82643 l 0 -65065" class="C4" /><path d="M 697707 59465 l 19225 0" class="C4" /><path d="M 697707 40756 l 19225 0" class="C4" /><path d="M 127664 40338 l 569625 0" class="C4" /><path d="M 697289 40338 l 0 19544" class="C4" /><path d="M 697707 40756 l 0 18709" class="C4" /><path d="M 697707 40756 l -417 -417" class="C4" /><path d="M 697707 59465 l -417 417" class="C4" /><path d="M 716931 59465 l 0 -18709" class="C4" /><path d="M 127664 59882 l 0 -19544" class="C4" /><path d="M 697289 40657 l 2455 0" class="C5" /><path d="M 720614 59563 l 7980 -2087" class="C5" /><path d="M 720614 40657 l 7980 2087" class="C5" /><path d="M 699744 59563 l 20870 0" class="C5" /><path d="M 699744 59563 l -2455 0" class="C5" /><path d="M 999129 50110 l -329393 0" class="C1" /><path d="M 720614 40657 l -23325 0" class="C5" /><path d="M 697289 40657 l 0 18906" class="C5" /><path d="M 720614 40657 l 0 18906" class="C5" /><path d="M 728594 42744 l 0 14732" class="C5" /><path d="M 936372 50110 c 0 1865 -1511 3376 -3376 3376 c -1865 0 -3376 -1511 -3376 -3376 c 0 -1865 1511 -3376 3376 -3376 c 1865 0 3376 1511 3376 3376" class="C5" /><path d="M 759592 50110 c 0 1865 -1511 3376 -3376 3376 c -1865 0 -3376 -1511 -3376 -3376 c 0 -1865 1511 -3376 3376 -3376 c 1865 0 3376 1511 3376 3376" class="C5" /><path d="M 977191 42744 l 0 12" class="C5" /><path d="M 977191 42757 c 0 163 132 295 295 295" class="C5" /><path d="M 977486 43051 l 14437 0" class="C5" /><path d="M 977486 57169 l 14437 0" class="C5" /><path d="M 861117 42744 c -2126 2363 -8857 3990 -16511 3990 c -7653 0 -14385 -1627 -16511 -3990" class="C5" /><path d="M 828095 57476 c 2126 -2363 8857 -3990 16511 -3990 c 7653 0 14385 1627 16511 3990" class="C5" /><path d="M 977191 57476 l 0 -12" class="C5" /><path d="M 977486 57169 c -163 0 -295 132 -295 295" class="C5" /><path d="M 977191 42744 l 0 14732" class="C5" /><path d="M 937416 50110 l -8839 0" class="C5" /><path d="M 761519 50110 l -10607 0" class="C5" /><path d="M 772789 50110 c 0 -3051 -7420 -5524 -16573 -5524 c -9153 0 -16573 2473 -16573 5524 c 0 3051 7420 5524 16573 5524 c 9153 0 16573 -2473 16573 -5524" class="C5" /><path d="M 949569 50110 c 0 -3051 -7420 -5524 -16573 -5524 c -9153 0 -16573 2473 -16573 5524 c 0 3051 7420 5524 16573 5524 c 9153 0 16573 -2473 16573 -5524" class="C5" /><path d="M 991923 43051 l 0 14118" class="C5" /><path d="M 977191 57476 l -248597 0" class="C5" /><path d="M 728594 42744 l 248597 0" class="C5" /><path d="M 673972 50110 l 325399 0" class="C1" /><path d="M 697289 56248 l 294634 0" class="C5" /><path d="M 697289 43972 l 294634 0" class="C5" /><path d="M 697289 82643 l 294634 0" class="C5" /><path d="M 697289 17578 l 294634 0" class="C5" /><path d="M 991923 17578 l 0 65065" class="C5" /><path d="M 697289 17578 l 0 65065" class="C5" /></g></svg>