<?xml version='1.0' encoding='utf-8'?>
<svg xmlns="http://www.w3.org/2000/svg" width="9.6mm" height="33.8mm" viewBox="0 0 284024 1000000"><defs><style>.C1 {stroke: #ffffff; stroke-width: 7396; stroke-opacity: 1.000; fill: none; fill-opacity: 1.000;}</style></defs><g stroke-linecap="round" stroke-linejoin="round" fill-rule="evenodd"><path d="M 130022 42532 c 161 94 323 188 484 282 c 161 94 322 188 483 282" class="C1" /><path d="M 124088 998079 l -226 0" class="C1" /><path d="M 64900 7936 c -214 27 -428 53 -623 134 c -210 88 -398 239 -546 419 c -115 140 -207 299 -260 468 c -49 157 -65 323 -81 489" class="C1" /><path d="M 108727 835897 l 0 -192" class="C1" /><path d="M 174205 865993 c 0 236 98 430 223 438" class="C1" /><path d="M 125072 3923 l 0 3679" class="C1" /><path d="M 174429 127245 l -1 2 l -1 9" class="C1" /><path d="M 175127 135081 l 0 10" class="C1" /><path d="M 106882 161946 l 335 -979" class="C1" /><path d="M 108526 879767 c 244 -1726 -900 -3344 -2608 -3689" class="C1" /><path d="M 174428 872881 l 2210 -87" class="C1" /><path d="M 133578 7086 c -150 17 -299 33 -437 84 c -138 51 -266 136 -375 240 c -110 104 -201 227 -259 362 c -58 136 -82 284 -107 432" class="C1" /><path d="M 128837 31374 l -46 291" class="C1" /><path d="M 174430 864934 c -16 -2 -32 -4 -47 -9 c -19 -6 -36 -16 -52 -28 c -25 -19 -46 -42 -64 -68 c -26 -38 -43 -81 -52 -125 c -6 -30 -8 -60 -10 -90" class="C1" /><path d="M 74135 990701 c 321 8 642 15 962 41 c 592 48 1182 160 1750 339 c 390 123 769 278 1121 489 c 252 151 489 331 667 569 c 61 82 115 171 139 268 c 11 45 16 92 20 139" class="C1" /><path d="M 79255 997299 c -1 3 -2 6 -4 10 c -81 221 -150 442 -219 663" class="C1" /><path d="M 283994 974283 l -670 12775" class="C1" /><path d="M 4917 27891 l 0 944365" class="C1" /><path d="M 173283 33971 l 0 -2597" class="C1" /><path d="M 110320 31374 l 0 86896" class="C1" /><path d="M 137420 967391 l 3727 0" class="C1" /><path d="M 200209 22151 c 0 -4075 -3303 -7378 -7378 -7378" class="C1" /><path d="M 279419 12795 l 335 12775" class="C1" /><path d="M 135930 43739 l -4819 0" class="C1" /><path d="M 103413 136981 l 0 -45" class="C1" /><path d="M 130625 957057 c -27 8 -55 17 -79 25 c -147 49 -188 95 -228 141" class="C1" /><path d="M 106882 166403 l 0 -853" class="C1" /><path d="M 133129 990701 l -29622 0" class="C1" /><path d="M 107343 164710 l -461 -1235" class="C1" /><path d="M 130095 42298 c 3 -11 7 -23 35 -34 c 76 -31 329 -61 637 -92 c 307 -31 667 -61 1082 -92 c 415 -31 884 -61 1363 -92 c 479 -31 969 -61 1436 -92 c 467 -31 912 -61 1291 -92 c 379 -31 693 -61 949 -92 c 256 -31 453 -61 463 -92 c 3 -10 -14 -20 -31 -31" class="C1" /><path d="M 139284 38290 c -290 -20 -580 -40 -867 -107 c -335 -78 -666 -218 -997 -359" class="C1" /><path d="M 200209 968774 l 0 1948" class="C1" /><path d="M 176637 134269 l -2210 66" class="C1" /><path d="M 176972 872117 l -334 676" class="C1" /><path d="M 108526 144092 l -918 0" class="C1" /><path d="M 94960 987205 l -90355 0" class="C1" /><path d="M 205229 7455 l 0 -5533" class="C1" /><path d="M 195478 991300 l -34682 0" class="C1" /><path d="M 105917 863166 l -918 0" class="C1" /><path d="M 109118 863212 l 1203 0" class="C1" /><path d="M 131035 37310 c 2 -9 4 -18 21 -27 c 51 -28 242 -57 434 -85" class="C1" /><path d="M 129966 962323 l 3727 -466" class="C1" /><path d="M 204388 997931 l -45074 0" class="C1" /><path d="M 124231 992545 c -0 -611 -826 -1107 -1844 -1107" class="C1" /><path d="M 138416 967511 l 1351 0" class="C1" /><path d="M 136375 42370 c 159 -93 318 -186 478 -280 c 160 -93 319 -186 479 -280" class="C1" /><path d="M 107217 838858 l -335 -808" class="C1" /><path d="M 130993 40260 c -160 94 -321 187 -481 281 c -161 94 -322 187 -483 281" class="C1" /><path d="M 132399 8204 c -4 67 -7 135 -18 344 c -11 211 -30 566 -52 993 c -22 427 -48 925 -79 1500 c -13 255 -28 526 -42 796" class="C1" /><path d="M 151631 991672 l 11 -213" class="C1" /><path d="M 130620 956949 c -9 -14 -18 -27 33 -42 c 60 -17 203 -35 390 -52 c 184 -17 411 -33 678 -50 c 265 -17 569 -34 892 -52 c 312 -17 643 -34 971 -51 c 329 -17 657 -34 967 -51 c 299 -17 581 -34 817 -52 c 201 -15 367 -29 534 -43" class="C1" /><path d="M 157948 9299 c 489 0 958 -194 1304 -540 c 346 -346 540 -815 540 -1304" class="C1" /><path d="M 137357 40083 c -162 -94 -324 -188 -486 -282 c -161 -94 -323 -188 -484 -282" class="C1" /><path d="M 112725 31374 l 0 937400" class="C1" /><path d="M 194795 8561 l 7667 -5902" class="C1" /><path d="M 699 12942 l 0 0" class="C1" /><path d="M 137120 959955 l 234 -136" class="C1" /><path d="M 127620 967511 l 1351 0" class="C1" /><path d="M 70615 992211 c 0 0 0 0 0 0 c 62 -0 -46 -0 -182 -0 c -136 0 -301 0 -517 0 c -216 0 -484 0 -773 0 c -289 0 -601 0 -912 0" class="C1" /><path d="M 176972 127625 l 0 595" class="C1" /><path d="M 105917 124070 c 1709 -345 2853 -1963 2608 -3689" class="C1" /><path d="M 150808 9235 c -22 -417 -44 -834 -57 -1078 c -13 -247 -17 -315 -20 -383" class="C1" /><path d="M 131214 9447 c 151 -14 303 -28 437 -84 c 120 -49 226 -131 333 -213" class="C1" /><path d="M 136375 37943 c 159 -93 318 -186 478 -280 c 160 -93 319 -186 479 -280" class="C1" /><path d="M 279754 25570 l 3289 0" class="C1" /><path d="M 130004 42325 l 0 307" class="C1" /><path d="M 108727 159481 l 0 -22" class="C1" /><path d="M 108727 159481 l 0 187" class="C1" /><path d="M 80097 2254 l 0 5348" class="C1" /><path d="M 109426 835679 c 124 -5 223 -123 223 -266" class="C1" /><path d="M 107303 835827 l 0 730" class="C1" /><path d="M 106882 160333 l 0 -387" class="C1" /><path d="M 4383 9447 c -1962 0 -3581 1536 -3684 3496" class="C1" /><path d="M 136302 957515 l -2608 0" class="C1" /><path d="M 139767 31452 l -12147 0" class="C1" /><path d="M 137349 959819 c 1 1 1 1 2 2 c 20 23 -162 46 -343 68" class="C1" /><path d="M 138696 968561 l 95 -631" class="C1" /><path d="M 67177 31374 l 0 -1948" class="C1" /><path d="M 86347 6776 c 383 299 777 575 1178 826" class="C1" /><path d="M 133693 961857 l 5591 0" class="C1" /><path d="M 699 12942 l 2954 0" class="C1" /><path d="M 128421 967953 l 1653 0" class="C1" /><path d="M 174205 864401 c 0 -127 -103 -231 -231 -231" class="C1" /><path d="M 174581 33971 l 0 7378" class="C1" /><path d="M 136471 956640 c 36 30 73 59 88 89 c 30 60 -26 119 -122 176 c -104 61 -255 119 -453 176 c -198 57 -443 112 -717 167 c -313 63 -665 127 -1039 186 c -175 28 -355 54 -535 81" class="C1" /><path d="M 174581 966177 l -1298 0" class="C1" /><path d="M 126692 967783 c -31 9 -62 17 -90 25 c -28 8 -54 16 -75 22 c -21 7 -38 12 -51 17 c -12 5 -20 8 -21 10 c -1 1 3 2 6 2" class="C1" /><path d="M 278528 990553 c 161 0 322 0 461 -0 c 139 0 256 0 354 0 c 98 0 176 0 222 0 c 46 -0 61 -0 76 -0" class="C1" /><path d="M 107217 838858 l 2210 -8" class="C1" /><path d="M 109426 835872 c 124 -9 223 -212 223 -459" class="C1" /><path d="M 130004 959360 l 0 184" class="C1" /><path d="M 184422 987057 l -51 692 l -116 660 l -176 604 l -230 527 l -275 431 l -311 319 l -335 196 l -348 66" class="C1" /><path d="M 99220 125426 l 0 -4367" class="C1" /><path d="M 213409 7789 c 36 0 72 0 181 -0 c 110 0 293 0 516 0 c 223 -0 485 -0 773 -0 c 287 0 599 0 912 0" class="C1" /><path d="M 150640 988311 c -3 78 -7 157 -10 234 c -17 400 -32 777 -48 1137 c -24 578 -48 1111 -67 1572 c -23 546 -42 991 -52 1251 c -10 248 -14 328 -18 409" class="C1" /><path d="M 110320 881878 l 0 86896" class="C1" /><path d="M 128971 967391 l 0 213" class="C1" /><path d="M 137319 961081 c 16 10 32 20 31 31 c -3 31 -160 61 -463 92 c -43 4 -88 9 -134 13" class="C1" /><path d="M 200209 974283 l 80496 0" class="C1" /><path d="M 136376 957841 c 156 -93 311 -186 466 -279 c 106 -63 212 -127 317 -190" class="C1" /><path d="M 110571 968774 l 0 -937400" class="C1" /><path d="M 202463 2659 l -40825 0" class="C1" /><path d="M 174428 135107 l 700 -27" class="C1" /><path d="M 139284 961857 c 468 52 935 103 1394 269 c 157 57 313 127 469 197" class="C1" /><path d="M 182140 31374 l 0 937400" class="C1" /><path d="M 140852 31665 l -76 -291" class="C1" /><path d="M 109649 168024 c 0 127 103 231 231 231" class="C1" /><path d="M 108526 144092 c -69 723 279 1423 897 1805" class="C1" /><path d="M 176511 130314 l 461 1202" class="C1" /><path d="M 71174 9447 c -27 -214 -53 -428 -134 -623 c -88 -210 -239 -398 -419 -546 c -140 -115 -299 -207 -468 -260 c -157 -49 -323 -65 -489 -81" class="C1" /><path d="M 175127 867050 l 0 -599" class="C1" /><path d="M 160796 991300 l 0 5884" class="C1" /><path d="M 138706 967875 c -66 -28 -133 -56 -180 -83 c -48 -27 -76 -53 -85 -75 c -9 -21 -1 -39 27 -52 c 26 -12 70 -20 129 -22 c 57 -2 127 1 208 9 c 80 8 169 21 263 37 c 96 17 197 37 298 60 c 105 24 210 50 307 77 c 55 15 108 31 160 47" class="C1" /><path d="M 138976 31665 l -49 -271" class="C1" /><path d="M 109426 167368 l 0 -2633" class="C1" /><path d="M 176637 134269 l 334 200" class="C1" /><path d="M 139895 31665 l -44 -228" class="C1" /><path d="M 175127 127271 l 0 151" class="C1" /><path d="M 174428 134335 c -124 3 -223 65 -223 141" class="C1" /><path d="M 130567 968710 c -22 8 -45 17 -71 24 c -27 7 -58 14 -90 20 c -32 6 -65 10 -98 14 c -33 3 -65 5 -95 6 c -7 0 -13 0 -20 0" class="C1" /><path d="M 204388 992398 c 4 -42 7 -85 17 -126 c 19 -84 62 -163 111 -236 c 90 -133 202 -247 324 -349 c 234 -197 503 -351 781 -480 c 428 -198 879 -337 1338 -439 c 562 -125 1137 -194 1712 -210 c 125 -3 251 -4 376 -5" class="C1" /><path d="M 130990 40143 c -1 -0 -2 -1 -3 -1 c -113 -31 -41 -62 70 -92 c 110 -31 258 -61 471 -92 c 213 -31 490 -61 801 -92 c 311 -31 655 -61 1009 -92 c 354 -31 719 -61 1063 -92 c 344 -31 668 -61 956 -92 c 287 -31 538 -61 702 -92 c 143 -27 221 -54 299 -80" class="C1" /><path d="M 173283 135746 c 0 127 103 231 231 231" class="C1" /><path d="M 109426 838850 l 0 -2978" class="C1" /><path d="M 141148 37825 l -1864 466" class="C1" /><path d="M 181468 985374 l 0 1683" class="C1" /><path d="M 130993 38785 c -160 94 -321 187 -481 281 c -161 94 -322 187 -483 281" class="C1" /><path d="M 108727 167340 l 700 28" class="C1" /><path d="M 176051 866640 c -0 -2 -1 -4 1 -9 c 2 -6 8 -16 21 -30 c 9 -10 22 -21 39 -31 c 17 -11 39 -21 63 -30 c 23 -8 49 -15 75 -18 c 13 -1 27 -2 40 -2" class="C1" /><path d="M 128539 968618 c -17 8 -34 17 -44 24 c -10 7 -14 14 -13 20 c 1 6 7 11 20 14 c 13 3 32 5 50 6" class="C1" /><path d="M 74555 14773 c -4075 0 -7378 3303 -7378 7378" class="C1" /><path d="M 130095 39346 c 3 -11 7 -23 35 -34 c 76 -31 329 -61 637 -92 c 307 -31 667 -61 1082 -92 c 415 -31 884 -61 1363 -92 c 479 -31 969 -61 1436 -92 c 467 -31 912 -61 1291 -92 c 379 -31 693 -61 949 -92 c 256 -31 453 -61 463 -92 c 3 -10 -14 -20 -31 -31" class="C1" /><path d="M 106882 837015 l 0 -555" class="C1" /><path d="M 137382 961758 c -14 31 -27 61 -281 92 c -20 2 -42 5 -64 7" class="C1" /><path d="M 109879 168255 l 461 0" class="C1" /><path d="M 108727 835897 l 0 500" class="C1" /><path d="M 173975 864171 l -461 0" class="C1" /><path d="M 130475 967875 c 58 -28 115 -56 190 -83 c 76 -27 171 -53 272 -75 c 99 -21 206 -39 314 -52 c 104 -12 210 -20 311 -22 c 97 -2 190 1 273 10 c 82 8 155 21 215 37 c 61 17 108 37 140 60 c 33 24 51 50 47 77 c -2 15 -10 31 -19 47" class="C1" /><path d="M 3653 12942 l 91306 0" class="C1" /><path d="M 174205 873319 c 4 -44 8 -88 21 -130 c 13 -41 35 -81 64 -114 c 19 -22 41 -41 68 -56 c 16 -8 33 -15 51 -18 c 7 -1 14 -2 21 -2" class="C1" /><path d="M 131205 9573 l 9 -126" class="C1" /><path d="M 172427 986156 l 0 -782" class="C1" /><path d="M 283994 974283 c 30 -566 -174 -1119 -564 -1530 c -390 -411 -932 -644 -1498 -644" class="C1" /><path d="M 699 12942 l -669 12775" class="C1" /><path d="M 174581 13991 c 0 -1190 -965 -2154 -2154 -2154" class="C1" /><path d="M 176637 865044 l -2210 -87" class="C1" /><path d="M 130073 967953 c 30 -1 61 -2 93 -4 c 32 -3 66 -7 98 -12 c 32 -5 64 -12 93 -19 c 29 -7 55 -15 76 -23 c 16 -6 29 -13 41 -19" class="C1" /><path d="M 176593 865020 l -2164 -85" class="C1" /><path d="M 212850 990553 c 27 214 53 428 134 623 c 88 210 239 398 419 546 c 140 115 299 207 468 261 c 157 49 323 65 489 81" class="C1" /><path d="M 197676 993224 l 0 -826" class="C1" /><path d="M 107608 881878 l 0 -2111" class="C1" /><path d="M 126075 990701 c -1019 0 -1844 826 -1844 1844" class="C1" /><path d="M 106882 166973 c 0 84 183 162 421 178" class="C1" /><path d="M 137330 961765 l 1381 0" class="C1" /><path d="M 176551 866448 c 49 -5 97 -11 142 -22 c 44 -11 86 -27 122 -46 c 36 -19 67 -42 92 -66 c 26 -26 45 -54 55 -82 c 6 -18 8 -37 10 -55" class="C1" /><path d="M 129966 36733 l 0 -5068" class="C1" /><path d="M 174205 126945 c 0 167 98 304 223 310" class="C1" /><path d="M 135904 956557 c 68 0 135 0 196 0 c 152 0 265 0 291 0 c 12 0 6 0 -1 0" class="C1" /><path d="M 130022 38105 c 161 94 323 188 484 282 c 161 94 322 188 483 282" class="C1" /><path d="M 184422 987057 l -2954 0" class="C1" /><path d="M 159314 997931 l -220 0" class="C1" /><path d="M 103413 876078 l 0 -1356" class="C1" /><path d="M 205229 7455 l -461 0" class="C1" /><path d="M 110320 144092 l -103 734 l -294 622 l -440 416 l -519 146 l -519 -146 l -440 -416 l -294 -622 l -103 -734" class="C1" /><path d="M 128421 967953 c 30 155 60 309 87 464 c 21 119 41 238 61 357" class="C1" /><path d="M 110341 168255 l 0 -9591" class="C1" /><path d="M 64900 7936 c 36 0 72 0 181 0 c 110 0 293 0 516 0 c 223 0 485 0 773 0 c 287 0 599 0 911 0" class="C1" /><path d="M 127620 967603 l 3037 0" class="C1" /><path d="M 150837 8204 c -24 -148 -49 -297 -107 -432 c -58 -136 -150 -258 -259 -362 c -110 -104 -237 -189 -375 -240 c -138 -51 -288 -67 -437 -84" class="C1" /><path d="M 133215 990765 c 22 417 44 834 57 1078 c 13 247 17 315 20 383" class="C1" /><path d="M 137241 957374 l -752 -752" class="C1" /><path d="M 105917 136981 l -918 0" class="C1" /><path d="M 110320 136936 l -1203 0" class="C1" /><path d="M 79636 2069 l 45074 0" class="C1" /><path d="M 88545 8700 c -25 155 -50 311 -79 431 c -29 120 -63 204 -97 256 c -25 38 -51 59 -77 61 c -1 0 -2 0 -3 0" class="C1" /><path d="M 137379 960106 c -159 -93 -318 -186 -478 -279 c -159 -93 -319 -186 -478 -279" class="C1" /><path d="M 158951 996077 c 0 4 0 9 0 13 c 2 615 72 1228 142 1841" class="C1" /><path d="M 180517 12795 l 0 -3496" class="C1" /><path d="M 130867 958706 c -34 3 -68 6 -100 9 c -351 31 -553 61 -637 92 c -56 21 -59 41 -63 62" class="C1" /><path d="M 106882 160333 l 0 1613" class="C1" /><path d="M 130867 961657 c -34 3 -68 6 -100 9 c -348 31 -492 62 -637 92" class="C1" /><path d="M 213409 7789 c -214 27 -428 53 -623 134 c -210 88 -398 239 -546 419 c -115 140 -207 299 -260 468 c -49 157 -65 323 -81 489" class="C1" /><path d="M 176972 133005 l -334 955" class="C1" /><path d="M 137420 962323 c 246 -108 493 -215 742 -289 c 371 -110 746 -143 1122 -177" class="C1" /><path d="M 106882 841641 l 0 -1421" class="C1" /><path d="M 219683 9299 c -27 -214 -53 -428 -134 -623 c -88 -210 -239 -398 -419 -546 c -140 -115 -299 -207 -468 -260 c -157 -49 -323 -65 -489 -81" class="C1" /><path d="M 140231 967953 l 695 0" class="C1" /><path d="M 124710 2069 l 221 0" class="C1" /><path d="M 173283 968774 l 0 -2597" class="C1" /><path d="M 131111 956409 l 5165 0" class="C1" /><path d="M 89228 990701 l 0 738" class="C1" /><path d="M 174428 134335 c 4 -103 4 -206 0 -310" class="C1" /><path d="M 130004 37898 l 0 184" class="C1" /><path d="M 110341 843368 l 0 -8709" class="C1" /><path d="M 136421 957886 c -25 24 -51 47 -129 71 c -81 25 -219 51 -388 75 c -85 12 -178 24 -280 36 c -251 30 -555 61 -886 92 c -331 31 -688 62 -1045 92 c -357 31 -714 61 -1045 92 c -331 31 -636 61 -886 92 c -250 31 -445 61 -592 92 c -147 31 -246 61 -208 92 c 13 11 42 21 72 32" class="C1" /><path d="M 130669 961419 c -51 30 -103 60 -154 90 c -152 89 -304 177 -457 265" class="C1" /><path d="M 130004 40849 l 0 184" class="C1" /><path d="M 3319 25717 l 335 -12775" class="C1" /><path d="M 126239 36733 l 0 -5068" class="C1" /><path d="M 136414 959549 c -40 29 -79 58 -198 88 c -124 31 -336 61 -592 92 c -256 31 -557 61 -886 92 c -329 31 -687 62 -1045 92 c -358 31 -716 61 -1045 92 c -328 31 -627 61 -886 92 c -259 31 -478 62 -592 92 c -74 20 -104 40 -134 59" class="C1" /><path d="M 130067 42509 c -0 -21 -1 -41 63 -62 c 95 -31 335 -61 637 -92 c 302 -31 666 -61 1082 -92 c 416 -31 884 -61 1363 -92 c 479 -31 969 -61 1436 -92 c 467 -31 912 -61 1291 -92 c 379 -31 693 -61 949 -92 c 256 -31 453 -61 463 -92 c 3 -10 -14 -20 -31 -31" class="C1" /><path d="M 204768 2701 l -6175 4754" class="C1" /><path d="M 109118 125426 l -9898 0" class="C1" /><path d="M 67177 970722 l 0 -1948" class="C1" /><path d="M 78794 992545 l 0 5533" class="C1" /><path d="M 176551 128037 l -1424 -161" class="C1" /><path d="M 130560 968733 l 71 41" class="C1" /><path d="M 137061 42905 c -5 10 -9 20 -51 30 c -70 17 -243 33 -461 50 c -218 17 -480 34 -785 51 c -295 17 -630 34 -983 51 c -353 17 -725 33 -1093 50 c -358 17 -713 35 -1046 52 c -330 17 -637 33 -900 50 c -258 17 -472 35 -643 52 c -168 17 -295 33 -324 50 c -17 10 -2 20 14 30" class="C1" /><path d="M 127535 968710 c -32 8 -64 17 -96 24 c -32 7 -64 14 -94 20 c -30 6 -58 10 -83 14 c -25 3 -46 5 -61 6 c -4 0 -7 0 -10 0" class="C1" /><path d="M 137382 961266 l 0 -184" class="C1" /><path d="M 108526 859477 l -918 0" class="C1" /><path d="M 102495 136981 l 0 -45" class="C1" /><path d="M 89228 991439 c -1100 289 -2471 689 -3798 1107" class="C1" /><path d="M 176551 866448 l 0 -537" class="C1" /><path d="M 176972 129386 l -461 928" class="C1" /><path d="M 3653 12942 l 51 -692 l 116 -660 l 176 -604 l 230 -527 l 275 -431 l 311 -319 l 335 -196 l 348 -66" class="C1" /><path d="M 106882 166403 c 0 186 183 348 421 373" class="C1" /><path d="M 176972 865758 l 0 418" class="C1" /><path d="M 109879 834659 l 0 8709" class="C1" /><path d="M 136492 968710 c -30 -13 -59 -25 -92 -38 c -73 -27 -164 -53 -263 -75 c -97 -21 -202 -39 -310 -52 c -104 -12 -210 -20 -313 -22 c -99 -2 -194 1 -280 10 c -85 8 -162 21 -225 37 c -65 17 -117 38 -154 60 c -38 24 -60 50 -63 77 c -0 0 -0 1 -0 1" class="C1" /><path d="M 139678 968710 c -47 -13 -93 -25 -141 -38 c -106 -27 -217 -53 -325 -75 c -106 -21 -209 -39 -304 -52 c -91 -12 -174 -20 -242 -22 c -66 -2 -117 2 -159 10 c -41 7 -72 19 -68 37 c 1 4 3 8 6 13" class="C1" /><path d="M 174428 870263 c -124 2 -223 38 -223 82" class="C1" /><path d="M 157948 9299 c 489 0 958 -194 1304 -540 c 346 -346 540 -815 540 -1304" class="C1" /><path d="M 136421 960837 c -25 24 -51 47 -129 71 c -81 25 -219 51 -388 75 c -85 12 -178 24 -280 36 c -251 30 -555 61 -886 92 c -331 31 -688 62 -1045 92 c -357 31 -714 61 -1045 92 c -331 31 -636 62 -886 92 c -250 31 -445 61 -592 92 c -147 31 -246 61 -208 92 c 13 11 42 21 72 32" class="C1" /><path d="M 137420 37825 l -797 100" class="C1" /><path d="M 204768 7455 c 0 489 534 958 1486 1304 c 951 346 2241 540 3587 540" class="C1" /><path d="M 132235 968717 c -180 16 -361 33 -473 49 c -17 2 -32 5 -47 7" class="C1" /><path d="M 176540 866505 c 19 -0 38 -0 57 -2 c 53 -4 103 -18 149 -37 c 49 -20 93 -45 130 -80 c 25 -24 47 -52 64 -84 c 17 -31 31 -65 30 -100 c -0 -8 -1 -17 -2 -25" class="C1" /><path d="M 105917 863166 c 1709 -345 2853 -1963 2608 -3689" class="C1" /><path d="M 107303 166776 l 1424 153" class="C1" /><path d="M 131035 38786 c 3 -9 6 -18 21 -27 c 51 -31 243 -61 471 -92 c 229 -31 494 -61 801 -92 c 307 -31 654 -61 1009 -92 c 355 -31 718 -61 1063 -92 c 345 -31 673 -61 956 -92 c 282 -31 519 -61 702 -92 c 184 -31 315 -61 342 -92 c 21 -23 -16 -46 -52 -68" class="C1" /><path d="M 175127 866450 l -700 -19" class="C1" /><path d="M 131035 40262 c 3 -9 6 -18 21 -27 c 51 -31 243 -61 471 -92 c 229 -31 494 -61 801 -92 c 307 -31 654 -61 1009 -92 c 355 -31 718 -61 1063 -92 c 345 -31 673 -61 956 -92 c 282 -31 519 -61 702 -92 c 184 -31 315 -61 342 -92 c 21 -23 -16 -46 -52 -68" class="C1" /><path d="M 134792 968710 c -4 8 -9 17 -20 24 c -11 7 -29 14 -51 20 c -22 6 -47 10 -76 14 c -29 3 -60 5 -93 6 c -7 0 -15 0 -22 0" class="C1" /><path d="M 132392 8328 l 0 0" class="C1" /><path d="M 195478 991300 c 25 -155 50 -311 79 -431 c 29 -120 63 -204 97 -256 c 25 -38 51 -59 77 -61 c 1 -0 2 -0 3 -0" class="C1" /><path d="M 137382 41772 l 0 -184" class="C1" /><path d="M 203927 992398 l -6250 0" class="C1" /><path d="M 106882 165550 l 461 -840" class="C1" /><path d="M 130778 960373 c -4 0 -8 1 -11 1 c -360 31 -555 62 -637 92 c -55 20 -59 41 -63 62" class="C1" /><path d="M 172848 987012 l -421 0" class="C1" /><path d="M 94960 13991 l 0 -2154" class="C1" /><path d="M 174428 127396 l 0 2901" class="C1" /><path d="M 175127 127271 l -698 -27" class="C1" /><path d="M 131111 956409 l -499 499" class="C1" /><path d="M 126394 967953 c 41 155 82 310 123 464 c 31 119 62 238 93 357" class="C1" /><path d="M 140926 967953 c 3 -1 7 -2 3 -4 c -3 -3 -14 -7 -28 -12 c -15 -5 -34 -12 -57 -19 c -23 -7 -50 -15 -79 -23 c -22 -6 -46 -13 -69 -19" class="C1" /><path d="M 209888 9299 c -321 -8 -642 -15 -962 -41 c -592 -48 -1182 -160 -1750 -339 c -390 -123 -769 -278 -1121 -489 c -252 -151 -489 -331 -667 -569 c -61 -82 -115 -171 -139 -268 c -11 -45 -16 -92 -20 -139" class="C1" /><path d="M 140030 968774 c -18 -1 -37 -2 -60 -4 c -23 -3 -52 -7 -82 -12 c -30 -5 -62 -11 -94 -19 c -32 -7 -65 -15 -96 -23 c -7 -2 -14 -4 -20 -6" class="C1" /><path d="M 133578 7086 l -0 0" class="C1" /><path d="M 172427 11837 l 0 2154" class="C1" /><path d="M 81561 997341 l 40825 0" class="C1" /><path d="M 1651 987205 c 103 1960 1722 3496 3684 3496" class="C1" /><path d="M 109426 160567 c -4 114 -4 227 0 341" class="C1" /><path d="M 79636 2069 l 0 5533" class="C1" /><path d="M 204991 2028 c -750 122 -1629 341 -2528 631" class="C1" /><path d="M 106882 838050 l 0 -1035" class="C1" /><path d="M 176551 866448 c -83 3 -167 7 -251 11" class="C1" /><path d="M 109426 159453 l -700 28" class="C1" /><path d="M 151598 990762 c 0 -5 1 -10 1 -15 c 19 -366 52 -994 86 -1641 c 14 -263 28 -530 42 -796" class="C1" /><path d="M 85431 992545 l -6175 0" class="C1" /><path d="M 109426 835872 l -700 26" class="C1" /><path d="M 174205 126616 l 0 9130" class="C1" /><path d="M 4605 987205 l -2954 0" class="C1" /><path d="M 130669 958468 c -51 30 -103 60 -154 90 c -161 94 -323 188 -484 281" class="C1" /><path d="M 126534 31665 l 76 -291" class="C1" /><path d="M 130672 956991 c -52 30 -104 61 -156 91 c -28 16 -55 32 -83 48" class="C1" /><path d="M 137382 959790 l 0 -184" class="C1" /><path d="M 81269 2816 l 5079 3961" class="C1" /><path d="M 94428 127515 l 0 7333" class="C1" /><path d="M 176972 134469 l 0 268" class="C1" /><path d="M 176972 867759 l 0 1242" class="C1" /><path d="M 129966 967391 l 7454 0" class="C1" /><path d="M 132238 968710 c -1 -13 -3 -25 -9 -37 c -13 -27 -48 -53 -100 -75 c -51 -21 -117 -39 -198 -52 c -77 -12 -167 -20 -264 -22 c -93 -2 -193 1 -294 9 c -100 8 -201 21 -297 37 c -99 17 -192 38 -277 60 c -88 24 -166 49 -230 77 c -1 0 -2 1 -3 1" class="C1" /><path d="M 109426 838850 c -3 153 -3 306 0 459" class="C1" /><path d="M 107217 842553 l 2210 73" class="C1" /><path d="M 176972 866176 l 0 1583" class="C1" /><path d="M 128103 38290 c -468 -52 -935 -103 -1394 -269 c -157 -57 -313 -127 -469 -197" class="C1" /><path d="M 126643 967783 c 103 -28 207 -56 302 -83 c 98 -27 187 -53 263 -75 c 75 -21 137 -39 181 -52 c 43 -12 70 -20 79 -22 c 9 -2 1 1 -23 10 c -24 8 -63 21 -116 37 c -54 17 -122 37 -199 60 c -81 24 -172 50 -270 78 c -55 15 -112 31 -169 47" class="C1" /><path d="M 192831 22151 c 0 2037 -1652 3689 -3689 3689 c -2037 0 -3689 -1652 -3689 -3689 c 0 -2037 1652 -3689 3689 -3689 c 2037 0 3689 1652 3689 3689" class="C1" /><path d="M 151625 991796 l -0 0" class="C1" /><path d="M 130992 957298 c -160 94 -321 187 -481 281 c -161 94 -322 187 -483 281" class="C1" /><path d="M 174428 134335 l 0 772" class="C1" /><path d="M 173513 135977 l 461 0" class="C1" /><path d="M 135904 956557 c -90 12 -180 24 -280 36 c -247 30 -554 61 -886 92 c -332 31 -688 62 -1045 92 c -357 31 -714 62 -1045 92 c -331 31 -636 61 -886 92 c -250 31 -445 61 -592 92 c -147 31 -246 61 -208 92 c 13 11 42 21 72 32" class="C1" /><path d="M 79636 2069 c 8 5 16 9 43 22 c 26 13 71 34 126 58 c 58 25 127 53 207 79 c 27 9 56 17 85 26" class="C1" /><path d="M 109426 160567 c 124 -2 223 -45 223 -98" class="C1" /><path d="M 176290 866518 c 21 -1 42 -2 63 -3 c 63 -3 125 -5 188 -8" class="C1" /><path d="M 99220 879088 l 546 0" class="C1" /><path d="M 140149 37198 l 999 -466" class="C1" /><path d="M 67177 974430 l -62907 0" class="C1" /><path d="M 30 25717 l 3289 0" class="C1" /><path d="M 110320 844251 l 0 11805" class="C1" /><path d="M 151736 991248 c 1 -3 1 -5 2 -8 c 37 -144 144 -260 259 -362 c 115 -102 238 -189 375 -240 c 137 -52 287 -68 437 -84" class="C1" /><path d="M 133186 991796 c -3 -62 -6 -123 -18 -344 c -12 -223 -32 -608 -52 -993" class="C1" /><path d="M 176551 128037 l 0 -541" class="C1" /><path d="M 192831 14773 l -118276 0" class="C1" /><path d="M 106882 836460 l 0 -568" class="C1" /><path d="M 175127 866108 l 0 -190" class="C1" /><path d="M 127620 967511 l -180 48" class="C1" /><path d="M 137382 960282 c -55 31 -111 61 -281 92 c -170 31 -454 62 -800 92 c -345 31 -752 61 -1197 92 c -445 31 -929 61 -1412 92 c -483 31 -965 62 -1412 92 c -447 31 -860 61 -1197 92 c -337 31 -599 61 -800 92 c -200 31 -339 62 -281 92 c 16 8 45 16 74 24" class="C1" /><path d="M 283324 987057 l 670 -12775" class="C1" /><path d="M 173513 873762 l 461 0" class="C1" /><path d="M 102394 990701 l 1112 0" class="C1" /><path d="M 279106 27744 l 0 944365" class="C1" /><path d="M 67177 27891 l -62827 0" class="C1" /><path d="M 174581 41348 l -1298 0" class="C1" /><path d="M 132461 967953 c 7 155 15 310 19 464 c 3 119 4 238 5 357" class="C1" /><path d="M 99717 11837 l 51 -246 l 176 -604 l 230 -527 l 275 -431 l 311 -319 l 335 -196 l 348 -66" class="C1" /><path d="M 150446 992914 c 150 -17 299 -33 437 -84 c 138 -51 266 -136 375 -240 c 110 -104 201 -227 259 -362 c 58 -136 82 -284 107 -432" class="C1" /><path d="M 133693 37198 l -5591 0" class="C1" /><path d="M 138818 968774 c 21 -1 42 -2 57 -4 c 15 -3 24 -7 27 -12 c 4 -5 2 -11 -5 -19 c -7 -7 -20 -15 -37 -23 c -4 -2 -8 -4 -12 -6" class="C1" /><path d="M 184422 987057 l 44 -1683" class="C1" /><path d="M 140992 967953 c -41 155 -82 310 -123 464 c -31 119 -62 238 -93 357" class="C1" /><path d="M 160796 997184 l 41959 0" class="C1" /><path d="M 134365 992914 l 16080 0" class="C1" /><path d="M 139851 31437 c 32 -8 64 -17 96 -24 c 32 -8 64 -14 94 -20 c 30 -6 58 -10 83 -14 c 25 -3 46 -5 61 -6 c 4 -0 7 -0 10 -0" class="C1" /><path d="M 102495 863166 l 2504 0" class="C1" /><path d="M 106882 838050 l 0 2170" class="C1" /><path d="M 283994 974283 l 0 0" class="C1" /><path d="M 122386 997341 c 581 464 1127 738 1476 738" class="C1" /><path d="M 174428 135107 c -124 6 -223 143 -223 310" class="C1" /><path d="M 183471 12795 l 52 1979" class="C1" /><path d="M 109426 843231 l 0 -338" class="C1" /><path d="M 139284 961857 l 865 0" class="C1" /><path d="M 140713 968774 c 30 -119 61 -238 92 -357 c 40 -155 81 -309 121 -464" class="C1" /><path d="M 109118 863212 l -9898 0" class="C1" /><path d="M 136407 956540 l -132 -132" class="C1" /><path d="M 128540 31437 l -22 168" class="C1" /><path d="M 110320 144092 l 0 14571" class="C1" /><path d="M 106882 842901 l 335 -81" class="C1" /><path d="M 150446 992914 l 0 0" class="C1" /><path d="M 139943 967651 l -177 -47" class="C1" /><path d="M 128971 31452 l 0 213" class="C1" /><path d="M 123228 8700 c 1019 0 1844 -491 1844 -1097" class="C1" /><path d="M 130023 959567 c 161 94 323 188 484 281 c 161 94 322 188 483 281" class="C1" /><path d="M 194795 8561 c 1100 -289 2471 -689 3798 -1107" class="C1" /><path d="M 102495 125426 l 0 -1356" class="C1" /><path d="M 127709 968710 c 47 -13 93 -25 141 -38 c 106 -27 219 -54 325 -75 c 86 -17 167 -30 249 -43" class="C1" /><path d="M 176551 867229 l -1424 -179" class="C1" /><path d="M 173283 13991 c 0 -309 -166 -594 -435 -745" class="C1" /><path d="M 175127 135081 l 0 -130" class="C1" /><path d="M 108526 118270 l -918 0" class="C1" /><path d="M 136414 958073 c -40 29 -79 58 -198 88 c -124 31 -336 61 -592 92 c -256 31 -557 62 -886 92 c -329 31 -687 61 -1045 92 c -358 31 -716 61 -1045 92 c -328 31 -627 61 -886 92 c -259 31 -478 62 -592 92 c -74 20 -104 40 -134 59" class="C1" /><path d="M 95301 861578 l 0 -723008" class="C1" /><path d="M 106882 841641 l 0 1260" class="C1" /><path d="M 131048 11837 c 10 -143 20 -285 29 -421 c 25 -360 47 -675 67 -958 c 23 -336 43 -626 52 -762 c 4 -64 7 -93 9 -123" class="C1" /><path d="M 109426 160908 l -2210 60" class="C1" /><path d="M 136489 956622 l -82 -82" class="C1" /><path d="M 140231 967953 c -37 155 -73 310 -111 464 c -29 119 -60 238 -90 357" class="C1" /><path d="M 140149 38290 l 999 -466" class="C1" /><path d="M 107608 879767 c 244 -1726 -900 -3344 -2608 -3689" class="C1" /><path d="M 176741 867302 l 0 -883" class="C1" /><path d="M 204768 7455 l 0 -4754" class="C1" /><path d="M 175127 127876 l 0 -454" class="C1" /><path d="M 174581 968774 l 0 -2597" class="C1" /><path d="M 136376 960792 c 155 -93 311 -186 466 -279 c 155 -93 310 -186 464 -279" class="C1" /><path d="M 137382 958806 l 0 -184" class="C1" /><path d="M 130130 957515 c 127 -16 254 -32 534 -48 c 13 -1 27 -2 41 -2" class="C1" /><path d="M 151807 988311 c -11 219 -23 438 -34 648 c -30 582 -57 1097 -79 1501 c -21 404 -37 698 -52 991" class="C1" /><path d="M 124088 998079 c 71 -610 141 -1220 143 -1832 c 0 -4 0 -9 0 -13" class="C1" /><path d="M 130992 958773 c -160 94 -321 187 -481 281 c -161 94 -322 187 -483 281" class="C1" /><path d="M 80097 7602 l 6250 0" class="C1" /><path d="M 97724 858844 c -2118 1458 -3358 3885 -3296 6456" class="C1" /><path d="M 138689 967953 c 22 -1 45 -2 61 -4 c 16 -3 27 -7 32 -12 c 5 -5 5 -12 -0 -19 c -5 -7 -16 -15 -32 -23 c -12 -6 -28 -13 -44 -19" class="C1" /><path d="M 126674 31374 l -75 291" class="C1" /><path d="M 109426 835677 l -699 26" class="C1" /><path d="M 159793 7455 c 0 611 826 1107 1844 1107" class="C1" /><path d="M 172427 988311 c 1190 0 2154 -965 2154 -2154" class="C1" /><path d="M 130067 41034 c -0 -21 -1 -41 63 -62 c 95 -31 335 -61 637 -92 c 302 -31 666 -61 1082 -92 c 416 -31 884 -61 1363 -92 c 479 -31 969 -61 1436 -92 c 467 -31 912 -61 1291 -92 c 379 -31 693 -61 949 -92 c 256 -31 453 -61 463 -92 c 3 -10 -14 -20 -31 -31" class="C1" /><path d="M 124231 992545 l 0 3689" class="C1" /><path d="M 181468 987057 l -7084 0" class="C1" /><path d="M 176972 128446 l 0 940" class="C1" /><path d="M 279754 25570 l -10 418 l -52 405 l -92 376 l -128 331 l -159 273 l -183 203 l -200 125 l -208 42" class="C1" /><path d="M 128160 31383 c 2 2 4 5 6 7 c 9 16 -25 20 -67 22 c -41 1 -90 -1 -158 -10 c -51 -7 -113 -18 -175 -29" class="C1" /><path d="M 109423 854250 c -618 382 -966 1082 -897 1805" class="C1" /><path d="M 138416 31665 l 0 -213" class="C1" /><path d="M 102556 9447 c -195 -0 -390 -0 -576 -0 c -185 0 -361 0 -537 0" class="C1" /><path d="M 139284 38290 l -2421 0" class="C1" /><path d="M 87526 7602 c 166 108 332 217 487 335 c 158 121 305 253 416 406 c 43 59 80 121 98 187 c 15 55 17 112 18 169" class="C1" /><path d="M 129966 962323 l 0 5068" class="C1" /><path d="M 4270 974430 l 10 -418 l 52 -405 l 92 -376 l 128 -331 l 159 -273 l 183 -203 l 200 -125 l 208 -42" class="C1" /><path d="M 140695 967875 c -102 -28 -204 -56 -297 -83 c -95 -27 -181 -53 -253 -75 c -71 -21 -128 -39 -167 -52 c -38 -12 -59 -20 -63 -22 c -3 -2 10 1 39 10 c 29 8 73 21 130 37 c 58 17 130 37 211 60 c 84 24 178 50 277 77 c 56 15 114 31 171 47" class="C1" /><path d="M 104999 136981 l -2504 0" class="C1" /><path d="M 174581 14773 l 0 -782" class="C1" /><path d="M 198593 7455 l 6175 0" class="C1" /><path d="M 174428 866431 c 4 -114 4 -229 0 -343" class="C1" /><path d="M 137095 42882 c -75 -43 -149 -87 -224 -130 c -161 -94 -323 -188 -484 -282" class="C1" /><path d="M 106882 836460 c 6 11 12 22 30 32 c 19 11 51 22 91 31 c 38 9 82 17 132 23 c 46 5 96 9 148 11 c 7 0 14 0 21 0" class="C1" /><path d="M 5936 27891 l 0 944365" class="C1" /><path d="M 6447 990701 l -1112 0" class="C1" /><path d="M 134543 967953 c 33 -1 65 -2 95 -4 c 30 -3 57 -7 81 -12 c 23 -5 43 -12 57 -19 c 15 -7 24 -15 27 -23 c 2 -6 0 -13 -1 -19" class="C1" /><path d="M 127284 31665 l 71 -284" class="C1" /><path d="M 137357 38608 c -162 -94 -324 -188 -486 -282 c -161 -94 -323 -188 -484 -282" class="C1" /><path d="M 107608 859477 l 0 -3422" class="C1" /><path d="M 176511 130314 l -2083 -18" class="C1" /><path d="M 107217 842553 l -335 -912" class="C1" /><path d="M 110341 844251 l 0 -883" class="C1" /><path d="M 81269 2816 c -306 -239 -709 -432 -1172 -562" class="C1" /><path d="M 110320 856055 l 0 25822" class="C1" /><path d="M 197676 992398 l -1178 0" class="C1" /><path d="M 158951 992398 c -0 -1019 -826 -1844 -1844 -1844" class="C1" /><path d="M 102394 990701 l -348 -66 l -335 -196 l -311 -320 l -275 -431 l -230 -527 l -176 -604 l -51 -246" class="C1" /><path d="M 109426 839309 c 124 -5 223 -123 223 -266" class="C1" /><path d="M 109424 159431 l -698 27" class="C1" /><path d="M 137062 961857 l 134 -81" class="C1" /><path d="M 67177 972256 l -61876 0" class="C1" /><path d="M 174429 135118 l 698 -27" class="C1" /><path d="M 202755 997184 c 306 239 709 432 1172 562" class="C1" /><path d="M 109426 839309 l -2210 8" class="C1" /><path d="M 126415 967941 l -21 -81" class="C1" /><path d="M 152966 988311 c -6 92 -13 185 -19 274 c -25 363 -47 675 -67 958 c -23 334 -43 626 -52 762 c -4 64 -7 93 -9 123" class="C1" /><path d="M 137382 40296 l 0 -184" class="C1" /><path d="M 124231 992545 l -0 0" class="C1" /><path d="M 200209 27744 l 78513 0" class="C1" /><path d="M 145701 500074 c 0 2037 -1652 3689 -3689 3689 c -2037 0 -3689 -1652 -3689 -3689 c 0 -2037 1652 -3689 3689 -3689 c 2037 0 3689 1652 3689 3689" class="C1" /><path d="M 108727 843205 l 700 26" class="C1" /><path d="M 151723 991273 l 660 -899" class="C1" /><path d="M 128420 968533 c -7 0 -14 1 -22 1 c -67 4 -161 20 -255 37 c -97 18 -195 38 -295 60 c -104 23 -210 49 -309 77 c -1 0 -3 1 -4 1" class="C1" /><path d="M 109426 167368 c -2 40 -3 80 -2 120" class="C1" /><path d="M 127667 961765 l 3228 0" class="C1" /><path d="M 136276 43739 l 810 -810" class="C1" /><path d="M 110320 168255 l 0 666404" class="C1" /><path d="M 107217 160627 l -335 -294" class="C1" /><path d="M 109879 844251 l 461 0" class="C1" /><path d="M 216608 992064 c -310 0 -619 0 -900 0 c -280 0 -532 0 -742 0 c -211 -0 -381 -0 -472 -0 c -80 0 -98 0 -115 0" class="C1" /><path d="M 175127 127411 l 1424 85" class="C1" /><path d="M 174581 32514 c 215 -26 429 -53 623 -134 c 209 -88 392 -240 546 -419 c 120 -139 222 -295 260 -468 c 9 -39 14 -79 20 -119" class="C1" /><path d="M 109426 842892 l -2210 -73" class="C1" /><path d="M 133693 37198 c -751 -34 -1503 -67 -2244 -177 c -498 -74 -990 -181 -1483 -289" class="C1" /><path d="M 79255 997299 l 6175 -4754" class="C1" /><path d="M 130044 38106 c -6 -28 -12 -56 86 -85 c 107 -31 338 -61 637 -92 c 299 -31 665 -61 1082 -92 c 417 -31 884 -61 1363 -92 c 479 -31 969 -61 1436 -92 c 467 -31 912 -61 1291 -92 c 379 -31 693 -61 949 -92 c 256 -31 453 -61 463 -92 c 3 -10 -14 -20 -31 -31" class="C1" /><path d="M 79255 992545 l 0 4754" class="C1" /><path d="M 132209 11837 c 14 -259 27 -519 40 -762 c 29 -557 54 -1030 76 -1454 c 22 -423 42 -798 50 -959 c 3 -57 5 -87 6 -117" class="C1" /><path d="M 107608 118270 l 103 -734 l 294 -622 l 440 -416 l 519 -146 l 519 146 l 440 416 l 294 622 l 103 734" class="C1" /><path d="M 130992 960249 c -160 94 -321 187 -481 281 c -161 94 -322 187 -483 281" class="C1" /><path d="M 103413 863212 l 0 -45" class="C1" /><path d="M 151624 991796 c 4 -67 7 -135 18 -344 c 11 -211 30 -567 52 -993 c 22 -426 48 -922 79 -1499 c 11 -209 22 -429 34 -648" class="C1" /><path d="M 125072 7602 c -0 489 194 958 540 1304 c 346 346 815 540 1304 540" class="C1" /><path d="M 181629 9299 l 95948 0" class="C1" /><path d="M 150945 11837 c -17 -316 -33 -633 -50 -945 c -34 -647 -67 -1276 -86 -1643 c -0 -5 -1 -10 -1 -15" class="C1" /><path d="M 283324 987057 l -2954 0" class="C1" /><path d="M 173975 135977 l 0 -9591" class="C1" /><path d="M 136375 40894 c 159 -93 318 -186 478 -280 c 160 -93 319 -186 479 -280" class="C1" /><path d="M 80097 7602 l -461 0" class="C1" /><path d="M 203927 992398 l 461 0" class="C1" /><path d="M 110571 834890 c 0 -127 -103 -231 -231 -231" class="C1" /><path d="M 108727 159667 l -1424 100" class="C1" /><path d="M 172848 986902 c 269 -152 435 -437 435 -745" class="C1" /><path d="M 130004 957884 l 0 184" class="C1" /><path d="M 122386 991439 l -33158 0" class="C1" /><path d="M 132502 7782 c -3 68 -7 135 -20 381 c -13 243 -34 659 -56 1075" class="C1" /><path d="M 79255 992545 c 0 -489 -534 -958 -1486 -1304 c -951 -346 -2241 -540 -3587 -540" class="C1" /><path d="M 174581 958799 l 0 7378" class="C1" /><path d="M 141148 31665 l -3727 0" class="C1" /><path d="M 130867 960181 c -34 3 -68 6 -100 9 c -351 31 -553 61 -637 92 c -56 21 -59 41 -63 62" class="C1" /><path d="M 126075 990701 c -1019 0 -1844 826 -1844 1844" class="C1" /><path d="M 202755 997184 l -5079 -3961" class="C1" /><path d="M 161637 8561 l 33158 0" class="C1" /><path d="M 129966 31665 l -3727 0" class="C1" /><path d="M 160796 991300 c -489 0 -958 116 -1304 321 c -346 206 -540 485 -540 776" class="C1" /><path d="M 136863 968774 c -31 -1 -62 -2 -95 -4 c -32 -3 -66 -7 -98 -12 c -32 -5 -63 -11 -91 -19 c -28 -7 -53 -15 -73 -23 c -4 -2 -9 -4 -13 -6" class="C1" /><path d="M 174219 12795 l 6298 0" class="C1" /><path d="M 174581 986156 l 0 -782" class="C1" /><path d="M 134365 992914 c -4 -81 -7 -162 -18 -409 c -11 -260 -29 -705 -53 -1251 c -20 -461 -43 -993 -67 -1572 c -15 -360 -31 -737 -48 -1137 c -3 -78 -7 -156 -10 -234" class="C1" /><path d="M 137382 37345 l 0 -146" class="C1" /><path d="M 132219 967875 c -3 9 -6 17 -3 25 c 4 8 15 16 30 22 c 16 7 36 12 60 17 c 24 5 52 8 83 10 c 23 1 47 2 72 2" class="C1" /><path d="M 107217 842820 c 15 -6 31 -12 41 -25 c 10 -13 15 -33 14 -58 c -0 -23 -5 -50 -14 -79 c -10 -33 -26 -68 -41 -104" class="C1" /><path d="M 172427 988311 l -77467 0" class="C1" /><path d="M 110571 158894 c 0 -127 -103 -231 -231 -231" class="C1" /><path d="M 109118 125426 l 1203 0" class="C1" /><path d="M 109426 160567 l 0 -1114" class="C1" /><path d="M 141148 962323 l 0 5068" class="C1" /><path d="M 129966 37825 l 0 -626" class="C1" /><path d="M 99220 141303 l 546 0" class="C1" /><path d="M 173513 126386 c -127 0 -231 103 -231 231" class="C1" /><path d="M 277577 9299 l 1112 0" class="C1" /><path d="M 176972 127625 c 0 -58 -183 -114 -421 -128" class="C1" /><path d="M 99220 858844 l -1496 0" class="C1" /><path d="M 132288 8752 c -1 3 -1 5 -2 8 c -37 144 -144 260 -259 362 c -115 102 -238 189 -375 240 c -137 52 -287 68 -437 84" class="C1" /><path d="M 174581 33971 l 0 -2597" class="C1" /><path d="M 132461 967953 l 2082 0" class="C1" /><path d="M 4605 987205 l -335 -12775" class="C1" /><path d="M 139833 967875 c 29 9 59 17 90 25 c 31 8 64 16 97 22 c 32 7 63 12 92 17 c 29 5 55 8 77 10 c 16 1 29 2 42 2" class="C1" /><path d="M 149658 7086 c 4 81 7 162 18 409 c 11 260 29 705 52 1251 c 20 460 43 993 67 1572 c 15 360 31 738 48 1137 c 5 126 11 254 16 382" class="C1" /><path d="M 106882 840220 l 335 -903" class="C1" /><path d="M 183471 12795 l 95948 0" class="C1" /><path d="M 137382 958315 l 0 -184" class="C1" /><path d="M 5302 972256 c -318 0 -636 -0 -920 -0 c -294 0 -553 0 -732 0 c -92 0 -163 0 -234 0" class="C1" /><path d="M 109426 835679 l -1 -2" class="C1" /><path d="M 175127 127423 l -700 -27" class="C1" /><path d="M 103413 125426 l 0 -1356" class="C1" /><path d="M 174205 126616 c 0 -127 -103 -231 -231 -231" class="C1" /><path d="M 161637 2659 c -581 -464 -1127 -738 -1476 -738" class="C1" /><path d="M 74555 985374 l 118276 0" class="C1" /><path d="M 204768 2701 c 1 -3 2 -6 4 -10 c 81 -221 150 -442 219 -663" class="C1" /><path d="M 68231 992211 c -312 0 -624 0 -911 0 c -287 0 -549 -0 -772 -0 c -223 0 -406 0 -516 0 c -109 0 -145 0 -180 0" class="C1" /><path d="M 139946 967559 l -180 -48" class="C1" /><path d="M 175127 866108 l 0 343" class="C1" /><path d="M 124231 996234 l 0 -3689" class="C1" /><path d="M 99220 879088 l 0 -4367" class="C1" /><path d="M 130475 967875 c 15 155 30 310 48 465 c 14 123 29 246 44 370" class="C1" /><path d="M 130669 959943 c -51 30 -103 60 -154 90 c -161 94 -323 188 -484 281" class="C1" /><path d="M 174428 866089 l 700 19" class="C1" /><path d="M 130272 38290 l -2169 0" class="C1" /><path d="M 131035 43213 c 3 -9 6 -18 21 -27 c 51 -31 243 -61 471 -92 c 229 -31 494 -61 801 -92 c 307 -31 654 -61 1009 -92 c 355 -31 718 -61 1063 -92 c 345 -31 673 -61 956 -92 c 282 -31 519 -61 702 -92 c 184 -31 315 -61 342 -92 c 21 -23 -16 -46 -52 -68" class="C1" /><path d="M 109649 839043 c 0 -104 -98 -189 -223 -192" class="C1" /><path d="M 130004 958868 l 0 184" class="C1" /><path d="M 173283 13991 l 1298 0" class="C1" /><path d="M 197676 993224 c -383 -299 -777 -575 -1178 -826" class="C1" /><path d="M 137382 960098 c -55 31 -111 62 -281 92 c -170 31 -454 61 -800 92 c -345 31 -752 61 -1197 92 c -445 31 -928 62 -1412 92 c -483 31 -967 61 -1412 92 c -445 31 -851 61 -1197 92 c -345 31 -630 62 -800 92 c -170 31 -225 61 -281 92" class="C1" /><path d="M 127238 961857 l -999 466" class="C1" /><path d="M 173283 986156 l 1298 0" class="C1" /><path d="M 94960 986156 l 77467 0" class="C1" /><path d="M 152810 990553 l 28658 0" class="C1" /><path d="M 105917 876078 l -918 0" class="C1" /><path d="M 128312 967932 l 148 821" class="C1" /><path d="M 107303 159767 c -238 17 -421 94 -421 178" class="C1" /><path d="M 107217 839317 c 15 -37 31 -73 41 -113 c 10 -40 15 -83 14 -126 c -0 -39 -5 -78 -14 -113 c -10 -39 -26 -73 -41 -107" class="C1" /><path d="M 126239 962323 l 1864 -466" class="C1" /><path d="M 132393 8328 l -105 425" class="C1" /><path d="M 137382 960282 l 0 -184" class="C1" /><path d="M 136492 968710 c 14 -123 28 -246 41 -370 c 16 -155 30 -310 44 -465" class="C1" /><path d="M 138867 31665 l -50 -291" class="C1" /><path d="M 174205 865993 c 0 51 98 94 223 95" class="C1" /><path d="M 110341 168255 c 127 0 231 -103 231 -231" class="C1" /><path d="M 176551 134866 c 238 -14 421 -70 421 -128" class="C1" /><path d="M 173513 126386 l 0 9591" class="C1" /><path d="M 122386 997341 l 0 -5902" class="C1" /><path d="M 109649 159112 c -4 44 -8 88 -21 130 c -13 41 -35 81 -64 114 c -19 22 -41 41 -68 55 c -16 8 -33 15 -51 18 c -7 1 -14 2 -21 2" class="C1" /><path d="M 200209 977996 l 0 -7275" class="C1" /><path d="M 200209 29426 l 0 -7275" class="C1" /><path d="M 106882 163475 l 0 -1528" class="C1" /><path d="M 126986 967953 c 17 -1 33 -2 55 -4 c 22 -3 49 -7 78 -12 c 29 -5 60 -12 93 -19 c 32 -7 65 -15 96 -23 c 23 -6 46 -13 68 -19" class="C1" /><path d="M 130004 960344 l 0 184" class="C1" /><path d="M 176972 871072 l 0 -2072" class="C1" /><path d="M 279641 990553 c 1962 0 3581 -1536 3684 -3496" class="C1" /><path d="M 132485 968774 c -32 -1 -64 -2 -94 -4 c -29 -3 -56 -7 -78 -12 c -22 -5 -40 -11 -53 -19 c -13 -7 -21 -15 -22 -23 c -0 -2 -0 -4 -0 -6" class="C1" /><path d="M 99220 141303 l 0 -4367" class="C1" /><path d="M 280980 27744 c 567 0 1108 -233 1498 -644 c 390 -411 594 -964 564 -1530" class="C1" /><path d="M 130130 957515 l -84 82" class="C1" /><path d="M 99766 863212 l 0 -4367" class="C1" /><path d="M 126239 967391 l 3727 0" class="C1" /><path d="M 130766 43394 l 345 345" class="C1" /><path d="M 132048 9172 c -61 53 -122 107 -189 151 c -66 44 -138 79 -212 108 c -72 28 -146 49 -221 62 c -71 12 -144 15 -216 19" class="C1" /><path d="M 280370 987057 l -95948 0" class="C1" /><path d="M 136276 43739 l -346 0" class="C1" /><path d="M 277577 9299 l 348 66 l 335 196 l 311 319 l 275 431 l 230 527 l 176 604 l 116 660 l 51 692" class="C1" /><path d="M 140744 967875 c 31 9 63 17 92 25 c 29 8 55 16 78 22 c 22 7 41 12 55 17 c 14 5 23 8 26 10 c 2 1 0 2 -2 2" class="C1" /><path d="M 137120 958480 l 234 -136" class="C1" /><path d="M 140149 38290 l -865 0" class="C1" /><path d="M 133578 7086 l -11 259" class="C1" /><path d="M 136421 959361 c -25 24 -51 47 -129 71 c -81 25 -219 51 -388 75 c -85 12 -178 24 -280 36 c -251 30 -555 61 -886 92 c -331 31 -688 62 -1045 92 c -357 31 -714 61 -1045 92 c -331 31 -636 62 -886 92 c -250 31 -445 61 -592 92 c -147 31 -246 61 -208 92 c 13 11 42 21 72 32" class="C1" /><path d="M 107217 160968 c 15 -38 31 -76 41 -113 c 10 -37 15 -72 14 -103 c -0 -29 -5 -55 -14 -74 c -10 -22 -26 -36 -41 -51" class="C1" /><path d="M 137291 962047 l 1420 -282" class="C1" /><path d="M 70615 992211 c 214 -27 428 -53 623 -134 c 210 -88 398 -239 546 -419 c 115 -140 207 -299 260 -468 c 49 -157 65 -323 81 -489" class="C1" /><path d="M 176637 865044 l 334 321" class="C1" /><path d="M 128103 38290 l -865 0" class="C1" /><path d="M 140195 31374 l 75 291" class="C1" /><path d="M 132209 11837 c 14 -269 28 -539 42 -796 c 30 -579 57 -1096 79 -1501 c 21 -404 37 -698 52 -991" class="C1" /><path d="M 126643 967875 c -31 9 -63 17 -92 25 c -29 8 -55 16 -78 22 c -22 7 -41 12 -55 17 c -14 5 -23 8 -26 10 c -2 1 -0 2 2 2" class="C1" /><path d="M 137120 961431 l 234 -136" class="C1" /><path d="M 176637 872793 c -15 25 -31 49 -41 69 c -10 19 -15 34 -14 42 c 0 8 5 11 14 8 c 10 -3 26 -13 41 -24" class="C1" /><path d="M 132426 9238 c -0 5 -1 10 -1 15 c -19 366 -52 995 -86 1641 c -16 312 -33 628 -49 944" class="C1" /><path d="M 132393 8328 l -11 213" class="C1" /><path d="M 160162 1921 l 45068 0" class="C1" /><path d="M 174429 135118 l -1 -2 l -1 -9" class="C1" /><path d="M 109423 116465 c -618 382 -966 1082 -897 1805" class="C1" /><path d="M 137420 37825 l 0 -626" class="C1" /><path d="M 107303 835827 c -238 11 -421 39 -421 65" class="C1" /><path d="M 126239 962323 l 0 5068" class="C1" /><path d="M 130993 37309 c -160 94 -321 187 -481 281 c -161 94 -322 187 -483 281" class="C1" /><path d="M 130992 961724 l -228 133" class="C1" /><path d="M 108526 120381 l -918 0" class="C1" /><path d="M 192831 985374 c 4075 0 7378 -3303 7378 -7378" class="C1" /><path d="M 5495 9447 c -161 0 -322 0 -461 0 c -139 0 -256 0 -354 0 c -98 0 -176 0 -222 0 c -46 0 -61 0 -76 0" class="C1" /><path d="M 123862 998079 l -45068 0" class="C1" /><path d="M 107303 835827 l 1424 -66" class="C1" /><path d="M 130778 958898 c -4 0 -8 1 -11 1 c -360 31 -555 62 -637 92 c -55 20 -59 41 -63 62" class="C1" /><path d="M 173975 126386 l -461 0" class="C1" /><path d="M 103507 988311 l 0 246 l 0 604 l 0 527 l 0 431 l 0 320 l 0 196 l 0 66" class="C1" /><path d="M 130130 957515 l -126 0" class="C1" /><path d="M 107608 120381 l 0 -2111" class="C1" /><path d="M 137349 961295 c 1 1 1 1 2 2 c 20 23 -162 46 -343 68" class="C1" /><path d="M 129966 36733 l -1864 466" class="C1" /><path d="M 109426 835677 c -3 65 -3 130 1 194" class="C1" /><path d="M 108526 144092 l 0 -3422" class="C1" /><path d="M 279641 990553 c 1962 0 3581 -1536 3684 -3496" class="C1" /><path d="M 128306 967603 c 59 -11 118 -22 173 -30 c 92 -14 173 -20 242 -22 c 67 -2 123 1 159 10 c 36 9 52 23 68 37" class="C1" /><path d="M 138967 31615 c 7 -0 14 -1 22 -1 c 67 -4 161 -20 255 -37 c 97 -18 195 -38 295 -60 c 104 -24 210 -50 309 -77 c 1 -0 3 -1 4 -1" class="C1" /><path d="M 97724 121059 c -2118 1458 -3358 3885 -3296 6456" class="C1" /><path d="M 176972 131516 l 0 1489" class="C1" /><path d="M 151631 991672 l -6 124" class="C1" /><path d="M 86347 6776 l 0 826" class="C1" /><path d="M 159936 1921 l 226 0" class="C1" /><path d="M 176972 865365 l 0 393" class="C1" /><path d="M 88545 8700 l 34682 0" class="C1" /><path d="M 108526 140670 c 244 -1726 -900 -3344 -2608 -3689" class="C1" /><path d="M 107608 140670 c 244 -1726 -900 -3344 -2608 -3689" class="C1" /><path d="M 130990 43094 c -1 -0 -2 -1 -3 -1 c -113 -31 -41 -61 70 -92 c 110 -31 258 -61 471 -92 c 213 -31 490 -61 801 -92 c 311 -31 655 -61 1009 -92 c 354 -31 719 -61 1063 -92 c 344 -31 668 -61 956 -92 c 287 -31 538 -61 702 -92 c 143 -27 221 -54 299 -80" class="C1" /><path d="M 99220 136936 l 9898 0" class="C1" /><path d="M 81933 22151 c 0 2037 -1652 3689 -3689 3689 c -2037 0 -3689 -1652 -3689 -3689 c 0 -2037 1652 -3689 3689 -3689 c 2037 0 3689 1652 3689 3689" class="C1" /><path d="M 140744 967783 c -104 -28 -207 -57 -302 -83 c -97 -27 -186 -52 -263 -75 c -76 -22 -143 -41 -181 -52 c -24 -7 -37 -10 -51 -14" class="C1" /><path d="M 138416 967603 l 0 -213" class="C1" /><path d="M 94960 988311 l 0 -2154" class="C1" /><path d="M 126776 962075 l 891 -310" class="C1" /><path d="M 137382 961573 c -55 31 -109 62 -281 92 c -172 31 -460 61 -800 92 c -340 31 -730 61 -1197 92 c -37 2 -75 5 -113 7" class="C1" /><path d="M 176593 865022 c 1 -1 2 -1 3 -2 c 6 -1 24 11 41 24" class="C1" /><path d="M 150446 992914 l 11 -259" class="C1" /><path d="M 30 25717 c -30 566 174 1119 564 1530 c 390 411 932 644 1498 644" class="C1" /><path d="M 137319 959606 c 16 10 32 20 31 31 c -3 31 -160 62 -463 92 c -43 4 -88 9 -134 13" class="C1" /><path d="M 130614 956960 l 376 219" class="C1" /><path d="M 126239 37825 l 999 466" class="C1" /><path d="M 108727 843207 l 699 26" class="C1" /><path d="M 176972 867759 c 0 -270 -183 -500 -421 -530" class="C1" /><path d="M 200209 29426 l 0 1948" class="C1" /><path d="M 108526 856055 l -918 0" class="C1" /><path d="M 99766 125426 l 0 -4367" class="C1" /><path d="M 171129 968774 l 0 -937400" class="C1" /><path d="M 196498 992398 c -166 -108 -332 -217 -487 -335 c -158 -121 -305 -253 -416 -406 c -43 -59 -80 -121 -98 -187 c -15 -55 -17 -112 -18 -169" class="C1" /><path d="M 151642 991459 c 2 -31 3 -62 6 -121 c 9 -163 28 -536 50 -959 c 22 -423 47 -894 76 -1454 c 10 -197 21 -406 32 -615" class="C1" /><path d="M 102495 863212 l 0 -45" class="C1" /><path d="M 67177 968774 l 133032 0" class="C1" /><path d="M 173975 135977 c 127 0 231 -103 231 -231" class="C1" /><path d="M 109649 167807 c 0 -237 -98 -431 -223 -439" class="C1" /><path d="M 151631 991672 l -0 0" class="C1" /><path d="M 136972 967953 c -18 155 -36 310 -57 464 c -16 119 -34 238 -52 357" class="C1" /><path d="M 94960 14773 l 0 -782" class="C1" /><path d="M 139284 37198 c -290 -20 -580 -40 -867 -107 c -335 -78 -666 -218 -997 -359" class="C1" /><path d="M 127326 31374 l 294 79" class="C1" /><path d="M 108727 166929 l 0 412" class="C1" /><path d="M 138847 968710 l 22 -168" class="C1" /><path d="M 174205 864614 c 0 185 98 336 223 343" class="C1" /><path d="M 99766 879088 l 0 -4367" class="C1" /><path d="M 130023 961043 c 161 94 323 188 484 281 c 161 94 322 188 483 281" class="C1" /><path d="M 278088 27744 l 0 944365" class="C1" /><path d="M 219124 992064 c 214 -27 428 -53 623 -134 c 210 -88 398 -239 546 -419 c 115 -140 207 -299 260 -468 c 49 -157 65 -323 81 -489" class="C1" /><path d="M 149658 7086 l -16080 0" class="C1" /><path d="M 137382 958622 c -55 31 -111 62 -281 92 c -170 31 -454 61 -800 92 c -345 31 -752 61 -1197 92 c -445 31 -928 62 -1412 92 c -483 31 -967 61 -1412 92 c -445 31 -851 61 -1197 92 c -345 31 -630 62 -800 92 c -170 31 -225 61 -281 92" class="C1" /><path d="M 110341 158664 l -461 0" class="C1" /><path d="M 126610 31374 c -1 1 -3 2 2 4 c 5 2 15 6 34 12 c 7 2 15 4 22 7" class="C1" /><path d="M 109426 164735 l 0 -3827" class="C1" /><path d="M 175839 866812 c 104 6 195 -68 210 -171" class="C1" /><path d="M 123228 8700 l 0 747" class="C1" /><path d="M 174428 130297 l 0 3729" class="C1" /><path d="M 176972 869001 l -461 1237" class="C1" /><path d="M 151842 991095 c -37 47 -75 94 -104 144 c -72 127 -89 280 -107 432" class="C1" /><path d="M 108526 881878 l 0 -2111" class="C1" /><path d="M 106882 166973 l 0 -570" class="C1" /><path d="M 161637 9299 l 0 -738" class="C1" /><path d="M 127191 968774 c -31 -119 -62 -238 -91 -357 c -39 -155 -76 -309 -114 -464" class="C1" /><path d="M 174430 872999 l 2164 -85" class="C1" /><path d="M 160796 991300 l 0 -747" class="C1" /><path d="M 102495 124070 l 2504 0" class="C1" /><path d="M 106882 163475 l 0 2075" class="C1" /><path d="M 136972 967953 l 1717 0" class="C1" /><path d="M 109118 136936 l 0 -11509" class="C1" /><path d="M 106882 843018 l 0 -118" class="C1" /><path d="M 137356 958101 c -161 -94 -323 -188 -484 -281 c -78 -45 -155 -90 -233 -136" class="C1" /><path d="M 126461 967861 l 16 61" class="C1" /><path d="M 132392 8328 l 6 -124" class="C1" /><path d="M 197676 992398 l 18 -360 l 52 -346 l 85 -319 l 115 -280 l 140 -229 l 159 -170 l 173 -105 l 180 -35" class="C1" /><path d="M 161637 2659 l 0 5902" class="C1" /><path d="M 215790 7789 c 312 0 624 0 911 0 c 287 -0 550 -0 773 -0 c 223 0 407 0 516 0 c 110 0 146 -0 181 -0" class="C1" /><path d="M 130022 39581 c 161 94 323 188 484 282 c 161 94 322 188 483 282" class="C1" /><path d="M 86347 7602 l 1178 0" class="C1" /><path d="M 174428 870263 l 0 2617" class="C1" /><path d="M 99220 863212 l 0 -4367" class="C1" /><path d="M 130990 38668 c -1 -0 -2 -1 -3 -1 c -113 -31 -41 -61 70 -92 c 110 -31 258 -61 471 -92 c 213 -31 490 -61 801 -92 c 311 -31 655 -61 1009 -92 c 354 -31 719 -61 1063 -92 c 344 -31 668 -61 956 -92 c 287 -31 538 -61 702 -92 c 143 -27 221 -54 299 -80" class="C1" /><path d="M 130524 968774 c 31 -0 62 -0 95 -4 c 1 -0 3 -0 4 -0" class="C1" /><path d="M 140776 968774 c 1 -1 3 -2 -2 -4 c -5 -2 -15 -6 -34 -12 c -7 -2 -15 -4 -22 -7" class="C1" /><path d="M 106882 843018 c 0 26 183 54 421 65" class="C1" /><path d="M 282373 12795 c -103 -1960 -1722 -3496 -3684 -3496" class="C1" /><path d="M 172427 13136 l 421 0" class="C1" /><path d="M 219105 992064 c 6 0 11 0 15 0 c 32 0 -84 0 -232 -0 c -149 0 -330 0 -559 0 c -229 0 -506 0 -801 0 c -295 0 -607 0 -920 0" class="C1" /><path d="M 108526 881878 c -69 723 279 1423 897 1805" class="C1" /><path d="M 136302 957515 c -381 31 -761 61 -1197 92 c -436 31 -926 61 -1412 92 c -485 31 -965 62 -1412 92 c -446 31 -859 61 -1197 92 c -337 31 -599 61 -800 92 c -200 31 -339 62 -281 92 c 16 8 45 16 74 24" class="C1" /><path d="M 137382 961758 l 0 -184" class="C1" /><path d="M 128103 37198 l -865 0" class="C1" /><path d="M 172427 13991 l 0 782" class="C1" /><path d="M 279674 972109 c 321 -0 642 -0 920 -0 c 288 0 531 0 732 0 c 202 0 362 0 456 0 c 91 0 120 0 149 0" class="C1" /><path d="M 130019 960548 l 80 46" class="C1" /><path d="M 109649 843180 l 0 -8290" class="C1" /><path d="M 104999 124070 c 1709 -345 2853 -1963 2608 -3689" class="C1" /><path d="M 134531 968774 c -1 -119 -1 -238 0 -357 c 2 -155 7 -309 12 -464" class="C1" /><path d="M 176551 865911 c 238 -1 421 -68 421 -153" class="C1" /><path d="M 127238 961857 l 865 0" class="C1" /><path d="M 138549 968774 c 18 -119 37 -238 57 -357 c 26 -155 54 -309 83 -464" class="C1" /><path d="M 134802 967875 c -5 -28 -11 -56 6 -83 c 18 -27 59 -53 116 -75 c 56 -21 127 -39 211 -52 c 81 -12 173 -20 272 -22 c 95 -2 196 1 297 10 c 100 8 201 21 295 37 c 97 17 188 37 270 60 c 85 24 161 50 219 77 c 33 15 60 31 87 47" class="C1" /><path d="M 79636 7602 c -4 42 -8 85 -17 126 c -19 84 -62 163 -111 236 c -90 133 -202 247 -324 349 c -234 197 -503 351 -781 479 c -428 198 -879 337 -1338 439 c -562 125 -1137 194 -1712 210 c -125 3 -251 4 -376 5" class="C1" /><path d="M 137356 961052 c -161 -94 -323 -188 -484 -281 c -78 -45 -155 -90 -233 -136" class="C1" /><path d="M 109649 843497 c 0 -144 -98 -261 -223 -266" class="C1" /><path d="M 110320 118270 l 0 25823" class="C1" /><path d="M 133186 991796 c 24 148 49 297 107 432 c 58 136 150 258 259 362 c 110 104 237 189 375 240 c 138 51 288 68 437 84" class="C1" /><path d="M 176637 133960 c -15 37 -31 74 -41 108 c -10 35 -15 68 -14 96 c 0 26 5 49 14 65 c 10 18 26 29 41 40" class="C1" /><path d="M 137319 958130 c 16 10 32 20 31 31 c -3 31 -160 62 -463 92 c -43 4 -88 9 -134 13" class="C1" /><path d="M 123228 8700 l -0 -5884" class="C1" /><path d="M 141148 962323 l -999 -466" class="C1" /><path d="M 173283 38151 l 0 -4180" class="C1" /><path d="M 137420 31665 l -7454 0" class="C1" /><path d="M 107217 160627 l 2210 -60" class="C1" /><path d="M 107343 164710 l 2083 26" class="C1" /><path d="M 137420 962323 l 0 5068" class="C1" /><path d="M 200209 31374 l -133032 0" class="C1" /><path d="M 126394 967861 c -2 -1 -3 -2 2 -4 c 5 -3 17 -7 33 -12 c 16 -5 37 -12 61 -19 c 24 -7 52 -15 82 -23 c 23 -6 46 -13 70 -19" class="C1" /><path d="M 174428 864957 l 0 1132" class="C1" /><path d="M 107303 836557 l 0 9" class="C1" /><path d="M 127709 31437 l -43 228" class="C1" /><path d="M 123228 2816 l -41959 0" class="C1" /><path d="M 109649 844020 c 0 127 103 231 231 231" class="C1" /><path d="M 173283 958799 l 1298 0" class="C1" /><path d="M 108727 167251 l -1424 -100" class="C1" /><path d="M 130192 968774 c -19 -119 -39 -238 -56 -357 c -23 -155 -43 -309 -63 -464" class="C1" /><path d="M 138711 961765 l 943 92" class="C1" /><path d="M 94960 985374 l 0 782" class="C1" /><path d="M 140971 967941 l 21 -81" class="C1" /><path d="M 151976 990828 c 61 -53 122 -107 189 -151 c 66 -44 138 -79 212 -108 c 72 -28 146 -49 221 -62 c 71 -12 144 -15 216 -19" class="C1" /><path d="M 127620 967603 l -177 47" class="C1" /><path d="M 174428 134026 c -124 8 -223 208 -223 450" class="C1" /><path d="M 176972 131516 l 0 -2130" class="C1" /><path d="M 283994 974283 l -3289 0" class="C1" /><path d="M 176290 866518 c 9 -18 13 -39 11 -59" class="C1" /><path d="M 175127 865918 l 1424 -6" class="C1" /><path d="M 159936 1921 c -71 610 -143 1220 -143 1832 c -0 4 -0 9 -0 13" class="C1" /><path d="M 128425 967875 c -21 9 -43 17 -58 25 c -15 8 -25 16 -29 22 c -4 7 -3 12 3 17 c 6 5 18 8 35 10 c 13 1 29 2 45 2" class="C1" /><path d="M 137356 959577 c -161 -94 -323 -188 -484 -281 c -78 -45 -155 -90 -233 -136" class="C1" /><path d="M 127357 968774 c 18 -1 37 -2 60 -4 c 23 -3 52 -7 82 -12 c 30 -5 62 -11 94 -19 c 32 -7 65 -15 96 -23 c 7 -2 14 -4 20 -6" class="C1" /><path d="M 134802 967875 c -4 155 -8 310 -9 465 c -1 123 -1 246 -1 370" class="C1" /><path d="M 132182 8905 c 37 -47 75 -94 104 -145 c 72 -127 89 -280 107 -432" class="C1" /><path d="M 176511 870237 l -2083 26" class="C1" /><path d="M 132382 8541 c -2 31 -3 62 -6 121 c -9 162 -28 536 -50 959 c -22 424 -47 897 -76 1454 c -13 243 -26 503 -40 762" class="C1" /><path d="M 173513 864171 l 0 9591" class="C1" /><path d="M 176972 872117 l 0 467" class="C1" /><path d="M 176511 870237 l 461 835" class="C1" /><path d="M 176972 134469 l 0 -1464" class="C1" /><path d="M 99220 121059 l 546 0" class="C1" /><path d="M 95301 123793 l 0 -92419" class="C1" /><path d="M 173283 33971 l 1298 0" class="C1" /><path d="M 99220 121059 l -1496 0" class="C1" /><path d="M 173283 966177 l 0 -4180" class="C1" /><path d="M 126239 37825 l 0 -1092" class="C1" /><path d="M 130023 958092 c 161 94 323 187 484 281 c 161 94 322 188 483 281" class="C1" /><path d="M 127238 961765 l 429 0" class="C1" /><path d="M 127238 961765 l -498 232" class="C1" /><path d="M 130095 37871 c 3 -11 7 -23 35 -34 c 76 -31 329 -61 637 -92 c 307 -31 668 -61 1082 -92 c 414 -31 883 -61 1363 -92 c 480 -31 971 -61 1436 -92 c 465 -31 903 -61 1291 -92 c 388 -31 725 -61 949 -92 c 206 -28 316 -57 426 -85" class="C1" /><path d="M 104999 863166 c 1709 -345 2853 -1963 2608 -3689" class="C1" /><path d="M 99220 858844 l 546 0" class="C1" /><path d="M 126239 36733 l 999 466" class="C1" /><path d="M 130004 39374 l 0 184" class="C1" /><path d="M 110320 874721 l -1203 0" class="C1" /><path d="M 131035 41737 c 3 -9 6 -18 21 -27 c 51 -31 243 -61 471 -92 c 229 -31 494 -61 801 -92 c 307 -31 654 -61 1009 -92 c 355 -31 718 -61 1063 -92 c 345 -31 673 -61 956 -92 c 282 -31 519 -61 702 -92 c 184 -31 315 -61 342 -92 c 21 -23 -16 -46 -52 -68" class="C1" /><path d="M 132301 8727 l -660 899" class="C1" /><path d="M 187756 25570 l 2773 0" class="C1" /><path d="M 151631 991672 l 105 -425" class="C1" /><path d="M 136414 961024 c -40 29 -79 59 -198 88 c -124 31 -336 61 -592 92 c -256 31 -557 61 -886 92 c -329 31 -687 62 -1045 92 c -358 31 -716 61 -1045 92 c -328 31 -627 61 -886 92 c -259 31 -478 62 -592 92 c -74 20 -104 40 -134 59" class="C1" /><path d="M 109649 168024 l 0 -9130" class="C1" /><path d="M 150837 8204 c 3 62 6 123 18 344 c 12 223 32 608 52 993" class="C1" /><path d="M 109649 843085 c 0 -247 -98 -450 -223 -459" class="C1" /><path d="M 86347 7602 l -18 360 l -52 346 l -85 319 l -115 280 l -140 229 l -159 170 l -173 105 l -180 35" class="C1" /><path d="M 180517 12795 l 2954 0" class="C1" /><path d="M 192831 977996 c 0 2037 -1652 3689 -3689 3689 c -2037 0 -3689 -1652 -3689 -3689 c 0 -2037 1652 -3689 3689 -3689 c 2037 0 3689 1652 3689 3689" class="C1" /><path d="M 130095 40822 c 3 -11 7 -23 35 -34 c 76 -31 329 -61 637 -92 c 307 -31 667 -61 1082 -92 c 415 -31 884 -61 1363 -92 c 479 -31 969 -61 1436 -92 c 467 -31 912 -61 1291 -92 c 379 -31 693 -61 949 -92 c 256 -31 453 -61 463 -92 c 3 -10 -14 -20 -31 -31" class="C1" /><path d="M 140019 31374 c -24 6 -48 12 -70 16 c -65 15 -106 22 -125 22 c -14 -0 -16 -4 -18 -7" class="C1" /><path d="M 94428 865300 l 0 7333" class="C1" /><path d="M 109879 158664 c -127 0 -231 103 -231 231" class="C1" /><path d="M 152810 990553 c -151 14 -303 28 -437 84 c -119 49 -226 131 -333 213" class="C1" /><path d="M 174428 127396 c 3 -50 4 -101 2 -151" class="C1" /><path d="M 107303 166776 l 0 375" class="C1" /><path d="M 4383 9447 c -1962 0 -3581 1536 -3684 3496" class="C1" /><path d="M 283325 987057 l -0 0" class="C1" /><path d="M 130307 957212 l -303 303" class="C1" /><path d="M 128103 37198 c -290 -20 -580 -40 -867 -107 c -335 -78 -666 -218 -997 -359" class="C1" /><path d="M 175127 134951 l 1424 -85" class="C1" /><path d="M 152819 990427 l -9 126" class="C1" /><path d="M 109879 834659 c -127 0 -231 103 -231 231" class="C1" /><path d="M 138848 968618 c 17 8 34 17 44 24 c 10 7 14 14 13 20 c -1 6 -7 11 -20 14 c -13 3 -32 5 -51 6" class="C1" /><path d="M 110341 844251 c 127 0 231 -103 231 -231" class="C1" /><path d="M 101443 9447 l -95948 0" class="C1" /><path d="M 174205 126945 c 0 243 98 442 223 450" class="C1" /><path d="M 137420 36733 l 0 -5068" class="C1" /><path d="M 130022 41056 c 161 94 323 188 484 282 c 161 94 322 188 483 282" class="C1" /><path d="M 3044 972256 c -567 0 -1108 233 -1498 644 c -390 411 -594 964 -564 1530" class="C1" /><path d="M 128103 961857 c 290 20 580 40 867 107 c 335 78 666 218 997 359" class="C1" /><path d="M 155760 500074 c 0 7640 -6193 13833 -13833 13833 c -7640 0 -13833 -6193 -13833 -13833 c 0 -7640 6193 -13833 13833 -13833 c 7640 0 13833 6193 13833 13833" class="C1" /><path d="M 137379 958631 c -159 -93 -318 -186 -478 -279 c -159 -93 -319 -186 -478 -279" class="C1" /><path d="M 208999 990553 c -2801 0 -5072 826 -5072 1844" class="C1" /><path d="M 137357 41559 c -162 -94 -324 -188 -486 -282 c -161 -94 -323 -188 -484 -282" class="C1" /><path d="M 137379 961582 c -159 -93 -318 -186 -478 -279 c -159 -93 -319 -186 -478 -279" class="C1" /><path d="M 97724 141303 l 1496 0" class="C1" /><path d="M 140993 967861 c 2 -1 3 -2 -2 -4 c -5 -3 -17 -7 -33 -12 c -16 -5 -37 -12 -61 -19 c -24 -7 -52 -15 -82 -23 c -23 -6 -46 -13 -70 -19" class="C1" /><path d="M 130993 43211 l -221 129" class="C1" /><path d="M 79188 974430 l -1888 0" class="C1" /><path d="M 279674 972109 l 208 42 l 200 125 l 183 203 l 159 273 l 128 331 l 92 376 l 52 405 l 10 418" class="C1" /><path d="M 174205 130240 c 0 30 98 55 223 56" class="C1" /><path d="M 176972 871072 l 0 1045" class="C1" /><path d="M 278722 27744 c 318 0 636 0 921 -0 c 294 0 553 0 732 0 c 92 0 163 0 234 0" class="C1" /><path d="M 102394 990701 l -95948 0" class="C1" /><path d="M 174428 866431 l 0 3832" class="C1" /><path d="M 127443 967651 c -3 1 -5 1 -11 3 c -19 5 -71 20 -130 37 c -61 18 -131 38 -211 60 c -83 24 -178 50 -277 77 c -56 15 -114 31 -171 47" class="C1" /><path d="M 102556 9447 l 0 2390" class="C1" /><path d="M 109879 158664 l 0 9591" class="C1" /><path d="M 109649 164817 c 0 -44 -98 -80 -223 -81" class="C1" /><path d="M 136424 956593 c -41 31 -82 61 -208 92 c -126 31 -336 61 -592 92 c -256 31 -557 62 -886 92 c -329 31 -687 61 -1045 92 c -358 31 -716 61 -1045 92 c -329 31 -627 62 -886 92 c -259 31 -478 61 -592 92 c -74 20 -104 40 -134 59" class="C1" /><path d="M 136375 39418 c 159 -93 318 -186 478 -280 c 160 -93 319 -186 479 -280" class="C1" /><path d="M 150895 9299 l 29622 0" class="C1" /><path d="M 175839 867139 l 0 -327" class="C1" /><path d="M 128103 961857 l 5591 0" class="C1" /><path d="M 131214 9447 l -28658 0" class="C1" /><path d="M 180517 14773 l 0 -1979" class="C1" /><path d="M 280705 974283 l -335 12775" class="C1" /><path d="M 79032 997972 c 750 -122 1629 -341 2528 -631" class="C1" /><path d="M 108727 167460 l 0 -120" class="C1" /><path d="M 200209 29426 l -133032 0" class="C1" /><path d="M 107303 843083 l 1424 65" class="C1" /><path d="M 194795 9299 l 0 -738" class="C1" /><path d="M 78794 992545 l 461 0" class="C1" /><path d="M 109649 844020 l 0 -840" class="C1" /><path d="M 133693 957515 c -483 31 -967 61 -1412 92 c -445 31 -851 61 -1197 92 c -345 31 -630 62 -800 92 c -170 31 -225 61 -281 92" class="C1" /><path d="M 174430 864934 c -1 7 -2 15 -2 23" class="C1" /><path d="M 137420 36733 c -312 70 -624 140 -938 197 c -918 166 -1853 217 -2789 269" class="C1" /><path d="M 204388 997931 c -8 -5 -16 -9 -43 -22 c -26 -13 -71 -34 -126 -58 c -58 -25 -127 -53 -207 -79 c -27 -9 -56 -17 -85 -26" class="C1" /><path d="M 151807 988311 c -11 209 -22 417 -32 615 c -29 560 -54 1031 -76 1454 c -22 423 -42 797 -50 959 c -3 57 -5 87 -6 117" class="C1" /><path d="M 176300 866459 c -27 2 -54 4 -81 9 c -49 8 -98 23 -141 42 c -47 21 -89 47 -125 77 c -38 33 -68 70 -86 108 c -18 38 -23 78 -28 117" class="C1" /><path d="M 139767 31452 l 294 -79" class="C1" /><path d="M 140710 967861 l 282 0" class="C1" /><path d="M 30 25717 l 669 -12775" class="C1" /><path d="M 4270 974430 l -3289 0" class="C1" /><path d="M 67177 970722 l 0 7275" class="C1" /><path d="M 108727 843148 l 0 57" class="C1" /><path d="M 89228 991439 l -7667 5902" class="C1" /><path d="M 108526 859477 l 0 -3422" class="C1" /><path d="M 127377 967875 c 29 155 57 310 87 465 c 24 123 48 246 72 370" class="C1" /><path d="M 158951 996077 l 0 -3679" class="C1" /><path d="M 130019 959073 l 80 46" class="C1" /><path d="M 174428 872881 c -124 8 -223 202 -223 438" class="C1" /><path d="M 108526 140670 l -918 0" class="C1" /><path d="M 151522 992218 c 3 -68 7 -135 20 -381 c 13 -243 34 -659 56 -1075" class="C1" /><path d="M 140149 37198 l -865 0" class="C1" /><path d="M 106882 836460 c 0 100 65 189 161 220" class="C1" /><path d="M 108727 836397 l -1424 169" class="C1" /><path d="M 172427 986156 l 0 2154" class="C1" /><path d="M 136302 957515 c 238 -16 475 -32 655 -48 c 184 -17 306 -34 300 -51 c -2 -6 -21 -12 -40 -18" class="C1" /><path d="M 110341 834659 l -461 0" class="C1" /><path d="M 137382 38820 l 0 -184" class="C1" /><path d="M 64341 990701 c 27 214 53 428 134 623 c 88 210 239 398 419 546 c 140 115 299 207 468 260 c 157 49 323 65 489 81" class="C1" /><path d="M 94428 872633 c -61 2570 1178 4998 3296 6456" class="C1" /><path d="M 199515 9299 l -180 -35 l -173 -105 l -159 -170 l -140 -229 l -115 -280 l -85 -319 l -52 -346 l -18 -360" class="C1" /><path d="M 130067 39558 c -0 -21 -1 -41 63 -62 c 95 -31 335 -61 637 -92 c 302 -31 666 -61 1082 -92 c 416 -31 884 -61 1363 -92 c 479 -31 969 -61 1436 -92 c 467 -31 912 -61 1291 -92 c 379 -31 693 -61 949 -92 c 256 -31 453 -61 463 -92 c 3 -10 -14 -20 -31 -31" class="C1" /><path d="M 133578 7086 c -150 17 -299 33 -437 84 c -138 51 -266 136 -375 240 c -110 104 -201 227 -259 362 c -58 136 -82 284 -107 432" class="C1" /><path d="M 150446 992914 c 150 -17 299 -33 437 -84 c 138 -51 266 -136 375 -240 c 110 -104 201 -227 259 -362 c 58 -136 82 -284 107 -432" class="C1" /><path d="M 107608 856055 l 103 -734 l 294 -622 l 440 -416 l 519 -146 l 519 146 l 440 416 l 294 622 l 103 734" class="C1" /><path d="M 109879 843368 l 0 883" class="C1" /><path d="M 181629 9299 l 348 66 l 335 196 l 311 319 l 275 431 l 230 527 l 176 604 l 116 660 l 51 692" class="C1" /><path d="M 108727 167460 l 698 27" class="C1" /><path d="M 126394 967953 l 592 0" class="C1" /><path d="M 6447 990701 l -348 -66 l -335 -196 l -311 -320 l -275 -431 l -230 -527 l -176 -604 l -116 -660 l -51 -692" class="C1" /><path d="M 109426 843231 l -1 2" class="C1" /><path d="M 1651 987205 l -669 -12775" class="C1" /><path d="M 141148 36733 l 0 -5068" class="C1" /><path d="M 109649 843085 c 0 -104 -98 -189 -223 -192" class="C1" /><path d="M 94428 134848 c -61 2570 1178 4998 3296 6456" class="C1" /><path d="M 107303 836567 c -238 28 -421 223 -421 448" class="C1" /><path d="M 130993 41736 c -160 94 -321 187 -481 281 c -161 94 -322 187 -483 281" class="C1" /><path d="M 67177 22151 l 0 7275" class="C1" /><path d="M 283994 974283 c 30 -566 -174 -1119 -564 -1530 c -390 -411 -932 -644 -1498 -644" class="C1" /><path d="M 67177 25717 l -63859 0" class="C1" /><path d="M 97724 879088 l 1496 0" class="C1" /><path d="M 174428 134026 l 2210 -66" class="C1" /><path d="M 181468 990553 l 0 -66 l 0 -196 l 0 -319 l 0 -431 l 0 -527 l -0 -604 l 0 -660 l 0 -692" class="C1" /><path d="M 172427 11837 l -77467 0" class="C1" /><path d="M 136376 959317 c 155 -93 311 -186 466 -279 c 155 -93 310 -186 464 -279" class="C1" /><path d="M 176540 866508 c 10 -18 14 -39 11 -59" class="C1" /><path d="M 75025 9447 c 2801 0 5072 -826 5072 -1844" class="C1" /><path d="M 182580 990553 l 95948 0" class="C1" /><path d="M 173975 873762 c 127 0 231 -103 231 -231" class="C1" /><path d="M 176050 866641 l 0 524" class="C1" /><path d="M 84508 990701 l 180 35 l 173 105 l 159 170 l 140 229 l 115 280 l 85 319 l 52 346 l 18 360" class="C1" /><path d="M 130019 957597 l 80 46" class="C1" /><path d="M 173283 986156 l 0 -782" class="C1" /><path d="M 181122 31374 l 0 937400" class="C1" /><path d="M 110320 881878 l -103 734 l -294 622 l -440 416 l -519 146 l -519 -146 l -440 -416 l -294 -622 l -103 -734" class="C1" /><path d="M 141148 36733 l -1864 466" class="C1" /><path d="M 139678 968710 c 24 -123 47 -246 70 -370 c 29 -155 57 -310 85 -465" class="C1" /><path d="M 129966 37825 c -246 108 -493 215 -742 289 c -371 110 -746 143 -1122 177" class="C1" /><path d="M 132399 8204 l 0 0" class="C1" /><path d="M 109424 167487 c 16 2 32 4 47 9 c 19 6 36 16 51 28 c 25 19 46 42 63 67 c 26 37 44 80 53 124 c 6 30 8 61 10 91" class="C1" /><path d="M 200209 25570 l 79544 0" class="C1" /><path d="M 132238 968710 c -1 -123 -2 -246 -5 -370 c -3 -155 -9 -310 -14 -465" class="C1" /><path d="M 124710 2069 c -348 0 -898 277 -1482 747" class="C1" /><path d="M 130657 967603 l 9110 0" class="C1" /><path d="M 173283 38151 l 0 923846" class="C1" /><path d="M 176948 128321 c 16 -31 24 -66 24 -101" class="C1" /><path d="M 30 25717 c -30 566 174 1119 564 1530 c 390 411 932 644 1498 644" class="C1" /><path d="M 105917 124070 l -918 0" class="C1" /><path d="M 30 25717 l -0 0" class="C1" /><path d="M 130990 41619 c -1 -0 -2 -1 -3 -1 c -113 -31 -41 -61 70 -92 c 110 -31 258 -61 471 -92 c 213 -31 490 -61 801 -92 c 311 -31 655 -61 1009 -92 c 354 -31 719 -61 1063 -92 c 344 -31 668 -61 956 -92 c 287 -31 538 -61 702 -92 c 143 -27 221 -54 299 -80" class="C1" /><path d="M 133693 961857 c 580 20 1160 40 1734 107 c 669 78 1331 218 1993 359" class="C1" /><path d="M 176012 968774 c -14 -86 -28 -171 -54 -252 c -71 -216 -235 -399 -419 -546 c -143 -114 -300 -207 -468 -260 c -156 -49 -322 -65 -489 -81" class="C1" /><path d="M 138598 968710 c 15 8 31 17 39 24 c 9 7 11 14 8 20 c -3 6 -12 10 -25 14 c -13 3 -32 5 -55 6 c -5 0 -11 0 -16 0" class="C1" /><path d="M 204991 2028 c 60 -25 120 -51 163 -70 c 42 -19 67 -32 73 -35 c 1 -1 2 -1 2 -1" class="C1" /><path d="M 104999 876078 l -2504 0" class="C1" /><path d="M 108526 120381 l 0 -2111" class="C1" /><path d="M 137209 957342 l 97 -58" class="C1" /><path d="M 203927 997746 l 0 -5348" class="C1" /><path d="M 125072 3923 c 0 -4 0 -9 0 -13 c -0 -615 -71 -1228 -142 -1841" class="C1" /><path d="M 159793 7455 l 0 -3689" class="C1" /><path d="M 172427 13991 l -77467 0" class="C1" /><path d="M 81933 977996 c 0 2037 -1652 3689 -3689 3689 c -2037 0 -3689 -1652 -3689 -3689 c 0 -2037 1652 -3689 3689 -3689 c 2037 0 3689 1652 3689 3689" class="C1" /><path d="M 137382 958806 c -55 31 -111 61 -281 92 c -170 31 -454 62 -800 92 c -345 31 -752 61 -1197 92 c -445 31 -929 61 -1412 92 c -483 31 -965 62 -1412 92 c -447 31 -860 61 -1197 92 c -337 31 -599 61 -800 92 c -200 31 -339 62 -281 92 c 16 8 45 16 74 24" class="C1" /><path d="M 279419 12795 l 2954 0" class="C1" /><path d="M 173283 14773 l 0 -782" class="C1" /><path d="M 79188 25717 l -1888 0" class="C1" /><path d="M 280370 987057 l -51 692 l -116 660 l -176 604 l -230 527 l -275 431 l -311 319 l -336 196 l -348 66" class="C1" /><path d="M 176637 872889 l 334 -321" class="C1" /><path d="M 137357 37132 l -29 -17" class="C1" /><path d="M 282373 12795 l 670 12775" class="C1" /><path d="M 109426 159453 c 124 -6 223 -157 223 -341" class="C1" /><path d="M 173975 873762 l 0 -9591" class="C1" /><path d="M 102495 876078 l 0 -1356" class="C1" /><path d="M 109118 874721 l 0 -11509" class="C1" /><path d="M 67177 970722 l 133032 0" class="C1" /><path d="M 109426 159453 c 0 -7 -1 -15 -2 -22" class="C1" /><path d="M 109426 842626 c -4 89 -4 178 0 266" class="C1" /><path d="M 173513 864171 c -127 0 -231 103 -231 231" class="C1" /><path d="M 109426 160908 c 124 -8 223 -202 223 -439" class="C1" /><path d="M 99766 141303 l 0 -4367" class="C1" /><path d="M 138847 968710 c -27 -13 -54 -25 -78 -38 c -54 -28 -95 -55 -101 -75 c -2 -8 1 -15 4 -21" class="C1" /><path d="M 136577 967875 c 16 9 32 17 54 25 c 22 8 49 16 78 22 c 29 7 61 12 94 17 c 33 5 66 8 98 10 c 24 1 47 2 70 2" class="C1" /><path d="M 137349 958344 c 1 1 1 1 2 2 c 20 23 -162 46 -343 68" class="C1" /><path d="M 107608 144092 l 0 -3422" class="C1" /><path d="M 141148 37825 l 0 -1092" class="C1" /><path d="M 128569 968774 c -21 -1 -42 -2 -57 -4 c -15 -3 -24 -7 -27 -12 c -4 -5 -2 -11 5 -19 c 7 -7 20 -15 37 -23 c 4 -2 8 -4 12 -6" class="C1" /><path d="M 130004 960835 l 0 184" class="C1" /><path d="M 174430 872999 c 1 -39 -0 -79 -2 -118" class="C1" /><path d="M 176280 866480 l 0 714" class="C1" /><path d="M 99220 874721 l 9898 0" class="C1" /><path d="M 126461 967861 l 174 0" class="C1" /><path d="M 79032 997972 c -60 25 -120 51 -163 70 c -42 19 -67 32 -73 35 c -1 1 -2 1 -2 1" class="C1" /><path d="M 67282 7936 c 312 0 624 0 911 0 c 287 -0 550 -0 773 -0 c 223 0 407 0 516 0 c 110 -0 146 -0 181 -0" class="C1" /><path d="M 109426 842626 l 0 -3317" class="C1" /><path d="M 127667 961765 l 537 92" class="C1" /><path d="M 139284 37198 l -5591 0" class="C1" /><path d="M 127377 967875 c 99 -28 198 -56 301 -83 c 106 -27 218 -53 325 -75 c 105 -21 206 -39 298 -52 c 88 -12 167 -20 231 -22 c 62 -2 112 1 145 10 c 33 8 51 21 52 37 c 2 17 -14 38 -44 61 c -31 24 -79 50 -142 77 c -36 15 -77 31 -118 47" class="C1" /><path d="M 204388 997931 l 0 -5533" class="C1" /><path d="M 173283 873531 c 0 127 103 231 231 231" class="C1" /><path d="M 133377 11837 c 5 -128 11 -256 16 -382 c 17 -399 32 -777 48 -1137 c 24 -579 47 -1111 67 -1572 c 23 -546 42 -991 53 -1251 c 10 -248 14 -328 18 -409" class="C1" /><path d="M 122386 990701 l 0 12 l 0 37 l 0 61 l 0 84 l 0 106 l 0 127 l 0 146 l 0 163" class="C1" /><path d="M 4350 27891 c -321 0 -642 0 -920 0 c -288 0 -531 0 -732 0 c -202 0 -362 0 -456 0 c -91 0 -120 0 -149 0" class="C1" /><path d="M 200209 972109 l 79464 0" class="C1" /><path d="M 67177 977996 c 0 4075 3303 7378 7378 7378" class="C1" /><path d="M 176972 128446 c 0 -204 -183 -382 -421 -409" class="C1" /><path d="M 4350 27891 l -208 -42 l -200 -125 l -183 -203 l -159 -273 l -128 -331 l -92 -376 l -52 -405 l -10 -418" class="C1" /><path d="M 108526 879767 l -918 0" class="C1" /><path d="M 181468 990553 c 195 0 390 0 576 0 c 185 0 361 0 537 0" class="C1" /><path d="M 174205 873531 l 0 -9130" class="C1" /><path d="M 138711 961765 l 1438 0" class="C1" /><path d="M 108526 881878 l -918 0" class="C1" /><path d="M 181629 9299 l -1112 0" class="C1" /><path d="M 159314 997931 c 348 0 898 -277 1482 -747" class="C1" /><path d="M 133086 988311 c 14 267 28 534 42 798 c 34 647 67 1276 86 1643 c 0 5 1 10 1 15" class="C1" /><path d="M 95301 968774 l 0 -92419" class="C1" /></g></svg>