<?xml version='1.0' encoding='utf-8'?>
<svg xmlns="http://www.w3.org/2000/svg" width="450.5mm" height="32.8mm" viewBox="0 0 1000000 72808"><defs><style>.C1 {stroke: #ffff00; stroke-width: 555; stroke-opacity: 1.000; fill: none; fill-opacity: 1.000;}</style><style>.C2 {stroke: #ff00ff; stroke-width: 555; stroke-opacity: 1.000; fill: none; fill-opacity: 1.000;}</style><style>.C3 {stroke: #ffffff; stroke-width: 555; stroke-opacity: 1.000; fill: none; fill-opacity: 1.000;}</style><style>.C4 {stroke: #ff0000; stroke-width: 555; stroke-opacity: 1.000; fill: none; fill-opacity: 1.000;}</style><style>.C5 {stroke: #bf7fff; stroke-width: 555; stroke-opacity: 1.000; fill: none; fill-opacity: 1.000;}</style><style>.C6 {stroke: #00ff00; stroke-width: 555; stroke-opacity: 1.000; fill: none; fill-opacity: 1.000;}</style></defs><g stroke-linecap="round" stroke-linejoin="round" fill-rule="evenodd"><path d="M 936234 58115 l 30875 -0" class="C1" /><path d="M 987624 60888 l -33821 0" class="C2" /><path d="M 982079 55343 l -28276 0" class="C2" /><path d="M 967109 53702 l -13307 0" class="C2" /><path d="M 953614 53891 l -8683 0" class="C2" /><path d="M 953614 62340 l -8683 0" class="C2" /><path d="M 967109 62529 l -13307 0" class="C2" /><path d="M 953803 62529 l 0 -8827" class="C2" /><path d="M 953614 62340 l 0 -8450" class="C2" /><path d="M 953614 62340 l 189 189" class="C2" /><path d="M 953614 53891 l 189 -189" class="C2" /><path d="M 944932 53891 l 0 8450" class="C2" /><path d="M 970159 43423 l -16356 0" class="C2" /><path d="M 999544 72808 l -45741 0" class="C2" /><path d="M 953803 43423 l 0 29385" class="C2" /><path d="M 949729 22631 l 17381 0" class="C1" /><path d="M 967109 58115 c 9799 0 17742 -7943 17742 -17742 c 0 -9799 -7943 -17742 -17742 -17742" class="C1" /><path d="M 967109 62529 c 12236 0 22155 -9919 22155 -22155 c 0 -12236 -9919 -22155 -22155 -22155" class="C2" /><path d="M 967109 53702 c 7361 0 13329 -5967 13329 -13329 c 0 -7361 -5967 -13329 -13329 -13329" class="C2" /><path d="M 967109 27045 l -13307 0" class="C2" /><path d="M 967109 18218 l -13307 0" class="C2" /><path d="M 953803 18218 l 0 8827" class="C2" /><path d="M 999544 7939 l 0 64869" class="C2" /><path d="M 970159 37324 l 0 6099" class="C2" /><path d="M 970159 37324 l -16356 0" class="C2" /><path d="M 953803 37324 l 0 -29385" class="C2" /><path d="M 999544 7939 l -45741 0" class="C2" /><path d="M 999544 7939 l -29385 29385" class="C2" /><path d="M 999544 72808 l -29385 -29385" class="C2" /><path d="M 982079 55343 l 0 -29940" class="C2" /><path d="M 987624 60888 l 0 -41029" class="C2" /><path d="M 987624 19859 l -33821 0" class="C2" /><path d="M 982079 25403 l -28276 0" class="C2" /><path d="M 819078 22631 l 146960 0" class="C1" /><path d="M 829608 18218 l 124194 0" class="C3" /><path d="M 829608 7939 l 133065 0" class="C3" /><path d="M 829608 19859 l 133065 0" class="C3" /><path d="M 829608 37324 l 133065 0" class="C3" /><path d="M 962674 7939 l 0 29385" class="C3" /><path d="M 829608 25403 l 133065 0" class="C3" /><path d="M 953991 18406 l 8683 0" class="C3" /><path d="M 953991 26856 l 8683 0" class="C3" /><path d="M 829608 27045 l 124194 0" class="C3" /><path d="M 953803 27045 l 0 -8827" class="C3" /><path d="M 953991 26856 l -189 189" class="C3" /><path d="M 953991 26856 l 0 -8450" class="C3" /><path d="M 953991 18406 l -189 -189" class="C3" /><path d="M 962674 18406 l 0 8450" class="C3" /><path d="M 829608 18218 l 0 8827" class="C3" /><path d="M 829608 7939 l 0 29385" class="C3" /><path d="M 964333 58115 l -146960 0" class="C1" /><path d="M 953803 53702 l -124194 0" class="C3" /><path d="M 953803 43423 l -133065 0" class="C3" /><path d="M 953803 55343 l -133065 0" class="C3" /><path d="M 953803 72808 l -133065 0" class="C3" /><path d="M 820737 43423 l 0 29385" class="C3" /><path d="M 953803 60888 l -133065 0" class="C3" /><path d="M 829420 53891 l -8683 0" class="C3" /><path d="M 829420 62340 l -8683 0" class="C3" /><path d="M 953803 62529 l -124194 0" class="C3" /><path d="M 829608 62529 l 0 -8827" class="C3" /><path d="M 829420 62340 l 189 189" class="C3" /><path d="M 829420 62340 l 0 -8450" class="C3" /><path d="M 829420 53891 l 189 -189" class="C3" /><path d="M 820737 53891 l 0 8450" class="C3" /><path d="M 953803 53702 l 0 8827" class="C3" /><path d="M 953803 43423 l 0 29385" class="C3" /><path d="M 315089 58115 l -269495 -0" class="C1" /><path d="M 315089 62529 l -257260 0" class="C3" /><path d="M 315089 72808 l -266131 0" class="C3" /><path d="M 315089 60888 l -266131 -0" class="C3" /><path d="M 315089 43423 l -266131 0" class="C3" /><path d="M 48958 72808 l 0 -29385" class="C3" /><path d="M 315089 55343 l -266131 -0" class="C3" /><path d="M 57641 62340 l -8683 0" class="C3" /><path d="M 57641 53891 l -8683 0" class="C3" /><path d="M 315089 53702 l -257260 0" class="C3" /><path d="M 57829 53702 l 0 8827" class="C3" /><path d="M 57641 53891 l 189 -189" class="C3" /><path d="M 57641 53891 l 0 8450" class="C3" /><path d="M 57641 62340 l 189 189" class="C3" /><path d="M 48958 62340 l 0 -8450" class="C3" /><path d="M 572349 58115 l -269495 0" class="C1" /><path d="M 572349 55343 l -266131 0" class="C3" /><path d="M 572349 60888 l -266131 -0" class="C3" /><path d="M 572349 43423 l -266131 0" class="C3" /><path d="M 572349 72808 l -266131 -0" class="C3" /><path d="M 572349 62529 l -257260 0" class="C3" /><path d="M 572349 72808 l 0 -29385" class="C3" /><path d="M 314900 62340 l -8683 0" class="C3" /><path d="M 314900 53891 l -8683 0" class="C3" /><path d="M 572349 53702 l -257260 -0" class="C3" /><path d="M 315089 53702 l 0 8827" class="C3" /><path d="M 314900 53891 l 0 8450" class="C3" /><path d="M 314900 53891 l 189 -189" class="C3" /><path d="M 314900 62340 l 189 189" class="C3" /><path d="M 306218 62340 l 0 -8450" class="C3" /><path d="M 315089 53702 l 0 8827" class="C3" /><path d="M 572349 62529 l 0 -8827" class="C3" /><path d="M 306218 72808 l 0 -29385" class="C3" /><path d="M 315089 72808 l 0 -29385" class="C3" /><path d="M 829608 58115 l -269495 0" class="C1" /><path d="M 829608 55343 l -266131 0" class="C3" /><path d="M 829608 60888 l -266131 0" class="C3" /><path d="M 829608 43423 l -266131 0" class="C3" /><path d="M 829608 72808 l -266131 -0" class="C3" /><path d="M 829608 62529 l -257260 0" class="C3" /><path d="M 563478 72808 l 0 -29385" class="C3" /><path d="M 829608 72808 l 0 -29385" class="C3" /><path d="M 572160 62340 l -8683 0" class="C3" /><path d="M 572160 53891 l -8683 0" class="C3" /><path d="M 829608 53702 l -257260 -0" class="C3" /><path d="M 572349 53702 l 0 8827" class="C3" /><path d="M 572160 53891 l 0 8450" class="C3" /><path d="M 572160 53891 l 189 -189" class="C3" /><path d="M 572160 62340 l 189 189" class="C3" /><path d="M 563478 62340 l 0 -8450" class="C3" /><path d="M 829608 62529 l 0 -8827" class="C3" /><path d="M 57829 22631 l 269495 -0" class="C1" /><path d="M 57829 27045 l 257260 0" class="C4" /><path d="M 57829 37324 l 266131 -0" class="C4" /><path d="M 57829 25403 l 266131 -0" class="C4" /><path d="M 57829 7939 l 266131 0" class="C4" /><path d="M 323960 37324 l 0 -29385" class="C4" /><path d="M 57829 19859 l 266131 -0" class="C4" /><path d="M 315277 26856 l 8683 0" class="C4" /><path d="M 315277 18406 l 8683 0" class="C4" /><path d="M 57829 18218 l 257260 0" class="C4" /><path d="M 315089 18218 l 0 8827" class="C4" /><path d="M 315277 18406 l -189 -189" class="C4" /><path d="M 315277 18406 l 0 8450" class="C4" /><path d="M 315277 26856 l -189 189" class="C4" /><path d="M 323960 26856 l 0 -8450" class="C4" /><path d="M 57829 37324 l 0 -29385" class="C4" /><path d="M 57829 27045 l 0 -8827" class="C4" /><path d="M 572349 22631 l 269495 -0" class="C1" /><path d="M 572349 27045 l 257260 0" class="C3" /><path d="M 572349 37324 l 266131 -0" class="C3" /><path d="M 572349 25403 l 266131 -0" class="C3" /><path d="M 572349 7939 l 266131 0" class="C3" /><path d="M 838479 37324 l 0 -29385" class="C3" /><path d="M 572349 19859 l 266131 -0" class="C3" /><path d="M 829797 26856 l 8683 0" class="C3" /><path d="M 829797 18406 l 8683 0" class="C3" /><path d="M 572349 18218 l 257260 0" class="C3" /><path d="M 829608 18218 l 0 8827" class="C3" /><path d="M 829797 18406 l -189 -189" class="C3" /><path d="M 829797 18406 l 0 8450" class="C3" /><path d="M 829797 26856 l -189 189" class="C3" /><path d="M 838479 26856 l 0 -8450" class="C3" /><path d="M 315089 22631 l 269495 0" class="C1" /><path d="M 315089 19859 l 266131 0" class="C3" /><path d="M 315089 25403 l 266131 -0" class="C3" /><path d="M 315089 7939 l 266131 0" class="C3" /><path d="M 315089 37324 l 266131 -0" class="C3" /><path d="M 315089 27045 l 257260 0" class="C3" /><path d="M 315089 37324 l 0 -29385" class="C3" /><path d="M 572537 26856 l 8683 0" class="C3" /><path d="M 572537 18406 l 8683 0" class="C3" /><path d="M 315089 18218 l 257260 -0" class="C3" /><path d="M 572349 18218 l 0 8827" class="C3" /><path d="M 572537 18406 l 0 8450" class="C3" /><path d="M 572537 18406 l -189 -189" class="C3" /><path d="M 572537 26856 l -189 189" class="C3" /><path d="M 581220 26856 l 0 -8450" class="C3" /><path d="M 572349 18218 l 0 8827" class="C3" /><path d="M 315089 27045 l 0 -8827" class="C3" /><path d="M 581220 37324 l 0 -29385" class="C3" /><path d="M 572349 37324 l 0 -29385" class="C3" /><path d="M 3411 22631 l 64311 0" class="C1" /><path d="M 31166 15133 c 88 -26 149 -107 149 -199" class="C5" /><path d="M 31315 12380 c 0 -92 -61 -173 -149 -199" class="C5" /><path d="M 40731 14935 c 0 78 44 150 114 185 c 70 35 154 28 217 -19" class="C5" /><path d="M 41062 12214 c -63 -47 -147 -54 -217 -19 c -70 35 -114 107 -114 185" class="C5" /><path d="M 31384 14831 c -38 0 -69 31 -69 69" class="C5" /><path d="M 31315 12415 c 0 38 31 69 69 69" class="C5" /><path d="M 40731 14900 c 0 -38 -31 -69 -69 -69" class="C5" /><path d="M 40662 12484 c 38 0 69 -31 69 -69" class="C5" /><path d="M 38798 14831 l 1864 0" class="C5" /><path d="M 40662 12484 l -1864 0" class="C5" /><path d="M 31384 14831 l 1864 0" class="C5" /><path d="M 33248 12484 l -1864 0" class="C5" /><path d="M 33248 14693 l 5550 0" class="C5" /><path d="M 38798 12622 l -5550 0" class="C5" /><path d="M 7221 24496 l 80 0" class="C5" /><path d="M 7301 20768 l -80 0" class="C5" /><path d="M 6876 24355 l 207 0" class="C5" /><path d="M 7083 20909 l -207 0" class="C5" /><path d="M 7083 24151 l 138 0" class="C5" /><path d="M 7221 21113 l -138 0" class="C5" /><path d="M 6876 23989 c 0 -29 -18 -55 -45 -65" class="C5" /><path d="M 6831 21340 c 27 -10 45 -36 45 -65" class="C5" /><path d="M 6831 21340 l -772 283" class="C5" /><path d="M 6059 23641 l 772 283" class="C5" /><path d="M 6059 23641 c -8 -3 -16 -4 -24 -4" class="C5" /><path d="M 6035 21627 c 8 0 16 -1 24 -4" class="C5" /><path d="M 5219 23637 l 816 0" class="C5" /><path d="M 6035 21627 l -816 0" class="C5" /><path d="M 5219 21693 l -1105 0" class="C5" /><path d="M 4115 23571 l 1105 0" class="C5" /><path d="M 2389 21700 l -1657 0" class="C5" /><path d="M 732 23564 l 1657 0" class="C5" /><path d="M 732 21700 l -276 276" class="C5" /><path d="M 456 23288 l 276 276" class="C5" /><path d="M 5495 8618 l 276 0" class="C5" /><path d="M 5771 6823 l -276 0" class="C5" /><path d="M 5219 8342 c 0 153 124 276 276 276" class="C5" /><path d="M 5495 6823 c -153 0 -276 124 -276 276" class="C5" /><path d="M 6738 8480 l 414 0" class="C5" /><path d="M 7152 6961 l -414 0" class="C5" /><path d="M 7301 6685 l -11 0" class="C5" /><path d="M 7290 8756 l 11 0" class="C5" /><path d="M 3259 29422 c -61 0 -110 49 -110 110" class="C5" /><path d="M 3148 38010 c 0 61 49 110 110 110" class="C5" /><path d="M 3259 38120 l 3203 0" class="C5" /><path d="M 6462 29422 l -3203 0" class="C5" /><path d="M 6705 29143 l -243 0" class="C5" /><path d="M 6462 38399 l 240 0" class="C5" /><path d="M 31166 18029 c 105 131 263 207 431 207" class="C5" /><path d="M 31596 27027 c -150 0 -294 61 -398 169" class="C5" /><path d="M 41145 18235 l -9549 0" class="C6" /><path d="M 57829 18235 l -6743 0" class="C6" /><path d="M 31596 27027 l 26233 0" class="C6" /><path d="M 57829 27027 l 188 -188" class="C6" /><path d="M 58017 18423 l -188 -188" class="C6" /><path d="M 66665 18423 l -8648 0" class="C6" /><path d="M 58017 26839 l 8648 0" class="C6" /><path d="M 31166 40640 l 0 -5290" class="C5" /><path d="M 7301 35350 l 0 5290" class="C5" /><path d="M 7301 438 l 0 5290" class="C5" /><path d="M 31166 5728 l 0 -5290" class="C5" /><path d="M 7301 28980 l -8 0" class="C5" /><path d="M 31458 17685 l -144 0" class="C5" /><path d="M 31458 17685 l 0 351" class="C5" /><path d="M 31458 18036 l -287 0" class="C5" /><path d="M 31458 17268 l -144 0" class="C5" /><path d="M 31458 17268 l 0 418" class="C5" /><path d="M 31458 17201 l -144 0" class="C5" /><path d="M 31458 17201 l 0 67" class="C5" /><path d="M 31458 28101 l -293 0" class="C5" /><path d="M 31458 28092 l 0 9" class="C5" /><path d="M 31315 17263 l -149 0" class="C5" /><path d="M 31315 17263 l 0 420" class="C5" /><path d="M 31315 17683 l -149 0" class="C5" /><path d="M 31315 18030 l -149 0" class="C5" /><path d="M 31315 17683 l 0 347" class="C5" /><path d="M 31315 17190 l -149 0" class="C5" /><path d="M 31315 17190 l 0 73" class="C5" /><path d="M 31458 27446 l -293 0" class="C5" /><path d="M 31458 27446 l 0 448" class="C5" /><path d="M 31458 27894 l -293 0" class="C5" /><path d="M 31458 27196 l -293 0" class="C5" /><path d="M 31458 27196 l 0 250" class="C5" /><path d="M 31458 28092 l -293 0" class="C5" /><path d="M 31458 27894 l 0 198" class="C5" /><path d="M 31458 22425 l -293 0" class="C5" /><path d="M 31458 22425 l 0 448" class="C5" /><path d="M 31458 22873 l -293 0" class="C5" /><path d="M 31458 22175 l -293 0" class="C5" /><path d="M 31458 22175 l 0 250" class="C5" /><path d="M 31458 23071 l -293 0" class="C5" /><path d="M 31458 22873 l 0 198" class="C5" /><path d="M 41062 14255 l 10148 0" class="C5" /><path d="M 41062 14255 l 0 -3314" class="C5" /><path d="M 41062 10941 l 10148 0" class="C5" /><path d="M 51210 14255 l 0 -3314" class="C5" /><path d="M 41062 15360 l 0 -1105" class="C5" /><path d="M 51210 15360 l 0 -1105" class="C5" /><path d="M 41062 15360 l 10148 0" class="C5" /><path d="M 51117 18235 l 0 -2876" class="C5" /><path d="M 51210 18235 l 0 -2876" class="C5" /><path d="M 41062 18235 l 0 -2876" class="C5" /><path d="M 41145 22632 l 9941 0" class="C5" /><path d="M 41145 22632 l 0 -7179" class="C5" /><path d="M 41145 15452 l 9941 0" class="C5" /><path d="M 51086 22632 l 0 -7179" class="C5" /><path d="M 50993 15452 l 0 -93" class="C5" /><path d="M 41238 15360 l 0 93" class="C5" /><path d="M 51086 15452 l 0 -93" class="C5" /><path d="M 41145 15452 l 0 -93" class="C5" /><path d="M 31315 13658 l 0 -1277" class="C5" /><path d="M 31315 14935 l 0 -1277" class="C5" /><path d="M 40731 13658 l 0 -1277" class="C5" /><path d="M 40731 14935 l 0 -1277" class="C5" /><path d="M 38798 13658 l 0 -1174" class="C5" /><path d="M 38798 14831 l 0 -1174" class="C5" /><path d="M 33248 13658 l 0 -1174" class="C5" /><path d="M 33248 14831 l 0 -1174" class="C5" /><path d="M 7221 24496 l 0 -3728" class="C5" /><path d="M 6876 24355 l 0 -3446" class="C5" /><path d="M 7083 24355 l 0 -3446" class="C5" /><path d="M 2389 22666 l 1726 0" class="C5" /><path d="M 2389 22666 l 0 -69" class="C5" /><path d="M 2389 22597 l 1726 0" class="C5" /><path d="M 4115 22666 l 0 -69" class="C5" /><path d="M 2389 21650 l 1726 0" class="C5" /><path d="M 2389 22597 l 0 -947" class="C5" /><path d="M 4115 22597 l 0 -947" class="C5" /><path d="M 2389 23614 l 1726 0" class="C5" /><path d="M 2389 23614 l 0 -947" class="C5" /><path d="M 4115 23614 l 0 -947" class="C5" /><path d="M 5219 23637 l 0 -2010" class="C5" /><path d="M 732 21700 l 0 1864" class="C5" /><path d="M 456 23288 l 0 -1312" class="C5" /><path d="M 2389 23648 l 1726 0" class="C5" /><path d="M 2389 23648 l 0 -35" class="C5" /><path d="M 4115 23648 l 0 -35" class="C5" /><path d="M 2389 21615 l 1726 0" class="C5" /><path d="M 2389 21650 l 0 -35" class="C5" /><path d="M 4115 21650 l 0 -35" class="C5" /><path d="M 7279 7781 l -127 0" class="C5" /><path d="M 7301 8573 l -149 0" class="C5" /><path d="M 7152 7781 l 0 792" class="C5" /><path d="M 6738 7781 l -966 0" class="C5" /><path d="M 6738 7781 l 0 792" class="C5" /><path d="M 6738 8573 l -966 0" class="C5" /><path d="M 5771 7781 l 0 792" class="C5" /><path d="M 6738 7661 l -966 0" class="C5" /><path d="M 5771 7661 l 0 120" class="C5" /><path d="M 6738 7661 l 0 120" class="C5" /><path d="M 7279 7661 l -127 0" class="C5" /><path d="M 7152 7661 l 0 120" class="C5" /><path d="M 6738 6869 l -966 0" class="C5" /><path d="M 5771 6869 l 0 792" class="C5" /><path d="M 6738 6869 l 0 792" class="C5" /><path d="M 7301 6869 l -149 0" class="C5" /><path d="M 7152 6869 l 0 792" class="C5" /><path d="M 5219 7721 l 0 -621" class="C5" /><path d="M 5219 8342 l 0 -621" class="C5" /><path d="M 7301 8632 l -149 0" class="C5" /><path d="M 7152 8573 l 0 60" class="C5" /><path d="M 6738 8632 l -966 0" class="C5" /><path d="M 5771 8573 l 0 60" class="C5" /><path d="M 6738 8573 l 0 60" class="C5" /><path d="M 7301 6809 l -149 0" class="C5" /><path d="M 7152 6809 l 0 60" class="C5" /><path d="M 6738 6809 l -966 0" class="C5" /><path d="M 5771 6809 l 0 60" class="C5" /><path d="M 6738 6809 l 0 60" class="C5" /><path d="M 7301 30201 l -839 0" class="C5" /><path d="M 7301 37349 l -839 0" class="C5" /><path d="M 6462 37349 l 0 -7148" class="C5" /><path d="M 3148 38010 l 0 -8477" class="C5" /><path d="M 6462 30201 l 828 -1010" class="C5" /><path d="M 7301 29191 l -11 0" class="C5" /><path d="M 6462 29440 l 828 -1010" class="C5" /><path d="M 7290 28429 l 0 104" class="C5" /><path d="M 7290 28533 l -776 945" class="C5" /><path d="M 6514 30033 c 31 -184 31 -371 -0 -555" class="C5" /><path d="M 6514 30033 l 776 -946" class="C5" /><path d="M 7290 29087 l 0 104" class="C5" /><path d="M 6462 29440 l 0 761" class="C5" /><path d="M 7301 28533 l -11 0" class="C5" /><path d="M 7301 28429 l -11 0" class="C5" /><path d="M 7301 29087 l -11 0" class="C5" /><path d="M 7290 39015 l 0 103" class="C5" /><path d="M 7290 38464 l -776 -949" class="C5" /><path d="M 6514 38067 c 31 -183 31 -370 -0 -553" class="C5" /><path d="M 6514 38067 l 776 947" class="C5" /><path d="M 6462 38106 l 828 1012" class="C5" /><path d="M 6966 38067 l -452 0" class="C5" /><path d="M 6969 29478 l -455 0" class="C5" /><path d="M 6462 29440 l 0 -297" class="C5" /><path d="M 6462 38399 l 0 -293" class="C5" /><path d="M 57829 18235 l 0 8792" class="C6" /><path d="M 58017 18423 l 0 8417" class="C6" /><path d="M 66665 18423 l 0 8417" class="C6" /><path d="M 7301 35125 l 0 -9815" class="C5" /><path d="M 7646 35594 l 0 -469" class="C5" /><path d="M 7301 35350 c 32 160 183 266 345 244" class="C5" /><path d="M 7301 35350 c 0 -4 0 -8 0 -11 c 0 -4 0 -8 0 -12 c 0 -4 0 -8 0 -12 c 0 -4 0 -8 0 -13 c 0 -4 0 -9 0 -13 c 0 -4 0 -9 0 -14 c 0 -5 0 -9 0 -14 c 0 -5 0 -10 0 -14 c 0 -10 0 -20 0 -30 c 0 -10 0 -20 0 -30 c 0 -10 0 -20 0 -31 c 0 -10 0 -21 0 -31" class="C5" /><path d="M 30821 35594 l 0 -469" class="C5" /><path d="M 7646 35594 l 23175 0" class="C5" /><path d="M 31166 35125 c 0 -3117 0 -6234 0 -9815" class="C5" /><path d="M 31166 35350 c -0 -3 -0 -7 -0 -10 c 0 -3 0 -7 -0 -11 c -0 -4 -0 -7 -0 -11 c -0 -4 -0 -8 -0 -12 c -0 -4 -0 -8 -0 -12 c -0 -3 0 -5 0 -8 c 0 -8 0 -15 0 -23 c 0 -5 0 -11 0 -16 c -0 -6 -0 -11 -0 -17 c -0 -8 -0 -17 -0 -26 c -0 -9 -0 -17 -0 -26 c 0 -9 0 -18 0 -27 c 0 -9 0 -18 0 -27" class="C5" /><path d="M 30821 35594 c 161 23 312 -84 345 -244" class="C5" /><path d="M 31166 40640 l 0 -5290" class="C5" /><path d="M 7301 40640 l 0 -5290" class="C5" /><path d="M 31166 40733 c -0 -0 -0 -0 -0 -0 c 0 -0 0 -1 -0 -1 c -0 -0 -0 -1 -0 -2 c -0 -1 -0 -1 -0 -2 c -0 -1 -0 -2 -0 -3 c -0 -1 0 -1 0 -2 c 0 -2 0 -5 0 -8 c 0 -2 0 -4 0 -6 c -0 -2 -0 -5 -0 -7 c -0 -4 -0 -8 -0 -13 c -0 -5 -0 -9 -0 -15 c 0 -5 0 -11 0 -16 c 0 -6 0 -12 0 -18" class="C5" /><path d="M 7301 40733 c 0 -0 0 -0 0 -0 c 0 -0 0 -1 0 -1 c 0 -1 0 -1 0 -2 c 0 -1 0 -2 0 -3 c 0 -1 0 -2 0 -3 c 0 -1 0 -3 0 -4 c 0 -2 0 -3 0 -5 c 0 -2 0 -4 0 -6 c 0 -4 0 -8 0 -13 c 0 -5 0 -10 0 -16 c 0 -6 0 -12 0 -19 c 0 -7 0 -14 0 -21" class="C5" /><path d="M 7301 40733 c -0 91 36 179 101 244 c 65 65 152 101 244 101" class="C5" /><path d="M 30821 41077 l -23175 0" class="C5" /><path d="M 30821 41077 c 190 0 345 -154 345 -345" class="C5" /><path d="M 31166 5952 l 0 9351" class="C5" /><path d="M 30821 5484 l 0 469" class="C5" /><path d="M 31166 5728 c -32 -160 -183 -266 -345 -244" class="C5" /><path d="M 31166 5728 c 0 33 0 66 0 103 c 0 37 0 80 0 122" class="C5" /><path d="M 7646 5484 l 0 469" class="C5" /><path d="M 30821 5484 l -23175 0" class="C5" /><path d="M 7301 5952 c 0 390 0 779 0 1169 c 0 390 -0 779 0 1169 c 0 390 -0 779 0 1169 c 0 390 -0 779 0 1169 c 0 390 0 779 0 1169 c 0 390 -0 779 0 1169 c 0 390 0 779 0 1169 c -0 390 0 779 0 1169" class="C5" /><path d="M 7301 5728 c 0 33 0 66 0 103 c 0 38 0 80 0 122" class="C5" /><path d="M 7646 5484 c -161 -23 -312 84 -345 244" class="C5" /><path d="M 7301 438 l 0 5290" class="C5" /><path d="M 31166 438 l 0 5290" class="C5" /><path d="M 7301 345 c 0 4 0 9 0 24 c 0 16 0 42 0 69" class="C5" /><path d="M 31166 345 c -0 4 -0 9 -0 24 c 0 16 0 42 0 69" class="C5" /><path d="M 7646 0 l 23175 0" class="C5" /><path d="M 31166 345 c 0 -91 -36 -179 -101 -244 c -65 -65 -152 -101 -244 -101" class="C5" /><path d="M 7646 0 c -190 0 -345 154 -345 345" class="C5" /><path d="M 8851 26632 l 0 -1321" class="C5" /><path d="M 8851 15303 l 0 -857" class="C5" /><path d="M 8884 20647 l 0 -153" class="C5" /><path d="M 8884 20495 l 0 -65" class="C5" /><path d="M 8884 20430 c -6 -53 -17 -105 -33 -158" class="C5" /><path d="M 8851 20272 l 0 -4969" class="C5" /><path d="M 8851 25310 l 0 -4505" class="C5" /><path d="M 8851 20805 c 16 -53 27 -105 33 -158" class="C5" /><path d="M 29583 20430 l 0 65" class="C5" /><path d="M 29583 20495 l 0 153" class="C5" /><path d="M 29583 20647 c 6 53 17 105 33 158" class="C5" /><path d="M 29616 20805 l 0 4505" class="C5" /><path d="M 29616 15303 l 0 4969" class="C5" /><path d="M 29616 20272 c -16 53 -27 105 -33 158" class="C5" /><path d="M 29616 14446 l 0 857" class="C5" /><path d="M 29616 25310 l 0 1321" class="C5" /><path d="M 9295 14112 l 19877 0" class="C5" /><path d="M 9295 26966 l 19877 0" class="C5" /><path d="M 29172 26966 c 261 -0 444 -138 444 -334" class="C5" /><path d="M 29616 14446 c -0 -196 -183 -334 -444 -334" class="C5" /><path d="M 8851 26632 c 0 196 183 334 444 334" class="C5" /><path d="M 9295 14112 c -261 0 -444 138 -444 334" class="C5" /><path d="M 30821 15303 l 0 10007" class="C5" /><path d="M 7646 25310 l 0 -10007" class="C5" /><path d="M 31166 25310 l 0 -10007" class="C5" /><path d="M 7301 15303 l 0 10007" class="C5" /><path d="M 31166 29622 l 22 0" class="C5" /><path d="M 31188 29441 l -22 0" class="C5" /><path d="M 31188 29441 l 0 181" class="C5" /><path d="M 31188 29732 l -22 0" class="C5" /><path d="M 31188 29732 l 0 180" class="C5" /><path d="M 31166 29913 l 22 0" class="C5" /><path d="M 31166 29731 l 22 0" class="C5" /><path d="M 31188 29732 l 0 -1" class="C5" /><path d="M 31166 29440 l 22 0" class="C5" /><path d="M 31188 29440 l 0 1" class="C5" /><path d="M 7293 38464 l 0 106" class="C5" /><path d="M 7072 38269 l 59 0" class="C5" /><path d="M 7072 38269 l 0 -72" class="C5" /><path d="M 7293 38510 l -221 0" class="C5" /><path d="M 7072 38510 l 0 -240" class="C5" /><path d="M 7293 28980 l 0 107" class="C5" /><path d="M 7116 29114 l -44 0" class="C5" /><path d="M 7116 29114 l 0 -56" class="C5" /><path d="M 7293 29058 l -177 0" class="C5" /><path d="M 7072 29298 l 45 0" class="C5" /><path d="M 7072 29298 l 0 -184" class="C5" /><path d="M 7072 29353 l 0 -55" class="C5" /><path d="M 7072 29054 l 44 0" class="C5" /><path d="M 7072 29054 l 0 -14" class="C5" /><path d="M 7293 29040 l -221 0" class="C5" /><path d="M 7116 29058 l 0 -4" class="C5" /><path d="M 7072 29054 l 0 60" class="C5" /><path d="M 7301 7546 l -22 0" class="C5" /><path d="M 7301 7730 l -22 0" class="C5" /><path d="M 7279 7730 l 0 -184" class="C5" /><path d="M 7301 7970 l -22 0" class="C5" /><path d="M 7279 7970 l 0 -240" class="C5" /><path d="M 7279 7485 l 22 0" class="C5" /><path d="M 7279 7485 l 0 -14" class="C5" /><path d="M 7301 7472 l -22 0" class="C5" /><path d="M 7279 7485 l 0 60" class="C5" /><path d="M 7301 11412 l -22 0" class="C5" /><path d="M 7301 11595 l -22 0" class="C5" /><path d="M 7279 11595 l 0 -184" class="C5" /><path d="M 7301 11836 l -22 0" class="C5" /><path d="M 7279 11836 l 0 -240" class="C5" /><path d="M 7279 11351 l 22 0" class="C5" /><path d="M 7279 11351 l 0 -14" class="C5" /><path d="M 7301 11337 l -22 0" class="C5" /><path d="M 7279 11351 l 0 60" class="C5" /><path d="M 11226 25498 c 0 159 129 287 287 287" class="C5" /><path d="M 11226 15579 l 0 9919" class="C5" /><path d="M 11513 15292 c -159 0 -287 129 -287 287" class="C5" /><path d="M 26954 15292 l -15441 0" class="C5" /><path d="M 27241 15579 c 0 -159 -129 -287 -287 -287" class="C5" /><path d="M 27241 25509 l 0 -9930" class="C5" /><path d="M 26965 25785 c 153 0 276 -124 276 -276" class="C5" /><path d="M 11513 25785 l 15452 0" class="C5" /><path d="M 31384 13658 l 0 -1174" class="C5" /><path d="M 31384 14831 l 0 -1174" class="C5" /><path d="M 40662 13658 l 0 -1174" class="C5" /><path d="M 40662 14831 l 0 -1174" class="C5" /><path d="M 6831 23924 l 0 -2585" class="C5" /><path d="M 6059 23641 l 0 -2019" class="C5" /><path d="M 6035 23637 l 0 -2010" class="C5" /><path d="M 5495 7721 l 0 -897" class="C5" /><path d="M 5495 8618 l 0 -897" class="C5" /><path d="M 31596 18235 l 0 8792" class="C5" /><path d="M 7646 25310 l 0 9815" class="C5" /><path d="M 30821 35125 l 0 -9815" class="C5" /><path d="M 30821 15303 l 0 -9351" class="C5" /><path d="M 7646 5952 l 0 9351" class="C5" /></g></svg>