<?xml version='1.0' encoding='utf-8'?>
<svg xmlns="http://www.w3.org/2000/svg" width="264.3mm" height="18.5mm" viewBox="0 0 1000000 69996"><defs><style>.C1 {stroke: #ffff00; stroke-width: 946; stroke-opacity: 1.000; fill: none; fill-opacity: 1.000;}</style><style>.C2 {stroke: #bf7fff; stroke-width: 946; stroke-opacity: 1.000; fill: none; fill-opacity: 1.000;}</style><style>.C3 {stroke: #00ff00; stroke-width: 946; stroke-opacity: 1.000; fill: none; fill-opacity: 1.000;}</style><style>.C4 {stroke: #ff0000; stroke-width: 946; stroke-opacity: 1.000; fill: none; fill-opacity: 1.000;}</style><style>.C5 {stroke: #ff00ff; stroke-width: 946; stroke-opacity: 1.000; fill: none; fill-opacity: 1.000;}</style><style>.C6 {stroke: #ffffff; stroke-width: 946; stroke-opacity: 1.000; fill: none; fill-opacity: 1.000;}</style></defs><g stroke-linecap="round" stroke-linejoin="round" fill-rule="evenodd"><path d="M 5560 38564 l 109586 0" class="C1" /><path d="M 52855 25787 c 151 -44 254 -182 254 -339" class="C2" /><path d="M 53109 21096 c 0 -157 -104 -295 -254 -339" class="C2" /><path d="M 69154 25449 c 0 133 75 256 195 315 c 119 60 262 47 369 -32" class="C2" /><path d="M 69718 20813 c -107 -80 -250 -92 -369 -32 c -119 60 -195 182 -195 315" class="C2" /><path d="M 53227 25272 c -65 0 -118 53 -118 118" class="C2" /><path d="M 53109 21155 c 0 65 53 118 118 118" class="C2" /><path d="M 69154 25390 c 0 -65 -53 -118 -118 -118" class="C2" /><path d="M 69036 21273 c 65 0 118 -53 118 -118" class="C2" /><path d="M 65860 25272 l 3176 0" class="C2" /><path d="M 69036 21273 l -3176 0" class="C2" /><path d="M 53227 25272 l 3176 0" class="C2" /><path d="M 56403 21273 l -3176 0" class="C2" /><path d="M 56403 25037 l 9458 0" class="C2" /><path d="M 65860 21508 l -9458 0" class="C2" /><path d="M 12053 41741 l 136 0" class="C2" /><path d="M 12190 35389 l -136 0" class="C2" /><path d="M 11465 41501 l 353 0" class="C2" /><path d="M 11818 35629 l -353 0" class="C2" /><path d="M 11818 41153 l 235 0" class="C2" /><path d="M 12053 35977 l -235 0" class="C2" /><path d="M 11465 40877 c 0 -49 -31 -93 -77 -110" class="C2" /><path d="M 11388 36363 c 46 -17 77 -61 77 -110" class="C2" /><path d="M 11388 36363 l -1315 482" class="C2" /><path d="M 10073 40285 l 1315 482" class="C2" /><path d="M 10073 40285 c -13 -5 -27 -7 -40 -7" class="C2" /><path d="M 10033 36852 c 14 0 28 -2 40 -7" class="C2" /><path d="M 8642 40277 l 1391 0" class="C2" /><path d="M 10033 36852 l -1391 0" class="C2" /><path d="M 8642 36965 l -1882 0" class="C2" /><path d="M 6760 40165 l 1882 0" class="C2" /><path d="M 3819 36977 l -2823 0" class="C2" /><path d="M 996 40153 l 2823 0" class="C2" /><path d="M 996 36977 l -471 471" class="C2" /><path d="M 525 39682 l 471 471" class="C2" /><path d="M 9112 14685 l 471 0" class="C2" /><path d="M 9583 11627 l -471 0" class="C2" /><path d="M 8642 14215 c 0 260 211 471 471 471" class="C2" /><path d="M 9112 11627 c -260 0 -471 211 -471 471" class="C2" /><path d="M 11230 14450 l 706 0" class="C2" /><path d="M 11936 11862 l -706 0" class="C2" /><path d="M 12190 11392 l -19 0" class="C2" /><path d="M 12171 14921 l 19 0" class="C2" /><path d="M 5301 50135 c -104 0 -188 84 -188 188" class="C2" /><path d="M 5113 64769 c 0 104 84 188 188 188" class="C2" /><path d="M 5301 64957 l 5458 0" class="C2" /><path d="M 10759 50135 l -5458 0" class="C2" /><path d="M 11174 49660 l -414 0" class="C2" /><path d="M 10759 65432 l 408 0" class="C2" /><path d="M 52855 30721 c 179 223 449 352 734 352" class="C2" /><path d="M 53589 46055 c -256 0 -500 104 -678 288" class="C2" /><path d="M 69860 31073 l -16271 0" class="C3" /><path d="M 98289 31073 l -11490 0" class="C3" /><path d="M 53589 46055 l 44700 0" class="C3" /><path d="M 98289 46055 l 320 -320" class="C3" /><path d="M 98609 31393 l -320 -320" class="C3" /><path d="M 113346 31393 l -14737 0" class="C3" /><path d="M 98609 45735 l 14737 0" class="C3" /><path d="M 52855 69250 l 0 -9014" class="C2" /><path d="M 12190 60237 l 0 9014" class="C2" /><path d="M 12190 746 l 0 9014" class="C2" /><path d="M 52855 9760 l 0 -9014" class="C2" /><path d="M 12190 49382 l -14 0" class="C2" /><path d="M 53354 30136 l -245 0" class="C2" /><path d="M 53354 30136 l 0 598" class="C2" /><path d="M 53354 30733 l -488 0" class="C2" /><path d="M 53354 29424 l -245 0" class="C2" /><path d="M 53354 29424 l 0 712" class="C2" /><path d="M 53354 29310 l -245 0" class="C2" /><path d="M 53354 29310 l 0 114" class="C2" /><path d="M 53354 47884 l -499 0" class="C2" /><path d="M 53354 47869 l 0 16" class="C2" /><path d="M 53109 29416 l -254 0" class="C2" /><path d="M 53109 29416 l 0 716" class="C2" /><path d="M 53109 30132 l -254 0" class="C2" /><path d="M 53109 30723 l -254 0" class="C2" /><path d="M 53109 30132 l 0 591" class="C2" /><path d="M 53109 29292 l -254 0" class="C2" /><path d="M 53109 29292 l 0 125" class="C2" /><path d="M 53354 46769 l -499 0" class="C2" /><path d="M 53354 46769 l 0 763" class="C2" /><path d="M 53354 47531 l -499 0" class="C2" /><path d="M 53354 46343 l -499 0" class="C2" /><path d="M 53354 46343 l 0 426" class="C2" /><path d="M 53354 47869 l -499 0" class="C2" /><path d="M 53354 47531 l 0 337" class="C2" /><path d="M 53354 38212 l -499 0" class="C2" /><path d="M 53354 38212 l 0 763" class="C2" /><path d="M 53354 38975 l -499 0" class="C2" /><path d="M 53354 37786 l -499 0" class="C2" /><path d="M 53354 37786 l 0 426" class="C2" /><path d="M 53354 39312 l -499 0" class="C2" /><path d="M 53354 38975 l 0 337" class="C2" /><path d="M 69718 24291 l 17292 0" class="C2" /><path d="M 69718 24291 l 0 -5646" class="C2" /><path d="M 69718 18644 l 17292 0" class="C2" /><path d="M 87010 24291 l 0 -5646" class="C2" /><path d="M 69718 26173 l 0 -1882" class="C2" /><path d="M 87010 26173 l 0 -1882" class="C2" /><path d="M 69718 26173 l 17292 0" class="C2" /><path d="M 86852 31073 l 0 -4900" class="C2" /><path d="M 87010 31073 l 0 -4900" class="C2" /><path d="M 69718 31073 l 0 -4900" class="C2" /><path d="M 69860 38565 l 16939 0" class="C2" /><path d="M 69860 38565 l 0 -12234" class="C2" /><path d="M 69860 26331 l 16939 0" class="C2" /><path d="M 86799 38565 l 0 -12234" class="C2" /><path d="M 86641 26331 l 0 -158" class="C2" /><path d="M 70018 26173 l 0 158" class="C2" /><path d="M 86799 26331 l 0 -158" class="C2" /><path d="M 69860 26331 l 0 -158" class="C2" /><path d="M 53109 23272 l 0 -2176" class="C2" /><path d="M 53109 25449 l 0 -2176" class="C2" /><path d="M 69154 23272 l 0 -2176" class="C2" /><path d="M 69154 25449 l 0 -2176" class="C2" /><path d="M 65860 23272 l 0 -2000" class="C2" /><path d="M 65860 25272 l 0 -2000" class="C2" /><path d="M 56403 23272 l 0 -2000" class="C2" /><path d="M 56403 25272 l 0 -2000" class="C2" /><path d="M 12053 41741 l 0 -6352" class="C2" /><path d="M 11465 41501 l 0 -5872" class="C2" /><path d="M 11818 41501 l 0 -5872" class="C2" /><path d="M 3819 38624 l 2941 0" class="C2" /><path d="M 3819 38624 l 0 -118" class="C2" /><path d="M 3819 38506 l 2941 0" class="C2" /><path d="M 6760 38624 l 0 -118" class="C2" /><path d="M 3819 36892 l 2941 0" class="C2" /><path d="M 3819 38506 l 0 -1614" class="C2" /><path d="M 6760 38506 l 0 -1614" class="C2" /><path d="M 3819 40238 l 2941 0" class="C2" /><path d="M 3819 40238 l 0 -1614" class="C2" /><path d="M 6760 40238 l 0 -1614" class="C2" /><path d="M 8642 40277 l 0 -3425" class="C2" /><path d="M 996 36977 l 0 3176" class="C2" /><path d="M 525 39682 l 0 -2235" class="C2" /><path d="M 3819 40297 l 2941 0" class="C2" /><path d="M 3819 40297 l 0 -59" class="C2" /><path d="M 6760 40297 l 0 -59" class="C2" /><path d="M 3819 36833 l 2941 0" class="C2" /><path d="M 3819 36892 l 0 -59" class="C2" /><path d="M 6760 36892 l 0 -59" class="C2" /><path d="M 12152 13258 l -216 0" class="C2" /><path d="M 12190 14608 l -254 0" class="C2" /><path d="M 11936 13258 l 0 1350" class="C2" /><path d="M 11230 13258 l -1647 0" class="C2" /><path d="M 11230 13258 l 0 1350" class="C2" /><path d="M 11230 14608 l -1647 0" class="C2" /><path d="M 9583 13258 l 0 1350" class="C2" /><path d="M 11230 13054 l -1647 0" class="C2" /><path d="M 9583 13054 l 0 204" class="C2" /><path d="M 11230 13054 l 0 204" class="C2" /><path d="M 12152 13054 l -216 0" class="C2" /><path d="M 11936 13054 l 0 204" class="C2" /><path d="M 11230 11705 l -1647 0" class="C2" /><path d="M 9583 11705 l 0 1350" class="C2" /><path d="M 11230 11705 l 0 1350" class="C2" /><path d="M 12190 11705 l -254 0" class="C2" /><path d="M 11936 11705 l 0 1350" class="C2" /><path d="M 8642 13156 l 0 -1059" class="C2" /><path d="M 8642 14215 l 0 -1059" class="C2" /><path d="M 12190 14710 l -254 0" class="C2" /><path d="M 11936 14608 l 0 102" class="C2" /><path d="M 11230 14710 l -1647 0" class="C2" /><path d="M 9583 14608 l 0 102" class="C2" /><path d="M 11230 14608 l 0 102" class="C2" /><path d="M 12190 11603 l -254 0" class="C2" /><path d="M 11936 11603 l 0 102" class="C2" /><path d="M 11230 11603 l -1647 0" class="C2" /><path d="M 9583 11603 l 0 102" class="C2" /><path d="M 11230 11603 l 0 102" class="C2" /><path d="M 12190 51462 l -1430 0" class="C2" /><path d="M 12190 63642 l -1430 0" class="C2" /><path d="M 10759 63642 l 0 -12180" class="C2" /><path d="M 5113 64769 l 0 -14445" class="C2" /><path d="M 10759 51462 l 1412 -1721" class="C2" /><path d="M 12190 49741 l -19 0" class="C2" /><path d="M 10759 50165 l 1412 -1721" class="C2" /><path d="M 12171 48444 l 0 177" class="C2" /><path d="M 12171 48621 l -1323 1610" class="C2" /><path d="M 10849 51176 c 53 -313 53 -632 -1 -945" class="C2" /><path d="M 10849 51176 l 1322 -1612" class="C2" /><path d="M 12171 49564 l 0 177" class="C2" /><path d="M 10759 50165 l 0 1297" class="C2" /><path d="M 12190 48621 l -19 0" class="C2" /><path d="M 12190 48444 l -19 0" class="C2" /><path d="M 12190 49564 l -19 0" class="C2" /><path d="M 12171 66481 l 0 176" class="C2" /><path d="M 12171 65542 l -1323 -1617" class="C2" /><path d="M 10849 64867 c 53 -312 53 -630 -1 -942" class="C2" /><path d="M 10849 64867 l 1322 1614" class="C2" /><path d="M 10759 64933 l 1412 1724" class="C2" /><path d="M 11618 64867 l -770 0" class="C2" /><path d="M 11624 50231 l -776 0" class="C2" /><path d="M 10759 50165 l 0 -505" class="C2" /><path d="M 10759 65432 l 0 -499" class="C2" /><path d="M 98289 31073 l 0 14982" class="C3" /><path d="M 98609 31393 l 0 14342" class="C3" /><path d="M 113346 31393 l 0 14342" class="C3" /><path d="M 12190 59853 l 0 -16724" class="C2" /><path d="M 12777 60652 l 0 -799" class="C2" /><path d="M 12190 60237 c 55 272 312 454 587 415" class="C2" /><path d="M 12190 60237 c 0 -6 0 -13 0 -19 c 0 -7 0 -13 0 -20 c 0 -7 0 -14 0 -21 c 0 -7 0 -14 0 -22 c 0 -7 0 -15 0 -22 c 0 -8 0 -15 0 -23 c 0 -8 0 -16 0 -24 c 0 -8 0 -16 0 -25 c -0 -16 0 -33 0 -50 c 0 -17 0 -34 0 -51 c 0 -17 0 -35 0 -52 c 0 -18 0 -36 0 -53" class="C2" /><path d="M 52268 60652 l 0 -799" class="C2" /><path d="M 12777 60652 l 39491 0" class="C2" /><path d="M 52855 59853 c 0 -5311 0 -10623 0 -16724" class="C2" /><path d="M 52855 60237 c -0 -6 -0 -12 -0 -18 c 0 -6 0 -12 -0 -18 c -0 -6 -0 -13 -0 -19 c -0 -6 -0 -13 -0 -20 c -0 -7 -0 -13 -0 -20 c -0 -5 0 -9 0 -14 c 0 -13 0 -26 0 -39 c 0 -9 0 -18 0 -28 c -0 -10 -0 -19 -0 -29 c -0 -14 -0 -29 -0 -44 c -0 -15 -0 -30 -0 -45 c 0 -15 0 -30 0 -45 c 0 -15 0 -30 0 -46" class="C2" /><path d="M 52268 60652 c 275 39 532 -143 587 -415" class="C2" /><path d="M 52855 69250 l 0 -9014" class="C2" /><path d="M 12190 69250 l 0 -9014" class="C2" /><path d="M 52855 69409 c -0 -0 -0 -0 -0 -1 c 0 -0 0 -1 -0 -2 c -0 -1 -0 -2 -0 -3 c -0 -1 -0 -2 -0 -4 c -0 -1 -0 -3 -0 -5 c -0 -1 0 -2 0 -4 c 0 -4 0 -8 0 -13 c 0 -3 0 -7 0 -11 c -0 -4 -0 -8 -0 -13 c -0 -7 -0 -14 -0 -21 c -0 -8 -0 -16 -0 -25 c 0 -9 0 -18 0 -28 c 0 -10 0 -20 0 -31" class="C2" /><path d="M 12190 69409 c 0 -0 0 -0 0 -1 c 0 -0 0 -1 0 -2 c 0 -1 0 -2 0 -3 c 0 -1 0 -3 0 -5 c 0 -2 0 -4 0 -6 c 0 -2 0 -5 0 -7 c 0 -3 0 -5 0 -8 c 0 -3 0 -6 0 -10 c 0 -7 0 -14 0 -23 c 0 -8 0 -17 0 -27 c 0 -10 0 -20 0 -32 c 0 -11 0 -24 0 -36" class="C2" /><path d="M 12190 69409 c -0 156 62 305 172 415 c 110 110 259 172 415 172" class="C2" /><path d="M 52268 69996 l -39491 0" class="C2" /><path d="M 52268 69996 c 324 0 587 -263 587 -587" class="C2" /><path d="M 52855 10143 l 0 15934" class="C2" /><path d="M 52268 9344 l 0 799" class="C2" /><path d="M 52855 9760 c -55 -272 -312 -454 -587 -415" class="C2" /><path d="M 52855 9760 c 0 56 0 112 0 176 c 0 64 0 136 0 207" class="C2" /><path d="M 12777 9344 l 0 799" class="C2" /><path d="M 52268 9344 l -39491 0" class="C2" /><path d="M 12190 10143 c 0 664 0 1328 0 1992 c -0 664 0 1328 0 1992 c 0 664 0 1328 0 1992 c 0 664 0 1328 0 1992 c -0 664 0 1328 0 1992 c 0 664 0 1328 0 1992 c -0 664 -0 1328 0 1992 c 0 664 0 1328 0 1992" class="C2" /><path d="M 12190 9760 c 0 56 0 112 0 175 c 0 64 0 136 0 208" class="C2" /><path d="M 12777 9344 c -275 -39 -532 143 -587 415" class="C2" /><path d="M 12190 746 l 0 9014" class="C2" /><path d="M 52855 746 l 0 9014" class="C2" /><path d="M 12190 587 c 0 7 0 15 0 41 c 0 26 0 72 0 118" class="C2" /><path d="M 52855 587 c -0 7 -0 15 -0 41 c 0 26 0 72 0 118" class="C2" /><path d="M 12777 0 l 39491 0" class="C2" /><path d="M 52855 587 c 0 -156 -62 -305 -172 -415 c -110 -110 -259 -172 -415 -172" class="C2" /><path d="M 12777 0 c -324 0 -587 263 -587 587" class="C2" /><path d="M 14830 45380 l 0 -2251" class="C2" /><path d="M 14830 26077 l 0 -1461" class="C2" /><path d="M 14887 35183 l 0 -261" class="C2" /><path d="M 14887 34923 l 0 -110" class="C2" /><path d="M 14887 34813 c -11 -90 -30 -179 -56 -269" class="C2" /><path d="M 14830 34544 l 0 -8467" class="C2" /><path d="M 14830 43129 l 0 -7677" class="C2" /><path d="M 14830 35452 c 27 -90 46 -179 56 -269" class="C2" /><path d="M 50158 34813 l 0 110" class="C2" /><path d="M 50158 34923 l 0 261" class="C2" /><path d="M 50158 35183 c 11 90 30 179 56 269" class="C2" /><path d="M 50214 35452 l 0 7677" class="C2" /><path d="M 50214 26077 l 0 8467" class="C2" /><path d="M 50214 34544 c -27 90 -46 179 -56 269" class="C2" /><path d="M 50214 24616 l 0 1461" class="C2" /><path d="M 50214 43129 l 0 2251" class="C2" /><path d="M 15587 24046 l 33870 0" class="C2" /><path d="M 15587 45950 l 33870 0" class="C2" /><path d="M 49457 45950 c 445 -0 757 -235 757 -569" class="C2" /><path d="M 50214 24616 c -0 -335 -312 -569 -757 -569" class="C2" /><path d="M 14830 45380 c 0 335 312 569 757 569" class="C2" /><path d="M 15587 24046 c -445 0 -757 235 -757 569" class="C2" /><path d="M 52268 26077 l 0 17052" class="C2" /><path d="M 12777 43129 l 0 -17052" class="C2" /><path d="M 52855 43129 l 0 -17052" class="C2" /><path d="M 12190 26077 l 0 17052" class="C2" /><path d="M 52855 50476 l 38 0" class="C2" /><path d="M 52892 50167 l -38 0" class="C2" /><path d="M 52892 50167 l 0 308" class="C2" /><path d="M 52892 50664 l -38 0" class="C2" /><path d="M 52892 50664 l 0 307" class="C2" /><path d="M 52855 50971 l 38 0" class="C2" /><path d="M 52855 50662 l 38 0" class="C2" /><path d="M 52892 50664 l 0 -2" class="C2" /><path d="M 52855 50167 l 38 0" class="C2" /><path d="M 52892 50167 l 0 1" class="C2" /><path d="M 12176 65542 l 0 181" class="C2" /><path d="M 11799 65211 l 101 0" class="C2" /><path d="M 11799 65211 l 0 -123" class="C2" /><path d="M 12176 65621 l -376 0" class="C2" /><path d="M 11799 65621 l 0 -410" class="C2" /><path d="M 12176 49382 l 0 182" class="C2" /><path d="M 11874 49610 l -75 0" class="C2" /><path d="M 11874 49610 l 0 -96" class="C2" /><path d="M 12176 49515 l -301 0" class="C2" /><path d="M 11799 49924 l 77 0" class="C2" /><path d="M 11799 49924 l 0 -313" class="C2" /><path d="M 11799 50017 l 0 -94" class="C2" /><path d="M 11799 49508 l 75 0" class="C2" /><path d="M 11799 49508 l 0 -24" class="C2" /><path d="M 12176 49484 l -376 0" class="C2" /><path d="M 11874 49515 l 0 -7" class="C2" /><path d="M 11799 49508 l 0 103" class="C2" /><path d="M 12190 12858 l -38 0" class="C2" /><path d="M 12190 13171 l -38 0" class="C2" /><path d="M 12152 13171 l 0 -313" class="C2" /><path d="M 12190 13581 l -38 0" class="C2" /><path d="M 12152 13581 l 0 -410" class="C2" /><path d="M 12152 12755 l 38 0" class="C2" /><path d="M 12152 12755 l 0 -24" class="C2" /><path d="M 12190 12732 l -38 0" class="C2" /><path d="M 12152 12755 l 0 103" class="C2" /><path d="M 12190 19446 l -38 0" class="C2" /><path d="M 12190 19759 l -38 0" class="C2" /><path d="M 12152 19759 l 0 -313" class="C2" /><path d="M 12190 20168 l -38 0" class="C2" /><path d="M 12152 20168 l 0 -410" class="C2" /><path d="M 12152 19343 l 38 0" class="C2" /><path d="M 12152 19343 l 0 -24" class="C2" /><path d="M 12190 19319 l -38 0" class="C2" /><path d="M 12152 19343 l 0 103" class="C2" /><path d="M 18877 43449 c 0 270 219 489 489 489" class="C2" /><path d="M 18877 26547 l 0 16901" class="C2" /><path d="M 19366 26058 c -270 0 -489 219 -489 489" class="C2" /><path d="M 45678 26058 l -26312 0" class="C2" /><path d="M 46168 26547 c 0 -270 -219 -489 -489 -489" class="C2" /><path d="M 46168 43468 l 0 -16920" class="C2" /><path d="M 45697 43938 c 260 0 471 -211 471 -471" class="C2" /><path d="M 19366 43938 l 26331 0" class="C2" /><path d="M 53227 23272 l 0 -2000" class="C2" /><path d="M 53227 25272 l 0 -2000" class="C2" /><path d="M 69036 23272 l 0 -2000" class="C2" /><path d="M 69036 25272 l 0 -2000" class="C2" /><path d="M 11388 40767 l 0 -4404" class="C2" /><path d="M 10073 40285 l 0 -3440" class="C2" /><path d="M 10033 40277 l 0 -3425" class="C2" /><path d="M 9112 13156 l 0 -1529" class="C2" /><path d="M 9112 14685 l 0 -1529" class="C2" /><path d="M 53589 31073 l 0 14982" class="C2" /><path d="M 12777 43129 l 0 16724" class="C2" /><path d="M 52268 59853 l 0 -16724" class="C2" /><path d="M 52268 26077 l 0 -15934" class="C2" /><path d="M 12777 10143 l 0 15934" class="C2" /><path d="M 116240 45838 l 6141 -1606" class="C4" /><path d="M 116240 31289 l 6141 1606" class="C4" /><path d="M 98289 45838 l 17951 0" class="C4" /><path d="M 557324 38564 l -480238 0" class="C1" /><path d="M 116240 31289 l -17951 0" class="C4" /><path d="M 98289 31289 l 0 14549" class="C4" /><path d="M 116240 31289 l 0 14549" class="C4" /><path d="M 122381 32895 l 0 11337" class="C4" /><path d="M 122381 44232 l 418060 0" class="C4" /><path d="M 540440 32905 c 0 125 102 227 227 227" class="C4" /><path d="M 540667 33131 l 11110 0" class="C4" /><path d="M 540667 43996 l 11110 0" class="C4" /><path d="M 540667 43996 c -125 0 -227 102 -227 227" class="C4" /><path d="M 540440 32895 l 0 11337" class="C4" /><path d="M 509830 38564 l -6802 0" class="C5" /><path d="M 500193 38564 l -13000 0" class="C5" /><path d="M 512664 38564 l 13000 -0" class="C5" /><path d="M 551778 33131 l 0 10865" class="C4" /><path d="M 98289 38564 l 459221 0" class="C1" /><path d="M 98289 33840 l 453488 0" class="C4" /><path d="M 98289 43288 l 453488 0" class="C4" /><path d="M 98289 13527 l 453488 0" class="C4" /><path d="M 98289 63600 l 453488 0" class="C4" /><path d="M 551778 63600 l 0 -50073" class="C4" /><path d="M 98289 63600 l 0 -50073" class="C4" /><path d="M 540440 32895 l -418060 0" class="C4" /><path d="M 982592 44232 l -442151 0" class="C6" /><path d="M 982592 32895 l -442151 -0" class="C6" /><path d="M 999475 38564 l -470719 0" class="C1" /><path d="M 540440 32895 l 0 11337" class="C6" /><path d="M 869168 44232 l 113424 0" class="C6" /><path d="M 869168 32895 l 113424 0" class="C6" /><path d="M 927083 38564 c 0 1435 -1163 2598 -2598 2598 c -1435 0 -2598 -1163 -2598 -2598 c 0 -1435 1163 -2598 2598 -2598 c 1435 0 2598 1163 2598 2598" class="C6" /><path d="M 791037 38564 c 0 1435 -1163 2598 -2598 2598 c -1435 0 -2598 -1163 -2598 -2598 c 0 -1435 1163 -2598 2598 -2598 c 1435 0 2598 1163 2598 2598" class="C6" /><path d="M 982592 32895 l 0 9" class="C6" /><path d="M 982592 32905 c 0 125 102 227 227 227" class="C6" /><path d="M 982818 33131 l 11110 0" class="C6" /><path d="M 982818 43996 l 11110 0" class="C6" /><path d="M 869168 32895 c -1636 1819 -6816 3070 -12706 3070 c -5890 0 -11070 -1252 -12706 -3070" class="C6" /><path d="M 843755 44232 c 1636 -1819 6816 -3070 12706 -3070 c 5890 0 11070 1252 12706 3070" class="C6" /><path d="M 982592 44232 l 0 -9" class="C6" /><path d="M 982818 43996 c -125 0 -227 102 -227 227" class="C6" /><path d="M 982592 32895 l 0 11337" class="C6" /><path d="M 801193 38564 c 0 -2348 -5710 -4251 -12754 -4251 c -7044 0 -12754 1903 -12754 4251 c 0 2348 5710 4251 12754 4251 c 7044 0 12754 -1903 12754 -4251" class="C6" /><path d="M 937239 38564 c 0 -2348 -5710 -4251 -12754 -4251 c -7044 0 -12754 1903 -12754 4251 c 0 2348 5710 4251 12754 4251 c 7044 0 12754 -1903 12754 -4251" class="C6" /><path d="M 993929 33131 l 0 10865" class="C6" /><path d="M 540440 33840 l 453488 0" class="C6" /><path d="M 540440 43288 l 453488 0" class="C6" /><path d="M 540440 13527 l 453488 0" class="C6" /><path d="M 540440 63600 l 453488 0" class="C6" /><path d="M 540440 63600 l 0 -50073" class="C6" /><path d="M 993929 63600 l 0 -50073" class="C6" /></g></svg>